<?xml version="1.0" encoding="utf-8"?>
<!-- Generator: Adobe Illustrator 24.3.0, SVG Export Plug-In . SVG Version: 6.00 Build 0)  -->
<svg version="1.1" id="Layer_1" xmlns="http://www.w3.org/2000/svg" xmlns:xlink="http://www.w3.org/1999/xlink" x="0px" y="0px"
	 viewBox="0 0 311 61" style="enable-background:new 0 0 311 61;" xml:space="preserve">
<style type="text/css">
	.st0{fill:#FFFFFF;}
	.st1{fill:#86DA2F;}
	.st2{fill:#24C2FF;}
	.st3{fill:#FFCB12;}
	.st4{fill:#0069DA;}
	.st5{fill:#FF4649;}
	.st6{fill:#00245E;}
</style>
<path class="st0" d="M96.2,48.5l-2.1-6.3H80.1L78,48.5h-7.5l12.2-35h8.6l12.3,35H96.2z M82.3,35.7h9.6l-4.8-14.3L82.3,35.7z"/>
<path class="st0" d="M106.8,48.5V12h6.5v36.5H106.8z"/>
<path class="st0" d="M146.8,22.8c2.9,0,5.1,0.9,6.8,2.8c1.7,1.9,2.6,4.4,2.6,7.5v15.4h-6.4v-15c0-1.5-0.4-2.7-1.1-3.5
	c-0.7-0.8-1.8-1.2-3.1-1.2c-1.5,0-2.6,0.5-3.4,1.5c-0.8,1-1.2,2.4-1.2,4.2v14h-6.4v-15c0-1.5-0.4-2.7-1.1-3.5
	c-0.7-0.8-1.8-1.2-3.1-1.2c-1.4,0-2.6,0.5-3.5,1.5c-0.8,1-1.2,2.4-1.2,4.2v14h-6.4v-25h6.4v2.6c1.5-2.2,3.8-3.4,7-3.4
	c3.1,0,5.3,1.2,6.8,3.6C141,24,143.5,22.8,146.8,22.8z"/>
<path class="st0" d="M180.7,23.5h6.4v25h-6.4v-3c-1.9,2.4-4.7,3.7-8.2,3.7c-3.3,0-6.2-1.3-8.6-3.8c-2.4-2.6-3.6-5.7-3.6-9.4
	s1.2-6.8,3.6-9.4c2.4-2.6,5.3-3.9,8.6-3.9c3.5,0,6.2,1.2,8.2,3.7V23.5z M168.8,41.1c1.3,1.3,2.9,2,4.9,2s3.7-0.6,5-2
	c1.3-1.3,2-3,2-5.1s-0.7-3.8-2-5c-1.3-1.3-3-2-5-2s-3.6,0.7-4.9,2c-1.3,1.3-1.9,3-1.9,5S167.5,39.8,168.8,41.1z"/>
<path class="st0" d="M200.2,41.9h13.3v6.6h-20.2v-35h6.9V41.9z"/>
<path class="st0" d="M220.4,20.5c-1.1,0-2-0.4-2.8-1.1c-0.8-0.8-1.2-1.7-1.2-2.8c0-1.1,0.4-2,1.2-2.8c0.8-0.8,1.7-1.2,2.8-1.2
	c1.1,0,2,0.4,2.8,1.2c0.8,0.8,1.2,1.7,1.2,2.8c0,1.1-0.4,2-1.2,2.8C222.4,20.1,221.5,20.5,220.4,20.5z M217.2,48.5v-25h6.5v25H217.2
	z"/>
<path class="st0" d="M243.4,22.8c2.7,0,5,0.9,6.8,2.8c1.8,1.8,2.7,4.4,2.7,7.6v15.3h-6.4V33.9c0-1.7-0.5-2.9-1.4-3.8
	c-0.9-0.9-2.1-1.4-3.6-1.4c-1.7,0-3,0.5-4,1.6S236,32.9,236,35v13.5h-6.4v-25h6.4v2.8C237.6,24,240,22.8,243.4,22.8z"/>
<path class="st0" d="M274.9,23.5h6.5v25h-6.5v-2.8c-1.6,2.3-4,3.5-7.4,3.5c-2.7,0-5-0.9-6.8-2.8c-1.8-1.8-2.6-4.4-2.6-7.6V23.5h6.5
	V38c0,1.7,0.4,3,1.3,3.9c0.9,0.9,2.1,1.3,3.6,1.3c1.7,0,3-0.5,4-1.5c1-1,1.5-2.6,1.5-4.7V23.5z"/>
<path class="st0" d="M310.3,48.5h-7.5l-5.4-7.6l-5.5,7.6h-7.4l9.1-12.8l-8.8-12.2h7.4l5.1,7l5-7h7.4l-8.8,12.2L310.3,48.5z"/>
<path class="st1" d="M56.6,34.3c2.6-0.2,4.7,1.5,4.9,4.1c0.2,2.7-1.7,4.9-4.3,5.1c-2.5,0.2-4.7-1.7-4.9-4.2
	C52.1,36.6,53.9,34.6,56.6,34.3z"/>
<path class="st2" d="M25,55.6c0-2.6,2-4.6,4.4-4.6c2.4,0,4.7,2.2,4.7,4.7c0,2.4-2,4.5-4.3,4.6C26.9,60.3,25,58.5,25,55.6z"/>
<path class="st3" d="M32.1,26.4c-0.4,0.2-0.6-0.1-0.7-0.4c-3.7-6.9-2.6-15.6,3.9-20.8c1.7-1.4,4.9-1.7,6.3-0.3
	c0.6,0.5,0.7,1.1,0.8,1.8c0.2,1.5,0.5,3,1.5,4.2c1.1,1.3,2.5,1.8,4.1,1.7c1.4,0,2.8-0.2,3.7,1.4c0.5,0.9,0.3,4.4-0.5,5.1
	c-0.4,0.3-0.7,0.1-1,0c-2.3-0.9-4.7-0.9-7.1-0.5c-0.8,0.1-1.2-0.1-1.2-1c-0.1-1.5-0.4-2.9-1.2-4.2c-1.5-2.7-4.3-2.8-6.1-0.3
	c-1.5,2-1.9,4.4-2.3,6.8C31.9,22,32,24.2,32.1,26.4C32.1,26.4,32,26.4,32.1,26.4z"/>
<path class="st1" d="M34.6,27.9c-0.2-0.3-0.1-0.6,0.2-0.8c5.7-5.2,14.2-6.2,20.8-1.1c1.7,1.4,2.8,4.3,1.9,6c-0.4,0.7-0.9,1-1.5,1.2
	c-1.4,0.6-2.7,1.2-3.6,2.5c-0.9,1.3-1.1,2.8-0.7,4.4c0.3,1.3,0.8,2.7-0.5,3.9c-0.7,0.7-4.1,1.3-5,0.7c-0.4-0.3-0.3-0.6-0.2-1
	c0.3-2.5-0.3-4.8-1.2-7c-0.3-0.8-0.2-1.2,0.6-1.4c1.4-0.4,2.7-1.1,3.7-2.1c2.2-2.1,1.7-4.8-1.2-6c-2.3-1-4.7-0.8-7-0.6
	C38.7,26.7,36.6,27.3,34.6,27.9C34.6,27.9,34.6,27.9,34.6,27.9z"/>
<path class="st2" d="M33.3,30.5c0.3-0.3,0.5-0.2,0.8,0c6.6,4,10,11.9,7,19.6c-0.8,2-3.4,4-5.3,3.5c-0.8-0.2-1.2-0.6-1.6-1.1
	c-0.9-1.2-1.9-2.3-3.4-2.8c-1.6-0.5-3-0.2-4.4,0.6c-1.2,0.7-2.4,1.6-3.9,0.7c-0.9-0.5-2.4-3.6-2.1-4.6C20.6,46,21,46,21.4,46
	c2.5-0.4,4.5-1.6,6.4-3.2c0.6-0.5,1.1-0.5,1.6,0.2c0.8,1.2,1.8,2.2,3.1,2.9c2.6,1.5,5.1,0.2,5.4-2.8c0.3-2.5-0.6-4.7-1.4-6.9
	C35.6,34.2,34.5,32.3,33.3,30.5C33.3,30.5,33.3,30.5,33.3,30.5z"/>
<path class="st4" d="M30.1,31.1c-0.4,2-1.3,3.9-2.5,5.6c-3.6,5.4-8.8,7.6-15.2,7c-2.3-0.2-4.2-2.1-4.4-4c-0.1-0.8,0.1-1.4,0.6-2
	c0.7-0.9,1.3-1.7,1.6-2.8c0.6-2.2-0.2-4-1.8-5.6c-2.2-2.2-1.9-4.2,0.7-5.8c0.3-0.2,0.7-0.4,1.1-0.6c0.6-0.3,1.1-0.3,1.3,0.4
	c0.9,2.3,2.7,4,4.7,5.4c0.7,0.6,0.7,1,0.1,1.7c-1.2,1.3-1.9,2.9-2,4.7c-0.2,2.2,1.1,3.6,3.3,3.6c1.4,0,2.7-0.5,3.9-1.1
	c3.1-1.6,5.5-3.9,7.8-6.3C29.6,31.2,29.7,31,30.1,31.1z"/>
<path class="st5" d="M13.7,10.1c0.2,0,0.7,0.1,1.2,0.2c3.7,0.7,6-0.6,7.2-4.1c0.8-2.3,2.5-3,4.7-1.8c0.1,0,0.1,0.1,0.2,0.1
	C29.3,5.8,29.3,6,27.9,8c-1.2,1.6-1.8,3.4-2.1,5.3c-0.2,1.1-0.6,1.3-1.6,0.9c-1.6-0.6-3.3-0.6-5,0c-1.9,0.6-2.7,2.3-2.1,4.2
	c0.8,2.5,3,3.6,4.9,4.9c1.9,1.3,4.1,2,6.2,2.9c0.3,0.1,0.8,0.1,0.7,0.6c-0.1,0.3-0.5,0.3-0.9,0.3c-4.5,0.2-8.8-0.5-12.3-3.5
	c-3.3-2.7-5.7-6-5.3-10.6C10.7,11.5,11.8,10.4,13.7,10.1z"/>
<path class="st4" d="M5.5,38.2c-2.4,0.3-4.8-1.7-5-4.2c-0.2-2.4,1.8-4.8,4.1-5c2.6-0.3,5,1.5,5.2,3.9C9.9,35.2,8.4,38,5.5,38.2z"/>
<path class="st3" d="M47.5,2.6c2.5-0.2,4.9,1.8,5.1,4.3c0.2,2.4-1.8,4.7-4.2,4.9c-2.6,0.2-4.9-1.7-5.1-4.2
	C43.1,5.1,44.9,2.8,47.5,2.6z"/>
<path class="st5" d="M21.4,4.5c0.3,2.6-1.5,4.8-4.2,5.2c-2.3,0.3-4.7-1.6-5-3.8c-0.3-2.9,1.3-5,4-5.3C18.7,0.3,21.1,2.2,21.4,4.5z"
	/>
<path class="st6" d="M96.2-33.5l-2.1-6.3H80.1L78-33.5h-7.5l12.2-35h8.6l12.3,35H96.2z M82.3-46.3h9.6l-4.8-14.3L82.3-46.3z"/>
<path class="st6" d="M106.8-33.5V-70h6.5v36.5H106.8z"/>
<path class="st6" d="M146.8-59.2c2.9,0,5.1,0.9,6.8,2.8c1.7,1.9,2.6,4.4,2.6,7.5v15.4h-6.4v-15c0-1.5-0.4-2.7-1.1-3.5
	c-0.7-0.8-1.8-1.2-3.1-1.2c-1.5,0-2.6,0.5-3.4,1.5c-0.8,1-1.2,2.4-1.2,4.2v14h-6.4v-15c0-1.5-0.4-2.7-1.1-3.5
	c-0.7-0.8-1.8-1.2-3.1-1.2c-1.4,0-2.6,0.5-3.5,1.5c-0.8,1-1.2,2.4-1.2,4.2v14h-6.4v-25h6.4v2.7c1.5-2.2,3.8-3.4,7-3.4
	c3.1,0,5.3,1.2,6.8,3.6C141-58,143.5-59.2,146.8-59.2z"/>
<path class="st6" d="M180.7-58.5h6.4v25h-6.4v-3c-1.9,2.4-4.7,3.7-8.2,3.7c-3.3,0-6.2-1.3-8.6-3.8c-2.4-2.6-3.6-5.7-3.6-9.4
	s1.2-6.8,3.6-9.3c2.4-2.6,5.3-3.9,8.6-3.9c3.5,0,6.2,1.2,8.2,3.7V-58.5z M168.8-40.9c1.3,1.3,2.9,2,4.9,2s3.7-0.6,5-2
	c1.3-1.3,2-3,2-5.1s-0.7-3.8-2-5c-1.3-1.3-3-2-5-2s-3.6,0.7-4.9,2c-1.3,1.3-1.9,3-1.9,5S167.5-42.2,168.8-40.9z"/>
<path class="st6" d="M200.2-40.1h13.3v6.6h-20.2v-35h6.9V-40.1z"/>
<path class="st6" d="M220.4-61.5c-1.1,0-2-0.4-2.8-1.1c-0.8-0.8-1.2-1.7-1.2-2.8c0-1.1,0.4-2,1.2-2.8c0.8-0.8,1.7-1.2,2.8-1.2
	c1.1,0,2,0.4,2.8,1.2c0.8,0.8,1.2,1.7,1.2,2.8c0,1.1-0.4,2-1.2,2.8C222.4-61.9,221.5-61.5,220.4-61.5z M217.2-33.5v-25h6.5v25H217.2
	z"/>
<path class="st6" d="M243.4-59.2c2.7,0,5,0.9,6.8,2.8c1.8,1.8,2.7,4.4,2.7,7.6v15.3h-6.4v-14.5c0-1.7-0.5-2.9-1.4-3.8
	c-0.9-0.9-2.1-1.4-3.6-1.4c-1.7,0-3,0.5-4,1.6c-1,1-1.5,2.6-1.5,4.6v13.5h-6.4v-25h6.4v2.8C237.6-58,240-59.2,243.4-59.2z"/>
<path class="st6" d="M274.9-58.5h6.5v25h-6.5v-2.8c-1.6,2.3-4,3.5-7.4,3.5c-2.7,0-5-0.9-6.8-2.8c-1.8-1.8-2.6-4.4-2.6-7.6v-15.3h6.5
	V-44c0,1.7,0.4,3,1.3,3.9c0.9,0.9,2.1,1.3,3.6,1.3c1.7,0,3-0.5,4-1.5c1-1,1.5-2.6,1.5-4.7V-58.5z"/>
<path class="st6" d="M310.3-33.5h-7.5l-5.4-7.6l-5.5,7.6h-7.4l9.1-12.8l-8.8-12.2h7.4l5.1,7l5-7h7.4l-8.8,12.2L310.3-33.5z"/>
<path class="st1" d="M56.6-47.7c2.6-0.2,4.7,1.5,4.9,4.1c0.2,2.7-1.7,4.9-4.3,5.1c-2.5,0.2-4.7-1.7-4.9-4.2
	C52.1-45.4,53.9-47.4,56.6-47.7z"/>
<path class="st2" d="M25-26.4c0-2.6,2-4.6,4.4-4.6c2.4,0,4.7,2.2,4.7,4.7c0,2.4-2,4.5-4.3,4.6C26.9-21.7,25-23.5,25-26.4z"/>
<path class="st3" d="M32.1-55.6c-0.4,0.2-0.6-0.1-0.7-0.4c-3.7-6.9-2.6-15.6,3.9-20.8c1.7-1.4,4.9-1.7,6.3-0.3
	c0.6,0.5,0.7,1.1,0.8,1.8c0.2,1.5,0.5,3,1.5,4.2c1.1,1.3,2.5,1.8,4.1,1.7c1.4,0,2.8-0.2,3.7,1.4c0.5,0.9,0.3,4.4-0.5,5.1
	c-0.4,0.3-0.7,0.1-1,0c-2.3-0.9-4.7-0.9-7.1-0.5c-0.8,0.1-1.2-0.1-1.2-1c-0.1-1.5-0.4-2.9-1.2-4.2c-1.5-2.7-4.3-2.8-6.1-0.3
	c-1.5,2-1.9,4.4-2.3,6.8C31.9-60,32-57.8,32.1-55.6C32.1-55.6,32-55.6,32.1-55.6z"/>
<path class="st1" d="M34.6-54.1c-0.2-0.3-0.1-0.6,0.2-0.8c5.7-5.2,14.2-6.2,20.8-1.1c1.7,1.4,2.8,4.3,1.9,6c-0.4,0.7-0.9,1-1.5,1.2
	c-1.4,0.6-2.7,1.2-3.6,2.5c-0.9,1.3-1.1,2.8-0.7,4.4c0.3,1.3,0.8,2.7-0.5,3.9c-0.7,0.7-4.1,1.3-5,0.7c-0.4-0.3-0.3-0.6-0.2-1
	c0.3-2.5-0.3-4.8-1.2-7c-0.3-0.8-0.2-1.2,0.6-1.4c1.4-0.4,2.7-1.1,3.7-2.1c2.2-2.1,1.7-4.8-1.2-6c-2.3-1-4.7-0.8-7-0.6
	C38.7-55.3,36.6-54.7,34.6-54.1C34.6-54.1,34.6-54.1,34.6-54.1z"/>
<path class="st2" d="M33.3-51.5c0.3-0.3,0.5-0.2,0.8,0c6.6,4,10,11.9,7,19.6c-0.8,2-3.4,4-5.3,3.5c-0.8-0.2-1.2-0.6-1.6-1.1
	c-0.9-1.2-1.9-2.3-3.4-2.8c-1.6-0.5-3-0.2-4.4,0.6c-1.2,0.7-2.4,1.6-3.9,0.7c-0.9-0.5-2.4-3.6-2.1-4.6C20.6-36,21-36,21.4-36
	c2.5-0.4,4.5-1.6,6.4-3.2c0.6-0.5,1.1-0.5,1.6,0.2c0.8,1.2,1.8,2.2,3.1,2.9c2.6,1.5,5.1,0.2,5.4-2.8c0.3-2.5-0.6-4.7-1.4-6.9
	C35.6-47.8,34.5-49.7,33.3-51.5C33.3-51.5,33.3-51.5,33.3-51.5z"/>
<path class="st4" d="M30.1-50.9c-0.4,2-1.3,3.9-2.5,5.6c-3.6,5.4-8.8,7.6-15.2,7c-2.3-0.2-4.2-2.1-4.4-4c-0.1-0.8,0.1-1.4,0.6-2
	c0.7-0.9,1.3-1.7,1.6-2.8c0.6-2.2-0.2-4-1.8-5.6c-2.2-2.2-1.9-4.2,0.7-5.8c0.3-0.2,0.7-0.4,1.1-0.6c0.6-0.3,1.1-0.3,1.3,0.4
	c0.9,2.3,2.7,4,4.7,5.4c0.7,0.6,0.7,1,0.1,1.7c-1.2,1.3-1.9,2.9-2,4.7c-0.2,2.2,1.1,3.6,3.3,3.6c1.4,0,2.7-0.5,3.9-1.1
	c3.1-1.6,5.5-3.9,7.8-6.3C29.6-50.8,29.7-51,30.1-50.9z"/>
<path class="st5" d="M13.7-71.9c0.2,0,0.7,0.1,1.2,0.2c3.7,0.7,6-0.6,7.2-4.1c0.8-2.3,2.5-3,4.7-1.8c0.1,0,0.1,0.1,0.2,0.1
	c2.2,1.3,2.2,1.5,0.7,3.5c-1.2,1.6-1.8,3.4-2.1,5.3c-0.2,1.1-0.6,1.3-1.6,0.9c-1.6-0.6-3.3-0.6-5,0c-1.9,0.6-2.7,2.3-2.1,4.2
	c0.8,2.5,3,3.6,4.9,4.9c1.9,1.3,4.1,2,6.2,2.9c0.3,0.1,0.8,0.1,0.7,0.6c-0.1,0.3-0.5,0.3-0.9,0.3c-4.5,0.2-8.8-0.5-12.3-3.5
	c-3.3-2.7-5.7-6-5.3-10.6C10.7-70.5,11.8-71.6,13.7-71.9z"/>
<path class="st4" d="M5.5-43.8c-2.4,0.3-4.8-1.7-5-4.2c-0.2-2.4,1.8-4.8,4.1-5c2.6-0.3,5,1.5,5.2,3.9C9.9-46.8,8.4-44,5.5-43.8z"/>
<path class="st3" d="M47.5-79.4c2.5-0.2,4.9,1.8,5.1,4.3c0.2,2.4-1.8,4.7-4.2,4.9c-2.6,0.2-4.9-1.7-5.1-4.2
	C43.1-76.9,44.9-79.2,47.5-79.4z"/>
<path class="st5" d="M21.4-77.5c0.3,2.6-1.5,4.8-4.2,5.2c-2.3,0.3-4.7-1.6-5-3.8c-0.3-2.9,1.3-5,4-5.3
	C18.7-81.7,21.1-79.8,21.4-77.5z"/>
</svg>
