<?xml version="1.0" encoding="utf-8"?>
<svg version="1.1" id="Слой_1" x="0px" y="0px" viewBox="0 0 100 100" style="enable-background:new 0 0 100 100;" xmlns="http://www.w3.org/2000/svg">
  <style type="text/css">
	.st0{fill:#86DA2F;}
	.st1{fill:#24C2FF;}
	.st2{fill:#FFCB12;}
	.st3{fill:#0069DA;}
	.st4{fill:#FF4649;}
</style>
  <ellipse style="fill: rgb(255, 255, 255); stroke: rgb(255, 255, 255);" cx="50" cy="50" rx="50" ry="50"/>
  <g>
    <g>
      <path class="st0" d="M86,55.9c3.6-0.3,6.5,2.1,6.8,5.7c0.3,3.8-2.4,6.8-6,7.1c-3.5,0.3-6.5-2.4-6.8-5.8 C79.7,59.1,82.2,56.3,86,55.9z"/>
      <path class="st1" d="M42.1,85.5c0-3.6,2.8-6.4,6.1-6.4s6.5,3.1,6.5,6.5c0,3.3-2.8,6.3-6,6.4C44.7,92,42.1,89.5,42.1,85.5z"/>
      <path class="st2" d="M51.9,44.9c-0.6,0.3-0.8-0.1-1-0.6c-5.1-9.6-3.6-21.7,5.4-28.9c2.4-1.9,6.8-2.4,8.8-0.4 c0.8,0.7,1,1.5,1.1,2.5c0.3,2.1,0.7,4.2,2.1,5.8c1.5,1.8,3.5,2.5,5.7,2.4c1.9,0,3.9-0.3,5.1,1.9c0.7,1.3,0.4,6.1-0.7,7.1 c-0.6,0.4-1,0.1-1.4,0c-3.2-1.3-6.5-1.3-9.9-0.7c-1.1,0.1-1.7-0.1-1.7-1.4c-0.1-2.1-0.6-4-1.7-5.8c-2.1-3.8-6-3.9-8.5-0.4 c-2.1,2.8-2.6,6.1-3.2,9.4C51.6,38.8,51.8,41.9,51.9,44.9C51.9,44.9,51.8,44.9,51.9,44.9z"/>
      <path class="st0" d="M55.4,47c-0.3-0.4-0.1-0.8,0.3-1.1c7.9-7.2,19.7-8.6,28.9-1.5c2.4,1.9,3.9,6,2.6,8.3c-0.6,1-1.3,1.4-2.1,1.7 c-1.9,0.8-3.8,1.7-5,3.5c-1.3,1.8-1.5,3.9-1,6.1c0.4,1.8,1.1,3.8-0.7,5.4c-1,1-5.7,1.8-6.9,1c-0.6-0.4-0.4-0.8-0.3-1.4 c0.4-3.5-0.4-6.7-1.7-9.7c-0.4-1.1-0.3-1.7,0.8-1.9c1.9-0.6,3.8-1.5,5.1-2.9c3.1-2.9,2.4-6.7-1.7-8.3c-3.2-1.4-6.5-1.1-9.7-0.8 C61.1,45.3,58.2,46.2,55.4,47L55.4,47z"/>
      <path class="st1" d="M53.6,50.6c0.4-0.4,0.7-0.3,1.1,0c9.2,5.6,13.9,16.5,9.7,27.2c-1.1,2.8-4.7,5.6-7.4,4.9 c-1.1-0.3-1.7-0.8-2.2-1.5c-1.3-1.7-2.6-3.2-4.7-3.9c-2.2-0.7-4.2-0.3-6.1,0.8c-1.7,1-3.3,2.2-5.4,1c-1.3-0.7-3.3-5-2.9-6.4 c0.3-0.6,0.8-0.6,1.4-0.6c3.5-0.6,6.3-2.2,8.9-4.4c0.8-0.7,1.5-0.7,2.2,0.3c1.1,1.7,2.5,3.1,4.3,4c3.6,2.1,7.1,0.3,7.5-3.9 c0.4-3.5-0.8-6.5-1.9-9.6C56.8,55.7,55.3,53.1,53.6,50.6L53.6,50.6z"/>
      <path class="st3" d="M49.1,51.4c-0.6,2.8-1.8,5.4-3.5,7.8c-5,7.5-12.2,10.6-21.1,9.7c-3.2-0.3-5.8-2.9-6.1-5.6 c-0.1-1.1,0.1-1.9,0.8-2.8c1-1.3,1.8-2.4,2.2-3.9c0.8-3.1-0.3-5.6-2.5-7.8c-3.1-3.1-2.6-5.8,1-8.1c0.4-0.3,1-0.6,1.5-0.8 c0.8-0.4,1.5-0.4,1.8,0.6c1.3,3.2,3.8,5.6,6.5,7.5c1,0.8,1,1.4,0.1,2.4c-1.7,1.8-2.6,4-2.8,6.5c-0.3,3.1,1.5,5,4.6,5 c1.9,0,3.8-0.7,5.4-1.5c4.3-2.2,7.6-5.4,10.8-8.8C48.4,51.6,48.6,51.3,49.1,51.4z"/>
      <path class="st4" d="M26.3,22.3c0.3,0,1,0.1,1.7,0.3c5.1,1,8.3-0.8,10-5.7c1.1-3.2,3.5-4.2,6.5-2.5c0.1,0,0.1,0.1,0.3,0.1 c3.1,1.8,3.1,2.1,1,4.9c-1.7,2.2-2.5,4.7-2.9,7.4c-0.3,1.5-0.8,1.8-2.2,1.3c-2.2-0.8-4.6-0.8-6.9,0c-2.6,0.8-3.8,3.2-2.9,5.8 c1.1,3.5,4.2,5,6.8,6.8s5.7,2.8,8.6,4c0.4,0.1,1.1,0.1,1,0.8c-0.1,0.4-0.7,0.4-1.3,0.4c-6.3,0.3-12.2-0.7-17.1-4.9 c-4.6-3.8-7.9-8.3-7.4-14.7C22.2,24.2,23.7,22.7,26.3,22.3z"/>
      <path class="st3" d="M15,61.3c-3.3,0.4-6.7-2.4-6.9-5.8c-0.3-3.3,2.5-6.7,5.7-6.9c3.6-0.4,6.9,2.1,7.2,5.4 C21.1,57.1,19,61,15,61.3z"/>
      <path class="st2" d="M73.3,11.8c3.5-0.3,6.8,2.5,7.1,6c0.3,3.3-2.5,6.5-5.8,6.8c-3.6,0.3-6.8-2.4-7.1-5.8 C67.2,15.3,69.7,12.1,73.3,11.8z"/>
      <path class="st4" d="M37,14.5c0.4,3.6-2.1,6.7-5.8,7.2c-3.2,0.4-6.5-2.2-6.9-5.3c-0.4-4,1.8-6.9,5.6-7.4 C33.3,8.6,36.6,11.3,37,14.5z"/>
    </g>
  </g>
</svg>