<?xml version="1.0" encoding="utf-8"?>
<!-- Generator: Adobe Illustrator 22.1.0, SVG Export Plug-In . SVG Version: 6.00 Build 0)  -->
<svg version="1.1" id="Layer_1" xmlns="http://www.w3.org/2000/svg" xmlns:xlink="http://www.w3.org/1999/xlink" x="0px" y="0px"
	 viewBox="0 0 697.4 185" style="enable-background:new 0 0 697.4 185;" xml:space="preserve">
<style type="text/css">
	.st0{fill:#8DC63F;}
	.st1{fill:#48BEEE;}
	.st2{fill:#FFCC14;}
	.st3{fill:#376AB3;}
	.st4{fill:#F0494E;}
	.st5{fill:#0D2335;}
</style>
<g>
	<g>
		<g>
			<path class="st0" d="M183.1,105.6c6.5-0.5,11.7,3.8,12.1,10.2c0.5,6.6-4.2,12.2-10.6,12.7c-6.1,0.4-11.7-4.2-12.1-10.4
				C171.9,111.3,176.3,106.2,183.1,105.6"/>
		</g>
		<g>
			<path class="st1" d="M104.5,158.6c0-6.4,4.9-11.5,10.9-11.5c6.1-0.1,11.6,5.5,11.7,11.8c0.1,6-5,11.3-10.8,11.4
				C109.2,170.3,104.5,165.7,104.5,158.6"/>
		</g>
		<g>
			<path class="st2" d="M122,85.8c-1,0.4-1.4-0.1-1.8-1c-9.2-17.3-6.4-38.8,9.7-51.7c4.3-3.4,12.2-4.3,15.7-0.9
				c1.4,1.4,1.8,2.7,2,4.4c0.5,3.7,1.3,7.4,3.8,10.4c2.7,3.2,6.2,4.4,10.3,4.3c3.4,0,7-0.4,9.2,3.6c1.3,2.3,0.6,10.9-1.3,12.6
				c-0.9,0.8-1.7,0.3-2.5,0c-5.8-2.3-11.7-2.3-17.7-1.3c-2,0.3-3-0.4-3.1-2.4c-0.2-3.7-1.1-7.2-2.9-10.4c-3.8-6.6-10.6-7.1-15.2-0.8
				c-3.7,5-4.7,11.1-5.6,16.9C121.7,75,121.8,80.5,122,85.8C121.9,85.9,122,85.8,122,85.8"/>
		</g>
		<g>
			<path class="st0" d="M128.3,89.6c-0.6-0.9-0.2-1.4,0.5-2c14.3-12.9,35.4-15.4,51.7-2.8c4.3,3.4,7.1,10.8,4.7,15
				c-1,1.7-2.1,2.4-3.7,3c-3.4,1.4-6.8,3-9,6.1c-2.4,3.3-2.7,7-1.6,11c0.9,3.3,2.1,6.7-1.2,9.7c-1.9,1.8-10.2,3.2-12.4,1.7
				c-1-0.7-0.7-1.6-0.6-2.4c0.8-6.1-0.7-11.9-3-17.5c-0.8-1.9-0.4-3,1.6-3.6c3.5-1.1,6.6-2.7,9.2-5.3c5.4-5.3,4.2-11.9-2.9-14.9
				c-5.7-2.4-11.7-1.9-17.5-1.4C138.6,86.7,133.4,88.1,128.3,89.6C128.3,89.5,128.3,89.6,128.3,89.6"/>
		</g>
		<g>
			<path class="st1" d="M125.1,96.2c0.7-0.8,1.3-0.6,2.1-0.1c16.5,10,24.8,29.6,17.4,48.8c-2,5.1-8.4,9.8-13.1,8.7
				c-1.9-0.5-2.9-1.4-3.9-2.7c-2.3-2.9-4.8-5.7-8.5-6.9c-3.9-1.3-7.5-0.6-11,1.6c-2.9,1.8-5.9,3.9-9.7,1.7c-2.2-1.3-6-8.9-5.1-11.4
				c0.4-1.1,1.3-1.1,2.1-1.3c6.1-0.9,11.2-4.1,15.9-7.9c1.6-1.3,2.8-1.2,3.9,0.5c2,3,4.5,5.6,7.7,7.3c6.6,3.7,12.6,0.6,13.5-7
				c0.7-6.1-1.5-11.7-3.6-17.2C130.8,105.3,128,100.6,125.1,96.2C125.1,96.1,125.1,96.2,125.1,96.2"/>
		</g>
		<g>
			<path class="st3" d="M117.2,97.6c-1.1,5.1-3.3,9.8-6.1,14c-9,13.3-21.9,18.9-37.7,17.5c-5.6-0.5-10.6-5.2-10.9-9.9
				c-0.1-1.9,0.3-3.5,1.5-5c1.6-2.2,3.3-4.3,4-7c1.4-5.5-0.5-10-4.4-13.9c-5.4-5.4-4.8-10.4,1.8-14.4c0.8-0.5,1.8-0.9,2.7-1.4
				c1.4-0.8,2.7-0.7,3.3,1c2.2,5.8,6.7,9.9,11.6,13.5c1.9,1.4,1.7,2.6,0.3,4.2c-3,3.3-4.6,7.2-5.1,11.7c-0.5,5.4,2.7,8.9,8.2,9
				c3.5,0.1,6.6-1.2,9.7-2.8c7.7-3.9,13.7-9.7,19.5-15.7C116,97.8,116.2,97.3,117.2,97.6"/>
		</g>
		<g>
			<path class="st4" d="M76.4,45.4c0.6,0.1,1.8,0.2,3,0.4c9.1,1.8,14.9-1.4,18-10.1c2.1-5.8,6.2-7.4,11.7-4.6
				c0.2,0.1,0.4,0.2,0.6,0.3c5.4,3.2,5.5,3.7,1.9,8.7c-2.9,3.9-4.4,8.5-5.2,13.2c-0.5,2.6-1.4,3.1-3.9,2.3
				c-4.1-1.4-8.2-1.4-12.3,0.1c-4.8,1.6-6.8,5.8-5.1,10.6c2,6.2,7.5,8.9,12.3,12.2c4.7,3.3,10.2,4.9,15.4,7.2
				c0.7,0.3,2.1,0.3,1.7,1.6c-0.2,0.9-1.3,0.6-2.1,0.7c-11.2,0.6-21.8-1.3-30.7-8.8c-8.1-6.8-14.2-14.8-13.1-26.3
				C68.8,48.8,71.7,46,76.4,45.4"/>
		</g>
		<g>
			<path class="st3" d="M55.9,115.2c-6,0.7-11.8-4.2-12.5-10.5c-0.6-5.9,4.4-11.9,10.1-12.5c6.5-0.7,12.3,3.7,12.9,9.6
				C66.9,107.7,63.2,114.7,55.9,115.2"/>
		</g>
		<g>
			<path class="st2" d="M160.4,26.6c6.2-0.6,12.1,4.5,12.6,10.8c0.4,6-4.5,11.7-10.4,12.3c-6.4,0.6-12.1-4.1-12.6-10.6
				C149.4,32.8,154.1,27.2,160.4,26.6"/>
		</g>
		<g>
			<path class="st4" d="M95.5,31.4c0.6,6.6-3.8,12.1-10.4,12.8c-5.6,0.7-11.7-3.9-12.3-9.4c-0.8-7.2,3.1-12.5,10-13.3
				C88.7,20.9,94.8,25.6,95.5,31.4"/>
		</g>
	</g>
	<g>
		<g>
			<path class="st5" d="M259.7,148.6l-3.7-11.1h-24.5l-3.7,11.1h-13.1l21.5-61.5h15l21.6,61.5H259.7z M235.3,126.2h16.9l-8.4-25.1
				L235.3,126.2z"/>
		</g>
		<g>
			<rect x="278.3" y="84.5" class="st5" width="11.3" height="64.1"/>
		</g>
		<g>
			<path class="st5" d="M348.5,103.5c5,0,9,1.6,12,4.9c3,3.3,4.6,7.7,4.6,13.2v27h-11.3v-26.3c0-2.6-0.6-4.7-1.9-6.1
				c-1.3-1.5-3.1-2.2-5.4-2.2c-2.6,0-4.6,0.8-6.1,2.5c-1.4,1.7-2.1,4.2-2.1,7.4v24.7h-11.3v-26.3c0-2.6-0.6-4.7-1.9-6.1
				c-1.3-1.5-3.1-2.2-5.4-2.2c-2.5,0-4.5,0.8-6.1,2.5c-1.5,1.7-2.2,4.2-2.2,7.4v24.7H300v-43.9h11.3v4.7c2.6-3.9,6.7-5.9,12.2-5.9
				c5.4,0,9.4,2.1,11.9,6.3C338.4,105.6,342.7,103.5,348.5,103.5"/>
		</g>
		<g>
			<path class="st5" d="M408.1,104.7h11.3v43.9h-11.3v-5.2c-3.4,4.3-8.2,6.4-14.3,6.4c-5.9,0-10.9-2.2-15.1-6.7
				c-4.2-4.5-6.2-10-6.2-16.5s2.1-12,6.2-16.4c4.2-4.5,9.2-6.8,15.1-6.8c6.1,0,10.9,2.1,14.3,6.4V104.7z M387.2,135.6
				c2.3,2.3,5.2,3.4,8.7,3.4c3.5,0,6.4-1.1,8.7-3.4c2.3-2.3,3.5-5.3,3.5-9s-1.2-6.6-3.5-8.9c-2.3-2.3-5.2-3.5-8.7-3.5
				c-3.5,0-6.4,1.2-8.7,3.5c-2.3,2.3-3.4,5.2-3.4,8.9S384.9,133.3,387.2,135.6"/>
		</g>
		<g>
			<polygon class="st5" points="442.4,137 465.8,137 465.8,148.6 430.2,148.6 430.2,87.2 442.4,87.2 			"/>
		</g>
		<g>
			<path class="st5" d="M477.8,99.5c-1.9,0-3.5-0.7-4.9-2c-1.3-1.4-2-3-2-4.9c0-1.9,0.7-3.5,2-4.9c1.4-1.4,3-2.1,4.9-2.1
				c1.9,0,3.6,0.7,4.9,2.1c1.4,1.4,2.1,3,2.1,4.9c0,1.9-0.7,3.5-2.1,4.9C481.4,98.8,479.7,99.5,477.8,99.5 M472.2,104.7h11.3v43.9
				h-11.3V104.7z"/>
		</g>
		<g>
			<path class="st5" d="M518.3,103.5c4.8,0,8.8,1.6,11.9,4.8c3.2,3.2,4.7,7.7,4.7,13.3v27h-11.3v-25.6c0-2.9-0.8-5.2-2.4-6.7
				c-1.6-1.6-3.7-2.4-6.3-2.4c-2.9,0-5.3,0.9-7,2.7c-1.8,1.8-2.6,4.5-2.6,8.2v23.7h-11.3v-43.9h11.3v4.9
				C507.9,105.5,512.3,103.5,518.3,103.5"/>
		</g>
		<g>
			<path class="st5" d="M573.5,104.7h11.3v43.9h-11.3v-4.9c-2.8,4.1-7.1,6.1-13.1,6.1c-4.8,0-8.8-1.6-11.9-4.8
				c-3.1-3.2-4.7-7.7-4.7-13.3v-27h11.3v25.6c0,2.9,0.8,5.2,2.4,6.8c1.6,1.5,3.7,2.3,6.3,2.3c2.9,0,5.3-0.9,7-2.7
				c1.8-1.8,2.6-4.5,2.6-8.2V104.7z"/>
		</g>
		<g>
			<polygon class="st5" points="635.7,148.6 622.6,148.6 613.1,135.3 603.6,148.6 590.5,148.6 606.5,126.2 591.2,104.7 604.3,104.7 
				613.1,117.1 622,104.7 635,104.7 619.6,126.1 			"/>
		</g>
	</g>
	<g>
		<path class="st5" d="M271.1,44.2c0,9.6-6.9,15.4-18.4,15.4h-10.9v13.4h-6.3V28.8h17.2C264.2,28.8,271.1,34.6,271.1,44.2z
			 M264.8,44.2c0-6.3-4.2-9.9-12.3-9.9h-10.7v19.8h10.7C260.6,54.1,264.8,50.5,264.8,44.2z"/>
		<path class="st5" d="M274.7,56.2c0-10,7.4-17,17.4-17s17.3,7.1,17.3,17s-7.3,17.1-17.3,17.1S274.7,66.2,274.7,56.2z M303.3,56.2
			c0-7.1-4.8-11.7-11.2-11.7s-11.3,4.6-11.3,11.7c0,7.1,4.9,11.8,11.3,11.8S303.3,63.3,303.3,56.2z"/>
		<path class="st5" d="M365.8,39.5l-12.5,33.4h-5.8l-9.6-25.3l-9.8,25.3h-5.8l-12.4-33.4h5.7l9.7,26.6l10.1-26.6h5.1l9.9,26.7
			l10-26.7H365.8z"/>
		<path class="st5" d="M399.4,58.2h-27.1c0.8,5.9,5.5,9.8,12.1,9.8c3.9,0,7.2-1.3,9.6-4l3.3,3.9c-3,3.5-7.6,5.4-13.2,5.4
			c-10.8,0-18-7.1-18-17.1c0-9.9,7.1-17,16.8-17s16.5,6.9,16.5,17.2C399.5,56.9,399.5,57.7,399.4,58.2z M372.3,53.9h21.4
			c-0.6-5.6-4.9-9.6-10.7-9.6C377.2,44.3,373,48.2,372.3,53.9z"/>
		<path class="st5" d="M424.3,39.2v5.9c-0.5-0.1-0.9-0.1-1.4-0.1c-6.5,0-10.5,4-10.5,11.3v16.6h-6V39.5h5.8v5.6
			C414.3,41.2,418.4,39.2,424.3,39.2z"/>
		<path class="st5" d="M459.9,58.2h-27.1c0.8,5.9,5.5,9.8,12.1,9.8c3.9,0,7.2-1.3,9.6-4l3.3,3.9c-3,3.5-7.6,5.4-13.2,5.4
			c-10.8,0-18-7.1-18-17.1c0-9.9,7.1-17,16.8-17S460,46.1,460,56.4C460,56.9,460,57.7,459.9,58.2z M432.8,53.9h21.4
			c-0.6-5.6-4.9-9.6-10.7-9.6C437.7,44.3,433.4,48.2,432.8,53.9z"/>
		<path class="st5" d="M498.3,26.2v46.7h-5.8v-5.3c-2.7,3.8-7,5.7-11.9,5.7c-9.8,0-16.9-6.9-16.9-17.1s7.1-17,16.9-17
			c4.7,0,8.9,1.8,11.7,5.4V26.2H498.3z M492.3,56.2c0-7.1-4.9-11.7-11.2-11.7c-6.4,0-11.3,4.6-11.3,11.7c0,7.1,4.9,11.8,11.3,11.8
			C487.5,68,492.3,63.3,492.3,56.2z"/>
		<path class="st5" d="M558.2,56.2c0,10.2-7.1,17.1-16.9,17.1c-4.9,0-9.2-1.9-11.9-5.7v5.3h-5.8V26.2h6v18.4
			c2.8-3.6,6.9-5.4,11.7-5.4C551.1,39.2,558.2,46,558.2,56.2z M552.1,56.2c0-7.1-4.9-11.7-11.3-11.7c-6.4,0-11.2,4.6-11.2,11.7
			c0,7.1,4.9,11.8,11.2,11.8C547.2,68,552.1,63.3,552.1,56.2z"/>
		<path class="st5" d="M593.6,39.5l-16.2,36.7c-3,7.1-6.8,9.3-11.9,9.3c-3.2,0-6.5-1.1-8.6-3.1l2.6-4.5c1.6,1.6,3.7,2.5,6,2.5
			c2.9,0,4.7-1.3,6.4-5.2l1.1-2.3l-14.7-33.3h6.3l11.7,26.7l11.5-26.7H593.6z"/>
	</g>
</g>
</svg>
