<?xml version="1.0" encoding="UTF-8"?>
<svg id="Layer_1" data-name="Layer 1" xmlns="http://www.w3.org/2000/svg" viewBox="0 0 290.2169549 87.0953649">
  <defs>
    <style>
      .cls-1 {
        fill: #41a1be;
      }

      .cls-2 {
        fill: #1a1a18;
      }

      .cls-3 {
        fill: #85c023;
      }
    </style>
  </defs>
  <g>
    <polygon points="61.9304644 45.6098513 66.5013113 27.2776289 77.8989928 27.2776289 77.1559849 30.2580494 69.1442324 30.2580494 67.9444843 35.0708232 75.1732323 35.0708232 74.4366658 38.0251785 67.2079178 38.0251785 65.3165432 45.6098513 61.9304644 45.6098513"/>
    <path d="M80.5389179,45.844438c-2.6204511,0-4.0739603-.6761971-4.8605601-2.2604817l-.0710052-.1432088,2.7894255-1.6921406.0840378.1701728c.3427424.6962703.9044923,1.1273947,2.6427713,1.1273947,1.357038,0,2.2532913-.4745663,2.4592663-1.3020615.0852362-.3406452.0707056-.5788271-.0455392-.7498987-.246421-.362516-1.0226845-.5326887-2.1123296-.6767963-1.6687718-.21721-2.8085999-.7576883-3.3872772-1.6061554-.4757647-.6977683-.5786773-1.606455-.3058916-2.7008937.6273623-2.5139433,2.8766091-4.0149392,6.0168661-4.0149392,2.4648089,0,3.887759.7229347,4.4781207,2.2745629l.0513814.13482-2.7143757,1.6579862-.0862848-.1641808c-.3758482-.7157443-.8498153-1.0788595-2.3973989-1.0788595-.7096025,0-1.9385616.1551928-2.1980152,1.1963027-.0774466.3106852-.053179.5521627.074151.7376151.2281454.332556.7827049.5311907,1.854374.6645127,1.878342.226198,3.0274577.7292263,3.6157222,1.5830862.4769631.6923755.5681913,1.5920742.2792272,2.7503277-.6487837,2.6008273-2.8963827,4.0928351-6.1666661,4.0928351Z"/>
    <path d="M92.7199035,45.844438c-1.5736488,0-2.7461333-.4362176-3.3905728-1.2613159-.5849689-.7487003-.7226351-1.765243-.4092536-3.0217653.8212035-3.2964984,3.70725-3.9885744,5.9836105-3.9885744h2.6817193l.2407286-.9635135c.1799098-.7214367.1679258-1.1612495-.038948-1.4260958-.242676-.3106852-.7976849-.4431084-1.8560218-.4431084-1.4286424,0-2.0816206.1680756-2.9004273,1.1136131l-.1127994.130326-1.923282-1.6331194.1142974-.1327228c1.3594348-1.5785922,2.9825177-2.2227322,5.6022198-2.2227322,2.0088178,0,3.2455664.3855852,3.892253,1.2133799.5962039.7633807.6922257,1.912047.2931586,3.5119108l-2.2167402,8.889131h-3.0980135l.1968372-.7894459c-.8077215.7292263-1.717307,1.0240327-3.0587659,1.0240327ZM94.5795205,40.0585635c-1.5125304,0-2.3090169.4892467-2.5822521,1.586981-.1074066.4302256-.0686084.7678747.115346,1.0033603.2429756.3112844.7657775.4754651,1.5117814.4754651,1.5910256,0,2.6878611-.4443068,3.2392748-2.6568525l.1023134-.408954h-2.3864635Z"/>
    <path d="M106.7010356,45.844438c-2.6204511,0-4.0739603-.6761971-4.8605601-2.2604817l-.0710052-.1432088,2.7894255-1.6921406.083888.1701728c.343042.6962703.9047919,1.1273947,2.6429211,1.1273947,1.357038,0,2.2534411-.4745663,2.4592663-1.3020615.0852362-.3406452.0708554-.5788271-.0453894-.7498987-.246421-.362516-1.0228343-.5326887-2.1124794-.6767963-1.668622-.21721-2.8084501-.7576883-3.3871274-1.6061554-.4757647-.6977683-.5786773-1.606455-.3058916-2.7008937.6273623-2.5139433,2.8766091-4.0149392,6.0168661-4.0149392,2.4649587,0,3.887759.7229347,4.4779709,2.2745629l.0513814.13482-2.7142259,1.6579862-.0862848-.1641808c-.3758482-.7157443-.8498153-1.0788595-2.3973989-1.0788595-.7096025,0-1.9385616.1551928-2.198165,1.1963027-.0774466.3106852-.053179.5521627.074151.7376151.2281454.332556.7828547.5311907,1.8545238.6645127,1.878342.226198,3.0274577.7292263,3.6157222,1.5830862.4768133.6923755.5681913,1.5920742.2789276,2.7503277-.6484841,2.6008273-2.8960831,4.0928351-6.1665163,4.0928351Z"/>
    <polygon points="125.7875009 45.6098513 129.6153398 30.2580494 124.422823 30.2580494 125.1658309 27.2776289 138.9108782 27.2776289 138.1677205 30.2580494 133.0012688 30.2580494 129.1735797 45.6098513 125.7875009 45.6098513"/>
    <path d="M141.2824903,45.844438c-1.73753,0-3.0695515-.5296927-3.8522564-1.5312554-.8445723-1.0806571-1.0390127-2.6625449-.5626487-4.5748915l.4414606-1.772733c.9603677-3.8498596,3.4182858-5.9701285,6.9213584-5.9701285,1.6512452,0,2.8424547.4529951,3.5403728,1.3464022.8143127,1.0423083.9510801,2.6790229.4062576,4.8637059l-.3903788,1.5663086h-7.8021823c-.290612,1.2448379-.2145136,2.1628122.2100196,2.7062865.3216206.4116504.8535603.6201719,1.5814384.6201719,1.4924572,0,2.1848328-.4467036,2.8763095-1.2184731l.1127994-.1261316,1.9851494,1.6789582-.1092042.1324232c-1.2980169,1.5761954-2.9506103,2.2793565-5.3584952,2.2793565ZM145.2461978,37.286365c.164031-.9434403.0798434-1.6241314-.2506154-2.0249962-.2739842-.3322564-.7217363-.4937407-1.3687224-.4937407-1.376512,0-2.3771759.8469691-2.9769751,2.5187369h4.5963129Z"/>
    <path d="M154.663224,45.844438c-1.7438216,0-3.0833331-.5350855-3.8738276-1.5468346-.8451715-1.0821551-1.0412597-2.6586501-.5671427-4.5596119l.4413108-1.7724334c.9467359-3.794134,3.6695004-5.9701285,7.469926-5.9701285,2.1036412,0,3.586661.7876483,4.1759741,2.2179386l.0575232.139314-2.8063529,1.6609822-.0802928-.1758652c-.315329-.6902783-1.0264295-1.0701711-2.0023764-1.0701711-1.892573,0-3.1868448,1.1801243-3.7429024,3.4133424l-.3770466,1.5111822c-.3163776,1.2679071-.2575062,2.1912742.1748166,2.7449349.3428922.438914.9417925.6612171,1.7800732.6612171,1.1154107,0,2.0110648-.4077556,2.6623951-1.2118819l.1110018-.1372168,2.0181054,1.681355-.1077062.133322c-1.2413925,1.534551-2.9859631,2.2805549-5.3334786,2.2805549Z"/>
    <path d="M169.5253297,45.6098513l2.0095668-8.0610367c.2602026-1.0426079.2226028-1.7883122-.111601-2.216141-.26964-.3451392-.7484007-.5129151-1.463396-.5129151-1.5739484,0-2.8180373,1.0677743-3.2464652,2.7868789l-1.9960848,8.0032139h-3.1501438l4.5708469-18.3322224h3.1501438l-1.4272942,5.7250558c.8403779-.6767963,1.8972168-1.0072551,3.2118614-1.0072551,1.5171742,0,2.6128113.417942,3.2565018,1.2418419.7075053.9056907.8382807,2.2793565.3884314,4.0829483l-2.0669402,8.2896315h-3.1254269Z"/>
    <path d="M183.709229,45.6098513l2.0097166-8.0610367c.2602026-1.0426079.2226028-1.7883122-.111601-2.216141-.26964-.3451392-.7484007-.5129151-1.463396-.5129151-1.5739484,0-2.8180373,1.0677743-3.246615,2.7868789l-1.9960848,8.0032139h-3.149994l3.3363452-13.3801345h3.0980135l-.2077726.8331875c.8896621-.7172423,1.9680722-1.0674747,3.2789718-1.0674747,1.5171742,0,2.6128113.417942,3.256352,1.2418419.7076551.9056907.8382807,2.2793565.3885812,4.0826487l-2.0669402,8.2899311h-3.1255767Z"/>
    <path d="M195.2988043,45.844438c-1.7101166,0-2.9636429-.4946395-3.7256754-1.470137-.8376815-1.0722683-1.0174415-2.6937033-.5199557-4.6884399l.4095532-1.6421074c.9585701-3.8438676,3.583665-6.0483241,7.2022334-6.0483241,1.731538,0,2.9907567.4880483,3.7423032,1.4500638.8301915,1.0623815.9925747,2.6379777.4829551,4.6821483l-.4095532,1.642407c-.9617159,3.8603456-3.5794706,6.0743893-7.1818606,6.0743893ZM198.0614156,34.7676281c-2.1972662,0-3.1207831,1.8563214-3.5084654,3.4133424l-.3768968,1.5111822c-.328062,1.3146447-.2769802,2.2592833.1515976,2.8078509.310086.3972696.8379811.5983011,1.5688552.5983011,2.2881947,0,3.17546-2.1867802,3.500526-3.4906392l.3768968-1.5108826c.3159282-1.2670083.259903-2.1858814-.1661282-2.7311533-.310086-.39697-.8303413-.5980015-1.5463852-.5980015Z"/>
    <path d="M209.0844686,45.6098513c-1.9126462,0-3.0801873-.3544268-3.6745936-1.1154107-.5401787-.6914767-.6189735-1.7056226-.2482186-3.191938l3.496781-14.0248736h3.1501438l-3.3549204,13.4577309c-.1668772.6678083-.2822232,1.3353171.000749,1.697833.1989344.25466.6050421.3783948,1.2415423.3783948h.2226028l-.6982177,2.7982637h-.1358686Z"/>
    <path d="M217.2704385,45.844438c-1.7101166,0-2.9636429-.4946395-3.7256754-1.470137-.8376815-1.0725679-1.0174415-2.6937033-.5198059-4.6884399l.4095532-1.6421074c.9584203-3.8438676,3.5835152-6.0483241,7.2020836-6.0483241,1.7316878,0,2.9909065.4880483,3.742453,1.4500638.8301915,1.0623815.9925747,2.6379777.4828053,4.6821483l-.4095532,1.642407c-.9617159,3.8603456-3.5794706,6.0743893-7.1818606,6.0743893ZM220.0331996,34.7676281c-2.1972662,0-3.1207831,1.8563214-3.5084654,3.4133424l-.3770466,1.5111822c-.328062,1.3146447-.2769802,2.2592833.1515976,2.8078509.3102358.3972696.8379811.5983011,1.5688552.5983011,2.2881947,0,3.17546-2.1867802,3.500526-3.4906392l.3770466-1.5108826c.3157784-1.2670083.259903-2.1858814-.166278-2.7311533-.310086-.39697-.8303413-.5980015-1.5462354-.5980015Z"/>
    <path d="M229.9344221,50.7183303c-2.5254779,0-3.8152558-.6896791-4.4516061-2.3806213l-.0506324-.1345204,2.6032241-1.586981.0781956.1866508c.3514308.8379811,1.0493489,1.1954039,2.3338837,1.1954039,2.0080688,0,3.0783897-.8565563,3.5785718-2.8647749l.0331058-.1324232c-.8513133.5599523-1.8982654.8433739-3.1197345.8433739-1.5297574,0-2.6659903-.4616835-3.3773904-1.3721678-.8405277-1.0755639-1.0186399-2.7125781-.5150123-4.7339791l.4414606-1.772733c.9328045-3.7384084,3.4812018-5.9701285,6.8170976-5.9701285,1.2339025,0,2.1605652.3178756,2.7608137.9452379l.1772134-.7109507h3.1240787l-3.238376,12.9876585c-.9227679,3.7015576-3.2761256,5.500955-7.1948932,5.500955ZM234.0683024,34.7676281c-2.1968168,0-3.1204835,1.8563214-3.5084654,3.4133424l-.3770466,1.5111822c-.3162278,1.2673079-.2503158,2.235615.1905456,2.7997617.3144302.4023628.8291429.6063903,1.5299072.6063903,1.74502,0,2.9227475-1.1741323,3.500526-3.4906392l.3770466-1.5108826c.3144302-1.2622147.2563078-2.1804886-.1727194-2.7293557-.3111346-.3981684-.8291429-.5997991-1.539794-.5997991Z"/>
    <path d="M240.7119317,45.6098513l3.3363452-13.3801345h3.151492l-3.3363452,13.3801345h-3.151492ZM244.3580633,30.466571l.7943893-3.188942h3.4119942l-.7943893,3.188942h-3.4119942Z"/>
    <path d="M252.8512729,45.844438c-1.7370806,0-3.0691021-.5296927-3.8519568-1.531555-.8445723-1.0806571-1.0391625-2.6628445-.5627985-4.5745919l.4413108-1.772733c.9603677-3.8498596,3.4182858-5.9701285,6.9213584-5.9701285,1.6512452,0,2.8423049.4529951,3.5403728,1.3464022.8143127,1.0423083.9510801,2.6787233.4064074,4.8637059l-.3903788,1.5663086h-7.8021823c-.290612,1.2451375-.2146634,2.1628122.2100196,2.7062865.3214708.4116504.8535603.6201719,1.5814384.6201719,1.4924572,0,2.1848328-.4467036,2.8761597-1.2184731l.1127994-.1261316,1.9852992,1.6789582-.1092042.1324232c-1.2981667,1.5761954-2.9507601,2.2793565-5.358645,2.2793565ZM256.8149805,37.286365c.164031-.9431407.0799932-1.6241314-.2504656-2.0249962-.2739842-.3322564-.7217363-.4937407-1.3687224-.4937407-1.3766618,0-2.3773257.8469691-2.9769751,2.5187369h4.5961631Z"/>
    <path d="M265.6328067,45.844438c-2.6204511,0-4.0739603-.6761971-4.8605601-2.2604817l-.0710052-.1432088,2.7894255-1.6921406.083888.1701728c.343042.6962703.9047919,1.1273947,2.6429211,1.1273947,1.357038,0,2.2532913-.4745663,2.4592663-1.3020615.0852362-.3406452.0707056-.5788271-.0453894-.7498987-.246421-.362516-1.0228343-.5326887-2.1124794-.6767963-1.668622-.21721-2.8084501-.7576883-3.3871274-1.6061554-.4757647-.6974687-.5786773-1.606455-.3058916-2.7008937.6273623-2.5139433,2.8766091-4.0149392,6.0168661-4.0149392,2.4649587,0,3.887759.7229347,4.4779709,2.2745629l.0513814.13482-2.7142259,1.6579862-.0862848-.1641808c-.3758482-.7157443-.8498153-1.0788595-2.3973989-1.0788595-.7096025,0-1.9385616.1551928-2.198165,1.1963027-.0774466.3106852-.053179.5521627.074151.7376151.2281454.332556.7828547.5311907,1.8545238.6645127,1.878342.226198,3.0274577.7292263,3.6157222,1.5830862.4768133.6923755.5681913,1.5920742.2789276,2.7503277-.6484841,2.6008273-2.8960831,4.0928351-6.1665163,4.0928351Z"/>
  </g>
  <g>
    <path class="cls-2" d="M61.9453915,67.4877877c0-1.6826172,1.3007812-2.6435547,3.4248047-2.6435547h2.1933594v-.4072266c0-.8925781-.5185547-1.4453125-1.6826172-1.4453125-1.0800781,0-1.6064453.4248047-2.0146484,1.1308594l-1.7421875-1.0458984c.7480469-1.2578125,1.8691406-1.9462891,3.8496094-1.9462891,2.4990234,0,3.765625,1.1308594,3.765625,3.1875v2.4306641c0,.6708984.0673828,1.1816406.2294922,1.9628906l.2548828,1.1904297-2.1591797.3144531-.2373047-1.1386719c-.6972656.7392578-1.3945312,1.1728516-2.7539062,1.1728516-1.9121094,0-3.1279297-1.1308594-3.1279297-2.7626953ZM65.5401181,68.4565377c1.1308371,0,2.0234375-.4755859,2.0234375-1.6914062v-.3564453h-1.9384766c-1.0283203,0-1.4951172.3652344-1.4951172,1.0029297,0,.6455078.4755859,1.0449219,1.4101562,1.0449219Z"/>
    <path class="cls-2" d="M76.5879697,57.8325142h7.9970703v2.1425781h-5.7021484v3.2207031h4.640625v2.1328125h-4.640625v4.7089844h-2.2949219v-12.2050781Z"/>
    <path class="cls-2" d="M85.8653134,66.4340767v-5.0908203h2.1923828v4.7587891c0,1.3603516.6542969,2.0908203,1.8017578,2.0908203,1.15625,0,1.8105469-.7304688,1.8105469-2.0908203v-4.7587891h2.1923828v5.0908203c0,2.5244141-1.6142578,3.7988281-4.0029297,3.7988281-2.3710938,0-3.9941406-1.2744141-3.9941406-3.7988281Z"/>
    <path class="cls-2" d="M93.6543759,74.2534127l.2119141-1.7421875h.671875c1.0029297,0,1.4873047-.5439453,1.4873047-1.6835938v-9.484375h2.1923828v9.6289062c0,2.3632812-1.0615234,3.5615234-3.1015625,3.5615234-.5273438,0-1.0283203-.0761719-1.4619141-.2802734ZM97.1133603,57.0424752c.7646484,0,1.3261719.5693359,1.3261719,1.2919922,0,.7558594-.5615234,1.3085938-1.3261719,1.3085938-.7568359,0-1.3085938-.5527344-1.3085938-1.3085938,0-.7226562.5517578-1.2919922,1.3085938-1.2919922Z"/>
    <path class="cls-2" d="M101.569415,57.0424752c.7646484,0,1.3251953.5693359,1.3251953,1.2919922,0,.7558594-.5605469,1.3085938-1.3251953,1.3085938-.7568359,0-1.3095703-.5527344-1.3095703-1.3085938,0-.7226562.5527344-1.2919922,1.3095703-1.2919922ZM100.4815243,61.3432564h2.1923828v8.6943359h-2.1923828v-8.6943359Z"/>
    <path class="cls-2" d="M105.8623837,67.1049752v-3.7900391h-1.7675781v-1.9716797h1.7675781v-2.703125h2.1845703v2.703125h2.5498047v1.9716797h-2.5498047v3.3828125c0,.9257812.484375,1.3935547,1.4453125,1.3935547h.9433594l.2041016,1.7421875c-.5273438.1953125-1.1650391.2978516-1.7685547.2978516-1.9287109,0-3.0087891-1.0878906-3.0087891-3.0263672Z"/>
    <path class="cls-2" d="M111.875079,68.7456002l1.2753906-1.3847656c.7900391.7304688,1.640625,1.1044922,2.4902344,1.1044922.7734375,0,1.1894531-.3056641,1.1894531-.7988281,0-.3652344-.2294922-.6210938-.6884766-.7568359l-1.84375-.5693359c-1.3261719-.4082031-1.9892578-1.2148438-1.9892578-2.4560547,0-1.6914062,1.2070312-2.7539062,3.3408203-2.7539062,1.4101562,0,2.6425781.4501953,3.4082031,1.3515625l-1.3349609,1.2919922c-.5263672-.484375-1.2402344-.8671875-2.0732422-.8671875-.7226562,0-1.1054688.2802734-1.1054688.7226562,0,.3486328.2294922.6113281.7060547.7558594l1.7587891.5615234c1.3769531.4414062,2.0488281,1.2070312,2.0488281,2.4990234,0,1.8095703-1.2841797,2.7958984-3.4599609,2.7958984-1.5126953,0-2.7275391-.4501953-3.7226562-1.4960938Z"/>
    <path class="cls-2" d="M120.718829,66.4340767v-5.0908203h2.1923828v4.7587891c0,1.3603516.6542969,2.0908203,1.8017578,2.0908203,1.15625,0,1.8105469-.7304688,1.8105469-2.0908203v-4.7587891h2.1923828v5.0908203c0,2.5244141-1.6142578,3.7988281-4.0029297,3.7988281-2.3710938,0-3.9941406-1.2744141-3.9941406-3.7988281Z"/>
    <path class="cls-2" d="M134.6807431,65.6860299c0-2.4990234,1.9042969-4.5556641,4.6660156-4.5556641,1.8193359,0,3.1708984.8583984,3.8076172,2.1416016l-1.7763672,1.0712891c-.4414062-.7392578-1.0625-1.1728516-2.0566406-1.1728516-1.4697266,0-2.4140625,1.1386719-2.4140625,2.515625s.9443359,2.5244141,2.4140625,2.5244141c.9775391,0,1.5810547-.3994141,2.03125-1.1308594l1.7675781,1.0878906c-.6455078,1.2412109-1.9882812,2.0830078-3.7734375,2.0830078-2.7617188,0-4.6660156-2.0742188-4.6660156-4.5644531Z"/>
    <path class="cls-2" d="M144.4082822,65.6860299c0-2.4990234,1.9638672-4.5556641,4.6835938-4.5556641s4.6826172,2.0566406,4.6826172,4.5556641c0,2.4902344-1.9628906,4.5644531-4.6826172,4.5644531s-4.6835938-2.0742188-4.6835938-4.5644531ZM149.0918759,68.2104439c1.453125,0,2.4560547-1.1474609,2.4560547-2.5244141s-1.0029297-2.515625-2.4560547-2.515625c-1.4453125,0-2.4482422,1.1386719-2.4482422,2.515625s1.0029297,2.5244141,2.4482422,2.5244141Z"/>
    <path class="cls-2" d="M155.5899228,61.3432564h2.1923828v1.0361328c.6201172-.8408203,1.5292969-1.2490234,2.5751953-1.2490234,1.1982422,0,2.1757812.4589844,2.7109375,1.5048828.7734375-1.0292969,1.7421875-1.5048828,2.9414062-1.5048828,1.8945312,0,3.1953125,1.0966797,3.1953125,3.5957031v5.3115234h-2.1923828v-4.8867188c0-1.2753906-.6376953-1.9638672-1.6914062-1.9638672-1.1054688,0-1.828125.6972656-1.828125,2.0654297v4.7851562h-2.1923828v-4.8867188c0-1.2753906-.6376953-1.9638672-1.6914062-1.9638672-1.1044922,0-1.8271484.6972656-1.8271484,2.0654297v4.7851562h-2.1923828v-8.6943359Z"/>
    <path class="cls-2" d="M171.2012509,62.7114205l-.2460938-1.1904297,2.1835938-.3730469.2802734,1.3847656c.7226562-.9599609,1.7431641-1.4023438,2.9580078-1.4023438,2.6601562,0,4.3007812,2.0654297,4.3007812,4.5302734,0,2.5664062-1.734375,4.5898438-4.3603516,4.5898438-1.1220703,0-1.9208984-.3994141-2.6513672-1.1220703v5.3115234h-2.1933594v-9.765625c0-.6113281-.1103516-1.1806641-.2714844-1.9628906ZM176.0205868,68.2446236c1.4443359,0,2.4306641-1.1220703,2.4306641-2.5498047s-.9863281-2.5585938-2.4306641-2.5585938c-1.4453125,0-2.3974609,1.1474609-2.3974609,2.5585938,0,1.4101562.9521484,2.5498047,2.3974609,2.5498047Z"/>
    <path class="cls-2" d="M182.000079,67.4877877c0-1.6826172,1.3007812-2.6435547,3.4248047-2.6435547h2.1933594v-.4072266c0-.8925781-.5185547-1.4453125-1.6826172-1.4453125-1.0800781,0-1.6064453.4248047-2.0146737,1.1308594l-1.7421623-1.0458984c.7480469-1.2578125,1.8691406-1.9462891,3.8496094-1.9462891,2.4990234,0,3.765625,1.1308594,3.765625,3.1875v2.4306641c0,.6708984.0673828,1.1816406.2294922,1.9628906l.2548828,1.1904297-2.1591797.3144531-.2373047-1.1386719c-.6972656.7392578-1.3945312,1.1728516-2.7539062,1.1728516-1.9121094,0-3.1279297-1.1308594-3.1279297-2.7626953ZM185.5948056,68.4565377c1.1308594,0,2.0234375-.4755859,2.0234375-1.6914062v-.3564453h-1.9384766c-1.0283203,0-1.4951172.3652344-1.4951172,1.0029297,0,.6455078.4755859,1.0449219,1.4101562,1.0449219Z"/>
    <path class="cls-2" d="M192.0430478,61.3432564h2.1923828v1.0361328c.5439453-.7216797,1.4111328-1.2490234,2.6171875-1.2490234,1.9208984,0,3.3154297,1.0966797,3.3154297,3.6630859v5.2441406h-2.1933594v-4.8193359c0-1.3427734-.6796875-2.03125-1.8017578-2.03125-1.1728516,0-1.9375.6972656-1.9375,2.125v4.7255859h-2.1923828v-8.6943359Z"/>
    <path class="cls-2" d="M201.5410947,74.2875924l.2119141-1.7431641h.4765625c1.1982422,0,1.9716797-.3740234,2.3369141-1.2998047l.2636719-.6630859-3.5957031-9.2382812h2.3710938l2.3037109,6.2802734,2.3203125-6.2802734h2.2607422l-4.0371094,10.5722656c-.7138672,1.9208984-1.8955078,2.6181641-3.5019531,2.6181641-.4921875,0-.96875-.0761719-1.4101562-.2460938Z"/>
  </g>
  <g>
    <polygon class="cls-3" points="42.8337309 23.5316588 37.0065734 46.9029762 24.5444388 46.9029762 22.8772452 53.5897531 43.0389367 53.5897531 50.5332878 23.5316588 42.8337309 23.5316588"/>
    <polygon class="cls-1" points="42.8337309 23.5316588 44.5009245 16.8448819 24.3392023 16.8448819 16.8448819 46.9029762 24.5444388 46.9029762 30.3715656 23.5316588 42.8337309 23.5316588"/>
  </g>
</svg>