<?xml version="1.0" encoding="utf-8"?>
<!-- Generator: Adobe Illustrator 27.0.0, SVG Export Plug-In . SVG Version: 6.00 Build 0)  -->
<svg version="1.1" id="Layer_1" xmlns="http://www.w3.org/2000/svg" xmlns:xlink="http://www.w3.org/1999/xlink" x="0px" y="0px"
	 viewBox="0 0 210.89 99.27" style="enable-background:new 0 0 210.89 99.27;" xml:space="preserve">
<style type="text/css">
	.st0{fill:#FFFFFF;}
</style>
<g>
	<g>
		<g id="XMLID_00000079456019207826013250000004852472383077873086_">
			<g id="XMLID_00000034783717915908255840000006904762088248892820_">
				<path id="XMLID_00000137831422278716396710000008049931638143182250_" class="st0" d="M49.53,46.96h-11.7l-3.58-8.63H14.76
					l-3.26,8.63H0L17.57,3.37l12.59,0L49.53,46.96z M24.03,13.78l-6.39,16.94h13.42L24.03,13.78z"/>
				<path id="XMLID_00000166639814388244972910000016886482587523357117_" class="st0" d="M92.01,3.37l9.46,0v43.59H90.61V19.73
					L78.85,33.4h-1.66L65.43,19.73v27.23l-10.87,0V3.37l9.46,0l14,16.17L92.01,3.37z"/>
				<path id="XMLID_00000023276101794811066750000017823635042349411720_" class="st0" d="M129,3.37c15.91,0,24.09,9.9,24.09,21.86
					c0,12.53-7.92,21.73-25.31,21.73h-18.02V3.37L129,3.37z M120.63,38.97h7.09c10.93,0,14.19-7.41,14.19-13.81
					c0-7.48-4.03-13.8-14.32-13.8h-6.96V38.97z"/>
			</g>
			<g id="XMLID_00000172414466163933055390000009109633256269345184_">
				<polygon id="XMLID_00000179639843241759298630000016127553063506340796_" class="st0" points="197.19,13.7 174.71,13.7 
					161.01,0 210.89,0 210.89,49.88 197.19,36.18 				"/>
				<polygon id="XMLID_00000168100954280925942260000016005534493703133057_" class="st0" points="174.7,36.19 174.7,16.45 
					160.59,30.55 160.59,50.3 180.33,50.3 194.44,36.19 				"/>
			</g>
		</g>
	</g>
	<g id="XMLID_00000070813766484763750920000009185043521289668542_">
		<g id="XMLID_00000054970089001530988720000014691314136854144702_">
			<rect id="XMLID_00000017505671759689336380000010457591185449497518_" x="0" y="68.75" class="st0" width="30.49" height="6.1"/>
			<g id="XMLID_00000075152152394541147360000009347237851986461832_">
				<polygon id="XMLID_00000155844791652919237860000017735487251199589507_" class="st0" points="0,80.95 0,99.26 30.49,99.26 
					30.49,93.16 6.1,93.16 6.1,87.06 30.49,87.06 30.49,80.95 				"/>
			</g>
		</g>
		<polygon id="XMLID_00000069388203218248923990000010752030078510884507_" class="st0" points="91.45,80.85 82.71,68.75 
			75.17,68.75 88.37,87.05 88.37,99.26 94.46,99.26 94.46,87.05 107.72,68.75 100.18,68.75 		"/>
		<path id="XMLID_00000147917493505474051010000007884042676597158791_" class="st0" d="M113.32,93.15c0,3.37,2.73,6.11,6.11,6.11
			h24.42v-6.11h-23.99c-0.24,0-0.43-0.19-0.43-0.43V75.29c0-0.24,0.19-0.43,0.43-0.43h23.99v-6.11h-24.42
			c-3.37,0-6.11,2.73-6.11,6.11V93.15z"/>
		<path class="st0" d="M64.5,68.75H40.09v6.1h23.98c0.24,0,0.43,0.19,0.43,0.43v5.24c0,0.24-0.19,0.43-0.43,0.43H40.09v18.31h6.1
			v-12.2H64.5c3.37,0,6.1-2.73,6.1-6.1v-6.1C70.6,71.48,67.87,68.75,64.5,68.75z"/>
	</g>
</g>
</svg>
