<?xml version="1.0" encoding="UTF-8"?>
<!DOCTYPE svg PUBLIC "-//W3C//DTD SVG 1.1//EN" "http://www.w3.org/Graphics/SVG/1.1/DTD/svg11.dtd">
<svg xmlns="http://www.w3.org/2000/svg" version="1.1" width="1280px" height="1280px" style="shape-rendering:geometricPrecision; text-rendering:geometricPrecision; image-rendering:optimizeQuality; fill-rule:evenodd; clip-rule:evenodd" xmlns:xlink="http://www.w3.org/1999/xlink">
<g><path style="opacity:0.968" fill="#f2fafe" d="M 878.5,62.5 C 920.384,87.3232 956.051,119.323 985.5,158.5C 985.738,160.404 986.738,161.738 988.5,162.5C 1004.8,185.934 1017.47,211.101 1026.5,238C 1028.89,241.474 1030.72,245.308 1032,249.5C 1035.31,261.065 1038.14,272.732 1040.5,284.5C 1046.57,285.517 1052.57,286.85 1058.5,288.5C 1074.05,294.556 1089.72,301.39 1105.5,309C 1112.87,314.016 1120.53,318.516 1128.5,322.5C 1138.51,331.844 1148.85,340.844 1159.5,349.5C 1160.44,350.974 1161.77,351.974 1163.5,352.5C 1166.13,356.463 1169.13,360.129 1172.5,363.5C 1173.42,366.089 1175.09,368.089 1177.5,369.5C 1227.49,435.319 1241.66,508.985 1220,590.5C 1216.76,600.638 1213.26,610.638 1209.5,620.5C 1205.12,628.928 1200.45,637.261 1195.5,645.5C 1194.33,646.514 1193.66,647.847 1193.5,649.5C 1180.04,669.609 1164.37,687.776 1146.5,704C 1138.89,710.796 1130.89,716.962 1122.5,722.5C 1087.9,745.313 1049.9,758.479 1008.5,762C 989.836,762.5 971.17,762.667 952.5,762.5C 952.5,837.5 952.5,912.5 952.5,987.5C 958.285,988.396 963.618,990.396 968.5,993.5C 974.979,998.585 981.312,1003.92 987.5,1009.5C 991.517,1015.02 995.184,1020.85 998.5,1027C 1003.83,1040.49 1006,1054.66 1005,1069.5C 1003.89,1070.76 1003.72,1071.93 1004.5,1073C 1002.38,1081.54 999.377,1089.71 995.5,1097.5C 992.117,1101.55 989.117,1105.89 986.5,1110.5C 983.833,1112.5 981.5,1114.83 979.5,1117.5C 944.91,1143.15 910.576,1142.82 876.5,1116.5C 875.5,1114.83 874.167,1113.5 872.5,1112.5C 846.611,1080.47 844.944,1047.13 867.5,1012.5C 872.548,1006.79 877.881,1001.45 883.5,996.5C 887.508,995.412 891.008,993.412 894,990.5C 897.4,989.044 900.9,988.044 904.5,987.5C 904.5,912.5 904.5,837.5 904.5,762.5C 821.833,762.5 739.167,762.5 656.5,762.5C 656.167,874.835 656.5,987.169 657.5,1099.5C 665.559,1102.03 672.892,1105.86 679.5,1111C 686.069,1116.07 691.735,1121.9 696.5,1128.5C 714.084,1158.39 713.75,1188.06 695.5,1217.5C 669.771,1247.5 637.938,1255.83 600,1242.5C 595.594,1239.38 591.094,1236.38 586.5,1233.5C 583.859,1231.2 581.192,1228.86 578.5,1226.5C 574.47,1221.48 570.47,1216.48 566.5,1211.5C 566.376,1209.42 565.376,1207.92 563.5,1207C 563.833,1206.67 564.167,1206.33 564.5,1206C 563.299,1205.1 562.465,1203.93 562,1202.5C 560.32,1196.11 558.486,1189.78 556.5,1183.5C 554.427,1160.45 560.427,1139.79 574.5,1121.5C 584.079,1111.79 595.246,1104.46 608,1099.5C 608.5,987.167 608.667,874.834 608.5,762.5C 530.833,762.5 453.167,762.5 375.5,762.5C 375.832,837.071 375.498,911.571 374.5,986C 404.478,996.439 422.478,1017.27 428.5,1048.5C 430.043,1065.71 427.043,1082.04 419.5,1097.5C 399.391,1128.22 371.058,1140.55 334.5,1134.5C 322.318,1130.95 311.318,1125.28 301.5,1117.5C 300.167,1115.5 298.5,1113.83 296.5,1112.5C 270.377,1080 268.877,1046.33 292,1011.5C 295.371,1008.3 298.538,1004.96 301.5,1001.5C 309.343,995.407 318.009,990.573 327.5,987C 326.502,912.238 326.168,837.404 326.5,762.5C 285.499,762.667 244.499,762.5 203.5,762C 169.944,758.194 139.277,746.361 111.5,726.5C 111.5,725.833 111.167,725.5 110.5,725.5C 97.7366,715.016 86.0699,703.349 75.5,690.5C 38.1931,637.874 29.0264,580.54 48,518.5C 54.5095,500.475 63.3428,483.809 74.5,468.5C 104.588,428.443 144.588,404.776 194.5,397.5C 194.12,363.721 201.12,331.721 215.5,301.5C 221.943,288.63 229.443,276.296 238,264.5C 251.759,247.907 266.926,232.907 283.5,219.5C 306.244,204.796 330.578,193.296 356.5,185C 382.643,179.244 408.976,177.578 435.5,180C 454.437,150.569 476.77,124.069 502.5,100.5C 509.126,95.8741 515.46,90.8741 521.5,85.5C 595.775,32.2657 678.442,12.0991 769.5,25C 808.098,31.3178 844.431,43.8178 878.5,62.5 Z M 851.5,138.5 C 858.362,142.095 864.696,146.428 870.5,151.5C 873.792,153.458 876.792,155.791 879.5,158.5C 881.54,160.177 883.54,161.844 885.5,163.5C 901.963,176.298 915.629,191.632 926.5,209.5C 929.323,210.992 930.99,213.326 931.5,216.5C 936.393,222.598 940.559,229.264 944,236.5C 962.094,272.211 971.427,310.211 972,350.5C 979,349.833 986,349.167 993,348.5C 993.5,349 994,349.5 994.5,350C 1022.49,351.826 1048.49,359.826 1072.5,374C 1074.06,374.759 1075.06,375.926 1075.5,377.5C 1078.33,378.079 1080.66,379.412 1082.5,381.5C 1084.54,383.177 1086.54,384.844 1088.5,386.5C 1091.76,388.094 1094.43,390.427 1096.5,393.5C 1101.5,396.5 1105.5,400.5 1108.5,405.5C 1111.57,407.569 1113.91,410.236 1115.5,413.5C 1117.88,415.878 1119.88,418.545 1121.5,421.5C 1139,445.528 1148.84,472.195 1151,501.5C 1154.37,534.469 1148.54,565.469 1133.5,594.5C 1130.5,601.838 1126.5,608.505 1121.5,614.5C 1120.26,617.738 1118.26,620.404 1115.5,622.5C 1110.21,630.79 1103.54,637.79 1095.5,643.5C 1092.1,648.227 1087.77,651.894 1082.5,654.5C 1079.72,656.408 1077.05,658.575 1074.5,661C 1070.29,662.893 1066.29,665.06 1062.5,667.5C 1036.92,680.727 1009.59,687.394 980.5,687.5C 732.5,688.833 484.5,688.833 236.5,687.5C 219.686,686.1 203.686,681.6 188.5,674C 186.474,672.406 184.474,670.906 182.5,669.5C 177.678,668.002 173.678,665.336 170.5,661.5C 168.18,659.581 165.847,657.581 163.5,655.5C 163.938,655.565 164.272,655.399 164.5,655C 163.667,654.167 162.833,653.333 162,652.5C 161.601,652.728 161.435,653.062 161.5,653.5C 159.833,652.5 158.5,651.167 157.5,649.5C 158.547,648.922 158.38,648.256 157,647.5C 156.601,647.728 156.435,648.062 156.5,648.5C 152.01,644.674 148.677,640.007 146.5,634.5C 142.537,629.265 139.037,623.599 136,617.5C 121.699,580.161 124.365,544.161 144,509.5C 145.039,508.29 146.206,507.29 147.5,506.5C 147.75,504.326 148.75,502.659 150.5,501.5C 152.177,499.46 153.844,497.46 155.5,495.5C 158.757,490.243 163.091,485.909 168.5,482.5C 172.679,477.998 177.679,474.664 183.5,472.5C 199.891,460.983 218.225,456.15 238.5,458C 240.202,459.718 242.035,459.885 244,458.5C 245.828,460.081 247.828,461.415 250,462.5C 250.333,461.833 250.667,461.167 251,460.5C 262.084,463.363 272.584,467.696 282.5,473.5C 282.833,473 283.167,472.5 283.5,472C 282.561,470.056 281.227,468.389 279.5,467C 280.171,466.014 280.171,464.847 279.5,463.5C 280.833,463.167 280.833,462.833 279.5,462.5C 279.5,462.167 279.5,461.833 279.5,461.5C 285.044,463.455 290.378,465.789 295.5,468.5C 297.582,468.624 299.082,469.624 300,471.5C 300.692,470.975 301.192,470.308 301.5,469.5C 299.048,466.929 297.381,463.929 296.5,460.5C 293.995,457.988 292.328,454.988 291.5,451.5C 271.283,409.391 271.617,367.391 292.5,325.5C 295.493,318.171 299.493,311.505 304.5,305.5C 305.767,303.227 307.433,301.227 309.5,299.5C 312.429,295.394 315.596,291.394 319,287.5C 322.728,284.262 326.561,281.262 330.5,278.5C 340.936,268.944 352.936,261.944 366.5,257.5C 371.561,254.085 377.228,251.919 383.5,251C 400.978,246.986 418.645,245.819 436.5,247.5C 444.46,248.431 452.126,250.098 459.5,252.5C 458.262,252.81 458.262,253.31 459.5,254C 460.437,254.692 461.103,254.525 461.5,253.5C 463.786,253.595 465.786,254.262 467.5,255.5C 470.331,256.079 472.664,257.412 474.5,259.5C 476.335,259.834 478.002,259.834 479.5,259.5C 483.008,261.161 486.674,262.494 490.5,263.5C 491.287,258.304 492.787,253.304 495,248.5C 499.063,240.041 503.397,231.707 508,223.5C 509.853,221.097 511.686,218.764 513.5,216.5C 515.782,212.223 518.449,208.223 521.5,204.5C 534.15,184.851 550.15,168.517 569.5,155.5C 570.911,153.086 572.911,151.419 575.5,150.5C 580.813,145.507 586.813,141.507 593.5,138.5C 600.993,133.25 608.993,128.75 617.5,125C 687.525,95.0174 757.525,95.0174 827.5,125C 832.512,127.656 837.345,130.49 842,133.5C 842.333,133.167 842.667,132.833 843,132.5C 845.94,134.383 848.774,136.383 851.5,138.5 Z M 279.5,461.5 C 278.167,461.833 278.167,462.167 279.5,462.5C 279.5,462.833 279.5,463.167 279.5,463.5C 277.535,463.052 277.202,462.052 278.5,460.5C 279.107,460.624 279.44,460.957 279.5,461.5 Z M 376.5,1043.5 C 379.319,1048.43 381.319,1053.76 382.5,1059.5C 381.319,1065.24 379.319,1070.57 376.5,1075.5C 372.556,1081.91 367.222,1086.08 360.5,1088C 347.329,1090.71 336.495,1086.88 328,1076.5C 322.005,1065.13 322.005,1053.8 328,1042.5C 330.534,1038.49 334.034,1035.83 338.5,1034.5C 345.179,1030 352.512,1028.83 360.5,1031C 367.664,1033.05 372.998,1037.22 376.5,1043.5 Z M 944.5,1035.5 C 948.833,1036.5 951.5,1039.17 952.5,1043.5C 960.5,1054.17 960.5,1064.83 952.5,1075.5C 948.958,1081.79 943.624,1085.96 936.5,1088C 910.813,1089.98 898.646,1078.15 900,1052.5C 901.761,1043.96 906.594,1037.96 914.5,1034.5C 924.666,1027.86 934.666,1028.2 944.5,1035.5 Z M 653.5,1151.5 C 664.37,1163.78 665.203,1176.78 656,1190.5C 653.211,1193.51 650.044,1195.84 646.5,1197.5C 642.442,1199.89 637.942,1200.89 633,1200.5C 629.097,1200.48 625.264,1199.98 621.5,1199C 618.975,1198.58 616.975,1197.41 615.5,1195.5C 613.5,1194.17 611.833,1192.5 610.5,1190.5C 611.547,1189.92 611.38,1189.26 610,1188.5C 609.601,1188.73 609.435,1189.06 609.5,1189.5C 601.81,1178.42 601.643,1166.75 609,1154.5C 612.257,1150.05 616.424,1147.05 621.5,1145.5C 630.542,1141.75 639.542,1142.25 648.5,1147C 650.24,1148.52 651.906,1150.02 653.5,1151.5 Z"/></g>
<g><path style="opacity:0.004" fill="#f2fafe" d="M 813.5,33.5 C 814.833,34.1667 814.833,34.1667 813.5,33.5 Z"/></g>
<g><path style="opacity:0.004" fill="#f2fafe" d="M 816.5,35.5 C 816.897,34.475 817.563,34.3083 818.5,35C 817.906,35.4643 817.239,35.631 816.5,35.5 Z"/></g>
<g><path style="opacity:0.004" fill="#f2fafe" d="M 837.5,41.5 C 838.833,42.1667 838.833,42.1667 837.5,41.5 Z"/></g>
<g><path style="opacity:0.004" fill="#f2fafe" d="M 563.5,57.5 C 563.897,56.475 564.563,56.3083 565.5,57C 564.906,57.4643 564.239,57.631 563.5,57.5 Z"/></g>
<g><path style="opacity:0.004" fill="#f2fafe" d="M 563.5,57.5 C 563.103,58.525 562.437,58.6917 561.5,58C 562.094,57.5357 562.761,57.369 563.5,57.5 Z"/></g>
<g><path style="opacity:0.004" fill="#f2fafe" d="M 555.5,61.5 C 556.833,62.1667 556.833,62.1667 555.5,61.5 Z"/></g>
<g><path style="opacity:0.004" fill="#f2fafe" d="M 878.5,61.5 C 879.833,62.1667 879.833,62.1667 878.5,61.5 Z"/></g>
<g><path style="opacity:0.004" fill="#f2fafe" d="M 880.5,62.5 C 881.833,63.1667 881.833,63.1667 880.5,62.5 Z"/></g>
<g><path style="opacity:0.004" fill="#f2fafe" d="M 550.5,63.5 C 551.833,64.1667 551.833,64.1667 550.5,63.5 Z"/></g>
<g><path style="opacity:0.004" fill="#f2fafe" d="M 548.5,64.5 C 549.833,65.1667 549.833,65.1667 548.5,64.5 Z"/></g>
<g><path style="opacity:0.004" fill="#f2fafe" d="M 884.5,65.5 C 884.897,64.475 885.563,64.3083 886.5,65C 885.906,65.4643 885.239,65.631 884.5,65.5 Z"/></g>
<g><path style="opacity:0.004" fill="#f2fafe" d="M 887.5,65.5 C 888.833,66.1667 888.833,66.1667 887.5,65.5 Z"/></g>
<g><path style="opacity:0.004" fill="#f2fafe" d="M 541.5,69.5 C 542.833,70.1667 542.833,70.1667 541.5,69.5 Z"/></g>
<g><path style="opacity:0.004" fill="#f2fafe" d="M 893.5,69.5 C 894.833,70.1667 894.833,70.1667 893.5,69.5 Z"/></g>
<g><path style="opacity:0.004" fill="#f2fafe" d="M 537.5,71.5 C 538.833,72.1667 538.833,72.1667 537.5,71.5 Z"/></g>
<g><path style="opacity:0.004" fill="#f2fafe" d="M 537.5,72.5 C 536.833,73.1667 536.833,73.1667 537.5,72.5 Z"/></g>
<g><path style="opacity:0.004" fill="#f2fafe" d="M 899.5,73.5 C 898.833,72.1667 898.833,72.1667 899.5,73.5 Z"/></g>
<g><path style="opacity:0.004" fill="#f2fafe" d="M 899.5,73.5 C 900.833,74.1667 900.833,74.1667 899.5,73.5 Z"/></g>
<g><path style="opacity:0.004" fill="#f2fafe" d="M 532.5,75.5 C 533.833,76.1667 533.833,76.1667 532.5,75.5 Z"/></g>
<g><path style="opacity:0.004" fill="#f2fafe" d="M 530.5,76.5 C 531.833,77.1667 531.833,77.1667 530.5,76.5 Z"/></g>
<g><path style="opacity:0.004" fill="#f2fafe" d="M 530.5,77.5 C 529.833,78.1667 529.833,78.1667 530.5,77.5 Z"/></g>
<g><path style="opacity:0.004" fill="#f2fafe" d="M 906.5,78.5 C 905.833,77.1667 905.833,77.1667 906.5,78.5 Z"/></g>
<g><path style="opacity:0.004" fill="#f2fafe" d="M 906.5,78.5 C 907.833,79.1667 907.833,79.1667 906.5,78.5 Z"/></g>
<g><path style="opacity:0.004" fill="#f2fafe" d="M 526.5,79.5 C 527.833,80.1667 527.833,80.1667 526.5,79.5 Z"/></g>
<g><path style="opacity:0.004" fill="#f2fafe" d="M 521.5,83.5 C 522.833,84.1667 522.833,84.1667 521.5,83.5 Z"/></g>
<g><path style="opacity:0.004" fill="#f2fafe" d="M 521.5,84.5 C 521.5,84.8333 521.5,85.1667 521.5,85.5C 520.83,85.0187 520.83,84.6853 521.5,84.5 Z"/></g>
<g><path style="opacity:0.008" fill="#f2fafe" d="M 915.5,85.5 C 914.833,84.1667 914.833,84.1667 915.5,85.5 Z"/></g>
<g><path style="opacity:0.004" fill="#f2fafe" d="M 915.5,85.5 C 916.833,86.1667 916.833,86.1667 915.5,85.5 Z"/></g>
<g><path style="opacity:0.004" fill="#f2fafe" d="M 516.5,86.5 C 517.833,87.1667 517.833,87.1667 516.5,86.5 Z"/></g>
<g><path style="opacity:0.004" fill="#f2fafe" d="M 510.5,91.5 C 511.833,92.1667 511.833,92.1667 510.5,91.5 Z"/></g>
<g><path style="opacity:0.004" fill="#f2fafe" d="M 510.5,92.5 C 509.833,93.1667 509.833,93.1667 510.5,92.5 Z"/></g>
<g><path style="opacity:0.004" fill="#f2fafe" d="M 926.5,93.5 C 925.833,92.1667 925.833,92.1667 926.5,93.5 Z"/></g>
<g><path style="opacity:0.004" fill="#f2fafe" d="M 507.5,93.5 C 508.833,94.1667 508.833,94.1667 507.5,93.5 Z"/></g>
<g><path style="opacity:0.004" fill="#f2fafe" d="M 926.5,93.5 C 927.833,94.1667 927.833,94.1667 926.5,93.5 Z"/></g>
<g><path style="opacity:0.004" fill="#f2fafe" d="M 503.5,97.5 C 504.833,98.1667 504.833,98.1667 503.5,97.5 Z"/></g>
<g><path style="opacity:0.008" fill="#f2fafe" d="M 503.5,98.5 C 502.833,99.1667 502.833,99.1667 503.5,98.5 Z"/></g>
<g><path style="opacity:0.004" fill="#f2fafe" d="M 933.5,99.5 C 932.833,98.1667 932.833,98.1667 933.5,99.5 Z"/></g>
<g><path style="opacity:0.004" fill="#f2fafe" d="M 500.5,100.5 C 500.842,99.6618 501.508,99.3284 502.5,99.5C 502.5,99.8333 502.5,100.167 502.5,100.5C 501.833,100.5 501.167,100.5 500.5,100.5 Z"/></g>
<g><path style="opacity:0.004" fill="#f2fafe" d="M 933.5,99.5 C 934.167,99.5 934.5,99.8333 934.5,100.5C 934.167,100.167 933.833,99.8333 933.5,99.5 Z"/></g>
<g><path style="opacity:0.004" fill="#f2fafe" d="M 500.5,100.5 C 499.833,101.167 499.833,101.167 500.5,100.5 Z"/></g>
<g><path style="opacity:0.004" fill="#f2fafe" d="M 934.5,100.5 C 935.167,100.5 935.5,100.833 935.5,101.5C 935.167,101.167 934.833,100.833 934.5,100.5 Z"/></g>
<g><path style="opacity:0.004" fill="#f2fafe" d="M 499.5,101.5 C 498.833,102.167 498.833,102.167 499.5,101.5 Z"/></g>
<g><path style="opacity:0.004" fill="#f2fafe" d="M 935.5,101.5 C 936.167,101.5 936.5,101.833 936.5,102.5C 936.167,102.167 935.833,101.833 935.5,101.5 Z"/></g>
<g><path style="opacity:0.004" fill="#f2fafe" d="M 498.5,102.5 C 497.833,103.167 497.833,103.167 498.5,102.5 Z"/></g>
<g><path style="opacity:0.004" fill="#f2fafe" d="M 936.5,102.5 C 937.167,102.5 937.5,102.833 937.5,103.5C 937.167,103.167 936.833,102.833 936.5,102.5 Z"/></g>
<g><path style="opacity:0.004" fill="#f2fafe" d="M 497.5,103.5 C 496.833,104.167 496.833,104.167 497.5,103.5 Z"/></g>
<g><path style="opacity:0.004" fill="#f2fafe" d="M 937.5,103.5 C 938.833,104.167 938.833,104.167 937.5,103.5 Z"/></g>
<g><path style="opacity:0.008" fill="#f2fafe" d="M 496.5,104.5 C 495.833,105.167 495.833,105.167 496.5,104.5 Z"/></g>
<g><path style="opacity:0.004" fill="#f2fafe" d="M 940.5,105.5 C 939.833,104.167 939.833,104.167 940.5,105.5 Z"/></g>
<g><path style="opacity:0.008" fill="#f2fafe" d="M 495.5,105.5 C 495.167,106.5 494.5,107.167 493.5,107.5C 493.5,106.167 494.167,105.5 495.5,105.5 Z"/></g>
<g><path style="opacity:0.007" fill="#f2fafe" d="M 940.5,105.5 C 941.833,105.5 942.5,106.167 942.5,107.5C 941.5,107.167 940.833,106.5 940.5,105.5 Z"/></g>
<g><path style="opacity:0.004" fill="#f2fafe" d="M 493.5,107.5 C 492.833,108.167 492.833,108.167 493.5,107.5 Z"/></g>
<g><path style="opacity:0.008" fill="#f2fafe" d="M 942.5,107.5 C 943.167,107.5 943.5,107.833 943.5,108.5C 943.167,108.167 942.833,107.833 942.5,107.5 Z"/></g>
<g><path style="opacity:0.004" fill="#f2fafe" d="M 943.5,108.5 C 944.167,108.5 944.5,108.833 944.5,109.5C 944.167,109.167 943.833,108.833 943.5,108.5 Z"/></g>
<g><path style="opacity:0.004" fill="#f2fafe" d="M 944.5,109.5 C 945.167,109.5 945.5,109.833 945.5,110.5C 945.167,110.167 944.833,109.833 944.5,109.5 Z"/></g>
<g><path style="opacity:0.004" fill="#f2fafe" d="M 945.5,110.5 C 946.167,110.5 946.5,110.833 946.5,111.5C 946.167,111.167 945.833,110.833 945.5,110.5 Z"/></g>
<g><path style="opacity:0.004" fill="#f2fafe" d="M 946.5,111.5 C 947.833,112.167 947.833,112.167 946.5,111.5 Z"/></g>
<g><path style="opacity:0.004" fill="#f2fafe" d="M 486.5,112.5 C 487.833,113.167 487.833,113.167 486.5,112.5 Z"/></g>
<g><path style="opacity:0.004" fill="#f2fafe" d="M 486.5,113.5 C 485.833,114.167 485.833,114.167 486.5,113.5 Z"/></g>
<g><path style="opacity:0.004" fill="#f2fafe" d="M 480.5,118.5 C 481.833,119.167 481.833,119.167 480.5,118.5 Z"/></g>
<g><path style="opacity:0.008" fill="#f2fafe" d="M 956.5,121.5 C 955.833,120.167 955.833,120.167 956.5,121.5 Z"/></g>
<g><path style="opacity:0.004" fill="#f2fafe" d="M 956.5,121.5 C 957.833,122.167 957.833,122.167 956.5,121.5 Z"/></g>
<g><path style="opacity:0.004" fill="#f2fafe" d="M 961.5,126.5 C 960.833,125.167 960.833,125.167 961.5,126.5 Z"/></g>
<g><path style="opacity:0.008" fill="#f2fafe" d="M 473.5,126.5 C 474.833,127.167 474.833,127.167 473.5,126.5 Z"/></g>
<g><path style="opacity:0.004" fill="#f2fafe" d="M 961.5,126.5 C 962.167,126.5 962.5,126.833 962.5,127.5C 962.167,127.167 961.833,126.833 961.5,126.5 Z"/></g>
<g><path style="opacity:0.008" fill="#f2fafe" d="M 473.5,127.5 C 472.833,128.167 472.833,128.167 473.5,127.5 Z"/></g>
<g><path style="opacity:0.004" fill="#f2fafe" d="M 962.5,127.5 C 963.167,127.5 963.5,127.833 963.5,128.5C 963.167,128.167 962.833,127.833 962.5,127.5 Z"/></g>
<g><path style="opacity:0.004" fill="#f2fafe" d="M 472.5,128.5 C 471.833,129.167 471.833,129.167 472.5,128.5 Z"/></g>
<g><path style="opacity:0.004" fill="#f2fafe" d="M 963.5,128.5 C 964.833,129.167 964.833,129.167 963.5,128.5 Z"/></g>
<g><path style="opacity:0.004" fill="#f2fafe" d="M 471.5,129.5 C 470.833,130.167 470.833,130.167 471.5,129.5 Z"/></g>
<g><path style="opacity:0.004" fill="#f2fafe" d="M 967.5,133.5 C 966.833,132.167 966.833,132.167 967.5,133.5 Z"/></g>
<g><path style="opacity:0.004" fill="#f2fafe" d="M 967.5,133.5 C 968.167,133.5 968.5,133.833 968.5,134.5C 968.167,134.167 967.833,133.833 967.5,133.5 Z"/></g>
<g><path style="opacity:0.004" fill="#f2fafe" d="M 466.5,134.5 C 467.833,135.167 467.833,135.167 466.5,134.5 Z"/></g>
<g><path style="opacity:0.004" fill="#f2fafe" d="M 968.5,134.5 C 969.167,134.5 969.5,134.833 969.5,135.5C 969.167,135.167 968.833,134.833 968.5,134.5 Z"/></g>
<g><path style="opacity:0.008" fill="#f2fafe" d="M 466.5,135.5 C 465.833,136.167 465.833,136.167 466.5,135.5 Z"/></g>
<g><path style="opacity:0.004" fill="#f2fafe" d="M 969.5,135.5 C 970.167,135.5 970.5,135.833 970.5,136.5C 970.167,136.167 969.833,135.833 969.5,135.5 Z"/></g>
<g><path style="opacity:0.004" fill="#f2fafe" d="M 465.5,136.5 C 464.833,137.167 464.833,137.167 465.5,136.5 Z"/></g>
<g><path style="opacity:0.004" fill="#f2fafe" d="M 970.5,136.5 C 971.833,137.167 971.833,137.167 970.5,136.5 Z"/></g>
<g><path style="opacity:0.004" fill="#f2fafe" d="M 972.5,139.5 C 971.833,138.167 971.833,138.167 972.5,139.5 Z"/></g>
<g><path style="opacity:0.004" fill="#f2fafe" d="M 972.5,139.5 C 973.167,139.5 973.5,139.833 973.5,140.5C 973.167,140.167 972.833,139.833 972.5,139.5 Z"/></g>
<g><path style="opacity:0.004" fill="#f2fafe" d="M 973.5,140.5 C 974.167,140.5 974.5,140.833 974.5,141.5C 974.167,141.167 973.833,140.833 973.5,140.5 Z"/></g>
<g><path style="opacity:0.004" fill="#f2fafe" d="M 460.5,141.5 C 461.833,142.167 461.833,142.167 460.5,141.5 Z"/></g>
<g><path style="opacity:0.004" fill="#f2fafe" d="M 974.5,141.5 C 975.167,141.5 975.5,141.833 975.5,142.5C 975.167,142.167 974.833,141.833 974.5,141.5 Z"/></g>
<g><path style="opacity:0.004" fill="#f2fafe" d="M 460.5,142.5 C 459.833,143.167 459.833,143.167 460.5,142.5 Z"/></g>
<g><path style="opacity:0.004" fill="#f2fafe" d="M 975.5,142.5 C 976.833,143.167 976.833,143.167 975.5,142.5 Z"/></g>
<g><path style="opacity:0.004" fill="#f2fafe" d="M 459.5,143.5 C 458.833,144.167 458.833,144.167 459.5,143.5 Z"/></g>
<g><path style="opacity:0.004" fill="#f2fafe" d="M 978.5,147.5 C 979.833,148.167 979.833,148.167 978.5,147.5 Z"/></g>
<g><path style="opacity:0.004" fill="#f2fafe" d="M 453.5,149.5 C 454.833,150.167 454.833,150.167 453.5,149.5 Z"/></g>
<g><path style="opacity:0.004" fill="#f2fafe" d="M 984.5,154.5 C 983.833,153.167 983.833,153.167 984.5,154.5 Z"/></g>
<g><path style="opacity:0.004" fill="#f2fafe" d="M 450.5,154.5 C 451.833,155.167 451.833,155.167 450.5,154.5 Z"/></g>
<g><path style="opacity:0.004" fill="#f2fafe" d="M 984.5,154.5 C 985.833,155.167 985.833,155.167 984.5,154.5 Z"/></g>
<g><path style="opacity:0.004" fill="#f2fafe" d="M 985.5,158.5 C 985.369,157.761 985.536,157.094 986,156.5C 986.692,157.437 986.525,158.103 985.5,158.5 Z"/></g>
<g><path style="opacity:0.004" fill="#f2fafe" d="M 445.5,161.5 C 446.833,162.167 446.833,162.167 445.5,161.5 Z"/></g>
<g><path style="opacity:0.004" fill="#f2fafe" d="M 988.5,162.5 C 988.897,161.475 989.563,161.308 990.5,162C 989.906,162.464 989.239,162.631 988.5,162.5 Z"/></g>
<g><path style="opacity:0.004" fill="#f2fafe" d="M 445.5,162.5 C 444.833,163.167 444.833,163.167 445.5,162.5 Z"/></g>
<g><path style="opacity:0.004" fill="#f2fafe" d="M 439.5,169.5 C 440.833,170.167 440.833,170.167 439.5,169.5 Z"/></g>
<g><path style="opacity:0.004" fill="#f2fafe" d="M 436.5,174.5 C 437.833,175.167 437.833,175.167 436.5,174.5 Z"/></g>
<g><path style="opacity:0.004" fill="#f2fafe" d="M 998.5,175.5 C 999.833,176.167 999.833,176.167 998.5,175.5 Z"/></g>
<g><path style="opacity:0.004" fill="#f2fafe" d="M 1006.5,188.5 C 1007.83,189.167 1007.83,189.167 1006.5,188.5 Z"/></g>
<g><path style="opacity:0.004" fill="#f2fafe" d="M 325.5,194.5 C 326.833,195.167 326.833,195.167 325.5,194.5 Z"/></g>
<g><path style="opacity:0.004" fill="#f2fafe" d="M 1011.5,197.5 C 1010.47,197.103 1010.31,196.437 1011,195.5C 1011.46,196.094 1011.63,196.761 1011.5,197.5 Z"/></g>
<g><path style="opacity:0.004" fill="#f2fafe" d="M 319.5,197.5 C 319.897,196.475 320.563,196.308 321.5,197C 320.906,197.464 320.239,197.631 319.5,197.5 Z"/></g>
<g><path style="opacity:0.004" fill="#f2fafe" d="M 1011.5,197.5 C 1012.53,197.897 1012.69,198.563 1012,199.5C 1011.54,198.906 1011.37,198.239 1011.5,197.5 Z"/></g>
<g><path style="opacity:0.004" fill="#f2fafe" d="M 305.5,203.5 C 306.833,204.167 306.833,204.167 305.5,203.5 Z"/></g>
<g><path style="opacity:0.004" fill="#f2fafe" d="M 1013.5,203.5 C 1014.83,204.167 1014.83,204.167 1013.5,203.5 Z"/></g>
<g><path style="opacity:0.004" fill="#f2fafe" d="M 1014.5,205.5 C 1015.83,206.167 1015.83,206.167 1014.5,205.5 Z"/></g>
<g><path style="opacity:0.004" fill="#f2fafe" d="M 1017.5,210.5 C 1018.83,211.167 1018.83,211.167 1017.5,210.5 Z"/></g>
<g><path style="opacity:0.004" fill="#f2fafe" d="M 290.5,212.5 C 291.833,213.167 291.833,213.167 290.5,212.5 Z"/></g>
<g><path style="opacity:0.004" fill="#f2fafe" d="M 283.5,217.5 C 284.833,218.167 284.833,218.167 283.5,217.5 Z"/></g>
<g><path style="opacity:0.004" fill="#f2fafe" d="M 283.5,218.5 C 283.5,218.833 283.5,219.167 283.5,219.5C 282.83,219.019 282.83,218.685 283.5,218.5 Z"/></g>
<g><path style="opacity:0.004" fill="#f2fafe" d="M 277.5,222.5 C 278.833,223.167 278.833,223.167 277.5,222.5 Z"/></g>
<g><path style="opacity:0.004" fill="#f2fafe" d="M 272.5,225.5 C 273.833,226.167 273.833,226.167 272.5,225.5 Z"/></g>
<g><path style="opacity:0.004" fill="#f2fafe" d="M 272.5,226.5 C 271.833,227.167 271.833,227.167 272.5,226.5 Z"/></g>
<g><path style="opacity:0.004" fill="#f2fafe" d="M 265.5,231.5 C 266.833,232.167 266.833,232.167 265.5,231.5 Z"/></g>
<g><path style="opacity:0.004" fill="#f2fafe" d="M 265.5,232.5 C 264.833,233.167 264.833,233.167 265.5,232.5 Z"/></g>
<g><path style="opacity:0.004" fill="#f2fafe" d="M 264.5,233.5 C 263.833,234.167 263.833,234.167 264.5,233.5 Z"/></g>
<g><path style="opacity:0.004" fill="#f2fafe" d="M 263.5,234.5 C 262.833,235.167 262.833,235.167 263.5,234.5 Z"/></g>
<g><path style="opacity:0.004" fill="#f2fafe" d="M 259.5,237.5 C 260.833,238.167 260.833,238.167 259.5,237.5 Z"/></g>
<g><path style="opacity:0.008" fill="#f2fafe" d="M 259.5,238.5 C 258.833,239.167 258.833,239.167 259.5,238.5 Z"/></g>
<g><path style="opacity:0.008" fill="#f2fafe" d="M 258.5,239.5 C 257.833,240.167 257.833,240.167 258.5,239.5 Z"/></g>
<g><path style="opacity:0.008" fill="#f2fafe" d="M 257.5,240.5 C 256.833,241.167 256.833,241.167 257.5,240.5 Z"/></g>
<g><path style="opacity:0.004" fill="#f2fafe" d="M 256.5,241.5 C 255.833,242.167 255.833,242.167 256.5,241.5 Z"/></g>
<g><path style="opacity:0.004" fill="#f2fafe" d="M 252.5,244.5 C 253.833,245.167 253.833,245.167 252.5,244.5 Z"/></g>
<g><path style="opacity:0.004" fill="#f2fafe" d="M 252.5,245.5 C 251.833,246.167 251.833,246.167 252.5,245.5 Z"/></g>
<g><path style="opacity:0.004" fill="#f2fafe" d="M 251.5,246.5 C 250.833,247.167 250.833,247.167 251.5,246.5 Z"/></g>
<g><path style="opacity:0.004" fill="#f2fafe" d="M 250.5,247.5 C 249.833,248.167 249.833,248.167 250.5,247.5 Z"/></g>
<g><path style="opacity:0.004" fill="#f2fafe" d="M 241.5,257.5 C 242.833,258.167 242.833,258.167 241.5,257.5 Z"/></g>
<g><path style="opacity:0.004" fill="#f2fafe" d="M 235.5,264.5 C 236.833,265.167 236.833,265.167 235.5,264.5 Z"/></g>
<g><path style="opacity:0.004" fill="#f2fafe" d="M 233.5,267.5 C 234.833,268.167 234.833,268.167 233.5,267.5 Z"/></g>
<g><path style="opacity:0.004" fill="#f2fafe" d="M 230.5,271.5 C 231.833,272.167 231.833,272.167 230.5,271.5 Z"/></g>
<g><path style="opacity:0.004" fill="#f2fafe" d="M 230.5,272.5 C 229.833,273.167 229.833,273.167 230.5,272.5 Z"/></g>
<g><path style="opacity:0.004" fill="#f2fafe" d="M 228.5,274.5 C 229.833,275.167 229.833,275.167 228.5,274.5 Z"/></g>
<g><path style="opacity:0.004" fill="#f2fafe" d="M 228.5,275.5 C 227.833,276.167 227.833,276.167 228.5,275.5 Z"/></g>
<g><path style="opacity:0.004" fill="#f2fafe" d="M 223.5,281.5 C 224.833,282.167 224.833,282.167 223.5,281.5 Z"/></g>
<g><path style="opacity:0.004" fill="#f2fafe" d="M 221.5,285.5 C 222.833,286.167 222.833,286.167 221.5,285.5 Z"/></g>
<g><path style="opacity:0.004" fill="#f2fafe" d="M 220.5,287.5 C 221.833,288.167 221.833,288.167 220.5,287.5 Z"/></g>
<g><path style="opacity:0.004" fill="#f2fafe" d="M 215.5,301.5 C 214.475,301.103 214.308,300.437 215,299.5C 215.464,300.094 215.631,300.761 215.5,301.5 Z"/></g>
<g><path style="opacity:0.004" fill="#f2fafe" d="M 1095.5,301.5 C 1096.83,302.167 1096.83,302.167 1095.5,301.5 Z"/></g>
<g><path style="opacity:0.004" fill="#f2fafe" d="M 213.5,302.5 C 214.833,303.167 214.833,303.167 213.5,302.5 Z"/></g>
<g><path style="opacity:0.004" fill="#f2fafe" d="M 1109.5,309.5 C 1108.83,308.167 1108.83,308.167 1109.5,309.5 Z"/></g>
<g><path style="opacity:0.004" fill="#f2fafe" d="M 1109.5,309.5 C 1110.83,310.167 1110.83,310.167 1109.5,309.5 Z"/></g>
<g><path style="opacity:0.004" fill="#f2fafe" d="M 1114.5,312.5 C 1115.83,313.167 1115.83,313.167 1114.5,312.5 Z"/></g>
<g><path style="opacity:0.004" fill="#f2fafe" d="M 1117.5,314.5 C 1118.83,315.167 1118.83,315.167 1117.5,314.5 Z"/></g>
<g><path style="opacity:0.004" fill="#f2fafe" d="M 207.5,315.5 C 208.833,316.167 208.833,316.167 207.5,315.5 Z"/></g>
<g><path style="opacity:0.004" fill="#f2fafe" d="M 1121.5,316.5 C 1122.83,317.167 1122.83,317.167 1121.5,316.5 Z"/></g>
<g><path style="opacity:0.004" fill="#f2fafe" d="M 1128.5,321.5 C 1129.83,322.167 1129.83,322.167 1128.5,321.5 Z"/></g>
<g><path style="opacity:0.004" fill="#f2fafe" d="M 1137.5,328.5 C 1136.83,327.167 1136.83,327.167 1137.5,328.5 Z"/></g>
<g><path style="opacity:0.004" fill="#f2fafe" d="M 1137.5,328.5 C 1138.17,328.5 1138.5,328.833 1138.5,329.5C 1138.17,329.167 1137.83,328.833 1137.5,328.5 Z"/></g>
<g><path style="opacity:0.004" fill="#f2fafe" d="M 1138.5,329.5 C 1139.83,330.167 1139.83,330.167 1138.5,329.5 Z"/></g>
<g><path style="opacity:0.008" fill="#f2fafe" d="M 1144.5,334.5 C 1143.83,333.167 1143.83,333.167 1144.5,334.5 Z"/></g>
<g><path style="opacity:0.008" fill="#f2fafe" d="M 1144.5,334.5 C 1145.17,334.5 1145.5,334.833 1145.5,335.5C 1145.17,335.167 1144.83,334.833 1144.5,334.5 Z"/></g>
<g><path style="opacity:0.006" fill="#f2fafe" d="M 1145.5,335.5 C 1146.49,335.328 1147.16,335.662 1147.5,336.5C 1146.51,336.672 1145.84,336.338 1145.5,335.5 Z"/></g>
<g><path style="opacity:0.004" fill="#f2fafe" d="M 1147.5,336.5 C 1148.83,336.5 1149.5,337.167 1149.5,338.5C 1148.5,338.167 1147.83,337.5 1147.5,336.5 Z"/></g>
<g><path style="opacity:0.004" fill="#f2fafe" d="M 1149.5,338.5 C 1150.17,338.5 1150.5,338.833 1150.5,339.5C 1150.17,339.167 1149.83,338.833 1149.5,338.5 Z"/></g>
<g><path style="opacity:0.004" fill="#f2fafe" d="M 1150.5,339.5 C 1151.17,339.5 1151.5,339.833 1151.5,340.5C 1151.17,340.167 1150.83,339.833 1150.5,339.5 Z"/></g>
<g><path style="opacity:0.004" fill="#f2fafe" d="M 1151.5,340.5 C 1152.17,340.5 1152.5,340.833 1152.5,341.5C 1152.17,341.167 1151.83,340.833 1151.5,340.5 Z"/></g>
<g><path style="opacity:0.004" fill="#f2fafe" d="M 1152.5,341.5 C 1153.17,341.5 1153.5,341.833 1153.5,342.5C 1153.17,342.167 1152.83,341.833 1152.5,341.5 Z"/></g>
<g><path style="opacity:0.004" fill="#f2fafe" d="M 1153.5,342.5 C 1154.83,343.167 1154.83,343.167 1153.5,342.5 Z"/></g>
<g><path style="opacity:0.004" fill="#f2fafe" d="M 1159.5,348.5 C 1160.83,349.167 1160.83,349.167 1159.5,348.5 Z"/></g>
<g><path style="opacity:0.004" fill="#f2fafe" d="M 1163.5,351.5 C 1164.83,352.167 1164.83,352.167 1163.5,351.5 Z"/></g>
<g><path style="opacity:0.004" fill="#f2fafe" d="M 1173.5,363.5 C 1172.83,362.167 1172.83,362.167 1173.5,363.5 Z"/></g>
<g><path style="opacity:0.004" fill="#f2fafe" d="M 1173.5,363.5 C 1174.17,363.5 1174.5,363.833 1174.5,364.5C 1174.17,364.167 1173.83,363.833 1173.5,363.5 Z"/></g>
<g><path style="opacity:0.004" fill="#f2fafe" d="M 1174.5,364.5 C 1175.83,365.167 1175.83,365.167 1174.5,364.5 Z"/></g>
<g><path style="opacity:0.004" fill="#f2fafe" d="M 1178.5,369.5 C 1177.83,368.167 1177.83,368.167 1178.5,369.5 Z"/></g>
<g><path style="opacity:0.007" fill="#f2fafe" d="M 1178.5,369.5 C 1179.83,369.5 1180.5,370.167 1180.5,371.5C 1179.5,371.167 1178.83,370.5 1178.5,369.5 Z"/></g>
<g><path style="opacity:0.004" fill="#f2fafe" d="M 1180.5,371.5 C 1181.83,372.167 1181.83,372.167 1180.5,371.5 Z"/></g>
<g><path style="opacity:0.004" fill="#f2fafe" d="M 1183.5,375.5 C 1182.83,374.167 1182.83,374.167 1183.5,375.5 Z"/></g>
<g><path style="opacity:0.004" fill="#f2fafe" d="M 1183.5,375.5 C 1184.17,375.5 1184.5,375.833 1184.5,376.5C 1184.17,376.167 1183.83,375.833 1183.5,375.5 Z"/></g>
<g><path style="opacity:0.004" fill="#f2fafe" d="M 1184.5,376.5 C 1185.83,377.167 1185.83,377.167 1184.5,376.5 Z"/></g>
<g><path style="opacity:0.004" fill="#f2fafe" d="M 1186.5,379.5 C 1185.83,378.167 1185.83,378.167 1186.5,379.5 Z"/></g>
<g><path style="opacity:0.004" fill="#f2fafe" d="M 1186.5,379.5 C 1187.83,380.167 1187.83,380.167 1186.5,379.5 Z"/></g>
<g><path style="opacity:0.004" fill="#f2fafe" d="M 1191.5,386.5 C 1192.83,387.167 1192.83,387.167 1191.5,386.5 Z"/></g>
<g><path style="opacity:0.004" fill="#f2fafe" d="M 1193.5,390.5 C 1194.83,391.167 1194.83,391.167 1193.5,390.5 Z"/></g>
<g><path style="opacity:0.004" fill="#f2fafe" d="M 1198.5,398.5 C 1199.83,399.167 1199.83,399.167 1198.5,398.5 Z"/></g>
<g><path style="opacity:0.004" fill="#f2fafe" d="M 151.5,406.5 C 151.897,405.475 152.563,405.308 153.5,406C 152.906,406.464 152.239,406.631 151.5,406.5 Z"/></g>
<g><path style="opacity:0.004" fill="#f2fafe" d="M 124.5,419.5 C 125.833,420.167 125.833,420.167 124.5,419.5 Z"/></g>
<g><path style="opacity:0.004" fill="#f2fafe" d="M 117.5,424.5 C 118.833,425.167 118.833,425.167 117.5,424.5 Z"/></g>
<g><path style="opacity:0.004" fill="#f2fafe" d="M 115.5,425.5 C 116.833,426.167 116.833,426.167 115.5,425.5 Z"/></g>
<g><path style="opacity:0.004" fill="#f2fafe" d="M 1212.5,425.5 C 1213.83,426.167 1213.83,426.167 1212.5,425.5 Z"/></g>
<g><path style="opacity:0.004" fill="#f2fafe" d="M 1213.5,427.5 C 1214.83,428.167 1214.83,428.167 1213.5,427.5 Z"/></g>
<g><path style="opacity:0.004" fill="#f2fafe" d="M 110.5,428.5 C 111.833,429.167 111.833,429.167 110.5,428.5 Z"/></g>
<g><path style="opacity:0.004" fill="#f2fafe" d="M 104.5,433.5 C 105.833,434.167 105.833,434.167 104.5,433.5 Z"/></g>
<g><path style="opacity:0.004" fill="#f2fafe" d="M 104.5,434.5 C 103.833,435.167 103.833,435.167 104.5,434.5 Z"/></g>
<g><path style="opacity:0.004" fill="#f2fafe" d="M 1216.5,437.5 C 1217.83,438.167 1217.83,438.167 1216.5,437.5 Z"/></g>
<g><path style="opacity:0.004" fill="#f2fafe" d="M 97.5,439.5 C 98.8333,440.167 98.8333,440.167 97.5,439.5 Z"/></g>
<g><path style="opacity:0.004" fill="#f2fafe" d="M 97.5,440.5 C 96.8333,441.167 96.8333,441.167 97.5,440.5 Z"/></g>
<g><path style="opacity:0.004" fill="#f2fafe" d="M 96.5,441.5 C 95.8333,442.167 95.8333,442.167 96.5,441.5 Z"/></g>
<g><path style="opacity:0.004" fill="#f2fafe" d="M 95.5,442.5 C 94.8333,443.167 94.8333,443.167 95.5,442.5 Z"/></g>
<g><path style="opacity:0.004" fill="#f2fafe" d="M 91.5,445.5 C 92.8333,446.167 92.8333,446.167 91.5,445.5 Z"/></g>
<g><path style="opacity:0.004" fill="#f2fafe" d="M 91.5,446.5 C 90.8333,447.167 90.8333,447.167 91.5,446.5 Z"/></g>
<g><path style="opacity:0.004" fill="#f2fafe" d="M 90.5,447.5 C 89.8333,448.167 89.8333,448.167 90.5,447.5 Z"/></g>
<g><path style="opacity:0.004" fill="#f2fafe" d="M 1220.5,447.5 C 1221.83,448.167 1221.83,448.167 1220.5,447.5 Z"/></g>
<g><path style="opacity:0.004" fill="#f2fafe" d="M 89.5,448.5 C 88.8333,449.167 88.8333,449.167 89.5,448.5 Z"/></g>
<g><path style="opacity:0.004" fill="#f2fafe" d="M 88.5,449.5 C 87.8333,450.167 87.8333,450.167 88.5,449.5 Z"/></g>
<g><path style="opacity:0.004" fill="#f2fafe" d="M 83.5,453.5 C 84.8333,454.167 84.8333,454.167 83.5,453.5 Z"/></g>
<g><path style="opacity:0.004" fill="#f2fafe" d="M 83.5,454.5 C 82.8333,455.167 82.8333,455.167 83.5,454.5 Z"/></g>
<g><path style="opacity:0.004" fill="#f2fafe" d="M 77.5,460.5 C 78.7733,461.077 78.7733,461.743 77.5,462.5C 76.537,462.03 76.537,461.363 77.5,460.5 Z"/></g>
<g><path style="opacity:0.004" fill="#f2fafe" d="M 74.5,468.5 C 73.475,468.103 73.3083,467.437 74,466.5C 74.4643,467.094 74.631,467.761 74.5,468.5 Z"/></g>
<g><path style="opacity:0.004" fill="#f2fafe" d="M 67.5,474.5 C 68.8333,475.167 68.8333,475.167 67.5,474.5 Z"/></g>
<g><path style="opacity:0.004" fill="#f2fafe" d="M 59.5,487.5 C 60.8333,488.167 60.8333,488.167 59.5,487.5 Z"/></g>
<g><path style="opacity:0.004" fill="#f2fafe" d="M 51.5,504.5 C 52.8333,505.167 52.8333,505.167 51.5,504.5 Z"/></g>
<g><path style="opacity:0.004" fill="#f2fafe" d="M 48.5,509.5 C 49.525,509.897 49.6917,510.563 49,511.5C 48.5357,510.906 48.369,510.239 48.5,509.5 Z"/></g>
<g><path style="opacity:0.004" fill="#f2fafe" d="M 46.5,516.5 C 47.8333,517.167 47.8333,517.167 46.5,516.5 Z"/></g>
<g><path style="opacity:0.004" fill="#f2fafe" d="M 1221.5,587.5 C 1222.83,588.167 1222.83,588.167 1221.5,587.5 Z"/></g>
<g><path style="opacity:0.004" fill="#f2fafe" d="M 1220.5,593.5 C 1221.83,594.167 1221.83,594.167 1220.5,593.5 Z"/></g>
<g><path style="opacity:0.004" fill="#f2fafe" d="M 1214.5,609.5 C 1215.83,610.167 1215.83,610.167 1214.5,609.5 Z"/></g>
<g><path style="opacity:0.004" fill="#f2fafe" d="M 1209.5,620.5 C 1210.83,621.167 1210.83,621.167 1209.5,620.5 Z"/></g>
<g><path style="opacity:0.004" fill="#f2fafe" d="M 47.5,643.5 C 48.525,643.897 48.6917,644.563 48,645.5C 47.5357,644.906 47.369,644.239 47.5,643.5 Z"/></g>
<g><path style="opacity:0.004" fill="#f2fafe" d="M 1197.5,644.5 C 1198.83,645.167 1198.83,645.167 1197.5,644.5 Z"/></g>
<g><path style="opacity:0.004" fill="#f2fafe" d="M 1195.5,645.5 C 1196.83,646.167 1196.83,646.167 1195.5,645.5 Z"/></g>
<g><path style="opacity:0.004" fill="#f2fafe" d="M 1193.5,649.5 C 1194.83,650.167 1194.83,650.833 1193.5,651.5C 1193.5,650.833 1193.5,650.167 1193.5,649.5 Z"/></g>
<g><path style="opacity:0.004" fill="#f2fafe" d="M 1193.5,651.5 C 1193.63,652.239 1193.46,652.906 1193,653.5C 1192.31,652.563 1192.47,651.897 1193.5,651.5 Z"/></g>
<g><path style="opacity:0.004" fill="#f2fafe" d="M 53.5,656.5 C 54.525,656.897 54.6917,657.563 54,658.5C 53.5357,657.906 53.369,657.239 53.5,656.5 Z"/></g>
<g><path style="opacity:0.004" fill="#f2fafe" d="M 1190.5,656.5 C 1191.83,657.167 1191.83,657.167 1190.5,656.5 Z"/></g>
<g><path style="opacity:0.004" fill="#f2fafe" d="M 1187.5,659.5 C 1188.83,660.167 1188.83,660.167 1187.5,659.5 Z"/></g>
<g><path style="opacity:0.004" fill="#f2fafe" d="M 1185.5,663.5 C 1186.83,664.167 1186.83,664.167 1185.5,663.5 Z"/></g>
<g><path style="opacity:0.004" fill="#f2fafe" d="M 56.5,664.5 C 57.8333,665.167 57.8333,665.167 56.5,664.5 Z"/></g>
<g><path style="opacity:0.004" fill="#f2fafe" d="M 1185.5,664.5 C 1184.83,665.167 1184.83,665.167 1185.5,664.5 Z"/></g>
<g><path style="opacity:0.004" fill="#f2fafe" d="M 1180.5,669.5 C 1181.83,670.167 1181.83,670.167 1180.5,669.5 Z"/></g>
<g><path style="opacity:0.004" fill="#f2fafe" d="M 1180.5,670.5 C 1179.83,671.167 1179.83,671.167 1180.5,670.5 Z"/></g>
<g><path style="opacity:0.004" fill="#f2fafe" d="M 1178.5,672.5 C 1179.83,673.167 1179.83,673.167 1178.5,672.5 Z"/></g>
<g><path style="opacity:0.004" fill="#f2fafe" d="M 1178.5,673.5 C 1177.83,674.167 1177.83,674.167 1178.5,673.5 Z"/></g>
<g><path style="opacity:0.004" fill="#f2fafe" d="M 1174.5,676.5 C 1175.83,677.167 1175.83,677.167 1174.5,676.5 Z"/></g>
<g><path style="opacity:0.004" fill="#f2fafe" d="M 1174.5,677.5 C 1174.48,679.028 1173.82,679.528 1172.5,679C 1173.04,678.283 1173.71,677.783 1174.5,677.5 Z"/></g>
<g><path style="opacity:0.004" fill="#f2fafe" d="M 69.5,685.5 C 70.8333,686.167 70.8333,686.167 69.5,685.5 Z"/></g>
<g><path style="opacity:0.004" fill="#f2fafe" d="M 1166.5,685.5 C 1167.83,686.167 1167.83,686.167 1166.5,685.5 Z"/></g>
<g><path style="opacity:0.004" fill="#f2fafe" d="M 1166.5,686.5 C 1165.83,687.167 1165.83,687.167 1166.5,686.5 Z"/></g>
<g><path style="opacity:0.004" fill="#f2fafe" d="M 1165.5,687.5 C 1164.83,688.167 1164.83,688.167 1165.5,687.5 Z"/></g>
<g><path style="opacity:0.004" fill="#f2fafe" d="M 75.5,690.5 C 75.631,691.239 75.4643,691.906 75,692.5C 74.3083,691.563 74.475,690.897 75.5,690.5 Z"/></g>
<g><path style="opacity:0.004" fill="#f2fafe" d="M 1159.5,692.5 C 1160.83,693.167 1160.83,693.167 1159.5,692.5 Z"/></g>
<g><path style="opacity:0.008" fill="#f2fafe" d="M 1159.5,693.5 C 1158.83,694.167 1158.83,694.167 1159.5,693.5 Z"/></g>
<g><path style="opacity:0.004" fill="#f2fafe" d="M 1158.5,694.5 C 1157.83,695.167 1157.83,695.167 1158.5,694.5 Z"/></g>
<g><path style="opacity:0.004" fill="#f2fafe" d="M 80.5,698.5 C 81.8333,699.167 81.8333,699.167 80.5,698.5 Z"/></g>
<g><path style="opacity:0.004" fill="#f2fafe" d="M 1152.5,699.5 C 1153.83,700.167 1153.83,700.167 1152.5,699.5 Z"/></g>
<g><path style="opacity:0.004" fill="#f2fafe" d="M 1152.5,700.5 C 1151.83,701.167 1151.83,701.167 1152.5,700.5 Z"/></g>
<g><path style="opacity:0.004" fill="#f2fafe" d="M 87.5,706.5 C 86.8333,705.167 86.8333,705.167 87.5,706.5 Z"/></g>
<g><path style="opacity:0.004" fill="#f2fafe" d="M 1145.5,705.5 C 1146.83,706.167 1146.83,706.167 1145.5,705.5 Z"/></g>
<g><path style="opacity:0.004" fill="#f2fafe" d="M 87.5,706.5 C 88.1667,706.5 88.5,706.833 88.5,707.5C 88.1667,707.167 87.8333,706.833 87.5,706.5 Z"/></g>
<g><path style="opacity:0.008" fill="#f2fafe" d="M 1145.5,706.5 C 1144.83,707.167 1144.83,707.167 1145.5,706.5 Z"/></g>
<g><path style="opacity:0.008" fill="#f2fafe" d="M 88.5,707.5 C 89.1667,707.5 89.5,707.833 89.5,708.5C 89.1667,708.167 88.8333,707.833 88.5,707.5 Z"/></g>
<g><path style="opacity:0.008" fill="#f2fafe" d="M 1144.5,707.5 C 1143.83,708.167 1143.83,708.167 1144.5,707.5 Z"/></g>
<g><path style="opacity:0.004" fill="#f2fafe" d="M 89.5,708.5 C 90.8333,709.167 90.8333,709.167 89.5,708.5 Z"/></g>
<g><path style="opacity:0.004" fill="#f2fafe" d="M 1143.5,708.5 C 1142.83,709.167 1142.83,709.167 1143.5,708.5 Z"/></g>
<g><path style="opacity:0.004" fill="#f2fafe" d="M 1138.5,711.5 C 1139.83,712.167 1139.83,712.167 1138.5,711.5 Z"/></g>
<g><path style="opacity:0.008" fill="#f2fafe" d="M 1138.5,712.5 C 1137.83,713.167 1137.83,713.167 1138.5,712.5 Z"/></g>
<g><path style="opacity:0.004" fill="#f2fafe" d="M 95.5,714.5 C 94.8333,713.167 94.8333,713.167 95.5,714.5 Z"/></g>
<g><path style="opacity:0.008" fill="#f2fafe" d="M 1137.5,713.5 C 1136.83,714.167 1136.83,714.167 1137.5,713.5 Z"/></g>
<g><path style="opacity:0.004" fill="#f2fafe" d="M 95.5,714.5 C 96.1667,714.5 96.5,714.833 96.5,715.5C 96.1667,715.167 95.8333,714.833 95.5,714.5 Z"/></g>
<g><path style="opacity:0.004" fill="#f2fafe" d="M 1136.5,714.5 C 1135.83,715.167 1135.83,715.167 1136.5,714.5 Z"/></g>
<g><path style="opacity:0.004" fill="#f2fafe" d="M 96.5,715.5 C 97.8333,716.167 97.8333,716.167 96.5,715.5 Z"/></g>
<g><path style="opacity:0.008" fill="#f2fafe" d="M 103.5,721.5 C 102.833,720.167 102.833,720.167 103.5,721.5 Z"/></g>
<g><path style="opacity:0.004" fill="#f2fafe" d="M 1127.5,720.5 C 1128.83,721.167 1128.83,721.167 1127.5,720.5 Z"/></g>
<g><path style="opacity:0.008" fill="#f2fafe" d="M 103.5,721.5 C 104.833,722.167 104.833,722.167 103.5,721.5 Z"/></g>
<g><path style="opacity:0.004" fill="#f2fafe" d="M 1122.5,722.5 C 1123.24,722.369 1123.91,722.536 1124.5,723C 1123.56,723.692 1122.9,723.525 1122.5,722.5 Z"/></g>
<g><path style="opacity:0.005" fill="#f2fafe" d="M 110.5,725.5 C 111.167,725.5 111.5,725.833 111.5,726.5C 111.253,728.975 110.587,728.975 109.5,726.5C 109.624,725.893 109.957,725.56 110.5,725.5 Z"/></g>
<g><path style="opacity:0.004" fill="#f2fafe" d="M 1116.5,727.5 C 1117.83,728.167 1117.83,728.167 1116.5,727.5 Z"/></g>
<g><path style="opacity:0.004" fill="#f2fafe" d="M 1114.5,728.5 C 1115.83,729.167 1115.83,729.167 1114.5,728.5 Z"/></g>
<g><path style="opacity:0.004" fill="#f2fafe" d="M 117.5,732.5 C 118.833,733.167 118.833,733.167 117.5,732.5 Z"/></g>
<g><path style="opacity:0.004" fill="#f2fafe" d="M 1087.5,743.5 C 1087.9,742.475 1088.56,742.308 1089.5,743C 1088.91,743.464 1088.24,743.631 1087.5,743.5 Z"/></g>
<g><path style="opacity:0.004" fill="#f2fafe" d="M 1082.5,744.5 C 1083.83,745.167 1083.83,745.167 1082.5,744.5 Z"/></g>
<g><path style="opacity:0.004" fill="#f2fafe" d="M 1080.5,745.5 C 1081.77,746.077 1081.77,746.743 1080.5,747.5C 1079.54,747.03 1079.54,746.363 1080.5,745.5 Z"/></g>
<g><path style="opacity:0.004" fill="#f2fafe" d="M 146.5,749.5 C 146.897,748.475 147.563,748.308 148.5,749C 147.906,749.464 147.239,749.631 146.5,749.5 Z"/></g>
<g><path style="opacity:0.004" fill="#f2fafe" d="M 1073.5,748.5 C 1074.83,749.167 1074.83,749.167 1073.5,748.5 Z"/></g>
<g><path style="opacity:0.004" fill="#f2fafe" d="M 150.5,749.5 C 151.833,750.167 151.833,750.167 150.5,749.5 Z"/></g>
<g><path style="opacity:0.004" fill="#f2fafe" d="M 165.5,755.5 C 166.833,756.167 166.833,756.167 165.5,755.5 Z"/></g>
<g><path style="opacity:0.004" fill="#f2fafe" d="M 322.5,986.5 C 323.833,987.167 323.833,987.167 322.5,986.5 Z"/></g>
<g><path style="opacity:0.004" fill="#f2fafe" d="M 898.5,986.5 C 899.833,987.167 899.833,987.167 898.5,986.5 Z"/></g>
<g><path style="opacity:0.004" fill="#f2fafe" d="M 392.5,992.5 C 393.833,993.167 393.833,993.167 392.5,992.5 Z"/></g>
<g><path style="opacity:0.004" fill="#f2fafe" d="M 968.5,992.5 C 969.833,993.167 969.833,993.167 968.5,992.5 Z"/></g>
<g><path style="opacity:0.008" fill="#f2fafe" d="M 309.5,993.5 C 310.833,994.167 310.833,994.167 309.5,993.5 Z"/></g>
<g><path style="opacity:0.004" fill="#f2fafe" d="M 885.5,993.5 C 886.833,994.167 886.833,994.167 885.5,993.5 Z"/></g>
<g><path style="opacity:0.004" fill="#f2fafe" d="M 307.5,994.5 C 308.833,995.167 308.833,995.167 307.5,994.5 Z"/></g>
<g><path style="opacity:0.004" fill="#f2fafe" d="M 396.5,994.5 C 397.833,995.167 397.833,995.167 396.5,994.5 Z"/></g>
<g><path style="opacity:0.004" fill="#f2fafe" d="M 883.5,994.5 C 884.833,995.167 884.833,995.167 883.5,994.5 Z"/></g>
<g><path style="opacity:0.004" fill="#f2fafe" d="M 972.5,994.5 C 973.833,995.167 973.833,995.167 972.5,994.5 Z"/></g>
<g><path style="opacity:0.004" fill="#f2fafe" d="M 883.5,995.5 C 883.5,995.833 883.5,996.167 883.5,996.5C 882.83,996.019 882.83,995.685 883.5,995.5 Z"/></g>
<g><path style="opacity:0.004" fill="#f2fafe" d="M 301.5,999.5 C 302.833,1000.17 302.833,1000.17 301.5,999.5 Z"/></g>
<g><path style="opacity:0.008" fill="#f2fafe" d="M 877.5,999.5 C 878.833,1000.17 878.833,1000.17 877.5,999.5 Z"/></g>
<g><path style="opacity:0.004" fill="#f2fafe" d="M 301.5,1000.5 C 301.5,1000.83 301.5,1001.17 301.5,1001.5C 300.83,1001.02 300.83,1000.69 301.5,1000.5 Z"/></g>
<g><path style="opacity:0.004" fill="#f2fafe" d="M 405.5,1001.5 C 404.833,1000.17 404.833,1000.17 405.5,1001.5 Z"/></g>
<g><path style="opacity:0.008" fill="#f2fafe" d="M 877.5,1000.5 C 876.833,1001.17 876.833,1001.17 877.5,1000.5 Z"/></g>
<g><path style="opacity:0.004" fill="#f2fafe" d="M 981.5,1001.5 C 980.833,1000.17 980.833,1000.17 981.5,1001.5 Z"/></g>
<g><path style="opacity:0.004" fill="#f2fafe" d="M 405.5,1001.5 C 406.833,1002.17 406.833,1002.17 405.5,1001.5 Z"/></g>
<g><path style="opacity:0.004" fill="#f2fafe" d="M 981.5,1001.5 C 982.833,1002.17 982.833,1002.17 981.5,1001.5 Z"/></g>
<g><path style="opacity:0.008" fill="#f2fafe" d="M 869.5,1007.5 C 870.833,1008.17 870.833,1008.17 869.5,1007.5 Z"/></g>
<g><path style="opacity:0.004" fill="#f2fafe" d="M 412.5,1009.5 C 411.833,1008.17 411.833,1008.17 412.5,1009.5 Z"/></g>
<g><path style="opacity:0.004" fill="#f2fafe" d="M 988.5,1009.5 C 987.833,1008.17 987.833,1008.17 988.5,1009.5 Z"/></g>
<g><path style="opacity:0.004" fill="#f2fafe" d="M 412.5,1009.5 C 413.833,1010.17 413.833,1010.17 412.5,1009.5 Z"/></g>
<g><path style="opacity:0.004" fill="#f2fafe" d="M 988.5,1009.5 C 989.833,1010.17 989.833,1010.17 988.5,1009.5 Z"/></g>
<g><path style="opacity:0.008" fill="#f2fafe" d="M 288.5,1013.5 C 289.833,1014.17 289.833,1014.17 288.5,1013.5 Z"/></g>
<g><path style="opacity:0.008" fill="#f2fafe" d="M 864.5,1013.5 C 865.833,1014.17 865.833,1014.17 864.5,1013.5 Z"/></g>
<g><path style="opacity:0.004" fill="#f2fafe" d="M 288.5,1014.5 C 287.833,1015.17 287.833,1015.17 288.5,1014.5 Z"/></g>
<g><path style="opacity:0.004" fill="#f2fafe" d="M 416.5,1014.5 C 417.833,1015.17 417.833,1015.17 416.5,1014.5 Z"/></g>
<g><path style="opacity:0.004" fill="#f2fafe" d="M 864.5,1014.5 C 863.833,1015.17 863.833,1015.17 864.5,1014.5 Z"/></g>
<g><path style="opacity:0.004" fill="#f2fafe" d="M 992.5,1014.5 C 993.833,1015.17 993.833,1015.17 992.5,1014.5 Z"/></g>
<g><path style="opacity:0.004" fill="#f2fafe" d="M 862.5,1016.5 C 863.833,1017.17 863.833,1017.17 862.5,1016.5 Z"/></g>
<g><path style="opacity:0.004" fill="#f2fafe" d="M 283.5,1020.5 C 284.833,1021.17 284.833,1021.17 283.5,1020.5 Z"/></g>
<g><path style="opacity:0.004" fill="#f2fafe" d="M 420.5,1021.5 C 421.833,1022.17 421.833,1022.17 420.5,1021.5 Z"/></g>
<g><path style="opacity:0.004" fill="#f2fafe" d="M 282.5,1022.5 C 283.833,1023.17 283.833,1023.17 282.5,1022.5 Z"/></g>
<g><path style="opacity:0.004" fill="#f2fafe" d="M 858.5,1022.5 C 859.833,1023.17 859.833,1023.17 858.5,1022.5 Z"/></g>
<g><path style="opacity:0.004" fill="#f2fafe" d="M 280.5,1027.5 C 281.833,1028.17 281.833,1028.17 280.5,1027.5 Z"/></g>
<g><path style="opacity:0.004" fill="#f2fafe" d="M 856.5,1027.5 C 857.833,1028.17 857.833,1028.17 856.5,1027.5 Z"/></g>
<g><path style="opacity:0.004" fill="#f2fafe" d="M 280.5,1090.5 C 281.833,1091.17 281.833,1091.17 280.5,1090.5 Z"/></g>
<g><path style="opacity:0.004" fill="#f2fafe" d="M 856.5,1090.5 C 857.833,1091.17 857.833,1091.17 856.5,1090.5 Z"/></g>
<g><path style="opacity:0.004" fill="#f2fafe" d="M 282.5,1095.5 C 283.833,1096.17 283.833,1096.17 282.5,1095.5 Z"/></g>
<g><path style="opacity:0.004" fill="#f2fafe" d="M 858.5,1095.5 C 859.833,1096.17 859.833,1096.17 858.5,1095.5 Z"/></g>
<g><path style="opacity:0.004" fill="#f2fafe" d="M 283.5,1097.5 C 284.833,1098.17 284.833,1098.17 283.5,1097.5 Z"/></g>
<g><path style="opacity:0.004" fill="#f2fafe" d="M 419.5,1097.5 C 420.833,1098.17 420.833,1098.17 419.5,1097.5 Z"/></g>
<g><path style="opacity:0.004" fill="#f2fafe" d="M 995.5,1097.5 C 996.833,1098.17 996.833,1098.17 995.5,1097.5 Z"/></g>
<g><path style="opacity:0.004" fill="#f2fafe" d="M 862.5,1101.5 C 863.833,1102.17 863.833,1102.17 862.5,1101.5 Z"/></g>
<g><path style="opacity:0.004" fill="#f2fafe" d="M 669.5,1102.5 C 670.833,1103.17 670.833,1103.17 669.5,1102.5 Z"/></g>
<g><path style="opacity:0.004" fill="#f2fafe" d="M 416.5,1103.5 C 417.833,1104.17 417.833,1104.17 416.5,1103.5 Z"/></g>
<g><path style="opacity:0.004" fill="#f2fafe" d="M 593.5,1103.5 C 594.833,1104.17 594.833,1104.17 593.5,1103.5 Z"/></g>
<g><path style="opacity:0.004" fill="#f2fafe" d="M 992.5,1103.5 C 993.833,1104.17 993.833,1104.17 992.5,1103.5 Z"/></g>
<g><path style="opacity:0.004" fill="#f2fafe" d="M 288.5,1104.5 C 289.833,1105.17 289.833,1105.17 288.5,1104.5 Z"/></g>
<g><path style="opacity:0.004" fill="#f2fafe" d="M 864.5,1104.5 C 865.833,1105.17 865.833,1105.17 864.5,1104.5 Z"/></g>
<g><path style="opacity:0.004" fill="#f2fafe" d="M 587.5,1107.5 C 588.833,1108.17 588.833,1108.17 587.5,1107.5 Z"/></g>
<g><path style="opacity:0.008" fill="#f2fafe" d="M 676.5,1107.5 C 677.833,1108.17 677.833,1108.17 676.5,1107.5 Z"/></g>
<g><path style="opacity:0.004" fill="#f2fafe" d="M 412.5,1108.5 C 413.833,1109.17 413.833,1109.17 412.5,1108.5 Z"/></g>
<g><path style="opacity:0.008" fill="#f2fafe" d="M 587.5,1108.5 C 586.833,1109.17 586.833,1109.17 587.5,1108.5 Z"/></g>
<g><path style="opacity:0.004" fill="#f2fafe" d="M 988.5,1108.5 C 989.833,1109.17 989.833,1109.17 988.5,1108.5 Z"/></g>
<g><path style="opacity:0.008" fill="#f2fafe" d="M 412.5,1109.5 C 411.833,1110.17 411.833,1110.17 412.5,1109.5 Z"/></g>
<g><path style="opacity:0.008" fill="#f2fafe" d="M 988.5,1109.5 C 987.833,1110.17 987.833,1110.17 988.5,1109.5 Z"/></g>
<g><path style="opacity:0.004" fill="#f2fafe" d="M 681.5,1110.5 C 682.833,1111.17 682.833,1111.17 681.5,1110.5 Z"/></g>
<g><path style="opacity:0.008" fill="#f2fafe" d="M 869.5,1110.5 C 870.833,1111.17 870.833,1111.17 869.5,1110.5 Z"/></g>
<g><path style="opacity:0.004" fill="#f2fafe" d="M 986.5,1110.5 C 986.833,1110.5 987.167,1110.5 987.5,1110.5C 987.315,1111.17 986.981,1111.17 986.5,1110.5 Z"/></g>
<g><path style="opacity:0.004" fill="#f2fafe" d="M 296.5,1112.5 C 295.833,1113.17 295.833,1113.17 296.5,1112.5 Z"/></g>
<g><path style="opacity:0.004" fill="#f2fafe" d="M 872.5,1112.5 C 871.833,1113.17 871.833,1113.17 872.5,1112.5 Z"/></g>
<g><path style="opacity:0.004" fill="#f2fafe" d="M 297.5,1115.5 C 296.833,1114.17 296.833,1114.17 297.5,1115.5 Z"/></g>
<g><path style="opacity:0.004" fill="#f2fafe" d="M 297.5,1115.5 C 298.833,1116.17 298.833,1116.17 297.5,1115.5 Z"/></g>
<g><path style="opacity:0.004" fill="#f2fafe" d="M 688.5,1116.5 C 689.833,1117.17 689.833,1117.17 688.5,1116.5 Z"/></g>
<g><path style="opacity:0.004" fill="#f2fafe" d="M 876.5,1116.5 C 876.5,1116.83 876.5,1117.17 876.5,1117.5C 875.83,1117.02 875.83,1116.69 876.5,1116.5 Z"/></g>
<g><path style="opacity:0.004" fill="#f2fafe" d="M 301.5,1117.5 C 301.5,1117.83 301.5,1118.17 301.5,1118.5C 300.83,1118.02 300.83,1117.69 301.5,1117.5 Z"/></g>
<g><path style="opacity:0.004" fill="#f2fafe" d="M 403.5,1117.5 C 404.833,1118.17 404.833,1118.17 403.5,1117.5 Z"/></g>
<g><path style="opacity:0.008" fill="#f2fafe" d="M 876.5,1117.5 C 877.167,1117.5 877.5,1117.83 877.5,1118.5C 877.167,1118.17 876.833,1117.83 876.5,1117.5 Z"/></g>
<g><path style="opacity:0.004" fill="#f2fafe" d="M 979.5,1117.5 C 980.833,1118.17 980.833,1118.17 979.5,1117.5 Z"/></g>
<g><path style="opacity:0.004" fill="#f2fafe" d="M 301.5,1118.5 C 302.833,1119.17 302.833,1119.17 301.5,1118.5 Z"/></g>
<g><path style="opacity:0.004" fill="#f2fafe" d="M 877.5,1118.5 C 878.833,1119.17 878.833,1119.17 877.5,1118.5 Z"/></g>
<g><path style="opacity:0.004" fill="#f2fafe" d="M 979.5,1118.5 C 978.833,1119.17 978.833,1119.17 979.5,1118.5 Z"/></g>
<g><path style="opacity:0.004" fill="#f2fafe" d="M 574.5,1121.5 C 573.833,1120.17 573.833,1120.17 574.5,1121.5 Z"/></g>
<g><path style="opacity:0.008" fill="#f2fafe" d="M 573.5,1121.5 C 572.833,1122.17 572.833,1122.17 573.5,1121.5 Z"/></g>
<g><path style="opacity:0.004" fill="#f2fafe" d="M 397.5,1122.5 C 398.833,1123.17 398.833,1123.17 397.5,1122.5 Z"/></g>
<g><path style="opacity:0.004" fill="#f2fafe" d="M 572.5,1122.5 C 571.833,1123.17 571.833,1123.17 572.5,1122.5 Z"/></g>
<g><path style="opacity:0.004" fill="#f2fafe" d="M 883.5,1123.5 C 882.833,1122.17 882.833,1122.17 883.5,1123.5 Z"/></g>
<g><path style="opacity:0.004" fill="#f2fafe" d="M 973.5,1122.5 C 974.833,1123.17 974.833,1123.17 973.5,1122.5 Z"/></g>
<g><path style="opacity:0.004" fill="#f2fafe" d="M 397.5,1123.5 C 396.833,1124.17 396.833,1124.17 397.5,1123.5 Z"/></g>
<g><path style="opacity:0.004" fill="#f2fafe" d="M 694.5,1123.5 C 695.833,1124.17 695.833,1124.17 694.5,1123.5 Z"/></g>
<g><path style="opacity:0.004" fill="#f2fafe" d="M 883.5,1123.5 C 884.833,1124.17 884.833,1124.17 883.5,1123.5 Z"/></g>
<g><path style="opacity:0.004" fill="#f2fafe" d="M 973.5,1123.5 C 972.833,1124.17 972.833,1124.17 973.5,1123.5 Z"/></g>
<g><path style="opacity:0.008" fill="#f2fafe" d="M 309.5,1124.5 C 310.833,1125.17 310.833,1125.17 309.5,1124.5 Z"/></g>
<g><path style="opacity:0.004" fill="#f2fafe" d="M 885.5,1124.5 C 886.833,1125.17 886.833,1125.17 885.5,1124.5 Z"/></g>
<g><path style="opacity:0.004" fill="#f2fafe" d="M 392.5,1125.5 C 393.833,1126.17 393.833,1126.17 392.5,1125.5 Z"/></g>
<g><path style="opacity:0.004" fill="#f2fafe" d="M 968.5,1125.5 C 969.833,1126.17 969.833,1126.17 968.5,1125.5 Z"/></g>
<g><path style="opacity:0.004" fill="#f2fafe" d="M 697.5,1128.5 C 696.833,1127.17 696.833,1127.17 697.5,1128.5 Z"/></g>
<g><path style="opacity:0.004" fill="#f2fafe" d="M 315.5,1128.5 C 316.833,1129.17 316.833,1129.17 315.5,1128.5 Z"/></g>
<g><path style="opacity:0.004" fill="#f2fafe" d="M 697.5,1128.5 C 698.833,1129.17 698.833,1129.17 697.5,1128.5 Z"/></g>
<g><path style="opacity:0.004" fill="#f2fafe" d="M 891.5,1128.5 C 892.833,1129.17 892.833,1129.17 891.5,1128.5 Z"/></g>
<g><path style="opacity:0.004" fill="#f2fafe" d="M 317.5,1129.5 C 318.833,1130.17 318.833,1130.17 317.5,1129.5 Z"/></g>
<g><path style="opacity:0.008" fill="#f2fafe" d="M 566.5,1129.5 C 567.833,1130.17 567.833,1130.17 566.5,1129.5 Z"/></g>
<g><path style="opacity:0.004" fill="#f2fafe" d="M 383.5,1130.5 C 384.833,1131.17 384.833,1131.17 383.5,1130.5 Z"/></g>
<g><path style="opacity:0.004" fill="#f2fafe" d="M 698.5,1130.5 C 699.833,1131.17 699.833,1131.17 698.5,1130.5 Z"/></g>
<g><path style="opacity:0.004" fill="#f2fafe" d="M 896.5,1130.5 C 897.833,1131.17 897.833,1131.17 896.5,1130.5 Z"/></g>
<g><path style="opacity:0.004" fill="#f2fafe" d="M 959.5,1130.5 C 960.833,1131.17 960.833,1131.17 959.5,1130.5 Z"/></g>
<g><path style="opacity:0.004" fill="#f2fafe" d="M 702.5,1136.5 C 703.833,1137.17 703.833,1137.17 702.5,1136.5 Z"/></g>
<g><path style="opacity:0.004" fill="#f2fafe" d="M 703.5,1204.5 C 704.833,1205.17 704.833,1205.17 703.5,1204.5 Z"/></g>
<g><path style="opacity:0.004" fill="#f2fafe" d="M 561.5,1205.5 C 562.833,1206.17 562.833,1206.17 561.5,1205.5 Z"/></g>
<g><path style="opacity:0.004" fill="#f2fafe" d="M 702.5,1206.5 C 703.833,1207.17 703.833,1207.17 702.5,1206.5 Z"/></g>
<g><path style="opacity:0.004" fill="#f2fafe" d="M 566.5,1211.5 C 565.833,1212.17 565.833,1212.17 566.5,1211.5 Z"/></g>
<g><path style="opacity:0.004" fill="#f2fafe" d="M 698.5,1212.5 C 699.833,1213.17 699.833,1213.17 698.5,1212.5 Z"/></g>
<g><path style="opacity:0.004" fill="#f2fafe" d="M 566.5,1213.5 C 567.833,1214.17 567.833,1214.17 566.5,1213.5 Z"/></g>
<g><path style="opacity:0.004" fill="#f2fafe" d="M 696.5,1216.5 C 697.833,1217.17 697.833,1217.17 696.5,1216.5 Z"/></g>
<g><path style="opacity:0.004" fill="#f2fafe" d="M 695.5,1217.5 C 695.833,1217.5 696.167,1217.5 696.5,1217.5C 696.315,1218.17 695.981,1218.17 695.5,1217.5 Z"/></g>
<g><path style="opacity:0.004" fill="#f2fafe" d="M 694.5,1219.5 C 695.833,1220.17 695.833,1220.17 694.5,1219.5 Z"/></g>
<g><path style="opacity:0.004" fill="#f2fafe" d="M 574.5,1224.5 C 573.833,1223.17 573.833,1223.17 574.5,1224.5 Z"/></g>
<g><path style="opacity:0.004" fill="#f2fafe" d="M 574.5,1224.5 C 575.167,1224.5 575.5,1224.83 575.5,1225.5C 575.167,1225.17 574.833,1224.83 574.5,1224.5 Z"/></g>
<g><path style="opacity:0.004" fill="#f2fafe" d="M 575.5,1225.5 C 576.833,1226.17 576.833,1226.17 575.5,1225.5 Z"/></g>
<g><path style="opacity:0.004" fill="#f2fafe" d="M 689.5,1225.5 C 690.833,1226.17 690.833,1226.17 689.5,1225.5 Z"/></g>
<g><path style="opacity:0.004" fill="#f2fafe" d="M 578.5,1226.5 C 577.833,1227.17 577.833,1227.17 578.5,1226.5 Z"/></g>
<g><path style="opacity:0.004" fill="#f2fafe" d="M 580.5,1230.5 C 579.833,1229.17 579.833,1229.17 580.5,1230.5 Z"/></g>
<g><path style="opacity:0.004" fill="#f2fafe" d="M 580.5,1230.5 C 581.167,1230.5 581.5,1230.83 581.5,1231.5C 581.167,1231.17 580.833,1230.83 580.5,1230.5 Z"/></g>
<g><path style="opacity:0.004" fill="#f2fafe" d="M 683.5,1230.5 C 684.833,1231.17 684.833,1231.17 683.5,1230.5 Z"/></g>
<g><path style="opacity:0.004" fill="#f2fafe" d="M 581.5,1231.5 C 582.833,1232.17 582.833,1232.17 581.5,1231.5 Z"/></g>
<g><path style="opacity:0.008" fill="#f2fafe" d="M 683.5,1231.5 C 682.833,1232.17 682.833,1232.17 683.5,1231.5 Z"/></g>
<g><path style="opacity:0.004" fill="#f2fafe" d="M 682.5,1232.5 C 681.833,1233.17 681.833,1233.17 682.5,1232.5 Z"/></g>
<g><path style="opacity:0.004" fill="#f2fafe" d="M 586.5,1233.5 C 585.833,1234.17 585.833,1234.17 586.5,1233.5 Z"/></g>
<g><path style="opacity:0.004" fill="#f2fafe" d="M 676.5,1236.5 C 677.833,1237.17 677.833,1237.17 676.5,1236.5 Z"/></g>
<g><path style="opacity:0.004" fill="#f2fafe" d="M 593.5,1239.5 C 594.833,1240.17 594.833,1240.17 593.5,1239.5 Z"/></g>
<g><path style="opacity:0.004" fill="#f2fafe" d="M 670.5,1239.5 C 671.833,1240.17 671.833,1240.17 670.5,1239.5 Z"/></g>
<g><path style="opacity:0.004" fill="#f2fafe" d="M 661.5,1244.5 C 662.833,1245.17 662.833,1245.17 661.5,1244.5 Z"/></g>
<g><path style="opacity:0.004" fill="#f2fafe" d="M 606.5,1245.5 C 607.833,1246.17 607.833,1246.17 606.5,1245.5 Z"/></g>
<g><path style="opacity:0.004" fill="#f2fafe" d="M 654.5,1246.5 C 655.833,1247.17 655.833,1247.17 654.5,1246.5 Z"/></g>
</svg>
