<?xml version="1.0" encoding="UTF-8"?>
<!DOCTYPE svg PUBLIC "-//W3C//DTD SVG 1.1//EN" "http://www.w3.org/Graphics/SVG/1.1/DTD/svg11.dtd">
<svg xmlns="http://www.w3.org/2000/svg" version="1.1" width="1280px" height="1280px" style="shape-rendering:geometricPrecision; text-rendering:geometricPrecision; image-rendering:optimizeQuality; fill-rule:evenodd; clip-rule:evenodd" xmlns:xlink="http://www.w3.org/1999/xlink">
<g><path style="opacity:0.978" fill="#f2fafe" d="M 639.5,43.5 C 811.639,143.382 983.639,242.882 1155.5,342C 1154.17,540 1154.17,738 1155.5,936C 983.751,1034.98 811.918,1134.48 640,1234.5C 468.295,1134.84 296.628,1035.84 125,937.5C 124.333,738.5 124.333,539.5 125,340.5C 296.606,242.261 468.106,143.261 639.5,43.5 Z M 639.5,133.5 C 778.02,213.839 916.687,294.005 1055.5,374C 917.562,454.219 779.396,534.052 641,613.5C 502.714,533.382 364.547,453.049 226.5,372.5C 364.066,292.554 501.733,212.887 639.5,133.5 Z M 201.5,409.5 C 338.891,489.615 476.391,569.615 614,649.5C 614.667,809.5 614.667,969.5 614,1129.5C 476.704,1050.37 339.537,971.033 202.5,891.5C 202.573,730.89 202.239,570.224 201.5,409.5 Z M 1076.5,412.5 C 1077.67,571.999 1077.83,731.666 1077,891.5C 937.667,972.167 798.333,1052.83 659,1133.5C 658.167,973.832 658.333,814.166 659.5,654.5C 798.727,574.059 937.727,493.392 1076.5,412.5 Z"/></g>
<g><path style="opacity:0.978" fill="#f2fafe" d="M 997.5,529.5 C 1013.89,528.119 1026.72,534.119 1036,547.5C 1038.45,551.531 1040.12,555.864 1041,560.5C 1041.67,657.167 1041.67,753.833 1041,850.5C 1035.57,869.564 1022.91,879.897 1003,881.5C 983.092,879.897 970.425,869.564 965,850.5C 964.333,753.833 964.333,657.167 965,560.5C 969.564,543.432 980.398,533.099 997.5,529.5 Z"/></g>
<g><path style="opacity:0.967" fill="#f2fafe" d="M 877.5,604.5 C 898.896,601.776 914.062,610.11 923,629.5C 923.794,632.471 924.461,635.471 925,638.5C 925.667,732.5 925.667,826.5 925,920.5C 921.276,942.122 908.443,953.789 886.5,955.5C 865.645,954.477 852.811,943.811 848,923.5C 847.333,827.833 847.333,732.167 848,636.5C 851.796,620.206 861.63,609.539 877.5,604.5 Z"/></g>
<g><path style="opacity:0.967" fill="#f2fafe" d="M 758.5,675.5 C 775.348,673.497 788.848,679.163 799,692.5C 802.201,698.102 804.201,704.102 805,710.5C 805.667,804.167 805.667,897.833 805,991.5C 799.03,1018.75 782.197,1029.92 754.5,1025C 739.956,1019.79 731.122,1009.62 728,994.5C 727.333,898.833 727.333,803.167 728,707.5C 731.902,690.767 742.068,680.1 758.5,675.5 Z"/></g>
</svg>
