<svg xmlns="http://www.w3.org/2000/svg" viewBox="0 0 320 300" fill="none">
  <rect width="320" height="300" rx="12" fill="#0e3b5c"/>

  <!-- Center hub -->
  <circle cx="160" cy="140" r="40" fill="#14598a" stroke="#86da2f" stroke-width="2"/>
  <text x="160" y="134" text-anchor="middle" fill="#fff" font-family="Montserrat,sans-serif" font-weight="700" font-size="10">Board &amp;</text>
  <text x="160" y="148" text-anchor="middle" fill="#fff" font-family="Montserrat,sans-serif" font-weight="700" font-size="10">ALESCo</text>

  <!-- SIG nodes - ring of 12 around center -->
  <!-- Top row -->
  <rect x="36" y="16" width="72" height="28" rx="6" fill="rgba(255,255,255,0.1)" stroke="#86da2f" stroke-width="1"/>
  <text x="72" y="34" text-anchor="middle" fill="#fff" font-family="Montserrat,sans-serif" font-weight="600" font-size="7.5">AltArch SIG</text>
  <line x1="72" y1="44" x2="130" y2="105" stroke="#86da2f" stroke-width="0.8" opacity="0.5"/>

  <rect x="124" y="16" width="72" height="28" rx="6" fill="rgba(255,255,255,0.1)" stroke="#86da2f" stroke-width="1"/>
  <text x="160" y="34" text-anchor="middle" fill="#fff" font-family="Montserrat,sans-serif" font-weight="600" font-size="7.5">Core SIG</text>
  <line x1="160" y1="44" x2="160" y2="100" stroke="#86da2f" stroke-width="0.8" opacity="0.5"/>

  <rect x="212" y="16" width="72" height="28" rx="6" fill="rgba(255,255,255,0.1)" stroke="#86da2f" stroke-width="1"/>
  <text x="248" y="34" text-anchor="middle" fill="#fff" font-family="Montserrat,sans-serif" font-weight="600" font-size="7.5">Infra SIG</text>
  <line x1="248" y1="44" x2="190" y2="110" stroke="#86da2f" stroke-width="0.8" opacity="0.5"/>

  <!-- Left column -->
  <rect x="2" y="68" width="78" height="28" rx="6" fill="rgba(255,255,255,0.1)" stroke="#86da2f" stroke-width="1"/>
  <text x="41" y="86" text-anchor="middle" fill="#fff" font-family="Montserrat,sans-serif" font-weight="600" font-size="7.5">Atomic SIG</text>
  <line x1="80" y1="82" x2="122" y2="125" stroke="#86da2f" stroke-width="0.8" opacity="0.5"/>

  <rect x="2" y="120" width="78" height="28" rx="6" fill="rgba(255,255,255,0.1)" stroke="#86da2f" stroke-width="1"/>
  <text x="41" y="138" text-anchor="middle" fill="#fff" font-family="Montserrat,sans-serif" font-weight="600" font-size="7.5">Migration SIG</text>
  <line x1="80" y1="134" x2="120" y2="138" stroke="#86da2f" stroke-width="0.8" opacity="0.5"/>

  <rect x="2" y="172" width="78" height="28" rx="6" fill="rgba(255,255,255,0.1)" stroke="#86da2f" stroke-width="1"/>
  <text x="41" y="190" text-anchor="middle" fill="#fff" font-family="Montserrat,sans-serif" font-weight="600" font-size="7.5">Live Media SIG</text>
  <line x1="80" y1="186" x2="130" y2="165" stroke="#86da2f" stroke-width="0.8" opacity="0.5"/>

  <!-- Right column -->
  <rect x="240" y="68" width="78" height="28" rx="6" fill="rgba(255,255,255,0.1)" stroke="#86da2f" stroke-width="1"/>
  <text x="279" y="80" text-anchor="middle" fill="#fff" font-family="Montserrat,sans-serif" font-weight="600" font-size="7">Cloud / Virt /</text>
  <text x="279" y="91" text-anchor="middle" fill="#fff" font-family="Montserrat,sans-serif" font-weight="600" font-size="7">Container SIG</text>
  <line x1="240" y1="82" x2="198" y2="125" stroke="#86da2f" stroke-width="0.8" opacity="0.5"/>

  <rect x="240" y="120" width="78" height="28" rx="6" fill="rgba(255,255,255,0.1)" stroke="#86da2f" stroke-width="1"/>
  <text x="279" y="138" text-anchor="middle" fill="#fff" font-family="Montserrat,sans-serif" font-weight="600" font-size="7">Certification SIG</text>
  <line x1="240" y1="134" x2="200" y2="140" stroke="#86da2f" stroke-width="0.8" opacity="0.5"/>

  <rect x="240" y="172" width="78" height="28" rx="6" fill="rgba(255,255,255,0.1)" stroke="#86da2f" stroke-width="1"/>
  <text x="279" y="190" text-anchor="middle" fill="#fff" font-family="Montserrat,sans-serif" font-weight="600" font-size="7.5">HPC &amp; AI SIG</text>
  <line x1="240" y1="186" x2="190" y2="165" stroke="#86da2f" stroke-width="0.8" opacity="0.5"/>

  <!-- Bottom row -->
  <rect x="18" y="224" width="78" height="28" rx="6" fill="rgba(255,255,255,0.1)" stroke="#86da2f" stroke-width="1"/>
  <text x="57" y="242" text-anchor="middle" fill="#fff" font-family="Montserrat,sans-serif" font-weight="600" font-size="7.5">Marketing SIG</text>
  <line x1="57" y1="224" x2="135" y2="175" stroke="#86da2f" stroke-width="0.8" opacity="0.5"/>

  <rect x="118" y="224" width="84" height="28" rx="6" fill="rgba(255,255,255,0.1)" stroke="#86da2f" stroke-width="1"/>
  <text x="160" y="242" text-anchor="middle" fill="#fff" font-family="Montserrat,sans-serif" font-weight="600" font-size="7">Build System SIG</text>
  <line x1="160" y1="224" x2="160" y2="180" stroke="#86da2f" stroke-width="0.8" opacity="0.5"/>

  <rect x="224" y="224" width="78" height="28" rx="6" fill="rgba(255,255,255,0.1)" stroke="#86da2f" stroke-width="1"/>
  <text x="263" y="236" text-anchor="middle" fill="#fff" font-family="Montserrat,sans-serif" font-weight="600" font-size="6.5">Media &amp;</text>
  <text x="263" y="247" text-anchor="middle" fill="#fff" font-family="Montserrat,sans-serif" font-weight="600" font-size="6.5">Entertainment SIG</text>
  <line x1="263" y1="224" x2="185" y2="175" stroke="#86da2f" stroke-width="0.8" opacity="0.5"/>

  <!-- Label -->
  <text x="160" y="280" text-anchor="middle" fill="#c4e1ff" font-family="Montserrat,sans-serif" font-size="8">wiki.almalinux.org/sigs</text>
</svg>
