<svg xmlns="http://www.w3.org/2000/svg" viewBox="0 0 15.304 15.304" fill="#ffffff">
  <defs/>
  <g>
    <path d="M5.734 8.248v-.631c-.352-.24-.685-.525-.992-.863-.889.859-1.74 1.403-1.836 1.464l-.081.05-.49-.783.08-.051c.01-.007.876-.556 1.751-1.413C3.363 4.85 3.054 3.67 3.042 3.619l-.023-.09.895-.23.022.091c.002.01.257.954.877 1.926.613-.745.97-1.463 1.061-2.14H2.115V2.171h2.072v-.559h.966v.558h2.072v1.006h-.417c-.097.941-.575 1.916-1.424 2.901.114.128.231.245.35.357v-.473c0-.336.272-.608.608-.608h2.705V.569c0-.084-.067-.152-.152-.152H.152C.068.417 0 .485 0 .569v8.742c0 .085.068.152.152.152h5.582V8.248zM10.728 8.515h-.017c-.084.333-.166.755-.258 1.078l-.332 1.187h1.236l-.347-1.187c-.1-.332-.2-.746-.282-1.078z"/>
    <path d="M15.152 5.841H6.41c-.084 0-.152.068-.152.152v8.743c0 .084.068.151.152.151h8.742c.085 0 .152-.067.152-.151V5.993c0-.083-.067-.152-.152-.152zm-3.18 7.319l-.431-1.436H9.94l-.399 1.436h-1.31L9.94 7.57h1.658l1.733 5.59h-1.359zM3.935 9.846H2.72v2.02l1.006.996h2.26v-1.215H3.935z"/>
  </g>
</svg>
