<?xml version="1.0" encoding="UTF-8"?>
<!DOCTYPE svg PUBLIC "-//W3C//DTD SVG 1.1//EN" "http://www.w3.org/Graphics/SVG/1.1/DTD/svg11.dtd">
<svg xmlns="http://www.w3.org/2000/svg" version="1.1" width="1280px" height="1280px" style="shape-rendering:geometricPrecision; text-rendering:geometricPrecision; image-rendering:optimizeQuality; fill-rule:evenodd; clip-rule:evenodd" xmlns:xlink="http://www.w3.org/1999/xlink">
<g><path style="opacity:0.972" fill="#f2fafe" d="M 354.5,66.5 C 544.794,67.331 735.127,67.831 925.5,68C 925.146,188.374 925.146,308.874 925.5,429.5C 735.589,430.497 545.589,430.831 355.5,430.5C 354.5,309.168 354.167,187.835 354.5,66.5 Z M 423.5,136.5 C 567.5,136.5 711.5,136.5 855.5,136.5C 855.5,211.167 855.5,285.833 855.5,360.5C 711.5,360.5 567.5,360.5 423.5,360.5C 423.5,285.833 423.5,211.167 423.5,136.5 Z"/></g>
<g><path style="opacity:0.967" fill="#f2fafe" d="M 519.5,174.5 C 546.5,174.5 573.5,174.5 600.5,174.5C 600.5,220.833 600.5,267.167 600.5,313.5C 573.314,314.019 546.314,314.019 519.5,313.5C 519.5,267.167 519.5,220.833 519.5,174.5 Z"/></g>
<g><path style="opacity:0.968" fill="#f2fafe" d="M 680.5,174.5 C 707.5,174.5 734.5,174.5 761.5,174.5C 761.5,220.833 761.5,267.167 761.5,313.5C 734.314,314.019 707.314,314.019 680.5,313.5C 680.5,267.167 680.5,220.833 680.5,174.5 Z"/></g>
<g><path style="opacity:0.975" fill="#f2fafe" d="M 1125.5,994.5 C 1123.61,996.789 1122.28,999.455 1121.5,1002.5C 1119.4,1003.98 1119.4,1005.15 1121.5,1006C 1120.06,1006.22 1118.73,1006.72 1117.5,1007.5C 1111.42,1016.56 1105.42,1025.56 1099.5,1034.5C 1096.76,1036.24 1094.76,1038.57 1093.5,1041.5C 1092.09,1041.97 1091.43,1042.97 1091.5,1044.5C 1059.19,1078.36 1021.19,1104.36 977.5,1122.5C 976.808,1123.03 976.308,1123.69 976,1124.5C 968.806,1126.19 961.64,1128.85 954.5,1132.5C 940.405,1137.56 926.239,1142.23 912,1146.5C 911.586,1146.04 911.086,1145.71 910.5,1145.5C 899.965,1148.75 889.298,1151.75 878.5,1154.5C 845.8,1161.29 812.8,1166.46 779.5,1170C 684.997,1177.63 590.33,1177.29 495.5,1169C 476.897,1166.17 458.23,1163.51 439.5,1161C 429.02,1158.31 418.353,1156.14 407.5,1154.5C 397.675,1151.38 387.675,1148.88 377.5,1147C 329.905,1134.22 285.238,1114.22 243.5,1087C 222.027,1071.02 202.694,1052.86 185.5,1032.5C 184.116,1030.3 182.449,1028.3 180.5,1026.5C 180.573,1024.97 179.906,1023.97 178.5,1023.5C 176.218,1019.22 173.551,1015.22 170.5,1011.5C 147.405,974.238 134.572,933.238 132,888.5C 129.912,843.129 134.245,798.463 145,754.5C 170.317,655.307 195.483,556.307 220.5,457.5C 502.167,457.333 783.834,457.5 1065.5,458C 1090.49,555.787 1115.15,653.62 1139.5,751.5C 1155.77,810.124 1158.94,869.457 1149,929.5C 1146.54,938.804 1143.71,947.971 1140.5,957C 1140.83,957.333 1141.17,957.667 1141.5,958C 1137.04,970.528 1131.71,982.695 1125.5,994.5 Z M 1026.5,949.5 C 1013.12,970.874 995.458,987.874 973.5,1000.5C 967.402,1005.39 960.736,1009.56 953.5,1013C 928.603,1025.71 902.27,1035.88 874.5,1043.5C 808.362,1059.01 741.362,1067.35 673.5,1068.5C 631.792,1068.89 589.792,1067.72 547.5,1065C 528.943,1063.01 510.276,1061.01 491.5,1059C 450.598,1053.02 410.598,1043.35 371.5,1030C 359.539,1025.33 348.206,1020.33 337.5,1015C 334.272,1012.56 330.939,1010.39 327.5,1008.5C 322.233,1005.89 317.233,1002.89 312.5,999.5C 288.43,984.763 269.43,965.097 255.5,940.5C 253.461,939.089 252.461,937.089 252.5,934.5C 250.792,931.516 248.959,928.516 247,925.5C 231.798,887 227.298,847.167 233.5,806C 235.907,792.156 238.407,778.322 241,764.5C 258.44,694.988 276.274,625.488 294.5,556C 296.106,547.804 297.772,539.637 299.5,531.5C 529.167,531.5 758.833,531.5 988.5,531.5C 989.637,538.686 990.97,545.853 992.5,553C 997.34,571.878 1002.17,590.712 1007,609.5C 1008.76,610.421 1008.92,611.588 1007.5,613C 1008.3,614.092 1008.96,615.259 1009.5,616.5C 1021.06,664.732 1033.22,712.732 1046,760.5C 1049.38,778.197 1052.38,795.863 1055,813.5C 1061.42,859.192 1053.75,902.192 1032,942.5C 1029.72,944.614 1027.89,946.947 1026.5,949.5 Z"/></g>
<g><path style="opacity:0.004" fill="#f2fafe" d="M 1102.5,598.5 C 1103.83,599.167 1103.83,599.167 1102.5,598.5 Z"/></g>
<g><path style="opacity:0.986" fill="#f2fafe" d="M 490.5,612.5 C 522.115,625.103 553.449,638.603 584.5,653C 605.354,661.179 626.021,669.846 646.5,679C 647.833,680 649.167,681 650.5,682C 723.475,712.984 796.141,744.817 868.5,777.5C 876.13,780.262 883.464,783.595 890.5,787.5C 891.298,787.957 891.631,788.624 891.5,789.5C 797.357,831.855 702.023,873.688 605.5,915C 567.665,932.774 529.332,949.274 490.5,964.5C 490.5,847.167 490.5,729.833 490.5,612.5 Z"/></g>
<g><path style="opacity:0.004" fill="#f2fafe" d="M 1107.5,617.5 C 1108.83,618.167 1108.83,618.167 1107.5,617.5 Z"/></g>
<g><path style="opacity:0.004" fill="#f2fafe" d="M 1108.5,621.5 C 1109.53,621.897 1109.69,622.563 1109,623.5C 1108.54,622.906 1108.37,622.239 1108.5,621.5 Z"/></g>
<g><path style="opacity:0.004" fill="#f2fafe" d="M 176.5,622.5 C 177.525,622.897 177.692,623.563 177,624.5C 176.536,623.906 176.369,623.239 176.5,622.5 Z"/></g>
<g><path style="opacity:0.004" fill="#f2fafe" d="M 175.5,627.5 C 176.833,628.167 176.833,628.167 175.5,627.5 Z"/></g>
<g><path style="opacity:0.004" fill="#f2fafe" d="M 163.5,674.5 C 164.833,675.167 164.833,675.167 163.5,674.5 Z"/></g>
<g><path style="opacity:0.004" fill="#f2fafe" d="M 1123.5,682.5 C 1124.83,683.167 1124.83,683.167 1123.5,682.5 Z"/></g>
<g><path style="opacity:0.004" fill="#f2fafe" d="M 1129.5,705.5 C 1130.83,706.167 1130.83,706.167 1129.5,705.5 Z"/></g>
<g><path style="opacity:0.004" fill="#f2fafe" d="M 1132.5,718.5 C 1133.53,718.897 1133.69,719.563 1133,720.5C 1132.54,719.906 1132.37,719.239 1132.5,718.5 Z"/></g>
<g><path style="opacity:0.004" fill="#f2fafe" d="M 1136.5,733.5 C 1137.83,734.167 1137.83,734.167 1136.5,733.5 Z"/></g>
<g><path style="opacity:0.004" fill="#f2fafe" d="M 148.5,734.5 C 149.833,735.167 149.833,735.167 148.5,734.5 Z"/></g>
<g><path style="opacity:0.004" fill="#f2fafe" d="M 1138.5,741.5 C 1139.53,741.897 1139.69,742.563 1139,743.5C 1138.54,742.906 1138.37,742.239 1138.5,741.5 Z"/></g>
<g><path style="opacity:0.004" fill="#f2fafe" d="M 145.5,747.5 C 146.833,748.167 146.833,748.167 145.5,747.5 Z"/></g>
<g><path style="opacity:0.004" fill="#f2fafe" d="M 1145.5,771.5 C 1146.83,772.167 1146.83,772.167 1145.5,771.5 Z"/></g>
<g><path style="opacity:0.004" fill="#f2fafe" d="M 139.5,943.5 C 140.833,944.167 140.833,944.167 139.5,943.5 Z"/></g>
<g><path style="opacity:0.004" fill="#f2fafe" d="M 141.5,951.5 C 142.833,952.167 142.833,952.167 141.5,951.5 Z"/></g>
<g><path style="opacity:0.004" fill="#f2fafe" d="M 148.5,971.5 C 149.833,972.167 149.833,972.167 148.5,971.5 Z"/></g>
<g><path style="opacity:0.004" fill="#f2fafe" d="M 1131.5,983.5 C 1132.83,984.167 1132.83,984.167 1131.5,983.5 Z"/></g>
<g><path style="opacity:0.004" fill="#f2fafe" d="M 1130.5,987.5 C 1130.37,986.761 1130.54,986.094 1131,985.5C 1131.69,986.437 1131.53,987.103 1130.5,987.5 Z"/></g>
<g><path style="opacity:0.004" fill="#f2fafe" d="M 155.5,987.5 C 156.833,988.167 156.833,988.167 155.5,987.5 Z"/></g>
<g><path style="opacity:0.004" fill="#f2fafe" d="M 1130.5,987.5 C 1130.63,988.239 1130.46,988.906 1130,989.5C 1129.31,988.563 1129.47,987.897 1130.5,987.5 Z"/></g>
<g><path style="opacity:0.004" fill="#f2fafe" d="M 1127.5,992.5 C 1128.83,993.167 1128.83,993.167 1127.5,992.5 Z"/></g>
<g><path style="opacity:0.004" fill="#f2fafe" d="M 1125.5,994.5 C 1126.83,995.167 1126.83,995.833 1125.5,996.5C 1125.5,995.833 1125.5,995.167 1125.5,994.5 Z"/></g>
<g><path style="opacity:0.004" fill="#f2fafe" d="M 159.5,995.5 C 160.833,996.167 160.833,996.167 159.5,995.5 Z"/></g>
<g><path style="opacity:0.004" fill="#f2fafe" d="M 1125.5,996.5 C 1125.63,997.239 1125.46,997.906 1125,998.5C 1124.31,997.563 1124.47,996.897 1125.5,996.5 Z"/></g>
<g><path style="opacity:0.004" fill="#f2fafe" d="M 161.5,998.5 C 162.833,999.167 162.833,999.167 161.5,998.5 Z"/></g>
<g><path style="opacity:0.004" fill="#f2fafe" d="M 1123.5,999.5 C 1124.83,1000.17 1124.83,1000.17 1123.5,999.5 Z"/></g>
<g><path style="opacity:0.006" fill="#f2fafe" d="M 163.5,1002.5 C 162.475,1002.1 162.308,1001.44 163,1000.5C 163.464,1001.09 163.631,1001.76 163.5,1002.5 Z"/></g>
<g><path style="opacity:0.004" fill="#f2fafe" d="M 1121.5,1002.5 C 1122.36,1001.54 1123.03,1001.54 1123.5,1002.5C 1122.74,1003.77 1122.08,1003.77 1121.5,1002.5 Z"/></g>
<g><path style="opacity:0.004" fill="#f2fafe" d="M 163.5,1002.5 C 164.525,1002.9 164.692,1003.56 164,1004.5C 163.536,1003.91 163.369,1003.24 163.5,1002.5 Z"/></g>
<g><path style="opacity:0.004" fill="#f2fafe" d="M 165.5,1006.5 C 164.833,1005.17 164.833,1005.17 165.5,1006.5 Z"/></g>
<g><path style="opacity:0.004" fill="#f2fafe" d="M 165.5,1006.5 C 166.833,1007.17 166.833,1007.17 165.5,1006.5 Z"/></g>
<g><path style="opacity:0.004" fill="#f2fafe" d="M 1118.5,1007.5 C 1119.53,1007.9 1119.69,1008.56 1119,1009.5C 1118.54,1008.91 1118.37,1008.24 1118.5,1007.5 Z"/></g>
<g><path style="opacity:0.004" fill="#f2fafe" d="M 168.5,1010.5 C 167.833,1009.17 167.833,1009.17 168.5,1010.5 Z"/></g>
<g><path style="opacity:0.005" fill="#f2fafe" d="M 168.5,1010.5 C 169.167,1010.83 169.833,1011.17 170.5,1011.5C 169.699,1013.79 169.032,1013.46 168.5,1010.5 Z"/></g>
<g><path style="opacity:0.008" fill="#f2fafe" d="M 1116.5,1010.5 C 1117.53,1010.9 1117.69,1011.56 1117,1012.5C 1116.54,1011.91 1116.37,1011.24 1116.5,1010.5 Z"/></g>
<g><path style="opacity:0.004" fill="#f2fafe" d="M 1115.5,1013.5 C 1116.83,1014.17 1116.83,1014.17 1115.5,1013.5 Z"/></g>
<g><path style="opacity:0.004" fill="#f2fafe" d="M 171.5,1015.5 C 170.833,1014.17 170.833,1014.17 171.5,1015.5 Z"/></g>
<g><path style="opacity:0.004" fill="#f2fafe" d="M 1115.5,1014.5 C 1114.83,1015.17 1114.83,1015.17 1115.5,1014.5 Z"/></g>
<g><path style="opacity:0.008" fill="#f2fafe" d="M 171.5,1015.5 C 172.833,1016.17 172.833,1016.17 171.5,1015.5 Z"/></g>
<g><path style="opacity:0.004" fill="#f2fafe" d="M 1113.5,1016.5 C 1114.83,1017.17 1114.83,1017.17 1113.5,1016.5 Z"/></g>
<g><path style="opacity:0.004" fill="#f2fafe" d="M 173.5,1018.5 C 172.833,1017.17 172.833,1017.17 173.5,1018.5 Z"/></g>
<g><path style="opacity:0.004" fill="#f2fafe" d="M 1113.5,1017.5 C 1112.83,1018.17 1112.83,1018.17 1113.5,1017.5 Z"/></g>
<g><path style="opacity:0.004" fill="#f2fafe" d="M 173.5,1018.5 C 174.167,1018.5 174.5,1018.83 174.5,1019.5C 174.167,1019.17 173.833,1018.83 173.5,1018.5 Z"/></g>
<g><path style="opacity:0.008" fill="#f2fafe" d="M 1112.5,1018.5 C 1111.83,1019.17 1111.83,1019.17 1112.5,1018.5 Z"/></g>
<g><path style="opacity:0.004" fill="#f2fafe" d="M 174.5,1019.5 C 175.833,1020.17 175.833,1020.17 174.5,1019.5 Z"/></g>
<g><path style="opacity:0.004" fill="#f2fafe" d="M 1110.5,1020.5 C 1111.83,1021.17 1111.83,1021.17 1110.5,1020.5 Z"/></g>
<g><path style="opacity:0.004" fill="#f2fafe" d="M 176.5,1022.5 C 175.833,1021.17 175.833,1021.17 176.5,1022.5 Z"/></g>
<g><path style="opacity:0.005" fill="#f2fafe" d="M 1110.5,1021.5 C 1110.57,1023.03 1109.91,1024.03 1108.5,1024.5C 1108.43,1022.97 1109.09,1021.97 1110.5,1021.5 Z"/></g>
<g><path style="opacity:0.005" fill="#f2fafe" d="M 176.5,1022.5 C 177.167,1022.83 177.833,1023.17 178.5,1023.5C 177.377,1024.76 176.711,1024.42 176.5,1022.5 Z"/></g>
<g><path style="opacity:0.004" fill="#f2fafe" d="M 1108.5,1024.5 C 1108.54,1025.76 1108.04,1026.76 1107,1027.5C 1106.42,1026 1106.92,1025 1108.5,1024.5 Z"/></g>
<g><path style="opacity:0.004" fill="#f2fafe" d="M 180.5,1026.5 C 180.253,1028.98 179.587,1028.98 178.5,1026.5C 178.97,1025.54 179.637,1025.54 180.5,1026.5 Z"/></g>
<g><path style="opacity:0.004" fill="#f2fafe" d="M 1103.5,1029.5 C 1104.71,1030.5 1104.55,1031.5 1103,1032.5C 1102.53,1031.42 1102.7,1030.42 1103.5,1029.5 Z"/></g>
<g><path style="opacity:0.005" fill="#f2fafe" d="M 185.5,1032.5 C 185.631,1033.24 185.464,1033.91 185,1034.5C 183.322,1033.53 182.655,1032.2 183,1030.5C 183.708,1031.38 184.542,1032.05 185.5,1032.5 Z"/></g>
<g><path style="opacity:0.004" fill="#f2fafe" d="M 1099.5,1036.5 C 1099.5,1035.83 1099.5,1035.17 1099.5,1034.5C 1102.19,1033.94 1102.19,1034.61 1099.5,1036.5 Z"/></g>
<g><path style="opacity:0.004" fill="#f2fafe" d="M 187.5,1037.5 C 186.833,1036.17 186.833,1036.17 187.5,1037.5 Z"/></g>
<g><path style="opacity:0.004" fill="#f2fafe" d="M 1099.5,1036.5 C 1098.83,1037.17 1098.83,1037.17 1099.5,1036.5 Z"/></g>
<g><path style="opacity:0.004" fill="#f2fafe" d="M 187.5,1037.5 C 188.167,1037.5 188.5,1037.83 188.5,1038.5C 188.167,1038.17 187.833,1037.83 187.5,1037.5 Z"/></g>
<g><path style="opacity:0.004" fill="#f2fafe" d="M 1098.5,1037.5 C 1097.83,1038.17 1097.83,1038.17 1098.5,1037.5 Z"/></g>
<g><path style="opacity:0.004" fill="#f2fafe" d="M 188.5,1038.5 C 189.167,1038.5 189.5,1038.83 189.5,1039.5C 189.167,1039.17 188.833,1038.83 188.5,1038.5 Z"/></g>
<g><path style="opacity:0.004" fill="#f2fafe" d="M 189.5,1039.5 C 190.833,1040.17 190.833,1040.17 189.5,1039.5 Z"/></g>
<g><path style="opacity:0.004" fill="#f2fafe" d="M 1094.5,1040.5 C 1095.83,1041.17 1095.83,1041.17 1094.5,1040.5 Z"/></g>
<g><path style="opacity:0.004" fill="#f2fafe" d="M 1093.5,1041.5 C 1093.83,1041.5 1094.17,1041.5 1094.5,1041.5C 1094.31,1042.17 1093.98,1042.17 1093.5,1041.5 Z"/></g>
<g><path style="opacity:0.004" fill="#f2fafe" d="M 1092.5,1043.5 C 1093.83,1044.17 1093.83,1044.17 1092.5,1043.5 Z"/></g>
<g><path style="opacity:0.004" fill="#f2fafe" d="M 193.5,1044.5 C 194.833,1045.17 194.833,1045.17 193.5,1044.5 Z"/></g>
<g><path style="opacity:0.004" fill="#f2fafe" d="M 1091.5,1044.5 C 1091.83,1044.5 1092.17,1044.5 1092.5,1044.5C 1092.31,1045.17 1091.98,1045.17 1091.5,1044.5 Z"/></g>
<g><path style="opacity:0.004" fill="#f2fafe" d="M 1084.5,1052.5 C 1085.83,1053.17 1085.83,1053.17 1084.5,1052.5 Z"/></g>
<g><path style="opacity:0.004" fill="#f2fafe" d="M 1080.5,1055.5 C 1081.83,1056.17 1081.83,1056.17 1080.5,1055.5 Z"/></g>
<g><path style="opacity:0.004" fill="#f2fafe" d="M 1077.5,1059.5 C 1078.83,1060.17 1078.83,1060.17 1077.5,1059.5 Z"/></g>
<g><path style="opacity:0.004" fill="#f2fafe" d="M 1056.5,1077.5 C 1057.83,1078.17 1057.83,1078.17 1056.5,1077.5 Z"/></g>
<g><path style="opacity:0.004" fill="#f2fafe" d="M 1024.5,1100.5 C 1024.9,1099.47 1025.56,1099.31 1026.5,1100C 1025.91,1100.46 1025.24,1100.63 1024.5,1100.5 Z"/></g>
<g><path style="opacity:0.004" fill="#f2fafe" d="M 262.5,1100.5 C 263.833,1101.17 263.833,1101.17 262.5,1100.5 Z"/></g>
<g><path style="opacity:0.004" fill="#f2fafe" d="M 268.5,1104.5 C 269.833,1105.17 269.833,1105.17 268.5,1104.5 Z"/></g>
<g><path style="opacity:0.004" fill="#f2fafe" d="M 1012.5,1107.5 C 1012.9,1106.47 1013.56,1106.31 1014.5,1107C 1013.91,1107.46 1013.24,1107.63 1012.5,1107.5 Z"/></g>
<g><path style="opacity:0.004" fill="#f2fafe" d="M 273.5,1108.5 C 273.897,1107.47 274.563,1107.31 275.5,1108C 274.906,1108.46 274.239,1108.63 273.5,1108.5 Z"/></g>
<g><path style="opacity:0.004" fill="#f2fafe" d="M 1012.5,1107.5 C 1012.1,1108.53 1011.44,1108.69 1010.5,1108C 1011.09,1107.54 1011.76,1107.37 1012.5,1107.5 Z"/></g>
<g><path style="opacity:0.004" fill="#f2fafe" d="M 276.5,1108.5 C 277.833,1109.17 277.833,1109.17 276.5,1108.5 Z"/></g>
<g><path style="opacity:0.004" fill="#f2fafe" d="M 278.5,1109.5 C 279.833,1110.17 279.833,1110.17 278.5,1109.5 Z"/></g>
<g><path style="opacity:0.004" fill="#f2fafe" d="M 281.5,1111.5 C 282.833,1112.17 282.833,1112.17 281.5,1111.5 Z"/></g>
<g><path style="opacity:0.004" fill="#f2fafe" d="M 285.5,1113.5 C 286.833,1114.17 286.833,1114.17 285.5,1113.5 Z"/></g>
<g><path style="opacity:0.004" fill="#f2fafe" d="M 288.5,1114.5 C 289.833,1115.17 289.833,1115.17 288.5,1114.5 Z"/></g>
<g><path style="opacity:0.004" fill="#f2fafe" d="M 292.5,1116.5 C 293.833,1117.17 293.833,1117.17 292.5,1116.5 Z"/></g>
<g><path style="opacity:0.004" fill="#f2fafe" d="M 297.5,1119.5 C 298.833,1120.17 298.833,1120.17 297.5,1119.5 Z"/></g>
<g><path style="opacity:0.004" fill="#f2fafe" d="M 987.5,1119.5 C 988.833,1120.17 988.833,1120.17 987.5,1119.5 Z"/></g>
<g><path style="opacity:0.004" fill="#f2fafe" d="M 299.5,1120.5 C 300.833,1121.17 300.833,1121.17 299.5,1120.5 Z"/></g>
<g><path style="opacity:0.004" fill="#f2fafe" d="M 301.5,1122.5 C 301.897,1121.47 302.563,1121.31 303.5,1122C 302.906,1122.46 302.239,1122.63 301.5,1122.5 Z"/></g>
<g><path style="opacity:0.004" fill="#f2fafe" d="M 982.5,1122.5 C 982.897,1121.47 983.563,1121.31 984.5,1122C 983.906,1122.46 983.239,1122.63 982.5,1122.5 Z"/></g>
<g><path style="opacity:0.004" fill="#f2fafe" d="M 307.5,1123.5 C 308.833,1124.17 308.833,1124.17 307.5,1123.5 Z"/></g>
<g><path style="opacity:0.004" fill="#f2fafe" d="M 315.5,1128.5 C 315.897,1127.47 316.563,1127.31 317.5,1128C 316.906,1128.46 316.239,1128.63 315.5,1128.5 Z"/></g>
<g><path style="opacity:0.004" fill="#f2fafe" d="M 968.5,1127.5 C 969.833,1128.17 969.833,1128.17 968.5,1127.5 Z"/></g>
<g><path style="opacity:0.004" fill="#f2fafe" d="M 321.5,1129.5 C 322.833,1130.17 322.833,1130.17 321.5,1129.5 Z"/></g>
<g><path style="opacity:0.004" fill="#f2fafe" d="M 953.5,1133.5 C 954.833,1134.17 954.833,1134.17 953.5,1133.5 Z"/></g>
<g><path style="opacity:0.004" fill="#f2fafe" d="M 338.5,1135.5 C 339.833,1136.17 339.833,1136.17 338.5,1135.5 Z"/></g>
<g><path style="opacity:0.004" fill="#f2fafe" d="M 355.5,1141.5 C 356.833,1142.17 356.833,1142.17 355.5,1141.5 Z"/></g>
<g><path style="opacity:0.004" fill="#f2fafe" d="M 925.5,1142.5 C 926.833,1143.17 926.833,1143.17 925.5,1142.5 Z"/></g>
<g><path style="opacity:0.004" fill="#f2fafe" d="M 384.5,1149.5 C 385.833,1150.17 385.833,1150.17 384.5,1149.5 Z"/></g>
<g><path style="opacity:0.004" fill="#f2fafe" d="M 897.5,1150.5 C 898.833,1151.17 898.833,1151.17 897.5,1150.5 Z"/></g>
<g><path style="opacity:0.004" fill="#f2fafe" d="M 892.5,1152.5 C 892.897,1151.47 893.563,1151.31 894.5,1152C 893.906,1152.46 893.239,1152.63 892.5,1152.5 Z"/></g>
</svg>
