<svg width="169" height="40" viewBox="0 0 169 40" fill="none" xmlns="http://www.w3.org/2000/svg">
<path d="M8.49969 31.1599C8.29969 31.3599 8.1997 31.6599 8.0997 31.8599C7.9997 32.1599 7.6997 32.2599 7.3997 32.2599C7.0997 32.2599 6.7997 32.1599 6.6997 31.8599C6.5997 31.6599 6.49969 31.4599 6.49969 31.2599C6.39969 29.4599 6.49969 27.7599 6.99969 26.0599C7.19969 25.2599 7.4997 24.5599 7.8997 23.8599C8.2997 23.1599 8.4997 22.3599 8.6997 21.4599C9.0997 18.8599 9.7997 16.3599 11.0997 14.1599C11.9997 12.5599 13.1997 11.4599 15.0997 11.1599C16.8997 10.9599 18.3997 11.5599 19.4997 13.0599C20.2997 14.1599 21.2997 15.0599 22.7997 15.3599C23.0997 15.4599 23.3997 15.5599 23.6997 15.7599C23.9997 15.9599 24.1997 16.1599 24.0997 16.5599C23.9997 16.9599 23.6997 17.0599 23.2997 17.0599C22.1997 17.0599 21.1997 17.0599 20.0997 17.0599C18.9997 17.0599 17.9997 17.1599 16.9997 17.5599C15.4997 18.1599 14.3997 19.1599 13.5997 20.5599C12.1997 23.0599 11.7997 25.8599 12.0997 28.6599C12.1997 30.1599 12.5997 31.5599 13.2997 32.8599C13.5997 33.4599 13.9997 33.9599 14.5997 34.3599C15.3997 34.8599 16.2997 34.7599 16.9997 34.1599C17.8997 33.3599 18.2997 32.3599 18.5997 31.3599C19.0997 29.6599 19.2997 27.8599 19.1997 26.0599C19.0997 24.7599 18.8997 23.5599 18.7997 22.2599C18.6997 21.7599 18.7997 21.2599 19.2997 20.9599C19.7997 20.6599 20.1997 20.6599 20.6997 20.9599C21.8997 21.6599 22.7997 22.7599 23.3997 23.9599C23.9997 25.2599 24.4997 26.5599 24.6997 27.9599C24.8997 29.2599 24.7997 30.4599 24.6997 31.7599C24.6997 32.1599 24.4997 32.3599 24.0997 32.4599C23.6997 32.5599 23.3997 32.3599 23.1997 31.9599C23.0997 31.7599 23.0997 31.3599 22.7997 31.3599C22.4997 31.3599 22.5997 31.7599 22.4997 32.0599C21.9997 33.5599 21.2997 35.0599 20.2997 36.3599C19.8997 36.9599 19.8997 37.1599 20.4997 37.6599C20.5997 37.7599 20.6997 37.7599 20.6997 37.8599C20.8997 38.0599 21.0997 38.3599 20.8997 38.6599C20.7997 38.9599 20.4997 39.0599 20.1997 39.0599C18.8997 38.9599 17.5997 38.9599 16.3997 38.8599C15.0997 38.7599 13.8997 38.9599 12.5997 38.9599C12.0997 38.9599 11.4997 39.0599 10.9997 39.0599C10.6997 39.0599 10.4997 38.9599 10.3997 38.6599C10.2997 38.3599 10.2997 38.0599 10.4997 37.8599C10.5997 37.7599 10.6997 37.6599 10.7997 37.5599C11.2997 37.1599 11.3997 36.8599 10.9997 36.2599C9.99969 34.9599 9.29969 33.4599 8.79969 31.8599C8.69969 31.5599 8.69969 31.3599 8.49969 31.1599Z" fill="#081C2E"/>
<path d="M0 17.5598C0 14.0598 1.10001 10.8598 3.20001 8.05981C4.50001 6.35981 6 4.95981 7.8 3.95981C8.2 3.75981 8.3 3.5598 8 3.1598C7.6 2.5598 7.40001 1.85981 7.10001 1.25981C6.90001 0.859811 7.1 0.559811 7.3 0.259811C7.6 -0.0401892 8.00001 -0.0401938 8.40001 0.0598062C8.70001 0.159806 8.8 0.359805 9 0.659805C9.3 1.2598 9.60001 1.85981 9.90001 2.35981C10.1 2.65981 10.2 2.7598 10.6 2.6598C13.2 1.6598 15.8 1.35981 18.5 1.75981C21.1 2.15981 23.4 2.95981 25.6 4.45981C26.2 4.85981 26.7 5.25981 27.2 5.75981C27.7 6.15981 27.6 6.75981 27.1 7.05981C26.9 7.15981 26.6 7.15981 26.4 7.05981C26 6.85981 25.8 6.55981 25.4 6.35981C23.6 5.55981 22 5.75981 20.4 6.95981C19.5 7.65981 19.2 8.65981 19.3 9.75981C19.3 10.1598 19.3 10.4598 19 10.7598C18.6 10.9598 18.3 10.8598 17.9 10.6598C16 9.6598 14.1 9.75981 12.3 10.9598C11.5 11.4598 10.7 12.0598 10.2 12.8598C9.80001 13.4598 9.5 13.9598 9.5 14.6598C9.5 14.9598 9.40001 15.2598 9.10001 15.3598C8.80001 15.4598 8.5 15.4598 8.3 15.2598C8 15.0598 7.8 14.8598 7.5 14.6598C6 13.7598 4.60001 13.9598 3.10001 15.1598C2.00001 16.0598 1.60001 17.2598 1.60001 18.5598C1.60001 18.9598 1.50001 19.2598 1.10001 19.3598C0.800006 19.4598 0.500012 19.3598 0.200012 19.1598C0.100012 19.0598 0 18.9598 0 18.7598C0 18.3598 0 17.9598 0 17.5598Z" fill="#359CF3"/>
<path d="M29.7999 33.6597C29.8999 35.6597 28.4999 37.4597 26.8999 38.0597C26.0999 38.3597 25.2999 38.2597 24.4999 38.1597C23.3999 37.9597 22.3999 37.3597 21.4999 36.7597C21.1999 36.5597 21.0999 36.2597 21.3999 35.9597C21.8999 35.3597 22.1999 34.7597 22.3999 34.0597C22.4999 33.7597 22.6999 33.7597 22.8999 33.9597C23.0999 34.2597 23.3999 34.5597 23.5999 34.8597C24.0999 35.5597 24.8999 35.7597 25.6999 35.5597C26.4999 35.3597 26.8999 34.7597 26.9999 34.0597C27.0999 33.5597 26.8999 33.0597 26.6999 32.6597C26.1999 31.6597 26.5999 30.7597 27.6999 30.5597C28.1999 30.4597 28.6999 30.6597 28.9999 31.0597C29.5999 31.7597 29.8999 32.6597 29.7999 33.6597Z" fill="#359CF3"/>
<path d="M44.1984 31.5598C43.9984 31.5598 43.7984 31.4598 43.5984 31.3598C43.3984 31.1598 43.3984 31.0598 43.3984 30.7598V12.3598H37.1984C36.9984 12.3598 36.7984 12.2598 36.5984 12.1598C36.3984 11.9598 36.3984 11.8598 36.3984 11.5598V9.05976C36.3984 8.85976 36.4984 8.65976 36.5984 8.45976C36.7984 8.25976 36.8984 8.25977 37.1984 8.25977H54.1984C54.3984 8.25977 54.5984 8.35976 54.7984 8.45976C54.9984 8.65976 54.9984 8.85976 54.9984 9.05976V11.5598C54.9984 11.7598 54.8984 11.9598 54.7984 12.1598C54.5984 12.3598 54.3984 12.3598 54.1984 12.3598H48.0984V30.7598C48.0984 30.9598 47.9984 31.1598 47.8984 31.3598C47.6984 31.5598 47.4984 31.5598 47.2984 31.5598H44.1984Z" fill="#359CF3"/>
<path d="M62.2992 31.8598C60.8992 31.8598 59.7992 31.5598 58.7992 30.9598C57.7992 30.3598 57.0992 29.4598 56.4992 28.3598C55.9992 27.2598 55.6992 25.8598 55.6992 24.3598V15.0598C55.6992 14.8598 55.7992 14.6598 55.8992 14.4598C56.0992 14.2598 56.1992 14.2598 56.4992 14.2598H59.3992C59.5992 14.2598 59.7992 14.3598 59.9992 14.4598C60.1992 14.6598 60.1992 14.7598 60.1992 15.0598V24.1598C60.1992 26.8598 61.3992 28.2598 63.7992 28.2598C64.9992 28.2598 65.8992 27.8598 66.4992 27.1598C67.1992 26.4598 67.4992 25.4598 67.4992 24.1598V15.0598C67.4992 14.8598 67.5992 14.6598 67.6992 14.4598C67.8992 14.2598 67.9992 14.2598 68.2992 14.2598H71.1992C71.3992 14.2598 71.5992 14.3598 71.7992 14.4598C71.9992 14.6598 71.9992 14.7598 71.9992 15.0598V30.7598C71.9992 30.9598 71.8992 31.1598 71.7992 31.3598C71.5992 31.5598 71.4992 31.5598 71.1992 31.5598H68.4992C68.2992 31.5598 68.0992 31.4598 67.8992 31.3598C67.7992 31.1598 67.6992 31.0598 67.6992 30.7598V29.3598C67.0992 30.1598 66.3992 30.7598 65.4992 31.1598C64.6992 31.6598 63.5992 31.8598 62.2992 31.8598Z" fill="#359CF3"/>
<path d="M75.8016 31.5599C75.6016 31.5599 75.4016 31.4599 75.3016 31.3599C75.2016 31.1599 75.1016 31.0599 75.1016 30.8599C75.1016 30.7599 75.1016 30.7599 75.1016 30.6599C75.1016 30.5599 75.2016 30.4599 75.3016 30.3599L81.0016 22.7599L75.7016 15.6599C75.6016 15.5599 75.6016 15.4599 75.5016 15.3599C75.5016 15.2599 75.5016 15.1599 75.5016 15.0599C75.5016 14.8599 75.6016 14.6599 75.7016 14.5599C75.9016 14.3599 76.0016 14.3599 76.2016 14.3599H79.1016C79.4016 14.3599 79.6016 14.4599 79.7016 14.5599C79.8016 14.6599 79.9016 14.8599 80.0016 14.9599L83.8016 19.9599L87.6016 14.9599C87.7016 14.8599 87.8015 14.7599 87.9016 14.5599C88.0016 14.4599 88.2016 14.3599 88.5016 14.3599H91.3016C91.5016 14.3599 91.7016 14.4599 91.8016 14.5599C92.0016 14.6599 92.0016 14.8599 92.0016 15.0599C92.0016 15.1599 92.0016 15.2599 91.9016 15.3599C91.9016 15.4599 91.8016 15.5599 91.8016 15.6599L86.5016 22.8599L92.2016 30.3599C92.3016 30.4599 92.3015 30.5599 92.4016 30.6599C92.4016 30.7599 92.5016 30.8599 92.5016 30.8599C92.5016 31.0599 92.4016 31.2599 92.3016 31.3599C92.2016 31.4599 92.0016 31.5599 91.8016 31.5599H88.8016C88.6016 31.5599 88.4016 31.4599 88.2016 31.3599C88.1016 31.2599 88.0016 31.0599 87.9016 30.9599L83.9016 25.6599L79.8016 30.9599C79.7016 31.0599 79.6016 31.1599 79.5016 31.3599C79.4016 31.4599 79.2016 31.5599 78.9016 31.5599H75.8016Z" fill="#359CF3"/>
<path d="M107.4 31.8599C105.3 31.8599 103.6 31.4599 102.1 30.7599C100.7 30.0599 99.6 28.9599 98.8 27.6599C98 26.2599 97.6 24.6599 97.5 22.7599C97.5 21.8599 97.5 20.8599 97.5 19.8599C97.5 18.8599 97.5 17.8599 97.5 16.8599C97.6 14.9599 98 13.3599 98.8 12.0599C99.6 10.6599 100.7 9.65986 102.1 8.95986C103.5 8.25986 105.3 7.85986 107.3 7.85986C108.8 7.85986 110.2 8.05986 111.4 8.45986C112.6 8.85986 113.6 9.45986 114.5 10.1599C115.3 10.8599 116 11.6599 116.5 12.5599C117 13.4599 117.2 14.4599 117.2 15.5599C117.2 15.7599 117.2 15.9599 117 16.0599C116.9 16.1599 116.7 16.2599 116.5 16.2599H113.3C113.1 16.2599 112.9 16.1599 112.7 16.0599C112.5 15.9599 112.4 15.7599 112.4 15.4599C112 13.9599 111.4 12.9599 110.6 12.4599C109.7 11.9599 108.7 11.6599 107.4 11.6599C105.9 11.6599 104.7 12.0599 103.8 12.9599C102.9 13.7599 102.4 15.1599 102.4 17.0599C102.3 18.8599 102.3 20.7599 102.4 22.6599C102.5 24.5599 102.9 25.9599 103.8 26.7599C104.7 27.5599 105.9 27.9599 107.4 27.9599C108.7 27.9599 109.8 27.6599 110.6 27.1599C111.5 26.5599 112.1 25.5599 112.4 24.1599C112.5 23.8599 112.6 23.6599 112.7 23.5599C112.9 23.4599 113.1 23.3599 113.3 23.3599H116.5C116.7 23.3599 116.9 23.4599 117 23.5599C117.2 23.6599 117.2 23.8599 117.2 24.0599C117.2 25.1599 116.9 26.1599 116.5 27.0599C116 27.9599 115.4 28.8599 114.5 29.5599C113.7 30.2599 112.6 30.7599 111.4 31.1599C110.2 31.6599 108.9 31.8599 107.4 31.8599Z" fill="#081C2E"/>
<path d="M125.799 31.8598C124.599 31.8598 123.599 31.6598 122.699 31.1598C121.799 30.6598 120.999 30.0598 120.499 29.3598C119.999 28.5598 119.699 27.7598 119.699 26.7598C119.699 25.1598 120.299 23.9598 121.599 23.0598C122.899 22.1598 124.499 21.4598 126.599 21.1598L131.199 20.4598V19.7598C131.199 18.8598 130.999 18.0598 130.499 17.5598C129.999 17.0598 129.199 16.7598 128.099 16.7598C127.299 16.7598 126.599 16.9598 126.099 17.2598C125.599 17.5598 125.199 17.9598 124.999 18.5598C124.799 18.8598 124.599 18.9598 124.199 18.9598H121.599C121.399 18.9598 121.199 18.8598 120.999 18.7598C120.899 18.6598 120.799 18.4598 120.799 18.2598C120.799 17.8598 120.999 17.4598 121.199 16.9598C121.499 16.4598 121.899 15.9598 122.499 15.4598C123.099 14.9598 123.799 14.5598 124.699 14.2598C125.599 13.9598 126.699 13.7598 127.999 13.7598C129.399 13.7598 130.599 13.9598 131.499 14.2598C132.499 14.5598 133.299 15.0598 133.799 15.6598C134.399 16.2598 134.799 16.9598 135.099 17.6598C135.399 18.4598 135.499 19.2598 135.499 20.1598V30.5598C135.499 30.7598 135.399 30.9598 135.299 31.1598C135.099 31.3598 134.999 31.3598 134.699 31.3598H131.999C131.799 31.3598 131.599 31.2598 131.399 31.1598C131.299 30.9598 131.199 30.8598 131.199 30.5598V29.4598C130.899 29.8598 130.499 30.2598 129.999 30.6598C129.499 31.0598 128.899 31.3598 128.199 31.5598C127.499 31.7598 126.699 31.8598 125.799 31.8598ZM126.899 28.7598C127.699 28.7598 128.399 28.5598 128.999 28.2598C129.599 27.9598 130.099 27.4598 130.499 26.7598C130.899 26.0598 131.099 25.1598 131.099 24.0598V23.3598L127.799 23.8598C126.499 24.0598 125.499 24.3598 124.899 24.8598C124.299 25.2598 123.899 25.8598 123.899 26.4598C123.899 26.9598 123.999 27.3598 124.299 27.7598C124.599 28.0598 124.999 28.3598 125.499 28.5598C125.899 28.6598 126.399 28.7598 126.899 28.7598Z" fill="#081C2E"/>
<path d="M140.499 31.5598C140.299 31.5598 140.099 31.4598 139.899 31.3598C139.699 31.1598 139.699 31.0598 139.699 30.7598V15.0598C139.699 14.8598 139.799 14.6598 139.899 14.4598C140.099 14.2598 140.199 14.2598 140.499 14.2598H143.199C143.399 14.2598 143.599 14.3598 143.799 14.4598C143.999 14.6598 144.099 14.8598 144.099 15.0598V16.4598C144.599 15.7598 145.299 15.1598 146.099 14.8598C146.899 14.4598 147.899 14.2598 148.899 14.2598H150.299C150.499 14.2598 150.699 14.3598 150.899 14.4598C151.099 14.6598 151.099 14.7598 151.099 15.0598V17.4598C151.099 17.6598 150.999 17.8598 150.899 18.0598C150.799 18.2598 150.599 18.2598 150.299 18.2598H147.599C146.499 18.2598 145.699 18.5598 145.099 19.1598C144.499 19.7598 144.199 20.5598 144.199 21.6598V30.7598C144.199 30.9598 144.099 31.1598 143.999 31.3598C143.799 31.5598 143.599 31.5598 143.399 31.5598H140.499Z" fill="#081C2E"/>
<path d="M160.802 31.86C158.302 31.86 156.402 31.16 154.902 29.76C153.502 28.36 152.702 26.36 152.602 23.66C152.602 23.46 152.602 23.16 152.602 22.86C152.602 22.46 152.602 22.26 152.602 22.06C152.702 20.36 153.102 18.96 153.702 17.76C154.402 16.56 155.302 15.56 156.502 14.96C157.702 14.26 159.102 13.96 160.702 13.96C162.502 13.96 164.002 14.36 165.202 15.06C166.402 15.76 167.302 16.86 168.002 18.16C168.602 19.46 168.902 20.96 168.902 22.76V23.46C168.902 23.66 168.802 23.86 168.702 24.06C168.502 24.26 168.302 24.26 168.102 24.26H157.102C157.102 24.26 157.102 24.26 157.102 24.36C157.102 24.46 157.102 24.46 157.102 24.56C157.102 25.36 157.302 26.06 157.502 26.76C157.802 27.36 158.202 27.96 158.702 28.36C159.302 28.76 159.902 28.96 160.702 28.96C161.302 28.96 161.802 28.86 162.302 28.66C162.702 28.46 163.102 28.26 163.302 27.96C163.602 27.76 163.802 27.56 163.902 27.36C164.102 27.06 164.302 26.96 164.402 26.86C164.502 26.76 164.702 26.76 165.002 26.76H167.902C168.102 26.76 168.302 26.86 168.402 26.96C168.602 27.06 168.602 27.26 168.602 27.46C168.602 27.86 168.402 28.26 168.002 28.76C167.702 29.26 167.202 29.76 166.502 30.26C165.902 30.76 165.002 31.16 164.102 31.46C163.202 31.76 162.102 31.86 160.802 31.86ZM157.202 21.36H164.602V21.26C164.602 20.36 164.502 19.66 164.202 18.96C163.902 18.36 163.502 17.76 162.902 17.46C162.302 17.06 161.702 16.86 160.902 16.86C160.102 16.86 159.502 17.06 158.902 17.46C158.302 17.86 157.902 18.36 157.602 18.96C157.302 19.66 157.202 20.46 157.202 21.36Z" fill="#081C2E"/>
</svg>
