<svg enable-background="new 0 0 200.2 97.4" viewBox="0 0 200.2 97.4" xmlns="http://www.w3.org/2000/svg"><g fill="#ea0000"><path d="m82.6 13.1c-1.5-1.3-3.8-2.1-6.2-2.1-5.6 0-10.2 4.4-10.2 10.2 0 5.6 4.6 10.1 10.2 10.1 3.2 0 5.9-1.3 7.8-3.5v-5.6c-1 1.7-3 4-4.8 4.7-.9.4-1.9.6-2.9.6-3.5 0-6.4-2.7-6.4-6.3 0-3.3 2.7-6.4 6.4-6.4 1.8 0 3.3.7 4.5 1.9s3.1 3.6 4 4.6c2.3 2.5 5.6 4 9.2 4 6.9 0 12.6-5.6 12.6-12.5-.2-7-5.8-12.8-12.8-12.8-4 0-7.6 2.1-9.9 5.1v7.5c1.8-4.8 5-8.6 9.9-8.6 4.8 0 8.7 3.9 8.6 8.7 0 4.8-3.9 8.6-8.6 8.6-2.1 0-4.1-.8-5.6-2.1-1.8-1.4-3.9-4.5-5.8-6.1"/><path d="m0 34.1h27.8v7.7s-1.4-3.1-4.4-3.1h-12.9v13.4h14v7.1s-.4-2.3-3.8-2.3h-10.2v18.3c0 2.7 2.9 4.3 2.9 4.3h-13.2s2.8-1.4 2.8-4.3v-36.4c0-3-3-4.7-3-4.7z"/><path d="m69.9 34.1h14.2s-3.2 1.5-3.2 4v42.6c0 14.4-14.4 16.8-15.2 16.7 1.2-.8 7.2-5.9 7.3-16.7v-42.6c0-2.4-3.1-4-3.1-4z"/><path d="m86.1 34.1h14.2s-3.2 1.5-3.2 4v37.1c0 2.7 3.2 4.3 3.2 4.3h-14.2s3.2-1.6 3.2-4.3v-37.1c-.1-2.5-3.2-4-3.2-4z"/><path d="m103.1 34.1h31.2l-2.7 8.3s-.8-3.5-3.8-3.5h-6.5v36.3c0 2.3 3.1 4.3 3.1 4.3h-13.9s3-1.8 3-4.3v-36.3h-7.8c-2.2 0-5.4 4.2-5.4 4.2z"/><path d="m186.5 34.1h13.7s-2.9 1.5-2.9 4v27.5c0 11.2-9.3 14.6-15.7 14.6s-16.4-3.5-16.4-14.6v-27.5c0-2.5-3-4-3-4h14.1s-3.1 1.5-3.1 4v27.5c0 5.9 3.9 9.7 8.4 9.7 4.6 0 8-4 8-9.7v-27.5c0-2.5-3.1-4-3.1-4z"/><path d="m53.5 34.1h13.9s-3 1.6-3 4.1v27.4c0 11.2-9.7 14.8-16.2 14.8-6.4 0-16.4-3.6-16.4-14.8v-27.4c0-2.5-2.8-4.1-2.8-4.1h14.1s-3.3 1.6-3.3 4.1v27.4c0 5.8 3.9 9.8 8.4 9.8 4.6 0 8.2-4.1 8.2-9.8v-27.4c.1-2.5-2.9-4.1-2.9-4.1z"/><path d="m158 41.4s-2-3.5-7.7-3.5-8.8 3-8.8 6.9c0 4.4 3.3 6.1 8.4 8.5 4.9 2.3 12.2 5.6 12.2 13.7 0 7.3-6.5 13.4-18.1 13.4-3.6 0-8.5-1.2-8.5-1.2l-2.7-8.7c2.5 2.4 6.8 4.9 11.3 4.9 4.6 0 10.2-2.9 10.2-7.5 0-8.9-20.7-7.4-20.7-22.3 0-5.1 3.6-12.5 15.9-12.5 4 0 8.5 1.2 8.5 1.2z"/></g></svg>