<?xml version="1.0" encoding="UTF-8"?>
<!DOCTYPE svg PUBLIC "-//W3C//DTD SVG 1.1//EN" "http://www.w3.org/Graphics/SVG/1.1/DTD/svg11.dtd">
<svg xmlns="http://www.w3.org/2000/svg" version="1.1" width="1280px" height="1280px" style="shape-rendering:geometricPrecision; text-rendering:geometricPrecision; image-rendering:optimizeQuality; fill-rule:evenodd; clip-rule:evenodd" xmlns:xlink="http://www.w3.org/1999/xlink">
<g><path style="opacity:0.987" fill="#f2fafe" d="M 255.5,33.5 C 346.729,95.8898 437.562,158.89 528,222.5C 529.233,258.15 529.9,293.816 530,329.5C 565.725,413.283 601.725,496.95 638,580.5C 639,575.167 640,575.167 641,580.5C 677.275,496.95 713.275,413.283 749,329.5C 749.333,298.5 749.667,267.5 750,236.5C 750.195,231.582 750.695,226.749 751.5,222C 841.724,158.777 932.224,95.9435 1023,33.5C 1086.57,69.0345 1149.74,105.201 1212.5,142C 1212.66,186.96 1212.49,232.127 1212,277.5C 1211.31,281.58 1210.31,285.58 1209,289.5C 1101.86,558.58 994.529,827.58 887,1096.5C 804.911,1153.09 722.411,1209.09 639.5,1264.5C 556.589,1209.09 474.089,1153.09 392,1096.5C 284.138,826.58 176.471,556.58 69,286.5C 68.2057,283.529 67.539,280.529 67,277.5C 66.5113,232.127 66.3447,186.96 66.5,142C 129.237,105.301 192.237,69.1341 255.5,33.5 Z M 250.5,116.5 C 251.873,116.343 253.207,116.51 254.5,117C 321.833,163.667 389.167,210.333 456.5,257C 413.833,283.667 371.167,310.333 328.5,337C 328.347,374.96 328.513,413.127 329,451.5C 396.915,596.327 465.081,740.994 533.5,885.5C 569.254,863.208 604.754,840.541 640,817.5C 640.333,796.833 640.667,776.167 641,755.5C 700.551,619.066 759.551,482.4 818,345.5C 819.301,316.882 819.967,288.215 820,259.5C 888.167,212 956.333,164.5 1024.5,117C 1028.11,116.792 1031.45,117.792 1034.5,120C 1067.5,139 1100.5,158 1133.5,177C 1073.67,222.833 1013.83,268.667 954,314.5C 953.493,352.507 953.493,390.507 954,428.5C 888.333,582.5 822.667,736.5 757,890.5C 755.403,893.219 753.237,895.386 750.5,897C 713.056,922.778 675.89,948.944 639,975.5C 637.032,1038.77 635.699,1102.11 635,1165.5C 634.825,1169.21 634.325,1172.88 633.5,1176.5C 571.678,1134.5 510.011,1092.34 448.5,1050C 345.196,790.42 241.696,530.92 138,271.5C 136.856,256.064 136.356,240.564 136.5,225C 136.833,210.5 137.167,196 137.5,181.5C 175.393,160.059 213.059,138.392 250.5,116.5 Z"/></g>
</svg>
