<?xml version="1.0" encoding="UTF-8"?>
<!DOCTYPE svg PUBLIC "-//W3C//DTD SVG 1.1//EN" "http://www.w3.org/Graphics/SVG/1.1/DTD/svg11.dtd">
<svg xmlns="http://www.w3.org/2000/svg" version="1.1" width="1280px" height="1280px" style="shape-rendering:geometricPrecision; text-rendering:geometricPrecision; image-rendering:optimizeQuality; fill-rule:evenodd; clip-rule:evenodd" xmlns:xlink="http://www.w3.org/1999/xlink">
<g><path style="opacity:0.976" fill="#f2fafe" d="M 255.5,33.5 C 346.729,95.8898 437.562,158.89 528,222.5C 529.233,258.15 529.9,293.816 530,329.5C 565.725,413.283 601.725,496.95 638,580.5C 639,575.167 640,575.167 641,580.5C 677.275,496.95 713.275,413.283 749,329.5C 749.333,298.5 749.667,267.5 750,236.5C 750.195,231.582 750.695,226.749 751.5,222C 841.724,158.777 932.224,95.9435 1023,33.5C 1086.57,69.0345 1149.74,105.201 1212.5,142C 1212.66,186.96 1212.49,232.127 1212,277.5C 1211.31,281.58 1210.31,285.58 1209,289.5C 1101.86,558.58 994.529,827.58 887,1096.5C 804.911,1153.09 722.411,1209.09 639.5,1264.5C 556.589,1209.09 474.089,1153.09 392,1096.5C 284.138,826.58 176.471,556.58 69,286.5C 68.2057,283.529 67.539,280.529 67,277.5C 66.5113,232.127 66.3447,186.96 66.5,142C 129.237,105.301 192.237,69.1341 255.5,33.5 Z M 250.5,116.5 C 251.873,116.343 253.207,116.51 254.5,117C 322.667,164.5 390.833,212 459,259.5C 459.333,286.833 459.667,314.167 460,341.5C 518.731,480.964 578.565,619.964 639.5,758.5C 700.435,619.964 760.269,480.964 819,341.5C 819.333,314.167 819.667,286.833 820,259.5C 888.445,211.214 957.278,163.547 1026.5,116.5C 1065.07,137.728 1103.4,159.395 1141.5,181.5C 1141.83,196 1142.17,210.5 1142.5,225C 1142.64,240.564 1142.14,256.064 1141,271.5C 1037.3,530.92 933.804,790.42 830.5,1050C 767.21,1093.98 703.544,1137.48 639.5,1180.5C 575.456,1137.48 511.79,1093.98 448.5,1050C 345.196,790.42 241.696,530.92 138,271.5C 136.856,256.064 136.356,240.564 136.5,225C 136.833,210.5 137.167,196 137.5,181.5C 175.393,160.059 213.059,138.392 250.5,116.5 Z"/></g>
</svg>
