<?xml version="1.0" encoding="UTF-8"?>
<!DOCTYPE svg PUBLIC "-//W3C//DTD SVG 1.1//EN" "http://www.w3.org/Graphics/SVG/1.1/DTD/svg11.dtd">
<svg xmlns="http://www.w3.org/2000/svg" version="1.1" width="1280px" height="1280px" style="shape-rendering:geometricPrecision; text-rendering:geometricPrecision; image-rendering:optimizeQuality; fill-rule:evenodd; clip-rule:evenodd" xmlns:xlink="http://www.w3.org/1999/xlink">
<g><path style="opacity:0.99" fill="#f2fafe" d="M 255.5,33.5 C 346.729,95.8898 437.562,158.89 528,222.5C 529.233,258.15 529.9,293.816 530,329.5C 565.725,413.283 601.725,496.95 638,580.5C 639,575.167 640,575.167 641,580.5C 677.275,496.95 713.275,413.283 749,329.5C 749.333,298.5 749.667,267.5 750,236.5C 750.195,231.582 750.695,226.749 751.5,222C 841.724,158.777 932.224,95.9435 1023,33.5C 1086.57,69.0345 1149.74,105.201 1212.5,142C 1212.66,186.96 1212.49,232.127 1212,277.5C 1211.31,281.58 1210.31,285.58 1209,289.5C 1101.86,558.58 994.529,827.58 887,1096.5C 804.911,1153.09 722.411,1209.09 639.5,1264.5C 556.589,1209.09 474.089,1153.09 392,1096.5C 284.138,826.58 176.471,556.58 69,286.5C 68.2057,283.529 67.539,280.529 67,277.5C 66.5113,232.127 66.3447,186.96 66.5,142C 129.237,105.301 192.237,69.1341 255.5,33.5 Z M 1141.5,189.5 C 1142.17,202.496 1142.5,215.662 1142.5,229C 1142.64,243.232 1142.14,257.399 1141,271.5C 1037.3,530.92 933.804,790.42 830.5,1050C 770.624,1091.53 710.457,1132.69 650,1173.5C 650.828,1110.18 651.828,1046.85 653,983.5C 690.833,957 728.667,930.5 766.5,904C 834.767,746.546 902.267,588.712 969,430.5C 969.167,427.167 969.333,423.833 969.5,420.5C 968.408,387.506 968.242,354.506 969,321.5C 1026.66,277.601 1084.16,233.601 1141.5,189.5 Z M 457.5,273.5 C 459.325,295.811 460.159,318.478 460,341.5C 514.218,470.15 569.218,598.484 625,726.5C 625.833,754.506 625.667,782.506 624.5,810.5C 596.401,828.298 568.234,845.965 540,863.5C 474.108,725.524 408.775,587.19 344,448.5C 343.333,413.833 343.333,379.167 344,344.5C 382.15,321.184 419.983,297.517 457.5,273.5 Z"/></g>
</svg>
