<?xml version="1.0" encoding="UTF-8"?>
<!DOCTYPE svg PUBLIC "-//W3C//DTD SVG 1.1//EN" "http://www.w3.org/Graphics/SVG/1.1/DTD/svg11.dtd">
<svg xmlns="http://www.w3.org/2000/svg" version="1.1" width="1280px" height="1280px" style="shape-rendering:geometricPrecision; text-rendering:geometricPrecision; image-rendering:optimizeQuality; fill-rule:evenodd; clip-rule:evenodd" xmlns:xlink="http://www.w3.org/1999/xlink">
<g><path style="opacity:0.944" fill="#f2fafe" d="M 782.5,85.5 C 802.818,98.4571 821.151,114.124 837.5,132.5C 838.512,133.872 839.512,135.205 840.5,136.5C 841.914,138.989 843.581,141.322 845.5,143.5C 906.586,131.572 967.586,120.405 1028.5,110C 1028.17,109.667 1027.83,109.333 1027.5,109C 1087.04,98.2543 1146.7,87.921 1206.5,78C 1206.17,77.6667 1205.83,77.3333 1205.5,77C 1210.84,76.5293 1216.18,76.0293 1221.5,75.5C 1221.5,424.502 1221.5,773.502 1221.5,1122.5C 1221.17,1123.17 1220.83,1123.83 1220.5,1124.5C 1209.77,1121.82 1198.77,1120.32 1187.5,1120C 1167.02,1116.25 1146.35,1113.08 1125.5,1110.5C 1120.18,1110.64 1115.85,1112.81 1112.5,1117C 1109.39,1118.27 1106.39,1119.77 1103.5,1121.5C 1102.7,1121.96 1102.37,1122.62 1102.5,1123.5C 1101.21,1123.26 1100.21,1123.6 1099.5,1124.5C 1086.64,1130.76 1072.97,1136.26 1058.5,1141C 1059.06,1141.38 1059.39,1141.88 1059.5,1142.5C 1052.38,1144.49 1045.38,1146.99 1038.5,1150C 1033.83,1152.34 1029.16,1154.68 1024.5,1157C 1025.06,1157.38 1025.39,1157.88 1025.5,1158.5C 1024.21,1158.26 1023.21,1158.6 1022.5,1159.5C 1019.54,1160.76 1016.54,1162.09 1013.5,1163.5C 1012.7,1163.96 1012.37,1164.62 1012.5,1165.5C 1009.62,1166.37 1006.96,1167.7 1004.5,1169.5C 1003.7,1169.96 1003.37,1170.62 1003.5,1171.5C 992.975,1177.02 984.308,1184.69 977.5,1194.5C 976.122,1195.55 975.122,1196.88 974.5,1198.5C 969.698,1203.43 965.365,1208.76 961.5,1214.5C 959.413,1215.58 958.08,1217.25 957.5,1219.5C 955.251,1220.08 953.585,1221.41 952.5,1223.5C 946.615,1227.6 940.948,1231.94 935.5,1236.5C 904.497,1252.77 870.497,1257.77 833.5,1251.5C 820.138,1247.29 808.138,1241.29 797.5,1233.5C 790.833,1227.5 784.5,1221.17 778.5,1214.5C 776.407,1209.98 774.074,1205.64 771.5,1201.5C 769.643,1197.06 768.476,1192.39 768,1187.5C 767.583,1186.24 766.75,1185.58 765.5,1185.5C 761.744,1182.85 757.577,1180.85 753,1179.5C 752.586,1179.96 752.086,1180.29 751.5,1180.5C 750.377,1179.46 749.044,1178.79 747.5,1178.5C 697.796,1167.15 647.629,1165.15 597,1172.5C 582.267,1175.74 568.267,1180.07 555,1185.5C 552.322,1186.73 550.155,1188.4 548.5,1190.5C 543.453,1192.19 538.787,1194.69 534.5,1198C 526.94,1205.63 519.273,1213.13 511.5,1220.5C 509.463,1221.85 507.463,1223.18 505.5,1224.5C 484.868,1238.62 462.035,1243.29 437,1238.5C 426.732,1236.8 416.566,1234.63 406.5,1232C 402.591,1230.62 398.757,1229.12 395,1227.5C 394.329,1228.25 393.496,1228.59 392.5,1228.5C 386.435,1224.51 379.769,1221.34 372.5,1219C 366.223,1215.69 360.056,1212.19 354,1208.5C 353.329,1209.25 352.496,1209.59 351.5,1209.5C 351.611,1208.88 351.944,1208.38 352.5,1208C 347.886,1206.19 343.219,1204.69 338.5,1203.5C 338.53,1202.5 338.03,1201.84 337,1201.5C 324.884,1197.3 312.551,1193.97 300,1191.5C 279.431,1188.8 258.931,1186.3 238.5,1184C 229.019,1181.36 219.685,1179.19 210.5,1177.5C 210.611,1176.88 210.944,1176.38 211.5,1176C 204.137,1173.5 197.137,1170.33 190.5,1166.5C 190.158,1165.66 189.492,1165.33 188.5,1165.5C 187.965,1163.55 186.632,1162.55 184.5,1162.5C 183.141,1160.25 180.808,1158.25 177.5,1156.5C 173.472,1152.14 169.472,1147.81 165.5,1143.5C 148.543,1120.29 148.21,1096.79 164.5,1073C 164.167,1072.67 163.833,1072.33 163.5,1072C 165.927,1069.75 166.927,1066.91 166.5,1063.5C 168.117,1062.41 168.95,1060.74 169,1058.5C 169.757,1046.98 169.591,1035.48 168.5,1024C 162.902,1008.35 161.069,991.512 163,973.5C 164.113,972.24 164.28,971.073 163.5,970C 129.641,964.513 94.4748,959.013 58,953.5C 57.586,953.957 57.086,954.291 56.5,954.5C 55.5,731.834 55.1667,509.168 55.5,286.5C 58.8981,286.858 62.0647,286.192 65,284.5C 65.772,284.645 66.4387,284.978 67,285.5C 72.7493,283.818 78.5826,282.318 84.5,281C 193.172,261.38 302.506,241.714 412.5,222C 412.167,221.667 411.833,221.333 411.5,221C 424.965,219.644 438.298,217.644 451.5,215C 462.986,211.977 474.653,209.477 486.5,207.5C 487.086,207.709 487.586,208.043 488,208.5C 490.515,201.245 492.682,194.245 494.5,187.5C 495.434,186.432 495.768,185.099 495.5,183.5C 496.117,183.611 496.617,183.944 497,184.5C 497.49,183.207 497.657,181.873 497.5,180.5C 500.063,176.83 502.063,172.83 503.5,168.5C 509.159,159.838 514.826,151.172 520.5,142.5C 523.19,140.807 525.19,138.473 526.5,135.5C 527.833,134.833 528.833,133.833 529.5,132.5C 530.833,131.833 531.833,130.833 532.5,129.5C 533.833,128.833 534.833,127.833 535.5,126.5C 542.4,121.941 548.733,116.608 554.5,110.5C 555.75,110.423 556.583,109.756 557,108.5C 558.107,109.712 558.607,109.379 558.5,107.5C 560.777,106.551 562.777,105.218 564.5,103.5C 571.798,99.0357 578.964,94.3691 586,89.5C 586.333,89.8333 586.667,90.1667 587,90.5C 595.224,85.0758 604.057,80.9091 613.5,78C 612.944,77.6174 612.611,77.1174 612.5,76.5C 616.34,76.6652 619.84,75.6652 623,73.5C 624.412,74.9227 625.579,74.756 626.5,73C 670.511,61.3672 714.511,61.7006 758.5,74C 758.167,74.3333 757.833,74.6667 757.5,75C 766.214,77.769 774.547,81.269 782.5,85.5 Z M 756.5,107.5 C 757.791,107.263 758.791,107.596 759.5,108.5C 761.179,108.285 762.179,108.952 762.5,110.5C 785.967,121.527 805.133,137.86 820,159.5C 820.483,160.448 820.649,161.448 820.5,162.5C 830.975,177.149 836.808,194.149 838,213.5C 838.333,213.167 838.667,212.833 839,212.5C 840.48,230.81 840.813,249.143 840,267.5C 837.597,288.536 835.264,309.536 833,330.5C 830.451,362.321 832.951,393.655 840.5,424.5C 844.642,437.595 849.642,450.262 855.5,462.5C 856.404,463.209 856.737,464.209 856.5,465.5C 857.117,465.389 857.617,465.056 858,464.5C 859.777,467.756 861.277,471.089 862.5,474.5C 864.446,475.035 865.446,476.368 865.5,478.5C 867.446,479.035 868.446,480.368 868.5,482.5C 873.199,486.874 877.199,491.874 880.5,497.5C 884.592,501.258 887.926,505.591 890.5,510.5C 891.878,511.545 892.878,512.878 893.5,514.5C 903.966,526.623 913.633,539.289 922.5,552.5C 923.338,552.842 923.672,553.508 923.5,554.5C 927.574,557.245 930.574,560.912 932.5,565.5C 935.75,568.929 938.917,572.596 942,576.5C 942.785,578.249 943.618,579.916 944.5,581.5C 947.493,586.783 950.493,592.116 953.5,597.5C 954.404,598.209 954.737,599.209 954.5,600.5C 956.255,601.962 957.588,603.795 958.5,606C 960.5,606.333 962.5,606.667 964.5,607C 968.131,610.785 971.131,614.951 973.5,619.5C 983.959,631.299 993.293,643.966 1001.5,657.5C 1002.36,658.688 1003.36,659.855 1004.5,661C 1004.17,661.333 1003.83,661.667 1003.5,662C 1005.67,663.174 1006.67,665.007 1006.5,667.5C 1007.38,667.369 1008.04,667.702 1008.5,668.5C 1011.35,674.603 1014.35,680.603 1017.5,686.5C 1035.5,724.397 1041,763.731 1034,804.5C 1033.31,805.025 1032.81,805.692 1032.5,806.5C 1033,807.716 1033.33,808.883 1033.5,810C 1033,810.5 1032.5,811 1032,811.5C 1029.49,827.392 1026.32,843.225 1022.5,859C 1021.49,865.146 1021.32,871.313 1022,877.5C 1023.97,881.094 1026.64,884.094 1030,886.5C 1039.71,889.969 1048.38,895.636 1056,903.5C 1061.43,911.966 1064.1,921.299 1064,931.5C 1065.74,940.622 1067.91,949.622 1070.5,958.5C 1071.12,958.389 1071.62,958.056 1072,957.5C 1072.49,958.793 1072.66,960.127 1072.5,961.5C 1073.4,962.209 1073.74,963.209 1073.5,964.5C 1075.05,964.821 1075.71,965.821 1075.5,967.5C 1076.4,968.209 1076.74,969.209 1076.5,970.5C 1077.38,970.369 1078.04,970.702 1078.5,971.5C 1079.91,974.54 1081.24,977.54 1082.5,980.5C 1084.38,980.393 1084.71,980.893 1083.5,982C 1085.67,983.174 1086.67,985.007 1086.5,987.5C 1088.02,987.511 1089.18,988.177 1090,989.5C 1091.51,991.862 1093.01,994.195 1094.5,996.5C 1097.21,999.208 1099.54,1002.21 1101.5,1005.5C 1102.88,1006.55 1103.88,1007.88 1104.5,1009.5C 1107.24,1011.98 1109.24,1014.98 1110.5,1018.5C 1113.57,1021.77 1115.23,1025.44 1115.5,1029.5C 1120.66,1040.27 1122.33,1051.61 1120.5,1063.5C 1119.05,1067.15 1117.39,1070.65 1115.5,1074C 1116.71,1075.11 1116.38,1075.61 1114.5,1075.5C 1112.44,1079.07 1109.78,1082.23 1106.5,1085C 1097.86,1090.82 1088.86,1095.98 1079.5,1100.5C 1077.49,1101.92 1075.15,1102.59 1072.5,1102.5C 1070.08,1104.53 1067.24,1106.2 1064,1107.5C 1059.7,1109.57 1055.2,1110.9 1050.5,1111.5C 1048.91,1113.82 1046.58,1114.82 1043.5,1114.5C 1043.29,1116.55 1042.46,1116.88 1041,1115.5C 1034.08,1119.15 1027.08,1122.82 1020,1126.5C 1018.56,1127.15 1017.06,1127.48 1015.5,1127.5C 1015.18,1129.05 1014.18,1129.71 1012.5,1129.5C 1007.4,1132.92 1001.73,1136.25 995.5,1139.5C 993.005,1142.23 990.005,1144.23 986.5,1145.5C 984.777,1147.22 982.777,1148.55 980.5,1149.5C 980.607,1151.38 980.107,1151.71 979,1150.5C 977.658,1152.75 975.824,1154.41 973.5,1155.5C 965.812,1162.52 958.479,1169.85 951.5,1177.5C 949.656,1181.19 947.323,1184.52 944.5,1187.5C 942.473,1190.6 940.307,1193.6 938,1196.5C 937.329,1197.25 936.496,1197.59 935.5,1197.5C 935.672,1198.49 935.338,1199.16 934.5,1199.5C 932.508,1200.83 930.508,1202.16 928.5,1203.5C 924.14,1208.35 918.806,1211.68 912.5,1213.5C 904.338,1218.09 895.504,1221.09 886,1222.5C 870.973,1224.73 855.973,1224.73 841,1222.5C 838.114,1221.15 835.114,1220.15 832,1219.5C 830.97,1219.16 830.47,1218.5 830.5,1217.5C 829.209,1217.74 828.209,1217.4 827.5,1216.5C 824.674,1216 822.34,1214.67 820.5,1212.5C 813.882,1208.88 808.548,1203.88 804.5,1197.5C 801.917,1196.02 800.584,1193.68 800.5,1190.5C 799.414,1190.38 798.747,1189.71 798.5,1188.5C 797.733,1179.88 794.733,1172.21 789.5,1165.5C 777.034,1155.19 762.867,1149.53 747,1148.5C 693.962,1135.93 640.462,1134.43 586.5,1144C 581.617,1145.25 576.784,1146.75 572,1148.5C 571.667,1148.17 571.333,1147.83 571,1147.5C 565.929,1149.48 560.762,1151.15 555.5,1152.5C 554.432,1153.43 553.099,1153.77 551.5,1153.5C 541.786,1158.87 532.119,1164.53 522.5,1170.5C 516.219,1174.78 510.219,1179.44 504.5,1184.5C 499.639,1192.37 492.973,1198.03 484.5,1201.5C 484.179,1203.05 483.179,1203.71 481.5,1203.5C 480.791,1204.4 479.791,1204.74 478.5,1204.5C 478.53,1205.5 478.03,1206.16 477,1206.5C 464.986,1209.48 452.819,1210.14 440.5,1208.5C 428.438,1206.21 416.438,1203.37 404.5,1200C 405.056,1199.62 405.389,1199.12 405.5,1198.5C 404.178,1198.33 403.011,1198.66 402,1199.5C 392.796,1195.48 383.629,1191.32 374.5,1187C 374.833,1186.67 375.167,1186.33 375.5,1186C 368.302,1183.4 361.302,1179.9 354.5,1175.5C 340.282,1170.89 325.949,1166.72 311.5,1163C 289.496,1159.62 267.496,1156.95 245.5,1155C 245.833,1154.67 246.167,1154.33 246.5,1154C 237.818,1152.99 229.318,1151.16 221,1148.5C 217.06,1147.12 213.56,1145.12 210.5,1142.5C 206.975,1141.24 203.975,1139.24 201.5,1136.5C 197.167,1134.17 193.833,1130.83 191.5,1126.5C 189.178,1125.2 187.845,1123.2 187.5,1120.5C 185.952,1120.18 185.285,1119.18 185.5,1117.5C 182.586,1112.69 181.752,1107.36 183,1101.5C 184.48,1096.94 186.48,1092.61 189,1088.5C 189.383,1089.06 189.883,1089.39 190.5,1089.5C 192.66,1083.54 194.827,1077.54 197,1071.5C 202.183,1049.96 201.517,1028.63 195,1007.5C 194.003,1001.54 193.337,995.539 193,989.5C 192.667,989.833 192.333,990.167 192,990.5C 191.585,978.508 194.918,966.842 202,955.5C 208.292,947.792 215.458,941.126 223.5,935.5C 234.9,924.948 248.9,918.281 265.5,915.5C 269.598,913.69 273.598,911.69 277.5,909.5C 281.594,906.059 285.927,903.059 290.5,900.5C 305.054,884.759 317.554,867.426 328,848.5C 334.503,811.641 340.503,774.641 346,737.5C 351.883,711.9 359.05,687.066 367.5,663C 367.836,661.97 368.503,661.47 369.5,661.5C 369.179,658.423 370.179,656.09 372.5,654.5C 374.804,645.596 378.471,637.263 383.5,629.5C 383.957,628.702 384.624,628.369 385.5,628.5C 389.419,619.001 395.085,610.668 402.5,603.5C 405.074,598.591 408.408,594.258 412.5,590.5C 413.792,587.599 415.792,585.266 418.5,583.5C 421.463,579.202 424.797,575.202 428.5,571.5C 435.118,562.548 442.451,554.215 450.5,546.5C 453.5,542.833 456.833,539.5 460.5,536.5C 465.386,530.736 470.719,525.403 476.5,520.5C 477.81,517.527 479.81,515.193 482.5,513.5C 485.995,507.749 489.329,502.416 492.5,497.5C 493.577,494.773 494.577,491.94 495.5,489C 495.836,487.97 496.503,487.47 497.5,487.5C 499.36,480.004 501.36,472.504 503.5,465C 504.041,461.172 504.541,457.339 505,453.5C 505.333,453.833 505.667,454.167 506,454.5C 510.293,419.343 511.626,384.009 510,348.5C 505.403,306.526 507.069,264.859 515,223.5C 516.513,217.46 518.346,211.46 520.5,205.5C 520.747,204.287 521.414,203.62 522.5,203.5C 522.586,202.504 522.252,201.671 521.5,201C 524.966,192.233 529.133,183.733 534,175.5C 537.462,169.554 541.629,164.22 546.5,159.5C 547.167,158.167 548.167,157.167 549.5,156.5C 552.118,152.548 555.451,149.215 559.5,146.5C 564.248,141.416 569.581,137.083 575.5,133.5C 580.071,129.202 585.071,125.369 590.5,122C 620.16,103.252 653.66,94.0853 691,94.5C 701.195,94.4965 711.361,94.9965 721.5,96C 733.404,98.8309 744.57,101.998 755,105.5C 756.03,105.836 756.53,106.503 756.5,107.5 Z M 967.5,560.5 C 963.794,557.114 960.794,553.114 958.5,548.5C 957.662,548.158 957.328,547.492 957.5,546.5C 953.456,543.78 950.456,540.113 948.5,535.5C 938.129,523.45 928.462,510.783 919.5,497.5C 917.554,496.965 916.554,495.632 916.5,493.5C 911.747,489.083 907.747,484.083 904.5,478.5C 900.408,474.742 897.074,470.409 894.5,465.5C 893.122,464.455 892.122,463.122 891.5,461.5C 888.759,459.025 886.759,456.025 885.5,452.5C 875.697,437.42 869.53,420.42 867,401.5C 866.667,401.833 866.333,402.167 866,402.5C 861.831,376.949 860.831,351.282 863,325.5C 863.333,325.833 863.667,326.167 864,326.5C 866.862,304.542 869.196,282.542 871,260.5C 871.667,250.833 871.667,241.167 871,231.5C 869.948,220.905 868.448,210.405 866.5,200C 867.044,199.283 867.711,198.783 868.5,198.5C 966.9,180.31 1064.9,162.643 1162.5,145.5C 1162.67,284.834 1162.5,424.167 1162,563.5C 1150.24,562.346 1138.41,562.179 1126.5,563C 1127.5,563.333 1128.5,563.667 1129.5,564C 1076.16,564.69 1024.33,566.523 974,569.5C 971.324,566.794 969.158,563.794 967.5,560.5 Z M 667.5,248.5 C 668.167,248.5 668.833,248.5 669.5,248.5C 669.5,250.5 668.5,251.5 666.5,251.5C 666.5,251.167 666.5,250.833 666.5,250.5C 667.338,250.158 667.672,249.492 667.5,248.5 Z M 466.5,478.5 C 465.134,486.24 461.468,492.573 455.5,497.5C 455.5,499.5 454.5,500.5 452.5,500.5C 452.5,502.5 451.5,503.5 449.5,503.5C 449.144,505.19 448.144,506.19 446.5,506.5C 446.144,508.19 445.144,509.19 443.5,509.5C 442.833,511.5 441.5,512.833 439.5,513.5C 435.149,519.515 430.149,524.849 424.5,529.5C 419.198,536.137 413.531,542.47 407.5,548.5C 401.862,556.799 395.528,564.466 388.5,571.5C 384.825,577.429 380.825,582.429 376.5,586.5C 375.952,588.394 374.952,590.06 373.5,591.5C 286.201,594.96 199.534,597.793 113.5,600C 114.832,512.196 114.832,424.363 113.5,336.5C 118.366,335.212 123.199,333.879 128,332.5C 128.561,333.022 129.228,333.355 130,333.5C 152.532,329.178 175.032,324.678 197.5,320C 262.712,308.685 327.045,297.018 390.5,285C 398.134,283.754 405.801,282.754 413.5,282C 413.167,281.667 412.833,281.333 412.5,281C 434.746,277.79 456.58,273.623 478,268.5C 478.667,275.5 478.667,282.5 478,289.5C 477.667,288.167 477.333,286.833 477,285.5C 476.833,290 476.667,294.5 476.5,299C 478.129,309.759 478.962,323.259 479,339.5C 479.667,367.167 479.667,394.833 479,422.5C 477.775,440.482 474.275,458.648 468.5,477C 468.164,478.03 467.497,478.53 466.5,478.5 Z M 731.5,396.5 C 732.75,396.577 733.583,397.244 734,398.5C 734.543,401.868 734.376,405.201 733.5,408.5C 722.528,414.206 711.862,420.372 701.5,427C 685.89,434.523 670.224,441.856 654.5,449C 625.649,457.615 598.316,453.281 572.5,436C 572.833,435.667 573.167,435.333 573.5,435C 566,429.5 559.5,423 554,415.5C 553.667,415.833 553.333,416.167 553,416.5C 552.363,414.697 551.197,413.364 549.5,412.5C 548.691,410.929 548.357,409.262 548.5,407.5C 545.683,403.985 546.35,400.985 550.5,398.5C 553.086,399.18 555.586,399.513 558,399.5C 567.323,407.656 576.156,416.323 584.5,425.5C 586.36,426.325 588.026,427.325 589.5,428.5C 600.352,435.556 612.352,439.556 625.5,440.5C 633.031,439.951 640.364,438.451 647.5,436C 652.897,432.97 658.563,430.47 664.5,428.5C 674.649,423.832 684.483,418.499 694,412.5C 694.333,412.833 694.667,413.167 695,413.5C 703.912,407.843 712.912,402.176 722,396.5C 725.269,397.818 728.435,397.818 731.5,396.5 Z M 1142.5,1011.5 C 1141.62,1011.63 1140.96,1011.3 1140.5,1010.5C 1138.13,1005.76 1135.79,1001.09 1133.5,996.5C 1131.55,995.965 1130.55,994.632 1130.5,992.5C 1124.57,985.83 1118.57,978.496 1112.5,970.5C 1110.03,968.409 1108.7,966.075 1108.5,963.5C 1107.6,962.791 1107.26,961.791 1107.5,960.5C 1106.62,960.631 1105.96,960.298 1105.5,959.5C 1098.17,947.313 1094.33,934.646 1094,921.5C 1093.67,921.833 1093.33,922.167 1093,922.5C 1092.22,914.665 1090.72,906.998 1088.5,899.5C 1086.39,898.216 1085.39,896.216 1085.5,893.5C 1083.95,893.179 1083.29,892.179 1083.5,890.5C 1080.4,885.956 1077.07,881.623 1073.5,877.5C 1071.18,876.413 1069.34,874.747 1068,872.5C 1066.89,873.712 1066.39,873.379 1066.5,871.5C 1063.62,870.63 1060.96,869.297 1058.5,867.5C 1057.7,867.043 1057.37,866.376 1057.5,865.5C 1056.21,865.737 1055.21,865.404 1054.5,864.5C 1051.66,864.798 1051.16,864.131 1053,862.5C 1057.7,839.572 1062.04,816.572 1066,793.5C 1066.67,777.167 1066.67,760.833 1066,744.5C 1064.34,733.722 1062.18,723.056 1059.5,712.5C 1053.92,695.823 1047.59,679.49 1040.5,663.5C 1039.62,663.631 1038.96,663.298 1038.5,662.5C 1035.51,655.812 1032.18,649.812 1028.5,644.5C 1027.75,643.264 1027.42,641.93 1027.5,640.5C 1026.17,640.5 1025.5,639.833 1025.5,638.5C 1020.51,631.872 1015.51,625.205 1010.5,618.5C 1007.81,615.467 1005.48,612.133 1003.5,608.5C 1002.69,607.531 1001.69,606.698 1000.5,606C 1011.5,605.667 1022.5,605.333 1033.5,605C 1032.83,604.667 1032.17,604.333 1031.5,604C 1075.6,603.109 1119.6,601.776 1163.5,600C 1162.5,752.097 1162.17,904.263 1162.5,1056.5C 1158.57,1055.47 1154.57,1054.81 1150.5,1054.5C 1150.59,1047.46 1150.09,1040.46 1149,1033.5C 1147.13,1026.03 1144.97,1018.69 1142.5,1011.5 Z M 345.5,635.5 C 345.414,636.496 345.748,637.329 346.5,638C 339.416,653.182 333.416,668.015 328.5,682.5C 323.176,703.782 318.176,725.615 313.5,748C 308.902,777.15 304.402,806.317 300,835.5C 299.158,838.689 297.825,841.689 296,844.5C 293.61,848.666 290.777,852.333 287.5,855.5C 284.409,862.934 279.743,869.267 273.5,874.5C 270.071,878.262 266.071,881.262 261.5,883.5C 260.571,884.315 259.571,885.148 258.5,886C 248.727,888.682 239.06,891.515 229.5,894.5C 229.179,896.048 228.179,896.715 226.5,896.5C 225.791,897.404 224.791,897.737 223.5,897.5C 218.118,901.71 212.451,905.71 206.5,909.5C 204.36,912.165 201.86,914.498 199,916.5C 170.633,911.477 142.133,906.977 113.5,903C 114.832,814.863 114.832,726.696 113.5,638.5C 191.788,635.92 270.622,632.587 350,628.5C 348.852,630.923 347.852,633.589 347,636.5C 346.617,635.944 346.117,635.611 345.5,635.5 Z M 516.5,955.5 C 517.833,956.167 518.833,957.167 519.5,958.5C 518.833,958.5 518.167,958.5 517.5,958.5C 517.5,957.833 517.167,957.5 516.5,957.5C 516.5,956.833 516.5,956.167 516.5,955.5 Z M 536.5,1083.5 C 537.833,1083.5 538.5,1084.17 538.5,1085.5C 537.833,1085.5 537.167,1085.5 536.5,1085.5C 536.5,1084.83 536.5,1084.17 536.5,1083.5 Z"/></g>
<g><path style="opacity:0.004" fill="#f2fafe" d="M 731.5,65.5 C 732.833,66.1667 732.833,66.1667 731.5,65.5 Z"/></g>
<g><path style="opacity:0.004" fill="#f2fafe" d="M 634.5,68.5 C 635.833,69.1667 635.833,69.1667 634.5,68.5 Z"/></g>
<g><path style="opacity:0.004" fill="#f2fafe" d="M 744.5,68.5 C 745.833,69.1667 745.833,69.1667 744.5,68.5 Z"/></g>
<g><path style="opacity:0.008" fill="#f2fafe" d="M 624.5,71.5 C 625.833,72.1667 625.833,72.1667 624.5,71.5 Z"/></g>
<g><path style="opacity:0.004" fill="#f2fafe" d="M 615.5,74.5 C 616.833,75.1667 616.833,75.1667 615.5,74.5 Z"/></g>
<g><path style="opacity:0.004" fill="#f2fafe" d="M 762.5,74.5 C 763.833,75.1667 763.833,75.1667 762.5,74.5 Z"/></g>
<g><path style="opacity:0.004" fill="#f2fafe" d="M 612.5,76.5 C 611.833,75.1667 611.833,75.1667 612.5,76.5 Z"/></g>
<g><path style="opacity:0.004" fill="#f2fafe" d="M 766.5,75.5 C 767.833,76.1667 767.833,76.1667 766.5,75.5 Z"/></g>
<g><path style="opacity:0.004" fill="#f2fafe" d="M 606.5,77.5 C 607.833,78.1667 607.833,78.1667 606.5,77.5 Z"/></g>
<g><path style="opacity:0.008" fill="#f2fafe" d="M 769.5,77.5 C 770.833,78.1667 770.833,78.1667 769.5,77.5 Z"/></g>
<g><path style="opacity:0.004" fill="#f2fafe" d="M 603.5,78.5 C 604.833,79.1667 604.833,79.1667 603.5,78.5 Z"/></g>
<g><path style="opacity:0.008" fill="#f2fafe" d="M 772.5,78.5 C 773.833,79.1667 773.833,79.1667 772.5,78.5 Z"/></g>
<g><path style="opacity:0.004" fill="#f2fafe" d="M 775.5,80.5 C 776.833,81.1667 776.833,81.1667 775.5,80.5 Z"/></g>
<g><path style="opacity:0.004" fill="#f2fafe" d="M 596.5,81.5 C 597.833,82.1667 597.833,82.1667 596.5,81.5 Z"/></g>
<g><path style="opacity:0.004" fill="#f2fafe" d="M 778.5,81.5 C 779.833,82.1667 779.833,82.1667 778.5,81.5 Z"/></g>
<g><path style="opacity:0.008" fill="#f2fafe" d="M 782.5,84.5 C 783.833,85.1667 783.833,85.1667 782.5,84.5 Z"/></g>
<g><path style="opacity:0.004" fill="#f2fafe" d="M 589.5,85.5 C 590.833,86.1667 590.833,86.1667 589.5,85.5 Z"/></g>
<g><path style="opacity:0.004" fill="#f2fafe" d="M 785.5,85.5 C 786.525,85.8966 786.692,86.5632 786,87.5C 785.536,86.9056 785.369,86.2389 785.5,85.5 Z"/></g>
<g><path style="opacity:0.012" fill="#f2fafe" d="M 586.5,87.5 C 587.833,88.1667 587.833,88.1667 586.5,87.5 Z"/></g>
<g><path style="opacity:0.008" fill="#f2fafe" d="M 789.5,88.5 C 788.833,87.1667 788.833,87.1667 789.5,88.5 Z"/></g>
<g><path style="opacity:0.004" fill="#f2fafe" d="M 583.5,88.5 C 584.833,89.1667 584.833,89.1667 583.5,88.5 Z"/></g>
<g><path style="opacity:0.004" fill="#f2fafe" d="M 789.5,88.5 C 790.239,88.369 790.906,88.5357 791.5,89C 790.563,89.6917 789.897,89.525 789.5,88.5 Z"/></g>
<g><path style="opacity:0.008" fill="#f2fafe" d="M 580.5,90.5 C 581.833,91.1667 581.833,91.1667 580.5,90.5 Z"/></g>
<g><path style="opacity:0.004" fill="#f2fafe" d="M 792.5,90.5 C 793.833,91.1667 793.833,91.1667 792.5,90.5 Z"/></g>
<g><path style="opacity:0.008" fill="#f2fafe" d="M 794.5,91.5 C 795.833,92.1667 795.833,92.1667 794.5,91.5 Z"/></g>
<g><path style="opacity:0.012" fill="#f2fafe" d="M 576.5,93.5 C 577.833,94.1667 577.833,94.1667 576.5,93.5 Z"/></g>
<g><path style="opacity:0.004" fill="#f2fafe" d="M 798.5,94.5 C 797.833,93.1667 797.833,93.1667 798.5,94.5 Z"/></g>
<g><path style="opacity:0.004" fill="#f2fafe" d="M 573.5,94.5 C 574.833,95.1667 574.833,95.1667 573.5,94.5 Z"/></g>
<g><path style="opacity:0.012" fill="#f2fafe" d="M 798.5,94.5 C 799.833,95.1667 799.833,95.1667 798.5,94.5 Z"/></g>
<g><path style="opacity:0.004" fill="#f2fafe" d="M 571.5,96.5 C 572.833,97.1667 572.833,97.1667 571.5,96.5 Z"/></g>
<g><path style="opacity:0.004" fill="#f2fafe" d="M 801.5,96.5 C 802.833,97.1667 802.833,97.1667 801.5,96.5 Z"/></g>
<g><path style="opacity:0.004" fill="#f2fafe" d="M 568.5,98.5 C 568.897,97.475 569.563,97.3083 570.5,98C 569.906,98.4643 569.239,98.631 568.5,98.5 Z"/></g>
<g><path style="opacity:0.004" fill="#f2fafe" d="M 804.5,98.5 C 803.833,97.1667 803.833,97.1667 804.5,98.5 Z"/></g>
<g><path style="opacity:0.006" fill="#f2fafe" d="M 568.5,98.5 C 569.239,98.631 569.906,98.4643 570.5,98C 569.563,97.3083 568.897,97.475 568.5,98.5 Z"/></g>
<g><path style="opacity:0.006" fill="#f2fafe" d="M 804.5,98.5 C 805.525,98.8966 805.692,99.5632 805,100.5C 804.536,99.9056 804.369,99.2389 804.5,98.5 Z"/></g>
<g><path style="opacity:0.008" fill="#f2fafe" d="M 564.5,100.5 C 565.833,101.167 565.833,101.167 564.5,100.5 Z"/></g>
<g><path style="opacity:0.004" fill="#f2fafe" d="M 808.5,101.5 C 807.833,100.167 807.833,100.167 808.5,101.5 Z"/></g>
<g><path style="opacity:0.004" fill="#f2fafe" d="M 564.5,101.5 C 564.5,102.167 564.5,102.833 564.5,103.5C 563.167,102.833 563.167,102.167 564.5,101.5 Z"/></g>
<g><path style="opacity:0.004" fill="#f2fafe" d="M 808.5,101.5 C 809.833,102.167 809.833,102.167 808.5,101.5 Z"/></g>
<g><path style="opacity:0.004" fill="#f2fafe" d="M 560.5,103.5 C 561.833,104.167 561.833,104.167 560.5,103.5 Z"/></g>
<g><path style="opacity:0.012" fill="#f2fafe" d="M 811.5,104.5 C 810.833,103.167 810.833,103.167 811.5,104.5 Z"/></g>
<g><path style="opacity:0.004" fill="#f2fafe" d="M 558.5,104.5 C 559.833,105.167 559.833,105.167 558.5,104.5 Z"/></g>
<g><path style="opacity:0.008" fill="#f2fafe" d="M 811.5,104.5 C 812.833,105.167 812.833,105.167 811.5,104.5 Z"/></g>
<g><path style="opacity:0.012" fill="#f2fafe" d="M 558.5,107.5 C 557.833,106.167 557.833,106.167 558.5,107.5 Z"/></g>
<g><path style="opacity:0.012" fill="#f2fafe" d="M 813.5,106.5 C 814.833,107.167 814.833,107.167 813.5,106.5 Z"/></g>
<g><path style="opacity:0.004" fill="#f2fafe" d="M 554.5,107.5 C 555.833,108.167 555.833,108.167 554.5,107.5 Z"/></g>
<g><path style="opacity:0.004" fill="#f2fafe" d="M 552.5,110.5 C 553.167,109.167 553.833,109.167 554.5,110.5C 553.833,110.5 553.167,110.5 552.5,110.5 Z"/></g>
<g><path style="opacity:0.004" fill="#f2fafe" d="M 817.5,109.5 C 818.833,110.167 818.833,110.167 817.5,109.5 Z"/></g>
<g><path style="opacity:0.012" fill="#f2fafe" d="M 552.5,110.5 C 551.833,111.167 551.833,111.167 552.5,110.5 Z"/></g>
<g><path style="opacity:0.004" fill="#f2fafe" d="M 819.5,110.5 C 820.833,111.167 820.833,111.167 819.5,110.5 Z"/></g>
<g><path style="opacity:0.004" fill="#f2fafe" d="M 548.5,112.5 C 549.833,113.167 549.833,113.167 548.5,112.5 Z"/></g>
<g><path style="opacity:0.008" fill="#f2fafe" d="M 821.5,113.5 C 820.833,112.167 820.833,112.167 821.5,113.5 Z"/></g>
<g><path style="opacity:0.004" fill="#f2fafe" d="M 548.5,113.5 C 547.833,114.167 547.833,114.167 548.5,113.5 Z"/></g>
<g><path style="opacity:0.004" fill="#f2fafe" d="M 821.5,113.5 C 822.492,113.328 823.158,113.662 823.5,114.5C 822.508,114.672 821.842,114.338 821.5,113.5 Z"/></g>
<g><path style="opacity:0.004" fill="#f2fafe" d="M 545.5,116.5 C 545.369,115.761 545.536,115.094 546,114.5C 546.692,115.437 546.525,116.103 545.5,116.5 Z"/></g>
<g><path style="opacity:0.006" fill="#f2fafe" d="M 823.5,114.5 C 824.338,114.842 824.672,115.508 824.5,116.5C 823.662,116.158 823.328,115.492 823.5,114.5 Z"/></g>
<g><path style="opacity:0.016" fill="#f2fafe" d="M 545.5,116.5 C 544.833,117.167 544.833,117.167 545.5,116.5 Z"/></g>
<g><path style="opacity:0.006" fill="#f2fafe" d="M 824.5,116.5 C 825.492,116.328 826.158,116.662 826.5,117.5C 825.508,117.672 824.842,117.338 824.5,116.5 Z"/></g>
<g><path style="opacity:0.004" fill="#f2fafe" d="M 542.5,117.5 C 543.525,117.897 543.692,118.563 543,119.5C 542.536,118.906 542.369,118.239 542.5,117.5 Z"/></g>
<g><path style="opacity:0.004" fill="#f2fafe" d="M 826.5,117.5 C 827.338,117.842 827.672,118.508 827.5,119.5C 826.662,119.158 826.328,118.492 826.5,117.5 Z"/></g>
<g><path style="opacity:0.008" fill="#f2fafe" d="M 827.5,119.5 C 828.833,120.167 828.833,120.167 827.5,119.5 Z"/></g>
<g><path style="opacity:0.004" fill="#f2fafe" d="M 538.5,120.5 C 539.833,121.167 539.833,121.167 538.5,120.5 Z"/></g>
<g><path style="opacity:0.004" fill="#f2fafe" d="M 829.5,120.5 C 830.833,121.167 830.833,121.167 829.5,120.5 Z"/></g>
<g><path style="opacity:0.004" fill="#f2fafe" d="M 536.5,123.5 C 536.897,122.475 537.563,122.308 538.5,123C 537.906,123.464 537.239,123.631 536.5,123.5 Z"/></g>
<g><path style="opacity:0.008" fill="#f2fafe" d="M 830.5,122.5 C 831.833,123.167 831.833,123.167 830.5,122.5 Z"/></g>
<g><path style="opacity:0.008" fill="#f2fafe" d="M 536.5,123.5 C 535.833,124.167 535.833,124.167 536.5,123.5 Z"/></g>
<g><path style="opacity:0.004" fill="#f2fafe" d="M 832.5,123.5 C 833.833,124.167 833.833,124.167 832.5,123.5 Z"/></g>
<g><path style="opacity:0.006" fill="#f2fafe" d="M 533.5,126.5 C 534.167,125.167 534.833,125.167 535.5,126.5C 534.833,126.5 534.167,126.5 533.5,126.5 Z"/></g>
<g><path style="opacity:0.004" fill="#f2fafe" d="M 833.5,125.5 C 834.833,126.167 834.833,126.167 833.5,125.5 Z"/></g>
<g><path style="opacity:0.008" fill="#f2fafe" d="M 533.5,126.5 C 532.833,127.167 532.833,127.167 533.5,126.5 Z"/></g>
<g><path style="opacity:0.008" fill="#f2fafe" d="M 532.5,129.5 C 531.833,128.167 531.833,128.167 532.5,129.5 Z"/></g>
<g><path style="opacity:0.012" fill="#f2fafe" d="M 529.5,129.5 C 530.833,130.167 530.833,130.167 529.5,129.5 Z"/></g>
<g><path style="opacity:0.016" fill="#f2fafe" d="M 836.5,129.5 C 837.833,130.167 837.833,130.167 836.5,129.5 Z"/></g>
<g><path style="opacity:0.006" fill="#f2fafe" d="M 529.5,130.5 C 529.5,131.167 529.5,131.833 529.5,132.5C 528.167,131.833 528.167,131.167 529.5,130.5 Z"/></g>
<g><path style="opacity:0.004" fill="#f2fafe" d="M 837.5,132.5 C 838.167,131.167 838.833,131.167 839.5,132.5C 838.833,132.5 838.167,132.5 837.5,132.5 Z"/></g>
<g><path style="opacity:0.008" fill="#f2fafe" d="M 526.5,132.5 C 527.833,133.167 527.833,133.167 526.5,132.5 Z"/></g>
<g><path style="opacity:0.008" fill="#f2fafe" d="M 839.5,132.5 C 840.833,133.167 840.833,133.167 839.5,132.5 Z"/></g>
<g><path style="opacity:0.004" fill="#f2fafe" d="M 526.5,133.5 C 526.5,134.167 526.5,134.833 526.5,135.5C 525.167,134.833 525.167,134.167 526.5,133.5 Z"/></g>
<g><path style="opacity:0.004" fill="#f2fafe" d="M 523.5,135.5 C 524.833,136.167 524.833,136.167 523.5,135.5 Z"/></g>
<g><path style="opacity:0.006" fill="#f2fafe" d="M 840.5,136.5 C 841.167,135.167 841.833,135.167 842.5,136.5C 841.833,136.5 841.167,136.5 840.5,136.5 Z"/></g>
<g><path style="opacity:0.004" fill="#f2fafe" d="M 523.5,136.5 C 522.833,137.167 522.833,137.167 523.5,136.5 Z"/></g>
<g><path style="opacity:0.004" fill="#f2fafe" d="M 842.5,136.5 C 843.833,137.167 843.833,137.167 842.5,136.5 Z"/></g>
<g><path style="opacity:0.004" fill="#f2fafe" d="M 520.5,138.5 C 521.833,139.167 521.833,139.167 520.5,138.5 Z"/></g>
<g><path style="opacity:0.004" fill="#f2fafe" d="M 843.5,138.5 C 844.833,139.167 844.833,139.167 843.5,138.5 Z"/></g>
<g><path style="opacity:0.004" fill="#f2fafe" d="M 857.5,138.5 C 858.833,139.167 858.833,139.167 857.5,138.5 Z"/></g>
<g><path style="opacity:0.004" fill="#f2fafe" d="M 520.5,142.5 C 519.833,141.167 519.833,141.167 520.5,142.5 Z"/></g>
<g><path style="opacity:0.006" fill="#f2fafe" d="M 519.5,142.5 C 519.103,143.525 518.437,143.692 517.5,143C 518.094,142.536 518.761,142.369 519.5,142.5 Z"/></g>
<g><path style="opacity:0.008" fill="#f2fafe" d="M 516.5,144.5 C 517.833,145.167 517.833,145.167 516.5,144.5 Z"/></g>
<g><path style="opacity:0.004" fill="#f2fafe" d="M 516.5,145.5 C 515.833,146.167 515.833,146.167 516.5,145.5 Z"/></g>
<g><path style="opacity:0.012" fill="#f2fafe" d="M 513.5,148.5 C 514.833,149.167 514.833,149.167 513.5,148.5 Z"/></g>
<g><path style="opacity:0.004" fill="#f2fafe" d="M 513.5,149.5 C 513.631,150.239 513.464,150.906 513,151.5C 512.308,150.563 512.475,149.897 513.5,149.5 Z"/></g>
<g><path style="opacity:0.004" fill="#f2fafe" d="M 510.5,152.5 C 511.833,153.167 511.833,153.167 510.5,152.5 Z"/></g>
<g><path style="opacity:0.008" fill="#f2fafe" d="M 509.5,154.5 C 510.833,155.167 510.833,155.167 509.5,154.5 Z"/></g>
<g><path style="opacity:0.008" fill="#f2fafe" d="M 507.5,157.5 C 508.833,158.167 508.833,158.167 507.5,157.5 Z"/></g>
<g><path style="opacity:0.004" fill="#f2fafe" d="M 507.5,158.5 C 506.833,159.167 506.833,159.167 507.5,158.5 Z"/></g>
<g><path style="opacity:0.004" fill="#f2fafe" d="M 504.5,161.5 C 505.833,162.167 505.833,162.167 504.5,161.5 Z"/></g>
<g><path style="opacity:0.012" fill="#f2fafe" d="M 503.5,164.5 C 504.833,165.167 504.833,165.167 503.5,164.5 Z"/></g>
<g><path style="opacity:0.004" fill="#f2fafe" d="M 503.5,168.5 C 502.833,167.167 502.833,167.167 503.5,168.5 Z"/></g>
<g><path style="opacity:0.004" fill="#f2fafe" d="M 497.5,180.5 C 496.833,179.167 496.833,179.167 497.5,180.5 Z"/></g>
<g><path style="opacity:0.004" fill="#f2fafe" d="M 495.5,183.5 C 494.833,182.167 494.833,182.167 495.5,183.5 Z"/></g>
<g><path style="opacity:0.004" fill="#f2fafe" d="M 494.5,187.5 C 493.833,186.167 493.833,186.167 494.5,187.5 Z"/></g>
<g><path style="opacity:0.004" fill="#f2fafe" d="M 491.5,189.5 C 492.833,190.167 492.833,190.167 491.5,189.5 Z"/></g>
<g><path style="opacity:0.008" fill="#f2fafe" d="M 490.5,193.5 C 491.833,194.167 491.833,194.167 490.5,193.5 Z"/></g>
<g><path style="opacity:0.004" fill="#f2fafe" d="M 487.5,202.5 C 488.833,203.167 488.833,203.167 487.5,202.5 Z"/></g>
<g><path style="opacity:0.945" fill="#f2fafe" d="M 744.5,241.5 C 756.153,251.234 763.653,263.568 767,278.5C 767.383,277.944 767.883,277.611 768.5,277.5C 771.112,294.174 771.112,310.841 768.5,327.5C 767.883,327.389 767.383,327.056 767,326.5C 766.564,328.847 766.064,331.181 765.5,333.5C 761.644,342.645 757.644,351.645 753.5,360.5C 752.761,360.369 752.094,360.536 751.5,361C 752.252,361.671 752.586,362.504 752.5,363.5C 751.883,363.389 751.383,363.056 751,362.5C 749.692,364.641 748.192,366.641 746.5,368.5C 740.92,365.092 734.586,362.425 727.5,360.5C 727.751,350.491 728.251,340.491 729,330.5C 729.944,329.737 730.444,328.737 730.5,327.5C 728.878,322.317 728.045,316.984 728,311.5C 726.061,303.954 723.728,296.954 721,290.5C 718.667,286.833 715.667,283.833 712,281.5C 709,282.833 706,282.833 703,281.5C 698.837,284.83 695.004,288.496 691.5,292.5C 687.745,299.247 684.078,306.081 680.5,313C 678.124,321.106 676.124,329.272 674.5,337.5C 672.372,336.043 670.038,335.043 667.5,334.5C 667.586,333.504 667.252,332.671 666.5,332C 656.59,326.621 645.923,324.121 634.5,324.5C 636.313,313.776 638.646,303.109 641.5,292.5C 646.499,280.152 652.832,268.486 660.5,257.5C 662.5,257.5 663.5,256.5 663.5,254.5C 665.5,254.5 666.5,253.5 666.5,251.5C 668.5,251.5 669.5,250.5 669.5,248.5C 675.387,244.082 681.387,240.582 687.5,238C 686.944,237.617 686.611,237.117 686.5,236.5C 687.496,236.414 688.329,236.748 689,237.5C 700.141,231.938 711.975,230.104 724.5,232C 728.046,233.517 731.712,234.85 735.5,236C 738.397,238.883 741.397,240.716 744.5,241.5 Z"/></g>
<g><path style="opacity:0.921" fill="#f2fafe" d="M 581.5,244.5 C 582.209,245.404 583.209,245.737 584.5,245.5C 584.821,247.048 585.821,247.715 587.5,247.5C 593.141,250.976 597.641,255.643 601,261.5C 601.383,260.944 601.883,260.611 602.5,260.5C 602.263,261.791 602.596,262.791 603.5,263.5C 604.572,266.991 605.906,270.824 607.5,275C 607.836,276.03 608.503,276.53 609.5,276.5C 612.213,286.61 614.213,296.944 615.5,307.5C 614.011,314.08 613.178,320.746 613,327.5C 606.06,330.501 598.894,334.167 591.5,338.5C 592.278,325.143 589.611,312.643 583.5,301C 579.42,293.908 573.586,289.075 566,286.5C 560.211,287.955 556.878,291.621 556,297.5C 554.964,307.502 553.464,316.669 551.5,325C 553.01,338.916 556.344,353.083 561.5,367.5C 557.473,369.547 553.473,371.547 549.5,373.5C 548.943,370.95 547.61,368.95 545.5,367.5C 540.707,358.713 536.374,349.213 532.5,339C 532.164,337.97 531.497,337.47 530.5,337.5C 528.49,329.625 526.99,321.625 526,313.5C 525.667,313.833 525.333,314.167 525,314.5C 524.148,303.537 524.981,292.704 527.5,282C 530.033,275.717 532.7,269.551 535.5,263.5C 540.114,256.553 545.447,250.22 551.5,244.5C 555.78,242.095 560.446,241.095 565.5,241.5C 571.12,241.241 576.454,242.241 581.5,244.5 Z"/></g>
<g><path style="opacity:0.945" fill="#f2fafe" d="M 680.5,352.5 C 687.628,355.961 694.961,359.127 702.5,362C 714.62,364.359 726.62,367.359 738.5,371C 738.167,371.333 737.833,371.667 737.5,372C 748.217,377.524 756.55,385.524 762.5,396C 763.884,401.213 763.717,406.38 762,411.5C 757.093,420.234 750.927,427.901 743.5,434.5C 741.567,434.729 739.9,435.562 738.5,437C 737.748,437.671 737.414,438.504 737.5,439.5C 730.137,443.356 722.804,447.522 715.5,452C 708.859,454.392 702.526,457.225 696.5,460.5C 685.853,465.604 675.519,471.27 665.5,477.5C 643.435,484.802 621.769,484.135 600.5,475.5C 596.028,471.199 591.361,467.032 586.5,463C 584.975,461.991 583.308,461.491 581.5,461.5C 581.631,460.761 581.464,460.094 581,459.5C 575.379,454.283 569.213,449.95 562.5,446.5C 561.543,443.832 559.543,442.332 556.5,442C 556.833,441.667 557.167,441.333 557.5,441C 553,437.167 548.833,433 545,428.5C 540.609,423.596 536.942,417.596 534,410.5C 532.838,404.461 533.672,398.795 536.5,393.5C 541.259,388.103 546.593,384.27 552.5,382C 554.837,380.366 556.837,378.533 558.5,376.5C 560.973,376.912 562.306,375.912 562.5,373.5C 565.462,373.045 568.129,371.879 570.5,370C 577.404,364.581 583.738,358.748 589.5,352.5C 604.771,335.205 624.437,328.372 648.5,332C 657.29,334.605 664.956,339.605 671.5,347C 674.528,348.844 677.528,350.678 680.5,352.5 Z M 731.5,396.5 C 732.75,396.577 733.583,397.244 734,398.5C 734.543,401.868 734.376,405.201 733.5,408.5C 722.528,414.206 711.862,420.372 701.5,427C 685.89,434.523 670.224,441.856 654.5,449C 625.649,457.615 598.316,453.281 572.5,436C 572.833,435.667 573.167,435.333 573.5,435C 566,429.5 559.5,423 554,415.5C 553.667,415.833 553.333,416.167 553,416.5C 552.363,414.697 551.197,413.364 549.5,412.5C 548.691,410.929 548.357,409.262 548.5,407.5C 545.683,403.985 546.35,400.985 550.5,398.5C 553.086,399.18 555.586,399.513 558,399.5C 567.323,407.656 576.156,416.323 584.5,425.5C 586.36,426.325 588.026,427.325 589.5,428.5C 600.352,435.556 612.352,439.556 625.5,440.5C 633.031,439.951 640.364,438.451 647.5,436C 652.897,432.97 658.563,430.47 664.5,428.5C 674.649,423.832 684.483,418.499 694,412.5C 694.333,412.833 694.667,413.167 695,413.5C 703.912,407.843 712.912,402.176 722,396.5C 725.269,397.818 728.435,397.818 731.5,396.5 Z"/></g>
<g><path style="opacity:0.99" fill="#f2fafe" d="M 759.5,427.5 C 762.188,427.166 764.521,427.832 766.5,429.5C 772.797,449.757 778.297,470.424 783,491.5C 783.383,490.944 783.883,490.611 784.5,490.5C 784.67,491.822 784.337,492.989 783.5,494C 786.824,503.811 790.824,513.311 795.5,522.5C 795.706,525.238 796.706,527.572 798.5,529.5C 798.285,531.179 798.952,532.179 800.5,532.5C 800.586,533.496 800.252,534.329 799.5,535C 805.815,548.632 812.148,562.298 818.5,576C 818.836,577.03 819.503,577.53 820.5,577.5C 822.511,583.362 825.011,589.029 828,594.5C 828.383,593.944 828.883,593.611 829.5,593.5C 829.031,596.393 830.031,598.393 832.5,599.5C 832.329,601.993 833.329,603.826 835.5,605C 835.167,605.333 834.833,605.667 834.5,606C 835.732,608.641 837.398,610.807 839.5,612.5C 839.421,613.93 839.754,615.264 840.5,616.5C 841.824,618.942 843.491,620.942 845.5,622.5C 845.687,624.564 846.187,626.564 847,628.5C 847.333,628.167 847.667,627.833 848,627.5C 848.423,630.133 849.59,632.299 851.5,634C 851.167,634.333 850.833,634.667 850.5,635C 851.732,637.641 853.398,639.807 855.5,641.5C 855.263,642.791 855.596,643.791 856.5,644.5C 856.285,646.179 856.952,647.179 858.5,647.5C 858.263,648.791 858.596,649.791 859.5,650.5C 859.285,652.179 859.952,653.179 861.5,653.5C 861.263,654.791 861.596,655.791 862.5,656.5C 863.717,660.362 865.384,664.029 867.5,667.5C 866.019,668.944 866.352,669.611 868.5,669.5C 871.171,678.484 874.505,687.15 878.5,695.5C 878.34,697.199 878.506,698.866 879,700.5C 879.383,699.944 879.883,699.611 880.5,699.5C 883.713,714.901 887.046,730.234 890.5,745.5C 891.29,752.479 891.624,759.479 891.5,766.5C 901.039,768.232 910.706,769.399 920.5,770C 925.324,771.601 930.324,772.767 935.5,773.5C 945.382,777.123 955.049,781.123 964.5,785.5C 968.035,787.836 971.535,790.502 975,793.5C 975.383,792.944 975.883,792.611 976.5,792.5C 980.822,796.816 985.489,800.816 990.5,804.5C 990.5,806.5 991.5,807.5 993.5,807.5C 994.757,810.427 996.757,812.761 999.5,814.5C 1002.04,820.269 1005.04,825.602 1008.5,830.5C 1010.54,837.837 1011.87,845.337 1012.5,853C 1012.25,860.722 1010.92,868.222 1008.5,875.5C 1006.96,875.703 1005.62,876.37 1004.5,877.5C 1003.09,876.049 1001.59,874.716 1000,873.5C 997.012,863.625 992.512,854.625 986.5,846.5C 981.286,836.949 973.62,830.283 963.5,826.5C 963.179,824.952 962.179,824.285 960.5,824.5C 959.791,823.596 958.791,823.263 957.5,823.5C 954.887,820.84 951.554,819.507 947.5,819.5C 947.53,818.503 947.03,817.836 946,817.5C 939.041,814.793 931.208,812.626 922.5,811C 910.5,810.333 898.5,810.333 886.5,811C 884.984,812.897 884.317,815.064 884.5,817.5C 882.352,817.389 882.019,818.056 883.5,819.5C 879.491,826.512 875.491,833.512 871.5,840.5C 858.946,854.888 845.446,868.555 831,881.5C 828.181,884.47 826.015,887.804 824.5,891.5C 823.596,892.209 823.263,893.209 823.5,894.5C 822.624,894.369 821.957,894.702 821.5,895.5C 819.32,898.859 817.987,902.526 817.5,906.5C 816.566,907.568 816.232,908.901 816.5,910.5C 815.414,910.62 814.747,911.287 814.5,912.5C 811.143,922.727 809.81,933.227 810.5,944C 810.064,955.343 811.231,966.51 814,977.5C 814.667,987.833 814.667,998.167 814,1008.5C 812.36,1017.38 810.193,1026.04 807.5,1034.5C 805.952,1034.82 805.285,1035.82 805.5,1037.5C 796.211,1053.63 783.878,1067.13 768.5,1078C 762.266,1081.61 756.266,1085.44 750.5,1089.5C 748.821,1089.29 747.821,1089.95 747.5,1091.5C 734.886,1096.82 721.386,1102.49 707,1108.5C 705.97,1108.84 705.47,1109.5 705.5,1110.5C 694.009,1113.27 682.009,1116.43 669.5,1120C 658.498,1121.17 647.498,1122.33 636.5,1123.5C 627.307,1122.74 618.14,1121.74 609,1120.5C 599.343,1118.47 589.843,1116.14 580.5,1113.5C 580.53,1112.5 580.03,1111.84 579,1111.5C 576.078,1110.62 573.245,1109.62 570.5,1108.5C 569.791,1107.6 568.791,1107.26 567.5,1107.5C 567.631,1106.62 567.298,1105.96 566.5,1105.5C 558.108,1100.65 550.108,1095.31 542.5,1089.5C 542.144,1087.81 541.144,1086.81 539.5,1086.5C 539.5,1085.83 539.167,1085.5 538.5,1085.5C 538.5,1084.17 537.833,1083.5 536.5,1083.5C 536.5,1082.83 536.167,1082.5 535.5,1082.5C 535.5,1080.5 534.5,1079.5 532.5,1079.5C 532.5,1077.5 531.5,1076.5 529.5,1076.5C 526.926,1071.59 523.592,1067.26 519.5,1063.5C 514.19,1056.68 509.023,1049.68 504,1042.5C 503.329,1041.75 502.496,1041.41 501.5,1041.5C 500.779,1038.18 500.612,1034.85 501,1031.5C 502.705,1028.06 504.872,1025.06 507.5,1022.5C 508.791,1022.74 509.791,1022.4 510.5,1021.5C 512.179,1021.71 513.179,1021.05 513.5,1019.5C 514.496,1019.41 515.329,1019.75 516,1020.5C 516.464,1019.91 516.631,1019.24 516.5,1018.5C 519.216,1018.61 521.216,1017.61 522.5,1015.5C 529.934,1012.5 535.101,1007.17 538,999.5C 539.517,993.92 539.851,988.253 539,982.5C 538.331,980.41 537.164,978.743 535.5,977.5C 532.129,971.448 527.796,966.114 522.5,961.5C 521.833,960.167 520.833,959.167 519.5,958.5C 518.833,957.167 517.833,956.167 516.5,955.5C 516.158,954.662 515.492,954.328 514.5,954.5C 514.586,953.504 514.252,952.671 513.5,952C 509.606,948.596 505.606,945.429 501.5,942.5C 499.807,939.81 497.473,937.81 494.5,936.5C 490.742,932.408 486.409,929.074 481.5,926.5C 477.742,922.408 473.409,919.074 468.5,916.5C 468.586,915.504 468.252,914.671 467.5,914C 462.655,910.644 457.988,907.144 453.5,903.5C 444.843,894.208 436.176,884.875 427.5,875.5C 427.423,874.25 426.756,873.417 425.5,873C 426.712,871.893 426.379,871.393 424.5,871.5C 423.943,868.95 422.61,866.95 420.5,865.5C 419.986,863.302 418.986,861.302 417.5,859.5C 417.043,858.702 416.376,858.369 415.5,858.5C 414.309,854.235 412.642,850.235 410.5,846.5C 409.183,842.807 407.516,839.474 405.5,836.5C 403.308,828.364 401.641,820.031 400.5,811.5C 399.675,791.943 401.508,772.61 406,753.5C 408.409,743.725 411.242,734.058 414.5,724.5C 415.434,723.432 415.768,722.099 415.5,720.5C 416.497,720.53 417.164,720.03 417.5,719C 419.739,711.598 422.739,704.598 426.5,698C 426.167,697.667 425.833,697.333 425.5,697C 427.008,695.493 428.341,693.827 429.5,692C 428.748,691.329 428.414,690.496 428.5,689.5C 429.117,689.611 429.617,689.944 430,690.5C 430.977,688.26 431.477,685.927 431.5,683.5C 432.376,683.631 433.043,683.298 433.5,682.5C 435.319,679.352 436.652,676.019 437.5,672.5C 439.048,672.179 439.715,671.179 439.5,669.5C 440.404,668.791 440.737,667.791 440.5,666.5C 442.602,664.807 444.268,662.641 445.5,660C 445.167,659.667 444.833,659.333 444.5,659C 446.671,657.826 447.671,655.993 447.5,653.5C 448.376,653.631 449.043,653.298 449.5,652.5C 452.224,647.971 454.558,643.304 456.5,638.5C 457.376,638.631 458.043,638.298 458.5,637.5C 461.715,632.404 464.382,627.07 466.5,621.5C 467.376,621.631 468.043,621.298 468.5,620.5C 471.224,615.971 473.558,611.304 475.5,606.5C 477.379,606.607 477.712,606.107 476.5,605C 478.558,602.382 480.225,599.549 481.5,596.5C 483.588,594.664 484.921,592.331 485.5,589.5C 487.048,589.179 487.715,588.179 487.5,586.5C 492.775,578.996 497.441,570.663 501.5,561.5C 502.376,561.631 503.043,561.298 503.5,560.5C 504.908,557.46 506.241,554.46 507.5,551.5C 508.239,551.631 508.906,551.464 509.5,551C 508.748,550.329 508.414,549.496 508.5,548.5C 509.117,548.611 509.617,548.944 510,549.5C 511.012,546.69 512.178,544.024 513.5,541.5C 514.404,540.791 514.737,539.791 514.5,538.5C 516.048,538.179 516.715,537.179 516.5,535.5C 517.404,534.791 517.737,533.791 517.5,532.5C 519.048,532.179 519.715,531.179 519.5,529.5C 521.972,525.265 523.972,520.765 525.5,516C 524.446,514.612 524.28,513.112 525,511.5C 525.333,511.833 525.667,512.167 526,512.5C 526.407,507.796 527.574,503.296 529.5,499C 532.195,482.419 534.861,465.919 537.5,449.5C 538.961,444.68 541.961,443.347 546.5,445.5C 546.842,446.338 547.508,446.672 548.5,446.5C 549.035,448.446 550.368,449.446 552.5,449.5C 556.894,453.811 562.228,457.811 568.5,461.5C 572.258,465.592 576.591,468.926 581.5,471.5C 590.341,478.654 599.841,483.987 610,487.5C 612.137,488.077 614.304,488.41 616.5,488.5C 616.62,489.586 617.287,490.253 618.5,490.5C 634.263,495.001 649.763,494.001 665,487.5C 666.03,487.164 666.53,486.497 666.5,485.5C 668.401,485.567 670.234,485.233 672,484.5C 675.844,482.754 679.344,480.754 682.5,478.5C 687.495,477.275 691.829,474.941 695.5,471.5C 697.179,471.715 698.179,471.048 698.5,469.5C 701.8,467.892 705.133,466.225 708.5,464.5C 709.298,464.043 709.631,463.376 709.5,462.5C 726.722,455.256 742.056,445.256 755.5,432.5C 757.367,431.24 758.7,429.573 759.5,427.5 Z"/></g>
<g><path style="opacity:0.984" fill="#f2fafe" d="M 411.5,912.5 C 411.554,914.632 412.554,915.965 414.5,916.5C 414.328,917.492 414.662,918.158 415.5,918.5C 416.63,920.374 417.63,922.374 418.5,924.5C 418.957,925.298 419.624,925.631 420.5,925.5C 425.625,936.097 430.292,947.43 434.5,959.5C 435.819,962.58 437.486,965.246 439.5,967.5C 439.659,971.674 441.325,975.008 444.5,977.5C 444.5,978.833 445.167,979.5 446.5,979.5C 446.351,980.552 446.517,981.552 447,982.5C 456.899,996.31 467.732,1009.31 479.5,1021.5C 480.167,1022.83 481.167,1023.83 482.5,1024.5C 483.167,1025.83 484.167,1026.83 485.5,1027.5C 486.167,1028.83 487.167,1029.83 488.5,1030.5C 492.357,1036.21 496.69,1041.54 501.5,1046.5C 503.824,1050.48 506.157,1054.48 508.5,1058.5C 508.957,1059.3 509.624,1059.63 510.5,1059.5C 513.451,1066.28 516.451,1073.11 519.5,1080C 523.29,1094.25 524.457,1108.75 523,1123.5C 521.147,1132.27 518.98,1140.94 516.5,1149.5C 511.063,1158.13 504.73,1166.29 497.5,1174C 483.101,1184.05 467.101,1188.88 449.5,1188.5C 442.158,1188.13 434.825,1187.63 427.5,1187C 416.519,1183.83 405.852,1180.66 395.5,1177.5C 395.611,1176.88 395.944,1176.38 396.5,1176C 393.558,1175.3 390.891,1174.14 388.5,1172.5C 386.005,1169.77 383.005,1167.77 379.5,1166.5C 378.198,1164.18 376.198,1162.84 373.5,1162.5C 368.901,1158.67 363.568,1156.34 357.5,1155.5C 357.38,1154.41 356.713,1153.75 355.5,1153.5C 341.719,1148.31 327.386,1145.48 312.5,1145C 312.833,1144.67 313.167,1144.33 313.5,1144C 295.424,1143.13 277.424,1141.46 259.5,1139C 252.489,1137.49 245.489,1135.66 238.5,1133.5C 235.111,1131.82 231.778,1130.16 228.5,1128.5C 227.791,1127.6 226.791,1127.26 225.5,1127.5C 211.85,1116.11 206.017,1101.44 208,1083.5C 209.691,1076.41 211.524,1069.74 213.5,1063.5C 214.404,1062.79 214.737,1061.79 214.5,1060.5C 215.497,1060.53 216.164,1060.03 216.5,1059C 218.523,1051.15 219.523,1043.15 219.5,1035C 218.608,1021.81 217.441,1008.64 216,995.5C 215.667,995.833 215.333,996.167 215,996.5C 214.333,990.833 214.333,985.167 215,979.5C 215.333,979.833 215.667,980.167 216,980.5C 216.1,973.663 217.6,967.163 220.5,961C 222.396,957.366 224.396,953.866 226.5,950.5C 228.5,950.5 229.5,949.5 229.5,947.5C 232.539,944.988 235.872,942.822 239.5,941C 238.944,940.617 238.611,940.117 238.5,939.5C 239.791,939.737 240.791,939.404 241.5,938.5C 252.656,934.503 264.489,931.17 277,928.5C 282.867,925.584 288.367,922.25 293.5,918.5C 303.147,912.352 310.98,904.352 317,894.5C 341.576,863.337 367.41,862.67 394.5,892.5C 399.896,899.549 405.563,906.216 411.5,912.5 Z"/></g>
<g><path style="opacity:0.983" fill="#f2fafe" d="M 872.5,878.5 C 880.822,891.711 889.322,905.378 898,919.5C 902.537,924.509 907.703,928.676 913.5,932C 919.694,932.727 925.86,932.561 932,931.5C 941.322,928.117 950.489,924.451 959.5,920.5C 960.944,921.981 961.611,921.648 961.5,919.5C 964.953,918.857 968.119,917.524 971,915.5C 973.273,914.148 975.106,912.481 976.5,910.5C 977.791,910.737 978.791,910.404 979.5,909.5C 987.196,906.622 995.196,905.788 1003.5,907C 1014.04,908.384 1024.37,910.55 1034.5,913.5C 1038.51,916.816 1042.84,919.816 1047.5,922.5C 1047.5,924.5 1048.5,925.5 1050.5,925.5C 1050.55,927.632 1051.55,928.965 1053.5,929.5C 1055.72,934.615 1057.38,939.949 1058.5,945.5C 1059.24,956.169 1059.9,966.836 1060.5,977.5C 1062.6,983.939 1064.77,989.939 1067,995.5C 1068.58,998.186 1070.41,1000.52 1072.5,1002.5C 1073.77,1005.76 1075.44,1008.76 1077.5,1011.5C 1082.75,1017.69 1087.75,1024.02 1092.5,1030.5C 1093.89,1033.35 1095.05,1036.35 1096,1039.5C 1097.67,1038.66 1097.83,1039.16 1096.5,1041C 1098.7,1044.79 1099.7,1048.96 1099.5,1053.5C 1099.49,1059.7 1098.15,1065.03 1095.5,1069.5C 1090.39,1073.96 1085.06,1077.96 1079.5,1081.5C 1078.5,1081.59 1077.67,1081.25 1077,1080.5C 1067.79,1086.03 1057.95,1090.19 1047.5,1093C 1047.83,1093.33 1048.17,1093.67 1048.5,1094C 1046.94,1094.21 1045.61,1094.71 1044.5,1095.5C 1037.86,1097.23 1031.03,1099.57 1024,1102.5C 1022.97,1102.84 1022.47,1103.5 1022.5,1104.5C 1020.6,1104.43 1018.77,1104.77 1017,1105.5C 1009.57,1109.02 1002.74,1113.35 996.5,1118.5C 985.615,1125.55 976.115,1134.21 968,1144.5C 958.05,1158.95 946.217,1171.62 932.5,1182.5C 930.05,1183.71 928.05,1185.38 926.5,1187.5C 925.209,1187.26 924.209,1187.6 923.5,1188.5C 921.109,1190.14 918.442,1191.3 915.5,1192C 916.056,1192.38 916.389,1192.88 916.5,1193.5C 913.435,1193.24 910.935,1194.24 909,1196.5C 907.539,1195.12 906.706,1195.45 906.5,1197.5C 899.91,1199.48 893.243,1201.48 886.5,1203.5C 868.964,1208.23 852.298,1206.23 836.5,1197.5C 836.607,1195.62 836.107,1195.29 835,1196.5C 834.583,1195.24 833.75,1194.58 832.5,1194.5C 831.833,1193.17 830.833,1192.17 829.5,1191.5C 829.158,1190.66 828.492,1190.33 827.5,1190.5C 826.92,1188.25 825.587,1186.58 823.5,1185.5C 819.815,1180.46 816.482,1175.13 813.5,1169.5C 813.043,1168.7 812.376,1168.37 811.5,1168.5C 811.737,1167.21 811.404,1166.21 810.5,1165.5C 810.715,1163.82 810.048,1162.82 808.5,1162.5C 805.106,1151.52 801.939,1140.85 799,1130.5C 797.342,1118.68 797.175,1106.85 798.5,1095C 800.321,1087.37 802.321,1079.87 804.5,1072.5C 805.404,1071.79 805.737,1070.79 805.5,1069.5C 807.969,1068.39 808.969,1066.39 808.5,1063.5C 809.117,1063.61 809.617,1063.94 810,1064.5C 819.098,1045.6 824.098,1026.26 825,1006.5C 825.333,1006.83 825.667,1007.17 826,1007.5C 826.189,981.818 826.856,956.151 828,930.5C 830.2,917.39 835.034,905.39 842.5,894.5C 844.525,892.804 846.525,891.137 848.5,889.5C 851.06,887.727 853.393,885.727 855.5,883.5C 858.126,882.238 860.793,880.904 863.5,879.5C 866.428,878.516 869.428,878.183 872.5,878.5 Z"/></g>
<g><path style="opacity:0.004" fill="#f2fafe" d="M 161.5,1002.5 C 162.833,1003.17 162.833,1003.17 161.5,1002.5 Z"/></g>
<g><path style="opacity:0.008" fill="#f2fafe" d="M 164.5,1015.5 C 165.833,1016.17 165.833,1016.17 164.5,1015.5 Z"/></g>
<g><path style="opacity:0.004" fill="#f2fafe" d="M 165.5,1021.5 C 166.833,1022.17 166.833,1022.17 165.5,1021.5 Z"/></g>
<g><path style="opacity:0.004" fill="#f2fafe" d="M 167.5,1028.5 C 168.833,1029.17 168.833,1029.17 167.5,1028.5 Z"/></g>
<g><path style="opacity:0.004" fill="#f2fafe" d="M 501.5,1043.5 C 503.557,1043.96 503.557,1044.96 501.5,1046.5C 501.5,1045.5 501.5,1044.5 501.5,1043.5 Z"/></g>
<g><path style="opacity:0.004" fill="#f2fafe" d="M 510.5,1054.5 C 511.043,1054.56 511.376,1054.89 511.5,1055.5C 510.635,1056.58 509.635,1056.75 508.5,1056C 509.416,1055.72 510.082,1055.22 510.5,1054.5 Z"/></g>
<g><path style="opacity:0.004" fill="#f2fafe" d="M 167.5,1055.5 C 168.833,1056.17 168.833,1056.17 167.5,1055.5 Z"/></g>
<g><path style="opacity:0.004" fill="#f2fafe" d="M 166.5,1063.5 C 165.833,1062.17 165.833,1062.17 166.5,1063.5 Z"/></g>
<g><path style="opacity:0.004" fill="#f2fafe" d="M 164.5,1065.5 C 165.833,1066.17 165.833,1066.17 164.5,1065.5 Z"/></g>
<g><path style="opacity:0.004" fill="#f2fafe" d="M 162.5,1069.5 C 163.833,1070.17 163.833,1070.17 162.5,1069.5 Z"/></g>
<g><path style="opacity:0.012" fill="#f2fafe" d="M 161.5,1072.5 C 162.833,1073.17 162.833,1073.17 161.5,1072.5 Z"/></g>
<g><path style="opacity:0.004" fill="#f2fafe" d="M 159.5,1075.5 C 160.833,1076.17 160.833,1076.17 159.5,1075.5 Z"/></g>
<g><path style="opacity:0.004" fill="#f2fafe" d="M 158.5,1077.5 C 159.833,1078.17 159.833,1078.17 158.5,1077.5 Z"/></g>
<g><path style="opacity:0.004" fill="#f2fafe" d="M 155.5,1082.5 C 156.833,1083.17 156.833,1083.17 155.5,1082.5 Z"/></g>
<g><path style="opacity:0.004" fill="#f2fafe" d="M 154.5,1087.5 C 155.833,1088.17 155.833,1088.17 154.5,1087.5 Z"/></g>
<g><path style="opacity:0.004" fill="#f2fafe" d="M 152.5,1091.5 C 153.833,1092.17 153.833,1092.17 152.5,1091.5 Z"/></g>
<g><path style="opacity:0.004" fill="#f2fafe" d="M 151.5,1097.5 C 152.833,1098.17 152.833,1098.17 151.5,1097.5 Z"/></g>
<g><path style="opacity:0.008" fill="#f2fafe" d="M 1121.5,1111.5 C 1122.83,1112.17 1122.83,1112.17 1121.5,1111.5 Z"/></g>
<g><path style="opacity:0.012" fill="#f2fafe" d="M 1117.5,1114.5 C 1118.83,1115.17 1118.83,1115.17 1117.5,1114.5 Z"/></g>
<g><path style="opacity:0.004" fill="#f2fafe" d="M 151.5,1117.5 C 152.833,1118.17 152.833,1118.17 151.5,1117.5 Z"/></g>
<g><path style="opacity:0.004" fill="#f2fafe" d="M 1113.5,1117.5 C 1114.83,1118.17 1114.83,1118.17 1113.5,1117.5 Z"/></g>
<g><path style="opacity:0.004" fill="#f2fafe" d="M 1110.5,1118.5 C 1111.53,1118.9 1111.69,1119.56 1111,1120.5C 1110.54,1119.91 1110.37,1119.24 1110.5,1118.5 Z"/></g>
<g><path style="opacity:0.004" fill="#f2fafe" d="M 1108.5,1120.5 C 1109.83,1121.17 1109.83,1121.17 1108.5,1120.5 Z"/></g>
<g><path style="opacity:0.004" fill="#f2fafe" d="M 1105.5,1121.5 C 1106.83,1122.17 1106.83,1122.17 1105.5,1121.5 Z"/></g>
<g><path style="opacity:0.004" fill="#f2fafe" d="M 152.5,1123.5 C 153.833,1124.17 153.833,1124.17 152.5,1123.5 Z"/></g>
<g><path style="opacity:0.004" fill="#f2fafe" d="M 1102.5,1123.5 C 1103.24,1123.37 1103.91,1123.54 1104.5,1124C 1103.56,1124.69 1102.9,1124.53 1102.5,1123.5 Z"/></g>
<g><path style="opacity:0.004" fill="#f2fafe" d="M 1099.5,1124.5 C 1100.24,1124.37 1100.91,1124.54 1101.5,1125C 1100.56,1125.69 1099.9,1125.53 1099.5,1124.5 Z"/></g>
<g><path style="opacity:0.004" fill="#f2fafe" d="M 1097.5,1126.5 C 1098.83,1127.17 1098.83,1127.17 1097.5,1126.5 Z"/></g>
<g><path style="opacity:0.008" fill="#f2fafe" d="M 1094.5,1127.5 C 1095.83,1128.17 1095.83,1128.17 1094.5,1127.5 Z"/></g>
<g><path style="opacity:0.004" fill="#f2fafe" d="M 1091.5,1129.5 C 1092.83,1130.17 1092.83,1130.17 1091.5,1129.5 Z"/></g>
<g><path style="opacity:0.004" fill="#f2fafe" d="M 155.5,1130.5 C 156.833,1131.17 156.833,1131.17 155.5,1130.5 Z"/></g>
<g><path style="opacity:0.008" fill="#f2fafe" d="M 1088.5,1130.5 C 1089.83,1131.17 1089.83,1131.17 1088.5,1130.5 Z"/></g>
<g><path style="opacity:0.004" fill="#f2fafe" d="M 1085.5,1132.5 C 1086.83,1133.17 1086.83,1133.17 1085.5,1132.5 Z"/></g>
<g><path style="opacity:0.004" fill="#f2fafe" d="M 157.5,1133.5 C 158.833,1134.17 158.833,1134.17 157.5,1133.5 Z"/></g>
<g><path style="opacity:0.004" fill="#f2fafe" d="M 1082.5,1133.5 C 1083.83,1134.17 1083.83,1134.17 1082.5,1133.5 Z"/></g>
<g><path style="opacity:0.004" fill="#f2fafe" d="M 1078.5,1134.5 C 1079.83,1135.17 1079.83,1135.17 1078.5,1134.5 Z"/></g>
<g><path style="opacity:0.004" fill="#f2fafe" d="M 159.5,1137.5 C 158.833,1136.17 158.833,1136.17 159.5,1137.5 Z"/></g>
<g><path style="opacity:0.004" fill="#f2fafe" d="M 1075.5,1136.5 C 1076.83,1137.17 1076.83,1137.17 1075.5,1136.5 Z"/></g>
<g><path style="opacity:0.004" fill="#f2fafe" d="M 159.5,1137.5 C 160.833,1138.17 160.833,1138.17 159.5,1137.5 Z"/></g>
<g><path style="opacity:0.004" fill="#f2fafe" d="M 1070.5,1137.5 C 1071.83,1138.17 1071.83,1138.17 1070.5,1137.5 Z"/></g>
<g><path style="opacity:0.004" fill="#f2fafe" d="M 161.5,1140.5 C 162.833,1141.17 162.833,1141.17 161.5,1140.5 Z"/></g>
<g><path style="opacity:0.008" fill="#f2fafe" d="M 1063.5,1140.5 C 1064.83,1141.17 1064.83,1141.17 1063.5,1140.5 Z"/></g>
<g><path style="opacity:0.004" fill="#f2fafe" d="M 162.5,1142.5 C 163.833,1143.17 163.833,1143.17 162.5,1142.5 Z"/></g>
<g><path style="opacity:0.004" fill="#f2fafe" d="M 1059.5,1142.5 C 1060.83,1143.17 1060.83,1143.17 1059.5,1142.5 Z"/></g>
<g><path style="opacity:0.008" fill="#f2fafe" d="M 165.5,1143.5 C 164.833,1144.17 164.833,1144.17 165.5,1143.5 Z"/></g>
<g><path style="opacity:0.008" fill="#f2fafe" d="M 1056.5,1143.5 C 1057.83,1144.17 1057.83,1144.17 1056.5,1143.5 Z"/></g>
<g><path style="opacity:0.004" fill="#f2fafe" d="M 165.5,1146.5 C 166.833,1147.17 166.833,1147.17 165.5,1146.5 Z"/></g>
<g><path style="opacity:0.004" fill="#f2fafe" d="M 1049.5,1146.5 C 1050.83,1147.17 1050.83,1147.17 1049.5,1146.5 Z"/></g>
<g><path style="opacity:0.004" fill="#f2fafe" d="M 168.5,1149.5 C 167.833,1148.17 167.833,1148.17 168.5,1149.5 Z"/></g>
<g><path style="opacity:0.004" fill="#f2fafe" d="M 1046.5,1148.5 C 1047.83,1149.17 1047.83,1149.17 1046.5,1148.5 Z"/></g>
<g><path style="opacity:0.012" fill="#f2fafe" d="M 168.5,1149.5 C 169.833,1150.17 169.833,1150.17 168.5,1149.5 Z"/></g>
<g><path style="opacity:0.004" fill="#f2fafe" d="M 1043.5,1149.5 C 1044.83,1150.17 1044.83,1150.17 1043.5,1149.5 Z"/></g>
<g><path style="opacity:0.004" fill="#f2fafe" d="M 1037.5,1152.5 C 1038.83,1153.17 1038.83,1153.17 1037.5,1152.5 Z"/></g>
<g><path style="opacity:0.004" fill="#f2fafe" d="M 1034.5,1153.5 C 1035.83,1154.17 1035.83,1154.17 1034.5,1153.5 Z"/></g>
<g><path style="opacity:0.012" fill="#f2fafe" d="M 175.5,1156.5 C 174.833,1155.17 174.833,1155.17 175.5,1156.5 Z"/></g>
<g><path style="opacity:0.004" fill="#f2fafe" d="M 1031.5,1155.5 C 1032.83,1156.17 1032.83,1156.17 1031.5,1155.5 Z"/></g>
<g><path style="opacity:0.004" fill="#f2fafe" d="M 175.5,1156.5 C 176.167,1156.5 176.833,1156.5 177.5,1156.5C 176.833,1157.83 176.167,1157.83 175.5,1156.5 Z"/></g>
<g><path style="opacity:0.004" fill="#f2fafe" d="M 1028.5,1156.5 C 1029.83,1157.17 1029.83,1157.17 1028.5,1156.5 Z"/></g>
<g><path style="opacity:0.008" fill="#f2fafe" d="M 178.5,1159.5 C 177.833,1158.17 177.833,1158.17 178.5,1159.5 Z"/></g>
<g><path style="opacity:0.004" fill="#f2fafe" d="M 1025.5,1158.5 C 1026.83,1159.17 1026.83,1159.17 1025.5,1158.5 Z"/></g>
<g><path style="opacity:0.004" fill="#f2fafe" d="M 178.5,1159.5 C 179.833,1160.17 179.833,1160.17 178.5,1159.5 Z"/></g>
<g><path style="opacity:0.008" fill="#f2fafe" d="M 1022.5,1159.5 C 1023.83,1160.17 1023.83,1160.17 1022.5,1159.5 Z"/></g>
<g><path style="opacity:0.004" fill="#f2fafe" d="M 180.5,1161.5 C 181.833,1162.17 181.833,1162.17 180.5,1161.5 Z"/></g>
<g><path style="opacity:0.004" fill="#f2fafe" d="M 1019.5,1162.5 C 1019.9,1161.47 1020.56,1161.31 1021.5,1162C 1020.91,1162.46 1020.24,1162.63 1019.5,1162.5 Z"/></g>
<g><path style="opacity:0.016" fill="#f2fafe" d="M 184.5,1162.5 C 183.833,1163.17 183.833,1163.17 184.5,1162.5 Z"/></g>
<g><path style="opacity:0.004" fill="#f2fafe" d="M 1019.5,1162.5 C 1018.83,1163.17 1018.83,1163.17 1019.5,1162.5 Z"/></g>
<g><path style="opacity:0.004" fill="#f2fafe" d="M 184.5,1164.5 C 185.833,1165.17 185.833,1165.17 184.5,1164.5 Z"/></g>
<g><path style="opacity:0.004" fill="#f2fafe" d="M 1015.5,1164.5 C 1016.83,1165.17 1016.83,1165.17 1015.5,1164.5 Z"/></g>
<g><path style="opacity:0.008" fill="#f2fafe" d="M 188.5,1165.5 C 187.833,1166.17 187.833,1166.17 188.5,1165.5 Z"/></g>
<g><path style="opacity:0.012" fill="#f2fafe" d="M 1012.5,1165.5 C 1013.83,1166.17 1013.83,1166.17 1012.5,1165.5 Z"/></g>
<g><path style="opacity:0.004" fill="#f2fafe" d="M 190.5,1166.5 C 189.833,1167.17 189.833,1167.17 190.5,1166.5 Z"/></g>
<g><path style="opacity:0.004" fill="#f2fafe" d="M 1012.5,1166.5 C 1011.83,1167.17 1011.83,1167.17 1012.5,1166.5 Z"/></g>
<g><path style="opacity:0.004" fill="#f2fafe" d="M 191.5,1168.5 C 192.833,1169.17 192.833,1169.17 191.5,1168.5 Z"/></g>
<g><path style="opacity:0.012" fill="#f2fafe" d="M 1008.5,1168.5 C 1009.83,1169.17 1009.83,1169.17 1008.5,1168.5 Z"/></g>
<g><path style="opacity:0.004" fill="#f2fafe" d="M 193.5,1169.5 C 194.833,1170.17 194.833,1170.17 193.5,1169.5 Z"/></g>
<g><path style="opacity:0.004" fill="#f2fafe" d="M 1006.5,1169.5 C 1007.83,1170.17 1007.83,1170.17 1006.5,1169.5 Z"/></g>
<g><path style="opacity:0.008" fill="#f2fafe" d="M 196.5,1171.5 C 197.833,1172.17 197.833,1172.17 196.5,1171.5 Z"/></g>
<g><path style="opacity:0.004" fill="#f2fafe" d="M 612.5,1171.5 C 613.833,1172.17 613.833,1172.17 612.5,1171.5 Z"/></g>
<g><path style="opacity:0.004" fill="#f2fafe" d="M 1003.5,1172.5 C 1003.5,1172.17 1003.5,1171.83 1003.5,1171.5C 1006.17,1171.83 1006.17,1172.17 1003.5,1172.5 Z"/></g>
<g><path style="opacity:0.004" fill="#f2fafe" d="M 199.5,1172.5 C 200.833,1173.17 200.833,1173.17 199.5,1172.5 Z"/></g>
<g><path style="opacity:0.008" fill="#f2fafe" d="M 1003.5,1172.5 C 1002.83,1173.17 1002.83,1173.17 1003.5,1172.5 Z"/></g>
<g><path style="opacity:0.004" fill="#f2fafe" d="M 202.5,1174.5 C 203.833,1175.17 203.833,1175.17 202.5,1174.5 Z"/></g>
<g><path style="opacity:0.004" fill="#f2fafe" d="M 999.5,1174.5 C 1000.83,1175.17 1000.83,1175.17 999.5,1174.5 Z"/></g>
<g><path style="opacity:0.004" fill="#f2fafe" d="M 587.5,1175.5 C 588.833,1176.17 588.833,1176.17 587.5,1175.5 Z"/></g>
<g><path style="opacity:0.004" fill="#f2fafe" d="M 727.5,1175.5 C 728.833,1176.17 728.833,1176.17 727.5,1175.5 Z"/></g>
<g><path style="opacity:0.008" fill="#f2fafe" d="M 999.5,1175.5 C 998.833,1176.17 998.833,1176.17 999.5,1175.5 Z"/></g>
<g><path style="opacity:0.004" fill="#f2fafe" d="M 210.5,1177.5 C 209.833,1178.17 209.833,1178.17 210.5,1177.5 Z"/></g>
<g><path style="opacity:0.004" fill="#f2fafe" d="M 996.5,1177.5 C 997.833,1178.17 997.833,1178.17 996.5,1177.5 Z"/></g>
<g><path style="opacity:0.004" fill="#f2fafe" d="M 213.5,1178.5 C 214.833,1179.17 214.833,1179.17 213.5,1178.5 Z"/></g>
<g><path style="opacity:0.004" fill="#f2fafe" d="M 577.5,1178.5 C 578.833,1179.17 578.833,1179.17 577.5,1178.5 Z"/></g>
<g><path style="opacity:0.004" fill="#f2fafe" d="M 742.5,1178.5 C 743.833,1179.17 743.833,1179.17 742.5,1178.5 Z"/></g>
<g><path style="opacity:0.004" fill="#f2fafe" d="M 996.5,1178.5 C 995.833,1179.17 995.833,1179.17 996.5,1178.5 Z"/></g>
<g><path style="opacity:0.004" fill="#f2fafe" d="M 218.5,1180.5 C 219.833,1181.17 219.833,1181.17 218.5,1180.5 Z"/></g>
<g><path style="opacity:0.008" fill="#f2fafe" d="M 992.5,1180.5 C 993.833,1181.17 993.833,1181.17 992.5,1180.5 Z"/></g>
<g><path style="opacity:0.004" fill="#f2fafe" d="M 222.5,1181.5 C 223.833,1182.17 223.833,1182.17 222.5,1181.5 Z"/></g>
<g><path style="opacity:0.004" fill="#f2fafe" d="M 568.5,1181.5 C 569.833,1182.17 569.833,1182.17 568.5,1181.5 Z"/></g>
<g><path style="opacity:0.004" fill="#f2fafe" d="M 752.5,1181.5 C 753.833,1182.17 753.833,1182.17 752.5,1181.5 Z"/></g>
<g><path style="opacity:0.008" fill="#f2fafe" d="M 990.5,1182.5 C 990.842,1181.66 991.508,1181.33 992.5,1181.5C 992.158,1182.34 991.492,1182.67 990.5,1182.5 Z"/></g>
<g><path style="opacity:0.004" fill="#f2fafe" d="M 564.5,1182.5 C 565.525,1182.9 565.692,1183.56 565,1184.5C 564.536,1183.91 564.369,1183.24 564.5,1182.5 Z"/></g>
<g><path style="opacity:0.004" fill="#f2fafe" d="M 990.5,1182.5 C 990.672,1183.49 990.338,1184.16 989.5,1184.5C 989.328,1183.51 989.662,1182.84 990.5,1182.5 Z"/></g>
<g><path style="opacity:0.004" fill="#f2fafe" d="M 235.5,1184.5 C 236.833,1185.17 236.833,1185.17 235.5,1184.5 Z"/></g>
<g><path style="opacity:0.004" fill="#f2fafe" d="M 561.5,1184.5 C 562.833,1185.17 562.833,1185.17 561.5,1184.5 Z"/></g>
<g><path style="opacity:0.004" fill="#f2fafe" d="M 761.5,1184.5 C 762.833,1185.17 762.833,1185.17 761.5,1184.5 Z"/></g>
<g><path style="opacity:0.004" fill="#f2fafe" d="M 987.5,1185.5 C 987.842,1184.66 988.508,1184.33 989.5,1184.5C 989.158,1185.34 988.492,1185.67 987.5,1185.5 Z"/></g>
<g><path style="opacity:0.004" fill="#f2fafe" d="M 765.5,1185.5 C 764.833,1186.17 764.833,1186.17 765.5,1185.5 Z"/></g>
<g><path style="opacity:0.006" fill="#f2fafe" d="M 987.5,1185.5 C 987.672,1186.49 987.338,1187.16 986.5,1187.5C 986.328,1186.51 986.662,1185.84 987.5,1185.5 Z"/></g>
<g><path style="opacity:0.004" fill="#f2fafe" d="M 554.5,1187.5 C 555.833,1188.17 555.833,1188.17 554.5,1187.5 Z"/></g>
<g><path style="opacity:0.008" fill="#f2fafe" d="M 765.5,1187.5 C 766.833,1188.17 766.833,1188.17 765.5,1187.5 Z"/></g>
<g><path style="opacity:0.004" fill="#f2fafe" d="M 986.5,1187.5 C 985.833,1188.17 985.833,1188.17 986.5,1187.5 Z"/></g>
<g><path style="opacity:0.004" fill="#f2fafe" d="M 551.5,1188.5 C 552.833,1189.17 552.833,1189.17 551.5,1188.5 Z"/></g>
<g><path style="opacity:0.008" fill="#f2fafe" d="M 983.5,1188.5 C 984.833,1189.17 984.833,1189.17 983.5,1188.5 Z"/></g>
<g><path style="opacity:0.004" fill="#f2fafe" d="M 548.5,1190.5 C 549.833,1191.17 549.833,1191.17 548.5,1190.5 Z"/></g>
<g><path style="opacity:0.004" fill="#f2fafe" d="M 982.5,1190.5 C 983.833,1191.17 983.833,1191.17 982.5,1190.5 Z"/></g>
<g><path style="opacity:0.004" fill="#f2fafe" d="M 546.5,1191.5 C 547.833,1192.17 547.833,1192.17 546.5,1191.5 Z"/></g>
<g><path style="opacity:0.012" fill="#f2fafe" d="M 980.5,1191.5 C 981.833,1192.17 981.833,1192.17 980.5,1191.5 Z"/></g>
<g><path style="opacity:0.004" fill="#f2fafe" d="M 543.5,1194.5 C 543.897,1193.47 544.563,1193.31 545.5,1194C 544.906,1194.46 544.239,1194.63 543.5,1194.5 Z"/></g>
<g><path style="opacity:0.008" fill="#f2fafe" d="M 979.5,1193.5 C 980.833,1194.17 980.833,1194.17 979.5,1193.5 Z"/></g>
<g><path style="opacity:0.004" fill="#f2fafe" d="M 308.5,1194.5 C 309.833,1195.17 309.833,1195.17 308.5,1194.5 Z"/></g>
<g><path style="opacity:0.004" fill="#f2fafe" d="M 543.5,1194.5 C 542.833,1195.17 542.833,1195.17 543.5,1194.5 Z"/></g>
<g><path style="opacity:0.016" fill="#f2fafe" d="M 977.5,1194.5 C 978.833,1195.17 978.833,1195.17 977.5,1194.5 Z"/></g>
<g><path style="opacity:0.008" fill="#f2fafe" d="M 539.5,1196.5 C 540.833,1197.17 540.833,1197.17 539.5,1196.5 Z"/></g>
<g><path style="opacity:0.004" fill="#f2fafe" d="M 318.5,1197.5 C 319.833,1198.17 319.833,1198.17 318.5,1197.5 Z"/></g>
<g><path style="opacity:0.004" fill="#f2fafe" d="M 539.5,1197.5 C 538.833,1198.17 538.833,1198.17 539.5,1197.5 Z"/></g>
<g><path style="opacity:0.004" fill="#f2fafe" d="M 976.5,1197.5 C 977.833,1198.17 977.833,1198.17 976.5,1197.5 Z"/></g>
<g><path style="opacity:0.004" fill="#f2fafe" d="M 324.5,1198.5 C 325.525,1198.9 325.692,1199.56 325,1200.5C 324.536,1199.91 324.369,1199.24 324.5,1198.5 Z"/></g>
<g><path style="opacity:0.004" fill="#f2fafe" d="M 535.5,1198.5 C 536.525,1198.9 536.692,1199.56 536,1200.5C 535.536,1199.91 535.369,1199.24 535.5,1198.5 Z"/></g>
<g><path style="opacity:0.004" fill="#f2fafe" d="M 974.5,1198.5 C 975.833,1199.17 975.833,1199.83 974.5,1200.5C 974.5,1199.83 974.5,1199.17 974.5,1198.5 Z"/></g>
<g><path style="opacity:0.004" fill="#f2fafe" d="M 328.5,1200.5 C 329.833,1201.17 329.833,1201.17 328.5,1200.5 Z"/></g>
<g><path style="opacity:0.012" fill="#f2fafe" d="M 533.5,1200.5 C 534.833,1201.17 534.833,1201.17 533.5,1200.5 Z"/></g>
<g><path style="opacity:0.012" fill="#f2fafe" d="M 974.5,1200.5 C 973.833,1201.17 973.833,1201.17 974.5,1200.5 Z"/></g>
<g><path style="opacity:0.004" fill="#f2fafe" d="M 333.5,1201.5 C 334.833,1202.17 334.833,1202.17 333.5,1201.5 Z"/></g>
<g><path style="opacity:0.004" fill="#f2fafe" d="M 533.5,1201.5 C 532.833,1202.17 532.833,1202.17 533.5,1201.5 Z"/></g>
<g><path style="opacity:0.004" fill="#f2fafe" d="M 771.5,1201.5 C 770.833,1202.17 770.833,1202.17 771.5,1201.5 Z"/></g>
<g><path style="opacity:0.004" fill="#f2fafe" d="M 338.5,1203.5 C 337.833,1204.17 337.833,1204.17 338.5,1203.5 Z"/></g>
<g><path style="opacity:0.004" fill="#f2fafe" d="M 530.5,1203.5 C 531.833,1204.17 531.833,1204.17 530.5,1203.5 Z"/></g>
<g><path style="opacity:0.004" fill="#f2fafe" d="M 769.5,1203.5 C 770.833,1204.17 770.833,1204.17 769.5,1203.5 Z"/></g>
<g><path style="opacity:0.004" fill="#f2fafe" d="M 971.5,1203.5 C 972.833,1204.17 972.833,1204.17 971.5,1203.5 Z"/></g>
<g><path style="opacity:0.004" fill="#f2fafe" d="M 340.5,1204.5 C 341.833,1205.17 341.833,1205.17 340.5,1204.5 Z"/></g>
<g><path style="opacity:0.004" fill="#f2fafe" d="M 530.5,1204.5 C 529.833,1205.17 529.833,1205.17 530.5,1204.5 Z"/></g>
<g><path style="opacity:0.012" fill="#f2fafe" d="M 971.5,1204.5 C 970.833,1205.17 970.833,1205.17 971.5,1204.5 Z"/></g>
<g><path style="opacity:0.004" fill="#f2fafe" d="M 343.5,1206.5 C 344.833,1207.17 344.833,1207.17 343.5,1206.5 Z"/></g>
<g><path style="opacity:0.004" fill="#f2fafe" d="M 771.5,1206.5 C 772.833,1207.17 772.833,1207.17 771.5,1206.5 Z"/></g>
<g><path style="opacity:0.004" fill="#f2fafe" d="M 969.5,1206.5 C 970.833,1207.17 970.833,1207.17 969.5,1206.5 Z"/></g>
<g><path style="opacity:0.004" fill="#f2fafe" d="M 347.5,1207.5 C 348.833,1208.17 348.833,1208.17 347.5,1207.5 Z"/></g>
<g><path style="opacity:0.004" fill="#f2fafe" d="M 526.5,1207.5 C 527.833,1208.17 527.833,1208.17 526.5,1207.5 Z"/></g>
<g><path style="opacity:0.008" fill="#f2fafe" d="M 351.5,1209.5 C 350.833,1210.17 350.833,1210.17 351.5,1209.5 Z"/></g>
<g><path style="opacity:0.004" fill="#f2fafe" d="M 967.5,1209.5 C 968.833,1210.17 968.833,1210.17 967.5,1209.5 Z"/></g>
<g><path style="opacity:0.012" fill="#f2fafe" d="M 353.5,1210.5 C 354.833,1211.17 354.833,1211.17 353.5,1210.5 Z"/></g>
<g><path style="opacity:0.004" fill="#f2fafe" d="M 523.5,1210.5 C 524.833,1211.17 524.833,1211.17 523.5,1210.5 Z"/></g>
<g><path style="opacity:0.012" fill="#f2fafe" d="M 774.5,1210.5 C 775.833,1211.17 775.833,1211.17 774.5,1210.5 Z"/></g>
<g><path style="opacity:0.004" fill="#f2fafe" d="M 967.5,1210.5 C 966.833,1211.17 966.833,1211.17 967.5,1210.5 Z"/></g>
<g><path style="opacity:0.004" fill="#f2fafe" d="M 356.5,1212.5 C 357.833,1213.17 357.833,1213.17 356.5,1212.5 Z"/></g>
<g><path style="opacity:0.004" fill="#f2fafe" d="M 522.5,1212.5 C 523.833,1213.17 523.833,1213.17 522.5,1212.5 Z"/></g>
<g><path style="opacity:0.008" fill="#f2fafe" d="M 964.5,1212.5 C 965.833,1213.17 965.833,1213.17 964.5,1212.5 Z"/></g>
<g><path style="opacity:0.008" fill="#f2fafe" d="M 520.5,1213.5 C 521.833,1214.17 521.833,1214.17 520.5,1213.5 Z"/></g>
<g><path style="opacity:0.004" fill="#f2fafe" d="M 775.5,1213.5 C 776.833,1214.17 776.833,1214.17 775.5,1213.5 Z"/></g>
<g><path style="opacity:0.012" fill="#f2fafe" d="M 964.5,1213.5 C 963.833,1214.17 963.833,1214.17 964.5,1213.5 Z"/></g>
<g><path style="opacity:0.004" fill="#f2fafe" d="M 778.5,1214.5 C 778.5,1215.17 778.5,1215.83 778.5,1216.5C 777.167,1215.83 777.167,1215.17 778.5,1214.5 Z"/></g>
<g><path style="opacity:0.004" fill="#f2fafe" d="M 961.5,1214.5 C 962.833,1215.17 962.833,1215.83 961.5,1216.5C 961.5,1215.83 961.5,1215.17 961.5,1214.5 Z"/></g>
<g><path style="opacity:0.004" fill="#f2fafe" d="M 519.5,1215.5 C 520.833,1216.17 520.833,1216.17 519.5,1215.5 Z"/></g>
<g><path style="opacity:0.004" fill="#f2fafe" d="M 363.5,1216.5 C 364.833,1217.17 364.833,1217.17 363.5,1216.5 Z"/></g>
<g><path style="opacity:0.008" fill="#f2fafe" d="M 517.5,1216.5 C 518.833,1217.17 518.833,1217.17 517.5,1216.5 Z"/></g>
<g><path style="opacity:0.012" fill="#f2fafe" d="M 778.5,1216.5 C 779.833,1217.17 779.833,1217.17 778.5,1216.5 Z"/></g>
<g><path style="opacity:0.008" fill="#f2fafe" d="M 961.5,1216.5 C 960.833,1217.17 960.833,1217.17 961.5,1216.5 Z"/></g>
<g><path style="opacity:0.004" fill="#f2fafe" d="M 366.5,1217.5 C 367.833,1218.17 367.833,1218.17 366.5,1217.5 Z"/></g>
<g><path style="opacity:0.004" fill="#f2fafe" d="M 517.5,1217.5 C 516.833,1218.17 516.833,1218.17 517.5,1217.5 Z"/></g>
<g><path style="opacity:0.004" fill="#f2fafe" d="M 369.5,1219.5 C 370.833,1220.17 370.833,1220.17 369.5,1219.5 Z"/></g>
<g><path style="opacity:0.004" fill="#f2fafe" d="M 514.5,1219.5 C 515.833,1220.17 515.833,1220.17 514.5,1219.5 Z"/></g>
<g><path style="opacity:0.004" fill="#f2fafe" d="M 781.5,1220.5 C 780.833,1219.17 780.833,1219.17 781.5,1220.5 Z"/></g>
<g><path style="opacity:0.004" fill="#f2fafe" d="M 957.5,1219.5 C 958.833,1220.17 958.833,1220.17 957.5,1219.5 Z"/></g>
<g><path style="opacity:0.004" fill="#f2fafe" d="M 511.5,1220.5 C 512.239,1220.37 512.906,1220.54 513.5,1221C 512.563,1221.69 511.897,1221.53 511.5,1220.5 Z"/></g>
<g><path style="opacity:0.004" fill="#f2fafe" d="M 781.5,1220.5 C 782.833,1221.17 782.833,1221.17 781.5,1220.5 Z"/></g>
<g><path style="opacity:0.004" fill="#f2fafe" d="M 376.5,1222.5 C 377.833,1223.17 377.833,1223.17 376.5,1222.5 Z"/></g>
<g><path style="opacity:0.012" fill="#f2fafe" d="M 510.5,1222.5 C 511.833,1223.17 511.833,1223.17 510.5,1222.5 Z"/></g>
<g><path style="opacity:0.004" fill="#f2fafe" d="M 784.5,1223.5 C 783.761,1223.63 783.094,1223.46 782.5,1223C 783.437,1222.31 784.103,1222.47 784.5,1223.5 Z"/></g>
<g><path style="opacity:0.012" fill="#f2fafe" d="M 954.5,1222.5 C 955.833,1223.17 955.833,1223.17 954.5,1222.5 Z"/></g>
<g><path style="opacity:0.004" fill="#f2fafe" d="M 379.5,1223.5 C 380.833,1224.17 380.833,1224.17 379.5,1223.5 Z"/></g>
<g><path style="opacity:0.004" fill="#f2fafe" d="M 510.5,1223.5 C 509.833,1224.17 509.833,1224.17 510.5,1223.5 Z"/></g>
<g><path style="opacity:0.008" fill="#f2fafe" d="M 784.5,1223.5 C 785.833,1224.17 785.833,1224.17 784.5,1223.5 Z"/></g>
<g><path style="opacity:0.004" fill="#f2fafe" d="M 952.5,1223.5 C 953.167,1223.5 953.833,1223.5 954.5,1223.5C 953.833,1224.83 953.167,1224.83 952.5,1223.5 Z"/></g>
<g><path style="opacity:0.004" fill="#f2fafe" d="M 505.5,1224.5 C 506.833,1225.17 506.833,1225.17 505.5,1224.5 Z"/></g>
<g><path style="opacity:0.004" fill="#f2fafe" d="M 785.5,1225.5 C 786.833,1226.17 786.833,1226.17 785.5,1225.5 Z"/></g>
<g><path style="opacity:0.012" fill="#f2fafe" d="M 951.5,1225.5 C 952.833,1226.17 952.833,1226.17 951.5,1225.5 Z"/></g>
<g><path style="opacity:0.004" fill="#f2fafe" d="M 387.5,1226.5 C 388.833,1227.17 388.833,1227.17 387.5,1226.5 Z"/></g>
<g><path style="opacity:0.012" fill="#f2fafe" d="M 504.5,1226.5 C 505.833,1227.17 505.833,1227.17 504.5,1226.5 Z"/></g>
<g><path style="opacity:0.012" fill="#f2fafe" d="M 787.5,1226.5 C 788.833,1227.17 788.833,1227.17 787.5,1226.5 Z"/></g>
<g><path style="opacity:0.008" fill="#f2fafe" d="M 951.5,1226.5 C 950.833,1227.17 950.833,1227.17 951.5,1226.5 Z"/></g>
<g><path style="opacity:0.004" fill="#f2fafe" d="M 392.5,1228.5 C 391.833,1229.17 391.833,1229.17 392.5,1228.5 Z"/></g>
<g><path style="opacity:0.004" fill="#f2fafe" d="M 788.5,1228.5 C 789.833,1229.17 789.833,1229.17 788.5,1228.5 Z"/></g>
<g><path style="opacity:0.004" fill="#f2fafe" d="M 948.5,1228.5 C 949.833,1229.17 949.833,1229.17 948.5,1228.5 Z"/></g>
<g><path style="opacity:0.004" fill="#f2fafe" d="M 394.5,1229.5 C 395.833,1230.17 395.833,1230.17 394.5,1229.5 Z"/></g>
<g><path style="opacity:0.004" fill="#f2fafe" d="M 500.5,1229.5 C 501.833,1230.17 501.833,1230.17 500.5,1229.5 Z"/></g>
<g><path style="opacity:0.008" fill="#f2fafe" d="M 790.5,1229.5 C 791.833,1230.17 791.833,1230.17 790.5,1229.5 Z"/></g>
<g><path style="opacity:0.004" fill="#f2fafe" d="M 948.5,1229.5 C 947.833,1230.17 947.833,1230.17 948.5,1229.5 Z"/></g>
<g><path style="opacity:0.004" fill="#f2fafe" d="M 944.5,1230.5 C 945.525,1230.9 945.692,1231.56 945,1232.5C 944.536,1231.91 944.369,1231.24 944.5,1230.5 Z"/></g>
<g><path style="opacity:0.004" fill="#f2fafe" d="M 497.5,1231.5 C 498.833,1232.17 498.833,1232.17 497.5,1231.5 Z"/></g>
<g><path style="opacity:0.008" fill="#f2fafe" d="M 404.5,1232.5 C 405.833,1233.17 405.833,1233.17 404.5,1232.5 Z"/></g>
<g><path style="opacity:0.008" fill="#f2fafe" d="M 494.5,1232.5 C 495.833,1233.17 495.833,1233.17 494.5,1232.5 Z"/></g>
<g><path style="opacity:0.012" fill="#f2fafe" d="M 794.5,1232.5 C 795.833,1233.17 795.833,1233.17 794.5,1232.5 Z"/></g>
<g><path style="opacity:0.008" fill="#f2fafe" d="M 942.5,1232.5 C 943.833,1233.17 943.833,1233.17 942.5,1232.5 Z"/></g>
<g><path style="opacity:0.004" fill="#f2fafe" d="M 491.5,1233.5 C 492.833,1234.17 492.833,1234.17 491.5,1233.5 Z"/></g>
<g><path style="opacity:0.004" fill="#f2fafe" d="M 797.5,1233.5 C 797.5,1234.17 797.5,1234.83 797.5,1235.5C 796.167,1234.83 796.167,1234.17 797.5,1233.5 Z"/></g>
<g><path style="opacity:0.004" fill="#f2fafe" d="M 487.5,1235.5 C 488.833,1236.17 488.833,1236.17 487.5,1235.5 Z"/></g>
<g><path style="opacity:0.008" fill="#f2fafe" d="M 797.5,1235.5 C 798.833,1236.17 798.833,1236.17 797.5,1235.5 Z"/></g>
<g><path style="opacity:0.008" fill="#f2fafe" d="M 938.5,1235.5 C 939.833,1236.17 939.833,1236.17 938.5,1235.5 Z"/></g>
<g><path style="opacity:0.008" fill="#f2fafe" d="M 935.5,1236.5 C 936.833,1237.17 936.833,1237.17 935.5,1236.5 Z"/></g>
<g><path style="opacity:0.004" fill="#f2fafe" d="M 478.5,1238.5 C 479.833,1239.17 479.833,1239.17 478.5,1238.5 Z"/></g>
<g><path style="opacity:0.004" fill="#f2fafe" d="M 801.5,1238.5 C 802.833,1239.17 802.833,1239.17 801.5,1238.5 Z"/></g>
<g><path style="opacity:0.008" fill="#f2fafe" d="M 803.5,1239.5 C 804.833,1240.17 804.833,1240.17 803.5,1239.5 Z"/></g>
<g><path style="opacity:0.004" fill="#f2fafe" d="M 931.5,1239.5 C 932.833,1240.17 932.833,1240.17 931.5,1239.5 Z"/></g>
<g><path style="opacity:0.008" fill="#f2fafe" d="M 807.5,1242.5 C 806.833,1241.17 806.833,1241.17 807.5,1242.5 Z"/></g>
<g><path style="opacity:0.004" fill="#f2fafe" d="M 928.5,1241.5 C 929.833,1242.17 929.833,1242.17 928.5,1241.5 Z"/></g>
<g><path style="opacity:0.004" fill="#f2fafe" d="M 807.5,1242.5 C 808.833,1243.17 808.833,1243.17 807.5,1242.5 Z"/></g>
<g><path style="opacity:0.004" fill="#f2fafe" d="M 925.5,1242.5 C 926.833,1243.17 926.833,1243.17 925.5,1242.5 Z"/></g>
<g><path style="opacity:0.004" fill="#f2fafe" d="M 810.5,1244.5 C 811.833,1245.17 811.833,1245.17 810.5,1244.5 Z"/></g>
<g><path style="opacity:0.008" fill="#f2fafe" d="M 813.5,1245.5 C 814.833,1246.17 814.833,1246.17 813.5,1245.5 Z"/></g>
<g><path style="opacity:0.004" fill="#f2fafe" d="M 918.5,1245.5 C 919.833,1246.17 919.833,1246.17 918.5,1245.5 Z"/></g>
<g><path style="opacity:0.004" fill="#f2fafe" d="M 820.5,1248.5 C 821.833,1249.17 821.833,1249.17 820.5,1248.5 Z"/></g>
<g><path style="opacity:0.004" fill="#f2fafe" d="M 909.5,1248.5 C 910.833,1249.17 910.833,1249.17 909.5,1248.5 Z"/></g>
<g><path style="opacity:0.004" fill="#f2fafe" d="M 899.5,1251.5 C 900.833,1252.17 900.833,1252.17 899.5,1251.5 Z"/></g>
</svg>
