<?xml version="1.0" encoding="utf-8"?>
<!-- Generator: Adobe Illustrator 26.2.1, SVG Export Plug-In . SVG Version: 6.00 Build 0)  -->
<svg version="1.1" id="Layer_1" xmlns="http://www.w3.org/2000/svg" xmlns:xlink="http://www.w3.org/1999/xlink" x="0px" y="0px"
	 viewBox="0 0 105.5 16" style="enable-background:new 0 0 105.5 16;" xml:space="preserve">
<style type="text/css">
	.st0{fill-rule:evenodd;clip-rule:evenodd;fill:#FFFFFF;}
</style>
<g id="Untitled">
	<path class="st0" d="M91.7,7.6c0-1.1,0.9-1.9,1.9-1.9c1.1,0,1.9,0.9,1.9,1.9s-0.9,1.9-1.9,1.9C92.5,9.5,91.7,8.6,91.7,7.6z"/>
	<polygon class="st0" points="93.2,12.2 93.7,14.8 94.5,15.4 95.1,15.5 97.8,13.9 98,12.9 	"/>
	<g>
		<path class="st0" d="M98.4,8.1l2.1-2.1C99.3,6.8,98.1,7,97,6.8l-2.1-2.1c0.5-0.1,1.1-0.3,1.3-0.4c0.4-0.3,0.6-0.7,0.5-1
			c-0.2-0.3-0.7-0.3-1.1,0c-0.2,0.2-0.7,0.7-1.1,1.1l0,0c0.2-0.6,0.4-1.3,0.4-1.6c0-0.5-0.3-0.9-0.6-0.9c-0.4,0-0.6,0.4-0.6,0.9
			c0,0.2,0.1,0.6,0.2,1L93.2,3C89.6-0.6,85-1,81,1.9h-4.2c-2.4,0-4.4,1.3-5.5,3.3c0.2,0,0.4-0.1,0.7-0.1c0.5,0,1,0.1,1.4,0.4
			c0.1,0.1,0.2,0.1,0.2,0.2c0,0,0.1-0.1,0.1-0.1C74.4,5.2,75.1,5,75.9,5c1.2,0,2.3,0.5,3.2,1.6c0.5,0.6,0.9,1.3,1.1,2.1h0.1
			c0.2-0.8,0.7-1.5,1.4-2.2c1.1-1,2.3-1.5,3.8-1.5c1.4,0,2.7,0.5,3.8,1.5c1.1,1,1.6,2.2,1.6,3.6v1.7c0,0.2,0,0.4,0,0.6
			c0,0,0.1,0.1,0.1,0.1l2.2,2.2c0.4,0.4,0.8,0.6,1.3,0.8c0-0.1-0.1-0.2-0.1-0.2c-0.3-0.7-0.3-1.5-0.1-2.2c-0.4-0.2-0.6-0.4-0.6-0.5
			l0.2-0.1c0,0,0.4,0.6,1.5,0.5l0,0.2c-0.1,0-0.2,0-0.4,0c-0.2,0-0.3,0-0.4,0c-0.2,0.7-0.2,1.4,0.1,2c0.1,0.2,0.2,0.3,0.3,0.5
			c0.9,0.1,1.9-0.2,2.6-0.9l7.9-7.9C102.1,9.5,99.3,9,98.4,8.1z M93.6,9.2c-0.9,0-1.7-0.7-1.7-1.7c0-0.9,0.7-1.7,1.7-1.7
			c0.9,0,1.7,0.7,1.7,1.7C95.2,8.4,94.5,9.2,93.6,9.2z M97.3,14c-0.5,0.3,0.2-0.7,0.2-0.7C98.1,13.1,97.8,13.7,97.3,14z"/>
		<path class="st0" d="M93.1,6.6c-0.4,0-0.8,0.4-0.8,0.8c0,0.4,0.4,0.8,0.8,0.8c0.4,0,0.8-0.4,0.8-0.8C93.9,6.9,93.5,6.6,93.1,6.6z
			 M93.5,7.7c-0.1,0-0.2-0.1-0.2-0.2c0-0.1,0.1-0.2,0.2-0.2c0.1,0,0.2,0.1,0.2,0.2C93.7,7.6,93.6,7.7,93.5,7.7z"/>
		<path class="st0" d="M0,11.8v-1.7C0,9,0.4,8,1.3,7.2c0.9-0.8,1.9-1.2,3.1-1.2c1.2,0,2.2,0.4,3.1,1.2C8.5,8,8.9,8.9,8.9,10.1v1.7
			c0,1.1-0.4,2.1-1.3,2.9C6.7,15.6,5.6,16,4.5,16c-1.2,0-2.2-0.4-3.1-1.3C0.4,13.9,0,12.9,0,11.8z M2.6,11.8c0,0.5,0.2,0.9,0.5,1.3
			c0.4,0.4,0.8,0.6,1.3,0.6c0.5,0,0.9-0.2,1.3-0.6c0.4-0.4,0.5-0.8,0.5-1.3v-1.7c0-0.5-0.2-0.9-0.5-1.3C5.4,8.4,4.9,8.3,4.5,8.3
			C4,8.3,3.5,8.4,3.2,8.8c-0.4,0.4-0.5,0.8-0.5,1.3V11.8z"/>
		<path class="st0" d="M10.6,15V6.9c0-0.2,0.1-0.4,0.4-0.6C11.2,6.1,11.5,6,11.9,6c0.3,0,0.6,0.1,0.9,0.2c0.2,0.2,0.3,0.4,0.3,0.6
			v0.9c0.2-0.5,0.6-0.9,1-1.3c0.5-0.4,1-0.5,1.5-0.5h0.6c0.2,0,0.5,0.1,0.7,0.4c0.2,0.2,0.3,0.5,0.3,0.8c0,0.3-0.1,0.6-0.3,0.8
			c-0.2,0.2-0.4,0.4-0.7,0.4h-0.6c-0.6,0-1.2,0.3-1.7,0.8c-0.5,0.6-0.7,1.3-0.7,2.2V15c0,0.2-0.1,0.4-0.4,0.6
			c-0.3,0.2-0.6,0.3-0.9,0.3c-0.4,0-0.7-0.1-0.9-0.3C10.7,15.4,10.6,15.2,10.6,15z"/>
		<path class="st0" d="M17.8,11.8v-1.6c0-1.3,0.4-2.3,1.1-3.1c0.7-0.8,1.8-1.2,3.3-1.2c0.9,0,1.7,0.2,2.3,0.5
			c0.6,0.3,0.9,0.7,0.9,1.1c0,0.3-0.1,0.6-0.3,0.9c-0.2,0.3-0.5,0.4-0.7,0.4c-0.1,0-0.3-0.1-0.7-0.3c-0.4-0.2-0.8-0.3-1.3-0.3
			c-1.3,0-2,0.6-2,1.9v1.6c0,1.3,0.7,1.9,2,1.9c0.5,0,0.9-0.1,1.3-0.3c0.4-0.2,0.7-0.3,0.8-0.3c0.3,0,0.6,0.1,0.8,0.4
			c0.2,0.3,0.3,0.6,0.3,0.8c0,0.4-0.3,0.8-1,1.2C24,15.8,23.2,16,22.3,16c-1.5,0-2.6-0.4-3.3-1.1C18.2,14.1,17.8,13,17.8,11.8z"/>
		<path class="st0" d="M27.1,15V1.2c0-0.2,0.1-0.4,0.4-0.6c0.2-0.2,0.6-0.2,1-0.2c0.4,0,0.7,0.1,0.9,0.2c0.3,0.2,0.4,0.3,0.4,0.6
			v6.3c0.2-0.4,0.5-0.8,1-1.1c0.5-0.3,1-0.5,1.6-0.5c0.9,0,1.8,0.4,2.5,1.2c0.7,0.8,1.1,1.8,1.1,2.9V15c0,0.3-0.1,0.5-0.4,0.6
			c-0.3,0.2-0.6,0.2-0.9,0.2c-0.3,0-0.6-0.1-0.9-0.2c-0.3-0.2-0.4-0.4-0.4-0.6v-4.9c0-0.5-0.2-0.9-0.5-1.3c-0.4-0.4-0.8-0.6-1.3-0.6
			c-0.5,0-0.8,0.2-1.2,0.5c-0.3,0.3-0.5,0.8-0.5,1.3V15c0,0.2-0.1,0.4-0.4,0.6c-0.3,0.2-0.6,0.3-0.9,0.3c-0.4,0-0.7-0.1-0.9-0.3
			C27.2,15.4,27.1,15.2,27.1,15z"/>
		<path class="st0" d="M37.2,13.2c0-1.1,0.4-1.8,1.2-2.3c0.8-0.4,2-0.7,3.6-0.7h0.8V10c0-0.5-0.1-1-0.4-1.4C42.1,8.2,41.7,8,41.1,8
			c-0.6,0-1.1,0.1-1.6,0.3c-0.4,0.2-0.7,0.3-0.8,0.3c-0.3,0-0.5-0.1-0.7-0.4c-0.2-0.3-0.2-0.6-0.2-0.9c0-0.4,0.4-0.7,1.1-1
			c0.7-0.3,1.4-0.4,2.2-0.4c1.5,0,2.6,0.4,3.3,1.1c0.7,0.8,1.1,1.7,1.1,2.9v5c0,0.2-0.1,0.4-0.4,0.6c-0.2,0.2-0.6,0.2-0.9,0.2
			c-0.3,0-0.6-0.1-0.9-0.3c-0.2-0.2-0.3-0.4-0.3-0.6v-0.6c-0.9,1.1-2,1.7-3.1,1.7c-0.8,0-1.4-0.2-1.9-0.7
			C37.5,14.8,37.2,14.1,37.2,13.2z M39.9,12.8c0,0.4,0.1,0.6,0.3,0.8c0.2,0.2,0.5,0.3,0.8,0.3c0.4,0,0.9-0.2,1.3-0.6
			c0.4-0.4,0.6-0.8,0.6-1.3v-0.4h-0.3c-0.8,0-1.5,0.1-2,0.2C40.1,12,39.9,12.3,39.9,12.8z"/>
		<path class="st0" d="M47.5,15V6.9c0-0.2,0.1-0.4,0.4-0.6C48.1,6.1,48.4,6,48.8,6c0.3,0,0.6,0.1,0.9,0.2C49.9,6.4,50,6.6,50,6.9
			v0.9c0.2-0.5,0.6-0.9,1-1.3c0.5-0.4,1-0.5,1.5-0.5h0.6c0.2,0,0.5,0.1,0.7,0.4c0.2,0.2,0.3,0.5,0.3,0.8c0,0.3-0.1,0.6-0.3,0.8
			c-0.2,0.2-0.4,0.4-0.7,0.4h-0.6c-0.6,0-1.2,0.3-1.7,0.8c-0.5,0.6-0.7,1.3-0.7,2.2V15c0,0.2-0.1,0.4-0.4,0.6
			c-0.3,0.2-0.6,0.3-0.9,0.3c-0.4,0-0.7-0.1-0.9-0.3C47.6,15.4,47.5,15.2,47.5,15z"/>
		<path class="st0" d="M55.3,15V1.2c0-0.2,0.1-0.4,0.4-0.6c0.2-0.2,0.6-0.2,1-0.2c0.4,0,0.7,0.1,0.9,0.2c0.3,0.2,0.4,0.3,0.4,0.6
			v6.3c0.2-0.4,0.5-0.8,1-1.1c0.5-0.3,1-0.5,1.6-0.5c0.9,0,1.8,0.4,2.5,1.2C63.7,8,64,8.9,64,10.1V15c0,0.3-0.1,0.5-0.4,0.6
			c-0.3,0.2-0.6,0.2-0.9,0.2c-0.3,0-0.6-0.1-0.9-0.2c-0.3-0.2-0.4-0.4-0.4-0.6v-4.9c0-0.5-0.2-0.9-0.5-1.3c-0.4-0.4-0.8-0.6-1.3-0.6
			c-0.5,0-0.8,0.2-1.2,0.5c-0.3,0.3-0.5,0.8-0.5,1.3V15c0,0.2-0.1,0.4-0.4,0.6c-0.3,0.2-0.6,0.3-0.9,0.3c-0.4,0-0.7-0.1-0.9-0.3
			C55.4,15.4,55.3,15.2,55.3,15z"/>
		<path class="st0" d="M65.8,2.7c0-0.3,0.1-0.6,0.4-0.8c0.3-0.2,0.6-0.3,1.1-0.3c0.4,0,0.7,0.1,1,0.3c0.3,0.2,0.4,0.5,0.4,0.8
			c0,0.3-0.1,0.6-0.4,0.8c-0.3,0.2-0.6,0.4-1,0.4c-0.4,0-0.8-0.1-1.1-0.4C66,3.3,65.8,3,65.8,2.7z M66.1,15V6.9
			c0-0.2,0.1-0.4,0.4-0.6C66.7,6.1,67,6,67.4,6c0.4,0,0.7,0.1,0.9,0.2c0.2,0.2,0.4,0.3,0.4,0.6V15c0,0.2-0.1,0.4-0.4,0.6
			c-0.3,0.2-0.6,0.3-0.9,0.3c-0.4,0-0.7-0.1-0.9-0.3C66.2,15.4,66.1,15.2,66.1,15z"/>
		<path class="st0" d="M70.7,15V6.9c0-0.2,0.1-0.4,0.4-0.6C71.3,6.1,71.6,6,72,6c0.3,0,0.6,0.1,0.8,0.2c0.2,0.2,0.3,0.4,0.3,0.6v0.6
			c0.2-0.4,0.6-0.8,1.1-1.1c0.5-0.3,1.1-0.5,1.7-0.5c0.9,0,1.8,0.4,2.5,1.2c0.7,0.8,1.1,1.8,1.1,2.9V15c0,0.3-0.1,0.5-0.4,0.6
			c-0.3,0.2-0.6,0.2-0.9,0.2c-0.3,0-0.6-0.1-0.9-0.2c-0.3-0.2-0.4-0.4-0.4-0.6v-4.9c0-0.5-0.2-0.9-0.5-1.3c-0.4-0.4-0.8-0.6-1.3-0.6
			c-0.5,0-0.8,0.2-1.2,0.5c-0.3,0.3-0.5,0.8-0.5,1.3V15c0,0.2-0.1,0.4-0.4,0.6c-0.3,0.2-0.6,0.3-0.9,0.3c-0.4,0-0.7-0.1-0.9-0.3
			C70.8,15.4,70.7,15.2,70.7,15z"/>
		<path class="st0" d="M81.1,11.8v-1.7c0-1.1,0.4-2.1,1.3-2.9c0.9-0.8,1.9-1.2,3.1-1.2c1.2,0,2.2,0.4,3.1,1.2C89.5,8,90,8.9,90,10.1
			v1.7c0,1.1-0.4,2.1-1.3,2.9c-0.9,0.8-1.9,1.3-3.1,1.3c-1.2,0-2.2-0.4-3.1-1.3C81.5,13.9,81.1,12.9,81.1,11.8z M83.7,11.8
			c0,0.5,0.2,0.9,0.5,1.3c0.4,0.4,0.8,0.6,1.3,0.6c0.5,0,0.9-0.2,1.3-0.6c0.4-0.4,0.5-0.8,0.5-1.3v-1.7c0-0.5-0.2-0.9-0.5-1.3
			c-0.4-0.4-0.8-0.6-1.3-0.6c-0.5,0-0.9,0.2-1.3,0.6c-0.4,0.4-0.5,0.8-0.5,1.3V11.8z"/>
	</g>
</g>
</svg>
