<?xml version="1.0" encoding="utf-8"?>
<svg viewBox="170.95 443.314 738.1 193.366" xmlns="http://www.w3.org/2000/svg">
  <defs>
    <style type="text/css">
	.st0{fill:#FFFFFF;}
</style>
  </defs>
  <g>
    <g>
      <path class="st0" d="M419.2,608.91l-4.95-14.81h-32.92l-4.95,14.81h-17.65l28.71-82.32h20.22l28.94,82.32H419.2z M386.49,578.8 h22.59l-11.3-33.62L386.49,578.8z"/>
      <path class="st0" d="M444.14,608.91v-85.86h15.28v85.86H444.14z"/>
      <path class="st0" d="M538.22,548.48c6.82,0,12,2.11,16.01,6.58c4.01,4.48,6.12,10.36,6.12,17.65v36.23H545.3v-35.29 c0-3.54-0.94-6.35-2.58-8.22c-1.64-1.87-4.24-2.81-7.29-2.81c-3.54,0-6.12,1.17-7.99,3.54c-1.87,2.34-2.81,5.65-2.81,9.89v32.92 H509.6v-35.29c0-3.54-0.94-6.35-2.58-8.22c-1.64-1.87-4.24-2.81-7.29-2.81c-3.31,0-6.12,1.17-8.22,3.54 c-1.87,2.34-2.81,5.65-2.81,9.89V609h-15.04v-58.88h15.04v6.35c3.54-5.18,8.93-7.99,16.48-7.99c7.29,0,12.47,2.81,16.01,8.46 C524.55,551.29,530.44,548.48,538.22,548.48z"/>
      <path class="st0" d="M617.93,550.12h15.04v58.79h-15.04v-7.05c-4.48,5.65-11.06,8.69-19.28,8.69c-7.75,0-14.57-3.04-20.22-8.93 c-5.65-6.12-8.46-13.4-8.46-22.12s2.81-16.01,8.46-21.86c5.65-6.12,12.47-9.16,20.22-9.16c8.22,0,14.57,2.81,19.28,8.69V550.12z M589.96,591.53c3.04,3.04,6.82,4.71,11.53,4.71c4.71,0,8.69-1.4,11.76-4.71c3.04-3.04,4.71-7.05,4.71-12s-1.64-8.93-4.71-11.76 c-3.04-3.04-7.05-4.71-11.76-4.71c-4.71,0-8.46,1.64-11.53,4.71c-3.07,3.07-4.48,7.05-4.48,11.76 C585.48,584.24,586.89,588.45,589.96,591.53z"/>
      <path class="st0" d="M326.06,575.52c6.12-0.47,11.06,3.54,11.53,9.66c0.47,6.35-4.01,11.53-10.13,12 c-5.88,0.47-11.06-4.01-11.53-9.89C315.46,580.93,319.71,576.22,326.06,575.52z"/>
      <path class="st0" d="M251.73,625.62c0-6.12,4.71-10.83,10.36-10.83s11.06,5.18,11.06,11.06c0,5.65-4.71,10.59-10.13,10.83 C256.21,636.68,251.73,632.44,251.73,625.62z"/>
      <path class="st0" d="M268.44,556.94c-0.94,0.47-1.4-0.23-1.64-0.94c-8.69-16.24-6.12-36.7,9.16-48.93 c4.01-3.31,11.53-4.01,14.81-0.7c1.4,1.17,1.64,2.58,1.87,4.24c0.47,3.54,1.17,7.05,3.54,9.89c2.58,3.04,5.88,4.24,9.66,4.01 c3.31,0,6.58-0.47,8.69,3.31c1.17,2.11,0.7,10.36-1.17,12c-0.94,0.7-1.64,0.23-2.34,0c-5.41-2.11-11.06-2.11-16.71-1.17 c-1.87,0.23-2.81-0.23-2.81-2.34c-0.23-3.54-0.94-6.82-2.81-9.89c-3.54-6.35-10.13-6.58-14.34-0.7 c-3.54,4.71-4.48,10.36-5.41,16.01C267.97,546.58,268.2,551.76,268.44,556.94z"/>
      <path class="st0" d="M274.32,560.48c-0.47-0.7-0.23-1.4,0.47-1.87c13.4-12.23,33.39-14.57,48.93-2.58 c4.01,3.31,6.58,10.13,4.48,14.11c-0.94,1.64-2.11,2.34-3.54,2.81c-3.31,1.4-6.35,2.81-8.46,5.88c-2.11,3.04-2.58,6.58-1.64,10.36 c0.7,3.04,1.87,6.35-1.17,9.16c-1.64,1.64-9.66,3.04-11.76,1.64c-0.94-0.7-0.7-1.4-0.47-2.34c0.7-5.88-0.7-11.3-2.81-16.48 c-0.7-1.87-0.47-2.81,1.4-3.31c3.31-0.94,6.35-2.58,8.69-4.95c5.18-4.95,4.01-11.3-2.81-14.11c-5.41-2.34-11.06-1.87-16.48-1.4 C283.95,557.64,279,559.04,274.32,560.48z"/>
      <path class="st0" d="M271.25,566.59c0.7-0.7,1.17-0.47,1.87,0c15.51,9.39,23.53,27.98,16.48,46.09 c-1.87,4.71-7.99,9.39-12.47,8.22c-1.87-0.47-2.81-1.4-3.77-2.58c-2.11-2.81-4.48-5.41-7.99-6.58c-3.77-1.17-7.05-0.47-10.36,1.4 c-2.81,1.64-5.65,3.77-9.16,1.64c-2.11-1.17-5.65-8.46-4.95-10.83c0.47-0.94,1.4-0.94,2.34-0.94c5.88-0.94,10.59-3.78,15.04-7.52 c1.4-1.17,2.58-1.17,3.78,0.47c1.87,2.81,4.24,5.18,7.29,6.82c6.12,3.54,12,0.47,12.7-6.58c0.7-5.88-1.4-11.06-3.31-16.24 C276.66,575.29,274.09,570.81,271.25,566.59z"/>
      <path class="st0" d="M263.73,568c-0.94,4.71-3.04,9.16-5.88,13.17c-8.46,12.7-20.69,17.88-35.76,16.48 c-5.41-0.47-9.89-4.95-10.36-9.39c-0.23-1.87,0.23-3.31,1.4-4.71c1.64-2.11,3.04-4.01,3.77-6.58c1.4-5.18-0.47-9.39-4.24-13.17 c-5.18-5.18-4.48-9.89,1.64-13.64c0.7-0.47,1.64-0.94,2.58-1.4c1.4-0.7,2.58-0.7,3.04,0.94c2.11,5.41,6.35,9.39,11.06,12.7 c1.64,1.4,1.64,2.34,0.23,4.01c-2.81,3.04-4.48,6.82-4.71,11.06c-0.47,5.18,2.58,8.46,7.75,8.46c3.31,0,6.35-1.17,9.16-2.58 c7.29-3.78,12.93-9.16,18.35-14.81C262.56,568.23,262.79,567.77,263.73,568z"/>
      <path class="st0" d="M225.16,518.6c0.47,0,1.64,0.23,2.81,0.47c8.69,1.64,14.11-1.4,16.94-9.66c1.87-5.41,5.88-7.05,11.06-4.24 c0.23,0,0.23,0.23,0.47,0.23c5.18,3.04,5.18,3.54,1.64,8.22c-2.81,3.78-4.24,7.99-4.95,12.47c-0.47,2.58-1.4,3.04-3.78,2.11 c-3.78-1.4-7.75-1.4-11.76,0c-4.48,1.4-6.35,5.41-4.95,9.89c1.87,5.88,7.05,8.46,11.53,11.53c4.48,3.04,9.66,4.71,14.57,6.82 c0.7,0.23,1.87,0.23,1.64,1.4c-0.23,0.7-1.17,0.7-2.11,0.7c-10.59,0.47-20.69-1.17-28.94-8.22c-7.75-6.35-13.4-14.11-12.47-24.93 C218.1,521.88,220.68,519.3,225.16,518.6z"/>
      <path class="st0" d="M205.87,584.68c-5.65,0.7-11.3-4.01-11.76-9.89c-0.47-5.65,4.24-11.3,9.66-11.76 c6.12-0.7,11.76,3.54,12.23,9.16C216.2,577.63,212.69,584.21,205.87,584.68z"/>
      <path class="st0" d="M304.64,500.96c5.88-0.47,11.53,4.24,12,10.13c0.47,5.65-4.24,11.06-9.89,11.53 c-6.12,0.47-11.53-4.01-12-9.89C294.31,506.84,298.55,501.42,304.64,500.96z"/>
      <path class="st0" d="M243.27,505.43c0.7,6.12-3.54,11.3-9.89,12.23c-5.41,0.7-11.06-3.78-11.76-8.93 c-0.7-6.82,3.04-11.76,9.39-12.47C236.92,495.54,242.57,500.02,243.27,505.43z"/>
      <path class="st0" d="M762.73,548.92c9.42,0,15.89,4.45,19.4,9.34v-8.37h14.95v58.73h-14.95v-8.57 c-3.51,5.09-10.18,9.54-19.52,9.54c-14.84,0-26.72-12.2-26.72-30.52S747.78,548.92,762.73,548.92z M766.56,561.97 c-7.96,0-15.48,5.94-15.48,17.06c0,11.12,7.52,17.5,15.48,17.5c8.16,0,15.6-6.15,15.6-17.29 C782.13,568.12,774.73,561.97,766.56,561.97z"/>
      <path class="st0" d="M826.47,608.62h-14.84v-58.73h14.84v9.13c3.72-6.06,9.86-9.98,18.03-9.98v15.6h-3.92 c-8.81,0-14.11,3.39-14.11,14.75V608.62z"/>
      <path class="st0" d="M880.11,609.55c-17.06,0-29.47-11.88-29.47-30.32c0-18.55,12.09-30.32,29.47-30.32 c16.97,0,28.94,11.56,28.94,29.06c0,1.9-0.12,3.8-0.41,5.74h-42.93c0.73,8.69,6.67,13.58,14.11,13.58c6.35,0,9.86-3.19,11.76-7.11 h16.01C904.4,600.98,894.62,609.55,880.11,609.55z M865.8,573.74h27.89c-0.2-7.73-6.35-12.61-13.99-12.61 C872.59,561.12,866.97,565.66,865.8,573.74z"/>
      <path class="st0" d="M688.58,526.59c17.91,0,32.45,9.57,37.87,26.1h-18.58c-3.8-7.73-10.74-11.56-19.4-11.56 c-14.08,0-24.14,10.27-24.14,26.66c0,16.27,10.04,26.66,24.14,26.66c8.66,0,15.6-3.8,19.4-11.65h18.58 c-5.41,16.62-19.99,26.1-37.87,26.1c-23.21,0-40.88-16.97-40.88-41.12C647.7,543.68,665.37,526.59,688.58,526.59z"/>
    </g>
    <path class="st0" d="M170.95,513.08c0.18-13.85,4.27-26.56,12.71-37.72c4.97-6.63,11.01-12.16,18.31-16.24 c1.44-0.81,1.88-1.51,0.96-3.06c-1.4-2.47-2.54-5.12-3.68-7.7c-0.66-1.47-0.18-2.91,0.96-3.98c1.22-1.14,2.73-1.33,4.27-0.74 c1.1,0.41,1.69,1.22,2.21,2.21c1.14,2.32,2.32,4.57,3.43,6.89c0.63,1.33,1.36,1.69,2.91,1.11c10.13-3.87,20.66-4.97,31.35-3.54 c10.17,1.4,19.56,4.9,27.99,10.76c2.25,1.51,4.31,3.2,6.37,4.97c1.88,1.58,1.62,4.13-0.41,5.3c-0.96,0.55-1.88,0.48-2.84-0.04 c-1.4-0.74-2.5-1.95-3.98-2.62c-7-3.17-13.59-2.43-19.6,2.32c-3.61,2.84-4.64,6.89-4.46,11.23c0.04,1.47,0.18,2.84-1.18,3.76 c-1.4,0.88-2.76,0.59-4.16-0.22c-7.59-4.13-15.03-3.43-22.17,0.99c-3.28,1.99-6.19,4.49-8.36,7.7c-1.47,2.21-2.69,4.49-2.62,7.26 c0.04,1.25-0.44,2.25-1.69,2.8c-1.22,0.59-2.32,0.37-3.32-0.4c-1.07-0.81-2.06-1.77-3.2-2.47c-6-3.72-11.34-2.65-17.28,1.99 c-4.31,3.43-6,8.21-6.11,13.56c-0.04,1.51-0.55,2.62-1.99,3.2c-1.33,0.52-2.43,0.07-3.39-0.88c-0.4-0.44-0.66-0.96-0.7-1.55 C171.17,516.32,171.06,514.66,170.95,513.08z"/>
  </g>
</svg>