<?xml version="1.0" encoding="UTF-8"?>
<!-- Generator: Adobe Illustrator 16.0.3, SVG Export Plug-In . SVG Version: 6.00 Build 0)  -->
<!DOCTYPE svg PUBLIC "-//W3C//DTD SVG 1.1//EN" "http://www.w3.org/Graphics/SVG/1.1/DTD/svg11.dtd">
<svg version="1.1" id="logo" xmlns="http://www.w3.org/2000/svg" width="800px" height="190.803px">
<path fill="#ffffff" d="m187.888 178.122h-44.368l-13.573-32.738h-73.944l-12.366 32.738h-43.637l66.667-165.346h47.761zm-96.733-125.836-24.243 64.244h50.913z"/>
<path fill="#ffffff" d="m349.056 12.776h35.88v165.346h-41.219v-103.28l-44.608 51.877h-6.301l-44.605-51.877v103.278h-41.219v-165.344h35.88l53.092 61.336z"/>
<path fill="#ffffff" d="m489.375 12.776c60.364 0 91.391 37.573 91.391 82.909 0 47.517-30.058 82.437-96 82.437h-68.369v-165.346zm-31.762 135.041h26.906c41.457 0 53.823-28.129 53.823-52.377 0-28.368-15.276-52.363-54.308-52.363h-26.422v104.74z"/>
<polygon fill="#ffffff" points="662.769 51.981 610.797 0 800 0 800 189.21 748.028 137.235 748.028 51.981"/>
<polygon fill="#ffffff" points="662.708 62.397 609.2 115.903 609.2 190.802 684.089 190.802 737.594 137.296 662.708 137.296"/>
</svg>
