<?xml version="1.0" encoding="UTF-8"?>
<svg id="Calque_1" data-name="Calque 1" xmlns="http://www.w3.org/2000/svg" viewBox="0 0 432 163.15">
  <defs>
    <style>
      .cls-1 {
        fill: #fff;
      }
    </style>
  </defs>
  <path class="cls-1" d="M369.58,73.34c5.35,0,9.7.09,14.05-.03,4.33-.11,7-2.01,8.16-5.51,1.84-5.54-1.43-10.75-7.48-11.24-4.79-.39-9.63-.08-14.45-.16-2.25-.03-1.91,1.52-1.92,2.87.02,12.84-.06,25.68.01,38.52.04,1.57-.41,2.23-2.14,2.34-7.78.46-7.78.52-7.78-7.27,0-14.02.1-28.04-.08-42.05-.04-3.07.96-3.71,3.79-3.64,7.71.19,15.43-.1,23.13.14,18.55-.42,24.67,27.04,6.94,33.19-2.66.84-2.29,1.68-.76,3.34,4.06,4.41,8.01,8.91,11.97,13.41.6.68,1.76,1.35,1.28,2.34-.48.98-1.74.33-2.64.49-6.21,1.11-10.54-1.23-14.38-6.31-5.2-6.88-11.28-13.1-17.72-20.44Z"/>
  <path class="cls-1" d="M263.94,93.63c3.06-8.91,5.84-16.98,8.6-25.06,2.21-6.48,4.38-12.98,6.58-19.46.79-2.32,3.63-3.56,5.77-2.58,1.36.62.38,1.46.15,2.13-5.67,16.27-11.58,32.45-17.24,48.72-.63,1.82-1.32,2.88-3.53,2.77-2.06-.11-3.46-.21-4.34-2.62-5.03-13.34-9.64-26.74-13.89-40.36-1.56.69-1.47,2.03-1.79,3.06-3.86,12.59-8.53,24.9-13.02,37.27-.86,2.38-2.21,2.58-4.3,2.65-2.14.07-2.94-.84-3.61-2.71-5.6-15.84-11.31-31.64-16.9-47.48-.36-1.01-2.08-2.81-.01-3.28,1.77-.4,4.32-1.37,5.41,2.05,4.84,14.97,10.02,29.32,15.1,44.32,1.05-.78,1.17-1.71,1.46-2.53,4.71-13.54,9.41-27.09,14.18-40.61.51-1.43.35-3.42,2.97-3.48,2.83-.07,2.64,2.1,3.17,3.61,5.24,14.64,9.8,28.98,15.25,43.62Z"/>
  <path class="cls-1" d="M306.99,61.8c-4.35,12.02-8.54,23.24-12.4,34.57-1.01,2.98-2.41,3.89-5.46,3.79-6.82-.23-6.85-.08-4.57-6.41,5.28-14.7,10.62-29.38,15.86-44.09.63-1.76,1.45-2.48,3.43-2.49,8.86-.06,8.82-.12,11.84,8.29,4.95,13.79,9.88,27.6,15,41.33,1.06,2.84.51,3.4-2.36,3.35-7.36-.12-7.39,0-9.91-6.94-3.93-10.59-7.29-20.81-11.44-31.4Z"/>
  <path class="cls-1" d="M100.35,55.14c13.43-17.51,42-9.38,43.52,12.46.64,10.12.17,20.32.29,30.48.03,2.24-1.37,1.87-2.75,1.99-1.94.18-2.31-.75-2.3-2.45.05-9.2.13-18.4-.02-27.6-.19-11.4-9.22-20.04-20.23-19.6-10.1.4-18.35,9.17-18.48,19.83-.11,8.99-.06,17.98,0,26.96.01,1.82-.08,2.92-2.49,2.94-2.52.02-2.44-1.28-2.44-3,.02-16.37.03-32.74-.01-49.11,0-1.69.07-2.75,2.32-2.71,2.14.03,2.8.66,2.63,2.73-.16,2-.04,4.02-.04,7.08Z"/>
  <path class="cls-1" d="M162.49,122.21c2.99-7.01,5.84-13.8,8.8-20.55.64-1.46.8-2.68.16-4.23-6.52-15.82-12.97-31.66-19.34-47.54-.38-.95-2.29-2.66-.16-3.23,1.68-.45,4.18-1.29,5.31,1.8,5.62,14.87,11.78,29.59,17.61,44.36,1.35-.35,1.32-1.36,1.6-2.09,5.18-13.48,11.06-26.67,16.72-39.94,1.95-4.57,1.98-4.56,7.03-4.14.46.92-.27,1.6-.58,2.32-9.98,23.18-20.07,46.32-29.89,69.57-1.51,3.58-3.4,4.76-7.26,3.67Z"/>
  <path class="cls-1" d="M76.62,89.45c-14.92,19.25-46.2,12.04-49.92-11.79-.16-.79-1.02-2.21.65-2.18,1.48.03,3.55-1.28,4.43,1.13,2.01,11.67,13.43,20.45,24.94,18.68,25.15-3.51,26.16-38.84,1.97-44.19-1.15-.25-2.89.36-3.09-1.91-.31-3.49,0-3.91,3.47-3.25,12.9,2.44,22.28,13.4,22.46,26.45.12,8.46-.02,16.92.07,25.38.02,2.03-.46,2.83-2.66,2.83-2.23,0-2.39-1.09-2.34-2.8.08-2.53.02-5.06.02-8.36Z"/>
  <path class="cls-1" d="M348.51,73.69c0,7.81-.1,15.61.06,23.42.05,2.45-.73,3.06-3.09,3.04-6.83-.07-6.83.03-6.83-6.63,0-14.33.07-28.66-.06-42.99-.03-2.72.8-3.42,3.43-3.36,6.5.15,6.5.02,6.5,6.63s0,13.26,0,19.89Z"/>
  <path class="cls-1" d="M28.49,73.19c-2.19.52-2.33-.85-2.14-2.75,1.32-13.02,11.64-23.43,24.72-24.85,1.09-.12,2.62-.64,2.42,1.36-.15,1.42,1.15,3.35-1.82,3.85-11.98,2.05-18.05,8.35-20.11,20.45q-.33,1.92-3.07,1.93Z"/>
  <path class="cls-1" d="M35.72,73.11c-1.93.33-2.36-.55-2.19-2.36.86-8.97,8.88-17.11,17.81-18,1.27-.13,2.47-.26,2.35,1.57-.09,1.35.66,2.93-1.8,3.31-7.66,1.19-12.22,5.76-13.41,13.42-.3,1.92-1.17,2.28-2.77,2.07Z"/>
  <path class="cls-1" d="M42.72,73.07c-2.23.38-2.47-.84-2.16-2.65.87-5.13,5.6-9.91,10.72-10.7,1-.15,2.39-.64,2.47,1.03.06,1.31.89,3.06-1.48,3.56-9.13,2.19-5.13,9.58-9.55,8.75Z"/>
  <path class="cls-1" d="M57.81,73.3c-.59,5.11-8.26,4.46-7.64-.7.45-4.97,7.78-4.24,7.64.7Z"/>
</svg>
