<svg xmlns="http://www.w3.org/2000/svg" xmlns:xlink="http://www.w3.org/1999/xlink" viewBox="0 0 4385.8389 1240.1875">
  <defs/>
  <path fill="#fff" d="M0 664.19971h566.29901v565.33197H0zM626.42395 664.11572h564.92401v566.26001H626.42395zM.11901855 40.115723h565.90002v563.92798H.11901855zM626.45911 39.726685h564.91803v563.82397H626.45911z"/>
  <g transform="translate(-1647.08 -1438.4373)">
    <defs>
      <path id="a" d="M0 0h7680v4320H0z"/>
    </defs>
    <clipPath id="b">
      <use width="100%" height="100%" overflow="visible" xlink:href="#a"/>
    </clipPath>
    <path fill="#fff" d="M3738.885 1977.746h-85.717v-381.229l-4.32-1.104c-5.555 13.6-11.242 27.148-16.646 40.809-42.549 107.508-85.369 214.904-127.18 322.695-5.957 15.355-13.381 20.932-29.984 20.352-37.533-1.303-37.453-.416-51.572-35.219-45.217-111.42-90.516-222.809-135.809-334.201-1.871-4.6-3.988-9.096-9.652-12.859v380.705h-80.52v-500.838h73.848c51.68 0 51.689 0 70.164 47.805 39.057 101.064 78.092 202.141 117.205 303.184 2.355 6.092 5.287 11.961 9.055 20.404 27.693-67.615 54.473-132.959 81.213-198.324 21.516-52.592 43.328-105.063 64.188-157.912 4.668-11.824 11.008-15.74 23.477-15.436 33.623.82 67.279.279 102.252.279v500.889zM5738.191 1617.264h122.652v-79.645c29.152-8.811 56.754-17.154 87.273-26.379v107.229h83.742v68.891h-83.699v34.592c0 44.357-.055 88.717.016 133.072.082 54.932 24 72.064 75.652 54.328 2.379-.816 4.879-1.275 9.09-2.359v42.623c0 29.354.188 30.865-29.301 34.676-21.391 2.77-43.848 3.777-65.023.438-49.293-7.777-76.082-44.24-76.984-102.51-.867-56.922-.203-113.871-.215-170.807v-22.297h-124.563v288.424h-86.098v-288.684h-60.496v-69.883h59.898c0-18.133-.027-33.816 0-49.5.16-82.422 62.512-138.461 144.902-130.236.656.064 1.313.176 1.969.256 41.031 4.805 32.41 1.98 33.211 37.383.301 13.137.051 26.281.051 39.709-14.023-2.404-26.207-5.973-38.477-6.309-29.758-.811-49.809 15.488-53.172 44.965-2.275 20.003-.432 40.478-.432 62.023M3642.334 2669.547c-28.908 0-56.725.719-84.439-.609-5.469-.266-13.168-7.418-15.381-13.121-12.184-31.402-23.447-63.188-34.004-95.18-3.904-11.828-9.576-16.66-22.535-16.5-54.957.68-109.928.637-164.889.023-12.207-.137-17.328 4.371-20.912 15.613-10.436 32.734-21.684 65.234-33.676 97.434-1.92 5.152-9.156 11.582-14.164 11.789-27.725 1.148-55.516.551-85.988.551 16.449-43.68 32.209-85.559 47.984-127.438 44.965-119.367 90.244-238.613 134.492-358.246 5.324-14.395 11.924-19.484 26.924-18.605 21.781 1.273 43.74-.48 65.512.855 6.033.371 15.004 5.844 17.008 11.117 61.557 161.836 122.412 323.941 183.34 486.02.433 1.152.312 2.512.728 6.297m-239.26-409.359c-24.977 71.227-49.107 140.043-73.461 209.484h147.777c-23.285-67.035-46-132.484-68.789-197.906-1.066-3.071-2.794-5.911-5.527-11.578M5393.738 1988.102c-125.832-.711-190.043-84.611-182.613-201.59 4.07-64.209 27.594-118.396 85.809-152.068 73.754-42.66 184.176-30.229 237.656 26.592 38.422 40.828 48.184 91.436 46.59 145.172-3.321 111.831-75.778 181.919-187.442 181.894m-95.14-183.623c3.031 15.584 4.859 34.855 10.672 52.836 12.441 38.477 45.402 59.424 89.031 59.201 43.316-.225 75.746-19.945 84.758-60.529 6.848-30.852 8.129-64.375 4.375-95.816-6.008-50.244-40.758-77.592-89.375-77.939-48.332-.348-82.828 27.264-93.047 75.396-3.004 14.138-4 28.702-6.414 46.851M4524.293 1797.799c1.691-65.316 21.816-124.689 84.074-161.957 73.699-44.115 185.449-32.324 239.422 24.801 38.52 40.768 49.098 91.309 47.145 144.977-2.633 72.344-29.07 133.684-98.641 163.596-72.043 30.977-145.203 29.4-210.406-20.109-48.336-36.709-61.504-90.261-61.594-151.308m283.109 2.012c-.637-.141-1.273-.279-1.91-.416-.492-9.916-.352-19.908-1.57-29.729-5.898-47.604-32.801-79.088-72.586-85.527-47.918-7.76-87.777 9.908-104.582 49.18-18.176 42.48-18.887 86.469-1.906 129.58 14.352 36.439 48.777 55.717 91.063 53.535 42.316-2.184 69.691-21.455 81.426-60.375 5.46-18.112 6.835-37.461 10.065-56.248M4955.438 2514.977h-244.473c4.004 58.867 36.063 91.137 92.594 95.254 37.301 2.719 72.34-4.305 105.227-22.113 4.629-2.508 9.379-4.801 14.113-7.098.438-.215 1.211.27 4.043 1.012 0 18.898.73 38.496-.508 57.965-.316 4.977-5.863 11.918-10.695 13.961-65.77 27.789-132.789 34.668-200.395 7.27-27.723-11.234-48.48-31.723-63.914-57.406-42.645-70.945-33.469-183.148 20.129-246.137 44.664-52.492 118.934-70.949 188.266-46.781 57.051 19.887 93.23 74.285 95.52 144.336.62 19.018.093 38.076.093 59.737m-84.528-64.036c.582-52.469-25.723-83.141-70.555-83.957-44.52-.805-84.684 38.32-85.441 83.957zM4010.418 2308.969h87.426v21.375c0 61.547-.117 123.094.121 184.641.043 10.52.945 21.145 2.625 31.535 5.895 36.543 24.082 56.055 55.547 60.492 37.363 5.273 69.828-10.207 82.648-43.492 6.691-17.375 9.262-37.207 9.609-56.008 1.191-64.168.566-128.375.684-192.563 0-1.258.578-2.512 1.281-5.367h84.27v358.484h-85.434v-44.371c-23.688 25.008-47.152 44.125-77.563 46.457-26.578 2.039-54.641 2.773-80.18-3.512-50.977-12.547-73.938-52.418-77.246-101.398-3.918-57.988-2.898-116.316-3.723-174.5-.381-26.941-.065-53.89-.065-81.773M3856.348 2376.102h-170.217v-66.777h286.314c2.664 17.152 2.797 32.723-9.359 48.992-55.016 73.652-108.684 148.313-162.783 222.645-4.104 5.637-7.791 11.57-13.455 20.02h186.336v67.27h-299.896c-2.332-21.527-2.324-40.742 12.789-60.453 53.107-69.281 104.107-140.188 155.854-210.516 4.217-5.728 8.018-11.756 14.417-21.181M4934.934 1888.959c25.992 9.699 49.324 21.061 73.961 26.699 17.324 3.965 37.02 2.904 54.598-.863 26.121-5.596 33.664-34.516 14.734-53.832-8.969-9.152-21.094-15.615-32.609-21.768-13.355-7.137-27.777-12.244-41.445-18.844-55.273-26.686-75.133-60.525-68.648-116.309 4.98-42.744 44.566-80.457 95.891-90.893 37.055-7.535 73.531-4.1 109.773 5.928 10.426 2.889 15.641 7.137 15.172 18.896-.852 21.516-.238 43.092-.238 62.656-26.457-7.545-50.875-14.512-75.297-21.469-.637-.18-1.301-.24-1.957-.295-29.785-2.516-51.063 7.328-56.258 26.02-5.953 21.424 3.641 35.996 33.844 50.557 22.578 10.883 46.426 19.568 67.816 32.393 70.516 42.26 69.41 138.727-2.59 178.559-57.848 32.004-118.504 25.289-178.566 5.252-3.781-1.26-7.652-8.639-7.816-13.303-.799-23.089-.365-46.22-.365-69.384M4248.168 1709.887c-81.793-39.244-134.094-34.969-170.258 12.48-32.859 43.107-31.785 120.088 2.227 159.604 36.609 42.527 93.18 44.42 167.688 3.717 0 26.168.25 50.715-.359 75.244-.066 2.607-4.785 5.711-7.949 7.543-97.738 56.664-237.113 4.08-265.922-103.172-21.035-78.32-7.16-151.355 53.082-210.268 48.352-47.285 152.84-61.316 212.391-29.516 4.434 2.367 8.473 9.768 8.691 14.996.956 22.424.409 44.917.409 69.372M4621.676 2392.219c-8.18-3.039-14.141-5.508-20.266-7.484-43.637-14.066-81.891 4.383-95.691 48.223-5.25 16.684-7.219 34.945-7.527 52.543-.941 53.539-.34 107.109-.34 160.664v22.258h-85.113v-358.914h84.941v45.422c26.234-40.309 61.371-56.473 107.316-51.59 12 1.273 17.547 4.914 16.965 18.133-1.012 22.897-.281 45.874-.281 70.745M4395.855 1977.748h-83.723v-357.504h83.496v51.684c18.031-29.496 36.527-50.316 66.406-56.467 2.582-.533 5.066-1.572 7.66-2.018 43.672-7.42 50.684-1.643 50.684 41.629v45.324c-12.879-3.217-23.871-6.988-35.176-8.592-38.938-5.523-69.66 12.783-80.938 50.477-5.414 18.096-7.723 37.676-8.043 56.639-.994 58.855-.366 117.744-.366 178.828M3822.2251 1619.748h83.294998v358.25601H3822.2251zM3863.969 1564.24c-28.988-.447-51.016-21.936-50.885-49.639.141-29.037 22.328-49.873 52.744-49.529 28.508.324 51.391 22.24 51.602 49.412.207 27.553-24.137 50.209-53.461 49.756" clip-path="url(#b)"/>
  </g>
</svg>
