<?xml version="1.0" encoding="utf-8"?>
<!-- Generator: Adobe Illustrator 26.0.3, SVG Export Plug-In . SVG Version: 6.00 Build 0)  -->
<svg version="1.1" id="Ebene_1" xmlns="http://www.w3.org/2000/svg" xmlns:xlink="http://www.w3.org/1999/xlink" x="0px" y="0px"
	 viewBox="0 0 225.6 42.9" style="enable-background:new 0 0 225.6 42.9;" xml:space="preserve">
<style type="text/css">
	.st0{fill:#FFFFFF;}
</style>
<g>
	<path class="st0" d="M23.2,9.2c6,0,9.4,3.1,10.9,6.7l-5,1.7c-1-2.5-3.3-3.9-6.1-3.9c-4.6,0-8.5,3.9-8.5,9.2c0,3.7,2.7,6.5,6.9,6.5
		c2.1,0,4.4-1.1,5.7-2.8l4,2.7c-2.8,3.5-6.8,4.6-10,4.6c-6.7,0-12-4.2-12-10.7C9,14.8,15.6,9.2,23.2,9.2"/>
	<polygon class="st0" points="38.3,9.6 43.5,9.6 39.2,28.9 49.4,28.9 48.5,33.4 32.9,33.4 	"/>
	<path class="st0" d="M63.5,29.3c-3.9,0-6.9-2.5-6.9-6.5c0-5.1,3.7-9.2,8.4-9.2c3.9,0,6.9,2.5,6.9,6.5C72,25.2,68.2,29.3,63.5,29.3
		 M65.4,9.1c-8.1,0-14.2,6.2-14.2,14c0,6.5,5.3,10.7,12,10.7c8.1,0,14.2-6.2,14.2-14C77.4,13.3,72.1,9.1,65.4,9.1"/>
	<path class="st0" d="M79.6,25.5c0-0.5,0.1-1.6,0.3-2.5l3-13.5l5.3,0l-3,13.5c-0.2,0.8-0.3,1.4-0.3,1.9c0,2.5,1.7,4.4,5.1,4.4
		c3.8,0,5.6-2.3,6.3-5.6l3.2-14.2l5.3,0l-3.2,14.3c-1.3,5.8-4.3,10-11.9,10C83.1,33.8,79.6,30.4,79.6,25.5"/>
	<path class="st0" d="M114.5,28.8l-4.3,0l3.3-14.9l4.2,0c3.6,0,6.2,2.6,6.2,6.1C124,24.8,120.4,28.8,114.5,28.8 M118.8,9.5l-9.4,0
		L104,33.3l9.6,0c11.5,0,15.8-7.3,15.8-13.6C129.4,13.5,124.2,9.5,118.8,9.5"/>
	<polygon class="st0" points="135.2,9.4 152.5,9.4 151.5,13.8 139.4,13.8 138.3,19 148.9,19 147.9,23.3 137.3,23.3 135.1,33.3 
		129.9,33.3 	"/>
	<polygon class="st0" points="156.1,9.4 173.4,9.4 172.4,13.8 160.3,13.8 159.2,19 169.8,18.9 168.8,23.3 158.2,23.3 156.9,28.9 
		169,28.8 168,33.2 150.7,33.3 	"/>
	<path class="st0" d="M174.8,25.5c1.7,2.2,4.9,3.7,8.3,3.7c2.6,0,3.7-1.5,3.7-2.8c0-1.4-1.9-2.2-4.2-3c-3.4-1.2-7.7-2.7-7.7-7
		c0-3.6,3.5-7.4,9.5-7.4c3.9,0,7.5,1.4,9.7,3.8l-3.2,3.5c-1.7-2-4.7-3-7.1-3c-2,0-3.4,1.2-3.4,2.5c0,1.3,1.9,2,4.2,2.9
		c3.4,1.2,7.7,2.8,7.7,6.9c0,4.2-3.5,8-9.6,8c-4.8,0-9-1.8-11.1-4.4L174.8,25.5z"/>
	<polygon class="st0" points="203.3,13.8 196.1,13.8 197.2,9.4 216.6,9.3 215.7,13.8 208.5,13.8 204.2,33.2 198.9,33.2 	"/>
	<path class="st0" d="M0,0v42.9l225.6,0V0H0z M221.1,38.4H4.5V4.5h216.6V38.4z"/>
</g>
<g>
</g>
<g>
</g>
<g>
</g>
<g>
</g>
<g>
</g>
<g>
</g>
</svg>
