<svg width="201" height="55" viewBox="0 0 201 55" fill="none" xmlns="http://www.w3.org/2000/svg">
<path d="M71.9519 22.8369C70.5995 22.8369 69.5524 23.3469 68.8106 24.367C68.0687 25.3793 67.6978 26.7935 67.6978 28.6095C67.6978 32.3884 69.1158 34.2779 71.9519 34.2779C73.142 34.2779 74.5832 33.9804 76.2756 33.3853V36.3992C74.8846 36.9787 73.3313 37.2685 71.6158 37.2685C69.1506 37.2685 67.265 36.5228 65.959 35.0313C64.653 33.5321 64 31.3838 64 28.5863C64 26.8244 64.3207 25.2827 64.9621 23.9613C65.6035 22.6321 66.5231 21.6159 67.7209 20.9126C68.9265 20.2017 70.3368 19.8462 71.9519 19.8462C73.5979 19.8462 75.2517 20.2442 76.9132 21.0401L75.754 23.9613C75.1203 23.6599 74.4828 23.3971 73.8414 23.173C73.2 22.9489 72.5701 22.8369 71.9519 22.8369Z" fill="#FAF9F8"/>
<path d="M82.4308 30.5338C82.4308 31.8166 82.6395 32.7864 83.0568 33.4433C83.4818 34.1001 84.1696 34.4286 85.1201 34.4286C86.0629 34.4286 86.7391 34.104 87.1486 33.4549C87.5659 32.798 87.7746 31.8243 87.7746 30.5338C87.7746 29.2509 87.5659 28.2888 87.1486 27.6474C86.7313 27.006 86.0474 26.6853 85.0969 26.6853C84.1541 26.6853 83.4741 27.006 83.0568 27.6474C82.6395 28.2811 82.4308 29.2432 82.4308 30.5338ZM91.3912 30.5338C91.3912 32.6434 90.8348 34.2933 89.722 35.4834C88.6092 36.6735 87.0598 37.2685 85.0737 37.2685C83.8296 37.2685 82.7322 36.9981 81.7817 36.4571C80.8312 35.9084 80.1009 35.1241 79.5908 34.104C79.0808 33.0839 78.8258 31.8938 78.8258 30.5338C78.8258 28.4163 79.3783 26.7703 80.4834 25.5957C81.5885 24.4211 83.1418 23.8337 85.1433 23.8337C86.3875 23.8337 87.4848 24.1042 88.4353 24.6452C89.3858 25.1861 90.1161 25.9628 90.6262 26.9751C91.1362 27.9874 91.3912 29.1737 91.3912 30.5338Z" fill="#FAF9F8"/>
<path d="M98.4158 37.2685C96.8934 37.2685 95.6956 36.6774 94.8224 35.495C93.9568 34.3126 93.5241 32.6744 93.5241 30.5801C93.5241 28.455 93.9646 26.8012 94.8455 25.6189C95.7342 24.4288 96.9552 23.8337 98.5085 23.8337C100.139 23.8337 101.383 24.4674 102.241 25.7348H102.357C102.179 24.7688 102.09 23.9072 102.09 23.1498V19H105.637V37.0367H102.925L102.241 35.3559H102.09C101.287 36.631 100.062 37.2685 98.4158 37.2685ZM99.6561 34.4518C100.56 34.4518 101.221 34.189 101.638 33.6635C102.063 33.138 102.295 32.2455 102.334 30.9858V30.6033C102.334 29.2123 102.117 28.2154 101.685 27.6126C101.26 27.0099 100.564 26.7085 99.5981 26.7085C98.8099 26.7085 98.1955 27.0446 97.7551 27.717C97.3223 28.3816 97.1059 29.3514 97.1059 30.6265C97.1059 31.9016 97.3262 32.8598 97.7666 33.5012C98.2071 34.1349 98.8369 34.4518 99.6561 34.4518Z" fill="#FAF9F8"/>
<path d="M114.702 26.3491C113.953 26.3491 113.365 26.5887 112.94 27.0678C112.515 27.5392 112.272 28.2115 112.21 29.0848H117.171C117.156 28.2115 116.928 27.5392 116.487 27.0678C116.047 26.5887 115.452 26.3491 114.702 26.3491ZM115.201 37.2685C113.114 37.2685 111.484 36.6928 110.309 35.5414C109.134 34.3899 108.547 32.7594 108.547 30.6497C108.547 28.4782 109.088 26.8012 110.17 25.6189C111.259 24.4288 112.762 23.8337 114.679 23.8337C116.51 23.8337 117.936 24.3554 118.956 25.3986C119.976 26.4419 120.486 27.8831 120.486 29.7223V31.4379H112.129C112.167 32.4425 112.465 33.2269 113.021 33.791C113.578 34.3552 114.358 34.6372 115.363 34.6372C116.143 34.6372 116.881 34.5561 117.577 34.3938C118.272 34.2315 118.999 33.9726 119.756 33.6171V36.3528C119.138 36.6619 118.477 36.8899 117.774 37.0367C117.071 37.1913 116.213 37.2685 115.201 37.2685Z" fill="#FAF9F8"/>
<path d="M135.324 37.0367H131.788V29.4673C131.788 28.5323 131.622 27.8329 131.29 27.3692C130.958 26.8978 130.428 26.6621 129.702 26.6621C128.713 26.6621 127.998 26.9944 127.557 27.659C127.117 28.3159 126.897 29.4094 126.897 30.9395V37.0367H123.361V24.0772H126.062L126.537 25.7348H126.734C127.128 25.1088 127.669 24.6374 128.357 24.3206C129.053 23.996 129.841 23.8337 130.722 23.8337C132.229 23.8337 133.373 24.2433 134.153 25.0625C134.934 25.8739 135.324 27.0485 135.324 28.5863V37.0367Z" fill="#FAF9F8"/>
<path d="M141.78 30.5338C141.78 31.8166 141.989 32.7864 142.406 33.4433C142.831 34.1001 143.519 34.4286 144.47 34.4286C145.412 34.4286 146.089 34.104 146.498 33.4549C146.916 32.798 147.124 31.8243 147.124 30.5338C147.124 29.2509 146.916 28.2888 146.498 27.6474C146.081 27.006 145.397 26.6853 144.446 26.6853C143.504 26.6853 142.824 27.006 142.406 27.6474C141.989 28.2811 141.78 29.2432 141.78 30.5338ZM150.741 30.5338C150.741 32.6434 150.184 34.2933 149.072 35.4834C147.959 36.6735 146.409 37.2685 144.423 37.2685C143.179 37.2685 142.082 36.9981 141.131 36.4571C140.181 35.9084 139.45 35.1241 138.94 34.104C138.43 33.0839 138.175 31.8938 138.175 30.5338C138.175 28.4163 138.728 26.7703 139.833 25.5957C140.938 24.4211 142.491 23.8337 144.493 23.8337C145.737 23.8337 146.834 24.1042 147.785 24.6452C148.735 25.1861 149.466 25.9628 149.976 26.9751C150.486 27.9874 150.741 29.1737 150.741 30.5338Z" fill="#FAF9F8"/>
<path d="M159.122 34.4518C159.74 34.4518 160.482 34.3165 161.347 34.046V36.6774C160.466 37.0715 159.384 37.2685 158.101 37.2685C156.687 37.2685 155.656 36.9131 155.007 36.2021C154.365 35.4834 154.044 34.4092 154.044 32.9796V26.7317H152.352V25.2363L154.299 24.054L155.319 21.3183H157.58V24.0772H161.208V26.7317H157.58V32.9796C157.58 33.4819 157.719 33.8528 157.997 34.0924C158.283 34.332 158.658 34.4518 159.122 34.4518Z" fill="#FAF9F8"/>
<path d="M172.209 37.0367L171.525 35.2748H171.432C170.837 36.0244 170.223 36.546 169.589 36.8396C168.963 37.1256 168.144 37.2685 167.131 37.2685C165.887 37.2685 164.906 36.9131 164.187 36.2021C163.476 35.4911 163.121 34.4788 163.121 33.1651C163.121 31.7895 163.6 30.7772 164.558 30.128C165.524 29.4712 166.977 29.108 168.917 29.0384L171.165 28.9689V28.4009C171.165 27.0872 170.493 26.4303 169.148 26.4303C168.113 26.4303 166.896 26.7433 165.497 27.3692L164.326 24.9813C165.818 24.2008 167.471 23.8106 169.287 23.8106C171.026 23.8106 172.359 24.1892 173.287 24.9465C174.214 25.7039 174.678 26.8553 174.678 28.4009V37.0367H172.209ZM171.165 31.0322L169.798 31.0786C168.77 31.1095 168.005 31.2949 167.502 31.635C167 31.975 166.749 32.4928 166.749 33.1883C166.749 34.1851 167.321 34.6836 168.464 34.6836C169.284 34.6836 169.937 34.4479 170.423 33.9765C170.918 33.5051 171.165 32.8791 171.165 32.0986V31.0322Z" fill="#FAF9F8"/>
<path d="M185.562 23.8337C186.041 23.8337 186.439 23.8685 186.756 23.9381L186.49 27.2533C186.204 27.176 185.856 27.1374 185.446 27.1374C184.318 27.1374 183.437 27.4272 182.803 28.0068C182.177 28.5863 181.864 29.3978 181.864 30.441V37.0367H178.329V24.0772H181.007L181.528 26.2564H181.702C182.104 25.53 182.645 24.9465 183.325 24.5061C184.013 24.0579 184.759 23.8337 185.562 23.8337Z" fill="#FAF9F8"/>
<path d="M187.255 24.0772H191.126L193.572 31.3684C193.781 32.002 193.924 32.7516 194.001 33.6171H194.071C194.156 32.8212 194.322 32.0716 194.569 31.3684L196.968 24.0772H200.759L195.276 38.6943C194.774 40.0467 194.055 41.059 193.12 41.7313C192.193 42.4037 191.107 42.7398 189.863 42.7398C189.252 42.7398 188.653 42.6741 188.066 42.5428V39.7376C188.491 39.838 188.955 39.8883 189.457 39.8883C190.083 39.8883 190.628 39.6951 191.091 39.3087C191.563 38.93 191.93 38.3543 192.193 37.5815L192.401 36.944L187.255 24.0772Z" fill="#FAF9F8"/>
<path d="M27.8434 0.739655C12.8831 0.739655 0.739746 12.883 0.739746 27.8433C0.739746 42.8035 12.8831 54.9469 27.8434 54.9469C42.8036 54.9232 54.9233 42.8035 54.947 27.8433C54.947 12.883 42.8036 0.739655 27.8434 0.739655ZM27.8434 1.92322C42.1408 1.94689 53.7397 13.5458 53.7634 27.8433C53.7634 42.1644 42.1645 53.7633 27.8434 53.7633C13.5222 53.7633 1.92331 42.1644 1.92331 27.8433C1.92331 13.5222 13.5222 1.92322 27.8434 1.92322Z" fill="#FAF9F8"/>
<path d="M27.8435 51.9643C26.4469 51.9643 25.0503 51.846 23.6537 51.6092C23.4407 51.5856 23.2513 51.4435 23.1803 51.2305C23.1093 51.0175 23.1329 50.8044 23.275 50.6387C23.417 50.473 23.63 50.402 23.8431 50.4494C26.4706 50.8991 29.1691 50.8991 31.8203 50.4494C32.1517 50.402 32.4594 50.6151 32.5068 50.9228C32.5541 51.2542 32.3411 51.5619 32.0333 51.6092C30.6604 51.846 29.2401 51.9643 27.8435 51.9643ZM16.0789 48.8397C15.9842 48.8397 15.8658 48.816 15.7948 48.7687C13.3567 47.3484 11.2026 45.5257 9.37992 43.3716C9.16688 43.1113 9.19055 42.7562 9.45093 42.5431C9.71132 42.3301 10.0664 42.3538 10.2794 42.6142C12.0074 44.6736 14.0668 46.4016 16.3629 47.7272C16.5997 47.8692 16.6943 48.1296 16.647 48.3899C16.5997 48.6503 16.3629 48.8397 16.0789 48.8397ZM39.6318 48.8397C39.3714 48.8397 39.1347 48.6503 39.0637 48.4136C38.9927 48.1769 39.111 47.8692 39.3478 47.7508C41.6675 46.4016 43.7269 44.6736 45.4549 42.6378C45.597 42.4721 45.81 42.3774 46.0231 42.4248C46.2361 42.4721 46.4018 42.6142 46.4965 42.8035C46.5675 43.0166 46.5201 43.2296 46.3781 43.3953C44.5791 45.5494 42.4013 47.3721 39.9632 48.7687C39.8212 48.7924 39.7265 48.816 39.6318 48.8397ZM5.73455 36.5306C5.47416 36.5306 5.26112 36.3649 5.16643 36.1282C4.19591 33.477 3.69882 30.6838 3.72249 27.8669C3.72249 27.7012 3.7935 27.5592 3.88819 27.4409C4.00654 27.3225 4.14857 27.2752 4.31427 27.2752C4.64567 27.2752 4.90605 27.5355 4.90605 27.8669C4.90605 30.5418 5.37948 33.193 6.30266 35.7021C6.42101 36.0099 6.25531 36.3413 5.94759 36.4596C5.8529 36.507 5.80556 36.507 5.73455 36.5306ZM49.9762 36.507C49.9051 36.507 49.8341 36.507 49.7631 36.4833C49.6211 36.436 49.5027 36.3176 49.4317 36.1756C49.3607 36.0335 49.3607 35.8678 49.408 35.7258C50.3312 33.2167 50.781 30.5418 50.781 27.8669V27.8196C50.781 27.4882 51.0414 27.2278 51.3728 27.2278C51.7042 27.2278 51.9645 27.4882 51.9645 27.8196V27.8669C51.9645 30.6838 51.4674 33.477 50.5206 36.1282C50.4496 36.3413 50.2129 36.4833 49.9762 36.507ZM5.71087 20.4105C5.5215 20.4105 5.33213 20.3158 5.21378 20.1501C5.09542 19.9844 5.07175 19.795 5.14276 19.6057C6.11329 16.9545 7.50989 14.4927 9.33258 12.3386C9.54562 12.0782 9.92436 12.0545 10.1611 12.2676C10.3978 12.4806 10.4451 12.8593 10.2321 13.0961C8.50408 15.1555 7.15482 17.4753 6.25531 20.0081C6.1843 20.2448 5.97126 20.4105 5.71087 20.4105ZM49.9525 20.3395C49.6921 20.3395 49.4791 20.1738 49.3844 19.9607C48.4612 17.4516 47.1119 15.1081 45.3839 13.0724C45.2419 12.9067 45.2182 12.6936 45.2892 12.4806C45.3603 12.2912 45.526 12.1255 45.739 12.1019C45.952 12.0782 46.1651 12.1492 46.3071 12.3149C48.1298 14.469 49.5501 16.9071 50.5206 19.5583C50.639 19.866 50.4733 20.1974 50.1655 20.3158C50.0945 20.3158 50.0235 20.3395 49.9525 20.3395ZM16.0552 8.05408C15.7948 8.05408 15.5581 7.86471 15.4871 7.60432C15.4161 7.34394 15.5345 7.08355 15.7712 6.94153C18.2093 5.52125 20.8605 4.55073 23.63 4.05363C23.8431 4.00629 24.0561 4.10097 24.1981 4.26667C24.3402 4.43237 24.3638 4.64541 24.2928 4.85845C24.2218 5.07149 24.0561 5.21352 23.8431 5.23719C21.2156 5.71062 18.6827 6.6338 16.3629 7.98306C16.2446 8.03041 16.1499 8.05408 16.0552 8.05408ZM39.5845 8.03041C39.4898 8.03041 39.3714 8.00673 39.3004 7.95939C36.9806 6.6338 34.4478 5.71062 31.7966 5.23719C31.4889 5.16618 31.2995 4.85845 31.3469 4.55073C31.3942 4.243 31.7019 4.02996 32.0097 4.0773C34.7792 4.55073 37.454 5.52125 39.8922 6.91786C40.1289 7.05988 40.2473 7.32027 40.1762 7.58065C40.0816 7.84104 39.8448 8.00673 39.5845 8.03041Z" fill="#FAF9F8"/>
<path d="M27.8434 48.8397C16.2444 48.8397 6.84692 39.4422 6.84692 27.8433C6.84692 16.2444 16.2444 6.84686 27.8434 6.84686C39.4423 6.84686 48.8398 16.2444 48.8398 27.8433C48.8161 39.4185 39.4186 48.816 27.8434 48.8397ZM27.8434 8.03043C16.9072 8.03043 8.03049 16.9072 8.03049 27.8433C8.03049 38.7794 16.9072 47.6562 27.8434 47.6562C38.7795 47.6562 47.6562 38.7794 47.6562 27.8433C47.6326 16.9072 38.7795 8.0541 27.8434 8.03043Z" fill="#FAF9F8"/>
<path d="M26.7308 33.7611C26.6835 33.7611 26.6361 33.7611 26.5888 33.7374C24.4347 33.1693 22.7304 31.536 22.0439 29.4292C21.3574 27.3225 21.7835 25.0027 23.2038 23.2747V23.251C23.3458 23.0853 23.4878 22.9196 23.6299 22.7776L28.9086 17.4989C30.5656 15.8419 32.98 15.2028 35.2288 15.7946C37.5012 16.41 39.2529 18.1617 39.8684 20.4342C40.4838 22.7066 39.821 25.1211 38.164 26.7544L32.8853 32.0331C32.7196 32.1988 32.5539 32.3408 32.3882 32.4828C32.1515 32.6722 31.8201 32.6485 31.6071 32.4355C31.3941 32.2225 31.3704 31.8911 31.5598 31.6543C32.6486 30.3051 33.0274 28.5297 32.5776 26.8727C32.5303 26.6597 32.5776 26.4467 32.7196 26.3046L35.2051 23.8192C36.1046 22.8723 36.081 21.4047 35.1578 20.4815C34.2346 19.5583 32.7433 19.5347 31.8201 20.4342L26.5414 25.7129C26.4231 25.8312 26.3284 25.9496 26.2337 26.0916C25.6183 27.0384 25.7366 28.293 26.5414 29.0978C27.3463 29.9027 28.6008 30.021 29.5477 29.4056C29.7844 29.2635 30.0921 29.2872 30.2815 29.4766C30.4709 29.666 30.5182 29.9737 30.3525 30.2104C30.2105 30.4234 30.0685 30.6128 29.9028 30.7785L27.1095 33.5717C27.0385 33.7137 26.8728 33.7611 26.7308 33.7611ZM24.1033 24.0322C22.9907 25.4051 22.6357 27.2278 23.1328 28.9085C23.6299 30.5891 24.9081 31.9384 26.5651 32.5065L28.0801 30.9915C26.8018 30.9205 25.6656 30.1867 25.0738 29.0505C24.5057 27.9143 24.5767 26.5413 25.2869 25.4761C25.4289 25.2631 25.5709 25.0737 25.7366 24.908L31.0153 19.653C32.4119 18.2564 34.6844 18.2564 36.081 19.653C37.4776 21.0496 37.4776 23.3221 36.081 24.7187L33.8322 26.9674C33.9269 27.4172 33.9742 27.8669 33.9742 28.3404C33.9742 28.7191 33.9506 29.0978 33.8795 29.4766L37.3592 26.0206C39.466 23.9138 39.466 20.5052 37.3592 18.4221C35.2525 16.3154 31.8438 16.3154 29.7607 18.4221L24.482 23.7008C24.34 23.7481 24.2217 23.8665 24.1033 24.0322Z" fill="#FAF9F8"/>
<path d="M28.2694 30.9916C26.9438 30.9916 25.7366 30.2814 25.1211 29.1215C24.5057 27.9616 24.553 26.565 25.2868 25.4525C25.3341 25.3815 25.3815 25.3341 25.4525 25.2868C26.5414 24.5766 27.9616 24.5056 29.1215 25.1211C30.2814 25.7365 30.9916 26.9438 30.9916 28.2694C30.9916 28.9558 30.7785 29.6423 30.3998 30.2341C30.3524 30.3051 30.3051 30.3524 30.2341 30.3998C29.6423 30.7785 28.9795 30.9916 28.2694 30.9916ZM26.21 26.21C25.6655 27.1568 25.8076 28.3404 26.5887 29.0979C27.3462 29.8553 28.5534 30.021 29.4766 29.4766C29.6896 29.0979 29.808 28.6954 29.808 28.2694C29.808 27.4172 29.3582 26.6124 28.6008 26.1863C27.8433 25.7602 26.9438 25.7839 26.21 26.21Z" fill="#FAF9F8"/>
<path d="M33.1694 27.3225C33.122 27.3225 33.0747 27.3225 33.0273 27.2988C32.8143 27.2515 32.6723 27.0858 32.6013 26.8727C32.1042 25.0264 30.6602 23.5824 28.8139 23.0853C28.6008 23.038 28.4588 22.8723 28.4114 22.6592C28.3641 22.4462 28.4114 22.2332 28.5771 22.0911L31.039 19.6057C32.4356 18.209 34.708 18.209 36.1046 19.6057C37.5012 21.0023 37.5012 23.2747 36.1046 24.6713L33.6191 27.1331C33.4771 27.2515 33.3351 27.3225 33.1694 27.3225ZM30.0448 22.2568C31.5597 22.9196 32.767 24.1269 33.4298 25.6418L35.2288 23.8191C35.8442 23.2274 36.1046 22.3279 35.8916 21.4994C35.6785 20.6709 35.0157 20.0081 34.1872 19.795C33.3587 19.582 32.4592 19.8187 31.8674 20.4578L30.0448 22.2568Z" fill="#FAF9F8"/>
<path d="M28.2694 30.9916C26.9438 30.9916 25.7366 30.2814 25.1211 29.1215C24.5057 27.9616 24.553 26.565 25.2868 25.4525C25.3341 25.3815 25.3815 25.3341 25.4525 25.2868C26.5414 24.5766 27.9616 24.5056 29.1215 25.1211C30.2814 25.7365 30.9916 26.9438 30.9916 28.2694C30.9916 28.9558 30.7785 29.6423 30.3998 30.2341C30.3524 30.3051 30.3051 30.3524 30.2341 30.3998C29.6423 30.7785 28.9795 30.9916 28.2694 30.9916ZM26.21 26.21C25.6655 27.1568 25.8076 28.3404 26.5887 29.0979C27.3462 29.8553 28.5534 30.021 29.4766 29.4766C29.6896 29.0979 29.808 28.6954 29.808 28.2694C29.808 27.4172 29.3582 26.6124 28.6008 26.1863C27.8433 25.7602 26.9438 25.7839 26.21 26.21Z" fill="#FAF9F8"/>
<path d="M33.1694 27.3225C33.122 27.3225 33.0747 27.3225 33.0273 27.2988C32.8143 27.2515 32.6723 27.0858 32.6013 26.8727C32.1042 25.0264 30.6602 23.5824 28.8139 23.0853C28.6008 23.038 28.4588 22.8723 28.4114 22.6592C28.3641 22.4462 28.4114 22.2332 28.5771 22.0911L31.039 19.6057C32.4356 18.209 34.708 18.209 36.1046 19.6057C37.5012 21.0023 37.5012 23.2747 36.1046 24.6713L33.6191 27.1331C33.4771 27.2515 33.3351 27.3225 33.1694 27.3225ZM30.0448 22.2568C31.5597 22.9196 32.767 24.1269 33.4298 25.6418L35.2288 23.8191C35.8442 23.2274 36.1046 22.3279 35.8916 21.4994C35.6785 20.6709 35.0157 20.0081 34.1872 19.795C33.3587 19.582 32.4592 19.8187 31.8674 20.4578L30.0448 22.2568Z" fill="#FAF9F8"/>
<path d="M22.1387 40.105C19.4875 40.105 17.0967 38.519 16.0789 36.0572C15.061 33.6191 15.6291 30.7785 17.4991 28.9085L22.7778 23.6298C22.9435 23.4641 23.1092 23.3221 23.2749 23.18C23.5116 22.9907 23.843 23.0143 24.0561 23.2274C24.2691 23.4404 24.2928 23.7718 24.1034 24.0085C23.0145 25.3578 22.6358 27.1331 23.0856 28.7901C23.1329 29.0032 23.0856 29.2162 22.9435 29.3582L20.4581 31.8437C19.5585 32.7906 19.5822 34.2582 20.5054 35.1814C21.4286 36.1046 22.9199 36.1282 23.843 35.2287L29.1217 29.9737C29.2401 29.8553 29.3348 29.737 29.4295 29.595C29.6899 29.1925 29.8082 28.7428 29.8319 28.2694C29.8319 27.3935 29.3348 26.5887 28.5773 26.1626C27.7962 25.7365 26.873 25.7839 26.1392 26.2573C25.9024 26.3993 25.5947 26.3757 25.4054 26.1863C25.216 25.9969 25.1686 25.6892 25.3343 25.4525C25.4764 25.2394 25.6184 25.0501 25.7841 24.8844L28.5536 22.0912C28.6957 21.9491 28.9087 21.8781 29.1217 21.9255C31.2758 22.4936 32.9802 24.1269 33.6666 26.2336C34.3531 28.3404 33.927 30.6602 32.5067 32.3882V32.4118C32.3647 32.5775 32.2227 32.7432 32.0807 32.8853L26.7783 38.164C25.5474 39.4185 23.8904 40.105 22.1387 40.105ZM21.831 26.281L18.3513 29.737C16.2919 31.8437 16.3156 35.205 18.3986 37.2881C20.4817 39.3712 23.843 39.3949 25.9498 37.3355L31.2285 32.0568C31.3468 31.9384 31.4652 31.7964 31.5836 31.6544L31.6072 31.6307C32.7198 30.2578 33.0749 28.4351 32.5778 26.7544C32.0807 25.0737 30.8024 23.7245 29.1454 23.1564L27.6305 24.695C28.9087 24.766 30.0449 25.4998 30.6367 26.636C31.2048 27.7723 31.1338 29.1452 30.4237 30.2104C30.2816 30.4235 30.1396 30.6128 29.9739 30.7785L24.6952 36.0572C23.2986 37.4538 21.0262 37.4538 19.6296 36.0572C18.2329 34.6606 18.2329 32.3882 19.6296 30.9916L21.8783 28.7428C21.689 27.9616 21.6653 27.1095 21.831 26.281Z" fill="#FAF9F8"/>
<path d="M28.2694 30.9916C26.9438 30.9916 25.7366 30.2814 25.1211 29.1215C24.5057 27.9616 24.553 26.565 25.2868 25.4525C25.3341 25.3815 25.3815 25.3341 25.4525 25.2868C26.8728 24.3636 28.7428 24.553 29.95 25.7602C31.1572 26.9674 31.3466 28.8375 30.4234 30.2578C30.3761 30.3288 30.3287 30.3761 30.2577 30.4235C29.6423 30.7785 28.9795 30.9916 28.2694 30.9916ZM26.21 26.21C25.6655 27.1568 25.8076 28.3404 26.5887 29.0979C27.3462 29.8553 28.5534 30.021 29.4766 29.4766C29.6896 29.0979 29.808 28.6954 29.808 28.2694C29.808 27.4172 29.3346 26.636 28.6008 26.21C27.867 25.7839 26.9438 25.7839 26.21 26.21Z" fill="#FAF9F8"/>
<path d="M22.1385 37.1224C20.6946 37.1224 19.3927 36.2466 18.8482 34.921C18.3038 33.5954 18.6115 32.0568 19.6294 31.0152L22.0912 28.5534C22.2332 28.4114 22.4699 28.3404 22.6593 28.3877C22.8723 28.4351 23.0144 28.6008 23.0854 28.8138C23.5825 30.6602 25.0264 32.1041 26.8728 32.6012C27.0858 32.6485 27.2279 32.8142 27.2989 33.0273C27.3462 33.2403 27.2989 33.4534 27.1568 33.5954L24.695 36.0572C24.0086 36.7437 23.0854 37.1224 22.1385 37.1224ZM22.2569 30.0447L20.4342 31.8437C19.5347 32.7906 19.5584 34.2582 20.4815 35.1814C21.4047 36.1046 22.896 36.1282 23.8192 35.2287L25.6419 33.4297C24.1269 32.7669 22.9197 31.5597 22.2569 30.0447Z" fill="#FAF9F8"/>
<path d="M28.2694 30.9916C26.9438 30.9916 25.7366 30.2814 25.1211 29.1215C24.5057 27.9616 24.553 26.565 25.2868 25.4525C25.3341 25.3815 25.3815 25.3341 25.4525 25.2868C26.8728 24.3636 28.7428 24.553 29.95 25.7602C31.1572 26.9674 31.3466 28.8375 30.4234 30.2578C30.3761 30.3288 30.3287 30.3761 30.2577 30.4235C29.6423 30.7785 28.9795 30.9916 28.2694 30.9916ZM26.21 26.21C25.6655 27.1568 25.8076 28.3404 26.5887 29.0979C27.3462 29.8553 28.5534 30.021 29.4766 29.4766C29.6896 29.0979 29.808 28.6954 29.808 28.2694C29.808 27.4172 29.3346 26.636 28.6008 26.21C27.867 25.7839 26.9438 25.7839 26.21 26.21Z" fill="#FAF9F8"/>
<path d="M22.1385 37.1224C20.6946 37.1224 19.3927 36.2466 18.8482 34.921C18.3038 33.5954 18.6115 32.0568 19.6294 31.0152L22.0912 28.5534C22.2332 28.4114 22.4699 28.3404 22.6593 28.3877C22.8723 28.4351 23.0144 28.6008 23.0854 28.8138C23.5825 30.6602 25.0264 32.1041 26.8728 32.6012C27.0858 32.6485 27.2279 32.8142 27.2989 33.0273C27.3462 33.2403 27.2989 33.4534 27.1568 33.5954L24.695 36.0572C24.0086 36.7437 23.0854 37.1224 22.1385 37.1224ZM22.2569 30.0447L20.4342 31.8437C19.5347 32.7906 19.5584 34.2582 20.4815 35.1814C21.4047 36.1046 22.896 36.1282 23.8192 35.2287L25.6419 33.4297C24.1269 32.7669 22.9197 31.5597 22.2569 30.0447Z" fill="#FAF9F8"/>
</svg>
