<svg xmlns="http://www.w3.org/2000/svg" id="svg3060" fill-rule="evenodd" version="1.1" viewBox="0.03 0.03 8.35 1.78" xml:space="preserve">
  <defs/>
  <defs id="defs3062">
    <style id="style3064" type="text/css"/>
    <clipPath id="clipPath2999" clipPathUnits="userSpaceOnUse">
      <path id="path3001" d="M0 792h1476.333V0H0v792z"/>
    </clipPath>
  </defs>
  <g id="g2995" fill="#fff" fill-opacity="1" transform="matrix(.00573 0 0 -.00573 -.00240934 2.9857427)">
    <g id="g2997" fill="#fff" fill-opacity="1" clip-path="url(#clipPath2999)" transform="translate(-209.47983 -146.26568) scale(1.2785)">
      <g id="g3003" transform="translate(259.5664 456.9004)">
        <path id="path3005" fill="#fff" fill-opacity="1" fill-rule="nonzero" stroke="none" d="M0 0h67.799l-10.5-40.2c-1.604-5.602-4.604-10.102-9-13.5-4.401-3.404-9.502-5.101-15.299-5.101H1.5c-7.201 0-13.553-2.099-19.051-6.3-5.504-4.2-9.351-9.899-11.551-17.099-1.4-5.401-1.55-10.501-.449-15.3 1.098-4.801 3.047-9.053 5.85-12.75 2.799-3.703 6.398-6.652 10.801-8.852 4.396-2.203 9.197-3.298 14.4-3.298h19.199c3.6 0 6.549-1.454 8.85-4.35 2.297-2.902 2.949-6.15 1.951-9.75l-12-44.4h-21c-14.4 0-27.652 3.15-39.75 9.449-12.104 6.301-22.154 14.648-30.15 25.051-8.002 10.396-13.454 22.246-16.35 35.548-2.902 13.299-2.551 26.95 1.049 40.952l1.201 4.5c2.596 9.599 6.646 18.45 12.148 26.549 5.5 8.101 12 15 19.5 20.701 7.5 5.7 15.85 10.148 25.051 13.349C-19.604-1.604-10.004 0 0 0"/>
      </g>
      <g id="g3007" transform="translate(293.7637 276)">
        <path id="path3009" fill="#fff" fill-opacity="1" fill-rule="nonzero" stroke="none" d="M0 0l59.1 221.4c1.597 5.597 4.597 10.097 9 13.5 4.396 3.399 9.496 5.1 15.3 5.1h62.7c14.4 0 27.646-3.15 39.75-9.45 12.097-6.3 22.148-14.654 30.15-25.05 7.996-10.401 13.5-22.252 16.5-35.55 3-13.304 2.596-26.953-1.201-40.95l-1.199-4.5c-2.602-9.6-6.6-18.45-12-26.55-5.401-8.1-11.85-15.052-19.35-20.85-7.5-5.803-15.854-10.303-25.051-13.5-9.201-3.202-18.801-4.801-28.799-4.801H90.6L101.4 99.3c1.598 5.4 4.598 9.797 9 13.2 4.397 3.398 9.496 5.1 15.299 5.1H143.1c7.199 0 13.65 2.199 19.349 6.6 5.701 4.397 9.451 10.097 11.25 17.1 1.397 4.997 1.547 9.9.451 14.7-1.101 4.8-3.052 9.047-5.851 12.75-2.803 3.698-6.403 6.698-10.799 9-4.402 2.297-9.201 3.45-14.4 3.45h-33.6L65.699 18.299c-1.603-5.399-4.603-9.801-9-13.199-4.4-3.403-9.402-5.1-15-5.1H0z"/>
      </g>
      <g id="g3011" transform="translate(667.8594 394.2002)">
        <path id="path3013" fill="#fff" fill-opacity="1" fill-rule="nonzero" stroke="none" d="M0 0l.9 3.3c.399 1.598.151 2.948-.75 4.05C-.75 8.446-2 9-3.6 9h-97.5c-4.199 0-8.002.899-11.4 2.7-3.402 1.8-6.201 4.149-8.398 7.05-2.204 2.896-3.704 6.248-4.5 10.05-.803 3.797-.704 7.697.298 11.7l6 22.8h132c8.2 0 15.7-1.8 22.5-5.401 6.797-3.599 12.452-8.3 16.952-14.099 4.5-5.803 7.597-12.45 9.298-19.95 1.698-7.5 1.547-15.253-.449-23.25L37.5-87.601c-2.398-9-7.25-16.302-14.549-21.9-7.303-5.602-15.652-8.4-25.051-8.4l-97.5.3c-8.601 0-16.5 1.848-23.699 5.551-7.201 3.697-13.101 8.596-17.701 14.699-4.602 6.098-7.799 13.098-9.6 21-1.798 7.899-1.597 15.948.6 24.151l1.201 4.5c1.397 5.596 3.75 10.799 7.049 15.599 3.301 4.801 7.148 8.898 11.551 12.301 4.396 3.399 9.301 6.047 14.699 7.949C-110.1-9.952-104.398-9-98.398-9H-16.5l-6-22.501c-1.602-5.4-4.602-9.801-9-13.199-4.4-3.404-9.402-5.1-15-5.1h-36.6c-3.402 0-5.601-1.703-6.599-5.101-.6-2.203-.201-4.153 1.199-5.85 1.398-1.701 3.197-2.549 5.4-2.549H-24c2.199 0 4.098.6 5.701 1.799 1.598 1.201 2.596 2.799 3 4.801l.6 2.4L0 0z"/>
      </g>
      <g id="g3015" transform="translate(842.4609 456.9004)">
        <path id="path3017" fill="#fff" fill-opacity="1" fill-rule="nonzero" stroke="none" d="M0 0c14.594 0 27.945-3.15 40.047-9.45 12.101-6.3 22.148-14.654 30.152-25.05 7.996-10.402 13.449-22.304 16.348-35.7 2.898-13.402 2.449-27.105-1.348-41.101l-15-56.4c-1.004-4.002-3.152-7.199-6.449-9.6-3.301-2.4-6.953-3.599-10.953-3.599H20.398c-3.8 0-6.8 1.447-9 4.349-2.203 2.897-2.804 6.151-1.8 9.75l18 68.1c1.398 4.998 1.547 9.9.449 14.701-1.102 4.8-3.051 9.047-5.848 12.75-2.804 3.698-6.402 6.698-10.801 9C6.996-59.953 2.195-58.801-3-58.801h-33.602l-29.101-108.9c-1-4.002-3.149-7.199-6.449-9.6-3.301-2.4-7.051-3.599-11.25-3.599h-32.1c-3.6 0-6.553 1.447-8.85 4.349-2.296 2.897-2.949 6.151-1.951 9.75L-81.902 0H0z"/>
      </g>
      <g id="g3019" transform="translate(1019.1562 399.75)">
        <path id="path3021" fill="#fff" fill-opacity="1" fill-rule="nonzero" stroke="none" d="M0 0c-2.398-1.903-4.102-4.35-5.1-7.35l-13.5-51c-.8-2.804-.298-5.4 1.5-7.8 1.801-2.401 4.202-3.6 7.202-3.6h124.199l-9.6-35.701c-1.603-5.399-4.603-9.801-9-13.199-4.402-3.403-9.404-5.1-15-5.1H-32.398c-8.204 0-15.704 1.748-22.5 5.25-6.803 3.496-12.452 8.197-16.952 14.1-4.5 5.896-7.603 12.599-9.298 20.099-1.698 7.5-1.45 15.151.75 22.951L-62.1 6.75c1.998 7.396 5.1 14.198 9.301 20.4 4.199 6.197 9.151 11.498 14.85 15.9 5.699 4.397 12.097 7.846 19.199 10.35 7.098 2.498 14.447 3.75 22.051 3.75H83.4c8.2 0 15.7-1.8 22.5-5.4 6.797-3.6 12.452-8.302 16.952-14.1 4.5-5.803 7.546-12.502 9.148-20.1 1.6-7.603 1.398-15.3-.6-23.1l-5.4-20.4c-2.398-9.001-7.25-16.251-14.549-21.751-7.303-5.502-15.553-8.25-24.75-8.25H-3.898l6 22.201c1.396 5.4 4.296 9.797 8.699 13.2 4.396 3.399 9.496 5.1 15.301 5.1h36.599c3.399 0 5.596 1.697 6.6 5.1l1.199 4.5c.602 2.199.197 4.2-1.199 6-1.403 1.8-3.201 2.7-5.401 2.7H8.102C5.102 2.85 2.4 1.898 0 0"/>
      </g>
      <g id="g3023" transform="translate(1133.1523 276)">
        <path id="path3025" fill="#fff" fill-opacity="1" fill-rule="nonzero" stroke="none" d="M0 0l60.299 226.5c.998 3.998 3.15 7.247 6.451 9.75C70.049 238.748 73.799 240 78 240h32.1c3.796 0 6.847-1.453 9.15-4.35 2.297-2.902 2.947-6.15 1.949-9.75l-45-167.101c-2.203-8.803-5.752-16.799-10.65-24-4.903-7.199-10.701-13.35-17.401-18.449-6.703-5.1-14.15-9.104-22.349-12C17.596 1.447 9 0 0 0"/>
      </g>
      <g id="g3027" transform="translate(1282.3691 496.2852)">
        <path id="path3029" fill="#fff" fill-opacity="1" fill-rule="nonzero" stroke="none" d="M0 0h2.953c1.459 0 2.629.378 3.514 1.135.885.756 1.326 1.718 1.326 2.885 0 1.367-.393 2.346-1.176 2.939-.783.592-2.023.889-3.719.889H0V0zm11.867 4.129c0-1.459-.387-2.748-1.162-3.869C9.93-.861 8.842-1.695 7.437-2.242l6.508-10.801H9.352l-5.661 9.68H0v-9.68h-4.047V11.32H3.09c3.025 0 5.246-.592 6.658-1.777 1.412-1.186 2.119-2.99 2.119-5.414M-14.164-.848c0-3.154.793-6.102 2.379-8.845 1.586-2.745 3.75-4.905 6.494-6.481 2.744-1.577 5.684-2.365 8.818-2.365 3.172 0 6.116.793 8.832 2.379 2.717 1.586 4.871 3.732 6.467 6.439 1.596 2.707 2.393 5.664 2.393 8.873 0 3.172-.793 6.116-2.379 8.832-1.586 2.716-3.733 4.871-6.44 6.467-2.707 1.595-5.664 2.393-8.873 2.393-3.172 0-6.115-.793-8.832-2.379-2.716-1.586-4.871-3.733-6.466-6.44-1.596-2.707-2.393-5.665-2.393-8.873m-2.871 0c0 3.646.912 7.064 2.734 10.254 1.822 3.19 4.33 5.705 7.52 7.547 3.189 1.841 6.627 2.762 10.308 2.762 3.647 0 7.065-.912 10.254-2.735 3.19-1.823 5.705-4.33 7.547-7.519C23.17 6.271 24.09 2.834 24.09-.848c0-3.591-.885-6.964-2.653-10.117-1.767-3.154-4.248-5.679-7.437-7.574-3.189-1.897-6.682-2.844-10.473-2.844-3.773 0-7.256.944-10.445 2.83-3.189 1.887-5.674 4.407-7.451 7.561-1.777 3.153-2.666 6.535-2.666 10.144"/>
      </g>
    </g>
  </g>
  <path id="path3202" fill="#fff" fill-opacity="1" d="M88.779385 152.23093c1.350153-4.90674 9.966318-37.1722 19.147035-71.701048 9.18072-34.528843 17.33541-64.430724 18.12154-66.448623s3.28373-4.9916752 5.55023-6.608391c3.75645-2.6795147 5.95687-2.9808434 24.8803-3.4071431 35.98824-.8107287 49.44401 2.6110439 64.27957 16.3461551 15.76789 14.598286 21.93451 35.120976 16.69001 55.544864-6.16181 23.996217-22.66302 40.524986-45.29229 45.367926-3.85213.8244-15.81198 1.49891-26.57746 1.49891h-19.5736l3.80323-13.99219c5.66295-20.834131 7.24803-22.282957 25.72434-23.513082 12.74366-.848454 18.4701-3.679086 22.71217-11.226833 5.82381-10.362063 2.77625-21.911206-7.63289-28.925925-4.14517-2.793431-5.72945-3.015316-19.0984-2.674808l-14.57826.371311-14.62243 54.188807c-8.04234 29.80384-15.36124 55.52085-16.26422 57.1489-3.05074 5.50038-8.17684 6.95249-24.54296 6.95249H86.324563l2.454822-8.92132z" transform="translate(-5e-7) scale(.01111)"/>
  <path id="path3204" fill="#fff" fill-opacity="1" d="M257.96577 159.94537c-9.19395-2.87443-17.29343-9.74554-21.94671-18.61829-3.5907-6.84665-3.30879-21.18668.58462-29.73776 3.93205-8.63596 8.63-13.499805 16.74477-17.336069 6.34316-2.998733 7.8194-3.124639 36.78159-3.137032l30.17319-.01291-.89987 4.295454c-1.62188 7.741948-5.51421 15.061808-9.5294 17.920878-3.39225 2.41549-6.12333 2.86074-19.52021 3.18241-13.14085.31551-15.80379.7356-17.03221 2.68692-1.06043 1.68446-1.06014 2.94141.001 4.62587 1.26831 2.01322 4.11386 2.35999 21.95934 2.67605 11.27621.19971 21.94363-.18492 23.70536-.85473 2.82572-1.07434 3.87306-3.73068 8.88826-22.5431 3.12681-11.728899 5.34999-22.198552 4.94041-23.265901-.62877-1.638539-6.17291-1.940634-35.61519-1.940634-34.10941 0-34.9681-.06577-39.34215-3.013446-7.96783-5.36952-9.27866-12.08279-5.15367-26.393894l1.42859-4.956293h46.87186c44.99859 0 47.11005.111967 52.83194 2.801573 11.10278 5.21892 19.12299 17.432878 19.12299 29.12234 0 5.929674-16.67937 68.029055-19.64243 73.131205-1.26063 2.17071-4.8412 5.73924-7.95682 7.93007l-5.66478 3.98333-39.20889.24484c-21.56489.13466-40.69963-.22124-42.52164-.79088z" transform="translate(-5e-7) scale(.01111)"/>
  <path id="path3206" fill="#fff" fill-opacity="1" d="M366.61628 159.56624c-.87231-.87231-1.56796-3.10264-1.54589-4.95629.0221-1.85366 6.48275-27.45787 14.35707-56.898251l14.31694-53.527968 30.1186-.355744c33.92527-.400706 41.09833.676055 53.3246 8.004648 17.76543 10.648837 29.24138 32.37907 27.63548 52.329055-.99977 12.42007-11.66798 50.58027-15.09983 54.01213-2.72397 2.72396-4.20313 2.97843-17.31264 2.97843-15.31951 0-17.50623-.79617-17.50623-6.3739 0-1.76103 2.73871-13.6706 6.08602-26.4657 6.66663-25.48318 6.95899-31.347751 1.91581-38.430244-5.05334-7.096756-9.57569-8.616775-25.75433-8.656346l-14.4483-.03534-7.60315 28.416079c-4.18174 15.62885-8.63488 32.26093-9.89587 36.96019-1.26099 4.69926-3.65197 9.90337-5.31329 11.56468-2.77497 2.77498-4.18611 3.02058-17.35478 3.02058-9.38658 0-14.88163-.54743-15.92021-1.58601z" transform="translate(-5e-7) scale(.01111)"/>
  <path id="path3208" fill="#fff" fill-opacity="1" d="M531.74289 159.34269c-10.87415-3.93519-21.28566-17.93707-21.31511-28.66559-.0167-6.07588 12.4294-52.748063 16.3847-61.441792 4.42348-9.722786 10.43281-15.839745 20.36424-20.72897l8.78046-4.322607h35.71311c39.54874 0 40.9444.254342 49.73411 9.06343 9.33772 9.35833 11.2971 21.418815 6.36922 39.204389-3.1872 11.50318-7.26348 17.45774-14.46659 21.13249-4.73477 2.4155-7.81588 2.63115-37.59127 2.63115-25.96456 0-32.43377-.34758-32.43377-1.74263 0-5.05563 4.36029-15.323719 7.98194-18.796757 3.99694-3.832929 4.40322-3.920642 20.18666-4.358138 8.85919-.245565 16.85107-1.061833 17.75972-1.81393 2.41622-1.999914 2.09826-9.841512-.43851-10.814965-1.14984-.441235-11.19479-.802245-22.32211-.802245-17.33789 0-20.62537.330809-22.98534 2.312937-1.89694 1.593229-4.20444 7.716916-7.41565 19.67979-5.02887 18.734268-5.53097 22.868178-3.0758 25.323358 1.16721 1.1672 12.70791 1.58601 43.70445 1.58601 39.49585 0 42.07525.14402 41.42497 2.31294-.3814 1.27211-1.85226 6.55917-3.26857 11.74901-3.12261 11.44229-4.428 14.00517-8.94193 17.55583-3.37855 2.65757-4.87671 2.74262-46.59751 2.6453-30.31567-.0707-44.42559-.57783-47.55142-1.70901z" transform="translate(-5e-7) scale(.01111)"/>
  <path id="path3210" fill="#fff" fill-opacity="1" d="M640.52955 159.68787c.35823-1.0119 9.31146-34.47568 19.89607-74.36396 10.5846-39.888281 19.86921-73.69099 20.63246-75.117129 2.17599-4.0658788 9.42223-6.3342356 20.23465-6.3342356 10.18841 0 15.95169 1.6241284 17.18705 4.8434219.94893 2.4728847-30.34606 118.2961427-33.78397 125.0350127-4.33843 8.50401-13.6384 17.43245-22.91449 21.99906-9.53805 4.69556-22.36118 7.07162-21.25177 3.93783z" transform="translate(-5e-7) scale(.01111)"/>
  <path id="path3212" fill="#fff" fill-opacity="1" d="M66.330985 62.026387V43.522892h19.825174c14.980801 0 19.824361.403698 19.821841 1.652098-.002.908653-1.4958 7.302272-3.31993 14.20804-2.75481 10.429129-4.094209 13.283538-7.907329 16.851398-4.476947 4.18899-4.886035 4.295454-16.505243 4.295454H66.330985V62.026387z" transform="translate(-5e-7) scale(.01111)"/>
  <path id="path3214" fill="#fff" fill-opacity="1" d="M735.02782 17.356182V9.3393435h2.59031c1.52516 0 2.75913.012585 3.00084.030604 1.21327.090447 2.13977.3303874 2.89674.7501805.966.535715 1.60633 1.464157 1.84836 2.680036.0851.427363.12974 1.023637.11056 1.475643-.0726 1.710824-1.00024 3.090003-2.57432 3.827528-.18572.08701-.33242.171351-.32601.187414.006.01606.96627 1.612859 2.13301 3.548437l2.12135 3.519231-1.46852.0076c-.80769.0042-1.48185.0025-1.49813-.0037-.0163-.0062-.86396-1.438724-1.88374-3.183314l-1.85413-3.171982-1.23393-.000354-1.23392-.000354v6.366742h-2.62847v-8.016837zm4.91094-.569563c.83715-.06037 1.42234-.267845 1.9475-.690488.66701-.536788.97733-1.255144.93081-2.154676-.0633-1.224922-.58757-1.887366-1.72243-2.176565-.49978-.127359-.79852-.150753-2.14602-.168051l-1.29233-.01659v5.235636l.94187-.000263c.51803-.000146 1.1213-.01319 1.3406-.02901v.000007z" transform="translate(-5e-7) scale(.01111)"/>
  <path id="path3216" fill="#fff" fill-opacity="1" d="M739.27026 30.862855c-2.95296-.149032-5.64171-1.21092-8.00991-3.163416-2.42631-2.000395-4.13935-5.025686-4.6413-8.196672-.16338-1.032135-.20818-2.477963-.10724-3.460821.25001-2.434305 1.0981-4.672591 2.52761-6.6709429.71046-.9931748 1.73816-2.0511975 2.69171-2.7711357l.163-.1230663 1.88548.00752 1.88549.00752-.38435.1728309c-2.35447 1.0587382-4.29157 2.8418019-5.53918 5.0987143-.7683 1.389834-1.22114 2.860024-1.37633 4.468402-.0479.496866-.0477 1.73506.00036 2.234201.13694 1.420948.51071 2.723156 1.15681 4.030322 1.113 2.251778 2.76304 3.960381 4.97538 5.151954 1.70358.917556 3.52234 1.373596 5.48353 1.374951 2.77325.0019 5.25964-.892667 7.45873-2.683593.40916-.33322 1.21132-1.134657 1.5521-1.5507 1.77913-2.172093 2.68266-4.675711 2.68266-7.433515 0-1.846792-.38691-3.506485-1.19877-5.142281-1.09649-2.209294-2.76418-3.9452006-4.94605-5.1483746-.29414-.1621994-1.02496-.512137-1.1857-.5677471-.0241-.00834.80869-.016193 1.85062-.017461l1.89443-.00231.14992.1095196c.57819.4223869 1.40861 1.1982567 1.9532 1.8248906.99402 1.143798 1.87188 2.5924926 2.44462 4.0342806.40161 1.011004.70703 2.285041.83755 3.493806.0707.654928.0716 2.15674.002 2.798621-.29861 2.739825-1.35841 5.241758-3.11351 7.3502-.35122.421939-1.09232 1.161105-1.55008 1.546053-2.73995 2.304127-6.00004 3.407034-9.54243 3.228254z" transform="translate(-5e-7) scale(.01111)"/>
</svg>
