<?xml version="1.0" encoding="utf-8"?>
<!-- Generator: Adobe Illustrator 19.0.0, SVG Export Plug-In . SVG Version: 6.00 Build 0)  -->
<svg version="1.1" id="Layer_1" xmlns="http://www.w3.org/2000/svg" xmlns:xlink="http://www.w3.org/1999/xlink" x="0px" y="0px"
	 viewBox="224 -99.6 551.8 258.6" style="enable-background:new 224 -99.6 551.8 258.6;" xml:space="preserve">
<style type="text/css">
	.st0{fill:none;}
	.st1{fill:#7C8D97;}
	.st2{fill:#FFFFFF;}
</style>
<rect x="129" y="-171.3" class="st0" width="741.8" height="401.9"/>
<g>
	<g>
		<path class="st1" d="M280.2-11.8v-2.3c11.7-4.5,19.4-14.6,23.7-25h4.5v22.7h15.9v4.5h-15.9v44.4c0,11.2,4.5,12.8,8.2,12.8
			c3.7,0,7.7-2.6,10-5.2l1.6,1.6c-5.1,6.6-9.8,12.3-18.6,12.3c-13.2,0-17-10.3-17-21.2v-44.6H280.2L280.2-11.8z"/>
		<path class="st1" d="M381.5,63.7c0,3.2-2.2,5.5-5.3,5.5c-3.4,0-5.4-3.3-5.4-6.5c0-3.6-3.6-5.2-7.1-5.2c-9.6,0-13.5,9.9-13.5,18
			c0,9.9,5.2,21.2,16.4,21.2c6.6,0,12.1-4.4,14.9-9.9l2.1,1.1c-5.2,10.3-10.8,16.6-21.3,16.6c-6.8,0-20.6-3.7-20.6-26
			c0-13.8,10.1-25,24.1-25C371.4,53.6,381.5,56.5,381.5,63.7L381.5,63.7z"/>
		<path class="st1" d="M403.8,53.3v2.1c-4.6,0-6.1,2.5-6.1,4.7c0,1.4,0.6,3.1,1.6,5.4l11,26.5L421.2,67c1.6-4.2,1.7-5.6,1.7-6.9
			c0-2.9-2.2-4.7-4.7-4.7v-2.1h16.6v2.1c-4.2,0.6-7,5.9-8.5,10l-17.4,40.8c-2.8,7.6-6.1,15.5-10.8,19.2c-2.2,1.8-4.9,2.5-7.8,2.5
			c-3.2,0-6.3-1.9-6.3-5.1c0-2.9,2-4.9,4.9-4.9c3.6,0,4.2,2.1,7.4,2.1c4,0,6.3-7,8.3-12.2l1.2-3.3L388,63.3
			c-1.5-3.3-2.8-7.6-6.5-7.9v-2.1L403.8,53.3L403.8,53.3z"/>
		<path class="st1" d="M447.4,96c0,2.5,4.7,6.8,11.9,6.8c11.6,0,15.8-11.5,15.8-21.4s-5-21.7-16.7-21.7c-6.2,0-11,4.1-11,5V96z
			 M437.9,38.7c0-3.6-3.1-4.2-6.2-4.2h-1.2v-2.2c5.7-1.2,12-3.8,16.9-6.9v35.2c5.8-4.6,10.2-7.8,17.9-7.8
			c12.3,0,19.4,11.7,19.4,22.9c0,19.9-14.4,30.4-28.3,30.4c-6.6,0-13.2-2.5-18.4-6.7L437.9,38.7L437.9,38.7z"/>
		<path class="st1" d="M519.8,70.5c0-7.6-2.7-13.6-11.2-13.6c-6.9,0-12.4,7.1-12.5,13.6H519.8z M495.9,73.6v1.4
			c0,11.7,5.4,21.8,16.7,21.8c9.1,0,14.5-5.5,18-10.9l1.8,1.1c-4.1,8.6-11.8,17.7-22.2,17.7c-14,0-22.3-10.1-22.3-23.6
			s7.8-27.8,23-27.8c11.3,0,18.7,9.1,18.8,20.3L495.9,73.6L495.9,73.6z"/>
		<path class="st1" d="M532.3,102.5c7.9-0.4,8.2-1.9,8.2-9.6V69.2c0-7.5-0.9-8.4-8.2-8.4v-2.1c5.7-1.4,11.5-3.6,16.9-5.4h0.5V63
			c3-3.3,7.9-9.7,13-9.7c3.1,0,6.1,2.3,6.1,5.7c0,2.7-2.4,4.7-5,4.7c-1.7,0-2.7-0.7-3.5-1.5c-0.8-0.7-1.6-1.5-2.8-1.5
			c-3.7,0-7.8,6.7-7.8,7.2v25.1c0,8.2,1.1,9.4,8.8,9.4v2.1h-26.2L532.3,102.5L532.3,102.5z"/>
	</g>
	<g>
		<path class="st2" d="M254.2-46.2c-14.8,14.4-22.9,33.5-22.9,53.8s8.1,39.4,22.9,53.8c14.6,14.3,33.9,22.2,54.3,22.2V67.7
			c-16.2,0-31.5-6.3-43.1-17.7c-11.7-11.4-18.1-26.5-18.1-42.5s6.4-31,18.1-42.5c11.7-11.4,27-17.7,43.1-17.7v-15.9
			C288.1-68.5,268.8-60.6,254.2-46.2z"/>
		<path class="st2" d="M571.8,57.1v-1.5c9.1-3.1,12.3-7.4,15.2-14.4h2.8v12.3h11.5v3.6h-11.5v34.4c0,7.6,3,8.6,5.5,8.6
			s5-1.9,6.5-3.6l1.8,1.1c-3.4,4.5-7.1,8.3-13,8.3c-8.9,0-10-7-10-14.4V57.1H571.8L571.8,57.1z"/>
		<path class="st2" d="M735.9,57.1v-1.5c9.1-3.1,13.8-7.4,16.7-14.4h2.1v12.5h11.5v3.4h-11.5v34.4c0,7.6,3,8.6,5.5,8.6
			c2.5,0,5-1.9,6.5-3.6l1.8,1.1c-3.4,4.5-7.1,8.3-13,8.3c-8.9,0-10-7-10-14.4V57.2L735.9,57.1L735.9,57.1z"/>
		<path class="st2" d="M606.6,102.5c7.9-0.4,8.2-1.9,8.2-9.6V68.7c0-7.5-0.9-8.4-8.2-8.4v-2.1c5.7-1.4,11.5-3.6,16.9-5.4h0.5v9.7
			c3-3.3,8.9-9.7,14-9.7c3.1,0,6.1,2.3,6.1,5.7c0,2.7-2.4,4.7-5,4.7c-1.7,0-2.7-0.7-3.5-1.5c-0.8-0.7-1.6-1.4-2.8-1.4
			c-3.7,0-8.8,6.7-8.8,7.2v25.6c0,8.2,1.1,9.4,8.8,9.4v2.1h-26.2L606.6,102.5L606.6,102.5z"/>
		<path class="st2" d="M693.5,93c0,4.3,3.7,6,7.5,6.1v2.1c-5.4,1.4-10.9,1.5-15.9,3.3h-0.4V96c-4.5,4.4-8.6,8.5-15.4,8.5
			c-8.4,0-14.3-4.3-14.3-12.9V62.2c0-5-3.2-5.5-6.6-5.5v-2.1l15.7-1.5v35.2c0,5.6,2.9,9.8,9.1,9.8c5.4,0,9.9-4.2,11.1-6.5V62.2
			c0-5-3.2-5.5-6.6-5.5v-2.5l15.7-1L693.5,93L693.5,93z"/>
		<path class="st2" d="M733.1,68h-1.9c-2-6.3-4.9-11.6-12.4-11.6c-4.2,0-7.9,2.2-7.9,6.2c0,10.8,25.8,11.4,25.8,26.6
			c0,9.8-7.4,15-15.2,15c-5.5,0-11.3-2.5-13.1-2.5c-1.5,0-1.2,2.1-1.5,2.8h-2.1l-0.7-17.7h2.5c0.2,7.3,6.2,14.2,13.8,14.2
			c4.5,0,8.9-2.4,8.9-7.3c0-11.9-25.8-11.7-25.8-27.7c0-8.5,7.6-12.9,15.4-12.9c1.8,0,3.4,0.4,5.1,0.8c1.6,0.4,3.2,0.8,4.7,0.8
			c1.1,0,1.9-0.9,2.1-2.1h1.9L733.1,68L733.1,68z"/>
	</g>
</g>
</svg>
