<?xml version="1.0" encoding="UTF-8"?>
<svg id="Brand_Symbol" xmlns="http://www.w3.org/2000/svg" width="101.25mm" height="45.45mm" viewBox="0 0 287.01 128.84">
  <defs>
    <style>
      .cls-1 {
        fill: #fff;
      }

      .cls-2 {
        fill: none;
      }
    </style>
  </defs>
  <rect class="cls-2" x="0" y="0" width="287.01" height="128.84"/>
  <g>
    <g>
      <g>
        <polygon class="cls-1" points="109.52 61.37 114.09 43.04 125.48 43.04 124.74 46.02 116.73 46.02 115.53 50.84 122.76 50.84 122.02 53.79 114.79 53.79 112.9 61.37 109.52 61.37"/>
        <path class="cls-1" d="M128.12,61.61c-2.62,0-4.07-.68-4.86-2.26l-.07-.14,2.79-1.69.08.17c.34.7.9,1.13,2.64,1.13,1.36,0,2.25-.47,2.46-1.3.09-.34.07-.58-.05-.75-.25-.36-1.02-.53-2.11-.68-1.67-.22-2.81-.76-3.39-1.61-.48-.7-.58-1.61-.31-2.7.63-2.51,2.88-4.01,6.02-4.01,2.46,0,3.89.72,4.48,2.27l.05.13-2.71,1.66-.09-.16c-.38-.72-.85-1.08-2.4-1.08-.71,0-1.94.16-2.2,1.2-.08.31-.05.55.07.74.23.33.78.53,1.85.66,1.88.23,3.03.73,3.62,1.58.48.69.57,1.59.28,2.75-.65,2.6-2.9,4.09-6.17,4.09Z"/>
        <path class="cls-1" d="M140.3,61.61c-1.57,0-2.75-.44-3.39-1.26-.58-.75-.72-1.77-.41-3.02.82-3.3,3.71-3.99,5.98-3.99h2.68l.24-.96c.18-.72.17-1.16-.04-1.43-.24-.31-.8-.44-1.86-.44-1.43,0-2.08.17-2.9,1.11l-.11.13-1.92-1.63.11-.13c1.36-1.58,2.98-2.22,5.6-2.22,2.01,0,3.25.39,3.89,1.21.6.76.69,1.91.29,3.51l-2.22,8.89h-3.1l.2-.79c-.81.73-1.72,1.02-3.06,1.02ZM142.16,55.82c-1.51,0-2.31.49-2.58,1.59-.11.43-.07.77.12,1,.24.31.77.48,1.51.48,1.59,0,2.69-.44,3.24-2.66l.1-.41h-2.39Z"/>
        <path class="cls-1" d="M154.28,61.61c-2.62,0-4.07-.68-4.86-2.26l-.07-.14,2.79-1.69.08.17c.34.7.9,1.13,2.64,1.13,1.36,0,2.25-.47,2.46-1.3.09-.34.07-.58-.05-.75-.25-.36-1.02-.53-2.11-.68-1.67-.22-2.81-.76-3.39-1.61-.48-.7-.58-1.61-.31-2.7.63-2.51,2.88-4.01,6.02-4.01,2.46,0,3.89.72,4.48,2.27l.05.13-2.71,1.66-.09-.16c-.38-.72-.85-1.08-2.4-1.08-.71,0-1.94.16-2.2,1.2-.08.31-.05.55.07.74.23.33.78.53,1.85.66,1.88.23,3.03.73,3.62,1.58.48.69.57,1.59.28,2.75-.65,2.6-2.9,4.09-6.17,4.09Z"/>
      </g>
      <g>
        <polygon class="cls-1" points="108.62 85.79 112.45 70.44 107.25 70.44 108 67.46 121.74 67.46 121 70.44 115.83 70.44 112 85.79 108.62 85.79"/>
        <path class="cls-1" d="M124.11,86.03c-1.74,0-3.07-.53-3.85-1.53-.84-1.08-1.04-2.66-.56-4.57l.44-1.77c.96-3.85,3.42-5.97,6.92-5.97,1.65,0,2.84.45,3.54,1.35.81,1.04.95,2.68.41,4.86l-.39,1.57h-7.8c-.29,1.24-.21,2.16.21,2.71.32.41.85.62,1.58.62,1.49,0,2.18-.45,2.88-1.22l.11-.13,1.99,1.68-.11.13c-1.3,1.58-2.95,2.28-5.36,2.28ZM128.08,77.47c.16-.94.08-1.62-.25-2.02-.27-.33-.72-.49-1.37-.49-1.38,0-2.38.85-2.98,2.52h4.6Z"/>
        <path class="cls-1" d="M137.49,86.03c-1.74,0-3.08-.54-3.87-1.55-.85-1.08-1.04-2.66-.57-4.56l.44-1.77c.95-3.79,3.67-5.97,7.47-5.97,2.1,0,3.59.79,4.18,2.22l.06.14-2.81,1.66-.08-.18c-.32-.69-1.03-1.07-2-1.07-1.89,0-3.19,1.18-3.74,3.41l-.38,1.51c-.32,1.27-.26,2.19.17,2.74.34.44.94.66,1.78.66,1.12,0,2.01-.41,2.66-1.21l.11-.14,2.02,1.68-.11.13c-1.24,1.53-2.99,2.28-5.33,2.28Z"/>
        <path class="cls-1" d="M152.35,85.79l2.01-8.06c.26-1.04.22-1.79-.11-2.22-.27-.35-.75-.51-1.46-.51-1.57,0-2.82,1.07-3.25,2.79l-2,8h-3.15l4.57-18.33h3.15l-1.43,5.72c.84-.68,1.9-1.01,3.21-1.01,1.52,0,2.61.42,3.26,1.24.71.91.84,2.28.39,4.08l-2.07,8.29h-3.13Z"/>
        <path class="cls-1" d="M166.54,85.79l2.01-8.06c.26-1.04.22-1.79-.11-2.22-.27-.35-.75-.51-1.46-.51-1.57,0-2.82,1.07-3.25,2.79l-2,8h-3.15l3.34-13.38h3.1l-.21.83c.89-.72,1.97-1.07,3.28-1.07,1.52,0,2.61.42,3.26,1.24.71.91.84,2.28.39,4.08l-2.07,8.29h-3.13Z"/>
        <path class="cls-1" d="M178.13,86.03c-1.71,0-2.96-.49-3.73-1.47-.84-1.07-1.02-2.69-.52-4.69l.41-1.64c.96-3.84,3.58-6.05,7.2-6.05,1.73,0,2.99.49,3.74,1.45.83,1.06.99,2.64.48,4.68l-.41,1.64c-.96,3.86-3.58,6.07-7.18,6.07ZM180.89,74.95c-2.2,0-3.12,1.86-3.51,3.41l-.38,1.51c-.33,1.31-.28,2.26.15,2.81.31.4.84.6,1.57.6,2.29,0,3.18-2.19,3.5-3.49l.38-1.51c.32-1.27.26-2.19-.17-2.73-.31-.4-.83-.6-1.55-.6Z"/>
        <path class="cls-1" d="M191.91,85.79c-1.91,0-3.08-.35-3.67-1.12-.54-.69-.62-1.71-.25-3.19l3.5-14.02h3.15l-3.35,13.46c-.17.67-.28,1.34,0,1.7.2.25.61.38,1.24.38h.22l-.7,2.8h-.14Z"/>
        <path class="cls-1" d="M200.1,86.03c-1.71,0-2.96-.49-3.73-1.47-.84-1.07-1.02-2.69-.52-4.69l.41-1.64c.96-3.84,3.58-6.05,7.2-6.05,1.73,0,2.99.49,3.74,1.45.83,1.06.99,2.64.48,4.68l-.41,1.64c-.96,3.86-3.58,6.07-7.18,6.07ZM202.86,74.95c-2.2,0-3.12,1.86-3.51,3.41l-.38,1.51c-.33,1.31-.28,2.26.15,2.81.31.4.84.6,1.57.6,2.29,0,3.18-2.19,3.5-3.49l.38-1.51c.32-1.27.26-2.19-.17-2.73-.31-.4-.83-.6-1.55-.6Z"/>
        <path class="cls-1" d="M212.76,90.9c-2.53,0-3.82-.69-4.45-2.38l-.05-.13,2.6-1.59.08.19c.35.84,1.05,1.2,2.33,1.2,2.01,0,3.08-.86,3.58-2.86l.03-.13c-.85.56-1.9.84-3.12.84-1.53,0-2.67-.46-3.38-1.37-.84-1.08-1.02-2.71-.51-4.73l.44-1.77c.93-3.74,3.48-5.97,6.82-5.97,1.23,0,2.16.32,2.76.95l.18-.71h3.12l-3.24,12.99c-.92,3.7-3.28,5.5-7.19,5.5ZM216.89,74.95c-2.2,0-3.12,1.86-3.51,3.41l-.38,1.51c-.32,1.27-.25,2.24.19,2.8.31.4.83.61,1.53.61,1.74,0,2.92-1.17,3.5-3.49l.38-1.51c.31-1.26.26-2.18-.17-2.73-.31-.4-.83-.6-1.54-.6Z"/>
        <path class="cls-1" d="M223.54,85.79l3.34-13.38h3.15l-3.34,13.38h-3.15ZM227.13,70.88l.79-3.19h3.41l-.79,3.19h-3.41Z"/>
        <path class="cls-1" d="M235.68,86.03c-1.74,0-3.07-.53-3.85-1.53-.84-1.08-1.04-2.66-.56-4.57l.44-1.77c.96-3.85,3.42-5.97,6.92-5.97,1.65,0,2.84.45,3.54,1.35.81,1.04.95,2.68.41,4.86l-.39,1.57h-7.8c-.29,1.25-.21,2.16.21,2.71.32.41.85.62,1.58.62,1.49,0,2.18-.45,2.88-1.22l.11-.13,1.99,1.68-.11.13c-1.3,1.58-2.95,2.28-5.36,2.28ZM239.64,77.47c.16-.94.08-1.62-.25-2.02-.27-.33-.72-.49-1.37-.49-1.38,0-2.38.85-2.98,2.52h4.6Z"/>
        <path class="cls-1" d="M248.46,86.03c-2.62,0-4.07-.68-4.86-2.26l-.07-.14,2.79-1.69.08.17c.34.7.9,1.13,2.64,1.13,1.36,0,2.25-.47,2.46-1.3.09-.34.07-.58-.05-.75-.25-.36-1.02-.53-2.11-.68-1.67-.22-2.81-.76-3.39-1.61-.48-.7-.58-1.61-.31-2.7.63-2.51,2.88-4.01,6.02-4.01,2.46,0,3.89.72,4.48,2.27l.05.13-2.71,1.66-.09-.16c-.38-.72-.85-1.08-2.4-1.08-.71,0-1.94.16-2.2,1.2-.08.31-.05.55.07.74.23.33.78.53,1.85.66,1.88.23,3.03.73,3.62,1.58.48.69.57,1.59.28,2.75-.65,2.6-2.9,4.09-6.17,4.09Z"/>
      </g>
    </g>
    <g>
      <polygon class="cls-1" points="78.35 43.04 67.69 85.79 44.9 85.79 41.85 98.02 78.73 98.02 92.43 43.04 78.35 43.04"/>
      <polygon class="cls-1" points="78.35 43.04 81.4 30.81 44.52 30.81 30.81 85.79 44.9 85.79 55.56 43.04 78.35 43.04"/>
    </g>
  </g>
</svg>