<svg xmlns="http://www.w3.org/2000/svg" id="Layer_1" data-name="Layer 1" viewBox="0 0 367.3 82">
  <defs/>
  <defs>
    <style>
      .cls-1{fill:#ffffff}.cls-2{fill:#ffffff}
    </style>
  </defs>
  <path d="M0 0h10v82H0zM73 0h10v82H73zM20 27h43v10H20zM20 46h43v10H20z" class="cls-1"/>
  <path d="M134.12 56.08V43.2h-12.25v12.88h-4.57v-29.5h4.57v12.6h12.25v-12.6h4.58v29.5h-4.58zM148.78 26.58h4.58v29.5h-4.58zM174.21 56.08h-3.56l-9.92-29.5h4.75l6.95 21.46 6.95-21.46h4.83l-10 29.5zM191.63 56.08v-29.5h19.28v4.02h-14.7v8.62h12.54v3.98h-12.54v8.86h14.7v4.02h-19.28zM219.32 56.08v-29.5h4.58v25.48h14.53v4.02h-19.11z" class="cls-2"/>
  <path d="M261.44 32.8a6.45 6.45 0 00-9 0c-1.44 1.57-1.76 3.2-1.76 9.2s.29 7.58 1.78 9.16a6.45 6.45 0 009 0c1.48-1.57 1.78-3.23 1.78-9.16s-.3-7.58-1.78-9.16m3.47 21a11.6 11.6 0 01-15.89 0c-3-2.9-2.92-6.17-2.92-11.85s0-9 2.92-11.85a11.6 11.6 0 0115.89 0c3 2.9 2.88 6.17 2.88 11.85s.09 9-2.88 11.85M286.87 57a11.05 11.05 0 01-7.92-3.15C276 50.91 276 47.63 276 42s0-9 2.93-11.85a11.06 11.06 0 017.94-3.15c5.55 0 9.71 3.19 10.77 9.07H293c-.72-3-2.76-5.06-6.1-5.06a6.1 6.1 0 00-4.45 1.78c-1.48 1.57-1.82 3.27-1.82 9.2s.34 7.62 1.82 9.2a6.11 6.11 0 004.45 1.78c3.35 0 5.43-2.07 6.15-5.05h4.62a10.35 10.35 0 01-10.8 9.08" class="cls-2" transform="translate(-1.13 -.63)"/>
  <path d="M304.86 26.58h4.58v29.5h-4.58zM330.18 30.6v25.48h-4.57V30.6h-8.31v-4.02h21.19v4.02h-8.31zM358.27 43.94v12.14h-4.58V43.94l-9.03-17.36h5l6.32 12.97 6.31-12.97h5.01l-9.03 17.36z" class="cls-2"/>
</svg>
