<svg width="320" height="80" viewBox="0 0 320 80" fill="none" xmlns="http://www.w3.org/2000/svg">
<path d="M120.299 20.9717C120.744 20.9669 121.186 21.055 121.596 21.2306C122.007 21.4063 122.378 21.6657 122.686 21.993C123.006 22.3169 123.259 22.7034 123.429 23.1293C123.599 23.5553 123.683 24.0118 123.675 24.4715C123.684 24.9268 123.602 25.3792 123.433 25.8008C123.264 26.2224 123.012 26.6043 122.693 26.923C122.39 27.2479 122.025 27.5057 121.62 27.6801C121.215 27.8546 120.779 27.9421 120.34 27.937C119.89 27.9444 119.444 27.8558 119.029 27.6771C118.615 27.4984 118.242 27.2334 117.934 26.8991C117.61 26.5719 117.355 26.1811 117.184 25.7505C117.013 25.3198 116.929 24.8582 116.939 24.3937C116.932 23.9428 117.016 23.4953 117.185 23.0785C117.354 22.6616 117.604 22.2842 117.921 21.9691C118.23 21.6462 118.6 21.3908 119.01 21.2186C119.419 21.0464 119.858 20.961 120.301 20.9676L120.299 20.9717ZM117.651 29.7845H122.948V51.1984H117.651V29.7845ZM132.946 29.7845V32.154C133.831 31.2344 134.881 30.4947 136.037 29.9744C137.16 29.4858 138.369 29.2368 139.59 29.2427C140.912 29.228 142.22 29.5036 143.427 30.0508C144.634 30.5979 145.712 31.4038 146.586 32.4135C148.544 34.6392 149.575 37.5543 149.46 40.5412C149.546 43.5036 148.477 46.38 146.487 48.5413C145.604 49.5571 144.518 50.3694 143.303 50.9242C142.088 51.479 140.77 51.7635 139.439 51.7588C138.28 51.7683 137.131 51.5447 136.057 51.1008C134.899 50.581 133.845 49.8505 132.945 48.9451V59.0355H127.71V29.7845H132.946ZM138.49 34.1976C137.721 34.1757 136.955 34.3186 136.243 34.6172C135.531 34.9157 134.888 35.3633 134.357 35.9309C133.802 36.5352 133.37 37.2462 133.088 38.0223C132.807 38.7985 132.679 39.6241 132.715 40.4509C132.677 41.2923 132.803 42.1329 133.085 42.9247C133.366 43.7165 133.799 44.444 134.357 45.0654C134.884 45.6408 135.525 46.0955 136.238 46.3997C136.95 46.7039 137.718 46.8505 138.49 46.8298C139.255 46.8436 140.013 46.6907 140.714 46.3814C141.416 46.0721 142.044 45.6135 142.558 45.0364C143.676 43.7947 144.268 42.1536 144.206 40.4696C144.268 38.8064 143.686 37.1851 142.584 35.9558C142.065 35.3809 141.431 34.9259 140.725 34.6216C140.019 34.3172 139.257 34.1705 138.49 34.1914V34.1976ZM155.892 20.9717C156.337 20.9669 156.779 21.055 157.189 21.2306C157.6 21.4063 157.97 21.6657 158.279 21.993C158.6 22.3169 158.853 22.7036 159.024 23.1299C159.194 23.5562 159.278 24.0133 159.271 24.4736C159.28 24.9289 159.198 25.3813 159.029 25.8029C158.86 26.2245 158.608 26.6064 158.289 26.9251C157.986 27.2499 157.621 27.5077 157.216 27.6821C156.811 27.8566 156.375 27.9441 155.936 27.9391C155.486 27.9465 155.039 27.8579 154.625 27.6792C154.211 27.5005 153.838 27.2355 153.53 26.9012C153.206 26.574 152.951 26.1833 152.78 25.7526C152.609 25.3219 152.525 24.8603 152.534 24.3957C152.528 23.9449 152.612 23.4974 152.781 23.0805C152.949 22.6637 153.2 22.2863 153.516 21.9712C153.826 21.6483 154.196 21.3929 154.606 21.2207C155.015 21.0485 155.454 20.9631 155.897 20.9696L155.892 20.9717ZM153.243 29.7845H158.54V51.1984H153.243V29.7845ZM163.304 29.7845H168.558V31.9745C169.528 31.0937 170.628 30.3729 171.818 29.8385C172.762 29.4404 173.775 29.2349 174.797 29.2334C175.785 29.2155 176.767 29.4042 177.681 29.7878C178.594 30.1715 179.421 30.7418 180.11 31.4638C180.766 32.2242 181.265 33.1103 181.58 34.07C181.895 35.0297 182.019 36.0438 181.944 37.0529V51.1994H176.729V41.8147C176.794 40.109 176.678 38.4012 176.384 36.7207C176.21 35.9648 175.795 35.2891 175.204 34.7996C174.606 34.3491 173.877 34.1172 173.134 34.1416C172.109 34.1206 171.118 34.5143 170.378 35.2366C169.562 36.0563 169.006 37.1071 168.783 38.2527C168.58 39.6939 168.503 41.1505 168.552 42.6056V51.2035H163.298V29.7845H163.304ZM184.531 29.7845H186.41C186.423 26.9822 186.463 25.3215 186.542 24.8026C186.59 24.2603 186.744 23.7332 186.994 23.252C187.244 22.7709 187.585 22.3453 187.999 22.0003C189.021 21.2485 190.268 20.8817 191.526 20.9624C192.795 21.0002 194.048 21.2625 195.229 21.7377V25.8353C194.624 25.6348 193.993 25.5216 193.357 25.499C192.875 25.4565 192.394 25.5949 192.005 25.8882C191.755 26.2418 191.646 26.6786 191.7 27.1109L191.68 29.7845H195.022V34.3512H191.676V51.1984H186.409V34.3523H184.533V29.7855L184.531 29.7845ZM207.982 29.2334C209.946 29.2303 211.876 29.754 213.578 30.7518C215.268 31.7231 216.673 33.1357 217.648 34.8442C218.624 36.5526 219.135 38.4951 219.129 40.4717C219.136 42.461 218.626 44.4168 217.652 46.1407C216.701 47.8621 215.309 49.2877 213.624 50.2653C211.911 51.2573 209.971 51.7693 208.001 51.7495C206.563 51.7715 205.137 51.4919 203.809 50.928C202.482 50.3642 201.283 49.5281 200.287 48.4718C199.251 47.4363 198.433 46.1964 197.883 44.8278C197.333 43.4592 197.063 41.9907 197.089 40.5122C197.058 38.9343 197.365 37.3685 197.989 35.9241C198.613 34.4797 199.539 33.1916 200.702 32.1499C202.672 30.2634 205.278 29.2197 207.982 29.2344V29.2334ZM208.064 34.2921C207.301 34.2733 206.542 34.4192 205.837 34.7202C205.133 35.0212 204.499 35.4706 203.976 36.0389C203.43 36.6351 203.005 37.3355 202.725 38.0998C202.445 38.8642 202.317 39.6773 202.347 40.4925C202.309 41.3188 202.432 42.1445 202.709 42.9222C202.986 43.6998 203.411 44.4141 203.959 45.0239C204.48 45.591 205.113 46.0389 205.817 46.3377C206.52 46.6365 207.278 46.7795 208.04 46.7572C208.808 46.777 209.572 46.6311 210.281 46.329C210.989 46.0269 211.628 45.5754 212.153 45.0042C212.705 44.4003 213.134 43.6911 213.416 42.9175C213.697 42.1438 213.826 41.3211 213.794 40.4966C213.828 39.6798 213.703 38.8643 213.427 38.0967C213.151 37.3291 212.729 36.6245 212.186 36.0233C211.657 35.4559 211.016 35.0084 210.306 34.7101C209.596 34.4118 208.832 34.2694 208.064 34.2921V34.2921ZM226.314 45.5896C226.712 45.583 227.106 45.6588 227.474 45.8125C227.842 45.9661 228.175 46.1943 228.454 46.4832C228.804 46.8426 229.062 47.2843 229.206 47.7695C229.349 48.2547 229.372 48.7684 229.274 49.2651C229.177 49.7618 228.96 50.2263 228.644 50.6176C228.328 51.0088 227.922 51.3147 227.463 51.5083C227.003 51.7018 226.504 51.7771 226.009 51.7273C225.514 51.6776 225.039 51.5045 224.626 51.2232C224.212 50.9419 223.873 50.5612 223.638 50.1146C223.403 49.6681 223.28 49.1694 223.279 48.6628C223.279 48.2581 223.358 47.8576 223.511 47.4841C223.664 47.1107 223.888 46.7716 224.17 46.4865C224.451 46.2013 224.786 45.9757 225.153 45.8225C225.521 45.6693 225.914 45.5915 226.311 45.5937L226.314 45.5896ZM236.572 20.9717C237.017 20.9669 237.459 21.055 237.869 21.2306C238.28 21.4063 238.651 21.6657 238.959 21.993C239.28 22.3171 239.532 22.704 239.702 23.1303C239.872 23.5566 239.956 24.0135 239.948 24.4736C239.957 24.9289 239.875 25.3813 239.706 25.8029C239.537 26.2245 239.285 26.6064 238.966 26.9251C238.664 27.25 238.298 27.5077 237.893 27.6822C237.489 27.8567 237.053 27.9442 236.613 27.9391C236.163 27.9465 235.717 27.8579 235.302 27.6792C234.888 27.5005 234.515 27.2355 234.207 26.9012C233.883 26.5741 233.628 26.1833 233.457 25.7527C233.285 25.322 233.202 24.8603 233.211 24.3957C233.21 23.9457 233.296 23.4999 233.465 23.0839C233.633 22.6679 233.881 22.29 234.193 21.9717C234.506 21.6535 234.877 21.4012 235.285 21.2294C235.693 21.0577 236.131 20.9697 236.572 20.9707V20.9717ZM233.924 29.7845H239.221V51.1984H233.924V29.7845ZM253.853 29.2334C255.817 29.2303 257.747 29.754 259.449 30.7518C261.139 31.7232 262.544 33.1358 263.519 34.8442C264.495 36.5527 265.006 38.4951 265 40.4717C265.007 42.461 264.497 44.4168 263.523 46.1407C262.572 47.8621 261.18 49.2877 259.495 50.2653C257.782 51.2574 255.841 51.7695 253.871 51.7495C252.434 51.7708 251.008 51.4909 249.682 50.927C248.356 50.3631 247.158 49.5274 246.162 48.4718C245.126 47.4363 244.308 46.1964 243.758 44.8278C243.208 43.4592 242.938 41.9907 242.964 40.5122C242.932 38.9348 243.237 37.3692 243.86 35.9247C244.483 34.4801 245.407 33.1915 246.569 32.1488C248.539 30.2624 251.145 29.2188 253.849 29.2334H253.853ZM253.932 34.2921C253.168 34.2732 252.409 34.4191 251.705 34.7201C251 35.0212 250.366 35.4706 249.844 36.0389C249.298 36.6351 248.873 37.3355 248.593 38.0998C248.313 38.8641 248.185 39.6773 248.214 40.4925C248.177 41.3189 248.301 42.1447 248.578 42.9224C248.855 43.7 249.28 44.4142 249.829 45.0239C250.35 45.591 250.983 46.0388 251.687 46.3376C252.39 46.6364 253.148 46.7795 253.91 46.7572C254.678 46.777 255.442 46.631 256.15 46.3289C256.859 46.0268 257.498 45.5753 258.023 45.0042C258.575 44.4003 259.004 43.6911 259.286 42.9175C259.567 42.1438 259.696 41.3211 259.664 40.4966C259.698 39.6798 259.573 38.8643 259.297 38.0967C259.021 37.3291 258.599 36.6245 258.056 36.0233C257.526 35.4561 256.884 35.0092 256.173 34.7118C255.462 34.4143 254.697 34.2731 253.929 34.2973L253.932 34.2921Z" fill="white"/>
<path fill-rule="evenodd" clip-rule="evenodd" d="M81.8644 56.2332L85.9828 61.0833L90.742 56.8871L95.4013 52.7791C100.406 48.3393 103.483 42.062 103.96 35.3182C104.438 28.5744 102.276 21.9122 97.9479 16.7869C93.5907 11.6876 87.4299 8.55247 80.8113 8.0663C74.1927 7.58012 67.6542 9.78245 62.6241 14.1922C57.6193 18.632 54.5422 24.9093 54.0651 31.6531C53.5879 38.3969 55.7494 45.0591 60.0775 50.1843L76.5135 69.5338C77.9813 71.263 79.5266 73.1353 81.9123 71.1395L81.9836 71.0782L82.0529 71.016C84.3347 68.8924 82.7374 67.0668 81.2696 65.3376L80.2448 64.1306L64.8366 45.9829C61.6006 42.1438 59.9853 37.1569 60.3429 32.1093C60.7005 27.0618 63.0019 22.3629 66.7456 19.0371C70.5135 15.7399 75.408 14.0941 80.362 14.4585C85.3159 14.8228 89.9277 17.1678 93.1918 20.9821C96.4283 24.8212 98.044 29.8083 97.6866 34.8561C97.3292 39.9039 95.0277 44.603 91.2839 47.929L86.6246 52.037L82.5062 47.1879L78.3878 42.3389L74.3559 37.5916C73.3032 36.3251 72.7794 34.6888 72.8967 33.0335C73.014 31.3781 73.7631 29.8355 74.9834 28.7362C76.2265 27.6639 77.8324 27.1303 79.457 27.2498C81.0815 27.3693 82.5956 28.1324 83.6746 29.3756C84.5692 30.4537 85.0866 31.8043 85.1452 33.2148C85.2039 34.6254 84.8005 36.0157 83.9985 37.1671C83.9612 37.2203 83.9231 37.2729 83.8844 37.3248C83.4752 37.9261 83.2732 38.6487 83.3101 39.3795C83.347 40.1102 83.6206 40.8079 84.0882 41.3633C86.156 43.7982 88.4378 42.123 89.653 40.0618C91.0065 37.7639 91.6167 35.0907 91.3974 32.4202C91.178 29.7497 90.1402 27.217 88.4307 25.1804C86.2592 22.6514 83.1963 21.0973 79.907 20.8554C76.6176 20.6134 73.3674 21.7033 70.862 23.8882C68.3799 26.1007 66.8545 29.2215 66.6171 32.5729C66.3796 35.9244 67.4493 39.236 69.5937 41.7888L73.6256 46.5361L77.746 51.38L81.8644 56.2291V56.2332Z" fill="white"/>
</svg>
