<?xml version="1.0" encoding="UTF-8"?>
<!-- Created by sK1 2.0rc4 (https://sk1project.net/) -->
<svg xmlns="http://www.w3.org/2000/svg" height="1296.0px" width="3672.0px" version="1.1" xmlns:xlink="http://www.w3.org/1999/xlink" id="f2bd2626-90c5-11ec-867b-7085c2d4df83">

<g>
	<path style="fill:#ffffff;" d="M 1368.42,528.54 C 1368.42,514.89 1379.27,504.04 1393.33,504.04 1393.3747,504.0397 1393.4276,504.0395 1393.4805,504.0395 1406.9263,504.0395 1417.8305,514.9437 1417.8305,528.3895 1417.8305,528.4424 1417.8303,528.4953 1417.83,528.5481 L 1417.83,647.44 1551.19,513.28 C 1556.81,507.28 1562.83,504.04 1571.67,504.04 1571.7508,504.039 1571.8461,504.0384 1571.9416,504.0384 1584.4377,504.0384 1594.5716,514.1723 1594.5716,526.6684 1594.5716,526.7639 1594.571,526.8592 1594.5699,526.9544 1594.57,534.57 1591.35,540.19 1585.73,545.41 L 1498.17,629.77 1593.0,747.46 C 1597.0,752.68 1599.83,757.46 1599.83,765.13 1599.83,778.79 1588.98,789.23 1574.92,789.23 1565.29,789.23 1559.26,784.41 1554.04,777.58 L 1463.62,662.3 1417.83,706.49 1417.83,764.73 C 1417.8303,764.7747 1417.8305,764.8276 1417.8305,764.8805 1417.8305,778.3263 1406.9263,789.2305 1393.4805,789.2305 1393.4276,789.2305 1393.3747,789.2303 1393.3219,789.23 1379.27,789.23 1368.42,778.38 1368.42,764.73 L 1368.42,528.54 Z"/>
	<path style="fill:#ffffff;" d="M 1633.13,597.23 C 1633.13,583.57 1643.57,572.73 1657.23,572.73 1657.2777,572.7297 1657.3341,572.7295 1657.3905,572.7295 1670.8309,572.7295 1681.7305,583.6291 1681.7305,597.0695 1681.7305,597.1259 1681.7303,597.1823 1681.73,597.2386 L 1681.73,607.67 C 1695.39,587.99 1715.07,570.72 1748.01,570.72 1795.81,570.72 1823.52,602.85 1823.52,651.86 L 1823.52,765.13 C 1823.5225,765.2592 1823.524,765.4114 1823.524,765.564 1823.524,778.6343 1812.9243,789.234 1799.854,789.234 1799.7014,789.234 1799.5492,789.2325 1799.3973,789.2297 1785.77,789.23 1774.92,778.79 1774.92,765.13 L 1774.92,666.72 C 1774.92,633.78 1758.45,614.9 1729.53,614.9 1701.41,614.9 1681.73,634.59 1681.73,667.52 L 1681.73,765.13 C 1681.73,778.79 1670.89,789.23 1657.23,789.23 1657.1733,789.2305 1657.1063,789.2308 1657.0392,789.2308 1643.8363,789.2308 1633.1292,778.5237 1633.1292,765.3208 1633.1292,765.2537 1633.1295,765.1867 1633.1301,765.1198 L 1633.13,597.23 Z"/>
	<path style="fill:#ffffff;" d="M 1854.45,682.39 L 1854.45,681.58 C 1854.45,620.93 1902.65,570.72 1967.72,570.72 2032.79,570.72 2080.6,620.13 2080.6,680.78 L 2080.6,681.58 C 2080.6,741.83 2032.39,792.04 1966.92,792.04 1902.25,792.0 1854.45,742.64 1854.45,682.39 Z M 2031.99,682.39 L 2031.99,681.58 C 2031.99,644.23 2005.08,613.3 1966.92,613.3 1927.92,613.3 1903.06,643.82 1903.06,680.78 L 1903.06,681.58 C 1903.06,718.58 1929.97,749.46 1967.72,749.46 2007.09,749.46 2032.0,718.94 2032.0,682.39 L 2031.99,682.39 Z"/>
	<path style="fill:#ffffff;" d="M 2152.9,769.15 L 2095.9,607.67 C 2094.5123,603.9842 2093.6414,599.7265 2093.4918,595.2862 2093.49,583.57 2102.73,572.73 2117.19,572.73 2129.19,572.73 2137.27,580.73 2140.89,592.01 L 2181.89,720.54 2223.19,592.0 C 2226.81,580.75 2235.64,572.72 2248.09,572.72 L 2250.91,572.72 C 2263.36,572.72 2272.19,580.72 2275.81,592.0 L 2317.58,720.53 2359.0,591.61 C 2362.21,581.16 2369.84,572.73 2382.7,572.73 2382.8042,572.7283 2382.927,572.7273 2383.05,572.7273 2395.4798,572.7273 2405.5631,582.7939 2405.59,595.2174 2405.4135,599.1539 2404.6949,602.8603 2403.5065,606.3496 L 2345.7,769.15 C 2340.48,784.01 2330.44,790.84 2318.79,790.84 L 2317.18,790.84 C 2305.18,790.84 2295.09,784.01 2290.67,769.95 L 2249.3,643.82 2207.53,770.0 C 2203.11,784.06 2193.06,790.89 2181.42,790.89 L 2179.81,790.89 C 2167.76,790.84 2157.72,784.0 2152.9,769.15 Z"/>
	<path style="fill:#ffffff;" d="M 2435.28,597.23 C 2435.28,583.57 2445.72,572.73 2459.38,572.73 2459.4277,572.7297 2459.4841,572.7295 2459.5405,572.7295 2472.9809,572.7295 2483.8805,583.6291 2483.8805,597.0695 2483.8805,597.1259 2483.8803,597.1823 2483.88,597.2386 L 2483.88,607.67 C 2497.54,587.99 2517.22,570.72 2550.15,570.72 2597.95,570.72 2625.67,602.85 2625.67,651.86 L 2625.67,765.13 C 2625.6725,765.2592 2625.674,765.4114 2625.674,765.564 2625.674,778.6343 2615.0743,789.234 2602.004,789.234 2601.8514,789.234 2601.6992,789.2325 2601.5473,789.2297 2587.91,789.23 2577.07,778.79 2577.07,765.13 L 2577.07,666.72 C 2577.07,633.78 2560.6,614.9 2531.68,614.9 2503.56,614.9 2483.88,634.59 2483.88,667.52 L 2483.88,765.13 C 2483.88,778.79 2473.03,789.23 2459.38,789.23 2459.3233,789.2305 2459.2563,789.2308 2459.1892,789.2308 2445.9863,789.2308 2435.2792,778.5237 2435.2792,765.3208 2435.2792,765.2537 2435.2795,765.1867 2435.2801,765.1198 L 2435.28,597.23 Z"/>
	<path style="fill:#ffffff;" d="M 2665.84,528.54 C 2665.84,514.89 2676.68,504.04 2690.74,504.04 2690.7877,504.0397 2690.8441,504.0395 2690.9005,504.0395 2704.3409,504.0395 2715.2405,514.9391 2715.2405,528.3795 2715.2405,528.4359 2715.2403,528.4923 2715.24,528.5486 L 2715.24,622.94 2849.4,622.94 2849.4,528.54 C 2849.3997,528.4953 2849.3995,528.4424 2849.3995,528.3895 2849.3995,514.9436 2860.3037,504.0395 2873.7495,504.0395 2873.8059,504.0395 2873.8623,504.0397 2873.9186,504.04 2887.96,504.04 2898.81,514.89 2898.81,528.54 L 2898.81,764.73 C 2898.81,778.38 2887.96,789.23 2873.91,789.23 2873.8623,789.2303 2873.8059,789.2305 2873.7495,789.2305 2860.3037,789.2305 2849.3995,778.3264 2849.3995,764.8805 2849.3995,764.8276 2849.3997,764.7747 2849.4,764.7219 L 2849.4,668.73 2715.24,668.73 2715.24,764.73 C 2715.2403,764.7777 2715.2405,764.8341 2715.2405,764.8905 2715.2405,778.3309 2704.3409,789.2305 2690.9005,789.2305 2690.8441,789.2305 2690.7877,789.2303 2690.7314,789.23 2676.68,789.23 2665.84,778.38 2665.84,764.73 L 2665.84,528.54 Z"/>
	<path style="fill:#ffffff;" d="M 2929.74,682.39 L 2929.74,681.58 C 2929.74,620.93 2977.94,570.72 3043.01,570.72 3108.08,570.72 3155.88,620.13 3155.88,680.78 L 3155.88,681.58 C 3155.88,741.83 3107.68,792.04 3042.21,792.04 2977.54,792.0 2929.74,742.64 2929.74,682.39 Z M 3107.28,682.39 L 3107.28,681.58 C 3107.28,644.23 3080.37,613.3 3042.21,613.3 3003.21,613.3 2978.34,643.82 2978.34,680.78 L 2978.34,681.58 C 2978.34,718.58 3005.25,749.46 3043.01,749.46 3082.37,749.46 3107.28,718.94 3107.28,682.39 Z"/>
	<path style="fill:#ffffff;" d="M 3181.19,765.93 C 3175.97,763.12 3171.95,757.1 3171.95,749.06 3171.9492,748.9942 3171.9487,748.9165 3171.9487,748.8387 3171.9487,738.0931 3180.6631,729.3787 3191.4087,729.3787 3191.4865,729.3787 3191.5642,729.3792 3191.6418,729.3801 3195.4741,729.4027 3199.0709,730.4431 3202.1707,732.2449 3222.56,745.85 3243.85,752.68 3263.13,752.68 3284.02,752.68 3296.07,743.84 3296.07,729.78 L 3296.07,729.0 C 3296.07,712.53 3273.57,706.91 3248.67,699.28 3217.34,690.44 3182.39,677.59 3182.39,637.02 L 3182.39,636.21 C 3182.39,596.05 3215.73,571.54 3257.91,571.54 3280.4,571.54 3304.1,577.97 3324.59,588.81 3331.41,592.43 3336.23,598.86 3336.23,607.29 3336.23,618.54 3327.4,626.97 3316.15,626.97 3316.0392,626.9723 3315.9087,626.9736 3315.7778,626.9736 3312.3745,626.9736 3309.1798,626.0783 3306.4166,624.5104 3289.24,615.73 3271.51,610.1 3256.7,610.1 3237.82,610.1 3226.98,618.94 3226.98,630.99 L 3226.98,631.79 C 3226.98,647.46 3249.87,653.89 3274.78,661.92 3305.71,671.56 3340.65,685.62 3340.65,723.78 L 3340.65,724.58 C 3340.65,769.17 3306.11,791.26 3261.92,791.26 3231.7335,791.0157 3203.7949,781.5761 3180.7132,765.6106 Z"/>
	<path style="fill:#ffffff;" d="M 3388.45,728.58 L 3388.45,616.91 3380.45,616.91 C 3380.3139,616.9132 3380.1536,616.915 3379.993,616.915 3368.4577,616.915 3359.103,607.5603 3359.103,596.025 3359.103,584.4897 3368.4577,575.135 3379.993,575.135 3380.1536,575.135 3380.3139,575.1368 3380.4737,575.1404 L 3388.45,575.14 3388.45,539.0 C 3388.45,525.5818 3399.3318,514.7 3412.75,514.7 3426.1682,514.7 3437.05,525.5818 3437.05,539.0 L 3437.05,575.15 3475.21,575.15 C 3475.3461,575.1468 3475.5064,575.145 3475.667,575.145 3487.2023,575.145 3496.557,584.4997 3496.557,596.035 3496.557,607.5703 3487.2023,616.925 3475.667,616.925 3475.5064,616.925 3475.3461,616.9232 3475.1863,616.9196 L 3437.05,616.92 3437.05,721.0 C 3437.05,739.87 3446.69,747.51 3463.16,747.51 3468.78,747.51 3473.6,746.3 3475.21,746.3 3486.06,746.3 3495.7,755.14 3495.7,766.38 3495.7,775.22 3489.7,782.45 3482.84,785.26 3473.1651,788.8286 3461.9959,790.8937 3450.3453,790.8937 3450.0482,790.8937 3449.7513,790.8924 3449.4548,790.8897 3413.76,790.84 3388.45,775.17 3388.45,728.58 Z"/>
	<path style="fill:#ffffff;" d="M 1152.0,648.02 C 1152.0,926.3134 926.3134,1152.0 648.02,1152.0 369.7266,1152.0 144.04,926.3134 144.04,648.02 144.04,369.7266 369.7266,144.04 648.02,144.04 926.3134,144.04 1152.0,369.7266 1152.0,648.02 Z"/>
	<path style="fill:#0f4266;" d="M 1075.5,648.02 C 1075.5,884.0707 884.0707,1075.5 648.02,1075.5 411.9693,1075.5 220.54,884.0707 220.54,648.02 220.54,411.9693 411.9693,220.54 648.02,220.54 884.0707,220.54 1075.5,411.9693 1075.5,648.02 Z"/>
	<path style="fill:#ffffff;" d="M 1044.04,648.02 C 1044.04,866.6988 866.6988,1044.04 648.02,1044.04 429.3412,1044.04 252.0,866.6988 252.0,648.02 252.0,429.3412 429.3412,252.0 648.02,252.0 866.6988,252.0 1044.04,429.3412 1044.04,648.02 Z"/>
	<path style="fill-rule:evenodd;fill:#0f4266;" d="M 833.14,432.0 C 816.1037,432.0057 802.29,445.8229 802.29,462.86 802.29,462.86 802.29,462.86 802.29,462.86 L 802.29,617.14 580.54,617.14 713.0,484.68 C 718.592,479.0908 722.0523,471.3687 722.0523,462.84 722.0523,445.7926 708.2274,431.9677 691.18,431.9677 682.6613,431.9677 674.9472,435.4199 669.3609,441.0013 L 493.71,616.69 493.71,462.86 C 493.7132,462.6947 493.715,462.4998 493.715,462.3045 493.715,445.2639 479.8956,431.4445 462.855,431.4445 445.8144,431.4445 431.995,445.2639 431.995,462.3045 431.995,462.4998 431.9968,462.6947 432.0004,462.8891 L 432.0,833.14 C 431.9968,833.3053 431.995,833.5002 431.995,833.6955 431.995,850.7361 445.8144,864.5555 462.855,864.5555 479.8956,864.5555 493.715,850.7361 493.715,833.6955 493.715,833.5002 493.7132,833.3053 493.7096,833.1109 L 493.71,678.86 669.36,854.51 C 674.9687,860.2375 682.7802,863.7896 691.4196,863.7896 708.4602,863.7896 722.2796,849.9702 722.2796,832.9296 722.2796,824.2902 718.7275,816.4787 713.0043,810.8764 L 581.0,678.87 802.3,678.87 802.3,833.14 C 802.2968,833.3053 802.295,833.5002 802.295,833.6955 802.295,850.7361 816.1144,864.5555 833.155,864.5555 850.1956,864.5555 864.015,850.7361 864.015,833.6955 864.015,833.5002 864.0132,833.3053 864.0096,833.1109 L 864.01,462.86 C 864.01,462.86 864.01,462.86 864.01,462.86 864.01,445.8194 850.1906,432.0 833.15,432.0 833.1465,432.0 833.143,432.0 833.1395,432.0 Z"/>
</g>
</svg>
