<?xml version="1.0" encoding="UTF-8"?>
<!DOCTYPE svg PUBLIC "-//W3C//DTD SVG 1.1//EN" "http://www.w3.org/Graphics/SVG/1.1/DTD/svg11.dtd">
<!-- Creator: CorelDRAW 2021.5 -->
<svg xmlns="http://www.w3.org/2000/svg" xml:space="preserve" width="250mm" height="31.2709mm" version="1.1" style="shape-rendering:geometricPrecision; text-rendering:geometricPrecision; image-rendering:optimizeQuality; fill-rule:evenodd; clip-rule:evenodd"
viewBox="0 0 260796.1 32621.3"
 xmlns:xlink="http://www.w3.org/1999/xlink"
 xmlns:xodm="http://www.corel.com/coreldraw/odm/2003">
 <defs>
  <style type="text/css">
   <![CDATA[
    .fil0 {fill:#FEFEFE}
    .fil1 {fill:#FEFEFE;fill-rule:nonzero}
   ]]>
  </style>
 </defs>
 <g id="Layer_x0020_1">
  <metadata id="CorelCorpID_0Corel-Layer"/>
  <g id="_3034445558304">
   <g>
    <polygon class="fil0" points="12269,1569.5 14088,0.1 19664.8,5980.4 17944.3,7719.5 "/>
    <polygon class="fil0" points="20232.4,1927.9 22561,1337.8 24328.3,9187 22152.9,9697.9 "/>
    <polygon class="fil0" points="27257.8,6021.2 29599.5,6900.5 26618,14542.2 24465.7,13560.9 "/>
    <polygon class="fil0" points="30620.4,13018.9 32102.1,14535.5 26311.1,20322.7 24930.8,18622.8 "/>
    <rect class="fil0" transform="matrix(1.10389 -0.246759 0.246759 1.10389 22377.6 22614.3)" width="7476.6" height="2251"/>
    <polygon class="fil0" points="17215.4,27009.7 18103.1,25031.8 26201.9,27329.1 25266.7,29763.2 "/>
    <polygon class="fil0" points="12246.8,26620.5 13813.2,25372.3 19369.8,31025.8 17760.1,32621.3 "/>
    <rect class="fil0" transform="matrix(0.107696 -0.024074 0.024074 0.107696 7390.86 23118.2)" width="25080.7" height="75975.8"/>
    <polygon class="fil0" points="7537.3,18605.3 5474.7,17950.4 2678.1,25647.4 4951.3,26536.1 "/>
    <polygon class="fil0" points="0.1,18366.4 5981.8,12656.5 7408.1,14014 1552.4,19736.2 "/>
    <rect class="fil0" transform="matrix(0.107696 -0.024074 0.024074 0.107696 1297.3 9485.28)" width="73151.7" height="24005"/>
    <polygon class="fil0" points="6564,3090.1 14645.7,5763.6 13980.4,7829.9 5940,5232.4 "/>
    <path class="fil1" d="M15391.2 13309.4c794.5,-177.6 1567.4,-2.7 2336.6,535.9 683.3,465.3 1101.9,1059.1 1263,1780.1 179.2,801.7 -5.4,1599.9 -555.5,2387.2 -466.7,676 -1038.6,1089.5 -1715.4,1240.9 -816.5,182.5 -1629.5,1.3 -2431.5,-545.6 -676,-466.8 -1091.2,-1046 -1249,-1752.2 -185.8,-831.2 4.5,-1638.5 572.5,-2414.3 470.2,-661.2 1065.7,-1072.4 1779.3,-1231.9z"/>
   </g>
   <g>
    <path class="fil1" d="M54742.8 13498.7c-1764.9,-40.4 -3513.3,-57.8 -5247.9,-57.8 -1828.1,0 -3629.4,17.4 -5400.5,57.8 -119.5,0 -175.6,-69.1 -175.6,-211.1 0,-135.9 56,-208.1 175.6,-219.8 483.4,-46.2 791.4,-89.7 920.2,-127.4 202.2,-63.6 347.9,-173.6 447,-329.6 172.4,-254.6 261.7,-1024.2 261.7,-2306l0 -6299c0,-882.6 -16.5,-1441 -49.9,-1678.2 -26.1,-220.2 -89.3,-422.5 -191.8,-601.8 -92.9,-153.3 -268.4,-257.5 -536.3,-315.3 -129.4,-26.1 -427.1,-61 -900.7,-101.4 -129.4,-11.7 -195.6,-83.9 -195.6,-220.2 0,-164.5 66.2,-245.8 195.6,-245.8 69.3,0 569.6,14.4 1493.4,43.5 543,17.5 986.3,26.1 1330.7,26.1 367.5,0 877.6,-11.7 1529.8,-34.9 692.4,-17.1 1126,-28.8 1301.5,-34.6 142.2,0 212,81.3 212,245.8 0,130.5 -56.4,202.7 -172.4,220.2 -519.8,52.1 -830.9,92.4 -940.1,118.4 -208.9,52.1 -357.7,150.6 -447,298.2 -149.4,248.9 -225.3,1006.8 -225.3,2280l0 6299c0,1151.3 89.3,1851.8 261.7,2100.7 162.2,219.7 436.7,367.2 827.8,442.6 231.5,37.7 589.2,57.8 1076.3,57.8 1350.7,0 2479.8,-292.4 3383.5,-882.5 493.7,-344.5 1010,-920.3 1553,-1727.5 56.4,-86.5 119,-127.4 185.8,-127.4 29.7,0 82.6,9 151.9,26.1 136,37.7 205.3,95.5 205.3,168.2 0,17 -3.1,40.4 -9.8,69.1 -231.9,981.2 -572.7,2005.5 -1019.7,3067zm3145.4 -5068.9c0,-706.2 -33.3,-1195.1 -99.5,-1466.8 -82.6,-237.2 -278.1,-356.1 -582.5,-356.1 -63.1,0 -116,0 -152.4,0l-516.3 35.1c-49.8,0 -89.8,0 -116,0 -76.5,0 -122.7,-63.7 -135.9,-194.2 -6.7,-52 -9.8,-86.5 -9.8,-104 0,-83.9 75.9,-135.9 225.3,-159.2 1099.2,-219.8 2171.8,-486.1 3218.2,-798.8 155.5,0 235.1,61 235.1,179.4 -52.9,1131.4 -79.6,2155.7 -79.6,3075.9l0 2274.1c0,1050.3 46.2,1669.6 136,1854.4 79,124.7 221.7,205.8 427,237.7 96,17 334,37.1 708.7,60.5 89.3,11.7 135.5,83.9 135.5,219.8 0,142.1 -46.2,211.1 -135.5,211.1 -162.7,-5.8 -407.5,-11.2 -738.6,-17 -678.9,-23.4 -1165.4,-31.8 -1463.6,-31.8 -86.3,0 -834.4,14.3 -2251.4,48.8 -129.4,0 -191.9,-69.1 -191.9,-211.1 0,-147.6 55.9,-219.8 171.9,-219.8 364.4,-23.4 602.4,-49.3 718.4,-78 155.5,-43.5 264.9,-118.8 331,-220.2 109.3,-156.1 165.8,-523.4 165.8,-1102.3l0 -752 0 -2485.4zm860.6 -7873.1c357.7,0 672.3,130.5 950.5,396.5 248.4,231.4 371,489.3 371,772.7 0,315.3 -156,598.7 -466.9,847.6 -264.9,214.4 -549.7,321.1 -854.6,321.1 -367.4,0 -698.4,-135.9 -989.9,-407.7 -244.8,-231.4 -367.5,-483.4 -367.5,-761 0,-326.9 159.1,-613.5 476.7,-856.6 264.9,-208.1 560,-312.6 880.7,-312.6zm4116.4 7887.1l-915.5 10.3c-107.2,0 -159.6,-58.3 -159.6,-174.9 0,-106.3 57.5,-164.6 174,-170.9 469.5,-54.2 889.3,-233.2 1256.3,-537.7 321.7,-241.7 567.6,-537.2 741.6,-891.6 35.9,-81.2 119,-122.8 243.2,-122.8 136,0 202.8,41.6 202.8,122.8 -26.2,810.5 -40.6,1235.5 -40.6,1275 748.3,0 1423.1,-12.5 2024.1,-35.4 42.6,0 64.2,16.6 64.2,54.2 0,12.5 0,22.8 0,31.4l-162.2 364.2c-14.4,58.7 -59.5,85.6 -138,85.6 -708.2,-31.4 -1313.8,-48 -1816.7,-48l-36 3197.9c0,647.6 90.9,1079.1 274,1293.3 202.7,225.1 463,335.5 775,335.5 302.7,0 605.6,-110.4 908.3,-335.5 26.2,-18.4 55,-29.1 83.7,-29.1 45.2,0 94.9,21.1 145.3,66.9 62.1,52 90.8,97.7 90.8,133.1 0,33.7 -19.5,69.1 -62.1,104.5 -493.7,430.9 -1070.5,647.6 -1733,647.6 -660.5,0 -1161.4,-143.5 -1499.6,-427 -321.8,-310.3 -484,-774.9 -484,-1397.9 0,-349.8 11.9,-937.2 35.5,-1764.7l28.7 -1787.1zm10761.4 512.1c546.1,-826.9 1287.6,-1239.5 2229.4,-1239.5 469.5,0 893.5,118.8 1270.2,354.3 507.5,312.5 760.1,791.6 760.1,1433.2l-13.9 1391.6 0 860.6c0,758.3 33.4,1199.6 97.5,1324.7 57,85.6 166.7,147.9 328.9,183.4 64.2,12.5 224.3,31.4 474.2,54.2 76.5,12.6 112.4,58.3 112.4,135.4 0,101.8 -35.9,152.1 -112.4,152.1l-1570.9 -35.5c-204.8,0 -493.2,4.1 -864.8,10.3 -438.8,12.5 -703,21.1 -796.5,25.1 -83.1,0 -126.2,-50.3 -126.2,-152.1 0,-89.6 43.1,-135.4 126.2,-135.4 274.6,-22.8 441.4,-45.7 503.4,-66.8 111.9,-26.9 193,-85.2 242.7,-170.9 76.5,-133.2 112.5,-575 112.5,-1324.7l0 -1702c0,-479.3 -52.4,-837.7 -160.1,-1074.9 -171.4,-418.9 -505,-627.5 -998.7,-627.5 -498.3,0 -908.3,237.7 -1230.1,712.6 -200.2,285.3 -300.2,610.4 -300.2,977.3l0 1714.5c0,758.3 33.4,1199.6 97.5,1324.7 47.7,89.6 152.9,150.2 314.5,183.4 74,12.5 243.3,31.4 503.5,54.2 64.1,8.1 97.4,58.3 97.4,148 0,93.7 -38,139.5 -111.8,139.5 -28.8,0 -319.7,-8.6 -872.5,-25.1 -293.6,-6.3 -527,-10.3 -698.9,-10.3 -214.5,0 -502.9,4.1 -865.2,10.3 -448,16.6 -703.1,25.1 -769.9,25.1 -83.7,0 -124.1,-50.3 -124.1,-152.1 0,-89.6 40.5,-135.4 124.1,-135.4 247.9,-14.8 410.1,-35.4 491.1,-60.5 109.3,-31.4 193,-91.5 243.3,-177.1 74,-133.2 111.9,-575 111.9,-1324.7l0 -1702 0 -250.3c0,-329.1 -52.4,-604 -159.6,-824.6 -183.8,-418.9 -519.9,-627.5 -1013.7,-627.5 -478.7,0 -879.6,237.7 -1201.3,712.6 -209.9,306.4 -314.6,639.6 -314.6,1001.9l0 1689.9c0,778.9 28.8,1218.4 83.7,1324.7 47.3,93.7 152.4,154.3 314.6,183.4 47.7,8.6 209.4,26.9 488.5,54.2 73.9,12.6 111.9,66.3 111.9,160.1 0,85.6 -38.1,127.4 -111.9,127.4 -1046.4,-25.1 -1576,-35.5 -1585.3,-35.5 -209.9,0 -491.1,4.1 -844.1,10.3 -429.1,16.6 -684.1,25.1 -762.7,25.1 -83.7,0 -124.1,-45.8 -124.1,-139.5 0,-89.7 40.5,-139.9 124.1,-148 274,-22.8 443.5,-45.7 502.9,-66.8 117,-26.9 200.2,-85.2 252.6,-170.9 69.3,-106.3 105.2,-354.3 105.2,-743.6l0 -581.2 0 -1848.1c0,-541.3 -33.3,-887.5 -98,-1037.3 -75.9,-174.8 -209.4,-262.4 -405,-262.4 -43.1,0 -76.5,0 -98,0l-343.4 23c-33.3,0 -54.9,0 -68.7,0 -71.9,0 -109.8,-45.8 -119.5,-139.5 0,-21.1 0,-40 0,-60.6 0,-64.6 52.9,-108.5 160.1,-129.1 736.4,-137.6 1499.1,-321.1 2290.9,-548 102.1,0 155,33.2 155,102.2 -19.5,468.7 -28.8,818.5 -28.8,1049.9 238.2,-397.8 560.4,-706.3 970.5,-920.7 340.8,-179.3 688.7,-269 1049,-269 493.1,0 917.6,104.5 1277.3,310.8 367.5,216.6 624.7,524.7 767.8,928.7zm10999.4 4839.8c-116.9,0 -173.9,-50.2 -173.9,-152.4 28.7,-366.5 40.5,-691.5 40.5,-976.8 -488.5,760.2 -1201.3,1141.3 -2143.1,1141.3 -527,0 -980.2,-114.3 -1361.5,-341.2 -522,-306.3 -781.7,-783.4 -781.7,-1435.5l26.2 -1335.5 0 -989.4c0,-492 -16.9,-814.8 -54.9,-964.6 -59.6,-226.9 -210,-335.4 -448.6,-322.9l-369.5 12.5c-78.6,0 -128.3,-6.3 -145.3,-18.8 -19,-16.6 -30.8,-56.1 -35.9,-122.9 -4.6,-31.4 -7.2,-54.2 -7.2,-66.9 0,-68.5 50.3,-108.1 147.8,-114.3 870.4,-102.2 1638.1,-221.1 2303.2,-354.3 111.9,0 169.4,41.7 169.4,127 -38.5,793.8 -57.5,1522.9 -57.5,2185.3l0 1312.6c0,610.4 54.9,1010.4 162.1,1201.9 181.2,402.4 527.1,604.1 1039.2,604.1 512.7,0 932.5,-241.3 1256.8,-727 200.2,-287.4 300.2,-616.6 300.2,-987.5l0 -1764.2c0,-393.7 -26.2,-712.6 -83.7,-952 -59.5,-235.4 -209.9,-348 -445.4,-335.5l-383.9 25.1 -50.3 0c-69.3,0 -109.7,-52.1 -119,-154.3 -4.6,-39.4 -7.2,-62.4 -7.2,-66.9 0,-60.1 55,-97.7 162.2,-110.3 591.2,-60.6 1339.4,-178.9 2247.7,-358.3 102.6,0 155,37.7 155,114.9 -28.2,605.8 -42.6,1339.4 -42.6,2197.4l0 1727c0,674.9 28.2,1089.8 83.1,1239.6 66.7,150.2 243.3,233.6 531.6,250.3l272.1 12.5c92.8,8 140.6,56 140.6,145.7 0,93.8 -43.1,139.5 -126.2,139.5 -674.9,33.2 -1409.3,104 -2200.7,214.8zm7452.3 -5950.1c43.1,658.4 83.7,1141.8 126.2,1452.1 0,64.6 -54.5,104.5 -161.7,114.8 -21.5,4.1 -43.1,6.4 -62.1,6.4 -54.9,0 -105.3,-29.2 -147.8,-92 -474.6,-849.8 -1032.5,-1275 -1676.1,-1275 -743.7,0 -1115.7,298.2 -1115.7,892 0,329.1 357.7,624.7 1075.1,885.2l502.9 187.5c748.8,289.7 1251.7,558.3 1509.4,806.4 297.6,289.2 445.4,674.8 445.4,1160.1 0,525.1 -226.4,958.4 -676.9,1300.1 -457.7,341.6 -1068,512.5 -1837.8,512.5 -710.8,0 -1390.3,-118.8 -2031.3,-354.3 -140.6,-418.8 -245.8,-870.9 -314.5,-1354.4 0,-66.3 45.2,-101.8 140.6,-110.3 45.2,-4.1 78.4,-6.3 97.4,-6.3 40.6,0 76.5,27.3 105.3,79.3 255.1,443.6 578.9,791.6 970,1043.6 343.3,226.9 689.2,341.7 1032.5,341.7 433.7,0 760.1,-118.8 977.2,-354.3 179.1,-191.5 266.8,-445.8 266.8,-762.4 0,-260.6 -130.8,-479 -390.6,-658.4 -160.1,-110.4 -467.5,-260.6 -922.7,-452.1l-488.6 -202.2c-648.7,-264.7 -1073,-499.6 -1277.8,-708.1 -257.7,-264.7 -383.9,-627 -383.9,-1091.6 0,-427 202.7,-783.4 607.7,-1068.6 412.6,-289.8 965.8,-433.2 1654.5,-433.2 255.1,0 598.5,41.2 1027.4,122.9 152.9,26.9 310,41.7 474.8,41.7 138,0 297.6,-8.6 474.2,-23.4zm6591.6 5450.1c378.7,-37.7 605.6,-66.9 684.1,-85.6 159.6,-41.7 274,-116.6 343.3,-226.9 83.7,-137.7 133.4,-364.6 147.8,-683.5 7.1,-137.3 11.8,-468.6 11.8,-993.7l0 -4535.3c0,-656.1 -7.2,-1056.1 -19,-1201.9 -14.4,-158.3 -57,-301.8 -126.2,-426.9 -69.4,-118.8 -212.5,-197.8 -427.1,-239.5 -97.4,-14.8 -328.9,-40 -691.2,-73.1 -64.2,0 -97.5,-56 -97.5,-170.9 0,-108.1 38,-164.5 111.9,-164.5 126.2,4 502.9,14.8 1132.6,31.4 400.3,12.5 712.8,18.8 941.7,18.8 268.9,0 641,-8.4 1110.6,-25 484,-12.6 798.6,-21.2 941.8,-25.1 85.6,0 126.2,58.3 126.2,177.1 0,93.7 -40.6,145.7 -126.2,158.3 -367,33.2 -598.4,64.6 -691.3,91.5 -157.5,41.7 -272,114.9 -340.7,221.2 -102.6,178.9 -155,720.6 -155,1628.7l0 4535.3c0,714.8 4.6,1135.4 14.4,1256.5 14.3,166.4 59.5,308.1 133.4,420.7 64.2,114.3 207.3,193.7 426.5,239.4 92.8,14.8 321.7,39.4 691.3,73.1 83.6,8 124.1,60.1 124.1,158.3 0,101.8 -47.7,152.1 -145.2,152.1 -160.1,-4.1 -393.6,-8.6 -705.7,-12.6 -644.1,-16.6 -1108.5,-22.8 -1397.4,-22.8 -13.8,0 -681.5,10.3 -2004.5,35.5 -74,0 -112.5,-50.3 -112.5,-152.1 0,-98.2 33.4,-150.2 98.1,-158.3zm7698 -4389.5c527.1,-793.8 1263.5,-1189.8 2214.5,-1189.8 474.8,0 908.4,118.8 1299.5,354.3 524.5,312.5 789.3,791.6 789.3,1433.2l-14.4 1391.6 0 860.6c0,741.3 36,1183 111.9,1324.7 50.3,89.6 143.1,150.2 279.2,183.4 68.7,16.6 226.4,35.5 467,54.2 73.9,12.6 112.4,62.4 112.4,148 0,93.7 -38.5,139.5 -112.4,139.5 -4.6,0 -288.4,-8.6 -850.9,-25.1 -288.4,-6.3 -524.5,-10.3 -705.6,-10.3 -205.3,0 -491.1,4.1 -858.6,10.3 -433.7,16.6 -691.2,25.1 -777,25.1 -73.9,0 -111.8,-45.8 -111.8,-139.5 0,-98.3 38,-148 111.8,-148 247.9,-14.8 410.1,-35.4 488.6,-60.5 112.4,-31.4 193.4,-91.5 245.8,-177.1 73.9,-133.2 111.9,-575 111.9,-1324.7l0 -1702c0,-495.9 -59.6,-854.3 -174,-1074.9 -204.8,-418.9 -553.3,-627.5 -1041.8,-627.5 -264.8,0 -524.5,77.2 -775,231.5 -209.4,131.3 -378.7,291.5 -510.1,481.1 -200.1,293.8 -300.2,627 -300.2,1001.9l0 1689.9c0,778.9 28.8,1218.4 83.7,1324.7 57,93.7 157.1,154.3 300.2,183.4 57,12.5 219.2,31.4 488.6,54.2 83.7,8.1 126.2,58.3 126.2,148 0,93.7 -42.6,139.5 -126.2,139.5 -117,-4.1 -288.4,-8.6 -517.3,-12.6 -469.6,-16.6 -805.8,-22.8 -1011.1,-22.8 -214.5,0 -502.9,4.1 -867.3,10.3 -441.4,16.6 -703.6,25.1 -782.1,25.1 -64.7,0 -98.1,-45.8 -98.1,-139.5 0,-85.6 33.4,-135.4 98.1,-148 283.7,-22.8 457.7,-45.7 517.3,-66.8 111.8,-26.9 192.9,-85.2 245.3,-170.9 64.7,-116.6 98.1,-558.3 98.1,-1324.7l0 -1848.1c0,-549.9 -33.4,-899.6 -98.1,-1049.9 -75.9,-174.9 -204.8,-262.4 -390.6,-262.4 -24.1,0 -43.1,0 -57.5,0l-383.8 25.1c-33.4,0 -55,0 -69.4,0 -80.5,0 -123.6,-48 -133.4,-141.8 0,-21.1 0,-37.7 0,-54.2 0,-68.6 57.5,-114.8 174,-135.4 727.2,-121.1 1480.6,-304.1 2262.8,-548 111.8,0 169.3,33.6 169.3,104 -19.5,231.4 -28.8,585.6 -28.8,1060.6zm8422.8 -475l0 3302c0,747.7 38,1189.3 111.8,1322.5 71.4,118.8 386.5,202.3 951,252.5 73.9,10.3 112.4,60.1 112.4,145.7 0,101.8 -38.5,152.1 -112.4,152.1 -130.8,-4.1 -333.6,-8.6 -607.7,-12.6 -565,-16.6 -948.9,-22.8 -1153.7,-22.8 -45.7,0 -622.5,10.3 -1731.1,35.5 -97.4,0 -147.8,-50.3 -147.8,-152.1 0,-89.6 50.4,-137.6 147.8,-145.7 488.6,-33.6 769.9,-117 843.7,-252.5 83.7,-141.2 126.7,-583 126.7,-1322.5l0 -1812.6c0,-691.5 -5.1,-1181.2 -14.4,-1466.4 -307.3,0 -708.2,12.5 -1201.3,37.7 -55,0 -83.7,-29.6 -83.7,-85.6l111.8 -366.9c14.4,-47.6 59.6,-72.6 140.6,-72.6 260.3,8 603.6,12.5 1032.5,12.5l-14.3 -635.5c0,-926.9 395.7,-1760.2 1187,-2501.9 601,-573.1 1335.3,-860.6 2200.6,-860.6 565,0 846.2,133.6 846.2,402.3 0,293.8 -78.4,537.2 -238.1,733.3 -126.9,150.2 -260.3,225.1 -405.5,225.1 -147.8,0 -269.5,-31.4 -362.3,-98.2 -47.8,-26.9 -126.2,-97.9 -238.7,-212.2 -255.1,-248 -443.4,-373.1 -565,-373.1 -14.4,0 -26.2,0 -35.5,0 -427,62.4 -696.3,497.8 -803.7,1312.6 -54.9,406.3 -83.1,1072.7 -83.1,1995.7 576.9,0 1160.9,-12.6 1747.5,-35.5 64.1,0 97.4,22.8 97.4,73.1l-126.2 376.7c-19,58.3 -59.6,85.6 -119,85.6 -357.7,-22.8 -896.6,-35.5 -1614,-35.5zm5952.6 -714.8c1032,0 1871.7,329.1 2512.6,989.8 555.3,568.6 831.9,1256.1 831.9,2062.4 0,918.5 -345.4,1672.7 -1034.6,2258.1 -617.4,521.1 -1389.7,781.1 -2309.9,781.1 -1044.4,0 -1883.5,-326.9 -2522.4,-983 -540.9,-552.1 -810.3,-1231.5 -810.3,-2031.1 0,-921.1 350.5,-1679.4 1049,-2277.3 617.4,-533.2 1379.9,-800 2283.7,-800zm0 373.1c-565.1,0 -994.1,289.7 -1292.3,872.6 -243.3,475.4 -364.9,1077.2 -364.9,1806.4 0,871 155,1541.4 463,2014.5 288.4,435.4 686.1,652.1 1194.2,652.1 562.5,0 996.7,-293.8 1296.9,-879 247.9,-475.4 372,-1070.9 372,-1787.6 0,-883.4 -154.9,-1558.3 -462.9,-2027 -288.4,-435.4 -691.3,-652 -1206,-652zm6851.7 987.5c581.5,-914.5 1196.3,-1372.7 1842.4,-1372.7 255.1,0 457.9,41.2 608.2,122.9 121.6,68.5 181.2,158.3 181.2,268.6 0,256 -95.5,483.4 -285.8,683.4 -157.6,166.4 -322.3,249.8 -489.1,249.8 -111.8,0 -255.1,-52.1 -426.5,-152 -152.9,-81.3 -276.7,-122.9 -369.5,-122.9 -209.9,0 -431.6,125.1 -663,372.6 -266.8,283.4 -397.8,652.1 -397.8,1104.1l0 1525.2c0,766.4 30.8,1208.1 97.5,1324.7 54.9,93.7 157.5,154.3 307.4,183.4 64.7,12.5 245.8,31.4 543.5,54.2 64.6,0 98,54.2 98,160.1 0,85.6 -33.4,127.4 -98,127.4 -130.9,-4.1 -316.7,-8.6 -557.9,-12.6 -502.9,-16.6 -858.1,-22.8 -1062.9,-22.8 -5.1,0 -562.9,10.3 -1676.1,35.5 -73.9,0 -111.8,-41.7 -111.8,-127.4 0,-93.8 38,-147.5 111.8,-160.1 288.4,-22.8 467,-45.7 531.7,-66.8 111.8,-26.9 188.3,-85.2 231,-170.9 93.4,-158.4 138.5,-600 138.5,-1324.7l0 -1848.1c0,-472.7 -35.9,-814.4 -112.4,-1024.7 -59.6,-183.5 -204.8,-275 -431.1,-275 -24.1,0 -43.1,0 -57.5,0l-355.1 23c-38,0 -64.2,0 -76.5,0 -75.9,0 -116.5,-45.8 -126.2,-139.5 0,-21.1 0,-37.7 0,-54.2 0,-69.1 57.4,-114.9 173.9,-135.5 782.2,-137.6 1547.4,-325.1 2290.9,-560.5 121.6,0 181.7,37.7 181.7,114.8 -28.8,685.3 -40.6,1091.6 -40.6,1220.7zm9630.8 -121.1c546,-826.9 1287.6,-1239.5 2229.4,-1239.5 469.5,0 894,118.8 1270.7,354.3 507.5,312.5 760,791.6 760,1433.2l-13.8 1391.6 0 860.6c0,758.3 33.3,1199.6 97.4,1324.7 57,85.6 166.8,147.9 329,183.4 64.2,12.5 224.3,31.4 474.1,54.2 76.5,12.6 112.5,58.3 112.5,135.4 0,101.8 -36,152.1 -112.5,152.1l-1570.8 -35.5c-204.8,0 -493.2,4.1 -865.3,10.3 -438.8,12.5 -703.1,21.1 -796.5,25.1 -83.1,0 -126.2,-50.3 -126.2,-152.1 0,-89.6 43.1,-135.4 126.2,-135.4 274.6,-22.8 441.4,-45.7 503.4,-66.8 111.9,-26.9 193,-85.2 242.7,-170.9 76.5,-133.2 112.4,-575 112.4,-1324.7l0 -1702c0,-479.3 -52.3,-837.7 -160,-1074.9 -171.5,-418.9 -505,-627.5 -998.7,-627.5 -498.3,0 -908.4,237.7 -1230.1,712.6 -200.2,285.3 -300.2,610.4 -300.2,977.3l0 1714.5c0,758.3 33.4,1199.6 97.5,1324.7 47.7,89.6 152.9,150.2 314.5,183.4 74,12.5 243.3,31.4 503.4,54.2 64.2,8.1 97.5,58.3 97.5,148 0,93.7 -38,139.5 -111.8,139.5 -28.8,0 -319.7,-8.6 -872.5,-25.1 -293.6,-6.3 -527,-10.3 -698.9,-10.3 -214.5,0 -502.9,4.1 -865.3,10.3 -447.9,16.6 -703,25.1 -769.8,25.1 -83.7,0 -124.1,-50.3 -124.1,-152.1 0,-89.6 40.5,-135.4 124.1,-135.4 247.9,-14.8 410.1,-35.4 491.1,-60.5 109.3,-31.4 193,-91.5 243.3,-177.1 73.9,-133.2 111.8,-575 111.8,-1324.7l0 -1702 0 -250.3c0,-329.1 -52.3,-604 -159.5,-824.6 -183.8,-418.9 -519.9,-627.5 -1013.7,-627.5 -478.8,0 -879.6,237.7 -1201.3,712.6 -210,306.4 -314.6,639.6 -314.6,1001.9l0 1689.9c0,778.9 28.7,1218.4 83.7,1324.7 47.2,93.7 152.4,154.3 314.5,183.4 47.8,8.6 209.5,26.9 488.6,54.2 73.9,12.6 111.8,66.3 111.8,160.1 0,85.6 -38,127.4 -111.8,127.4 -1046.4,-25.1 -1576,-35.5 -1585.3,-35.5 -209.9,0 -491.1,4.1 -844.1,10.3 -429.1,16.6 -684.1,25.1 -762.7,25.1 -83.7,0 -124.1,-45.8 -124.1,-139.5 0,-89.7 40.5,-139.9 124.1,-148 274,-22.8 443.5,-45.7 502.9,-66.8 117,-26.9 200.2,-85.2 252.6,-170.9 69.3,-106.3 105.2,-354.3 105.2,-743.6l0 -581.2 0 -1848.1c0,-541.3 -33.3,-887.5 -98,-1037.3 -75.9,-174.8 -209.5,-262.4 -405,-262.4 -43.1,0 -76.5,0 -98.1,0l-343.3 23c-33.4,0 -54.9,0 -68.7,0 -71.9,0 -109.8,-45.8 -119.5,-139.5 0,-21.1 0,-40 0,-60.6 0,-64.6 52.8,-108.5 160.1,-129.1 736.4,-137.6 1499.1,-321.1 2290.9,-548 102.1,0 154.9,33.2 154.9,102.2 -19.5,468.7 -28.7,818.5 -28.7,1049.9 238.2,-397.8 560.4,-706.3 970.5,-920.7 340.7,-179.3 688.7,-269 1048.9,-269 493.2,0 917.7,104.5 1277.4,310.8 367.5,216.6 624.6,524.7 767.8,928.7zm9869.4 4112.3c-307.3,269.1 -603,456.6 -889.3,562.8 -310,118.4 -684.1,176.7 -1115.7,176.7 -672.3,0 -1170.1,-168.6 -1493.9,-505.8 -224.3,-233.7 -336.2,-506.3 -336.2,-818.9 0,-431.4 162.2,-804.1 488.1,-1116.6 200.2,-154.3 467.6,-287.5 803.7,-396 126.2,-45.8 467,-141.2 1027.4,-287.5 498.3,-130.9 869.9,-281.1 1117.8,-452 217.1,-145.7 326.9,-308.1 326.9,-487.5l0 -347.6c0,-887.4 -286.5,-1331.4 -858.6,-1331.4 -307.4,0 -557.8,83.4 -748.3,250.3 -166.7,130.9 -250.4,364.6 -250.4,701.8 0,191.9 -104.7,341.7 -314.6,452.1 -190.9,102.2 -453.2,152 -789.3,152 -371.1,0 -557.4,-133.2 -557.4,-401.8 0,-362.8 290.4,-706.3 871.9,-1031.4 563,-314.4 1228.1,-470.9 1990.7,-470.9 934.6,0 1551.9,187.9 1850.1,562.8 176.6,226.9 267,597.8 267,1110.4 0,85.2 0,147.6 0,189.2l-35.5 2616.8c-9.7,729.2 162.2,1093.8 517.3,1093.8 152.4,0 293,-29.2 417.3,-85.6 23.6,-8.1 45.2,-12.6 64.2,-12.6 45.2,0 85.6,27.3 119,79.4 26.2,37.7 40.6,64.6 40.6,85.2 0,33.6 -28.3,64.6 -83.1,98.2 -283.9,191.5 -689.2,287.5 -1215.8,287.5 -610.7,0 -1015.6,-225.1 -1213.7,-673.2zm-71.2 -2635.1c-121.6,154.3 -503,337.7 -1144.5,548 -698.5,241.7 -1049,679 -1049,1312.2 0,329.1 114.4,593.8 343.4,793.8 171.4,154.3 357.6,231.4 557.8,231.4 391.1,0 712.8,-121.1 965.4,-364.6 207.3,-204 312.5,-444 312.5,-720.6l14.4 -1800.1zm3814.1 -1989.4l-915.6 10.3c-107.2,0 -159.6,-58.3 -159.6,-174.9 0,-106.3 57.5,-164.6 174,-170.9 469.6,-54.2 889.4,-233.2 1256.3,-537.7 321.8,-241.7 567.6,-537.2 741.6,-891.6 35.9,-81.2 119,-122.8 243.3,-122.8 136,0 202.7,41.6 202.7,122.8 -26.2,810.5 -40.5,1235.5 -40.5,1275 748.2,0 1423.1,-12.5 2024,-35.4 42.7,0 64.2,16.6 64.2,54.2 0,12.5 0,22.8 0,31.4l-162.1 364.2c-14.4,58.7 -59.6,85.6 -138.1,85.6 -708.2,-31.4 -1313.8,-48 -1816.7,-48l-35.9 3197.9c0,647.6 90.8,1079.1 274,1293.3 202.7,225.1 462.9,335.5 774.9,335.5 302.8,0 605.6,-110.4 908.4,-335.5 26.2,-18.4 54.9,-29.1 83.7,-29.1 45.2,0 94.9,21.1 145.2,66.9 62.1,52 90.9,97.7 90.9,133.1 0,33.7 -19.5,69.1 -62.1,104.5 -493.7,430.9 -1070.6,647.6 -1733.1,647.6 -660.4,0 -1161.4,-143.5 -1499.6,-427 -321.7,-310.3 -483.9,-774.9 -483.9,-1397.9 0,-349.8 11.8,-937.2 35.4,-1764.7l28.8 -1787.1z"/>
    <path class="fil1" d="M156097.3 9955.9c0,-508.1 -24.1,-860.2 -71.9,-1056.1 -59.6,-170.9 -200.2,-256.1 -419.3,-256.1 -45.2,0 -83.7,0 -109.8,0l-372.1 24.7c-35.4,0 -64.2,0 -83.1,0 -54.9,0 -88.3,-45.8 -98,-139.5 -4.7,-37.2 -6.7,-62.4 -6.7,-74.9 0,-60.6 54.3,-97.9 161.6,-114.9 791.9,-158.3 1564.3,-349.8 2317.6,-574.9 111.9,0 168.9,43.9 168.9,129.1 -38,814.8 -57,1552.2 -57,2214.5l0 1637.8c0,756.1 33.3,1201.9 97.4,1335.1 57.5,89.6 160.1,147.9 307.9,170.9 68.7,12.5 240.7,26.9 510.1,43.9 64.2,8 97.5,60.1 97.5,158.3 0,101.8 -33.4,152.1 -97.5,152.1 -117,-4.1 -293.6,-8.6 -531.7,-12.6 -488.5,-16.6 -839,-22.8 -1053.5,-22.8 -62.2,0 -601,10.3 -1621.2,35.5 -92.9,0 -138.6,-50.3 -138.6,-152.1 0,-106.2 40.6,-158.3 124.2,-158.3 262.3,-17 433.7,-35.5 517.3,-56.5 111.8,-30.9 190.9,-85.2 238.6,-158.3 78.6,-112.6 119.1,-377.2 119.1,-793.8l0 -541.3 0 -1789.8zm620 -5668.6c257,0 483.9,93.8 684,285.7 178.6,166.4 267,352 267,556 0,227 -111.9,431.5 -336.2,610.4 -190.9,154.3 -395.7,231.4 -614.7,231.4 -264.9,0 -503.4,-98.2 -712.9,-293.7 -176.5,-166.9 -264.8,-348 -264.8,-548.1 0,-235.4 114.4,-441.7 343.3,-616.6 190.9,-150.2 402.9,-225.1 634.4,-225.1zm6007.5 3428.9c1032,0 1871.7,329.1 2512.6,989.8 555.3,568.6 831.9,1256.1 831.9,2062.4 0,918.5 -345.4,1672.7 -1034.6,2258.1 -617.4,521.1 -1389.7,781.1 -2309.9,781.1 -1044.3,0 -1883.5,-326.9 -2522.4,-983 -540.9,-552.1 -810.3,-1231.5 -810.3,-2031.1 0,-921.1 350.6,-1679.4 1049,-2277.3 617.4,-533.2 1380,-800 2283.7,-800zm0 373.1c-565,0 -994.1,289.7 -1292.2,872.6 -243.3,475.4 -364.9,1077.2 -364.9,1806.4 0,871 155,1541.4 462.9,2014.5 288.4,435.4 686.2,652.1 1194.2,652.1 562.5,0 996.7,-293.8 1296.9,-879 247.9,-475.4 372.1,-1070.9 372.1,-1787.6 0,-883.4 -155,-1558.3 -463,-2027 -288.4,-435.4 -691.2,-652 -1206,-652zm6808.7 816.6c527.1,-793.8 1263.5,-1189.8 2214.5,-1189.8 474.8,0 908.4,118.8 1299.5,354.3 524.4,312.5 789.3,791.6 789.3,1433.2l-14.4 1391.6 0 860.6c0,741.3 36,1183 111.9,1324.7 50.3,89.6 143.1,150.2 279.2,183.4 68.7,16.6 226.3,35.5 467,54.2 73.9,12.6 112.4,62.4 112.4,148 0,93.7 -38.5,139.5 -112.4,139.5 -4.7,0 -288.4,-8.6 -850.9,-25.1 -288.4,-6.3 -524.5,-10.3 -705.6,-10.3 -205.3,0 -491.1,4.1 -858.6,10.3 -433.7,16.6 -691.2,25.1 -777,25.1 -73.9,0 -111.9,-45.8 -111.9,-139.5 0,-98.3 38.1,-148 111.9,-148 247.9,-14.8 410.1,-35.4 488.5,-60.5 112.5,-31.4 193.5,-91.5 245.9,-177.1 73.9,-133.2 111.8,-575 111.8,-1324.7l0 -1702c0,-495.9 -59.5,-854.3 -173.9,-1074.9 -204.8,-418.9 -553.3,-627.5 -1041.8,-627.5 -264.9,0 -524.5,77.2 -775,231.5 -209.4,131.3 -378.7,291.5 -510.1,481.1 -200.1,293.8 -300.2,627 -300.2,1001.9l0 1689.9c0,778.9 28.8,1218.4 83.7,1324.7 57,93.7 157.1,154.3 300.2,183.4 57,12.5 219.2,31.4 488.6,54.2 83.6,8.1 126.2,58.3 126.2,148 0,93.7 -42.7,139.5 -126.2,139.5 -117,-4.1 -288.4,-8.6 -517.3,-12.6 -469.6,-16.6 -805.8,-22.8 -1011.1,-22.8 -214.5,0 -502.9,4.1 -867.3,10.3 -441.4,16.6 -703.6,25.1 -782.1,25.1 -64.7,0 -98.1,-45.8 -98.1,-139.5 0,-85.6 33.4,-135.4 98.1,-148 283.7,-22.8 457.7,-45.7 517.2,-66.8 111.9,-26.9 193,-85.2 245.4,-170.9 64.7,-116.6 98.1,-558.3 98.1,-1324.7l0 -1848.1c0,-549.9 -33.4,-899.6 -98.1,-1049.9 -75.9,-174.9 -204.8,-262.4 -390.6,-262.4 -24.1,0 -43.1,0 -57.5,0l-383.9 25.1c-33.3,0 -54.9,0 -69.3,0 -80.5,0 -123.6,-48 -133.4,-141.8 0,-21.1 0,-37.7 0,-54.2 0,-68.6 57.5,-114.8 174,-135.4 727.2,-121.1 1480.6,-304.1 2262.7,-548 111.9,0 169.4,33.6 169.4,104 -19.5,231.4 -28.8,585.6 -28.8,1060.6zm17347.8 -4399.8c0,191.5 50.3,897.9 147.8,2118.5 0,69.1 -49.9,110.8 -147.8,127.4 -30.8,4.1 -59.6,6.3 -83.1,6.3 -59.6,0 -102.6,-29.1 -124.2,-85.6 -639,-1318.5 -1501.6,-1976.7 -2591.2,-1976.7 -531.6,0 -960.7,160 -1285,481.1 -291,289.3 -434.2,653.9 -434.2,1093.8 0,614.4 534.2,1145.8 1599.6,1598l767.8 324.6c1122.9,479.4 1859.8,916.6 2215,1310.3 352.5,391.5 529.1,925.2 529.1,1600.1 0,908.1 -381.3,1599.6 -1144.5,2075 -665.1,418.4 -1556.5,628.7 -2674.8,628.7 -894,0 -1809.5,-145.7 -2744.1,-439.5 -219.1,-716.6 -385.9,-1414.5 -495.7,-2093.4 -4.6,-25.1 -7.2,-41.7 -7.2,-54.2 0,-81.2 52.9,-131.4 160.1,-148 38,-4.1 66.8,-6.3 90.3,-6.3 78.6,0 131.3,29.1 155,85.6 362.3,712.2 822.7,1275 1382.5,1685.3 519.8,383.1 1060.8,572.7 1618.6,572.7 653.3,0 1173.2,-189.7 1566.3,-572.7 338.7,-329.1 508,-737.6 508,-1226.9 0,-483.5 -190.9,-892 -572.2,-1221.2 -298.1,-260.2 -803.1,-549.9 -1516.1,-872.7l-710.7 -322.9c-917.6,-402.4 -1535,-806.4 -1852.2,-1208.2 -288.4,-370.9 -431.6,-850.3 -431.6,-1439.5 0,-696 331.5,-1258.4 998.6,-1685.4 591.7,-379.4 1325.6,-568.6 2205.3,-568.6 429.5,0 910.9,58.3 1447.2,170.5 240.7,54.2 505.5,81.6 789.3,81.6 204.8,0 417.3,-12.5 633.8,-37.7zm4618.3 9264.2c-326.9,-637.7 -598.4,-1197.8 -818.1,-1677.2l-1089.5 -2374.5c-338.2,-696 -567.1,-1104.1 -684.1,-1227 -140.6,-154.3 -393.1,-241.7 -760.6,-262.8 -75.9,0 -111.8,-52.1 -111.8,-158.4 0,-101.8 35.9,-152 111.8,-152 534.3,22.8 1089.6,35.4 1661.8,35.4 610.2,0 1182.4,-12.5 1718.8,-35.4 83.7,0 124.1,50.2 124.1,152 0,106.3 -35.9,158.4 -111.8,158.4 -446,29.1 -703.6,104 -775,225.1 -19,33.2 -26.2,78.9 -26.2,135.4 0,170.9 135.5,548 410.1,1129.2l748.3 1672.7c116.9,260.1 226.8,539.4 328.9,841.7 45.7,-89.7 105.3,-218.9 174,-385.7 88.3,-210.4 157.5,-374.9 209.9,-493.7l705.7 -1647.7c147.7,-370.9 221.7,-664.6 221.7,-885.7 0,-133.2 -28.3,-243.5 -90.3,-328.7 -102.6,-150.2 -334.1,-237.7 -698.5,-262.8 -83.6,-8.1 -124.1,-60.6 -124.1,-158.4 0,-101.8 45.2,-152 138.5,-152 760.1,22.8 1198.8,35.4 1320.5,35.4 419.8,0 827.3,-12.5 1223,-35.4 83.6,0 124.1,50.2 124.1,152 0,97.7 -40.6,150.2 -124.1,158.4 -267,29.1 -479.3,112.6 -636.4,250.2 -247.9,179 -512.6,587.5 -796.5,1227l-1046.4 2350c-448,993.7 -758,1651.7 -929.9,1976.7 -483.9,912.7 -946.4,1560.2 -1382.6,1947.7 -474.1,414.8 -1005.8,622.9 -1592.4,622.9 -410.1,0 -615.4,-112.1 -615.4,-335.1 0,-233.6 100.7,-446.2 300.8,-641.7 176.6,-179.4 371.6,-268.6 586.6,-268.6 111.9,0 235.6,24.6 369.5,72.6 135.5,56.5 249.9,85.6 342.9,85.6 219.6,0 405.4,-83.4 557.8,-250.3 322.3,-333.2 667.7,-831 1035.2,-1495.6zm8798.8 -5925c43.2,658.4 83.7,1141.8 126.3,1452.1 0,64.6 -54.5,104.5 -161.7,114.8 -21.6,4.1 -43.1,6.4 -62.1,6.4 -55,0 -105.3,-29.2 -147.8,-92 -474.8,-849.8 -1032.5,-1275 -1676.2,-1275 -743.6,0 -1115.7,298.2 -1115.7,892 0,329.1 357.7,624.7 1075.2,885.2l502.9 187.5c748.8,289.7 1251.7,558.3 1509.3,806.4 297.7,289.2 445.5,674.8 445.5,1160.1 0,525.1 -226.4,958.4 -676.9,1300.1 -457.9,341.6 -1068,512.5 -1837.8,512.5 -710.8,0 -1390.3,-118.8 -2031.3,-354.3 -140.6,-418.8 -245.8,-870.9 -314.6,-1354.4 0,-66.3 45.2,-101.8 140.6,-110.3 45.2,-4.1 78.6,-6.3 97.5,-6.3 40.6,0 76.5,27.3 105.3,79.3 255.1,443.6 578.9,791.6 970,1043.6 343.3,226.9 689.2,341.7 1032.5,341.7 433.7,0 760.1,-118.8 977.2,-354.3 179.1,-191.5 266.8,-445.8 266.8,-762.4 0,-260.6 -130.9,-479 -390.6,-658.4 -160.1,-110.4 -467.6,-260.6 -922.7,-452.1l-488.6 -202.2c-648.7,-264.7 -1073.1,-499.6 -1277.9,-708.1 -257.6,-264.7 -383.8,-627 -383.8,-1091.6 0,-427 202.7,-783.4 607.6,-1068.6 412.7,-289.8 965.9,-433.2 1654.6,-433.2 255.1,0 598.4,41.2 1027.4,122.9 152.9,26.9 309.9,41.7 474.8,41.7 138,0 297.6,-8.6 474.1,-23.4zm2283.7 598.3l-915.5 10.3c-107.2,0 -159.6,-58.3 -159.6,-174.9 0,-106.3 57.5,-164.6 174,-170.9 469.5,-54.2 889.3,-233.2 1256.3,-537.7 321.7,-241.7 567.6,-537.2 741.6,-891.6 35.9,-81.2 119,-122.8 243.2,-122.8 136,0 202.8,41.6 202.8,122.8 -26.2,810.5 -40.6,1235.5 -40.6,1275 748.3,0 1423.1,-12.5 2024.1,-35.4 42.6,0 64.2,16.6 64.2,54.2 0,12.5 0,22.8 0,31.4l-162.2 364.2c-14.3,58.7 -59.5,85.6 -138,85.6 -708.2,-31.4 -1313.8,-48 -1816.7,-48l-36 3197.9c0,647.6 90.9,1079.1 274,1293.3 202.8,225.1 463,335.5 775,335.5 302.7,0 605.6,-110.4 908.3,-335.5 26.2,-18.4 55,-29.1 83.7,-29.1 45.2,0 95,21.1 145.3,66.9 62.1,52 90.8,97.7 90.8,133.1 0,33.7 -19.5,69.1 -62.1,104.5 -493.7,430.9 -1070.5,647.6 -1733,647.6 -660.5,0 -1161.4,-143.5 -1499.6,-427 -321.8,-310.3 -483.9,-774.9 -483.9,-1397.9 0,-349.8 11.8,-937.2 35.4,-1764.7l28.7 -1787.1zm6067.7 1847.6c-40.6,156.1 -62.2,306.4 -62.2,452.1 0,814.4 257.1,1460.6 775,1941.8 385.9,358.3 810.3,537.2 1270.2,537.2 486,0 886.8,-81.2 1208.6,-245.8 266.8,-137.6 526.5,-356 781.6,-658.2 33.4,-41.7 81.1,-60.6 140.6,-60.6 28.8,0 71.9,16.6 133.9,48 73.9,54.2 109.3,96 109.3,129.1 0,18.9 -21.6,64.6 -68.7,133.2 -348.5,469.1 -753.4,798.2 -1216.4,989.8 -395.7,166.8 -871.9,249.7 -1429.8,249.7 -1048.9,0 -1883.5,-320.6 -2508,-964.1 -531.6,-550.3 -795.9,-1229.3 -795.9,-2039.6 0,-918.8 350.5,-1681.3 1049,-2287.6 621.9,-533.2 1379.9,-800 2269.3,-800 903.3,0 1625.3,308.6 2171.4,927.4 385.9,443.6 591.2,910.4 614.7,1397.9 0,81.2 -23.6,152 -71.2,214.4 -40.6,39.4 -111.9,60.5 -214.6,60.5 -956.1,-25.1 -1873.1,-37.7 -2752.8,-37.7 -498.3,0 -965.9,4.5 -1404.1,12.5zm71.2 -449.7c474.2,6.3 824.7,10.2 1053.6,10.2 512.7,0 1051.6,-16.6 1620.7,-54.2 83.7,-8 124.2,-72.6 124.2,-195.9 -26.7,-439.5 -145.7,-799.6 -355.6,-1079.1 -214.6,-289.2 -499.9,-433.1 -857.6,-433.1 -405.4,0 -758,185.2 -1056.1,554.2 -250.5,314.4 -426.6,712.2 -529.2,1197.9zm11704.6 -885.8c546.1,-826.9 1287.7,-1239.5 2229.4,-1239.5 469.5,0 894,118.8 1270.7,354.3 507.5,312.5 760.1,791.6 760.1,1433.2l-13.9 1391.6 0 860.6c0,758.3 33.4,1199.6 97.5,1324.7 57,85.6 166.8,147.9 328.9,183.4 64.2,12.5 224.3,31.4 474.2,54.2 76.5,12.6 112.4,58.3 112.4,135.4 0,101.8 -35.9,152.1 -112.4,152.1l-1570.9 -35.5c-204.8,0 -493.2,4.1 -865.2,10.3 -438.9,12.5 -703.1,21.1 -796.6,25.1 -83.1,0 -126.2,-50.3 -126.2,-152.1 0,-89.6 43.1,-135.4 126.2,-135.4 274.6,-22.8 441.4,-45.7 503.4,-66.8 111.9,-26.9 193,-85.2 242.7,-170.9 76.5,-133.2 112.5,-575 112.5,-1324.7l0 -1702c0,-479.3 -52.4,-837.7 -160.1,-1074.9 -171.4,-418.9 -505,-627.5 -998.7,-627.5 -498.2,0 -908.3,237.7 -1230.1,712.6 -200.1,285.3 -300.2,610.4 -300.2,977.3l0 1714.5c0,758.3 33.4,1199.6 97.5,1324.7 47.7,89.6 152.9,150.2 314.6,183.4 73.9,12.5 243.3,31.4 503.4,54.2 64.2,8.1 97.4,58.3 97.4,148 0,93.7 -38,139.5 -111.8,139.5 -28.7,0 -319.7,-8.6 -872.4,-25.1 -293.6,-6.3 -527.1,-10.3 -699,-10.3 -214.5,0 -502.9,4.1 -865.2,10.3 -448,16.6 -703.1,25.1 -769.9,25.1 -83.6,0 -124.1,-50.3 -124.1,-152.1 0,-89.6 40.6,-135.4 124.1,-135.4 248,-14.8 410.1,-35.4 491.2,-60.5 109.2,-31.4 192.9,-91.5 243.2,-177.1 74,-133.2 111.9,-575 111.9,-1324.7l0 -1702 0 -250.3c0,-329.1 -52.4,-604 -159.6,-824.6 -183.7,-418.9 -519.9,-627.5 -1013.6,-627.5 -478.8,0 -879.6,237.7 -1201.4,712.6 -209.9,306.4 -314.6,639.6 -314.6,1001.9l0 1689.9c0,778.9 28.8,1218.4 83.7,1324.7 47.3,93.7 152.4,154.3 314.6,183.4 47.7,8.6 209.4,26.9 488.5,54.2 74,12.6 111.9,66.3 111.9,160.1 0,85.6 -38,127.4 -111.9,127.4 -1046.4,-25.1 -1576,-35.5 -1585.2,-35.5 -209.9,0 -491.1,4.1 -844.2,10.3 -429.1,16.6 -684.1,25.1 -762.6,25.1 -83.7,0 -124.2,-45.8 -124.2,-139.5 0,-89.7 40.6,-139.9 124.2,-148 274,-22.8 443.4,-45.7 502.9,-66.8 116.9,-26.9 200.1,-85.2 252.5,-170.9 69.3,-106.3 105.3,-354.3 105.3,-743.6l0 -581.2 0 -1848.1c0,-541.3 -33.4,-887.5 -98.1,-1037.3 -75.9,-174.8 -209.4,-262.4 -405,-262.4 -43.1,0 -76.5,0 -98,0l-343.3 23c-33.4,0 -55,0 -68.9,0 -71.8,0 -109.7,-45.8 -119.5,-139.5 0,-21.1 0,-40 0,-60.6 0,-64.6 52.9,-108.5 160.1,-129.1 736.5,-137.6 1499.1,-321.1 2290.9,-548 102.1,0 155,33.2 155,102.2 -19.5,468.7 -28.8,818.5 -28.8,1049.9 238.2,-397.8 560.4,-706.3 970.5,-920.7 340.8,-179.3 688.7,-269 1049,-269 493.2,0 917.6,104.5 1277.4,310.8 367.4,216.6 624.6,524.7 767.7,928.7zm10413.5 -1110.4c43.1,658.4 83.6,1141.8 126.2,1452.1 0,64.6 -54.5,104.5 -161.7,114.8 -21.6,4.1 -43.1,6.4 -62.1,6.4 -55,0 -105.3,-29.2 -147.8,-92 -474.8,-849.8 -1032.5,-1275 -1676.1,-1275 -743.7,0 -1115.8,298.2 -1115.8,892 0,329.1 357.7,624.7 1075.2,885.2l502.9 187.5c748.8,289.7 1251.7,558.3 1509.4,806.4 297.6,289.2 445.4,674.8 445.4,1160.1 0,525.1 -226.4,958.4 -676.9,1300.1 -457.7,341.6 -1068,512.5 -1837.8,512.5 -710.8,0 -1390.3,-118.8 -2031.3,-354.3 -140.6,-418.8 -245.8,-870.9 -314.5,-1354.4 0,-66.3 45.1,-101.8 140.5,-110.3 45.2,-4.1 78.6,-6.3 97.5,-6.3 40.6,0 76.5,27.3 105.3,79.3 255.1,443.6 578.9,791.6 970,1043.6 343.3,226.9 689.2,341.7 1032.5,341.7 433.7,0 760.1,-118.8 977.2,-354.3 179.1,-191.5 266.8,-445.8 266.8,-762.4 0,-260.6 -130.9,-479 -390.6,-658.4 -160.1,-110.4 -467.6,-260.6 -922.7,-452.1l-488.6 -202.2c-648.7,-264.7 -1073.1,-499.6 -1277.8,-708.1 -257.7,-264.7 -383.9,-627 -383.9,-1091.6 0,-427 202.7,-783.4 607.7,-1068.6 412.6,-289.8 965.8,-433.2 1654.5,-433.2 255.1,0 598.4,41.2 1027.4,122.9 152.9,26.9 310,41.7 474.8,41.7 138,0 297.6,-8.6 474.2,-23.4z"/>
   </g>
   <path class="fil1" d="M244611.8 13109.4c-1061.9,-27.9 -2113.8,-39.8 -3157.6,-39.8 -1099.5,0 -2183.7,12 -3249.4,39.8 -71.6,0 -105.5,-48 -105.5,-145.3 0,-94 33.9,-143.6 105.5,-151.4 290.8,-32.2 476.1,-61.8 554.1,-87.9 121.3,-43.8 208.8,-119.2 268.8,-226.9 103.4,-175.4 157.4,-705.4 157.4,-1588l0 -4336.9c0,-607.2 -10.3,-991.9 -30,-1155.3 -15.9,-151.4 -53.6,-290.7 -115.4,-414.2 -55.7,-105.5 -161.6,-177.1 -322.9,-217 -77.6,-18 -256.9,-42 -541.6,-69.9 -78,-8.1 -118,-57.9 -118,-151.4 0,-113.7 40,-169.4 118,-169.4 41.5,0 342.6,9.8 898.4,30 326.4,12 593.6,17.9 800.6,17.9 221.4,0 528,-8.1 920.3,-24 416.4,-12 677.7,-20.1 783.1,-24 85.7,0 127.4,55.7 127.4,169.4 0,89.6 -33.9,139.4 -103.4,151.4 -313.1,36 -500,63.8 -566,81.5 -125.3,36 -214.9,103.8 -268.9,205.4 -89.6,171.1 -135.5,693.5 -135.5,1569.6l0 4336.9c0,792.9 54,1275 157.4,1446.5 97.7,151.5 262.9,253.1 498.3,304.9 139.4,25.8 354.2,40 647.1,40 813.2,0 1492.4,-201.5 2036.2,-607.8 296.8,-237.1 607.7,-633.8 934.1,-1189.5 33.8,-59.7 72,-87.5 111.9,-87.5 17.5,0 49.8,6.1 91.3,18 81.9,25.7 123.5,65.6 123.5,115.4 0,12 -1.7,27.9 -5.9,48 -139.4,675.5 -344.4,1380.4 -613.3,2111.6zm7791.3 0c-1061.9,-27.9 -2113.8,-39.8 -3157.6,-39.8 -1099.6,0 -2183.7,12 -3249.4,39.8 -71.6,0 -105.5,-48 -105.5,-145.3 0,-94 33.9,-143.6 105.5,-151.4 290.7,-32.2 476,-61.8 554.1,-87.9 121.3,-43.8 208.8,-119.2 268.8,-226.9 103.4,-175.4 157.4,-705.4 157.4,-1588l0 -4336.9c0,-607.2 -10.3,-991.9 -30,-1155.3 -15.9,-151.4 -53.6,-290.7 -115.4,-414.2 -55.7,-105.5 -161.7,-177.1 -322.9,-217 -77.6,-18 -256.9,-42 -541.6,-69.9 -78.1,-8.1 -118,-57.9 -118,-151.4 0,-113.7 39.8,-169.4 118,-169.4 41.5,0 342.6,9.8 898.4,30 326.3,12 593.6,17.9 800.6,17.9 221.3,0 528,-8.1 920.3,-24 416.4,-12 677.7,-20.1 783.1,-24 85.7,0 127.4,55.7 127.4,169.4 0,89.6 -33.9,139.4 -103.4,151.4 -313.1,36 -500,63.8 -566,81.5 -125.3,36 -214.9,103.8 -268.9,205.4 -89.6,171.1 -135.5,693.5 -135.5,1569.6l0 4336.9c0,792.9 54,1275 157.4,1446.5 97.7,151.5 262.9,253.1 498.3,304.9 139.4,25.8 354.2,40 647.1,40 813.1,0 1492.4,-201.5 2036.2,-607.8 296.8,-237.1 607.7,-633.8 934.1,-1189.5 33.8,-59.7 72,-87.5 111.8,-87.5 17.6,0 49.8,6.1 91.4,18 81.9,25.7 123.5,65.6 123.5,115.4 0,12 -1.7,27.9 -5.9,48 -139.5,675.5 -344.5,1380.4 -613.3,2111.6zm3776.8 -3968.5l0 1756.9c0,691.3 4.3,1095.8 12,1207.7 12,159.1 42,286.5 93.5,380.3 61.8,119.7 187.5,198.9 378.7,238.9 81.9,20.1 280.9,43.7 595.7,75.8 61.8,7.7 93.6,57.9 93.6,151.5 0,105.5 -35.7,157.3 -105.6,157.3 -571.7,-24 -1155.3,-33.8 -1751,-33.8 -629.6,0 -1201.1,9.8 -1709.4,33.8 -63.4,0 -93.5,-51.8 -93.5,-157.3 0,-101.7 33.9,-151.5 105.5,-151.5 286.9,-24 474.3,-51.8 559.7,-81.9 123.5,-43.7 215.3,-121.3 273.2,-232.8 89.6,-175.4 135.5,-705.5 135.5,-1588l0 -4324.9c0,-627.4 -6.1,-1009.9 -18,-1149.3 -12,-151.4 -43.7,-288.6 -99.5,-408.3 -61.8,-109.7 -191.2,-185.3 -390.7,-229 -69.5,-14.2 -260.7,-38.2 -571.7,-69.9 -69.9,-8.1 -105.5,-61.8 -105.5,-163.4 0,-103.4 35.6,-157.4 105.5,-157.4 528,24 1123.6,36 1784.9,36l1962.4 -48c2241.2,0 3360.8,768.9 3360.8,2305 0,1665.2 -1243.2,2498 -3729.7,2498 -334.4,0 -629,-13.7 -886.4,-45.8zm0 -444.3c237.1,48 492.3,69.9 765.1,69.9 862.8,0 1490.3,-221.4 1878.8,-665.6 294.6,-332.4 444.3,-784.9 444.3,-1352.6 0,-681.1 -207.6,-1189.2 -619.7,-1523.8 -354.7,-286.9 -838.8,-432.2 -1452.5,-432.2 -460.1,0 -744.9,83.6 -858.5,250.8 -105.6,155.3 -157.4,665.2 -157.4,1529.7l0 2123.7z"/>
   <path class="fil1" d="M70801.7 20410.4l4044.2 0c934.9,0 1688.5,301.5 2260.9,904.4 572.4,603 858.6,1395.6 858.6,2377.8 0,1083.8 -286.2,1937.4 -858.6,2560.7 -572.4,623.2 -1353.2,934.8 -2342.2,934.8l-3963 0 0 -579.3 386.1 0c270.9,0 450.4,-35.5 538.5,-106.6 88,-71.1 132.2,-232 132.2,-484.4l0 -4437.1c0,-239 -44.1,-396.4 -132.2,-474.3 -88,-77.9 -267.6,-116.8 -538.5,-116.8l-386.1 0 0 -579.3zm3759.7 6157.8c711.3,0 1251.5,-242 1620.7,-728 369.2,-484.5 553.8,-1202.6 553.8,-2152.6 0,-862.1 -196.4,-1521 -589.3,-1974.7 -393.1,-455.6 -958.7,-682.5 -1697.1,-682.5l-1493.7 0 0 5537.8 1605.6 0zm5279.1 -1696.8c0,469.2 110.2,885.8 330.4,1251.5 220.1,364.1 611.2,547 1173.6,547 359.1,0 672.4,-108.4 940,-326.8 267.5,-218.4 452.2,-523.3 553.8,-912.9l650.3 0c-121.9,609.6 -388,1082.2 -797.7,1417.6 -409.9,335.3 -906.1,503 -1488.7,503 -731.6,0 -1322.8,-225.3 -1773.2,-674 -450.4,-450.6 -675.7,-1046.7 -675.7,-1790.2 0,-804.5 218.4,-1437.8 655.3,-1901.9 437,-462.2 1028.1,-694.3 1773.2,-694.3 555.5,0 1033.2,132.1 1432.9,396.2 399.5,264.2 660.3,620 782.3,1067.1l40.7 172.6 30.6 132.2 30.4 314.9 10.3 498 -3668.5 0zm2235.5 -1625.8c-230.2,-250.7 -535,-376.1 -914.6,-376.1 -345.4,0 -646.9,130.4 -904.2,393 -223.6,242.1 -362.5,586.1 -416.8,1029.6l2591.3 0c0,-440.2 -118.5,-789.1 -355.7,-1046.5zm5645.2 -873.9l518.1 0 0 1747.8 -518.1 0c-121.9,-392.9 -321.8,-687.7 -599.6,-884.2 -264.2,-203.2 -609.6,-304.8 -1036.5,-304.8 -277.8,0 -518.1,61 -721.4,183 -182.9,121.8 -274.5,276.1 -274.5,465.8 0,189.7 111.9,331.9 335.5,425 203.2,74.6 477.5,149.2 823,223.6l264.2 61c121.8,13.6 213.4,30.6 274.4,50.9 223.6,54 426.9,115 609.7,182.9 182.9,67.7 369.2,155.6 558.8,262.5 352.2,196.4 528.4,528.4 528.4,994.2 0,499.6 -167.7,887.3 -503,1161.8 -335.4,272.7 -811.3,409.9 -1427.7,409.9 -338.7,0 -648.5,-52.5 -929.7,-155.9 -281.2,-103.3 -540.3,-264.2 -777.4,-484.5l-152.4 558.9 -498 0 0 -1900.3 552.2 0 40.6 184.6 50.9 132.3 89.8 235.3 110.1 174.4 50.7 61 61 62.5c108.3,121.9 259,227 448.9,311.8 191.3,86.2 381,149 572.4,189.5l142.2 0 142.3 0c320,0 577.5,-62.7 770.5,-188 194.8,-125.3 291.5,-294.6 291.5,-511.5 0,-243.9 -120.4,-414.9 -360.8,-511.4 -240.6,-98.3 -550.4,-191.4 -929.8,-279.5l-193 -40.6 -193.1 -40.7c-440.4,-81.3 -831.5,-216.9 -1173.7,-404.9 -342.1,-189.7 -513.1,-531.7 -513.1,-1024.6 0,-506.4 179.5,-865.4 538.6,-1073.7 392.9,-237 785.7,-355.6 1178.8,-355.6l71 0 71.1 0c318.3,0 609.7,50.8 873.9,152.4 264.2,88.1 491.1,233.8 680.8,437l152.5 -508zm3277.5 3637.8c0,277.8 30.4,455.6 91.4,533.5 60.9,77.9 220.1,116.8 477.7,116.8l365.7 0 0 528.4 -2936.8 0 0 -528.4 426.9 0c250.6,0 409.8,-37.3 477.7,-111.8 67.6,-76.3 101.6,-248.9 101.6,-521.6l0 -2411.6c0,-265.8 -32.3,-435.3 -96.7,-511.5 -64.4,-74.6 -225.1,-111.8 -482.6,-111.8l-426.9 0 0 -548.7 2002 0 0 3566.8zm-61 -5416.2c128.7,128.8 193,281.1 193,457.3 0,176.2 -64.3,328.6 -193,457.2 -128.8,128.8 -284.5,193.2 -467.5,193.2 -176.1,0 -328.6,-64.4 -457.3,-193.2 -128.6,-128.6 -193,-281 -193,-457.2 0,-182.9 64.4,-336.9 193,-462.2 128.7,-125.3 281.2,-188.1 457.3,-188.1 183,-6.7 338.6,57.6 467.5,193zm2271.4 5202.7c-40.7,54.2 -67.7,135.6 -81.4,243.9 0,169.5 81.4,294.8 243.9,376.1 183,67.7 481,101.6 894.2,101.6l1747.9 0c569,0 966.9,86.5 1193.9,260.9 226.9,172.6 340.5,457.1 340.5,850.2 0,531.7 -191.4,916.1 -574.2,1158.4 -382.7,240.6 -804.4,396.2 -1265.2,464.1l-426.8 40.6 -406.4 0c-724.9,0 -1287.1,-50.8 -1686.8,-152.4 -399.7,-101.6 -677.3,-270.9 -833.3,-508.1l-91.3 -172.6 -50.9 -182.9 0 -81.4 0 -71.1c0,-203.2 54.2,-372.5 162.5,-508.1 121.9,-121.9 315.1,-233.6 579.3,-335.2 -189.8,-81.4 -337.2,-195 -442.1,-340.6 -104.9,-145.6 -157.5,-313.3 -157.5,-502.9 0,-250.6 62.8,-459 188.1,-624.9 125.3,-166 333.6,-303.3 624.9,-411.6 -203.2,-149 -357.3,-325.2 -462.3,-528.4 -104.9,-203.2 -157.4,-430.1 -157.4,-680.9 0,-575.7 193,-1036.5 579.1,-1382 386.2,-345.5 901,-518.1 1544.6,-518.1 331.8,0 638.4,49.1 919.6,147.4 281.2,98.3 523.4,248.8 726.6,452.1 115.2,-183 265.9,-328.6 452.2,-436.9 186.2,-108.4 374.3,-162.6 563.9,-162.6 237.1,0 431.9,69.5 584.2,208.3 152.5,139 228.7,323.5 228.7,553.7 0,196.5 -50.7,359.1 -152.3,487.8 -101.6,128.8 -233.8,193.1 -396.4,193.1 -128.6,0 -242.1,-52.5 -340.4,-159.2 -98.2,-106.7 -147.3,-233.7 -147.3,-384.4 0,-89.7 15.1,-159.2 45.7,-211.7 30.5,-50.9 82.9,-110.2 157.5,-179.5l20.3 -20.3 -20.3 -30.6 -71 0c-121.9,0 -239,35.7 -350.6,106.7 -111.9,71.2 -225.3,186.3 -340.4,342.2 67.7,115.2 121.9,249 162.5,403.1 40.7,152.3 61,309.9 61,474.1 0,516.6 -193.2,940 -579.3,1273.6 -386.2,333.6 -890.9,499.6 -1514,499.6 -203.2,0 -406.5,-22 -609.7,-64.3 -203.2,-42.5 -399.7,-105 -589.3,-189.9 -115.3,61 -206.8,128.8 -274.5,203.2zm-121.9 1869.9c-54.2,94.7 -81.3,210 -81.3,345.5 0,264.2 152.4,458.9 457.3,584.3 304.8,125.3 762,188 1371.7,188 616.4,0 1065.3,-62.7 1346.4,-188 281.1,-125.4 421.7,-330.4 421.7,-614.9 0,-176.2 -67.7,-308.2 -203.2,-396.2 -135.5,-88.1 -338.7,-132.2 -609.6,-132.2l-1178.8 0 -467.5 -50.8 -325.2 0 -223.6 0 -253.9 0c-115.3,81.4 -199.9,169.3 -254.1,264.2zm802.8 -4511.9c-182.9,223.6 -274.5,535.3 -274.5,934.9 0,379.4 91.6,691 274.5,934.8 189.7,230.4 443.6,345.5 762,345.5 338.7,0 603,-118.4 792.6,-355.5 189.5,-237.2 284.5,-548.7 284.5,-934.9 0,-413.2 -93.2,-729.8 -279.4,-950 -186.3,-220.2 -462.3,-330.3 -828.2,-330.3 -304.8,-6.8 -548.7,111.6 -731.6,355.5zm6407.1 61l213.3 -243.9c67.7,-94.7 135.6,-166 203.2,-213.3 183,-176.2 382.8,-298.1 599.6,-365.8 216.7,-67.7 457.2,-101.6 721.5,-101.6 501.4,0 899.3,133.8 1193.9,401.3 294.7,267.6 442.1,655.5 442.1,1163.6l0 2154.3c0,277.8 30.5,455.6 91.4,533.5 60.9,77.9 220.2,116.8 477.7,116.8l304.8 0 0 528.4 -2774.1 0 0 -528.4 294.8 0c250.6,0 409.8,-37.3 477.5,-111.8 67.7,-74.5 101.6,-247.2 101.6,-518.1l0 -1961.3c0,-365.8 -77.9,-636.8 -233.7,-813 -155.9,-176 -396.3,-264.1 -721.5,-264.1 -392.9,0 -716.5,110.1 -970.4,328.6 -254.1,220.1 -381.1,509.7 -381.1,867.1l0 1824.1c0,277.6 30.5,453.8 91.4,531.7 60.9,77.9 220.2,116.8 477.7,116.8l304.8 0 0 528.4 -2814.8 0 0 -528.4 365.8 0c250.6,0 409.9,-37.3 477.7,-111.8 67.7,-76.3 101.6,-248.9 101.6,-521.6l0 -2411.6c0,-265.8 -32.3,-435.3 -96.6,-511.5 -64.4,-74.6 -225.2,-111.8 -482.7,-111.8l-365.8 0 0 -548.7 1940.9 0 -40.7 772.3zm6153.3 3026.5c128.6,128.6 193,286.1 193,474.1 0,181.3 -64.4,335.5 -193,464.1 -128.8,127.1 -288.1,191.4 -477.7,191.4 -183,0 -340.4,-64.4 -472.6,-191.4 -132.1,-128.6 -198.1,-282.8 -198.1,-464.1 0,-181.1 64.3,-336.9 193.1,-469 128.6,-130.4 287.9,-196.5 477.6,-196.5 182.9,-6.7 342.1,57.7 477.7,191.4zm4044.2 -5831.1l3333 0 0 579.3 -447.1 0c-257.5,0 -433.4,38.9 -528.4,116.8 -94.9,77.9 -142.3,242.2 -142.3,491.1l0 4403.3c0,249 44,413.2 132.2,491.1 88,77.9 267.6,116.8 538.5,116.8l447.1 0 0 579.3 -3333 0 0 -579.3 447.1 0c270.9,0 450.4,-35.5 538.7,-106.6 87.9,-71.1 132,-232 132,-484.4l0 -4437.1c0,-239 -44,-396.4 -132,-474.3 -88.3,-77.9 -267.8,-116.8 -538.7,-116.8l-447.1 0 0 -579.3zm5665.5 2824.8c209.9,-318.3 447.1,-558.7 711.2,-721.4 264.2,-149 572.4,-223.6 924.8,-223.6 399.6,0 721.4,76.2 965.3,228.7 243.9,152.4 430.2,394.6 559,726.6 182.9,-311.6 411.3,-548.7 685.8,-711.3 274.4,-162.5 594.5,-243.9 960.4,-243.9 582.4,0 990.7,152.4 1224.3,457.2 233.8,304.8 350.6,728.2 350.6,1270.3l0 1991.6c0,284.5 32.2,464 96.5,538.5 64.4,74.5 225.3,111.8 482.8,111.8l294.6 0 0 528.4 -2702.9 0 0 -528.4 254.1 0c250.6,0 409.8,-37.3 477.5,-113.5 67.7,-74.6 101.6,-249 101.6,-521.7l0 -1917.1c0,-403.1 -74.6,-689.3 -223.6,-860.2 -149,-171.1 -392.9,-255.9 -731.6,-255.9 -352.2,0 -638.5,123.6 -858.7,372.6 -220.1,249 -330.1,577.6 -330.1,985.6l0 1656.5c0,286 32.1,465.6 96.5,541.8 64.3,74.5 225.1,111.8 482.6,111.8l294.8 0 0 528.4 -2743.6 0 0 -528.4 304.8 0c250.6,0 408.1,-35.6 472.4,-108.4 64.4,-71.1 96.7,-247.3 96.7,-526.8l0 -1917.1c0,-387.9 -77.9,-672.4 -233.8,-850.2 -142.3,-177.8 -389.5,-265.9 -741.7,-265.9 -386.2,0 -686.1,127.1 -899.3,382.7 -213.5,255.7 -320,614.9 -320,1078.9l0 1553.1c0,279.4 30.4,457.1 91.3,536.8 61,77.9 220.2,116.8 477.7,116.8l304.9 0 0 528.4 -2814.8 0 0 -528.4 365.7 0c250.7,0 409.9,-37.3 477.7,-111.8 67.7,-76.3 101.6,-248.9 101.6,-521.6l0 -2411.6c0,-265.8 -32.2,-435.3 -96.6,-511.5 -64.4,-74.6 -225.1,-111.8 -482.7,-111.8l-365.7 0 0 -548.7 1920.6 0 -30.6 792.5zm8978.1 20.3l335.5 -396.2c101.6,-108.3 206.6,-203.2 314.9,-284.5 142.2,-101.6 298,-176.2 467.3,-223.6 169.3,-47.4 369.2,-71.2 599.6,-71.2 596.1,0 1083.9,225.3 1463.3,675.8 379.3,450.4 569.1,1028 569.1,1732.6 0,778.9 -198.3,1417.5 -594.5,1915.5 -396.4,497.8 -896,746.8 -1498.7,746.8 -325.2,0 -604.7,-55.9 -838.4,-167.7 -233.8,-111.7 -458.9,-306.5 -675.8,-584.3l-50.7 -60.9 -40.7 -71.2 0 1598.8c0,269.4 30.5,443.8 91.4,519.9 61,77.9 220.2,117 477.7,117l467.5 0 0 538.5 -2977.5 0 0 -538.5 365.8 0c250.6,0 409.9,-39.1 477.7,-117 67.7,-76.2 101.6,-250.6 101.6,-519.9l0 -4427c0,-269.2 -32.3,-442 -96.6,-514.8 -64.4,-74.6 -225.2,-111.9 -482.7,-111.9l-365.8 -30.4 0 -538.6 1940.9 0 -50.9 812.8zm376.1 274.5c-250.7,345.5 -376.1,785.9 -376.1,1321 0,514.8 123.7,941.6 371,1280.4 247.2,338.7 560.6,508 940,508 433.4,0 768.7,-164.3 1005.9,-492.9 237.1,-328.5 355.7,-801.1 355.7,-1417.5 0,-548.7 -113.6,-972.1 -340.6,-1270.3 -226.9,-297.9 -553.6,-447.1 -980.4,-447.1 -386.2,-13.4 -711.3,159.3 -975.6,518.4zm5645 2479.4c0,277.8 30.5,455.6 91.4,533.5 61,77.9 220.2,116.8 477.7,116.8l365.8 0 0 528.4 -2875.7 0 0 -528.4 365.7 0c250.7,0 409.9,-37.3 477.7,-111.8 67.7,-74.5 101.6,-248.9 101.6,-519.9l0 -4447.2c0,-264.2 -32.2,-435.3 -96.6,-509.9 -64.4,-74.6 -225.1,-111.8 -482.7,-111.8l-365.7 0 0 -548.7 1940.8 0 0 5599.1zm2169.8 -1138.1c0,469.2 110.1,885.8 330.3,1251.5 220.2,364.1 611.3,547 1173.6,547 359.2,0 672.4,-108.4 940,-326.8 267.6,-218.4 452.2,-523.3 553.8,-912.9l650.3 0c-121.9,609.6 -387.9,1082.2 -797.7,1417.6 -409.8,335.3 -906,503 -1488.6,503 -731.7,0 -1322.8,-225.3 -1773.3,-674 -450.4,-450.6 -675.6,-1046.7 -675.6,-1790.2 0,-804.5 218.4,-1437.8 655.3,-1901.9 437,-462.2 1028,-694.3 1773.2,-694.3 555.4,0 1033.1,132.1 1432.8,396.2 399.6,264.2 660.4,620 782.4,1067.1l40.7 172.6 30.6 132.2 30.4 314.9 10.2 498 -3668.4 0zm2235.5 -1625.8c-230.3,-250.7 -535.2,-376.1 -914.6,-376.1 -345.5,0 -647,130.4 -904.3,393 -223.6,242.1 -362.4,586.1 -416.6,1029.6l2591.3 0c0,-440.2 -118.6,-789.1 -355.7,-1046.5zm3460.3 -10.3c209.9,-318.3 447.1,-558.7 711.2,-721.4 264.2,-149 572.5,-223.6 924.8,-223.6 399.6,0 721.5,76.2 965.3,228.7 243.9,152.4 430.2,394.6 559,726.6 182.9,-311.6 411.4,-548.7 685.8,-711.3 274.4,-162.5 594.5,-243.9 960.4,-243.9 582.5,0 990.7,152.4 1224.3,457.2 233.9,304.8 350.6,728.2 350.6,1270.3l0 1991.6c0,284.5 32.2,464 96.5,538.5 64.4,74.5 225.3,111.8 482.8,111.8l294.7 0 0 528.4 -2703 0 0 -528.4 254.1 0c250.6,0 409.8,-37.3 477.5,-113.5 67.7,-74.6 101.6,-249 101.6,-521.7l0 -1917.1c0,-403.1 -74.5,-689.3 -223.6,-860.2 -149,-171.1 -392.9,-255.9 -731.6,-255.9 -352.2,0 -638.5,123.6 -858.6,372.6 -220.2,249 -330.2,577.6 -330.2,985.6l0 1656.5c0,286 32.1,465.6 96.5,541.8 64.4,74.5 225.1,111.8 482.6,111.8l294.8 0 0 528.4 -2743.6 0 0 -528.4 304.8 0c250.6,0 408.1,-35.6 472.4,-108.4 64.4,-71.1 96.7,-247.3 96.7,-526.8l0 -1917.1c0,-387.9 -77.9,-672.4 -233.8,-850.2 -142.3,-177.8 -389.5,-265.9 -741.7,-265.9 -386.2,0 -686.1,127.1 -899.3,382.7 -213.5,255.7 -320,614.9 -320,1078.9l0 1553.1c0,279.4 30.4,457.1 91.4,536.8 60.9,77.9 220.1,116.8 477.7,116.8l304.8 0 0 528.4 -2814.8 0 0 -528.4 365.8 0c250.6,0 409.8,-37.3 477.7,-111.8 67.6,-76.3 101.6,-248.9 101.6,-521.6l0 -2411.6c0,-265.8 -32.3,-435.3 -96.7,-511.5 -64.4,-74.6 -225.1,-111.8 -482.6,-111.8l-365.8 0 0 -548.7 1920.6 0 -30.6 792.5zm8185.6 1636.1c0,469.2 110.1,885.8 330.3,1251.5 220.2,364.1 611.3,547 1173.6,547 359.1,0 672.4,-108.4 940,-326.8 267.6,-218.4 452.2,-523.3 553.8,-912.9l650.3 0c-121.9,609.6 -387.9,1082.2 -797.7,1417.6 -409.8,335.3 -906,503 -1488.7,503 -731.6,0 -1322.8,-225.3 -1773.2,-674 -450.4,-450.6 -675.6,-1046.7 -675.6,-1790.2 0,-804.5 218.4,-1437.8 655.2,-1901.9 437.1,-462.2 1028.1,-694.3 1773.3,-694.3 555.4,0 1033.1,132.1 1432.8,396.2 399.5,264.2 660.4,620 782.4,1067.1l40.6 172.6 30.6 132.2 30.5 314.9 10.2 498 -3668.4 0zm2235.5 -1625.8c-230.3,-250.7 -535.2,-376.1 -914.6,-376.1 -345.5,0 -647,130.4 -904.3,393 -223.6,242.1 -362.4,586.1 -416.6,1029.6l2591.3 0c0,-440.2 -118.6,-789.1 -355.7,-1046.5zm3369 -30.6l213.3 -243.9c67.6,-94.7 135.5,-166 203.2,-213.3 182.9,-176.2 382.7,-298.1 599.6,-365.8 216.7,-67.7 457.1,-101.6 721.4,-101.6 501.4,0 899.3,133.8 1193.9,401.3 294.8,267.6 442.1,655.5 442.1,1163.6l0 2154.3c0,277.8 30.5,455.6 91.4,533.5 61,77.9 220.2,116.8 477.7,116.8l304.9 0 0 528.4 -2774.2 0 0 -528.4 294.8 0c250.6,0 409.8,-37.3 477.5,-111.8 67.7,-74.5 101.6,-247.2 101.6,-518.1l0 -1961.3c0,-365.8 -77.9,-636.8 -233.6,-813 -155.9,-176 -396.4,-264.1 -721.6,-264.1 -392.9,0 -716.5,110.1 -970.4,328.6 -254.1,220.1 -381.1,509.7 -381.1,867.1l0 1824.1c0,277.6 30.5,453.8 91.4,531.7 61,77.9 220.2,116.8 477.7,116.8l304.9 0 0 528.4 -2814.8 0 0 -528.4 365.7 0c250.7,0 409.9,-37.3 477.7,-111.8 67.7,-76.3 101.6,-248.9 101.6,-521.6l0 -2411.6c0,-265.8 -32.3,-435.3 -96.6,-511.5 -64.4,-74.6 -225.2,-111.8 -482.7,-111.8l-365.7 0 0 -548.7 1940.8 0 -40.6 772.3zm7240.4 -762l0 579.1 -1371.8 0 0 3072.3c0,181.2 33.8,316.7 101.7,403 67.6,88.1 169.2,132.2 304.8,132.2 182.9,0 308.2,-71.2 375.9,-211.7 67.7,-142.3 101.6,-381.1 101.6,-716.5l0 -484.4 558.9 0 0 475.9c0,613.2 -93.3,1041.5 -279.5,1283.8 -186.3,242.1 -526.7,364.1 -1021.2,364.1 -386.1,0 -675.8,-94.9 -868.9,-282.8 -193,-189.8 -289.5,-475.9 -289.5,-860.4l0 -3175.6 -874 0 0 -579.1c406.5,0 711.3,-145.6 914.6,-437.1 108.4,-155.6 193,-318.3 254,-487.7 60.9,-169.3 91.5,-338.6 91.5,-508.1l0 -101.6 0 -101.6 630 -10 0 1646.1 1371.8 0zm1997.3 3788.5c128.6,128.6 193,286.1 193,474.1 0,181.3 -64.4,335.5 -193,464.1 -128.8,127.1 -288.1,191.4 -477.7,191.4 -183,0 -340.4,-64.4 -472.6,-191.4 -132.1,-128.6 -198.1,-282.8 -198.1,-464.1 0,-181.1 64.3,-336.9 193.1,-469 128.7,-130.4 287.9,-196.5 477.6,-196.5 182.9,-6.7 342.1,57.7 477.7,191.4zm6249.4 -240.6c0,250.7 42.2,413.2 126.9,491.1 84.7,77.9 262.6,116.8 533.5,116.8l518.4 0 0 579.3 -3393.9 0 0 -579.3 447.1 0c270.9,0 450.4,-35.5 538.4,-106.6 88,-71.1 132.3,-232 132.3,-484.4l0 -4437.1c0,-239 -44.2,-396.4 -132.3,-474.3 -87.9,-77.9 -267.5,-116.8 -538.4,-116.8l-447.1 0 0 -579.3 4176.3 0c650.3,0 1193.9,125.5 1630.9,374.3 436.9,250.8 655.4,750.4 655.4,1500.5 0,621.5 -174.5,1078.9 -523.4,1373.5 -348.8,293 -916.1,440.4 -1702.1,440.4l-2022 0 0 1901.8zm1656.2 -2521.8c481.1,0 835.1,-101.6 1062,-306.4 226.9,-203.2 340.4,-513.2 340.4,-928.1 0,-394.6 -115.3,-696.1 -345.5,-902.8 -230.2,-208.1 -586.1,-311.5 -1066.9,-311.5l-1646.1 0 0 2448.8 1656.2 0zm4791.7 0l426.8 -548.7c115.2,-135.4 243.9,-253.9 386.2,-355.5 94.8,-67.7 206.6,-121.9 335.4,-162.6 128.6,-40.6 257.2,-60.9 386.1,-60.9 264.2,0 479.3,77.9 645.2,233.6 166,155.9 249,352.4 249,589.4 0,216.9 -59.4,401.5 -178,553.8 -118.5,152.5 -276,228.7 -472.4,228.7 -162.5,0 -298.1,-54.2 -406.4,-162.5 -108.5,-108.4 -162.6,-240.6 -162.6,-396.4 0,-74.4 11.9,-143.9 37.1,-208.2 25.5,-64.3 66.1,-113.4 121.9,-147.4l32.1 -20.2 32.3 -30.6 0 -50.8 -30.6 -40.6 -89.7 -20.3c-54.2,0 -115.3,17 -183,50.7 -59.1,13.7 -137.1,54.2 -232,121.9l-110.1 91.6 -111.7 101.6c-133.8,142.2 -247.2,301.5 -342.2,477.5 -20.3,47.6 -54.2,139 -101.6,274.5 -45.8,135.5 -89.7,269.4 -130.4,404.7l0 1609.1c0,277.6 30.6,453.8 91.5,531.7 61,77.9 220.1,116.8 477.6,116.8l569.1 0 0 528.4 -3139.9 0 0 -528.4 426.8 0c250.7,0 409.9,-37.3 477.6,-111.8 67.7,-76.3 101.6,-248.9 101.6,-521.6l0 -2411.6c0,-265.8 -32.1,-435.3 -96.5,-511.5 -64.4,-74.6 -225.3,-111.8 -482.7,-111.8l-426.8 0 0 -548.7 1930.7 0 -30.6 1036.4zm7047.4 -489.4c481,460.8 721.6,1058.4 721.6,1795.2 0,784.1 -230.4,1407.4 -691,1871.5 -460.7,462.2 -1080.6,694.3 -1859.7,694.3 -731.6,0 -1344.7,-221.8 -1839.1,-664 -494.6,-443.8 -741.8,-1043.2 -741.8,-1800.2 0,-406.5 54.2,-762 162.5,-1070.3 108.4,-306.6 284.6,-582.6 528.4,-826.5 467.5,-465.8 1094.1,-699.5 1880,-699.5 751.9,-6.7 1365,226.9 1839.1,699.5zm-2906.2 428.4c-257.5,352.4 -386.1,833.2 -386.1,1442.9 0,636.9 123.6,1114.4 370.9,1432.8 247.2,318.5 618.2,477.6 1112.7,477.6 433.5,0 777.4,-164.2 1031.4,-492.8 254.1,-328.5 381.2,-784.1 381.2,-1366.7 0,-650.4 -123.7,-1150 -371,-1498.8 -247.2,-348.8 -611.4,-523.4 -1092.3,-523.4 -433.7,-6.8 -782.5,169.4 -1046.7,528.4zm7138.8 -965.3l0 579.1 -1371.7 0 0 3072.3c0,181.2 33.7,316.7 101.6,403 67.7,88.1 169.3,132.2 304.8,132.2 182.9,0 308.2,-71.2 375.9,-211.7 67.7,-142.3 101.6,-381.1 101.6,-716.5l0 -484.4 559 0 0 475.9c0,613.2 -93.4,1041.5 -279.6,1283.8 -186.3,242.1 -526.7,364.1 -1021.2,364.1 -386.1,0 -675.8,-94.9 -868.9,-282.8 -193,-189.8 -289.5,-475.9 -289.5,-860.4l0 -3175.6 -873.9 0 0 -579.1c406.4,0 711.2,-145.6 914.5,-437.1 108.4,-155.6 193,-318.3 254,-487.7 60.9,-169.3 91.5,-338.6 91.5,-508.1l0 -101.6 0 -101.6 630.1 -10 0 1646.1 1371.7 0zm1722.8 2418.4c0,469.2 110.1,885.8 330.3,1251.5 220.2,364.1 611.3,547 1173.7,547 359.1,0 672.3,-108.4 939.9,-326.8 267.6,-218.4 452.2,-523.3 553.8,-912.9l650.3 0c-121.8,609.6 -387.9,1082.2 -797.6,1417.6 -409.9,335.3 -906.1,503 -1488.7,503 -731.7,0 -1322.8,-225.3 -1773.2,-674 -450.6,-450.6 -675.7,-1046.7 -675.7,-1790.2 0,-804.5 218.4,-1437.8 655.3,-1901.9 437,-462.2 1028,-694.3 1773.2,-694.3 555.4,0 1033.1,132.1 1432.8,396.2 399.6,264.2 660.4,620 782.4,1067.1l40.7 172.6 30.6 132.2 30.4 314.9 10.2 498 -3668.4 0zm2235.5 -1625.8c-230.2,-250.7 -535.2,-376.1 -914.6,-376.1 -345.5,0 -647,130.4 -904.2,393 -223.6,242.1 -362.5,586.1 -416.8,1029.6l2591.3 0c0,-440.2 -118.6,-789.1 -355.7,-1046.5zm6793.3 1991.6c-81.3,633.3 -306.6,1144.8 -675.8,1532.6 -369.2,387.8 -892.4,580.9 -1569.9,580.9 -731.6,0 -1314.2,-221.8 -1747.8,-664 -433.7,-443.8 -650.3,-1029.6 -650.3,-1759.6 0,-818 218.4,-1461.5 655.3,-1932.3 437,-469.1 1045,-704.6 1824.1,-704.6 602.8,0 1097.4,125.3 1483.5,376 386.2,250.7 579.2,579.3 579.2,985.7 0,250.6 -66.1,452.2 -198.1,604.5 -132.2,152.5 -313.4,228.7 -543.6,228.7 -176.2,0 -328.7,-60.9 -457.3,-182.9 -128.7,-121.9 -193,-274.5 -193,-457.3 0,-115.1 30.4,-218.4 91.4,-309.8 60.9,-91.5 135.5,-147.4 223.6,-167.6l30.6 0 50.7 -10.3 71.2 -11.8 30.4 -62.6c0,-77.9 -64.4,-149.2 -193,-213.4 -74.6,-33.8 -125.5,-59.3 -152.5,-72.8 -27,-15.2 -111.7,-38.9 -253.9,-74.5l-254.1 -32.2 -203.3 0c-460.7,0 -833.2,172.8 -1117.7,516.5 -135.6,169.5 -237.2,371 -304.9,603 -67.7,233.9 -101.6,511.5 -101.6,836.6 0,567.5 139,1016.2 416.8,1348.2 277.6,330.2 663.8,496 1158.4,496 352.3,0 655.3,-130.2 909.4,-392.9 253.9,-262.4 421.7,-613 502.9,-1050.1l589.4 -10zm3541.6 -2784.3l0 579.1 -1371.7 0 0 3072.3c0,181.2 33.8,316.7 101.6,403 67.7,88.1 169.3,132.2 304.8,132.2 183,0 308.3,-71.2 376,-211.7 67.7,-142.3 101.6,-381.1 101.6,-716.5l0 -484.4 558.9 0 0 475.9c0,613.2 -93.3,1041.5 -279.6,1283.8 -186.2,242.1 -526.6,364.1 -1021.1,364.1 -386.2,0 -675.8,-94.9 -869,-282.8 -193,-189.8 -289.5,-475.9 -289.5,-860.4l0 -3175.6 -873.9 0 0 -579.1c406.4,0 711.3,-145.6 914.6,-437.1 108.3,-155.6 193,-318.3 253.9,-487.7 61,-169.3 91.6,-338.6 91.6,-508.1l0 -101.6 0 -101.6 630 -10 0 1646.1 1371.7 0zm1997.3 3788.5c128.6,128.6 193,286.1 193,474.1 0,181.3 -64.4,335.5 -193,464.1 -128.8,127.1 -288,191.4 -477.7,191.4 -182.9,0 -340.4,-64.4 -472.6,-191.4 -132,-128.6 -198.1,-282.8 -198.1,-464.1 0,-181.1 64.4,-336.9 193.2,-469 128.6,-130.4 287.8,-196.5 477.5,-196.5 183,-6.7 342.2,57.7 477.7,191.4z"/>
  </g>
 </g>
</svg>
