<?xml version="1.0" encoding="UTF-8"?>
<!DOCTYPE svg PUBLIC "-//W3C//DTD SVG 1.1//EN" "http://www.w3.org/Graphics/SVG/1.1/DTD/svg11.dtd">
<!-- Creator: CorelDRAW 2021.5 -->
<svg xmlns="http://www.w3.org/2000/svg" xml:space="preserve" width="52.5626mm" height="53.3712mm" version="1.1" style="shape-rendering:geometricPrecision; text-rendering:geometricPrecision; image-rendering:optimizeQuality; fill-rule:evenodd; clip-rule:evenodd"
viewBox="0 0 606.415 615.744"
 xmlns:xlink="http://www.w3.org/1999/xlink"
 xmlns:xodm="http://www.corel.com/coreldraw/odm/2003">
 <defs>
  <style type="text/css">
   <![CDATA[
    .fil0 {fill:#FEFEFE}
    .fil1 {fill:#FEFEFE;fill-rule:nonzero}
   ]]>
  </style>
 </defs>
 <g id="Layer_x0020_1">
  <metadata id="CorelCorpID_0Corel-Layer"/>
  <g id="_1904291759360">
   <polygon class="fil0" points="253.148,20.772 277.224,0 351.038,79.154 328.267,102.174 "/>
   <polygon class="fil0" points="358.552,25.516 389.373,17.705 412.765,121.599 383.971,128.36 "/>
   <polygon class="fil0" points="451.54,79.695 482.534,91.334 443.072,192.479 414.583,179.492 "/>
   <polygon class="fil0" points="496.046,172.318 515.658,192.391 439.01,268.99 420.738,246.49 "/>
   <rect class="fil0" transform="matrix(1.32115 -0.295323 0.295324 1.32115 386.945 299.321)" width="82.687" height="24.895"/>
   <polygon class="fil0" points="318.619,357.5 330.369,331.32 437.564,361.728 425.185,393.945 "/>
   <polygon class="fil0" points="252.853,352.347 273.587,335.827 347.135,410.655 325.829,431.774 "/>
   <rect class="fil0" transform="matrix(0.128892 -0.0288119 0.0288119 0.128892 188.581 305.992)" width="277.377" height="840.247"/>
   <polygon class="fil0" points="190.52,246.259 163.22,237.59 126.203,339.468 156.291,351.23 "/>
   <polygon class="fil0" points="90.757,243.097 169.932,167.521 188.809,185.489 111.303,261.228 "/>
   <rect class="fil0" transform="matrix(0.128892 -0.0288119 0.0288119 0.128892 107.927 125.546)" width="809.015" height="265.482"/>
   <polygon class="fil0" points="177.638,40.9 284.605,76.285 275.8,103.636 169.377,69.254 "/>
   <path class="fil1" d="M294.474 176.162c10.516,-2.351 20.747,-0.037 30.928,7.093 9.043,6.157 14.584,14.019 16.717,23.561 2.372,10.612 -0.073,21.177 -7.354,31.598 -6.178,8.947 -13.747,14.421 -22.705,16.423 -10.808,2.416 -21.568,0.017 -32.182,-7.221 -8.947,-6.179 -14.442,-13.844 -16.531,-23.192 -2.46,-11.003 0.059,-21.687 7.578,-31.956 6.223,-8.751 14.105,-14.194 23.549,-16.305z"/>
  </g>
  <path class="fil1" d="M135.581 611.742c-21.965,-0.502 -43.726,-0.72 -65.316,-0.72 -22.751,0 -45.17,0.218 -67.211,0.72 -1.488,0 -2.185,-0.86 -2.185,-2.628 0,-1.691 0.697,-2.59 2.185,-2.735 6.017,-0.575 9.849,-1.116 11.452,-1.585 2.516,-0.793 4.331,-2.16 5.563,-4.101 2.146,-3.17 3.258,-12.748 3.258,-28.699l0 -78.396c0,-10.983 -0.205,-17.932 -0.62,-20.885 -0.326,-2.74 -1.112,-5.257 -2.389,-7.49 -1.156,-1.908 -3.34,-3.204 -6.674,-3.924 -1.609,-0.323 -5.314,-0.759 -11.209,-1.261 -1.609,-0.145 -2.434,-1.044 -2.434,-2.741 0,-2.048 0.825,-3.058 2.434,-3.058 0.862,0 7.089,0.179 18.586,0.542 6.757,0.217 12.277,0.323 16.563,0.323 4.572,0 10.921,-0.145 19.04,-0.435 8.616,-0.212 14.013,-0.358 16.198,-0.43 1.769,0 2.637,1.011 2.637,3.058 0,1.624 -0.703,2.523 -2.146,2.741 -6.47,0.647 -10.341,1.149 -11.701,1.473 -2.599,0.647 -4.452,1.875 -5.563,3.711 -1.859,3.098 -2.805,12.53 -2.805,28.375l0 78.396c0,14.327 1.112,23.045 3.258,26.143 2.018,2.734 5.435,4.571 10.303,5.509 2.881,0.468 7.332,0.72 13.393,0.72 16.812,0 30.863,-3.639 42.111,-10.984 6.143,-4.286 12.57,-11.453 19.327,-21.499 0.703,-1.078 1.483,-1.585 2.312,-1.585 0.37,0 1.029,0.112 1.891,0.324 1.692,0.468 2.554,1.188 2.554,2.093 0,0.212 -0.038,0.502 -0.121,0.86 -2.887,12.212 -7.128,24.959 -12.691,38.17zm39.146 -63.086c0,-8.79 -0.415,-14.875 -1.239,-18.256 -1.028,-2.952 -3.461,-4.433 -7.249,-4.433 -0.786,0 -1.444,0 -1.898,0l-6.425 0.436c-0.62,0 -1.118,0 -1.443,0 -0.952,0 -1.526,-0.793 -1.692,-2.417 -0.083,-0.647 -0.122,-1.078 -0.122,-1.294 0,-1.044 0.946,-1.691 2.805,-1.982 13.681,-2.734 27.03,-6.05 40.054,-9.94 1.935,0 2.925,0.759 2.925,2.232 -0.658,14.082 -0.99,26.83 -0.99,38.283l0 28.303c0,13.071 0.575,20.779 1.692,23.079 0.984,1.552 2.76,2.562 5.314,2.958 1.195,0.212 4.158,0.464 8.821,0.753 1.111,0.145 1.686,1.044 1.686,2.735 0,1.769 -0.575,2.628 -1.686,2.628 -2.025,-0.072 -5.072,-0.138 -9.192,-0.211 -8.45,-0.291 -14.505,-0.397 -18.216,-0.397 -1.073,0 -10.386,0.179 -28.021,0.608 -1.609,0 -2.388,-0.86 -2.388,-2.628 0,-1.837 0.696,-2.735 2.14,-2.735 4.534,-0.29 7.498,-0.614 8.941,-0.97 1.936,-0.542 3.296,-1.479 4.12,-2.741 1.36,-1.942 2.063,-6.513 2.063,-13.719l0 -9.36 0 -30.932zm10.712 -97.986c4.451,0 8.367,1.624 11.829,4.934 3.091,2.88 4.617,6.089 4.617,9.616 0,3.924 -1.942,7.452 -5.812,10.549 -3.295,2.667 -6.84,3.995 -10.634,3.995 -4.573,0 -8.693,-1.69 -12.322,-5.073 -3.047,-2.88 -4.573,-6.017 -4.573,-9.472 0,-4.069 1.98,-7.635 5.933,-10.66 3.296,-2.59 6.968,-3.89 10.961,-3.89zm51.231 98.159l-11.395 0.128c-1.335,0 -1.987,-0.726 -1.987,-2.176 0,-1.323 0.715,-2.049 2.165,-2.127 5.845,-0.675 11.069,-2.902 15.636,-6.691 4.004,-3.009 7.064,-6.687 9.23,-11.096 0.446,-1.009 1.481,-1.529 3.027,-1.529 1.692,0 2.523,0.519 2.523,1.529 -0.326,10.086 -0.505,15.377 -0.505,15.868 9.313,0 17.712,-0.156 25.191,-0.441 0.531,0 0.798,0.207 0.798,0.675 0,0.157 0,0.285 0,0.391l-2.018 4.532c-0.179,0.731 -0.742,1.066 -1.719,1.066 -8.814,-0.39 -16.35,-0.596 -22.61,-0.596l-0.446 39.8c0,8.06 1.129,13.429 3.41,16.096 2.523,2.802 5.762,4.175 9.645,4.175 3.768,0 7.536,-1.373 11.305,-4.175 0.325,-0.228 0.683,-0.362 1.041,-0.362 0.562,0 1.181,0.262 1.808,0.831 0.773,0.648 1.131,1.217 1.131,1.658 0,0.419 -0.243,0.86 -0.773,1.3 -6.145,5.365 -13.324,8.06 -21.57,8.06 -8.22,0 -14.454,-1.786 -18.663,-5.313 -4.004,-3.863 -6.022,-9.645 -6.022,-17.398 0,-4.353 0.147,-11.665 0.441,-21.962l0.358 -22.242zm133.932 6.374c6.795,-10.292 16.025,-15.427 27.745,-15.427 5.845,0 11.121,1.479 15.808,4.409 6.318,3.89 9.459,9.851 9.459,17.839l-0.172 17.318 0 10.711c0,9.438 0.415,14.93 1.214,16.488 0.708,1.066 2.076,1.841 4.093,2.282 0.8,0.157 2.792,0.391 5.902,0.676 0.952,0.156 1.398,0.726 1.398,1.686 0,1.267 -0.446,1.892 -1.398,1.892l-19.551 -0.441c-2.549,0 -6.139,0.05 -10.763,0.128 -5.46,0.156 -8.751,0.262 -9.913,0.313 -1.035,0 -1.571,-0.625 -1.571,-1.892 0,-1.117 0.536,-1.686 1.571,-1.686 3.417,-0.285 5.493,-0.57 6.266,-0.832 1.393,-0.335 2.401,-1.06 3.02,-2.126 0.952,-1.658 1.399,-7.155 1.399,-16.488l0 -21.181c0,-5.967 -0.652,-10.426 -1.992,-13.379 -2.133,-5.212 -6.285,-7.808 -12.43,-7.808 -6.202,0 -11.305,2.958 -15.31,8.87 -2.491,3.549 -3.737,7.596 -3.737,12.161l0 21.338c0,9.438 0.415,14.93 1.214,16.488 0.594,1.116 1.904,1.869 3.916,2.282 0.919,0.157 3.027,0.391 6.266,0.676 0.798,0.1 1.214,0.726 1.214,1.841 0,1.166 -0.473,1.736 -1.393,1.736 -0.358,0 -3.979,-0.106 -10.859,-0.313 -3.654,-0.078 -6.56,-0.128 -8.699,-0.128 -2.67,0 -6.26,0.05 -10.769,0.128 -5.576,0.207 -8.751,0.313 -9.581,0.313 -1.041,0 -1.545,-0.625 -1.545,-1.892 0,-1.117 0.504,-1.686 1.545,-1.686 3.085,-0.185 5.104,-0.441 6.113,-0.753 1.36,-0.391 2.401,-1.139 3.027,-2.205 0.919,-1.658 1.393,-7.155 1.393,-16.488l0 -21.181 0 -3.115c0,-4.097 -0.652,-7.518 -1.987,-10.264 -2.287,-5.212 -6.47,-7.808 -12.615,-7.808 -5.959,0 -10.947,2.958 -14.952,8.87 -2.613,3.812 -3.916,7.958 -3.916,12.468l0 21.031c0,9.695 0.358,15.164 1.041,16.488 0.588,1.166 1.897,1.92 3.916,2.282 0.594,0.106 2.606,0.336 6.08,0.676 0.921,0.156 1.393,0.826 1.393,1.992 0,1.066 -0.472,1.585 -1.393,1.585 -13.023,-0.313 -19.614,-0.441 -19.729,-0.441 -2.612,0 -6.112,0.05 -10.507,0.128 -5.339,0.207 -8.514,0.313 -9.491,0.313 -1.041,0 -1.546,-0.57 -1.546,-1.736 0,-1.116 0.505,-1.741 1.546,-1.841 3.41,-0.285 5.518,-0.57 6.26,-0.832 1.456,-0.335 2.491,-1.06 3.142,-2.126 0.863,-1.323 1.309,-4.409 1.309,-9.254l0 -7.234 0 -23.001c0,-6.736 -0.415,-11.046 -1.219,-12.909 -0.945,-2.177 -2.606,-3.265 -5.039,-3.265 -0.536,0 -0.952,0 -1.221,0l-4.272 0.284c-0.415,0 -0.684,0 -0.856,0 -0.894,0 -1.367,-0.569 -1.488,-1.735 0,-0.263 0,-0.497 0,-0.753 0,-0.804 0.658,-1.351 1.992,-1.608 9.166,-1.713 18.656,-3.996 28.513,-6.82 1.271,0 1.929,0.413 1.929,1.273 -0.243,5.832 -0.358,10.185 -0.358,13.066 2.964,-4.951 6.974,-8.791 12.078,-11.459 4.241,-2.232 8.571,-3.349 13.055,-3.349 6.138,0 11.42,1.3 15.898,3.868 4.572,2.695 7.772,6.53 9.555,11.559zm136.896 60.234c-1.457,0 -2.165,-0.625 -2.165,-1.898 0.358,-4.559 0.504,-8.607 0.504,-12.155 -6.08,9.46 -14.952,14.204 -26.672,14.204 -6.56,0 -12.199,-1.424 -16.946,-4.248 -6.495,-3.812 -9.727,-9.75 -9.727,-17.866l0.325 -16.62 0 -12.313c0,-6.123 -0.211,-10.141 -0.683,-12.005 -0.742,-2.824 -2.613,-4.174 -5.583,-4.018l-4.599 0.157c-0.977,0 -1.597,-0.078 -1.808,-0.235 -0.237,-0.207 -0.383,-0.697 -0.446,-1.529 -0.058,-0.391 -0.09,-0.676 -0.09,-0.832 0,-0.854 0.626,-1.345 1.839,-1.424 10.833,-1.273 20.388,-2.752 28.666,-4.408 1.393,0 2.108,0.518 2.108,1.579 -0.479,9.878 -0.715,18.954 -0.715,27.197l0 16.336c0,7.597 0.683,12.575 2.018,14.959 2.255,5.006 6.56,7.518 12.934,7.518 6.381,0 11.606,-3.003 15.642,-9.047 2.492,-3.578 3.737,-7.674 3.737,-12.29l0 -21.957c0,-4.9 -0.325,-8.868 -1.041,-11.849 -0.741,-2.93 -2.613,-4.331 -5.545,-4.175l-4.777 0.313 -0.625 0c-0.863,0 -1.367,-0.647 -1.483,-1.92 -0.058,-0.491 -0.089,-0.776 -0.089,-0.832 0,-0.748 0.683,-1.217 2.018,-1.373 7.358,-0.753 16.671,-2.227 27.976,-4.459 1.277,0 1.929,0.468 1.929,1.428 -0.352,7.541 -0.531,16.671 -0.531,27.348l0 21.493c0,8.4 0.352,13.563 1.035,15.427 0.831,1.87 3.027,2.908 6.618,3.115l3.385 0.156c1.156,0.1 1.75,0.698 1.75,1.814 0,1.166 -0.536,1.736 -1.571,1.736 -8.399,0.413 -17.54,1.294 -27.388,2.673zm92.747 -74.054c0.536,8.194 1.042,14.21 1.571,18.073 0,0.804 -0.677,1.3 -2.012,1.429 -0.268,0.05 -0.536,0.077 -0.773,0.077 -0.683,0 -1.309,-0.362 -1.839,-1.143 -5.908,-10.577 -12.851,-15.868 -20.861,-15.868 -9.255,0 -13.885,3.711 -13.885,11.101 0,4.097 4.451,7.775 13.381,11.018l6.26 2.333c9.318,3.605 15.577,6.949 18.785,10.035 3.705,3.601 5.544,8.4 5.544,14.44 0,6.536 -2.816,11.927 -8.424,16.181 -5.698,4.253 -13.292,6.379 -22.872,6.379 -8.847,0 -17.303,-1.479 -25.281,-4.409 -1.75,-5.212 -3.06,-10.839 -3.915,-16.856 0,-0.826 0.562,-1.267 1.749,-1.373 0.563,-0.05 0.977,-0.078 1.214,-0.078 0.505,0 0.952,0.34 1.309,0.989 3.175,5.519 7.205,9.85 12.072,12.987 4.272,2.824 8.578,4.254 12.851,4.254 5.397,0 9.459,-1.479 12.161,-4.409 2.229,-2.384 3.32,-5.548 3.32,-9.489 0,-3.242 -1.628,-5.96 -4.861,-8.192 -1.992,-1.374 -5.818,-3.243 -11.484,-5.627l-6.08 -2.517c-8.074,-3.293 -13.356,-6.217 -15.904,-8.813 -3.207,-3.293 -4.779,-7.802 -4.779,-13.585 0,-5.313 2.523,-9.75 7.563,-13.3 5.135,-3.605 12.02,-5.391 20.592,-5.391 3.175,0 7.447,0.513 12.788,1.529 1.902,0.335 3.857,0.519 5.908,0.519 1.718,0 3.705,-0.106 5.901,-0.291z"/>
 </g>
</svg>
