<?xml version="1.0" encoding="utf-8"?>
<!-- Generator: Adobe Illustrator 27.8.1, SVG Export Plug-In . SVG Version: 6.00 Build 0)  -->
<svg version="1.1" id="Layer_1" xmlns="http://www.w3.org/2000/svg" xmlns:xlink="http://www.w3.org/1999/xlink" x="0px" y="0px"
	 viewBox="0 0 633 147.6" enable-background="new 0 0 633 147.6" xml:space="preserve">
<g>
	<g>
		<path fill="#FFFFFF" d="M156.2,86.8c-21.5,0-38.5-14-38.5-37.4s16.9-37.5,38.5-37.5s38.5,14.1,38.5,37.5S177.8,86.8,156.2,86.8z
			 M156.2,26.4c-12.1,0-21.2,8.7-21.2,22.6s9.2,22.7,21.2,22.7s21.2-8.8,21.2-22.7C177.5,35.2,168.3,26.4,156.2,26.4z"/>
		<path fill="#FFFFFF" d="M236,86.7c-7.7,0-13.1-2.8-16.4-7.7v25.5h-16.8V33.7h16l-0.1,6.6h0.2c3.8-4.5,9.4-7.6,17.2-7.6
			c14.9,0,24.4,11.7,24.4,26.9S251.1,86.7,236,86.7z M231.2,46c-7.2,0-12.1,5.5-12.1,13.5S224,73,231.2,73c7.2,0,12.2-5.5,12.2-13.5
			S238.5,46,231.2,46z"/>
		<path fill="#FFFFFF" d="M318.1,63.7h-36.9c0.7,7.5,6.4,10.8,13.2,10.8c6.7,0,12.6-2.9,15.6-4.9l6.6,8.7c-1.7,1.3-8.5,8.4-24.6,8.4
			c-16,0-27.7-9.9-27.7-27s12.6-26.9,28-26.9s26,10.2,26,25.3C318.3,60.6,318.1,63.7,318.1,63.7z M292.1,43.7
			c-6.9,0-10.5,5.5-10.7,10.4h21.3C302.6,49.4,299.1,43.7,292.1,43.7z"/>
		<path fill="#FFFFFF" d="M359,85.6v-27c0-6.8-1-12-8-12c-7.2,0-9.2,5.9-9.2,13.3v25.7H325V33.7h16.8l-0.1,7.5h0.2
			c2.8-4.6,7.6-8.4,15-8.4c15,0,18.9,9.7,18.9,22.2v30.6L359,85.6L359,85.6L359,85.6z"/>
		<path fill="#FFFFFF" d="M386.6,85.6V13h16.9v58.4h25.1v14.1h-42V85.6z"/>
		<path fill="#FFFFFF" d="M459.9,86.7c-16.4,0-28.8-10.2-28.8-26.9s12.4-27,28.8-27s28.7,10.3,28.7,27S476.3,86.7,459.9,86.7z
			 M459.9,46c-7.5,0-11.8,5.8-11.8,13.5S452.4,73,459.9,73c7.4,0,11.8-5.8,11.8-13.5C471.6,51.8,467.2,46,459.9,46z"/>
		<path fill="#FFFFFF" d="M542.4,97.4c-5.1,4.7-12,8.2-23.9,8.2c-12,0-21.6-5-25.1-7.7l6.9-11.2c3.1,2.3,10.9,5.9,17.9,5.9
			c10,0,15.3-4.2,15.3-14.4v-1.7h-0.2c-3.2,4.1-8.2,7.4-16.3,7.4c-12.7,0-24.5-8.8-24.5-25.5s11.8-25.5,24.5-25.5
			c8.7,0,13.7,4,16.4,7.6h0.2l-0.2-6.6h16.8v41.3C550.3,86.2,547.4,92.7,542.4,97.4z M521.9,45.9c-7.5,0-12.2,5.5-12.2,12.5
			c0,7.2,4.7,12.6,12.2,12.6S534,65.5,534,58.4C534,51.4,529.4,45.9,521.9,45.9z"/>
		<path fill="#FFFFFF" d="M569.1,27.7c-5.7,0-9.6-3.5-9.6-8.7c0-5.1,3.9-8.7,9.6-8.7c5.7,0,9.6,3.6,9.6,8.7
			C578.7,24.3,574.8,27.7,569.1,27.7z M560.7,85.6V33.7h16.8v51.8h-16.8V85.6z"/>
		<path fill="#FFFFFF" d="M612,86.7c-14.2,0-27.3-9.7-27.3-26.9c0-17.3,13.3-27,27.5-27c13.2,0,19.2,5.5,19.2,5.5L627.8,51
			c-1.5-1.2-6.1-4.6-13.3-4.6s-12.8,4.9-12.8,13.1s5.2,13.3,13,13.3s13.1-5,13.1-5l4,12.7C631.2,80.9,625.8,86.7,612,86.7z"/>
	</g>
	<path fill="#FFFFFF" d="M48.9,0C21.9,0,0,22,0,48.9c0,27,22,48.9,48.9,48.9s48.9-22,48.9-48.9S75.9,0,48.9,0z M62.6,53.5
		c-2.4-1.4-5.5-0.6-6.8,1.8s-0.6,5.5,1.8,6.8l2.8,1.6c-3.2,2.5-7.2,3.9-11.5,3.9s-8.3-1.5-11.5-3.9l2.8-1.6c2.4-1.4,3.2-4.4,1.8-6.8
		s-4.4-3.2-6.8-1.8l-3.8,2.2c-0.8-2.1-1.3-4.4-1.3-6.8c0-8.6,5.9-15.9,13.8-18.1V37c0,2.8,2.2,5,5,5s5-2.2,5-5v-6.2
		c7.9,2.2,13.8,9.5,13.8,18.1c0,2.4-0.5,4.7-1.3,6.8L62.6,53.5z M10,48.9c0-4.8,0.9-9.4,2.5-13.7l8.9,5.1c-0.8,2.7-1.3,5.6-1.3,8.5
		c0,4.2,0.9,8.2,2.5,11.8l-8.8,5.1C11.4,60.7,10,55,10,48.9z M76.4,40.3l8.9-5.1c1.6,4.3,2.5,8.9,2.5,13.8c0,6.1-1.4,11.8-3.9,16.9
		l-8.8-5.1c1.6-3.6,2.5-7.6,2.5-11.8C77.7,45.9,77.3,43,76.4,40.3z M80.6,26.3l-8.8,5.1c-4.3-5.6-10.6-9.6-17.8-10.9V10.3
		C64.9,11.8,74.4,17.7,80.6,26.3z M43.9,10.3v10.2c-7.3,1.3-13.6,5.3-17.9,10.9l-8.8-5.1C23.3,17.8,32.9,11.8,43.9,10.3z M19.4,74.2
		l9-5.2c4.1,4.2,9.5,7.2,15.6,8.2v10.2C34.1,86.3,25.5,81.4,19.4,74.2z M53.9,87.5V77.3c6-1.1,11.5-4,15.6-8.2l9,5.2
		C72.4,81.4,63.7,86.3,53.9,87.5z"/>
	<g>
		<path fill="#FFFFFF" d="M271.7,124.7c0,0.9,0.1,1.8,0.4,2.6s0.7,1.5,1.2,2.1s1.1,1,1.9,1.4s1.6,0.5,2.5,0.5c1.2,0,2.3-0.3,3.2-0.9
			s1.6-1.4,2-2.3c0.5-1,0.7-2.1,0.7-3.3s-0.2-2.4-0.7-3.3c-0.5-1-1.1-1.8-2-2.3c-0.9-0.6-1.9-0.9-3.2-0.9s-2.3,0.3-3.2,0.9
			c-0.9,0.6-1.6,1.3-2,2.3C271.9,122.3,271.7,123.4,271.7,124.7 M268.1,133.9v-26.8h3.7v11.2h0.1c1.5-2.1,3.7-3.2,6.5-3.2
			c1.8,0,3.3,0.4,4.7,1.2s2.4,2,3.1,3.4s1.1,3.1,1.1,4.9c0,1.4-0.2,2.6-0.7,3.8c-0.4,1.2-1,2.2-1.8,3.1c-0.8,0.9-1.7,1.5-2.8,2
			c-1.1,0.5-2.4,0.7-3.7,0.7c-1.4,0-2.6-0.3-3.7-0.8s-2-1.4-2.8-2.5h-0.1v2.9L268.1,133.9L268.1,133.9L268.1,133.9z"/>
		<path fill="#FFFFFF" d="M289.5,115.4h3.9l5.5,14.4l5.4-14.4h3.9l-8.9,21.7c-0.6,1.5-1.3,2.7-2.1,3.3c-0.8,0.7-1.7,1-2.8,1
			c-0.6,0-1.2-0.1-1.8-0.2c-0.6-0.1-1-0.2-1.3-0.3l-0.4-0.2l0.7-3c0.7,0.3,1.3,0.4,2,0.4h0.1c0.2,0,0.3,0,0.5,0c0.1,0,0.3,0,0.4-0.1
			c0.2-0.1,0.3-0.2,0.5-0.3c0.1-0.2,0.3-0.4,0.5-0.7s0.3-0.6,0.5-1.1l0.9-2.5L289.5,115.4z"/>
		<path fill="#FFFFFF" d="M324.2,119.4h3.5c1.6,0,2.9-0.3,3.9-1c0.5-0.4,0.9-0.9,1.2-1.5s0.4-1.3,0.4-2.1c0-0.5-0.1-1-0.2-1.5
			c-0.2-0.5-0.3-0.9-0.6-1.2c-0.2-0.3-0.5-0.6-0.8-0.8c-1-0.7-2.3-1-3.9-1h-3.5V119.4L324.2,119.4L324.2,119.4z M320.5,133.9v-26.8
			h7.5c2.8,0,5,0.6,6.5,1.9c0.4,0.4,0.8,0.8,1.1,1.2c0.3,0.4,0.6,0.8,0.8,1.3s0.4,1,0.5,1.5s0.2,1.1,0.2,1.8c0,1.2-0.2,2.3-0.7,3.3
			c-0.4,0.9-1.1,1.8-1.9,2.5c-1.5,1.3-3.6,1.9-6.5,1.9h-3.8V134L320.5,133.9L320.5,133.9L320.5,133.9z"/>
		<path fill="#FFFFFF" d="M343.2,123.1H354c0-0.4-0.1-0.9-0.2-1.4s-0.3-0.9-0.6-1.4c-0.3-0.5-0.6-0.9-1-1.3s-0.9-0.7-1.5-0.9
			c-0.6-0.2-1.3-0.3-2-0.3s-1.4,0.1-2,0.3s-1.1,0.5-1.5,0.9s-0.8,0.8-1,1.3c-0.3,0.5-0.5,0.9-0.7,1.4
			C343.3,122.2,343.2,122.7,343.2,123.1 M339.4,124.7c0-1.4,0.2-2.7,0.8-3.9s1.2-2.2,2-3s1.8-1.5,3-1.9c1.1-0.5,2.3-0.7,3.6-0.7
			c1.7,0,3.2,0.4,4.5,1.1c1.3,0.8,2.4,1.8,3.1,3.1c0.8,1.3,1.1,2.9,1.1,4.6c0,0.2,0,0.5,0,0.7c0,0.3,0,0.5-0.1,0.7v0.2h-14.3
			c0.1,1.8,0.7,3.2,1.8,4.2c1.1,1,2.5,1.5,4.2,1.5c0.5,0,1.1,0,1.6-0.1s1-0.2,1.4-0.3s0.8-0.3,1.2-0.5c0.4-0.2,0.7-0.3,0.9-0.5
			c0.2-0.1,0.4-0.3,0.7-0.4s0.3-0.2,0.3-0.2l1.6,2.1c0,0-0.1,0-0.2,0.2c-0.1,0.1-0.2,0.2-0.3,0.3c-0.1,0.1-0.3,0.2-0.5,0.4
			s-0.4,0.3-0.7,0.5s-0.5,0.3-0.9,0.5c-0.3,0.2-0.7,0.3-1.1,0.5s-0.8,0.3-1.3,0.4c-0.5,0.1-1,0.2-1.5,0.3c-0.6,0.1-1.1,0.1-1.7,0.1
			c-1.8,0-3.4-0.4-4.8-1.2s-2.5-1.9-3.3-3.4C339.8,128.3,339.4,126.6,339.4,124.7"/>
		<path fill="#FFFFFF" d="M362.1,133.9v-18.5h3.8v2.9h0.1c0.3-0.7,0.7-1.3,1.1-1.8c0.5-0.5,1-0.8,1.5-1.1c0.6-0.2,1.2-0.4,1.8-0.4
			c0.4,0,0.7,0,1,0.1c0.3,0,0.5,0.1,0.7,0.2l0.2,0.1l-0.2,3.1H372h-2c-0.7,0-1.3,0.2-1.8,0.5s-0.9,0.7-1.2,1
			c-0.7,1.1-1.1,2.7-1.1,4.7v9.2L362.1,133.9L362.1,133.9z"/>
		<path fill="#FFFFFF" d="M374,118.5v-3h2.7v-1.9c0-2.2,0.4-3.9,1.2-4.9c0.5-0.6,1.1-1.1,1.8-1.5c0.7-0.4,1.6-0.6,2.6-0.6
			c0.6,0,1.2,0,1.8,0.1c0.5,0.1,0.9,0.2,1.1,0.2l0.3,0.1l-0.2,2.9c-0.7-0.2-1.4-0.3-2.1-0.3c-0.5,0-0.9,0.1-1.2,0.2
			s-0.6,0.3-0.8,0.5s-0.4,0.5-0.5,0.8s-0.2,0.7-0.2,1s-0.1,0.7-0.1,1.2v2h4.4v3h-4.4v15.4h-3.7v-15.4L374,118.5L374,118.5L374,118.5
			z"/>
		<path fill="#FFFFFF" d="M390,124.7c0,1.2,0.2,2.3,0.7,3.3s1.2,1.8,2.1,2.4c0.9,0.6,2,0.9,3.2,0.9s2.2-0.3,3.2-0.9
			c0.9-0.6,1.6-1.4,2.1-2.4c0.5-1,0.7-2.1,0.7-3.3c0-1.2-0.2-2.3-0.7-3.3s-1.2-1.8-2.1-2.3c-0.9-0.6-2-0.9-3.2-0.9s-2.3,0.3-3.2,0.9
			c-0.9,0.6-1.6,1.4-2.1,2.3S390,123.5,390,124.7 M386.2,124.8c0-1.4,0.2-2.7,0.8-3.9s1.2-2.2,2.1-3.1c0.9-0.8,1.9-1.5,3.1-2
			s2.5-0.7,3.8-0.7s2.6,0.2,3.8,0.7c1.2,0.5,2.2,1.1,3.1,2s1.6,1.8,2.1,3.1c0.5,1.2,0.8,2.5,0.8,3.9s-0.2,2.7-0.8,3.9
			c-0.5,1.2-1.2,2.2-2.1,3s-1.9,1.5-3.1,1.9s-2.5,0.7-3.8,0.7c-0.8,0-1.6-0.1-2.3-0.2c-0.7-0.2-1.4-0.4-2.1-0.7
			c-0.6-0.3-1.2-0.7-1.8-1.1s-1.1-0.9-1.5-1.5c-0.4-0.5-0.8-1.1-1.1-1.8c-0.3-0.6-0.6-1.3-0.7-2.1
			C386.3,126.4,386.2,125.6,386.2,124.8"/>
		<path fill="#FFFFFF" d="M410.5,133.9v-18.5h3.8v2.9h0.1c0.3-0.7,0.7-1.3,1.1-1.8c0.5-0.5,1-0.8,1.6-1.1c0.6-0.2,1.2-0.4,1.8-0.4
			c0.4,0,0.7,0,1.1,0.1c0.3,0,0.6,0.1,0.7,0.2l0.2,0.1l-0.2,3.1h-0.2h-2c-0.7,0-1.3,0.2-1.8,0.5s-0.9,0.7-1.2,1
			c-0.7,1.1-1.1,2.7-1.1,4.7v9.2L410.5,133.9L410.5,133.9z"/>
		<path fill="#FFFFFF" d="M422.6,124.8c0-1.4,0.3-2.8,0.8-4s1.2-2.2,2.1-3.1s1.9-1.5,3-1.9s2.3-0.7,3.5-0.7c0.8,0,1.5,0.1,2.2,0.2
			s1.3,0.3,1.8,0.5s0.9,0.4,1.3,0.6s0.7,0.4,1,0.6s0.5,0.4,0.6,0.5s0.2,0.2,0.3,0.3l-1.3,2.7c-0.2-0.2-0.4-0.3-0.5-0.5
			c-0.2-0.1-0.4-0.3-0.8-0.6c-0.4-0.2-0.7-0.4-1.1-0.6s-0.8-0.3-1.4-0.4s-1.2-0.2-1.8-0.2c-0.8,0-1.6,0.2-2.3,0.5s-1.4,0.7-1.9,1.3
			c-0.5,0.5-1,1.2-1.3,2s-0.5,1.7-0.5,2.6c0,1.9,0.6,3.5,1.7,4.7s2.6,1.8,4.4,1.8c0.7,0,1.3-0.1,2-0.2c0.6-0.2,1.2-0.4,1.6-0.6
			c0.4-0.2,0.8-0.5,1.1-0.7c0.3-0.2,0.6-0.4,0.7-0.6l0.2-0.2l1.3,2.7l-0.1,0.1c-0.2,0.2-0.4,0.4-0.6,0.5s-0.5,0.4-0.9,0.7
			s-0.9,0.5-1.4,0.7s-1.1,0.4-1.9,0.5s-1.6,0.2-2.5,0.2c-1.2,0-2.4-0.2-3.6-0.7c-1.1-0.5-2.1-1.1-3-1.9c-0.8-0.8-1.5-1.8-2-3
			C422.9,127.5,422.6,126.2,422.6,124.8"/>
		<path fill="#FFFFFF" d="M445.7,123.1h10.8c0-0.4-0.1-0.9-0.2-1.4s-0.3-0.9-0.6-1.4c-0.3-0.5-0.6-0.9-1-1.3s-0.9-0.7-1.5-0.9
			c-0.6-0.2-1.3-0.3-2-0.3s-1.4,0.1-2,0.3c-0.6,0.2-1.1,0.5-1.5,0.9s-0.8,0.8-1.1,1.3c-0.3,0.5-0.5,0.9-0.7,1.4
			C445.8,122.2,445.7,122.7,445.7,123.1 M441.9,124.7c0-1.4,0.2-2.7,0.8-3.9s1.2-2.2,2-3s1.8-1.5,3-1.9c1.1-0.5,2.3-0.7,3.6-0.7
			c1.7,0,3.2,0.4,4.5,1.1c1.3,0.8,2.4,1.8,3.1,3.1c0.8,1.3,1.1,2.9,1.1,4.6c0,0.2,0,0.5,0,0.7c0,0.3,0,0.5-0.1,0.7v0.2h-14.3
			c0.1,1.8,0.7,3.2,1.8,4.2c1.1,1,2.5,1.5,4.2,1.5c0.6,0,1.1,0,1.6-0.1s1-0.2,1.4-0.3s0.8-0.3,1.2-0.5s0.7-0.3,0.9-0.5
			c0.2-0.1,0.4-0.3,0.7-0.4s0.3-0.2,0.3-0.2l1.6,2.1c0,0-0.1,0-0.2,0.2c-0.1,0.1-0.2,0.2-0.3,0.3c-0.1,0.1-0.3,0.2-0.5,0.4
			s-0.4,0.3-0.7,0.5c-0.3,0.2-0.6,0.3-0.9,0.5s-0.7,0.3-1.1,0.5s-0.8,0.3-1.3,0.4c-0.4,0.1-0.9,0.2-1.5,0.3s-1.1,0.1-1.7,0.1
			c-1.8,0-3.4-0.4-4.8-1.2s-2.5-1.9-3.3-3.4C442.3,128.3,441.9,126.6,441.9,124.7"/>
	</g>
</g>
</svg>
