<svg xmlns="http://www.w3.org/2000/svg" fill="none" viewBox="83.97 83.97 1040.03 164.32">
  <defs/>
  <path fill="#ffffff" fill-rule="evenodd" d="M302.068 116.414c4.521-.629 8.87-.945 13.05-.945 4.407 0 8.758.316 13.052.945l27.965 58.043 28.812-58.043c3.504-.629 7.399-.945 11.694-.945 4.294 0 8.417.316 12.372.945l5.762 106.583c-4.292.631-8.361.944-12.202.944-3.844 0-7.627-.314-11.355-.944l-3.051-77.061-24.745 53.262c-1.583.21-3.22.395-4.916.551-1.695.158-3.388.235-5.083.235-1.47 0-2.937-.052-4.406-.156-1.468-.105-2.994-.316-4.577-.63l-23.049-54.365-2.372 78.165c-3.615.631-7.118.944-10.509.944-3.616 0-7.346-.314-11.185-.944l4.743-106.584zm737.502 41.662h-10.17l-.78-3.129 29.25-37.391h3.6v23.624h18.93c.32 1.565.52 2.973.63 4.224.1 1.253.16 2.555.16 3.912 0 1.46-.06 2.867-.16 4.224-.11 1.357-.31 2.869-.63 4.537h-18.93v31.76c0 3.232.27 5.839.79 7.822.52 1.98 1.27 3.545 2.26 4.694 1 1.147 2.22 1.929 3.68 2.346 1.46.418 3.18.627 5.16.627 1.57 0 3.1-.132 4.62-.392 1.51-.261 2.84-.495 3.99-.704.73 1.98 1.25 4.041 1.56 6.179.32 2.139.47 4.043.47 5.711 0 1.147-.02 2.111-.08 2.894-.05.781-.13 1.539-.23 2.268-4.8 1.148-9.75 1.72-14.86 1.72-9.49 0-16.74-2.216-21.75-6.646-5.01-4.434-7.51-11.657-7.51-21.67v-36.61zm-54.113 28.787c-5.842-1.67-10.405-4.147-13.689-7.432-3.286-3.284-4.929-8.214-4.929-14.786 0-7.927 2.842-14.13 8.527-18.615 5.684-4.486 13.429-6.728 23.232-6.728 4.072 0 8.082.365 12.042 1.096 3.97.73 7.98 1.824 12.05 3.285-.21 2.711-.73 5.527-1.57 8.448-.83 2.919-1.82 5.475-2.97 7.667-2.5-1.044-5.26-1.957-8.29-2.74-3.02-.781-6.2-1.172-9.54-1.172-3.549 0-6.312.547-8.295 1.643-1.981 1.096-2.971 2.843-2.971 5.24 0 2.295.704 3.912 2.112 4.851 1.408.938 3.417 1.827 6.023 2.659l8.921 2.661c2.92.833 5.55 1.849 7.9 3.05 2.34 1.2 4.35 2.686 6.02 4.458 1.67 1.772 2.97 3.964 3.91 6.571.94 2.608 1.41 5.788 1.41 9.542 0 3.861-.81 7.459-2.42 10.796-1.62 3.339-3.97 6.233-7.04 8.683-3.08 2.453-6.81 4.382-11.19 5.789-4.38 1.408-9.336 2.112-14.864 2.112-2.504 0-4.797-.078-6.882-.234-2.086-.158-4.094-.418-6.024-.782-1.929-.366-3.833-.808-5.711-1.33-1.877-.521-3.912-1.199-6.102-2.035.21-2.817.705-5.659 1.486-8.526.782-2.867 1.8-5.659 3.051-8.371 3.442 1.357 6.702 2.373 9.779 3.051 3.077.679 6.284 1.019 9.62 1.019 1.461 0 3.051-.132 4.771-.393 1.721-.261 3.312-.73 4.772-1.408 1.464-.678 2.684-1.565 3.674-2.659.99-1.095 1.49-2.529 1.49-4.304 0-2.501-.76-4.3-2.27-5.396-1.513-1.094-3.625-2.061-6.335-2.894l-9.698-2.816zm-67.477 37.078c-6.571 0-12.282-1.07-17.131-3.208-4.85-2.137-8.866-5.11-12.048-8.918-3.181-3.806-5.579-8.265-7.195-13.376-1.617-5.111-2.426-10.637-2.426-16.583 0-5.945.808-11.526 2.426-16.74 1.616-5.214 4.014-9.726 7.195-13.532 3.182-3.808 7.198-6.804 12.048-8.997 4.849-2.19 10.56-3.285 17.131-3.285 6.57 0 12.306 1.096 17.208 3.285 4.901 2.193 8.969 5.188 12.204 8.997 3.233 3.806 5.631 8.318 7.197 13.532 1.564 5.214 2.346 10.795 2.346 16.74 0 5.945-.782 11.472-2.346 16.583-1.565 5.111-3.964 9.569-7.197 13.376-3.236 3.808-7.303 6.781-12.204 8.918-4.902 2.138-10.637 3.208-17.208 3.208zm0-16.897c5.841 0 10.039-2.163 12.593-6.493 2.556-4.328 3.834-10.56 3.834-18.695 0-8.136-1.278-14.367-3.834-18.695-2.554-4.33-6.752-6.493-12.593-6.493-5.737 0-9.882 2.164-12.437 6.493-2.557 4.328-3.835 10.56-3.835 18.695s1.279 14.367 3.835 18.695c2.555 4.33 6.701 6.493 12.437 6.493zM755.4 141.179c1.459-.311 2.919-.547 4.379-.703 1.461-.158 3.077-.236 4.851-.236 1.772 0 3.337.078 4.692.236 1.356.156 2.764.392 4.224.703.313.521.601 1.279.861 2.27.26.99.496 2.034.704 3.128.209 1.096.39 2.164.546 3.207.159 1.043.288 1.93.392 2.659.833-1.562 1.93-3.128 3.287-4.693 1.354-1.563 2.971-2.97 4.848-4.223 1.877-1.252 3.989-2.27 6.337-3.051 2.346-.783 4.981-1.174 7.901-1.174 12.62 0 20.702 4.799 24.249 14.394 2.085-3.86 5.032-7.222 8.838-10.092 3.807-2.868 8.631-4.302 14.473-4.302 9.178 0 15.93 2.531 20.258 7.59 4.33 5.057 6.494 12.958 6.494 23.702v51.471c-3.754.626-7.459.937-11.107.937-3.651 0-7.354-.311-11.108-.937v-45.684c0-5.632-.705-9.959-2.114-12.983-1.407-3.025-4.248-4.538-8.525-4.538-1.775 0-3.52.261-5.24.781-1.723.521-3.287 1.485-4.694 2.894-1.408 1.408-2.555 3.391-3.443 5.947-.887 2.553-1.331 5.866-1.331 9.933v43.65c-3.754.626-7.458.937-11.107.937-3.65 0-7.354-.311-11.109-.937v-45.684c0-5.632-.703-9.959-2.112-12.983-1.408-3.025-4.249-4.538-8.526-4.538-1.771 0-3.546.261-5.319.781-1.772.521-3.363 1.538-4.772 3.051-1.408 1.511-2.53 3.623-3.362 6.337-.836 2.711-1.253 6.258-1.253 10.637v42.399c-3.755.626-7.456.937-11.107.937-3.651 0-7.352-.311-11.107-.937v-80.886h.002zm-59.226 0c1.564-.311 3.05-.547 4.458-.703 1.41-.158 2.946-.236 4.616-.236 1.565 0 3.104.106 4.615.313 1.513.209 3 .47 4.458.784.314.522.602 1.277.861 2.268.261.991.496 2.034.705 3.13.209 1.096.39 2.188.547 3.285.157 1.096.286 2.005.392 2.739 2.294-3.234 5.112-6.129 8.447-8.683 3.338-2.556 7.511-3.835 12.516-3.835 1.044 0 2.244.052 3.598.158 1.356.104 2.346.26 2.973.47.209 1.041.365 2.241.469 3.597.107 1.356.158 2.764.158 4.225 0 1.773-.08 3.702-.235 5.788-.158 2.086-.445 4.067-.862 5.945-1.147-.21-2.424-.313-3.831-.313h-2.581c-1.774 0-3.755.183-5.947.547-2.189.366-4.275 1.33-6.257 2.896-1.983 1.564-3.624 3.911-4.928 7.04-1.303 3.127-1.957 7.508-1.957 13.142v38.486c-1.876.311-3.753.52-5.631.624-1.876.105-3.701.156-5.474.156-1.775 0-3.573-.051-5.398-.156-1.825-.104-3.728-.313-5.709-.624v-81.043h-.003zm-61.209 47.248c.418 6.258 2.608 10.795 6.572 13.611 3.963 2.817 9.178 4.224 15.646 4.224 3.545 0 7.168-.341 10.872-1.019 3.703-.677 7.223-1.642 10.561-2.892 1.147 2.086 2.138 4.588 2.973 7.509.834 2.919 1.302 6.05 1.408 9.386-8.136 3.129-17.315 4.694-27.537 4.694-7.508 0-13.947-1.043-19.321-3.13-5.37-2.085-9.751-4.981-13.14-8.682-3.39-3.702-5.894-8.109-7.51-13.221-1.617-5.11-2.423-10.689-2.423-16.737 0-5.946.833-11.526 2.502-16.741 1.667-5.217 4.145-9.752 7.432-13.61 3.285-3.861 7.352-6.911 12.203-9.153 4.849-2.242 10.508-3.364 16.974-3.364 5.632 0 10.639.99 15.018 2.973 4.381 1.981 8.109 4.694 11.186 8.137 3.077 3.439 5.399 7.535 6.964 12.28 1.564 4.745 2.346 9.832 2.346 15.253 0 1.982-.078 3.939-.235 5.868-.156 1.928-.341 3.468-.547 4.615h-51.944v-.001zm31.76-15.487c-.208-5.009-1.591-9.049-4.146-12.126-2.555-3.077-6.127-4.617-10.716-4.617-5.215 0-9.178 1.461-11.89 4.381-2.711 2.921-4.327 7.041-4.848 12.362h31.6zm-102.767-14.864H553.79l-.784-3.129 29.256-37.391h3.598v23.624h18.931c.311 1.565.521 2.973.626 4.224.102 1.253.155 2.555.155 3.912 0 1.46-.053 2.867-.155 4.224-.105 1.357-.315 2.869-.626 4.537H585.86v31.76c0 3.232.263 5.839.783 7.822.522 1.98 1.278 3.545 2.268 4.694.992 1.147 2.216 1.929 3.677 2.346 1.46.418 3.183.627 5.163.627 1.565 0 3.102-.132 4.616-.392 1.512-.261 2.842-.495 3.989-.704.731 1.98 1.251 4.041 1.564 6.179.315 2.139.47 4.043.47 5.711 0 1.147-.026 2.111-.078 2.894-.051.781-.13 1.539-.234 2.268-4.798 1.148-9.75 1.72-14.863 1.72-9.49 0-16.74-2.216-21.746-6.646-5.006-4.434-7.51-11.657-7.51-21.67v-36.61h-.001zm-58.696 0h-10.17l-.784-3.129 29.257-37.391h3.598v23.624h18.93c.311 1.565.521 2.973.627 4.224.102 1.253.155 2.555.155 3.912 0 1.46-.052 2.867-.155 4.224-.106 1.357-.316 2.869-.627 4.537h-18.93v31.76c0 3.232.262 5.839.784 7.822.519 1.98 1.277 3.545 2.267 4.694.992 1.147 2.217 1.929 3.677 2.346 1.46.418 3.183.627 5.162.627 1.565 0 3.102-.132 4.616-.392 1.512-.261 2.842-.495 3.989-.704.732 1.98 1.251 4.041 1.565 6.179.313 2.139.469 4.043.469 5.711 0 1.147-.026 2.111-.078 2.894-.051.781-.129 1.539-.234 2.268-4.798 1.148-9.75 1.72-14.862 1.72-9.492 0-16.742-2.216-21.747-6.646-5.007-4.434-7.509-11.657-7.509-21.67v-36.61zm-36.4 26.91c-1.253-.209-2.607-.393-4.07-.548-1.46-.156-2.761-.234-3.91-.234-5.111 0-9.153.911-12.126 2.738-2.973 1.825-4.458 4.772-4.458 8.839 0 2.713.574 4.797 1.721 6.258 1.147 1.46 2.53 2.528 4.145 3.205 1.617.679 3.337 1.096 5.162 1.253 1.827.155 3.417.236 4.771.236 1.566 0 3.131-.132 4.694-.393 1.566-.261 2.921-.494 4.07-.704v-20.65h.001zm0-16.115c0-2.501-.417-4.536-1.253-6.102-.833-1.562-1.981-2.79-3.441-3.674-1.46-.888-3.26-1.489-5.397-1.8-2.138-.313-4.512-.469-7.119-.469-5.632 0-11.629 1.095-17.991 3.285-1.461-2.712-2.555-5.268-3.285-7.666-.73-2.398-1.096-5.266-1.096-8.605 4.59-1.564 9.178-2.711 13.767-3.441 4.588-.73 8.867-1.096 12.828-1.096 10.848 0 19.322 2.607 25.424 7.823 6.101 5.215 9.152 13.557 9.152 25.031v46.934c-3.651 1.147-8.084 2.242-13.299 3.285-5.214 1.044-11.107 1.565-17.678 1.565-5.319 0-10.196-.469-14.629-1.408-4.432-.938-8.24-2.504-11.418-4.694-3.183-2.188-5.633-5.005-7.355-8.447-1.72-3.443-2.58-7.666-2.58-12.673 0-5.005 1.069-9.203 3.207-12.593 2.137-3.389 4.903-6.102 8.29-8.135 3.391-2.035 7.171-3.494 11.345-4.381 4.172-.887 8.342-1.33 12.514-1.33 3.026 0 6.362.157 10.014.469v-1.878zM214.41 99.6778l.865 17.4352c14.135 15.615 19.713 37.729 12.678 58.513-10.503 31.025-45.135 47.335-77.354 36.428-32.219-10.907-49.823-44.9-39.32-75.925 7.059-20.854 25.019-35.058 45.82-38.8202l11.238-13.279c-35.063-.949-68.143 20.8152-79.9788 55.7782-14.542 42.958 8.493 89.572 51.4508 104.114 42.958 14.542 89.572-8.493 104.114-51.451 11.817-34.907-1.178-72.227-29.513-92.7932z" clip-rule="evenodd"/>
  <path fill="#ffffff" fill-rule="evenodd" d="M194.273 151.123l-.595-24.373-.477-14.025-.323-12.15s.067-5.8592-.137-7.2362c-.043-.29-.134-.526-.243-.731-.013-.029-.026-.058-.041-.086-.015-.026-.031-.051-.047-.075-.225-.387-.578-.701-1.035-.856-.468-.158-.951-.119-1.371.062-.009.003-.017.006-.026.01-.05.022-.098.048-.146.074-.199.097-.402.222-.6.415-.999.969-4.504 5.665-4.504 5.665l-7.637 9.4552-8.898 10.851-15.278 19s-7.011 8.75-5.462 19.52c1.549 10.77 9.556 16.017 15.768 18.12 6.212 2.103 15.76 2.799 23.533-4.816 7.774-7.615 7.519-18.824 7.519-18.824z" clip-rule="evenodd"/>
  <path fill="#ffffff" d="M1109 113.996c-8.29 0-15-6.712-15-14.998 0-8.285 6.71-14.998 15-14.998 8.28 0 15 6.713 15 14.998 0 8.286-6.72 14.998-15 14.998zm-12.32-14.998c0 6.796 5.52 12.32 12.32 12.32 6.8 0 12.32-5.524 12.32-12.32s-5.52-12.319-12.32-12.319c-6.8 0-12.32 5.523-12.32 12.319zm19.06 7.784c.09.167.09.368-.01.519-.09.167-.27.268-.45.268h-2.55c-.2 0-.38-.101-.47-.284l-3.24-6.109h-2.6v5.858c0 .301-.23.535-.53.535h-2.25c-.3 0-.53-.234-.53-.535V90.965c0-.302.23-.536.53-.536h4.92c1.76 0 2.53.151 3.18.402 1.9.703 3.07 2.561 3.07 4.837 0 2.06-1.02 3.8-2.65 4.604.05.084.1.167.15.268l3.43 6.242zm-5.3-13.04c-.34-.184-.8-.301-1.96-.301h-2.06v4.703h2.71c1.48 0 2.31-.87 2.31-2.377 0-.971-.33-1.657-1-2.025z" opacity=".3"/>
</svg>
