<?xml version="1.0" encoding="UTF-8"?>
<svg id="Standard" xmlns="http://www.w3.org/2000/svg" viewBox="0 0 691.11 259.45">
  <defs>
    <style>
      .cls-1 {
        fill: #fff;
      }
    </style>
  </defs>
  <g>
    <g>
      <path class="cls-1" d="m204.86,178.16h-17.98v-47.7l-13.1,30.78h-12.32l-13.1-30.78v47.7h-17.01v-71.95h20.83l15.95,35.52,15.9-35.52h20.83v71.95Z"/>
      <path class="cls-1" d="m217.71,178.16v-71.95h48.66v13.72h-30.69v12.61h28.27v13.72h-28.27v18.17h30.69v13.72h-48.66Z"/>
      <path class="cls-1" d="m338.72,172.56c-3.16,1.29-7.26,2.54-12.3,3.77-5.04,1.22-10.01,1.84-14.91,1.84-11.31,0-20.32-3.26-27.04-9.79-6.72-6.52-10.08-15.78-10.08-27.76,0-11.28,3.36-20.31,10.08-27.11,6.72-6.8,15.91-10.2,27.57-10.2,6.03,0,10.92.57,14.69,1.72,3.77,1.14,7.67,2.7,11.7,4.66v16.86h-1.64c-.87-.67-2.12-1.63-3.75-2.87-1.63-1.24-3.21-2.3-4.76-3.16-1.8-1.03-3.89-1.92-6.26-2.66-2.37-.74-4.87-1.11-7.52-1.11-3.09,0-5.91.48-8.46,1.45-2.55.97-4.82,2.45-6.81,4.45-1.9,1.93-3.41,4.38-4.52,7.34-1.11,2.97-1.67,6.41-1.67,10.34,0,8.41,2.11,14.61,6.33,18.6,4.22,4,9.99,5.99,17.3,5.99.64,0,1.4-.02,2.27-.05.87-.03,1.62-.08,2.27-.14v-14.11h-13.96v-13.48h31.46v35.42Z"/>
      <path class="cls-1" d="m445.18,106.21l-18.22,71.95h-19.81l-11.55-44.51-11.21,44.51h-19.81l-18.22-71.95h18.75l9.91,48.28,12.08-48.28h17.93l11.45,48.28,10.44-48.28h18.27Z"/>
      <path class="cls-1" d="m443.29,178.16l24.31-71.95h19.71l24.31,71.95h-18.61l-4.49-14.69h-22.62l-4.49,14.69h-18.12Zm41.27-27.74l-7.35-23.73-7.34,23.73h14.69Z"/>
      <path class="cls-1" d="m585.31,178.16h-22.04l-20.05-26.39h-6.47v26.39h-17.98v-71.95h28.95c3.99,0,7.47.25,10.44.75,2.96.5,5.7,1.54,8.22,3.12,2.58,1.64,4.62,3.73,6.14,6.26,1.51,2.53,2.27,5.74,2.27,9.64,0,5.51-1.24,9.98-3.72,13.41-2.48,3.43-5.8,6.16-9.96,8.19l24.21,30.59Zm-29.09-49.92c0-1.8-.35-3.36-1.04-4.66-.7-1.3-1.85-2.31-3.46-3.02-1.13-.48-2.38-.79-3.77-.92-1.38-.13-3.11-.19-5.17-.19h-6.04v19.38h5.17c2.51,0,4.64-.15,6.4-.46,1.76-.31,3.25-.96,4.47-1.96,1.16-.9,2.02-1.98,2.59-3.24.56-1.26.84-2.9.84-4.93Z"/>
      <path class="cls-1" d="m590.63,178.16v-71.95h48.66v13.72h-30.69v12.61h28.27v13.72h-28.27v18.17h30.69v13.72h-48.66Z"/>
    </g>
    <path class="cls-1" d="m653.25,94.36c.87,0,1.69.17,2.46.49.77.33,1.45.8,2.06,1.4.57.59,1.03,1.26,1.33,2.01.3.75.45,1.55.45,2.4s-.16,1.67-.47,2.43c-.32.76-.78,1.43-1.38,2.01-.59.59-1.29,1.05-2.05,1.36-.77.31-1.57.47-2.39.47s-1.64-.17-2.41-.49c-.76-.33-1.44-.8-2.05-1.41-.59-.59-1.03-1.26-1.34-2.01-.31-.75-.46-1.54-.46-2.36,0-.58.07-1.13.23-1.68.15-.55.38-1.08.69-1.59.57-.96,1.33-1.71,2.25-2.24.94-.54,1.97-.8,3.1-.8m.02,1.06c-.71,0-1.37.12-1.99.37-.62.25-1.17.62-1.66,1.11-.52.51-.91,1.09-1.18,1.74-.28.65-.42,1.32-.42,2.01s.14,1.35.4,1.98c.25.62.63,1.18,1.12,1.67.5.51,1.07.9,1.71,1.17.64.27,1.32.41,2,.41s1.33-.13,1.97-.4c.64-.26,1.23-.65,1.75-1.14.48-.47.86-1.02,1.14-1.65.27-.63.4-1.29.4-1.95,0-.75-.13-1.44-.37-2.07-.26-.63-.62-1.19-1.12-1.69-.52-.52-1.08-.91-1.72-1.18-.63-.26-1.31-.39-2.04-.39m-2.62,1.63h2.73c1,0,1.73.17,2.24.5.5.34.74.83.74,1.5,0,.46-.13.86-.4,1.19-.27.33-.65.55-1.12.67l1.55,3.12h-1.89l-1.33-2.85h-.84v2.85h-1.7v-6.97Zm1.7,1.07v2.02h.84c.5,0,.86-.08,1.09-.24l.35-.75c0-.35-.12-.62-.37-.78-.25-.17-.64-.26-1.15-.26h-.75Z"/>
  </g>
  <path class="cls-1" d="m336.33,25.11c-30.71-6.74-65.77-8.88-102.62-5.26C121,30.92,38.87,90.67,44.92,153.12c4.93,50.81,72.03,86.96,153.09,93.36-15.95-2.49-16-2.5-.08-.02.57.05,1.14.1,1.72.14-63.68-13.74-109-46.98-112.22-89.55-4.78-63.1,80.98-121.46,191.28-131.33,19.7-1.76,38.77-1.94,56.85-.69.26.03.52.05.78.08Z"/>
  <path class="cls-1" d="m478.59,78.17c-8.77-2.6-19.96-4.48-32.21-5.15-8.07-.44-15.75-.32-22.62.29-15.9-22.64-45.09-38.96-87.62-48.25,62.97,4.42,116.49,23.15,142.45,53.11Z"/>
  <path class="cls-1" d="m415.02,216.01c4.36-.34,8.65-.71,12.85-1.14-32.8,18.85-76.5,32.5-128.76,37.14-35.56,3.16-69.54,1.05-99.46-5.41,18.66,1.38,38.05,1.18,57.57-.78,39.46-3.96,74.08-14.25,102.17-28.54,15.78.68,34.98.32,55.63-1.27Z"/>
</svg>