<svg xmlns="http://www.w3.org/2000/svg" viewBox="0 0 357.87415 128.37964">
  <defs/>
  <g fill-rule="evenodd">
    <path fill="#ffffff" d="M16.88801.34661c-.596.164-1.297.304-1.56.31-1.422.034-4.155.958-5.69 1.925-.366.23-.966.574-1.333.763-.367.189-.835.432-1.042.54-.206.108-.375.255-.375.328 0 .199-1 1.148-1.709 1.622-.342.229-.746.679-.898 1-.151.321-.325.621-.386.667-.246.184-1.84 2.75-1.84 2.961 0 .437-.721 2.467-1.316 3.705l-.601 1.25v70.5l.614 1.25c.337.688.816 2 1.064 2.917.493 1.824.909 2.776 1.362 3.114.161.121.481.594.71 1.052.516 1.03 1.186 1.917 1.447 1.917.109 0 .245.15.303.334.059.183.178.333.267.333.088 0 .21.128.27.285.136.354.895 1.036 1.161 1.043.109.003.543.32.966.704.78.71 1.341.985 2.836 1.386.459.123 1.246.388 1.75.59 2.174.87-.434.822 43.917.819 39.918-.002 42.149-.027 43.167-.482.492-.22 1.999-.753 3.395-1.201.899-.288 1.434-.584 1.991-1.102.419-.39.851-.709.96-.709.419 0 2.879-2.723 3.374-3.737.273-.557.691-1.194.93-1.417.238-.222.433-.489.433-.594 0-.104.188-.578.417-1.053.229-.475.416-1.01.416-1.188 0-.363.803-2.652 1.037-2.957.595-.775.624-2.483.621-36.554-.003-34.665-.012-35.128-.693-36.666-.645-1.458-.965-2.339-.965-2.663 0-.408-.91-2.222-1.261-2.513-.131-.109-.239-.302-.239-.428s-.068-.23-.15-.23c-.083 0-.392-.431-.686-.958-.588-1.054-1.124-1.708-1.401-1.709-.228-.001-1.429-1.097-1.429-1.305 0-.085-.132-.204-.292-.262-.16-.059-.592-.291-.958-.516-.367-.226-.854-.501-1.084-.612-.229-.111-.535-.3-.679-.42-.48-.397-1.898-1.05-2.283-1.05-.208-.001-.92-.147-1.583-.326-4.077-1.1-.276-1.013-43.205-.986-36.618.023-38.724.04-39.75.323m128.667-.181c-.413.065-1.088.204-1.5.307-1.89.473-3.682.862-3.973.862-.397 0-2.125.754-2.271.991-.06.096-.61.416-1.224.711-1.168.561-1.194.578-2.085 1.381-.858.775-1.27 1.084-1.443 1.084-.087 0-.239.15-.337.333-.098.183-.271.333-.385.333-.113 0-.617.537-1.119 1.194-.502.656-1.147 1.463-1.434 1.792-.525.602-1.229 1.795-1.229 2.08 0 .085-.289.537-.643 1.006-.639.846-.926 1.657-1.832 5.178-.792 3.082-.775 2.834-.775 11.084 0 8.097.045 8.793.687 10.666.142.413.321 1.088.4 1.5.35 1.842.848 3.34 1.48 4.454.376.661.683 1.278.683 1.37 0 .366.84 1.971 1.401 2.677.328.412.596.809.597.881.001.073.14.335.309.583.169.249.517.771.773 1.16.256.39.57.709.698.709s.281.125.339.279c.189.492 1.407 1.821 2.034 2.221.216.137.659.532.983.877.325.345.783.728 1.02.852.909.477 1.292.715 2.157 1.345.837.61 2.737 1.403 3.399 1.419.279.006.926.27 2.623 1.07l.75.353 33.584.094c29.057.082 33.729.128 34.666.345 1.262.292 2.667.886 2.667 1.127 0 .184 1.013 1.182 1.201 1.184.174.001.966.824.966 1.003 0 .085.14.476.312.868 1.023 2.331 1.299 5.906.688 8.879-.184.891-.334 1.887-.334 2.214 0 1.059-1.135 3.519-1.63 3.531-.117.003-.254.11-.303.238-.137.359-2.209 1.821-2.97 2.097-.591.213-6.399.257-44.18.333l-43.5.087-.75.442-.75.443v7.807c0 8.804.003 8.823 1.335 9.685l.581.376 47.459-.043c43.912-.04 47.496-.064 47.958-.32.528-.293 1.531-.665 3.57-1.324.679-.219 1.318-.474 1.418-.566.417-.379 1.734-1.22 2.512-1.603.899-.443 1.75-1.152 1.75-1.457 0-.105.101-.19.225-.19.123 0 .359-.15.525-.333.166-.183.362-.333.435-.333.229 0 .982-.837.982-1.091 0-.134.077-.243.17-.243.094 0 .256-.187.36-.416.105-.229.277-.417.382-.417.343 0 1.921-2.516 1.921-3.062 0-.149.063-.271.141-.271.399 0 1.11-1.856 1.468-3.832.597-3.3.6-26.779.004-29.598-.359-1.697-1.007-3.404-1.293-3.404-.067 0-.357-.506-.645-1.125-.288-.618-.821-1.406-1.183-1.749-.362-.344-.658-.697-.658-.784 0-.2-1.631-1.842-1.83-1.842-.081 0-.195-.15-.254-.333-.058-.183-.215-.333-.349-.333-.135 0-.285-.107-.335-.237-.05-.13-.517-.443-1.037-.695-.52-.251-1.002-.551-1.071-.666-.218-.361-1.5-.988-3.047-1.489-.822-.267-1.693-.618-1.936-.782-.244-.164-.588-.298-.766-.298-.177 0-.691-.116-1.141-.258-2.069-.653-6.26-.734-37.928-.738-32.042-.004-32.318-.01-33.136-.751-.154-.139-.337-.253-.408-.253-.07 0-.327-.142-.571-.316-.245-.174-.744-.398-1.11-.499-1.16-.318-3.325-2.368-4.066-3.852-.206-.412-.579-1.012-.828-1.333-1.73-2.226-1.578-8.609.256-10.768.398-.468.723-.9.723-.96 0-.712 3.574-3.105 4.638-3.105.117 0 .49-.145.829-.322 1.921-1.003-1.747-.92 44.7-1.012 41.869-.082 42.255-.086 42.829-.416 1.116-.644 1.126-.678.894-3.225-.114-1.252-.211-3.293-.215-4.536-.007-1.992-.354-6.809-.595-8.26-.083-.5-.261-.771-1.162-1.771l-.412-.458-45.545.022c-25.049.012-45.882.076-46.294.142m114.955.169c-.234.183-.465.333-.515.333-.138 0-.829.741-1.065 1.142-.165.28-.208 8.495-.208 39.564 0 41.089-.015 40.114.676 42.655.108.397.259 1.173.337 1.723.29 2.061 1.111 4.2 1.939 5.053.118.121.214.33.214.464 0 .469.858 1.931 1.427 2.43.315.277.574.59.574.695.001.193 1.421 1.774 1.594 1.774.052 0 .462.378.912.84.45.462 1.064.944 1.364 1.071.3.126.841.494 1.202.816.471.422 1.057.706 2.083 1.01.785.233 1.765.543 2.178.69.412.146 1.012.325 1.333.398.321.073.808.236 1.083.362.42.193 6.938.237 40.482.274l39.982.043.543-.414c1.279-.976 1.267-.867 1.21-10.285-.051-8.573-.106-9.296-.702-9.308-.1-.002-.369-.151-.598-.33-.411-.321-.942-.326-35.976-.33-31.454-.003-35.677-.033-36.583-.26-1.534-.384-1.892-.56-2.745-1.346-1.648-1.52-1.997-1.932-2.078-2.452-.046-.291-.202-.941-.348-1.445-.24-.826-.267-4.504-.275-37.167l-.009-36.25-.618-.681c-1.367-1.508-.665-1.402-9.33-1.402-7.407 0-7.674.011-8.083.333m-169.544 18.634c.272.12 1.022.749 1.666 1.398l1.173 1.179v58.761l-.345.472c-.189.26-.389.594-.444.742-.288.777-1.506 1.421-3.063 1.62-2.213.283-64.591.263-66.501-.021-1.95-.29-2.535-.825-3.322-3.035-.284-.8-.364-55.91-.083-57.626.126-.764.311-1.148.916-1.89.417-.512.759-.999.759-1.083 0-.083.106-.151.236-.151s.261-.072.291-.159c.183-.522 67.541-.725 68.717-.207m-79.411 91.533c-.69.058.841.108 3.417.109 3.258.002 4.189-.033 3.083-.118-1.88-.143-4.761-.14-6.5.009m23.046.104c-.387.113-.968.407-1.292.654l-.587.448v15.257l.585.466c.832.663 1.803.963 2.466.762.293-.089.724-.204.96-.255 1.142-.251 1.458-1.147 1.48-4.199.007-1.011.062-1.225.384-1.5.807-.691 1.05-.737 3.842-.737 3.344 0 4.262-.162 6.24-1.099.854-.404 1.628-.735 1.721-.735.438 0 1.655-1.695 1.655-2.305 0-.125.156-.446.347-.714l.347-.487-.347-.716c-.191-.394-.347-.906-.347-1.138 0-.232-.15-.557-.333-.723-.184-.166-.334-.403-.334-.526s-.115-.224-.255-.224-.297-.109-.348-.242c-.051-.133-.348-.326-.66-.429-.312-.103-.627-.294-.701-.425-.229-.41-2.039-.945-3.369-.997-.687-.026-1.025-.017-.75.021 1.26.176 3.19.647 3.417.834.137.114.662.431 1.166.704 2.124 1.153 2.832 3.403 1.733 5.508-.127.244-.231.526-.232.627-.001.306-1.033 1.061-1.692 1.239-.34.091-1.215.461-1.945.822l-1.327.655-3.477.112c-4.856.157-4.947.219-5.133 3.485-.148 2.596-.081 2.423-1.114 2.897-1.381.633-2.993.273-3.471-.776-.265-.582-.229-14.872.039-15.202.626-.771 1.495-.999 3.892-1.019 2.65-.022 2.64-.101-.023-.188-1.141-.038-2.099.017-2.537.145m23.082-.104c-1.144.074-1.34.137-1.75.56-.383.396-.4.446-.101.294.198-.101.392-.278.43-.394.05-.15.732-.234 2.39-.294 1.703-.062 2.054-.106 1.32-.167-.55-.046-1.58-.045-2.289.001m21.087-.006c-2.108.246-2.048-.014-2.048 8.975 0 7.339.006 7.494.348 7.928.561.713 1.201.961 2.196.848 2.429-.275 2.347-.056 2.464-6.616.093-5.235.098-5.293.479-5.699l.385-.41.397.472c.219.26.397.548.397.641 0 .092.412.441.915.775.504.334 1.003.772 1.111.974.232.437 1.007 1.284 1.175 1.284.175 0 .966.824.966 1.007 0 .19 1.672 1.827 1.865 1.827.074 0 .135.093.136.208.001.249.72 1.026 1.559 1.685.333.262.607.562.607.666 0 .305 2.697 2.776 3.333 3.053.674.294 4.389.214 4.989-.107.832-.445.847-.604.806-8.705l-.038-7.55-.087 7.666-.087 7.667-.45.474-.45.473-2.268-.003c-1.836-.002-2.35-.056-2.694-.281-.466-.305-2.511-2.356-3.303-3.311-.274-.331-.592-.602-.706-.602-.115 0-.486-.418-.825-.929-.339-.511-.819-1.033-1.065-1.16-.246-.128-.72-.642-1.053-1.144-.334-.502-.749-.958-.923-1.013-.347-.11-1.513-1.451-1.513-1.74 0-.1-.081-.181-.18-.181-.301 0-1.678-1.209-1.829-1.607-.248-.652-.765-.8-1.217-.348-.584.584-.774 2.327-.774 7.116v4.147l-.431.513c-.614.729-2.684.767-3.485.063l-.5-.439v-15.424l.571-.51.572-.511h2.236c2.281 0 2.938.176 3.399.912.214.34 1.142 1.255 1.274 1.255.074 0 .354.311.624.691.27.38.673.849.896 1.042.224.193.692.635 1.042.982.399.397.636.539.636.381 0-.139-.44-.611-.976-1.049-.537-.438-1.107-1.032-1.267-1.32-.159-.287-.62-.77-1.023-1.072-.404-.303-.734-.608-.734-.678 0-.287-1.119-1.148-1.584-1.219-1.094-.167-2.887-.212-3.868-.097m48.035.006c-.848.067.233.116 2.97.136 4.579.032 5.135.135 5.934 1.098.453.546-.984 1.096-2.942 1.128l-1.795.029 1.583.1c4.303.272 4.832-2.118.553-2.5-1.787-.16-4.219-.156-6.303.009m24.5 0c-.762.06.631.107 3.25.11 3.139.003 4.137-.034 3.167-.12-1.654-.145-4.519-.141-6.417.01m52.583.013c-.654.058.038.1 1.75.105 1.559.005 2.721-.015 2.584-.045-.522-.114-3.295-.153-4.334-.06m32.834-.013c-.933.06.438.105 3.333.107 2.956.003 4.418-.042 3.667-.112-1.488-.141-4.797-.138-7 .005m15.25.046c-.275.105-.748.452-1.051.77l-.551.579.051 7.542.051 7.541.466.487c.832.868 1.087.89 8.534.744l6.833-.135.694-.447c.93-.599.958-.681.376-1.111-1.004-.742-1.783-.846-6.359-.848l-4.289-.002-.526-.469c-.836-.748-.882-2.574-.097-3.864l.557-.917 3.905-.1c4.58-.118 4.794-.163 5.296-1.1.787-1.47.359-1.624-4.707-1.688l-4.35-.055-.625-.604c-.924-.893-.946-2.599-.042-3.321l.583-.465 4.542-.087 4.542-.088-4.611-.037-4.61-.038-.615.597-.615.597.059 1.304c.055 1.196.101 1.344.559 1.778l.5.474 4.357.083c4.975.095 5.359.191 4.773 1.184-.416.704-.475.714-4.834.78l-4.038.062-.594.979c-1.063 1.748-1.032 4.138.063 4.896l.624.433h4.534c5.737 0 7.302.467 5.218 1.556l-.813.426-6.852.029c-9.244.039-8.188 1.158-8.188-8.675v-7.641l.7-.515.701-.516 6.758.108c6.645.106 6.77.115 7.537.498 1.077.538 1.098.662.184 1.088-.511.239-.697.394-.518.433.497.109 1.67-.752 1.488-1.093-.477-.891-1.15-.986-7.767-1.103-3.392-.06-6.429-.138-6.75-.175-.321-.036-.808.021-1.083.126m38.137.028c-1.359.232-1.898.715-1.859 1.663l.028.679.064-.607c.165-1.554 2.748-2.221 3.927-1.013l.615.63.046 5.745.046 5.745.04-5.85.039-5.851-.417-.449c-.661-.714-1.328-.896-2.529-.692m28.613-.058c-.245.069.227.124 1.141.134 1.598.017 2.323.279 2.761 1 .083.137.465.554.847.925.383.371.866 1.012 1.075 1.425.208.412.689 1.094 1.069 1.515.379.421.948 1.197 1.263 1.724.315.527.8 1.195 1.078 1.485.48.5.693.817 1.199 1.78.121.232.451.642.733.912.282.271.613.681.734.913.566 1.079.718 1.302 1.223 1.795.482.471 1.305 1.807 1.591 2.581.254.688-.836 1.326-2.137 1.25-1.367-.079-1.836-.331-2.416-1.301-.791-1.322-2.407-2.828-3.025-2.817-.23.004.511.653.753.659.193.005 1.936 1.881 1.94 2.089.033 1.526 3.673 2.193 4.862.891l.441-.483-.608-1.195c-.334-.657-.876-1.471-1.204-1.808-.328-.337-.766-.941-.973-1.343-.206-.402-.66-1.031-1.009-1.397-.348-.367-.766-.956-.929-1.309-.163-.353-.528-.89-.811-1.194-.283-.305-.59-.665-.682-.8-.091-.136-.403-.585-.692-.998-.289-.413-.572-.89-.628-1.059-.057-.169-.362-.494-.679-.724-.316-.229-.579-.529-.583-.666-.005-.138-.155-.438-.334-.667-.18-.229-.328-.499-.33-.599-.002-.101-.322-.49-.712-.865-.39-.375-.933-.911-1.208-1.192-.275-.281-.725-.545-1-.587-.998-.153-2.343-.189-2.75-.074m19.607-.056c-.105.17 4.603.372 8.691.373 2.819 0 4.849.309 5.535.84.229.178.645.427.924.552.603.272 1.368 1.136 1.511 1.707.367 1.46-.362 3.706-1.214 3.74-.565.023-1.023.832-.673 1.191.118.121.395.52.616.887.221.366.883 1.168 1.47 1.781l1.068 1.115-.116 1.052c-.124 1.123-2.175 3.635-2.968 3.635-.169 0-.465.085-.659.189-.194.103-.732.244-1.197.312l-.845.124.766.021c3.677.1 6.762-4.619 4.237-6.479-.311-.229-.645-.567-.741-.75-.198-.374-.411-.725-.971-1.599-.447-.698-.386-.974.303-1.382 1.165-.688 1.858-3.377 1.072-4.162-.137-.138-.25-.308-.25-.378 0-.219-.884-1.063-1.114-1.063-.121 0-.219-.068-.219-.152 0-.084-.506-.401-1.125-.705l-1.125-.551-5.627-.114c-3.095-.062-5.993-.164-6.441-.226-.451-.062-.855-.043-.908.042m-296.31.163c.484.034 1.234.033 1.667-.001.432-.034.036-.062-.881-.061-.917 0-1.27.028-.786.062m55.027.122c-.919.5-.977.866-1.034 6.611-.06 6.093-.095 6.259-1.105 5.161-.331-.36-.921-.812-1.31-1.006-.406-.201-.877-.618-1.102-.975-.217-.342-.817-.984-1.333-1.426-.517-.441-.94-.887-.94-.989 0-.226-.836-1.121-1.046-1.121-.083 0-.288-.169-.455-.375-.167-.207-.354-.325-.416-.264-.115.114.102.338 1.048 1.081.301.237.664.656.806.932.294.568 1.042 1.279 1.354 1.287.115.003.209.065.209.138 0 .33 1.568 2.034 1.872 2.034.097 0 .536.337.976.748 1.498 1.401 1.652.892 1.795-5.941l.107-5.11.493-.39c.3-.238.821-.429 1.333-.488l.84-.098-.833-.02c-.458-.012-1.025.083-1.259.211m77.092.005c-1.128.593-1.161.733-1.218 5.25-.031 2.448.024 4.621.138 5.427.243 1.724.55 2.262.375.656-.166-1.513-.166-9.707-.001-10.25.332-1.092 1.724-1.404 3.123-.7 1.146.577 1.138.533 1.154 5.9.014 4.22.142 5.265.795 6.467.411.755 1.399 1.833 1.681 1.833.084 0 .407.131.719.292.867.445 6.931.432 7.901-.017 1.32-.612 1.417-.667 1.417-.81 0-.081.187-.348.416-.596.23-.247.417-.509.417-.582 0-.074.146-.337.323-.585.387-.541.674-4.083.682-8.436.006-2.96.007-2.962 1.101-3.558.939-.51 1.665-.478 2.599.114 1.002.635 1.023.783.929 6.563l-.074 4.532-.465.916c-.255.504-.587 1.176-.738 1.492-.282.593-.979 1.326-1.274 1.338-.091.005-.487.305-.878.669-.485.45-1.016.745-1.667.926-1.354.377-1.36.381-.619.396.76.014 1.578-.372 2.389-1.131.306-.285.845-.681 1.198-.88.43-.241.763-.613 1.01-1.127.204-.421.447-.916.541-1.099.094-.184.269-.528.39-.766.564-1.116.85-10.679.339-11.324-.983-1.241-2.953-1.481-4.328-.527l-.791.549v4.354c0 6.891-.581 8.539-3.317 9.413-2.1.672-7.334.317-8.281-.561-.231-.213-.48-.388-.555-.388-.074 0-.344-.302-.6-.671-.837-1.208-.953-1.997-1.08-7.329-.064-2.705-.128-4.926-.142-4.936-1.316-.99-2.686-1.299-3.609-.814m36.88-.128c.392.035.992.035 1.333-.001.341-.036.021-.065-.713-.064-.733 0-1.012.03-.62.065m-203.546.397c-.55.188-1.15.477-1.334.642-.183.165-.835.54-1.448.832-.613.293-1.204.639-1.312.769-.108.131-.295.238-.416.238-.12 0-.263.143-.319.318-.055.174-.21.36-.344.411-.134.051-.244.208-.244.349 0 .14-.066.255-.146.255-.081 0-.309.356-.507.792-.199.435-.577 1.129-.841 1.541-.805 1.258-.737 3.317.161 4.873.366.636.666 1.214.666 1.283 0 .07.132.286.292.481.16.195.479.614.708.932.23.317.567.657.75.756.184.098.559.328.834.511.275.182.738.443 1.03.579.292.136.578.325.637.419.259.419 1.758.999 2.535.981l.798-.018-.75-.146c-.979-.191-1.671-.468-2.084-.833-.183-.163-.52-.376-.75-.475-.229-.099-.684-.347-1.012-.553-.327-.205-.833-.52-1.125-.701-.291-.18-.529-.424-.529-.541 0-.118-.068-.214-.151-.214-.177 0-.832-1.082-1.714-2.834-.93-1.844-.856-3.387.229-4.814.166-.218.307-.518.314-.666.03-.724 2.397-3.299 3.072-3.341.273-.018 1.615-.737 2.044-1.095.219-.184 1.087-.496 1.927-.694 1.351-.319 1.442-.362.779-.37-.413-.005-1.2.145-1.75.333m13.75-.013c.595.173 1.203.318 1.35.321.147.003.47.194.717.423.248.229.54.419.65.423.704.023 2.908 1.53 3.571 2.441.661.909.873 1.261 1.643 2.719.605 1.147.473 3.693-.25 4.834-.146.23-.34.537-.431.683-1.055 1.684-1.867 2.58-2.766 3.052-1.225.643-1.685.909-1.954 1.131-.347.286-1.395.658-2.28.81l-.667.115.772.021c.735.02 2.503-.615 2.728-.98.05-.079.295-.252.545-.383 1.735-.907 2.175-1.259 2.955-2.37.367-.523.835-1.159 1.042-1.414.206-.255.375-.539.375-.63 0-.091.148-.493.329-.892.65-1.433.308-3.948-.69-5.071-.168-.189-.306-.408-.306-.485 0-.719-1.868-2.501-3.546-3.381-.744-.391-1.395-.77-1.445-.843-.157-.226-2.32-.864-2.887-.852-.432.01-.325.074.545.328m44.5-.179c4.957.094 6.337.321 6.331 1.042-.005.69-1.211.869-6.246.927-5.33.062-5.219.04-5.692 1.157-.284.671-.295 2.223-.018 2.601.172.236.208.013.208-1.282 0-2.364-.245-2.257 5.25-2.277 5.702-.02 6.991-.272 6.719-1.313-.228-.871-1.195-1.018-6.432-.98l-4.87.035 4.75.09m33.833-.043c.138.05.456.283.708.518.252.235.459.351.459.258 0-.288-.754-.894-1.094-.881-.236.01-.256.038-.073.105m24.083.287c-.458.22-1.155.707-1.549 1.081-.393.375-.768.681-.833.681-1.064 0-1.429 3.085-.476 4.03 1.781 1.765 3.505 2.815 4.595 2.796.469-.008-.322-.367-1.433-.65-.292-.075-.998-.538-1.57-1.031-1.846-1.589-1.818-1.544-1.812-2.878.006-1.318.05-1.4 1.245-2.337.458-.36.954-.801 1.102-.982.147-.18.785-.498 1.416-.705.886-.29 1.034-.38.649-.391-.275-.009-.875.165-1.334.386m23.5-.043c-.55.191-1.15.476-1.333.635-.183.158-.833.526-1.443.819-.611.292-1.201.64-1.312.774-.112.134-.301.244-.421.244s-.264.143-.319.318c-.056.174-.211.36-.345.411-.134.051-.243.208-.243.349 0 .14-.065.255-.144.255-.079 0-.322.337-.541.75-.219.412-.444.75-.501.75-.321 0-.814 2.047-.829 3.442-.018 1.695.185 2.348 1.005 3.23.931 1 1.01 1.101 1.01 1.3 0 .107.062.195.138.195.076 0 .239.187.362.416.122.23.297.417.389.417.091 0 .285.114.43.254.428.412 1.511 1.079 1.751 1.079.122 0 .325.125.451.277.404.488 1.846 1.054 2.645 1.038l.75-.015-.916-.211c-1.127-.26-1.765-.51-1.915-.752-.063-.101-.407-.302-.766-.445-.359-.144-.653-.328-.653-.41 0-.081-.111-.148-.248-.148-.523 0-3.085-2.574-3.085-3.1 0-.065-.175-.351-.389-.635-.874-1.159-.896-4.149-.041-5.442.237-.357.43-.715.43-.794 0-.08.131-.304.292-.498.16-.195.516-.665.791-1.046.623-.863 2.816-2.319 3.493-2.319.141 0 .257-.058.257-.128 0-.232 1.059-.699 2.334-1.029 1.089-.283 1.164-.325.583-.327-.367-.001-1.117.155-1.667.346m12.5-.284c.092.028.789.185 1.549.349.914.197 1.523.429 1.8.685.23.214.482.388.56.388.185 0 1.763.834 2.524 1.334.632.416 1.681 1.786 2.227 2.911 1.788 3.684.342 7.608-3.618 9.823-.802.449-1.458.879-1.458.957 0 .078-.135.142-.3.142-.165 0-.374.073-.463.163-.089.089-.573.23-1.075.314l-.912.151.786.019c.786.02 2.63-.658 2.63-.966 0-.078.432-.351.959-.607 1.524-.739 3.208-2.353 3.208-3.074 0-.092.065-.167.144-.167.08 0 .38-.525.667-1.168.999-2.233.496-5.312-1.158-7.092-.176-.19-.32-.397-.32-.461 0-.22-1.636-1.61-1.9-1.616-.101-.002-.37-.15-.6-.329-.229-.18-.53-.328-.668-.33-.138-.002-.438-.175-.667-.385-.532-.49-2.465-1.123-3.376-1.106-.388.008-.63.037-.539.065m42.721.132c-.816.661-.804.531-.804 8.545v7.514l.564.615.564.616 1.394-.034 1.395-.034-1.366-.056c-1.289-.052-1.39-.084-1.796-.567l-.431-.512.046-7.713.047-7.713.416-.338c.23-.185.374-.38.321-.433-.052-.053-.21-.003-.35.11m12.613-.034c2.096.281 2.851.583 4.211 1.687 1.692 1.373 1.695 1.377 1.695 2.637 0 1.221-.116 1.438-1.188 2.218-.785.571-2.051 1.906-2.525 2.662l-.29.462.892.871c.49.479 1.124 1.208 1.408 1.621.285.412.735.937 1 1.166.265.23.596.642.734.917.37.736.701 1.298.946 1.606.408.512-.817 1.307-2.046 1.328-.927.015-.959.028-.421.165 1.697.431 3.427-1.011 2.458-2.049-.114-.122-.351-.484-.525-.803-.175-.319-.719-1.006-1.209-1.526-.489-.521-.89-1.028-.89-1.128 0-.101-.453-.632-1.005-1.181-1.133-1.126-1.135-1.238-.055-2.257.308-.29.562-.594.566-.675.003-.081.491-.521 1.083-.978 1.202-.928 1.333-1.239 1.214-2.883-.067-.924-.644-1.869-1.143-1.869-.087 0-.251-.15-.366-.333-.114-.184-.294-.334-.399-.334-.104 0-.305-.174-.445-.388-.343-.524-2.365-1.12-3.7-1.091l-1 .022 1 .133m17.583.21c-.597.2-1.321.533-1.61.739-.288.207-.594.375-.678.375-.379 0-1.46.654-1.092.66.203.004.637-.143.963-.326.327-.184.67-.334.762-.334.093 0 .397-.168.675-.375.279-.206 1.157-.536 1.952-.733 1.185-.294 1.325-.36.778-.365-.367-.003-1.154.158-1.75.359m13.035-.265c.433.046.744.215 1.039.566l.421.5-.362.49c-.199.269-.442.498-.539.507-.098.009-1.152.016-2.344.016h-2.167l1.813.137c.997.076 1.998.184 2.224.241.447.112 1.547-.849 1.547-1.352 0-.534-.935-1.227-1.613-1.198l-.637.028.618.065m71.548.079c-.43.243-.914.781-1.333 1.479-.183.305-.418.696-.522.869-.104.172-.408.55-.676.841-.609.661-1.385 1.818-1.385 2.066 0 .103-.254.399-.564.658-.31.259-.809.883-1.109 1.387-.301.504-.805 1.191-1.122 1.526-.56.593-.803.948-1.235 1.808-.443.881-1.024 1.666-1.231 1.666-.119 0-.264.15-.323.334-.058.183-.178.333-.267.333-.089 0-.301.327-.472.726-.437 1.018-.359 1.004-6.109 1.071-6.536.077-7.464-.113-7.612-1.557l-.067-.657-.028.772c-.033.903.018.952 1.498 1.458 1.076.368 1.265.378 6.25.325 5.586-.059 5.876-.11 6.126-1.07.05-.191.506-.791 1.013-1.333.506-.542 1.154-1.435 1.439-1.985.285-.55.772-1.244 1.082-1.541.31-.298.564-.584.564-.636 0-.053.188-.341.417-.642.229-.3.419-.614.422-.697.007-.218.782-1.067.974-1.067.089 0 .372-.415.629-.923.257-.507.75-1.216 1.096-1.577.346-.36.629-.714.629-.787 0-.073.187-.336.416-.583.23-.247.419-.546.422-.665.01-.381.801-1.133 1.533-1.459.591-.263.641-.317.295-.323-.229-.004-.566.079-.75.183m20.125.294c-.285.362-.368.668-.346 1.283l.03.807.064-.75c.048-.562.196-.887.587-1.292.321-.333.429-.538.281-.532-.132.005-.409.223-.616.484m-281.926.848c-.074.234-.112 3.688-.083 7.675.056 8.005.033 7.83 1.134 8.4.838.433 14.652.117 15.278-.35 1.959-1.462.182-2.052-6.212-2.061l-4.35-.006-.441-.408c-.37-.343-.446-.566-.471-1.375-.037-1.212-.031-1.336.097-2.05l.106-.583-.264.666c-.43 1.084-.196 2.938.451 3.585l.499.499h4.739c4.478 0 4.78.019 5.489.352 1.08.508 1.109.704.163 1.129-1.059.476-1.683.516-8.229.523l-6.741.007-.472-.452-.472-.452-.043-7.762c-.024-4.269-.104-7.571-.178-7.337m-45.16 1.167c-.574.198-1.179.557-1.5.891-.296.309-.801.693-1.122.855-.702.353-1.333.997-1.333 1.36 0 .176.124.103.371-.217.429-.557.716-.797 1.295-1.088.23-.115.683-.457 1.007-.76.659-.613 1.855-1 3.743-1.209l1.167-.129-1.333-.017c-.933-.012-1.622.082-2.295.314m6.545-.241c1.899.162 3.549.636 4.073 1.168.28.286.74.636 1.02.78.77.393 1.559 1.281 1.742 1.959.09.333.314.742.497.908.491.444.494 2.888.004 3.331-.181.164-.377.55-.435.858-.115.614-1.238 1.895-1.661 1.895-.143 0-.599.319-1.013.708-.783.736-.838.754-3.311 1.113-1.393.202-4.141.206-5.416.009-.505-.078-1.271-.194-1.704-.257-.587-.086-.968-.28-1.5-.765-.392-.357-1.02-.788-1.395-.957-.699-.317-1.4-1.21-1.402-1.787-.001-.173-.151-.539-.333-.814-.251-.379-.331-.781-.331-1.667 0-.885.08-1.287.331-1.666.182-.275.328-.65.323-.834-.005-.196-.211.074-.499.655-.498 1.003-.685 2.65-.345 3.02.081.087.345.663.587 1.279.463 1.177 1.053 1.963 1.472 1.963.137 0 .605.331 1.04.737 2.055 1.913 10.788 2.067 12.644.223.3-.299.767-.656 1.037-.793.663-.338 1.336-1.011 1.488-1.489.068-.216.341-.734.605-1.151.739-1.165.7-2.708-.102-4.027-.321-.528-.583-1.049-.583-1.158 0-.226-1.135-1.342-1.366-1.342-.24 0-1.301-.897-1.301-1.1 0-.354-1.716-.777-3.333-.821-.871-.023-1.246-.014-.833.022m22.182.214c-.22.193-.451.352-.514.352-.489 0-.658 2.308-.296 4.058.559 2.705 5.579 2.67 8.378-.058.453-.442.706-.781.809-1.084.062-.183-.159-.012-.491.381-.333.392-.84.822-1.128.955-.569.262-1.141.606-1.274.764-.255.308-.935.461-2.518.568-3.16.213-3.525-.094-3.623-3.051-.089-2.707.389-3.159 3.133-2.963 3.535.252 4.405.596 5.256 2.08.586 1.022.79.851.223-.187-.87-1.597-1.733-1.94-5.221-2.076-2.206-.087-2.355-.072-2.734.261m88.057.06c-1.462.815-1.362.613-.943 1.914.378 1.175.95 1.888 1.497 1.866.229-.009.212-.049-.085-.192-.206-.099-.375-.244-.375-.322 0-.077-.105-.141-.234-.141-.157 0-.274-.29-.352-.875-.065-.481-.176-.981-.246-1.111-.292-.536.886-1.171 2.499-1.348l1.083-.119-1.086-.023c-.846-.019-1.234.059-1.758.351m22.863-.026c-.635.218-1.211.569-1.631.994-.358.361-.723.657-.811.657-.303 0-1.494 1.207-1.494 1.514 0 .17-.166.593-.369.939-.536.912-.539 3.131-.006 4.254.207.434.376.884.376 1 .001.326.908 1.215 1.482 1.453.285.117.517.271.517.341s.15.166.334.214c.183.048.333.204.333.346 0 1.583 10.53 1.468 12.228-.134.315-.297.824-.66 1.133-.806.732-.347 1.251-.916 1.404-1.538.068-.275.26-.8.426-1.166.452-.998.404-2.755-.108-3.917-.273-.621-.405-.793-.41-.535-.003.21.144.676.327 1.035.438.859.44 2.229.004 3.19-.182.4-.332.89-.334 1.089-.005.497-.786 1.383-1.471 1.67-.604.252-.827.411-1.428 1.018-.52.525-2.195.861-4.854.974-1.954.083-2.801.021-5.416-.394-.36-.058-.901-.371-1.414-.82-.457-.4-.949-.727-1.092-.727-.392 0-1.458-1.181-1.579-1.75-.059-.275-.22-.771-.359-1.101-.715-1.701.231-4.943 1.693-5.807.367-.216.967-.67 1.333-1.008.706-.651 2.267-1.109 4.167-1.224.458-.027.196-.061-.583-.074-1.039-.018-1.679.065-2.398.313m6.981-.182c2.119.216 3.171.57 3.899 1.314.239.245.681.547.983.671.302.125.77.497 1.042.826.273.332.492.488.491.352-.002-.313-.968-1.251-1.439-1.397-.196-.061-.608-.372-.916-.691-.762-.789-2.258-1.25-3.953-1.218l-1.274.025 1.167.118m50.638-.036c-1.083.355-1.716 4.036-.695 4.036.077 0 .14.114.14.254 0 1.221 6.664.723 8.709-.651.563-.379.568-.53.041-1.306-.229-.337-.416-.715-.416-.841 0-.268-.741-.99-1.334-1.3-.461-.242-5.808-.4-6.445-.192m20.12.668c-.417.439-.992.962-1.277 1.162-.566.395-1.284 1.841-1.199 2.413.034.229.164.015.38-.625.295-.875.906-1.749 1.222-1.749.066 0 .306-.234.534-.519.449-.562.536-.647 1.165-1.142.267-.21.33-.33.175-.333-.132-.004-.582.353-1 .793m8.325-.561c-1.152.265-1.767.516-1.945.794-.136.215-.544.48-1.412.919-.243.122-.533.334-.646.469-.112.136-.294.247-.405.247-.478 0-1.401 1.538-1.65 2.75-.067.324.042.185.311-.397.228-.493.414-.985.414-1.094 0-.252.769-.974 1.417-1.329 1.251-.687 2.089-1.207 2.448-1.52.388-.338 2.775-.855 4.468-.969.413-.027.113-.057-.666-.065-.78-.008-1.83.08-2.334.195m106.042.333c-.899.973-.746 3.073.291 4.012.627.567 5.759.384 7.334-.262.874-.357 1.031-.819.744-2.186-.426-2.027-.457-2.041-4.49-2.101l-3.337-.05-.542.587m-130.007-.222c.944.101 1.9.269 2.126.375.533.25 1.773 2.665 1.411 2.747-.131.029-.238.115-.238.19 0 .718-5.064 1.447-7.384 1.064-1.611-.266-1.823-4.04-.241-4.299 1.718-.28 2.314-.291 4.326-.077m136.247.002c1.498.261 1.754.518 1.898 1.909.132 1.276.083 1.51-.36 1.747-.617.33-3.282.684-5.136.681l-1.901-.002-.474-.52c-.751-.822-.718-2.917.057-3.558.607-.503 3.725-.639 5.916-.257m-60.04 6.066c0 3.391.023 4.755.05 3.03.027-1.724.027-4.499 0-6.166-.027-1.667-.05-.256-.05 3.136m30.49-4.464c-.265.346-.658.892-.873 1.213-.215.321-.536.734-.713.917-.652.675-.979 1.141-.979 1.396 0 .178.089.13.279-.15.154-.227.568-.732.921-1.122.354-.39.714-.896.8-1.125.087-.228.23-.415.318-.415s.205-.143.26-.318c.056-.175.2-.356.321-.402.292-.112 2.6 1.012 2.605 1.269.002.11.15.388.329.617.18.23.328.548.33.709.002.16.065.291.14.291.074 0 .301.295.503.654.202.36.422.679.489.709.067.03.3.381.517.78l.396.726-.412.411c-.675.675-6.262.796-7.671.167-1.078-.482-1.131-.61-.542-1.31.23-.273.417-.652.417-.844 0-.251-.187-.081-.676.617-.676.965-.617 1.59.15 1.59.085 0 .369.112.632.249.377.197 1.182.249 3.835.25l3.358.001.517-.453c.603-.53.647-.938.173-1.63-.188-.275-.411-.669-.495-.875-.084-.206-.231-.375-.327-.375-.097 0-.252-.169-.346-.375-.094-.206-.354-.675-.576-1.042-.223-.366-.49-.827-.594-1.024-.103-.196-.611-.565-1.128-.82-.517-.255-1.06-.565-1.208-.689-.234-.197-.33-.145-.75.403m-257.982 2.547c.287.317.514.333 4.693.333 5.276 0 5.566.103 4.592 1.625-.238.373-.263.375-4.54.375h-4.301l-.361.584c-.198.321-.326.677-.285.792.044.12.164.019.286-.241l.211-.448 4.286-.052c4.761-.057 4.587-.015 5.199-1.241l.368-.737-.37-.37c-.361-.361-.476-.371-4.851-.419-3.675-.041-4.518-.093-4.683-.292-.111-.133-.279-.242-.373-.242-.095 0-.037.15.129.333m68.417.01c.688.171 1.374.313 1.525.317.321.007 1.692.632 2.342 1.066.247.166.572.276.722.246.969-.198-3.847-1.986-5.256-1.952-.454.011-.306.083.667.323m95.768.587c-.162.423-.112 2.796.065 3.07.11.17.163-.324.164-1.542.003-1.78-.035-2.034-.229-1.528m-89.482 1.763c.88.434 1.409.801 1.481 1.025.06.192.211.45.334.573.604.604.618 3.514.02 4.112-.158.158-.288.357-.288.442 0 .085-.101.155-.224.155s-.36.15-.526.333c-.166.183-.394.333-.508.333-.113 0-.248.109-.299.242-.118.307-1.021.783-1.776.936l-.583.117.683.02c.53.014.845-.103 1.404-.523.396-.298.982-.729 1.301-.958 1.222-.878 2-3.258 1.427-4.367-.127-.248-.232-.54-.232-.65 0-.465-1.208-1.644-2.105-2.055-1.513-.693-1.603-.474-.109.265m-8.278.361c.693.199 1.541.531 1.885.737.344.207.717.375.827.375.111 0 .481.15.824.334.342.183.715.333.83.334.115 0 .434.18.708.4l.499.399-.33.975c-.639 1.887-1.364 2.14-6.168 2.146-4.346.005-5.689.342-5.31 1.33.406 1.057 6.106 1.626 10.894 1.088.68-.076-.733-.131-3.803-.147-6.123-.032-8.118-.54-6.3-1.606l.766-.449 3.652.02c2.982.016 3.785-.03 4.377-.249.398-.148.89-.308 1.094-.357 1.164-.277 1.597-3.551.469-3.551-.075 0-.925-.383-1.891-.851-2.196-1.064-2.914-1.319-3.677-1.303-.511.011-.41.068.654.375m215.327.237c-.186.344-.404.738-.483.875-.82 1.417-.752 3.386.148 4.283l.583.582 3-.073c4.199-.102 4.237-.121 5.324-2.687.258-.607.256-.667-.025-1-.469-.555-1.055-1.105-1.179-1.105-.206 0-2.452-.885-2.536-1-.184-.248-1.728-.5-3.071-.5h-1.423l-.338.625m-133.418.053c-.275.064-.771.125-1.102.136-1.091.036-1.648 1.52-1.648 4.389 0 2.034-.032 2.274-.334 2.547-.183.166-.333.382-.333.48 0 .098.165.013.366-.188.418-.418.598-1.492.62-3.703.017-1.754.368-2.794.996-2.957 1.196-.31 4.061-.01 4.586.479.18.168.415.306.521.306.106 0 .328.15.494.333.166.184.403.334.526.334s.224.079.224.175c0 .258 1.807 2.658 2.002 2.658.091 0 .165.109.165.242s.102.301.227.375c.126.073.344.36.485.636.408.8 1.115 1.416 1.602 1.397.376-.014.39-.031.099-.125-.591-.19-.977-.579-1.817-1.834-.452-.673-.958-1.31-1.125-1.415-.167-.104-.304-.246-.304-.314 0-.325-1.541-2.098-2.07-2.383-.328-.177-.597-.368-.597-.425 0-.145-1.108-.606-2-.831-.412-.104-.825-.243-.917-.309-.091-.066-.391-.068-.666-.003m138.71.479c.482.189 1.053.343 1.268.343.7 0 1.94 1.253 1.776 1.795-.565 1.871-.941 2.29-2.254 2.511-2.944.496-5.56.414-6.309-.198-.621-.507-.709-2.931-.136-3.736.199-.278.361-.574.361-.656 0-.692 3.575-.733 5.294-.059m-117.788-.105c-.018.986 1.678 3.115 2.482 3.115.076 0 .235.117.354.26.118.142.465.364.77.491.305.128.555.305.555.394 0 .206 1.273.618 2.656.86.661.116 2.716.17 5.363.142l4.291-.046.339.408c.44.528.431.66-.074 1.139-.23.218-.379.437-.33.486.171.171.922-.695.922-1.062 0-.761-1.067-1.431-2.053-1.291-3.134.446-9.473.032-10.614-.693-.321-.204-1.183-.734-1.917-1.177-1.363-.825-2.079-1.439-2.089-1.795-.01-.349-.649-1.55-.655-1.231m-4.827.993c-.012.467.752 2.122.98 2.122.068 0 .602.487 1.187 1.083.585.596 1.126 1.084 1.203 1.084.229 0 1.937.842 2.038 1.005.21.339 1.726.861 2.663.917.55.032.813.025.584-.017-.882-.162-2.428-.638-2.667-.823-.45-.347-1.805-1.082-1.995-1.082-.226 0-1.229-.689-1.321-.908-.037-.086-.511-.576-1.053-1.087-.753-.71-1.06-1.147-1.297-1.843-.241-.707-.313-.809-.322-.451m-51.438 2.122c.117.713.879 1.842 1.428 2.115.222.111.669.451.993.756.734.691 2.07 1.331 2.636 1.263.337-.04.216-.12-.559-.375-.544-.178-1.263-.566-1.599-.861-.336-.295-.773-.624-.971-.73-.707-.379-1.044-.764-1.53-1.751-.425-.863-.48-.92-.398-.417m143.468-.042c1.443.028 3.806.028 5.25 0 1.443-.028.262-.05-2.625-.05-2.888 0-4.069.022-2.625.05m-4.959.597c-.275.303-.612.723-.75.934-.137.211-.771.9-1.408 1.531l-1.159 1.147-8.675.029c-11.907.04-11.523.095-11.772-1.679l-.108-.767-.022.784c-.03 1.048.406 1.487 1.737 1.745 1.378.267 18.581.15 19.117-.131.563-.295 2.789-2.692 2.79-3.004.001-.381.658-.77 1.61-.952l.807-.155-.833-.015c-.74-.014-.89.046-1.334.533m24.775 1.812c-.021.792.04 1.015.361 1.334.808.802.832.804 6.698.653l5.5-.142-5.5-.015c-3.025-.007-5.59-.017-5.7-.022-.552-.023-1.133-.878-1.233-1.815l-.102-.943-.024.95m-326.691 1.972c.595.067 2.695.122 4.666.122 1.971 0 4.071-.055 4.667-.122.621-.07-1.369-.122-4.667-.122-3.297 0-5.288.052-4.666.122m139.75.001c1.282.159 7.832.159 9.25-.001.624-.07-1.316-.122-4.584-.122-3.26-.001-5.242.051-4.666.123m30.333-.001c1.539.158 7.729.158 9 .001.577-.072-1.363-.124-4.583-.123-3.246.001-5.095.052-4.417.122m55.25 0c1.454.164 8.704.165 9.75.002.482-.075-1.626-.128-5-.127-3.351.002-5.372.055-4.75.125"/>
    <path fill="#ffffff" d="M8.44301 111.05761c-.84.198-1.708.51-1.927.694-.429.358-1.771 1.077-2.044 1.095-.675.042-3.042 2.617-3.072 3.341-.007.148-.148.448-.314.666-1.085 1.427-1.159 2.97-.229 4.814.882 1.752 1.537 2.834 1.714 2.834.083 0 .151.096.151.214 0 .117.238.361.529.541.292.181.798.496 1.125.701.328.206.783.454 1.012.553.23.099.567.318.75.487 1.491 1.377 15.955 1.407 17.614.037.269-.222.728-.487 1.954-1.131.899-.472 1.711-1.368 2.766-3.052.091-.146.285-.453.431-.683.723-1.141.855-3.687.25-4.834-.77-1.458-.982-1.81-1.643-2.719-.66-.907-2.866-2.417-3.566-2.441-.107-.004-.375-.167-.595-.364-1.311-1.168-11.062-1.661-14.906-.753m25.695-.016c-1.132.639-1.072.181-1.078 8.16-.006 7.99-.024 7.84 1.024 8.442.857.494 1.543.494 2.617.002 1.033-.474.966-.301 1.114-2.897.186-3.266.277-3.328 5.133-3.485l3.477-.112 1.327-.655c.73-.361 1.605-.731 1.945-.822.659-.178 1.691-.933 1.692-1.239.001-.101.105-.383.232-.627 1.099-2.105.392-4.353-1.733-5.509-.504-.274-1.021-.584-1.149-.689-1.096-.898-13.183-1.369-14.601-.569m21.946.1l-.529.473v15.491l.473.453.474.454 6.741-.007c6.546-.007 7.17-.047 8.229-.523.946-.425.917-.621-.163-1.129-.709-.333-1.011-.352-5.489-.352h-4.739l-.496-.496c-.941-.941-.818-3.814.232-5.416l.276-.422h4.295c4.272 0 4.297-.002 4.535-.375.975-1.523.687-1.625-4.617-1.625h-4.416l-.501-.691c-.784-1.083-.647-3.025.27-3.841.28-.248.897-.288 5.148-.338 5.094-.059 6.336-.25 6.208-.953-.145-.793-1.482-.958-8.639-1.07l-6.763-.105-.529.472m21.459.037l-.571.51v15.424l.5.439c.801.704 2.871.666 3.485-.063l.431-.513v-4.147c0-4.789.19-6.532.774-7.116.452-.452.969-.304 1.217.348.151.398 1.528 1.607 1.829 1.607.099 0 .18.081.18.181 0 .289 1.166 1.63 1.513 1.74.174.055.589.511.923 1.013.333.502.807 1.016 1.053 1.144.246.127.726.649 1.065 1.16.339.511.71.929.825.929.114 0 .432.271.706.602.792.955 2.837 3.006 3.303 3.311.344.225.858.279 2.699.281l2.273.003.487-.545.487-.545v-15.211l-.506-.485c-.755-.723-2.511-.798-3.244-.139l-.5.45-.107 5.097c-.143 6.82-.297 7.33-1.795 5.929-.44-.411-.879-.748-.976-.748-.304 0-1.872-1.704-1.872-2.034 0-.073-.094-.133-.209-.133-.268 0-1.028-.754-1.508-1.496-.206-.318-.625-.748-.93-.953-.306-.206-.768-.711-1.029-1.121-.26-.411-.777-.948-1.149-1.194-.371-.245-.675-.498-.675-.561 0-.18-1.057-1.508-1.201-1.508-.13 0-1.06-.919-1.271-1.255-.461-.736-1.118-.912-3.399-.912h-2.236l-.572.511m46.78-.101c-.631.207-1.269.525-1.416.705-.148.181-.644.622-1.102.982-1.195.937-1.239 1.019-1.245 2.337-.006 1.334-.034 1.289 1.812 2.878.572.493 1.278.956 1.57 1.031.291.074.83.249 1.196.389.367.139.939.257 1.271.261.776.009 1.516.276 3.677 1.323.966.468 1.829.851 1.92.851 1.103 0 .643 3.279-.498 3.551-.204.049-.696.209-1.094.357-.592.219-1.395.265-4.377.249l-3.652-.02-.766.449c-.63.369-.726.486-.54.655 1.61 1.465 13.68 1.325 14.252-.165.051-.134.186-.243.299-.243.114 0 .342-.15.508-.333.166-.183.403-.333.526-.333s.224-.07.224-.155c0-.085.13-.284.288-.442.598-.598.584-3.508-.02-4.112-.123-.123-.274-.381-.335-.573-.117-.371-2.658-1.718-3.24-1.718-.173 0-.493-.134-.712-.297-.709-.53-2.025-1-3.893-1.389-2.195-.458-2.464-.657-2.958-2.192-.419-1.301-.519-1.099.943-1.914.637-.355.854-.375 4.137-.375h3.464l.665-.44c.763-.505.722-.631-.424-1.302l-.724-.425-4.304.017c-3.993.015-4.386.044-5.452.393m23.899-.072c-1.279.337-2.334.804-2.334 1.034 0 .07-.116.128-.257.128-.677 0-2.87 1.456-3.493 2.319-.275.381-.631.851-.791 1.046-.161.194-.292.418-.292.498 0 .079-.193.437-.43.794-.855 1.293-.833 4.283.041 5.442.214.284.389.57.389.635 0 .526 2.562 3.1 3.085 3.1.137 0 .248.066.248.146 0 .081.244.243.542.36.298.118.692.34.875.494 1 .838 2.412 1 8.717.998 5.307-.001 7.576-.146 7.941-.508.087-.086.294-.157.459-.157.165 0 .3-.064.3-.142 0-.078.656-.508 1.458-.957 3.96-2.215 5.406-6.139 3.618-9.823-.546-1.125-1.595-2.495-2.227-2.911-.761-.5-2.339-1.334-2.524-1.334-.078 0-.327-.171-.553-.381-1.144-1.061-11.611-1.614-14.772-.781m25.883.053c-.777.523-.773.505-.847 4.835-.115 6.765.412 9.099 2.28 10.098.209.112.654.444.99.738 1.357 1.188 2.095 1.295 8.54 1.233 6.511-.063 6.937-.131 8.195-1.299.39-.362.784-.661.875-.666.295-.012.992-.745 1.274-1.338.151-.316.483-.988.738-1.492l.465-.916.074-4.532c.094-5.78.073-5.928-.929-6.563-.934-.592-1.66-.624-2.599-.114-1.094.596-1.095.598-1.101 3.558-.008 4.353-.295 7.895-.682 8.436-.177.248-.323.511-.323.585 0 .073-.187.335-.417.582-.229.248-.416.515-.416.596 0 .143-.097.198-1.417.81-.97.449-7.034.462-7.901.017-.312-.161-.635-.292-.719-.292-.282 0-1.27-1.078-1.681-1.833-.653-1.202-.781-2.247-.795-6.467-.016-5.367-.008-5.323-1.154-5.9-1.084-.545-1.724-.565-2.45-.076m28.283.076l-.416.45-.047 7.69-.046 7.69.436.518c.421.5.483.519 1.763.519 1.992 0 2.131-.205 2.138-3.147.007-2.763.579-4.35 1.57-4.357.286-.002.801-.07 1.145-.15.344-.08.663-.085.708-.012.045.073.476.225.957.338.849.199 1.789.592 1.959.818.046.061.353.274.683.474.465.283 1.984 2.016 1.984 2.265 0 .027.281.354.625.728.343.373.845 1.046 1.114 1.494.725 1.208 1.103 1.429 2.581 1.508 1.469.078 2.803-.655 2.313-1.27-.245-.308-.576-.87-.946-1.606-.138-.275-.469-.687-.734-.917-.265-.229-.715-.754-1-1.166-.284-.413-.918-1.142-1.408-1.621l-.892-.871.29-.462c.474-.756 1.74-2.091 2.525-2.662 1.072-.78 1.188-.997 1.188-2.218 0-1.26-.002-1.263-1.704-2.645-2.042-1.656-2.407-1.721-10.119-1.785l-6.25-.052-.417.449m31.139-.082c-.795.201-1.673.534-1.952.74-.278.207-.582.375-.675.375-.092 0-.435.15-.762.334-.326.183-.744.333-.928.333-.322 0-1.28.575-1.522.913-.363.507-.895 1.087-.999 1.087-.794 0-1.638 2.35-1.636 4.558.003 2.439.298 3.285 1.586 4.55.574.564 1.071 1.089 1.105 1.167.089.207 1.099.892 1.316.892.184 0 1.535.73 1.975 1.067.941.721 1.879.819 8.577.889l6.474.068.48-.47c.57-.559.583-.678.138-1.212l-.339-.408-4.291.046c-2.647.028-4.702-.026-5.363-.142-1.383-.242-2.656-.654-2.656-.86 0-.089-.25-.266-.555-.394-.305-.127-.652-.349-.77-.491-.119-.143-.278-.26-.354-.26-.49 0-1.674-1.094-2.055-1.898-.994-2.1-.213-6.435 1.159-6.435.111 0 .293-.111.405-.247.113-.135.403-.347.646-.469.809-.409 1.256-.699 1.516-.981.696-.756 1.641-.88 7.008-.923 2.796-.022 5.125-.042 5.177-.044.052-.002.259-.226.46-.499l.366-.495-.487-.546-.488-.546-5.556-.032c-5.227-.031-5.641-.011-7 .333m17.895.129l-.7.515v7.641c0 9.833-1.056 8.714 8.188 8.675l6.852-.029.813-.426c2.084-1.089.519-1.556-5.218-1.556h-4.534l-.624-.433c-1.095-.758-1.126-3.148-.063-4.896l.594-.979 4.038-.062c4.359-.066 4.418-.076 4.834-.78.586-.993.202-1.089-4.773-1.184l-4.357-.083-.5-.474c-.458-.434-.504-.582-.559-1.778l-.059-1.304.615-.597.615-.597h9.072l.867-.432c.986-.491.977-.59-.105-1.131-.767-.383-.892-.392-7.537-.498l-6.758-.108-.701.516m38.231-.267c-1.413.504-1.341.137-1.404 7.133-.081 8.903-.023 9.335 1.306 9.753.825.259.965.262 10.591.23l8.675-.029 1.159-1.147c.637-.631 1.271-1.321 1.408-1.533.138-.212.501-.652.808-.978l.557-.592h13.219l.75.528c.859.607 1.57 1.388 2.161 2.376.58.97 1.049 1.222 2.416 1.301 1.301.076 2.391-.562 2.137-1.25-.286-.774-1.109-2.11-1.591-2.581-.505-.493-.657-.716-1.223-1.795-.121-.232-.452-.642-.734-.913-.282-.27-.612-.68-.733-.912-.506-.963-.719-1.28-1.199-1.78-.278-.29-.763-.958-1.078-1.485-.315-.527-.884-1.303-1.263-1.724-.38-.421-.861-1.103-1.069-1.515-.209-.413-.692-1.054-1.075-1.425-.382-.371-.764-.788-.847-.925-1.046-1.721-6.518-1.041-6.564.815-.003.119-.192.418-.422.665-.229.247-.416.51-.416.583 0 .073-.283.427-.629.787-.346.361-.839 1.07-1.096 1.577-.257.508-.54.923-.629.923-.192 0-.967.849-.974 1.067-.003.083-.193.397-.422.697-.229.301-.417.589-.417.642 0 .052-.254.338-.564.636-.31.297-.797.991-1.082 1.541-.285.55-.933 1.443-1.439 1.985-.507.542-.963 1.142-1.013 1.333-.397 1.524-12.063 1.647-13.735.145-.213-.191-.259-1.201-.305-6.677l-.055-6.453-.604-.625c-.681-.705-1.396-.808-2.605-.378m47.899.34l-.58.598-.059 5.866c-.088 8.8.019 9.691 1.225 10.222.661.291 13.416.002 14.146-.32.355-.157.769-.286.92-.286.768 0 2.815-2.535 2.937-3.635l.116-1.052-1.068-1.115c-.587-.613-1.249-1.415-1.47-1.781-.221-.367-.498-.766-.616-.887-.35-.359.108-1.168.673-1.191.852-.034 1.581-2.28 1.214-3.74-.143-.571-.908-1.435-1.511-1.707-.279-.125-.695-.374-.924-.553-.78-.607-2.73-.812-8.753-.918l-5.67-.1-.58.599m-317.539 1.987c.482.171.875.393.875.493 0 .203 1.061 1.1 1.301 1.1.231 0 1.366 1.116 1.366 1.342 0 .109.262.63.583 1.158.802 1.319.841 2.862.102 4.027-.264.417-.537.935-.605 1.151-.152.478-.825 1.151-1.488 1.489-.27.137-.737.494-1.037.793-1.856 1.844-10.589 1.69-12.644-.223-.435-.406-.903-.737-1.04-.737-.419 0-1.009-.786-1.472-1.963-.242-.616-.506-1.192-.587-1.279-.342-.372-.152-2.019.355-3.064.275-.568.5-1.14.5-1.271 0-.34.65-.992 1.333-1.335.321-.162.826-.546 1.122-.855 1.038-1.081 1.904-1.239 6.461-1.185 3.395.041 4.133.095 4.875.359m24.917.05c1.046.342 1.345.6 1.928 1.67.624 1.146.552 1.625-.386 2.54-2.799 2.728-7.819 2.763-8.378.058-.362-1.75-.193-4.058.296-4.058.063 0 .294-.159.514-.352.529-.465 4.449-.372 6.026.142m114.316-.126c.718.225 1.239.518 1.619.911.308.319.72.63.916.691.446.138 1.437 1.077 1.439 1.364.001.117.189.659.418 1.203.519 1.232.565 2.907.108 3.917-.166.366-.358.891-.426 1.166-.153.622-.672 1.191-1.404 1.538-.309.146-.818.509-1.133.806-1.698 1.602-12.228 1.717-12.228.134 0-.142-.15-.298-.333-.346-.184-.048-.334-.144-.334-.214s-.232-.224-.517-.341c-.574-.238-1.481-1.127-1.482-1.453 0-.116-.169-.566-.376-1-.533-1.123-.53-3.342.006-4.254.203-.346.369-.769.369-.939 0-.307 1.191-1.514 1.494-1.514.088 0 .453-.296.811-.657 1.139-1.15 1.989-1.331 6.303-1.337 3.226-.005 3.824.036 4.75.325m54.642-.008c.593.31 1.334 1.032 1.334 1.3 0 .126.187.504.416.841.527.776.522.927-.041 1.306-2.045 1.374-8.709 1.872-8.709.651 0-.14-.063-.254-.14-.254-1.021 0-.388-3.681.695-4.036.637-.208 5.984-.05 6.445.192m135.707.177c1.115 1.037 1.091 3.358-.04 3.821-1.575.646-6.707.829-7.334.262-1.037-.939-1.19-3.039-.291-4.012l.542-.587 3.337.05c3.298.049 3.343.054 3.786.466m-29.017 1.739c.517.255 1.025.624 1.128.82.104.197.371.658.594 1.024.222.367.482.836.576 1.042.094.206.249.375.346.375.096 0 .243.169.327.375.084.206.307.6.495.875.474.692.43 1.1-.173 1.63l-.517.453-3.358-.001c-2.653-.001-3.458-.053-3.835-.25-.263-.137-.547-.249-.632-.249-.767 0-.826-.625-.15-1.59.372-.531.676-1.091.676-1.245 0-.272.316-.728.979-1.415.177-.183.498-.596.713-.917 1.047-1.562 1.34-1.854 1.623-1.616.148.124.691.434 1.208.689m25.778 4.788c.43.107.82.244.866.306.084.115 2.33 1 2.536 1 .124 0 .71.55 1.179 1.105.281.333.283.393.025 1-1.087 2.566-1.125 2.585-5.324 2.687l-3 .073-.583-.582c-.9-.897-.968-2.866-.148-4.283.079-.137.297-.531.483-.875l.338-.625h1.423c.783 0 1.775.087 2.205.194"/>
  </g>
</svg>
