<svg xmlns="http://www.w3.org/2000/svg" viewBox="0 0 418.83 173.82">
  <defs/>
  <path d="M12.7 173.8H0v-133c10.1-3.2 20.7-4.9 31.4-5 6.9-.1 13.8 1.1 20.3 3.5 5.8 2.1 11.2 5.4 15.7 9.7 4.4 4.2 7.8 9.2 10 14.9 2.4 5.9 3.5 12.3 3.5 18.7 0 8.2-1.4 15.2-4.2 21.1-2.6 5.6-6.4 10.5-11.1 14.5-4.6 3.8-9.9 6.6-15.7 8.3-5.8 1.8-11.9 2.7-18 2.7-3.3 0-6.5-.2-9.7-.7-3.2-.5-6.4-1.2-9.5-2zm53.7-91.5c0-10.6-3-19.2-8.9-25.8-5.9-6.5-14.3-9.8-25-9.8-3.4 0-6.7.2-10.1.6-3.3.4-6.6 1.2-9.7 2.3v64.9c3 1 6 1.8 9.1 2.5 3 .7 6 1 9.1 1 10.9 0 19.5-3.1 25.9-9.3 6.4-6.1 9.6-14.9 9.6-26.4zm40.1 46V0h12.8v128.2h-12.8zm117.7-13.4c-4.1 4.5-9.2 8.1-14.8 10.5-5.6 2.4-12.4 3.6-20.3 3.6-6.6.1-13.2-1.1-19.3-3.8-5.3-2.3-10-5.8-13.7-10.2-3.7-4.3-6.5-9.3-8.2-14.7-1.9-5.6-2.8-11.5-2.8-17.4-.2-7.1 1-14.3 3.3-21 1.9-5.5 5-10.5 9-14.8 3.7-3.8 8.2-6.8 13.2-8.7 5.1-1.9 10.5-2.8 15.9-2.8 13.4 0 23.6 4.1 30.4 12.4 6.8 8.2 10.1 20.2 9.9 36h-68.7c.4 10.4 3.4 18.6 9 24.7 5.6 6.1 13.3 9.2 22.9 9.2 5 .1 10-.8 14.7-2.7 4.6-1.9 8.6-4.8 11.9-8.5zm-10.3-41.6c0-3.6-.6-7.2-1.7-10.6-1.1-3.1-2.7-6-4.9-8.4-2.3-2.5-5.2-4.4-8.3-5.6-7.7-2.8-16.2-2.8-23.9 0-3 1.2-5.8 3-8 5.4-2.2 2.5-4 5.3-5.4 8.3-1.7 3.4-2.7 7.1-3.2 10.9zm96.8-15c-2.8-3.7-6.3-6.7-10.4-8.9-4.1-2-8.7-3-13.2-2.8-6.5 0-11.1 1.2-13.7 3.5-2.6 2.2-4 5.4-3.9 8.8-.1 2.2.6 4.4 1.8 6.2 1.3 1.8 2.9 3.3 4.8 4.4 2.2 1.3 4.5 2.4 6.9 3.2 2.6.9 5.3 1.8 8.2 2.7 3.5 1.1 6.9 2.3 10.4 3.6 3.4 1.2 6.6 2.9 9.5 5 2.8 2 5.2 4.6 7 7.6 1.9 3.4 2.8 7.3 2.7 11.3.1 3.9-.9 7.7-2.7 11.2-1.8 3.3-4.3 6.1-7.3 8.3-3.3 2.4-7 4.1-10.9 5.1-10.8 2.8-22.3 2.2-32.7-1.8-6.1-2.7-11.6-6.8-15.9-11.8l10-8.8c6.7 8.6 15.3 12.8 25.9 12.8 6.9 0 12-1.3 15.4-3.9 3.3-2.6 5-5.7 5-9.3.1-2.5-.5-4.9-1.8-7.1-1.3-2-3-3.6-5-4.9-2.3-1.4-4.7-2.6-7.3-3.4-2.8-.9-5.7-1.8-8.7-2.7-3.5-1-6.9-2.1-10.3-3.3-3.2-1.1-6.3-2.7-9.1-4.7-2.7-1.9-5-4.4-6.6-7.2-1.8-3.4-2.7-7.3-2.6-11.2 0-8.1 2.9-14.3 8.8-18.7 5.9-4.4 13.5-6.6 22.9-6.6 6.1-.1 12.1 1.1 17.7 3.4 5.2 2.2 10.1 6.1 14.9 11.6l-9.4 8.6zm34 70V.2h12.8v128.1zM357.6 81l44-44.4h17.2l-45.1 44 44.9 47.6h-17.8z" fill="#ffffff"/>
  <path fill="#ffffff" d="M151.1 173.8H73.9v-12.1h77.2z"/>
</svg>
