<?xml version="1.0" encoding="UTF-8"?>
<svg id="a" data-name="#Layer 1" xmlns="http://www.w3.org/2000/svg" viewBox="0 0 881.63 381.03">
  <path d="m432.36,146.2c-.38-7.01-2.75-12.52-7.17-16.53-4.37-4.01-10.3-6.01-17.71-6.01s-13.34,2.15-18.09,6.46c-4.79,4.31-7.17,9.67-7.17,16.13,0,5.46,2.04,10.37,6.12,14.73,4.08,4.36,11.58,9.37,22.64,15.03l9.4,4.71c14.34,7.41,24.4,15.13,30.24,23.14,5.84,7.96,8.78,17.63,8.78,28.95,0,14.73-4.98,26.4-14.91,35.07-9.92,8.67-23.26,12.97-40.07,12.97-15.52,0-27.44-4.31-35.84-12.92-8.4-8.62-12.87-21.14-13.43-37.57h25.63v.9c0,8.57,2.09,15.23,6.31,19.94,4.22,4.76,10.11,7.11,17.61,7.11,8.5,0,15.48-2.45,20.94-7.31,5.41-4.91,8.12-11.07,8.12-18.48,0-6.36-1.85-11.72-5.55-16.08-3.7-4.31-12.86-10.22-27.53-17.63l-11.68-6.06c-10.73-5.36-18.8-11.87-24.12-19.49-5.36-7.66-8.02-16.48-8.02-26.45,0-13.63,4.84-24.65,14.48-33.06,9.64-8.42,22.26-12.62,37.93-12.62,14.1,0,25.44,4.01,34.04,11.97,8.54,7.96,13.39,19.04,14.38,33.11h-25.35Zm104.53,107.9h29.91v-126.84h-24.78v-22.24h73.49v22.24h-24.78v126.84h29.91v23.14h-83.74v-23.14h0Zm165.77-149.08h98.55v21.64h-74.91v48.69h65.8v22.84h-65.8v55.9h77.47v23.14h-101.11V105.02Z" style="fill: #fff; fill-rule: evenodd;"/>
  <polygon points="189.55 217.42 180.59 232.36 208.47 242.31 242.32 259.21 211.45 237.33 189.55 217.42" style="fill: #fff; fill-rule: evenodd;"/>
  <polygon points="154.71 232.36 145.75 217.42 123.85 237.33 92.98 259.22 126.83 242.31 154.71 232.36" style="fill: #fff; fill-rule: evenodd;"/>
  <polygon points="158.95 194.13 176.35 194.13 170.55 165.11 167.65 127.38 164.75 165.11 158.95 194.13" style="fill: #fff; fill-rule: evenodd;"/>
  <path d="m188.36,128.03c0,11.46-9.29,20.75-20.75,20.75s-20.75-9.29-20.75-20.75,9.3-20.75,20.75-20.75,20.75,9.29,20.75,20.75Z" style="fill: #fff; fill-rule: evenodd;"/>
  <path d="m232.14,275.65c-9.92-5.73-13.32-18.42-7.59-28.34,5.73-9.93,18.42-13.32,28.34-7.6,9.93,5.74,13.32,18.43,7.59,28.35-5.73,9.92-18.42,13.32-28.34,7.59Z" style="fill: #fff; fill-rule: evenodd;"/>
  <path d="m113.52,257.68c0,11.46-9.3,20.74-20.76,20.74-11.46,0-20.75-9.29-20.74-20.75,0-11.46,9.29-20.76,20.75-20.75,11.46,0,20.75,9.3,20.74,20.76Z" style="fill: #fff; fill-rule: evenodd;"/>
  <path d="m200.94,214.46c-.01,18.38-14.92,33.28-33.3,33.28-18.39,0-33.29-14.92-33.28-33.3,0-18.38,14.92-33.28,33.3-33.28,18.38,0,33.28,14.91,33.28,33.3Z" style="fill: #fff; fill-rule: evenodd;"/>
</svg>