<?xml version="1.0" encoding="utf-8"?>
<svg viewBox="4 3.9055 276 192.0945" xmlns="http://www.w3.org/2000/svg">
  <path d="M0 0 C1.65192422 0.01492869 3.30388396 0.02631276 4.95585632 0.03430176 C9.29528308 0.06478803 13.63255336 0.14331585 17.97113037 0.23193359 C22.40168076 0.3139038 26.83258112 0.35033678 31.26367188 0.390625 C39.95150841 0.47631788 48.63759504 0.61277705 57.32421875 0.78125 C57.68824295 1.42627472 58.05226715 2.07129944 58.42732239 2.73587036 C60.10735745 5.71218347 61.78805023 8.6881247 63.46875 11.6640625 C64.04113403 12.67831299 64.61351807 13.69256348 65.20324707 14.73754883 C72.31176097 27.32170992 79.57099223 39.81662897 86.88671875 52.28125 C87.3046167 52.99394043 87.72251465 53.70663086 88.15307617 54.44091797 C89.81729675 57.26867526 91.50366026 60.05041226 93.32421875 62.78125 C93.00717099 66.92972461 91.31806437 69.8536386 89.18359375 73.3671875 C88.53116699 74.45201416 87.87874023 75.53684082 87.20654297 76.65454102 C86.85879822 77.22552521 86.51105347 77.7965094 86.152771 78.38479614 C84.31711728 81.39974129 82.50524986 84.4289322 80.69140625 87.45703125 C80.13907822 88.37726326 80.13907822 88.37726326 79.57559204 89.31608582 C75.47359658 96.16775502 71.55781003 103.12212651 67.66308594 110.09326172 C66.72568456 111.76808137 65.77230342 113.43412769 64.79815674 115.08784485 C63.27801107 117.71573038 63.27801107 117.71573038 62.32910156 120.42842102 C60.99537699 123.52831135 59.81107189 125.47640026 57.32421875 127.78125 C51.66608818 129.22044121 46.13220306 128.94755044 40.33203125 128.7578125 C38.65913121 128.73914726 36.98617628 128.72491922 35.3132019 128.7149353 C30.92227675 128.67685858 26.53469123 128.5787367 22.14508057 128.46789551 C17.66098211 128.3653589 13.1763406 128.31987648 8.69140625 128.26953125 C-0.09918434 128.16247192 -8.88706674 127.99194523 -17.67578125 127.78125 C-18.07319519 127.05108673 -18.47060913 126.32092346 -18.88006592 125.56863403 C-22.51187294 118.90193373 -26.18840465 112.26434047 -29.92578125 105.65625 C-30.48789307 104.66214111 -31.05000488 103.66803223 -31.62915039 102.64379883 C-35.0788143 96.55860148 -38.56539795 90.49720019 -42.11328125 84.46875 C-42.51619385 83.78111572 -42.91910645 83.09348145 -43.33422852 82.38500977 C-45.05751923 79.45818519 -46.8093094 76.57570075 -48.66015625 73.7265625 C-49.2221875 72.85773438 -49.78421875 71.98890625 -50.36328125 71.09375 C-50.84152344 70.38863281 -51.31976563 69.68351562 -51.8125 68.95703125 C-53.02606596 65.89840573 -52.40509718 63.96772102 -51.67578125 60.78125 C-50.42333984 58.12597656 -50.42333984 58.12597656 -48.82421875 55.421875 C-48.22722168 54.40077637 -47.63022461 53.37967773 -47.01513672 52.32763672 C-46.36689941 51.2398291 -45.71866211 50.15202148 -45.05078125 49.03125 C-44.03484041 47.30043342 -43.01891533 45.56960736 -42.00393677 43.83822632 C-40.94535601 42.03479722 -39.8829249 40.23367309 -38.8203125 38.43261719 C-36.69642096 34.8253307 -34.60354905 31.20074937 -32.51953125 27.5703125 C-32.18450592 26.98697144 -31.84948059 26.40363037 -31.50430298 25.8026123 C-29.89856389 23.00581189 -28.29385021 20.20842318 -26.68896484 17.41113281 C-26.10453613 16.39631836 -25.52010742 15.38150391 -24.91796875 14.3359375 C-24.41120605 13.45405762 -23.90444336 12.57217773 -23.38232422 11.66357422 C-22.81916504 10.71240723 -22.25600586 9.76124023 -21.67578125 8.78125 C-21.31535484 7.74275909 -21.31535484 7.74275909 -20.94764709 6.68328857 C-17.22965798 -2.09208341 -8.10173412 -0.21423388 0 0 Z M-14.67578125 4.78125 C-15.20856186 5.72669426 -15.20856186 5.72669426 -15.75210571 6.6912384 C-28.62992472 29.5344552 -28.62992472 29.5344552 -35.05078125 40.46875 C-35.60121094 41.40912109 -36.15164062 42.34949219 -36.71875 43.31835938 C-37.26917969 44.25873047 -37.81960937 45.19910156 -38.38671875 46.16796875 C-38.91491211 47.07981934 -39.44310547 47.99166992 -39.98730469 48.93115234 C-41.19440575 50.96870263 -42.44208629 52.9824304 -43.71582031 54.97900391 C-44.37549805 56.03394043 -45.03517578 57.08887695 -45.71484375 58.17578125 C-46.3279541 59.1294458 -46.94106445 60.08311035 -47.57275391 61.06567383 C-48.96588205 63.72121278 -48.96588205 63.72121278 -48.00585938 66.36987305 C-47.3474707 67.56350464 -47.3474707 67.56350464 -46.67578125 68.78125 C-46.30952637 69.47605469 -45.94327148 70.17085938 -45.56591797 70.88671875 C-45.16646973 71.57378906 -44.76702148 72.26085937 -44.35546875 72.96875 C-43.90647217 73.74347656 -43.45747559 74.51820312 -42.99487305 75.31640625 C-42.51832275 76.12980469 -42.04177246 76.94320312 -41.55078125 77.78125 C-41.05940674 78.62558594 -40.56803223 79.46992187 -40.06176758 80.33984375 C-36.61307748 86.24321948 -33.05232894 92.0657282 -29.44140625 97.87109375 C-27.75044247 100.65819113 -26.16327396 103.47626349 -24.61328125 106.34375 C-24.15333267 107.16832703 -23.69338409 107.99290405 -23.21949768 108.84246826 C-21.67578125 111.78125 -21.67578125 111.78125 -20.42002869 114.89605713 C-18.82881164 118.40788443 -17.34411016 120.9833517 -14.67578125 123.78125 C-9.347281 125.46287073 -4.18675899 125.18588845 1.3203125 124.953125 C2.87965847 124.93071829 4.43908945 124.91364858 5.99855042 124.90167236 C10.08618043 124.85603875 14.16862064 124.73836891 18.25421143 124.60522461 C22.42982758 124.4820387 26.60629032 124.42757318 30.78320312 124.3671875 C38.96591309 124.23882381 47.14441896 124.03428526 55.32421875 123.78125 C55.6631868 123.15604462 56.00215485 122.53083923 56.35139465 121.88668823 C57.90970534 119.01471076 59.47046001 116.14406828 61.03125 113.2734375 C61.56431763 112.29012451 62.09738525 111.30681152 62.64660645 110.29370117 C65.65759733 104.76029962 68.73155358 99.28470166 72.01171875 93.90625 C72.38659424 93.29145782 72.76146973 92.67666565 73.14770508 92.04324341 C73.4805249 91.49787933 73.81334473 90.95251526 74.15625 90.390625 C76.99548322 85.70933997 79.65591099 80.92794595 82.3190918 76.14501953 C83.84768449 73.40052484 85.36375239 70.7237311 87.14453125 68.1328125 C88.51102623 65.86745481 88.51102623 65.86745481 88.26953125 63.41796875 C86.99953903 59.87563507 85.15954026 56.78475628 83.19921875 53.59375 C82.29150408 52.08551594 81.38536011 50.57633589 80.48046875 49.06640625 C79.9803125 48.23383301 79.48015625 47.40125977 78.96484375 46.54345703 C75.18365095 40.17732379 71.53196684 33.73455593 67.85498047 27.30786133 C66.67717596 25.25800114 65.4826583 23.21761596 64.26843262 21.18911743 C62.32421875 17.78125 62.32421875 17.78125 60.76992798 14.36109924 C58.86360439 10.517853 57.2924539 7.89254342 54.32421875 4.78125 C49.01795099 2.99549741 43.95442519 3.25498137 38.44921875 3.51171875 C36.91373517 3.53600008 35.37815008 3.55448879 33.8425293 3.56745911 C29.82184258 3.6168419 25.80737156 3.74425523 21.78912354 3.88861084 C17.68058388 4.02218797 13.57102773 4.08109228 9.4609375 4.14648438 C1.41252768 4.28544771 -6.6308515 4.50695188 -14.67578125 4.78125 Z " transform="matrix(1, 0, 0, 1, 121.67578124999999, 4.21875)" style="fill: rgb(255, 255, 255);"/>
  <path d="M0 0 C2.97 0 5.94 0 9 0 C9.26554688 0.67546875 9.53109375 1.3509375 9.8046875 2.046875 C10.15789062 2.93890625 10.51109375 3.8309375 10.875 4.75 C11.39707031 6.07257813 11.39707031 6.07257813 11.9296875 7.421875 C12.8646709 9.6740248 13.87780794 11.83649459 15 14 C15.98219627 12.23084525 16.96065359 10.45961431 17.9375 8.6875 C18.75541016 7.20830078 18.75541016 7.20830078 19.58984375 5.69921875 C21.08354232 3.01437784 21.08354232 3.01437784 22 0 C24.97 0 27.94 0 31 0 C31 8.25 31 16.5 31 25 C28.36 25 25.72 25 23 25 C23 20.38 23 15.76 23 11 C20.69 15.29 18.38 19.58 16 24 C13 23 13 23 11.39453125 20.27734375 C10.87246094 19.17519531 10.35039062 18.07304687 9.8125 16.9375 C9.28269531 15.83277344 8.75289062 14.72804687 8.20703125 13.58984375 C7.80871094 12.73519531 7.41039062 11.88054687 7 11 C6.97305149 12.95825873 6.95362782 14.91662226 6.9375 16.875 C6.92589844 17.96554688 6.91429687 19.05609375 6.90234375 20.1796875 C6.80255697 22.95177546 6.80255697 22.95177546 8 25 C5.36 25 2.72 25 0 25 C0 16.75 0 8.5 0 0 Z " transform="matrix(1, 0, 0, 1, 176, 145)" style="fill: rgb(255, 255, 255);"/>
  <path d="M0 0 C2.97 0 5.94 0 9 0 C9.3403125 1.0828125 9.3403125 1.0828125 9.6875 2.1875 C11.27331875 5.58568303 13.26123324 7.45230999 16 10 C17.65 11.65 19.3 13.3 21 15 C21 10.05 21 5.1 21 0 C23.31 0 25.62 0 28 0 C28 8.25 28 16.5 28 25 C25.36 25 22.72 25 20 25 C19.2265625 23.4840625 19.2265625 23.4840625 18.4375 21.9375 C15.76317213 17.23106636 11.9112161 12.45560805 7 10 C7 14.95 7 19.9 7 25 C4.69 25 2.38 25 0 25 C0 16.75 0 8.5 0 0 Z " transform="matrix(1, 0, 0, 1, 223, 145)" style="fill: rgb(255, 255, 255);"/>
  <path d="M0 0 C2.97 0 5.94 0 9 0 C9.33 1.32 9.66 2.64 10 4 C12.22847788 6.47943955 12.22847788 6.47943955 15 9 C16.1080614 10.10025815 17.2122511 11.20442942 18.3125 12.3125 C19.199375 13.199375 20.08625 14.08625 21 15 C21 10.05 21 5.1 21 0 C23.31 0 25.62 0 28 0 C28 8.25 28 16.5 28 25 C25.69 25 23.38 25 21 25 C20.773125 24.443125 20.54625 23.88625 20.3125 23.3125 C18.62254379 20.33495811 16.4763104 18.36375084 14 16 C12.89323224 14.89844056 11.78905944 13.79426776 10.6875 12.6875 C9.800625 11.800625 8.91375 10.91375 8 10 C8 14.95 8 19.9 8 25 C5.36 25 2.72 25 0 25 C0 16.75 0 8.5 0 0 Z " transform="matrix(1, 0, 0, 1, 111.99999999999999, 145)" style="fill: rgb(255, 255, 255);"/>
  <path d="M0 0 C2.97 0 5.94 0 9 0 C9.33 1.32 9.66 2.64 10 4 C11.81042507 6.02225327 13.60349758 7.88637972 15.5625 9.75 C16.08263672 10.25660156 16.60277344 10.76320312 17.13867188 11.28515625 C18.41910084 12.53034405 19.70867554 13.76611502 21 15 C21 10.05 21 5.1 21 0 C23.31 0 25.62 0 28 0 C28 8.25 28 16.5 28 25 C25.36 25 22.72 25 20 25 C18.5 23 18.5 23 17 20 C15.01421096 17.87797179 12.9390745 15.87650706 10.83984375 13.8671875 C9 12 9 12 7 9 C7 14.28 7 19.56 7 25 C4.69 25 2.38 25 0 25 C0 16.75 0 8.5 0 0 Z " transform="matrix(1, 0, 0, 1, 42.999999999999986, 145)" style="fill: rgb(255, 255, 255);"/>
  <path d="M0 0 C0 1.98 0 3.96 0 6 C-5.61 5.67 -11.22 5.34 -17 5 C-17 6.98 -17 8.96 -17 11 C-11.06 10.505 -11.06 10.505 -5 10 C-5 11.98 -5 13.96 -5 16 C-8.96 15.67 -12.92 15.34 -17 15 C-17 16.98 -17 18.96 -17 21 C-11.06 21 -5.12 21 1 21 C1 22.98 1 24.96 1 27 C-7.25 26.67 -15.5 26.34 -24 26 C-23.67 25.34 -23.34 24.68 -23 24 C-22.90427423 22.42937486 -22.8692595 20.8547882 -22.8671875 19.28125 C-22.86589844 18.34925781 -22.86460937 17.41726562 -22.86328125 16.45703125 C-22.86714844 15.48121094 -22.87101562 14.50539062 -22.875 13.5 C-22.87113281 12.52417969 -22.86726563 11.54835937 -22.86328125 10.54296875 C-22.86457031 9.61097656 -22.86585938 8.67898437 -22.8671875 7.71875 C-22.86831543 6.86216797 -22.86944336 6.00558594 -22.87060547 5.12304688 C-22.86413554 2.94508466 -22.86413554 2.94508466 -24 1 C-20.1875152 0.83298447 -16.37500971 0.66644585 -12.5625 0.5 C-11.47388672 0.45230469 -10.38527344 0.40460938 -9.26367188 0.35546875 C-8.22919922 0.31035156 -7.19472656 0.26523438 -6.12890625 0.21875 C-5.17056885 0.17685547 -4.21223145 0.13496094 -3.22485352 0.09179688 C-1 0 -1 0 0 0 Z " transform="matrix(1, 0, 0, 1, 279, 144)" style="fill: rgb(255, 255, 255);"/>
  <path d="M0 0 C0 1.98 0 3.96 0 6 C-5.61 5.67 -11.22 5.34 -17 5 C-17 6.98 -17 8.96 -17 11 C-11.06 10.505 -11.06 10.505 -5 10 C-5 11.98 -5 13.96 -5 16 C-8.96 15.67 -12.92 15.34 -17 15 C-17 17.31 -17 19.62 -17 22 C-11.39 22 -5.78 22 0 22 C0 23.32 0 24.64 0 26 C-7.92 26 -15.84 26 -24 26 C-24 17.75 -24 9.5 -24 1 C-20.225625 0.835 -16.45125 0.67 -12.5625 0.5 C-11.37084229 0.44779297 -10.17918457 0.39558594 -8.95141602 0.34179688 C-7.55427368 0.28088867 -7.55427368 0.28088867 -6.12890625 0.21875 C-5.17056885 0.17685547 -4.21223145 0.13496094 -3.22485352 0.09179688 C-1 0 -1 0 0 0 Z " transform="matrix(1, 0, 0, 1, 98.99999999999999, 144)" style="fill: rgb(255, 255, 255);"/>
  <path d="M0 0 C1.11375 0.495 1.11375 0.495 2.25 1 C1.92 2.65 1.59 4.3 1.25 6 C-1.75 6 -1.75 6 -4.75 4 C-7.26584891 3.75849227 -7.26584891 3.75849227 -9.9375 3.875 C-11.28908203 3.90207031 -11.28908203 3.90207031 -12.66796875 3.9296875 C-13.69857422 3.96449219 -13.69857422 3.96449219 -14.75 4 C-14.75 5.32 -14.75 6.64 -14.75 8 C-13.53763672 8.05607422 -13.53763672 8.05607422 -12.30078125 8.11328125 C-10.69783203 8.21189453 -10.69783203 8.21189453 -9.0625 8.3125 C-8.00675781 8.37050781 -6.95101563 8.42851562 -5.86328125 8.48828125 C-2.44428129 9.05024988 -0.45373863 9.83997481 2.25 12 C3.0803395 14.7095289 2.78713619 17.23345981 2.25 20 C0.43836733 22.67431489 -0.62761077 22.95920359 -3.75 24 C-9.72353387 24.40323698 -15.17103644 24.41252478 -20.75 22 C-20.42 20.35 -20.09 18.7 -19.75 17 C-16.75 17 -16.75 17 -15 18 C-11.84962305 19.40016754 -9.15604523 19.18922474 -5.75 19 C-5.09 18.67 -4.43 18.34 -3.75 18 C-3.42 17.01 -3.09 16.02 -2.75 15 C-3.48605469 14.96261719 -4.22210937 14.92523438 -4.98046875 14.88671875 C-15.57719547 14.17280453 -15.57719547 14.17280453 -19.75 10 C-20.21740995 4.20411664 -20.21740995 4.20411664 -19.75 2 C-14.80504215 -3.20214242 -6.34258972 -1.69135726 0 0 Z " transform="matrix(1, 0, 0, 1, 24.75, 146)" style="fill: rgb(255, 255, 255);"/>
  <path d="M0 0 C-13.5196191 5.27035999 -29.23038834 6.21129419 -43.234375 1.8515625 C-45 1 -45 1 -46 -1 C-44.62708132 -1.48509793 -43.25153297 -1.96275513 -41.875 -2.4375 C-41.10929687 -2.70433594 -40.34359375 -2.97117187 -39.5546875 -3.24609375 C-27.67061936 -6.75316585 -10.61520791 -7.07680527 0 0 Z " transform="matrix(1, 0, 0, 1, 165, 120)" style="fill: rgb(255, 255, 255);"/>
  <path d="M0 0 C-1.07245873 14.74630754 -10.2964763 29.14665436 -21 39 C-21.66 39 -22.32 39 -23 39 C-22.43618135 24.90453373 -14.12231361 12.24993303 -4.625 2.3125 C-2 0 -2 0 0 0 Z " transform="matrix(1, 0, 0, 1, 108.99999999999999, 24.000000000000007)" style="fill: rgb(255, 255, 255);"/>
  <path d="M0 0 C0.66 0 1.32 0 2 0 C-0.98897088 15.54264856 -8.27065192 29.26631087 -20 40 C-20.66 40 -21.32 40 -22 40 C-20.752549 27.02650956 -13.2566421 13.05139504 -4 4 C-3.01 3.67 -2.02 3.34 -1 3 C-0.67 2.01 -0.34 1.02 0 0 Z " transform="matrix(1, 0, 0, 1, 196, 74)" style="fill: rgb(255, 255, 255);"/>
  <path d="M0 0 C10.49913806 8.48007305 17.56968333 18.11002569 21.9375 30.9375 C22.16123291 31.58847656 22.38496582 32.23945312 22.61547852 32.91015625 C23.66756467 36.18769389 24.11566778 37.65299667 23 41 C16.41482139 34.95238699 11.41872704 28.76858495 7 21 C6.51402344 20.16339844 6.02804688 19.32679687 5.52734375 18.46484375 C2.27201888 12.47618488 0.85875844 6.74189466 0 0 Z " transform="matrix(1, 0, 0, 1, 174, 23.000000000000007)" style="fill: rgb(255, 255, 255);"/>
  <path d="M0 0 C11.46625652 9.07745308 20.20565688 21.40731926 23 36 C22.625 38.4375 22.625 38.4375 22 40 C20.30517234 38.35653075 18.6501742 36.68767816 17 35 C16.20335937 34.23236328 16.20335937 34.23236328 15.390625 33.44921875 C6.84147993 24.60595172 1.03776228 12.24559495 0 0 Z " transform="matrix(1, 0, 0, 1, 85.99999999999999, 74)" style="fill: rgb(255, 255, 255);"/>
  <path d="M0 0 C1.05960938 -0.01160156 2.11921875 -0.02320313 3.2109375 -0.03515625 C10.44227926 -0.00857043 16.75777799 1.12465629 23.625 3.375 C22.625 5.375 22.625 5.375 20.82421875 6.2265625 C8.38722149 10.0563066 -8.23191887 10.4952934 -20.375 5.375 C-20.705 4.715 -21.035 4.055 -21.375 3.375 C-14.20691599 0.36947098 -7.714544 -0.08385374 0 0 Z " transform="matrix(1, 0, 0, 1, 140.375, 13.625000000000007)" style="fill: rgb(255, 255, 255);"/>
  <path d="M0 0 C0 1.32 0 2.64 0 4 C-9.09232091 4.02314035 -18.18463173 4.04092375 -27.27697563 4.05181217 C-31.49862582 4.05703728 -35.72025591 4.06412822 -39.94189453 4.07543945 C-44.01376672 4.0862815 -48.08561953 4.09227964 -52.15750504 4.09487724 C-53.71328156 4.09672911 -55.26905698 4.10034518 -56.82482529 4.10573006 C-58.99896307 4.11295795 -61.17302016 4.1139902 -63.34716797 4.11352539 C-65.20581985 4.11685631 -65.20581985 4.11685631 -67.10202026 4.12025452 C-70 4 -70 4 -72 3 C-72 2.34 -72 1.68 -72 1 C-63.05533304 0.86936036 -54.11066271 0.7389546 -45.16598797 0.60884857 C-41.01275656 0.54842978 -36.85952637 0.48793001 -32.70629883 0.42724609 C-28.69926537 0.36870122 -24.69222889 0.31036786 -20.6851902 0.25218201 C-19.15536196 0.22993016 -17.62553484 0.20760172 -16.09570885 0.18519592 C-13.95532896 0.15386097 -11.81494531 0.12279676 -9.67456055 0.09179688 C-8.45544479 0.07403198 -7.23632904 0.05626709 -5.98027039 0.03796387 C-3.98696847 0.0125724 -1.99346363 0 0 0 Z " transform="matrix(1, 0, 0, 1, 179, 128)" style="fill: rgb(255, 255, 255);"/>
  <path d="M0 0 C0.99226852 7.27663584 -2.15702336 12.94668386 -6 19 C-8.2219382 21.47955422 -10.23446331 23.08539768 -13 25 C-13.66 25 -14.32 25 -15 25 C-15.60937426 17.8398524 -13.58367837 12.41229683 -9.24609375 6.68359375 C-3.51900716 0 -3.51900716 0 0 0 Z " transform="matrix(1, 0, 0, 1, 116.99999999999999, 38.00000000000001)" style="fill: rgb(255, 255, 255);"/>
  <path d="M0 0 C0.66 0 1.32 0 2 0 C2 0.66 2 1.32 2 2 C2.74765625 2.22816406 3.4953125 2.45632812 4.265625 2.69140625 C7.57701599 4.27614337 8.73377786 5.89978478 10.75 8.9375 C11.34296875 9.81277344 11.9359375 10.68804687 12.546875 11.58984375 C14.65167355 15.08086715 15.12042598 17.69060726 15.0625 21.6875 C15.05347656 22.49574219 15.04445312 23.30398437 15.03515625 24.13671875 C15.02355469 24.75160156 15.01195312 25.36648437 15 26 C7.43455759 22.2172788 3.54311179 16.12908357 0.6796875 8.37890625 C-0.14040006 5.50859977 -0.31229476 2.96680021 0 0 Z " transform="matrix(1, 0, 0, 1, 166, 37.00000000000001)" style="fill: rgb(255, 255, 255);"/>
  <path d="M0 0 C0.66588293 7.82412446 -2.05310914 13.86671963 -6.9375 19.9375 C-9.35113819 22.59065954 -11.46496737 24.06425607 -15 25 C-14.61227931 16.98710576 -12.75809141 10.06520426 -7.18359375 4.03515625 C-2.63573529 0 -2.63573529 0 0 0 Z " transform="matrix(1, 0, 0, 1, 181, 75)" style="fill: rgb(255, 255, 255);"/>
  <path d="M0 0 C6.20743949 2.10114361 9.71775845 6.30837419 13.11328125 11.80078125 C15.28613635 16.28036405 15.25508319 20.15341943 15 25 C9.08621508 22.59068022 4.91619274 17.53071037 2 12 C1.09925836 8.02554114 0.49722502 4.0432245 0 0 Z " transform="matrix(1, 0, 0, 1, 101.99999999999999, 75)" style="fill: rgb(255, 255, 255);"/>
  <path d="M0 0 C0.6909375 -0.020625 1.381875 -0.04125 2.09375 -0.0625 C7.19852042 -0.10088173 10.67946746 0.97669847 15.25 3.25 C13.18929649 5.70699265 11.79897416 7.08932464 8.6875 8 C6.9859375 8.12375 6.9859375 8.12375 5.25 8.25 C4.40824219 8.31316406 3.56648438 8.37632813 2.69921875 8.44140625 C-3.9815827 8.72785832 -8.02859823 7.70443126 -13.75 4.25 C-9.75814729 -0.12202916 -5.62809279 0.04108097 0 0 Z " transform="matrix(1, 0, 0, 1, 140.75, 27.750000000000007)" style="fill: rgb(255, 255, 255);"/>
  <path d="M0 0 C0.67740234 -0.01160156 1.35480469 -0.02320312 2.05273438 -0.03515625 C7.14567537 -0.00585841 10.58754021 1.16960912 15.0625 3.375 C11.3695646 7.61503694 8.68173785 8.18944092 3.1953125 8.578125 C-2.97671433 8.67431243 -7.54163466 8.49261109 -12.9375 5.375 C-13.2675 4.715 -13.5975 4.055 -13.9375 3.375 C-9.24146468 0.60573112 -5.35842974 -0.09125046 0 0 Z " transform="matrix(1, 0, 0, 1, 140.9375, 101.625)" style="fill: rgb(255, 255, 255);"/>
  <path d="M0 0 C3.3 5.94 6.6 11.88 10 18 C32.77 18.33 55.54 18.66 79 19 C79 19.33 79 19.66 79 20 C56.23 20 33.46 20 10 20 C10 20.66 10 21.32 10 22 C10.66 22.33 11.32 22.66 12 23 C10.35 23 8.7 23 7 23 C3 15.66666667 -1 8.33333333 -5 1 C-2 0 -2 0 0 0 Z " transform="matrix(1, 0, 0, 1, 96.99999999999999, 109)" style="fill: rgb(255, 255, 255);"/>
  <path d="M0 0 C2.97 0 5.94 0 9 0 C9.33 2.64 9.66 5.28 10 8 C9.34 8 8.68 8 8 8 C7.67 13.61 7.34 19.22 7 25 C4.69 25 2.38 25 0 25 C0 16.75 0 8.5 0 0 Z " transform="matrix(1, 0, 0, 1, 223, 145)" style="fill: rgb(255, 255, 255);"/>
  <path d="M0 0 C0 1.98 0 3.96 0 6 C-5.61 5.67 -11.22 5.34 -17 5 C-17 6.98 -17 8.96 -17 11 C-11.06 10.505 -11.06 10.505 -5 10 C-5 11.98 -5 13.96 -5 16 C-8.63 15.67 -12.26 15.34 -16 15 C-16 14.67 -16 14.34 -16 14 C-12.7 14 -9.4 14 -6 14 C-6 13.34 -6 12.68 -6 12 C-10.29 12 -14.58 12 -19 12 C-19 10.68 -19 9.36 -19 8 C-19.66 7.67 -20.32 7.34 -21 7 C-20.90460938 7.89203125 -20.80921875 8.7840625 -20.7109375 9.703125 C-20.60007812 10.87359375 -20.48921875 12.0440625 -20.375 13.25 C-20.25898438 14.41015625 -20.14296875 15.5703125 -20.0234375 16.765625 C-19.99971404 20.0394627 -20.45950401 21.23446795 -22 24 C-22.02505615 23.37432129 -22.0501123 22.74864258 -22.07592773 22.10400391 C-22.19175273 19.27745381 -22.31453985 16.45124831 -22.4375 13.625 C-22.47681641 12.64015625 -22.51613281 11.6553125 -22.55664062 10.640625 C-22.59853516 9.69960937 -22.64042969 8.75859375 -22.68359375 7.7890625 C-22.72025146 6.91975098 -22.75690918 6.05043945 -22.79467773 5.15478516 C-22.87401544 2.9516738 -22.87401544 2.9516738 -24 1 C-20.1875152 0.83298447 -16.37500971 0.66644585 -12.5625 0.5 C-11.47388672 0.45230469 -10.38527344 0.40460938 -9.26367188 0.35546875 C-8.22919922 0.31035156 -7.19472656 0.26523438 -6.12890625 0.21875 C-5.17056885 0.17685547 -4.21223145 0.13496094 -3.22485352 0.09179688 C-1 0 -1 0 0 0 Z " transform="matrix(1, 0, 0, 1, 279, 144)" style="fill: rgb(255, 255, 255);"/>
  <path d="M0 0 C2.64 0 5.28 0 8 0 C8 8.25 8 16.5 8 25 C5.36 25 2.72 25 0 25 C0 16.75 0 8.5 0 0 Z " transform="matrix(1, 0, 0, 1, 31, 145)" style="fill: rgb(255, 255, 255);"/>
  <path d="M0 0 C2.64 0 5.28 0 8 0 C7.67 8.25 7.34 16.5 7 25 C5.02 25 3.04 25 1 25 C0.67 16.75 0.34 8.5 0 0 Z " transform="matrix(1, 0, 0, 1, 211, 145)" style="fill: rgb(255, 255, 255);"/>
  <path d="M0 0 C1.11375 0.495 1.11375 0.495 2.25 1 C1.92 2.65 1.59 4.3 1.25 6 C-1.75 6 -1.75 6 -4.75 4 C-7.13147046 3.79557363 -7.13147046 3.79557363 -9.6875 3.9375 C-12.93783214 4.05025662 -15.62539312 3.93520716 -18.75 3 C-18.09 5.31 -17.43 7.62 -16.75 10 C-15.76 9.67 -14.77 9.34 -13.75 9 C-12.01675881 9.08461492 -10.28607188 9.23604355 -8.5625 9.4375 C-7.66144531 9.53933594 -6.76039062 9.64117187 -5.83203125 9.74609375 C-5.14496094 9.82988281 -4.45789062 9.91367188 -3.75 10 C-6.75 12 -6.75 12 -10.75 12 C-8.44 12.33 -6.13 12.66 -3.75 13 C-3.75 13.66 -3.75 14.32 -3.75 15 C-5.8560986 14.74462428 -7.95988754 14.47014626 -10.0625 14.1875 C-11.23425781 14.03667969 -12.40601563 13.88585937 -13.61328125 13.73046875 C-16.77411958 12.99438311 -17.9812016 12.67188209 -19.75 10 C-20.18359375 8.0625 -20.18359375 8.0625 -20.1875 6 C-20.20683594 5.319375 -20.22617187 4.63875 -20.24609375 3.9375 C-19.75 2 -19.75 2 -18.08984375 0.26953125 C-12.75244553 -2.62638598 -5.66596302 -1.51092347 0 0 Z " transform="matrix(1, 0, 0, 1, 24.75, 146)" style="fill: rgb(255, 255, 255);"/>
  <path d="M0 0 C0.78503906 0.01417969 1.57007812 0.02835938 2.37890625 0.04296875 C3.55259766 0.05263672 3.55259766 0.05263672 4.75 0.0625 C6.94140625 0.23046875 6.94140625 0.23046875 9.94140625 1.23046875 C9.61140625 2.22046875 9.28140625 3.21046875 8.94140625 4.23046875 C5.97140625 3.90046875 3.00140625 3.57046875 -0.05859375 3.23046875 C-0.38859375 3.89046875 -0.71859375 4.55046875 -1.05859375 5.23046875 C2.24140625 5.89046875 5.54140625 6.55046875 8.94140625 7.23046875 C9.94140625 12.23046875 9.94140625 12.23046875 8.78515625 14.0234375 C6.50034649 15.51921338 5.15576151 15.60177978 2.44140625 15.54296875 C1.66796875 15.53910156 0.89453125 15.53523437 0.09765625 15.53125 C-2.05859375 15.23046875 -2.05859375 15.23046875 -5.05859375 13.23046875 C-4.06859375 12.24046875 -3.07859375 11.25046875 -2.05859375 10.23046875 C-1.72859375 10.56046875 -1.39859375 10.89046875 -1.05859375 11.23046875 C1.26958589 11.59807606 3.60324475 11.93288456 5.94140625 12.23046875 C5.94140625 11.24046875 5.94140625 10.25046875 5.94140625 9.23046875 C4.02328125 9.29234375 4.02328125 9.29234375 2.06640625 9.35546875 C-0.11328125 9.42578125 -0.11328125 9.42578125 -2.05859375 9.23046875 C-4.05859375 7.23046875 -4.05859375 7.23046875 -4.30859375 4.73046875 C-3.99165578 1.56108907 -3.25917075 0.3648787 0 0 Z " transform="matrix(1, 0, 0, 1, 101.05859374999999, 179.76953125)" style="fill: rgb(255, 255, 255);"/>
  <path d="M0 0 C0.89847656 0.00257813 1.79695313 0.00515625 2.72265625 0.0078125 C3.61855469 0.00523437 4.51445313 0.00265625 5.4375 0 C7.78515625 0.1328125 7.78515625 0.1328125 9.78515625 1.1328125 C9.78515625 2.1228125 9.78515625 3.1128125 9.78515625 4.1328125 C6.81515625 3.8028125 3.84515625 3.4728125 0.78515625 3.1328125 C0.45515625 3.7928125 0.12515625 4.4528125 -0.21484375 5.1328125 C0.41164063 5.17019531 1.038125 5.20757812 1.68359375 5.24609375 C2.50085938 5.31183594 3.318125 5.37757813 4.16015625 5.4453125 C5.37832031 5.53232422 5.37832031 5.53232422 6.62109375 5.62109375 C8.78515625 6.1328125 8.78515625 6.1328125 10.78515625 9.1328125 C10.59765625 11.1953125 10.59765625 11.1953125 9.78515625 13.1328125 C6.75971291 15.14977472 6.17448243 15.39092346 2.78515625 15.3203125 C2.10453125 15.31386719 1.42390625 15.30742187 0.72265625 15.30078125 C-1.21484375 15.1328125 -1.21484375 15.1328125 -4.21484375 14.1328125 C-3.88484375 13.1428125 -3.55484375 12.1528125 -3.21484375 11.1328125 C0.08515625 11.4628125 3.38515625 11.7928125 6.78515625 12.1328125 C6.78515625 11.1428125 6.78515625 10.1528125 6.78515625 9.1328125 C4.86703125 9.1946875 4.86703125 9.1946875 2.91015625 9.2578125 C0.73046875 9.328125 0.73046875 9.328125 -1.21484375 9.1328125 C-3.21484375 7.1328125 -3.21484375 7.1328125 -3.40234375 4.0703125 C-3.15461096 0.18916538 -3.15461096 0.18916538 0 0 Z " transform="matrix(1, 0, 0, 1, 84.21484374999999, 179.8671875)" style="fill: rgb(255, 255, 255);"/>
  <path d="M0 0 C0.78503906 0.00515625 1.57007813 0.0103125 2.37890625 0.015625 C3.55259766 0.00789062 3.55259766 0.00789062 4.75 0 C6.94140625 0.265625 6.94140625 0.265625 9.94140625 2.265625 C9.61140625 2.925625 9.28140625 3.585625 8.94140625 4.265625 C5.97140625 3.935625 3.00140625 3.605625 -0.05859375 3.265625 C-0.38859375 3.925625 -0.71859375 4.585625 -1.05859375 5.265625 C0.92708333 5.4609375 2.91276042 5.65625 4.8984375 5.8515625 C6.94140625 6.265625 6.94140625 6.265625 9.94140625 8.265625 C9.19140625 13.015625 9.19140625 13.015625 6.94140625 15.265625 C4.84765625 15.49609375 4.84765625 15.49609375 2.44140625 15.453125 C1.2503125 15.44345703 1.2503125 15.44345703 0.03515625 15.43359375 C-2.05859375 15.265625 -2.05859375 15.265625 -4.05859375 14.265625 C-4.05859375 13.275625 -4.05859375 12.285625 -4.05859375 11.265625 C-0.75859375 11.595625 2.54140625 11.925625 5.94140625 12.265625 C5.94140625 11.275625 5.94140625 10.285625 5.94140625 9.265625 C4.30171875 9.3275 4.30171875 9.3275 2.62890625 9.390625 C-1.05859375 9.265625 -1.05859375 9.265625 -4.05859375 7.265625 C-4.37109375 4.765625 -4.37109375 4.765625 -4.05859375 2.265625 C-2.05859375 0.265625 -2.05859375 0.265625 0 0 Z " transform="matrix(1, 0, 0, 1, 213.05859375, 179.734375)" style="fill: rgb(255, 255, 255);"/>
  <path d="M0 0 C2.5288437 1.14094315 4.66373928 2.47427871 7 4 C2.24137931 8.91724138 2.24137931 8.91724138 -2.75 9.25 C-6.78140986 9.22057365 -9.52116449 8.08730131 -13 6 C-13 5.01 -13 4.02 -13 3 C-8.44853747 0.33572925 -5.2699494 -0.64718677 0 0 Z " transform="matrix(1, 0, 0, 1, 145, 40.99999999999999)" style="fill: rgb(255, 255, 255);"/>
  <path d="M0 0 C4.36953413 1.01617073 7.2933215 2.46857905 10.09765625 6.0703125 C11.8642567 9.84823727 11.36156089 13.93444867 11 18 C7.88871768 17.42115678 5.67327576 16.72720741 3.48828125 14.3671875 C0.11080046 9.43161386 -0.52814219 5.91519254 0 0 Z " transform="matrix(1, 0, 0, 1, 156, 47.99999999999999)" style="fill: rgb(255, 255, 255);"/>
  <path d="M 67 180 C 68.65 180 70.3 180 72 180 C 74.31 184.95 76.62 189.9 79 195 C 77.35 195 75.7 195 74 195 C 73.67 194.01 73.34 193.02 73 192 C 70.69 192 68.38 192 66 192 C 65.67 192.99 65.34 193.98 65 195 C 63.68 194.67 62.36 194.34 61 194 C 61.349 193.325 61.699 192.649 62.059 191.953 C 62.514 191.061 62.969 190.169 63.438 189.25 C 63.89 188.368 64.342 187.487 64.809 186.578 C 65.835 184.358 66.515 182.386 67 180 Z M 68.787 184.021 C 68.787 184.021 67.996 188.929 67.95 188.999 C 68.03 188.983 71.86 189 71.86 189 C 71.86 189 71.849 186.017 71.849 186 C 71.849 185.983 71 184 71 184 L 68.787 184.021 Z M 67.95 188.999 C 67.949 189 67.949 189 67.949 189 C 67.949 189 67.95 189 67.95 188.999 Z" style="fill: rgb(255, 255, 255);"/>
  <path d="M0 0 C2.97 0 5.94 0 9 0 C10 4 10 4 10 7 C8.68 7.33 7.36 7.66 6 8 C6 13.28 6 18.56 6 24 C4.68 24 3.36 24 2 24 C2 16.41 2 8.82 2 1 C1.34 0.67 0.68 0.34 0 0 Z " transform="matrix(1, 0, 0, 1, 111.99999999999999, 145)" style="fill: rgb(255, 255, 255);"/>
  <path d="M0 0 C0.44365036 8.72512369 0.44365036 8.72512369 -3 13 C-7.32432432 17 -7.32432432 17 -11 17 C-11.315109 11.7481833 -10.8689708 8.45185123 -8 4 C-3.78947368 0 -3.78947368 0 0 0 Z " transform="matrix(1, 0, 0, 1, 167, 72)" style="fill: rgb(255, 255, 255);"/>
  <path d="M0 0 C0.37964752 4.74559401 0.48228172 8.06988525 -1.75 12.375 C-3.74178325 14.69874713 -5.36154827 16.46799577 -8 18 C-8.99 18 -9.98 18 -11 18 C-11.41859743 11.93033732 -11.14344799 8.79767662 -7 4 C-1.63157895 0 -1.63157895 0 0 0 Z " transform="matrix(1, 0, 0, 1, 126.99999999999999, 47.99999999999999)" style="fill: rgb(255, 255, 255);"/>
  <path d="M0 0 C3.1875 1.375 3.1875 1.375 5 3 C5 3.66 5 4.32 5 5 C-0.01052446 8.08339967 -4.25107189 8.82429484 -10 8 C-13.0625 6.5 -13.0625 6.5 -15 5 C-12.73075252 -1.80774243 -6.01617395 -0.58844329 0 0 Z " transform="matrix(1, 0, 0, 1, 147, 88)" style="fill: rgb(255, 255, 255);"/>
  <path d="M0 0 C4.83766699 0.41465717 6.85646376 2.4198615 10 6 C11.20272819 8.40545638 11.10071472 9.94996953 11.0625 12.625 C11.05347656 13.44226563 11.04445313 14.25953125 11.03515625 15.1015625 C11.02355469 15.72804688 11.01195313 16.35453125 11 17 C7.20855209 16.13830729 5.32146422 15.35621711 2.6875 12.4375 C0.63148505 8.2493214 0.20500426 4.61259591 0 0 Z " transform="matrix(1, 0, 0, 1, 115.99999999999999, 72)" style="fill: rgb(255, 255, 255);"/>
  <path d="M0 0 C4.62 0 9.24 0 14 0 C14 0.66 14 1.32 14 2 C10.7 2.33 7.4 2.66 4 3 C3.67 3.99 3.34 4.98 3 6 C5.64 6 8.28 6 11 6 C10.67 6.99 10.34 7.98 10 9 C7.69 8.67 5.38 8.34 3 8 C3 9.32 3 10.64 3 12 C6.96 12 10.92 12 15 12 C15 12.99 15 13.98 15 15 C10.05 15 5.1 15 0 15 C0 10.05 0 5.1 0 0 Z " transform="matrix(1, 0, 0, 1, 192, 180)" style="fill: rgb(255, 255, 255);"/>
  <path d="M0 0 C0.99 0.66 1.98 1.32 3 2 C2.67 2.99 2.34 3.98 2 5 C1.1646875 4.505 1.1646875 4.505 0.3125 4 C-2.35263324 2.84750995 -4.12393149 2.69725595 -7 3 C-9.26839983 4.83265325 -9.26839983 4.83265325 -9.1875 7.5625 C-9.27003323 9.94689723 -9.27003323 9.94689723 -8 11 C-5.32461085 11.04315144 -2.67305179 11.04680441 0 11 C0.99 11 1.98 11 3 11 C3 11.99 3 12.98 3 14 C-1.34008426 15.44669475 -5.4691351 15.65256319 -10 15 C-13.1664051 12.43671968 -13.84859114 10.92737927 -14.5 6.9375 C-14 4 -14 4 -12.625 1.625 C-8.64499595 -0.83881203 -4.57011742 -0.65614374 0 0 Z " transform="matrix(1, 0, 0, 1, 146, 180)" style="fill: rgb(255, 255, 255);"/>
  <path d="M0 0 C2.31 0 4.62 0 7 0 C6.67 7.92 6.34 15.84 6 24 C0.66666667 21.33333333 0.66666667 21.33333333 -1 18 C-1.66 18 -2.32 18 -3 18 C-3 17.34 -3 16.68 -3 16 C-1.68 16.33 -0.36 16.66 1 17 C0.67 11.39 0.34 5.78 0 0 Z " transform="matrix(1, 0, 0, 1, 133, 145)" style="fill: rgb(255, 255, 255);"/>
  <path d="M0 0 C1.72766602 0.02030273 1.72766602 0.02030273 3.49023438 0.04101562 C6.30648972 0.07607275 9.12173765 0.12521144 11.9375 0.1875 C11.9375 0.5175 11.9375 0.8475 11.9375 1.1875 C11.03825806 1.22508423 11.03825806 1.22508423 10.12084961 1.26342773 C7.37206676 1.38035773 4.62354625 1.50263947 1.875 1.625 C0.93205078 1.66431641 -0.01089844 1.70363281 -0.98242188 1.74414062 C-6.07365478 1.97475396 -11.03314756 2.3574127 -16.0625 3.1875 C-15.02843327 4.44699049 -15.02843327 4.44699049 -12.77734375 4.28515625 C-11.86082031 4.27355469 -10.94429687 4.26195312 -10 4.25 C-9.08089844 4.24097656 -8.16179687 4.23195313 -7.21484375 4.22265625 C-6.50457031 4.21105469 -5.79429687 4.19945312 -5.0625 4.1875 C-5.0625 5.1775 -5.0625 6.1675 -5.0625 7.1875 C-3.29130197 7.04616501 -1.52054713 6.89926792 0.25 6.75 C1.23613281 6.66878906 2.22226563 6.58757813 3.23828125 6.50390625 C6.03125599 6.26937441 6.03125599 6.26937441 8.9375 5.1875 C10.33189664 5.12084624 11.72919875 5.10211801 13.125 5.125 C15.0121875 5.1559375 15.0121875 5.1559375 16.9375 5.1875 C16.6075 5.8475 16.2775 6.5075 15.9375 7.1875 C5.32286046 10.47951544 -10.97372403 9.44156801 -21.0625 5.1875 C-21.3925 4.5275 -21.7225 3.8675 -22.0625 3.1875 C-14.53101055 0.14455463 -8.0695553 -0.18159992 0 0 Z " transform="matrix(1, 0, 0, 1, 141.0625, 13.812500000000007)" style="fill: rgb(255, 255, 255);"/>
  <path d="M0 0 C0.625 1.875 0.625 1.875 1 4 C0.34 4.66 -0.32 5.32 -1 6 C-1 6.99 -1 7.98 -1 9 C-1.66 9 -2.32 9 -3 9 C-3 10.98 -3 12.96 -3 15 C-3.99 15.33 -4.98 15.66 -6 16 C-6.33 16.99 -6.66 17.98 -7 19 C-7.99 19 -8.98 19 -10 19 C-10 20.32 -10 21.64 -10 23 C-10.99 23 -11.98 23 -13 23 C-12.46148032 17.72250715 -11.22656164 13.74354436 -9 9 C-8.34 9 -7.68 9 -7 9 C-6.67 7.68 -6.34 6.36 -6 5 C-4.68 4.67 -3.36 4.34 -2 4 C-2 3.01 -2 2.02 -2 1 C-1.34 0.67 -0.68 0.34 0 0 Z " transform="matrix(1, 0, 0, 1, 192, 83)" style="fill: rgb(255, 255, 255);"/>
  <path d="M0 0 C2.97 0 5.94 0 9 0 C8.67 0.99 8.34 1.98 8 3 C6.35 3 4.7 3 3 3 C3.66 3.33 4.32 3.66 5 4 C5 10.6 5 17.2 5 24 C3.68 24 2.36 24 1 24 C0.67 16.08 0.34 8.16 0 0 Z " transform="matrix(1, 0, 0, 1, 176, 145)" style="fill: rgb(255, 255, 255);"/>
  <path d="M0 0 C1.98 0.495 1.98 0.495 4 1 C4 2.98 4 4.96 4 7 C4.928125 7.0928125 4.928125 7.0928125 5.875 7.1875 C8 8 8 8 9.0625 10.25 C9.371875 11.1575 9.68125 12.065 10 13 C10.53625 13.845625 11.0725 14.69125 11.625 15.5625 C13 18 13 18 13 22 C9.08795343 20.51612027 8.08937851 18.5101559 6 15 C5.154375 14.360625 4.30875 13.72125 3.4375 13.0625 C0.44922418 10.53395892 -0.22336881 8.80549285 -1 5 C-0.625 2.125 -0.625 2.125 0 0 Z " transform="matrix(1, 0, 0, 1, 92.99999999999999, 86)" style="fill: rgb(255, 255, 255);"/>
  <path d="M0 0 C1.32 0.33 2.64 0.66 4 1 C4 7.6 4 14.2 4 21 C2.68 21 1.36 21 0 21 C0 16.38 0 11.76 0 7 C-0.99 7.33 -1.98 7.66 -3 8 C-2.25 2.25 -2.25 2.25 0 0 Z " transform="matrix(1, 0, 0, 1, 201, 147)" style="fill: rgb(255, 255, 255);"/>
  <path d="M0 0 C0 1.98 0 3.96 0 6 C-5.61 5.67 -11.22 5.34 -17 5 C-17 6.65 -17 8.3 -17 10 C-17.66 9.67 -18.32 9.34 -19 9 C-18.67 7.02 -18.34 5.04 -18 3 C-19.32 3.33 -20.64 3.66 -22 4 C-22 3.01 -22 2.02 -22 1 C-18.52085157 0.83295112 -15.04167833 0.66642482 -11.5625 0.5 C-10.56927734 0.45230469 -9.57605469 0.40460938 -8.55273438 0.35546875 C-7.60849609 0.31035156 -6.66425781 0.26523438 -5.69140625 0.21875 C-4.81685791 0.17685547 -3.94230957 0.13496094 -3.04125977 0.09179688 C-1 0 -1 0 0 0 Z " transform="matrix(1, 0, 0, 1, 98.99999999999999, 144)" style="fill: rgb(255, 255, 255);"/>
  <path d="M0 0 C1.32 1.32 2.64 2.64 4 4 C4.66 3.67 5.32 3.34 6 3 C6.66 5.97 7.32 8.94 8 12 C9.32 12 10.64 12 12 12 C12.33 11.01 12.66 10.02 13 9 C14.28317892 12.84953676 14.06643637 15.94738135 14 20 C8.02955304 17.56759568 4.07964278 12.49936211 1 7 C0.25 3.125 0.25 3.125 0 0 Z " transform="matrix(1, 0, 0, 1, 102.99999999999999, 80)" style="fill: rgb(255, 255, 255);"/>
  <path d="M0 0 C0.33 0 0.66 0 1 0 C1 4.29 1 8.58 1 13 C1.99 13 2.98 13 4 13 C4 10.03 4 7.06 4 4 C4.33 4 4.66 4 5 4 C5 6.31 5 8.62 5 11 C10.61 11 16.22 11 22 11 C21.67 12.32 21.34 13.64 21 15 C14.07 14.67 7.14 14.34 0 14 C0 9.38 0 4.76 0 0 Z " transform="matrix(1, 0, 0, 1, 76.99999999999999, 155)" style="fill: rgb(255, 255, 255);"/>
  <path d="M0 0 C4.95 0 9.9 0 15 0 C14.67 1.32 14.34 2.64 14 4 C12.35 3.67 10.7 3.34 9 3 C9 7.29 9 11.58 9 16 C8.01 16 7.02 16 6 16 C6 11.71 6 7.42 6 3 C4.02 3.33 2.04 3.66 0 4 C0 2.68 0 1.36 0 0 Z " transform="matrix(1, 0, 0, 1, 175, 179)" style="fill: rgb(255, 255, 255);"/>
  <path d="M0 0 C1.32 0.33 2.64 0.66 4 1 C3.01 2.98 2.02 4.96 1 7 C1.33 7.33 1.66 7.66 2 8 C2 8.66 2 9.32 2 10 C1.34 10 0.68 10 0 10 C0 10.99 0 11.98 0 13 C-1.82193842 14.9249647 -3.89235283 16.37535531 -6 18 C-7.59981235 13.20056295 -5.0374969 9.44287518 -3 5 C-2.05032575 3.30415313 -1.07814339 1.61721508 0 0 Z " transform="matrix(1, 0, 0, 1, 175, 79)" style="fill: rgb(255, 255, 255);"/>
  <path d="M0 0 C0.66 0 1.32 0 2 0 C2 2.31 2 4.62 2 7 C7.61 7 13.22 7 19 7 C19 7.99 19 8.98 19 10 C12.73 10 6.46 10 0 10 C0 6.7 0 3.4 0 0 Z " transform="matrix(1, 0, 0, 1, 260, 159)" style="fill: rgb(255, 255, 255);"/>
  <path d="M0 0 C1.32 0.33 2.64 0.66 4 1 C4 6.61 4 12.22 4 18 C2.68 18 1.36 18 0 18 C0 12.06 0 6.12 0 0 Z " transform="matrix(1, 0, 0, 1, 225, 151)" style="fill: rgb(255, 255, 255);"/>
  <path d="M0 0 C2.64 0 5.28 0 8 0 C7.01 0.495 7.01 0.495 6 1 C6 5.62 6 10.24 6 15 C5.01 15.495 5.01 15.495 4 16 C3.34 16.99 2.68 17.98 2 19 C1.93941406 17.79601562 1.87882812 16.59203125 1.81640625 15.3515625 C1.73200268 13.77602923 1.64735459 12.20050904 1.5625 10.625 C1.50352539 9.43390625 1.50352539 9.43390625 1.44335938 8.21875 C1.31106596 3.97398779 1.31106596 3.97398779 0 0 Z " transform="matrix(1, 0, 0, 1, 31, 145)" style="fill: rgb(255, 255, 255);"/>
  <path d="M0 0 C0.66 0 1.32 0 2 0 C2 7.26 2 14.52 2 22 C0.68 21.67 -0.64 21.34 -2 21 C-1.86179731 17.6871348 -1.71316222 14.37482011 -1.5625 11.0625 C-1.52318359 10.11697266 -1.48386719 9.17144531 -1.44335938 8.19726562 C-1.40146484 7.29814453 -1.35957031 6.39902344 -1.31640625 5.47265625 C-1.27974854 4.64000244 -1.24309082 3.80734863 -1.20532227 2.94946289 C-1 1 -1 1 0 0 Z " transform="matrix(1, 0, 0, 1, 247, 146)" style="fill: rgb(255, 255, 255);"/>
  <path d="M0 0 C2.31 0 4.62 0 7 0 C6.67 0.66 6.34 1.32 6 2 C5.77049681 4.204364 5.58924067 6.41392173 5.4375 8.625 C5.35371094 9.81351563 5.26992187 11.00203125 5.18359375 12.2265625 C5.12300781 13.14179688 5.06242187 14.05703125 5 15 C3.68 15.33 2.36 15.66 1 16 C0.67 10.72 0.34 5.44 0 0 Z " transform="matrix(1, 0, 0, 1, 63.999999999999986, 145)" style="fill: rgb(255, 255, 255);"/>
  <path d="M0 0 C1.85486952 2.78230428 2.72462112 4.84363607 3.6875 8 C3.95949219 8.86625 4.23148438 9.7325 4.51171875 10.625 C5 13 5 13 4 16 C1.03 13.03 -1.94 10.06 -5 7 C-2 1 -2 1 0 0 Z " transform="matrix(1, 0, 0, 1, 193, 47.99999999999999)" style="fill: rgb(255, 255, 255);"/>
  <path d="M0 0 C0.66 0.33 1.32 0.66 2 1 C1.67 1.99 1.34 2.98 1 4 C-0.32 4 -1.64 4 -3 4 C-2.34 6.31 -1.68 8.62 -1 11 C-0.01 10.67 0.98 10.34 2 10 C3.73324119 10.08461492 5.46392812 10.23604355 7.1875 10.4375 C8.08855469 10.53933594 8.98960938 10.64117187 9.91796875 10.74609375 C10.60503906 10.82988281 11.29210938 10.91367188 12 11 C9 13 9 13 5 13 C7.31 13.33 9.62 13.66 12 14 C12 14.66 12 15.32 12 16 C9.8939014 15.74462428 7.79011246 15.47014626 5.6875 15.1875 C4.51574219 15.03667969 3.34398437 14.88585937 2.13671875 14.73046875 C-1.02411958 13.99438311 -2.2312016 13.67188209 -4 11 C-4.60824217 8.28208906 -4.54025502 5.72970959 -4 3 C-2 1 -2 1 0 0 Z " transform="matrix(1, 0, 0, 1, 9, 145)" style="fill: rgb(255, 255, 255);"/>
  <path d="M0 0 C3.1875 1.375 3.1875 1.375 5 3 C5 3.66 5 4.32 5 5 C3.35 5.66 1.7 6.32 0 7 C0.33 5.68 0.66 4.36 1 3 C-1.97 2.67 -4.94 2.34 -8 2 C-8 3.32 -8 4.64 -8 6 C-8 6.66 -8 7.32 -8 8 C-9.98 7.34 -11.96 6.68 -14 6 C-14 4.68 -14 3.36 -14 2 C-9.54526994 -0.96982004 -5.22581171 -0.51113779 0 0 Z " transform="matrix(1, 0, 0, 1, 147, 88)" style="fill: rgb(255, 255, 255);"/>
  <path d="M0 0 C0.33 0 0.66 0 1 0 C1.33 4.29 1.66 8.58 2 13 C2.66 13 3.32 13 4 13 C4.22786458 15.01822917 4.45572917 17.03645833 4.68359375 19.0546875 C4.91292961 21.07404316 4.91292961 21.07404316 6 23 C3.69 23 1.38 23 -1 23 C-0.67 15.41 -0.34 7.82 0 0 Z " transform="matrix(1, 0, 0, 1, 43.999999999999986, 147)" style="fill: rgb(255, 255, 255);"/>
  <path d="M0 0 C2.3125 0.1875 2.3125 0.1875 5 1 C7.68448204 4.33246046 8.36325349 6.76204266 8 11 C6.68 11 5.36 11 4 11 C3.67 9.35 3.34 7.7 3 6 C2.01 6.33 1.02 6.66 0 7 C0 4.69 0 2.38 0 0 Z " transform="matrix(1, 0, 0, 1, 117.99999999999999, 75)" style="fill: rgb(255, 255, 255);"/>
  <path d="M0 0 C1.32 0 2.64 0 4 0 C4.33 1.65 4.66 3.3 5 5 C4.01 5.33 3.02 5.66 2 6 C2 8.64 2 11.28 2 14 C1.01 14 0.02 14 -1 14 C-1.02685938 11.85423363 -1.04633088 9.70837355 -1.0625 7.5625 C-1.07410156 6.36753906 -1.08570313 5.17257813 -1.09765625 3.94140625 C-1 1 -1 1 0 0 Z " transform="matrix(1, 0, 0, 1, 45.999999999999986, 146)" style="fill: rgb(255, 255, 255);"/>
  <path d="M0 0 C2.97 0 5.94 0 9 0 C8.67 0.66 8.34 1.32 8 2 C6.68 2.33 5.36 2.66 4 3 C3.67 9.6 3.34 16.2 3 23 C3.66 23 4.32 23 5 23 C5 19.04 5 15.08 5 11 C5.33 11 5.66 11 6 11 C6 15.29 6 19.58 6 24 C4.68 24 3.36 24 2 24 C2 16.41 2 8.82 2 1 C1.34 0.67 0.68 0.34 0 0 Z " transform="matrix(1, 0, 0, 1, 111.99999999999999, 145)" style="fill: rgb(255, 255, 255);"/>
  <path d="M0 0 C0 1.32 0 2.64 0 4 C2.31 4 4.62 4 7 4 C7.33 3.34 7.66 2.68 8 2 C8.433125 2.45375 8.86625 2.9075 9.3125 3.375 C11.10798342 5.20024334 11.10798342 5.20024334 14 7 C1.17631533 7.56853774 1.17631533 7.56853774 -5 4 C-5.33 3.34 -5.66 2.68 -6 2 C-2.25 0 -2.25 0 0 0 Z " transform="matrix(1, 0, 0, 1, 133, 103)" style="fill: rgb(255, 255, 255);"/>
  <path d="M0 0 C5.66710699 1.31793186 7.66437233 3.48709197 11 8 C10.67 8.66 10.34 9.32 10 10 C8.02 9.01 6.04 8.02 4 7 C4 6.34 4 5.68 4 5 C2.68 5.99 1.36 6.98 0 8 C0 5.36 0 2.72 0 0 Z " transform="matrix(1, 0, 0, 1, 156, 47.99999999999999)" style="fill: rgb(255, 255, 255);"/>
  <path d="M0 0 C0.66 0.33 1.32 0.66 2 1 C2.34934248 3.93447681 2.51495218 6.14367502 0.95703125 8.734375 C-0.375 10.375 -0.375 10.375 -3 13 C-3.66 13 -4.32 13 -5 13 C-4.67 10.36 -4.34 7.72 -4 5 C-3.01 4.67 -2.02 4.34 -1 4 C-0.26676204 1.98491642 -0.26676204 1.98491642 0 0 Z " transform="matrix(1, 0, 0, 1, 90.99999999999999, 49.99999999999999)" style="fill: rgb(255, 255, 255);"/>
  <path d="M0 0 C2.97 0 5.94 0 9 0 C8.67 0.99 8.34 1.98 8 3 C6.35 3 4.7 3 3 3 C2.67 9.6 2.34 16.2 2 23 C2.99 23.33 3.98 23.66 5 24 C3.68 24 2.36 24 1 24 C0.67 16.08 0.34 8.16 0 0 Z " transform="matrix(1, 0, 0, 1, 176, 145)" style="fill: rgb(255, 255, 255);"/>
  <path d="M0 0 C2.31 0 4.62 0 7 0 C6.67 7.92 6.34 15.84 6 24 C5.67 24 5.34 24 5 24 C4.67 16.74 4.34 9.48 4 2 C3.34 2 2.68 2 2 2 C2 6.29 2 10.58 2 15 C1.67 15 1.34 15 1 15 C0.67 10.05 0.34 5.1 0 0 Z " transform="matrix(1, 0, 0, 1, 133, 145)" style="fill: rgb(255, 255, 255);"/>
  <path d="M0 0 C2.97 0.495 2.97 0.495 6 1 C6 1.99 6 2.98 6 4 C0.25502093 7.82998604 -7.26003116 7.62426713 -14 7 C-14.99 6.34 -15.98 5.68 -17 5 C-9.98441385 4.4011085 -3.04321257 3.86189779 4 4 C3.04134491 1.66924071 3.04134491 1.66924071 0 0 Z " transform="matrix(1, 0, 0, 1, 149, 29.000000000000007)" style="fill: rgb(255, 255, 255);"/>
  <path d="M0 0 C1.32 0 2.64 0 4 0 C4 4.95 4 9.9 4 15 C2.68 14.67 1.36 14.34 0 14 C0 9.38 0 4.76 0 0 Z " transform="matrix(1, 0, 0, 1, 152, 180)" style="fill: rgb(255, 255, 255);"/>
  <path d="M0 0 C2.8203125 -0.29296875 2.8203125 -0.29296875 6.125 -0.1875 C7.76855469 -0.14689453 7.76855469 -0.14689453 9.4453125 -0.10546875 C10.28835937 -0.07066406 11.13140625 -0.03585938 12 0 C11.67 0.99 11.34 1.98 11 3 C9.375 3.625 9.375 3.625 7 4 C5.80375 4.226875 4.6075 4.45375 3.375 4.6875 C2.26125 4.790625 1.1475 4.89375 0 5 C-0.66 4.34 -1.32 3.68 -2 3 C-1.34 2.01 -0.68 1.02 0 0 Z " transform="matrix(1, 0, 0, 1, 133, 103)" style="fill: rgb(255, 255, 255);"/>
  <path d="M0 0 C0 1.98 0 3.96 0 6 C-5.28 5.67 -10.56 5.34 -16 5 C-16 4.67 -16 4.34 -16 4 C-11.71 4 -7.42 4 -3 4 C-3 3.34 -3 2.68 -3 2 C-9.27 2 -15.54 2 -22 2 C-22 1.67 -22 1.34 -22 1 C-18.52085157 0.83295112 -15.04167833 0.66642482 -11.5625 0.5 C-10.56927734 0.45230469 -9.57605469 0.40460938 -8.55273438 0.35546875 C-7.60849609 0.31035156 -6.66425781 0.26523438 -5.69140625 0.21875 C-4.81685791 0.17685547 -3.94230957 0.13496094 -3.04125977 0.09179688 C-1 0 -1 0 0 0 Z " transform="matrix(1, 0, 0, 1, 279, 144)" style="fill: rgb(255, 255, 255);"/>
  <path d="M0 0 C0.66 0 1.32 0 2 0 C2 1.32 2 2.64 2 4 C3.32 4.33 4.64 4.66 6 5 C5.01 6.485 5.01 6.485 4 8 C3.67 8.99 3.34 9.98 3 11 C1.0625 10.4375 1.0625 10.4375 -1 9 C-1.875 5.5 -1.875 5.5 -2 2 C-1.34 1.34 -0.68 0.68 0 0 Z " transform="matrix(1, 0, 0, 1, 187, 42.99999999999999)" style="fill: rgb(255, 255, 255);"/>
  <path d="M0 0 C0.66 0 1.32 0 2 0 C2 4.62 2 9.24 2 14 C3.32 14 4.64 14 6 14 C6 9.38 6 4.76 6 0 C6.33 0 6.66 0 7 0 C7.33 5.28 7.66 10.56 8 16 C5.36 16 2.72 16 0 16 C0 10.72 0 5.44 0 0 Z " transform="matrix(1, 0, 0, 1, 199, 154)" style="fill: rgb(255, 255, 255);"/>
  <path d="M0 0 C0.99 0.99 1.98 1.98 3 3 C-0.21182149 4.90608098 -2.53882603 5.22266247 -6.25 5.125 C-7.14203125 5.10695312 -8.0340625 5.08890625 -8.953125 5.0703125 C-9.96632812 5.03550781 -9.96632812 5.03550781 -11 5 C-11.33 4.34 -11.66 3.68 -12 3 C-11.34 3 -10.68 3 -10 3 C-9.67 2.34 -9.34 1.68 -9 1 C-7.700625 1.020625 -6.40125 1.04125 -5.0625 1.0625 C-3.70834367 1.08399454 -2.35243917 1.07148199 -1 1 C-0.67 0.67 -0.34 0.34 0 0 Z " transform="matrix(1, 0, 0, 1, 147, 190)" style="fill: rgb(255, 255, 255);"/>
  <path d="M0 0 C0.99 0.99 1.98 1.98 3 3 C2.67 3.66 2.34 4.32 2 5 C3.2065625 5.433125 3.2065625 5.433125 4.4375 5.875 C7 7 7 7 8 9 C8.66 8.01 9.32 7.02 10 6 C10.66 7.98 11.32 9.96 12 12 C9.69 12 7.38 12 5 12 C4.71125 11.360625 4.4225 10.72125 4.125 10.0625 C3.17176549 7.84793921 3.17176549 7.84793921 1 7 C0.59270772 4.67843403 0.25561323 2.3431213 0 0 Z " transform="matrix(1, 0, 0, 1, 127.99999999999999, 158)" style="fill: rgb(255, 255, 255);"/>
  <path d="M0 0 C0.17835515 4.54805635 -0.00214565 7.8794254 -2 12 C-2.33 12 -2.66 12 -3 12 C-3 10.02 -3 8.04 -3 6 C-4.98 6.33 -6.96 6.66 -9 7 C-3.34042553 0 -3.34042553 0 0 0 Z " transform="matrix(1, 0, 0, 1, 116.99999999999999, 38.00000000000001)" style="fill: rgb(255, 255, 255);"/>
  <path d="M0 0 C0.66 0.33 1.32 0.66 2 1 C2 2.32 2 3.64 2 5 C0.68 5.33 -0.64 5.66 -2 6 C-2 6.99 -2 7.98 -2 9 C-2.61875 9.268125 -3.2375 9.53625 -3.875 9.8125 C-6.2995233 10.95556848 -6.2995233 10.95556848 -8 14 C-7.46719784 9.77510398 -6.12321801 7.45919284 -3.4375 4.1875 C-2.47650391 3.00220703 -2.47650391 3.00220703 -1.49609375 1.79296875 C-1.00238281 1.20128906 -0.50867188 0.60960938 0 0 Z " transform="matrix(1, 0, 0, 1, 192, 78)" style="fill: rgb(255, 255, 255);"/>
  <path d="M0 0 C1.41377341 2.63904371 2.37240135 5.07120629 3 8 C-0.75 11 -0.75 11 -3 11 C-3.25 4.375 -3.25 4.375 -1 1 C-0.67 0.67 -0.34 0.34 0 0 Z " transform="matrix(1, 0, 0, 1, 104.99999999999999, 51.99999999999999)" style="fill: rgb(255, 255, 255);"/>
  <path d="M0 0 C0.66 0 1.32 0 2 0 C2 0.66 2 1.32 2 2 C4.475 2.99 4.475 2.99 7 4 C5.02 4.99 5.02 4.99 3 6 C3.66 8.31 4.32 10.62 5 13 C4.01 13.495 4.01 13.495 3 14 C0.96006486 9.07015675 -0.40652968 5.42039575 0 0 Z " transform="matrix(1, 0, 0, 1, 166, 37.00000000000001)" style="fill: rgb(255, 255, 255);"/>
  <path d="M0 0 C2.5215021 -0.08172936 5.04029917 -0.14083373 7.5625 -0.1875 C8.26697266 -0.21263672 8.97144531 -0.23777344 9.69726562 -0.26367188 C14.88003315 -0.33532304 18.36264182 0.67827402 23 3 C21.68 4.32 20.36 5.64 19 7 C18.34 6.67 17.68 6.34 17 6 C17.33 4.68 17.66 3.36 18 2 C12.06 1.67 6.12 1.34 0 1 C0 0.67 0 0.34 0 0 Z " transform="matrix(1, 0, 0, 1, 133, 102)" style="fill: rgb(255, 255, 255);"/>
  <path d="M0 0 C4.455 0.99 4.455 0.99 9 2 C9.33 1.34 9.66 0.68 10 0 C10 1.65 10 3.3 10 5 C8.5629191 5.05422947 7.12524538 5.09289723 5.6875 5.125 C4.88699219 5.14820313 4.08648437 5.17140625 3.26171875 5.1953125 C1 5 1 5 -2 3 C-1.34 2.01 -0.68 1.02 0 0 Z " transform="matrix(1, 0, 0, 1, 97.99999999999999, 190)" style="fill: rgb(255, 255, 255);"/>
  <path d="M0 0 C4.13621084 3.3810038 7.81316569 6.66590534 11 11 C8.04590299 9.62845496 5.55991624 8.01136276 3 6 C3.33 8.31 3.66 10.62 4 13 C1.47519307 10.47519307 1.44261367 8.86176966 0.875 5.375 C0.70742187 4.37210938 0.53984375 3.36921875 0.3671875 2.3359375 C0.24601563 1.56507812 0.12484375 0.79421875 0 0 Z " transform="matrix(1, 0, 0, 1, 174, 23.000000000000007)" style="fill: rgb(255, 255, 255);"/>
  <path d="M0 0 C1.4606285 2.64738916 2 3.89448334 2 7 C1.34 7 0.68 7 0 7 C-0.33 7.66 -0.66 8.32 -1 9 C-1 8.34 -1 7.68 -1 7 C-1.99 6.67 -2.98 6.34 -4 6 C-4 4.35 -4 2.7 -4 1 C-2 0 -2 0 0 0 Z " transform="matrix(1, 0, 0, 1, 173, 41.99999999999999)" style="fill: rgb(255, 255, 255);"/>
  <path d="M0 0 C0.66 0 1.32 0 2 0 C3.61949011 2.57213134 4.04408751 3.67669159 3.625 6.75 C3.41875 7.4925 3.2125 8.235 3 9 C1.68 8.67 0.36 8.34 -1 8 C-1 7.34 -1 6.68 -1 6 C-1.66 6 -2.32 6 -3 6 C-1.125 1.125 -1.125 1.125 0 0 Z " transform="matrix(1, 0, 0, 1, 94.99999999999999, 40.99999999999999)" style="fill: rgb(255, 255, 255);"/>
  <path d="M0 0 C0.73605469 0.01353516 1.47210938 0.02707031 2.23046875 0.04101562 C4.02896743 0.07605131 5.82708422 0.12984712 7.625 0.1875 C7.625 0.5175 7.625 0.8475 7.625 1.1875 C6.30435547 1.27837891 6.30435547 1.27837891 4.95703125 1.37109375 C3.21486328 1.49677734 3.21486328 1.49677734 1.4375 1.625 C0.28894531 1.70621094 -0.85960937 1.78742187 -2.04296875 1.87109375 C-4.89098171 2.14153812 -7.58710482 2.56271747 -10.375 3.1875 C-10.705 4.1775 -11.035 5.1675 -11.375 6.1875 C-12.365 5.1975 -13.355 4.2075 -14.375 3.1875 C-9.35513301 0.17082915 -5.66176196 -0.19964622 0 0 Z " transform="matrix(1, 0, 0, 1, 141.375, 27.812500000000007)" style="fill: rgb(255, 255, 255);"/>
  <path d="M0 0 C0.99 1.32 1.98 2.64 3 4 C2.01 5.98 1.02 7.96 0 10 C-1.32 9.67 -2.64 9.34 -4 9 C-2.94124926 5.59687262 -1.99097846 2.98646769 0 0 Z " transform="matrix(1, 0, 0, 1, 209, 70)" style="fill: rgb(255, 255, 255);"/>
  <path d="M0 0 C2.33944736 0.28730055 4.6739143 0.61936779 7 1 C7.625 3.375 7.625 3.375 8 6 C7.34 6.66 6.68 7.32 6 8 C5.01 7.67 4.02 7.34 3 7 C3.66 7 4.32 7 5 7 C3.95125002 4.37812506 3.35068687 3.20628639 0.875 1.75 C-0.053125 1.37875 -0.053125 1.37875 -1 1 C-0.67 0.67 -0.34 0.34 0 0 Z " transform="matrix(1, 0, 0, 1, 102.99999999999999, 186)" style="fill: rgb(255, 255, 255);"/>
  <path d="M0 0 C5.51858459 1.33783869 8.85009807 5.5122365 12 10 C12.703125 12.2578125 12.703125 12.2578125 13 14 C12.01 13.67 11.02 13.34 10 13 C10 11.68 10 10.36 10 9 C9.34 9 8.68 9 8 9 C7.38125 8.195625 6.7625 7.39125 6.125 6.5625 C3.97459015 3.96935871 3.24605542 3.34779165 0 3 C0 2.01 0 1.02 0 0 Z " transform="matrix(1, 0, 0, 1, 101.99999999999999, 75)" style="fill: rgb(255, 255, 255);"/>
  <path d="M0 0 C-1.09068668 3.77545388 -1.9083091 6.47043472 -5 9 C-5 8.34 -5 7.68 -5 7 C-5.66 7 -6.32 7 -7 7 C-6.1875 4.0625 -6.1875 4.0625 -5 1 C-2 0 -2 0 0 0 Z " transform="matrix(1, 0, 0, 1, 184, 121)" style="fill: rgb(255, 255, 255);"/>
  <path d="M0 0 C0.33 0.99 0.66 1.98 1 3 C4.96 3 8.92 3 13 3 C12.67 3.99 12.34 4.98 12 6 C11.67 5.67 11.34 5.34 11 5 C8.98035801 4.92755947 6.95832876 4.91622812 4.9375 4.9375 C3.83277344 4.94652344 2.72804687 4.95554688 1.58984375 4.96484375 C0.73519531 4.97644531 -0.11945313 4.98804688 -1 5 C-0.67 3.35 -0.34 1.7 0 0 Z " transform="matrix(1, 0, 0, 1, 194, 189)" style="fill: rgb(255, 255, 255);"/>
  <path d="M0 0 C0.33 0 0.66 0 1 0 C1 1.65 1 3.3 1 5 C3.97 5 6.94 5 10 5 C9.67 5.99 9.34 6.98 9 8 C7.88625 7.938125 6.7725 7.87625 5.625 7.8125 C3.830625 7.9053125 3.830625 7.9053125 2 8 C1.34 8.99 0.68 9.98 0 11 C0 7.37 0 3.74 0 0 Z " transform="matrix(1, 0, 0, 1, 193, 181)" style="fill: rgb(255, 255, 255);"/>
  <path d="M0 0 C2 3.75 2 3.75 2 6 C3.65 6.33 5.3 6.66 7 7 C7 7.66 7 8.32 7 9 C4.36 9 1.72 9 -1 9 C-2.0326802 6.21176345 -2.04509293 5.1322726 -1.0625 2.25 C-0.711875 1.5075 -0.36125 0.765 0 0 Z " transform="matrix(1, 0, 0, 1, 244, 161)" style="fill: rgb(255, 255, 255);"/>
  <path d="M0 0 C0.33 0.99 0.66 1.98 1 3 C1.99 3.33 2.98 3.66 4 4 C5.35278115 5.98689731 6.68568305 7.98745218 8 10 C8.99 10.66 9.98 11.32 11 12 C10.67 12.66 10.34 13.32 10 14 C5.16716651 10.11995791 1.31417894 6.93008355 -1 1 C-0.67 0.67 -0.34 0.34 0 0 Z " transform="matrix(1, 0, 0, 1, 95.99999999999999, 97)" style="fill: rgb(255, 255, 255);"/>
  <path d="M0 0 C0.66 0 1.32 0 2 0 C2.80967438 2.91482778 3.21845993 4.46113217 2.0625 7.3125 C1.5365625 8.1478125 1.5365625 8.1478125 1 9 C0.01 8.67 -0.98 8.34 -2 8 C-1.125 2.25 -1.125 2.25 0 0 Z " transform="matrix(1, 0, 0, 1, 70.99999999999999, 62.99999999999999)" style="fill: rgb(255, 255, 255);"/>
  <path d="M0 0 C0.89847656 0.00257813 1.79695313 0.00515625 2.72265625 0.0078125 C3.61855469 0.00523437 4.51445313 0.00265625 5.4375 0 C7.78515625 0.1328125 7.78515625 0.1328125 9.78515625 1.1328125 C9.78515625 2.1228125 9.78515625 3.1128125 9.78515625 4.1328125 C8.18020058 4.01838789 6.57617506 3.89086556 4.97265625 3.7578125 C4.07933594 3.68820313 3.18601562 3.61859375 2.265625 3.546875 C-0.21484375 3.1328125 -0.21484375 3.1328125 -3.21484375 1.1328125 C-2.21484375 0.1328125 -2.21484375 0.1328125 0 0 Z " transform="matrix(1, 0, 0, 1, 84.21484374999999, 179.8671875)" style="fill: rgb(255, 255, 255);"/>
  <path d="M0 0 C2.31 0.66 4.62 1.32 7 2 C6 4 6 4 2.75 5.125 C-0.37700635 5.85463482 -2.82622905 6.19234975 -6 6 C-4.04783565 4.04783565 -2.46800047 3.15173355 0 2 C0 1.34 0 0.68 0 0 Z " transform="matrix(1, 0, 0, 1, 158, 117)" style="fill: rgb(255, 255, 255);"/>
  <path d="M0 0 C1.65 0 3.3 0 5 0 C5.33 1.32 5.66 2.64 6 4 C3.35261084 5.4606285 2.10551666 6 -1 6 C-0.67 4.02 -0.34 2.04 0 0 Z " transform="matrix(1, 0, 0, 1, 118.99999999999999, 56.99999999999999)" style="fill: rgb(255, 255, 255);"/>
  <path d="M0 0 C0.66 0 1.32 0 2 0 C1.25 7.75 1.25 7.75 -1 10 C-1.33 8.35 -1.66 6.7 -2 5 C-3.98 5.99 -3.98 5.99 -6 7 C-5.04882866 5.8274869 -4.08882991 4.66212985 -3.125 3.5 C-2.59132813 2.8503125 -2.05765625 2.200625 -1.5078125 1.53125 C-0.76144531 0.77328125 -0.76144531 0.77328125 0 0 Z " transform="matrix(1, 0, 0, 1, 106.99999999999999, 24.000000000000007)" style="fill: rgb(255, 255, 255);"/>
  <path d="M0 0 C0.99 1.32 1.98 2.64 3 4 C2.01 5.98 1.02 7.96 0 10 C-0.33 9.34 -0.66 8.68 -1 8 C-1.99 7.67 -2.98 7.34 -4 7 C-2.68 4.69 -1.36 2.38 0 0 Z " transform="matrix(1, 0, 0, 1, 200, 86)" style="fill: rgb(255, 255, 255);"/>
  <path d="M0 0 C1.2380014 3.57644848 0.74926071 6.33694766 0 10 C0.66 10 1.32 10 2 10 C2 9.34 2 8.68 2 8 C2.66 8 3.32 8 4 8 C3.67 8.99 3.34 9.98 3 11 C1.35 11.33 -0.3 11.66 -2 12 C-2.17835515 7.45194365 -1.99785435 4.1205746 0 0 Z " transform="matrix(1, 0, 0, 1, 158, 77)" style="fill: rgb(255, 255, 255);"/>
  <path d="M0 0 C2 0 2 0 3.5 1.4375 C3.995 1.953125 4.49 2.46875 5 3 C5.66 3.33 6.32 3.66 7 4 C7 5.32 7 6.64 7 8 C6.01 8.33 5.02 8.66 4 9 C1.47740939 7.02579865 1.0070192 6.03254358 0.3125 2.8125 C0.209375 1.884375 0.10625 0.95625 0 0 Z " transform="matrix(1, 0, 0, 1, 158, 52.99999999999999)" style="fill: rgb(255, 255, 255);"/>
  <path d="M0 0 C1.258125 -0.04125 2.51625 -0.0825 3.8125 -0.125 C4.52019531 -0.14820313 5.22789062 -0.17140625 5.95703125 -0.1953125 C8 0 8 0 11 2 C10.67 2.99 10.34 3.98 10 5 C9.484375 4.690625 8.96875 4.38125 8.4375 4.0625 C5.33334577 2.70940713 2.34884993 2.38640576 -1 2 C-0.67 1.34 -0.34 0.68 0 0 Z " transform="matrix(1, 0, 0, 1, 138, 180)" style="fill: rgb(255, 255, 255);"/>
  <path d="M0 0 C0.66 0 1.32 0 2 0 C2.33 1.65 2.66 3.3 3 5 C4.32 5 5.64 5 7 5 C7.33 3.68 7.66 2.36 8 1 C8 3.31 8 5.62 8 8 C4.21616321 7.07506212 2.43306306 6.60628829 0.125 3.375 C-0.24625 2.59125 -0.6175 1.8075 -1 1 C-0.67 0.67 -0.34 0.34 0 0 Z " transform="matrix(1, 0, 0, 1, 118.99999999999999, 81)" style="fill: rgb(255, 255, 255);"/>
  <path d="M0 0 C0 0.33 0 0.66 0 1 C-4.455 2.485 -4.455 2.485 -9 4 C-9 4.99 -9 5.98 -9 7 C-10.32 6.67 -11.64 6.34 -13 6 C-13 5.01 -13 4.02 -13 3 C-8.44573816 0.33409063 -5.26053037 -0.31563182 0 0 Z " transform="matrix(1, 0, 0, 1, 145, 40.99999999999999)" style="fill: rgb(255, 255, 255);"/>
  <path d="M0 0 C0 1.65 0 3.3 0 5 C-0.99 5 -1.98 5 -3 5 C-3.33 5.99 -3.66 6.98 -4 8 C-4.66 7.34 -5.32 6.68 -6 6 C-5.875 4 -5.875 4 -5 2 C-1.8 0 -1.8 0 0 0 Z " transform="matrix(1, 0, 0, 1, 195, 158)" style="fill: rgb(255, 255, 255);"/>
  <path d="M0 0 C0.33 0 0.66 0 1 0 C1 2.31 1 4.62 1 7 C2.65 6.67 4.3 6.34 6 6 C4.1875 8 4.1875 8 2 10 C1.01 10 0.02 10 -1 10 C-1.125 2.25 -1.125 2.25 0 0 Z " transform="matrix(1, 0, 0, 1, 116.99999999999999, 55.99999999999999)" style="fill: rgb(255, 255, 255);"/>
  <path d="M0 0 C0.66 0.66 1.32 1.32 2 2 C2.99 2 3.98 2 5 2 C5 2.99 5 3.98 5 5 C4.01 5.33 3.02 5.66 2 6 C2 6.99 2 7.98 2 9 C0 8 0 8 -2 5 C-1.48275862 1.48275862 -1.48275862 1.48275862 0 0 Z " transform="matrix(1, 0, 0, 1, 105.99999999999999, 48.99999999999999)" style="fill: rgb(255, 255, 255);"/>
  <path d="M0 0 C1.3921875 0.2784375 1.3921875 0.2784375 2.8125 0.5625 C6.01343771 1.24123881 6.01343771 1.24123881 9 0 C9 1.65 9 3.3 9 5 C6.75 5.3125 6.75 5.3125 4 5 C1.6875 2.5 1.6875 2.5 0 0 Z " transform="matrix(1, 0, 0, 1, 59.999999999999986, 164)" style="fill: rgb(255, 255, 255);"/>
  <path d="M0 0 C0.66 0 1.32 0 2 0 C2 1.98 2 3.96 2 6 C-2.455 5.01 -2.455 5.01 -7 4 C-7 3.34 -7 2.68 -7 2 C-3.535 1.505 -3.535 1.505 0 1 C0 0.67 0 0.34 0 0 Z " transform="matrix(1, 0, 0, 1, 91.99999999999999, 154)" style="fill: rgb(255, 255, 255);"/>
  <path d="M0 0 C3.63 0 7.26 0 11 0 C11 0.33 11 0.66 11 1 C8.36 1 5.72 1 3 1 C3 1.66 3 2.32 3 3 C4.98 3 6.96 3 9 3 C9 3.33 9 3.66 9 4 C6.03 4 3.06 4 0 4 C0 2.68 0 1.36 0 0 Z " transform="matrix(1, 0, 0, 1, 81.99999999999999, 155)" style="fill: rgb(255, 255, 255);"/>
  <path d="M0 0 C1.32 0.33 2.64 0.66 4 1 C3.67 2.65 3.34 4.3 3 6 C0 6 0 6 -2 5 C-2 4.01 -2 3.02 -2 2 C-1.34 2 -0.68 2 0 2 C0 1.34 0 0.68 0 0 Z " transform="matrix(1, 0, 0, 1, 23, 146)" style="fill: rgb(255, 255, 255);"/>
  <path d="M0 0 C1.57035335 2.49409061 2.0274945 3.70443416 1.75 6.6875 C1.5025 7.450625 1.255 8.21375 1 9 C0.01 9.495 0.01 9.495 -1 10 C-2.1875 7.8125 -2.1875 7.8125 -3 5 C-1.625 2.1875 -1.625 2.1875 0 0 Z " transform="matrix(1, 0, 0, 1, 89.99999999999999, 30.000000000000007)" style="fill: rgb(255, 255, 255);"/>
  <path d="M0 0 C2.64 0 5.28 0 8 0 C7.01 0.495 7.01 0.495 6 1 C5.27840576 2.64363134 4.60648579 4.31050386 4 6 C3.34 6 2.68 6 2 6 C1.34 4.02 0.68 2.04 0 0 Z " transform="matrix(1, 0, 0, 1, 31, 145)" style="fill: rgb(255, 255, 255);"/>
  <path d="M0 0 C0.33 0.99 0.66 1.98 1 3 C0.01 3 -0.98 3 -2 3 C-2.66 4.65 -3.32 6.3 -4 8 C-5.32 7.34 -6.64 6.68 -8 6 C-2.25 1.125 -2.25 1.125 0 0 Z " transform="matrix(1, 0, 0, 1, 125.99999999999999, 47.99999999999999)" style="fill: rgb(255, 255, 255);"/>
  <path d="M0 0 C0.66 0.33 1.32 0.66 2 1 C1.67 1.66 1.34 2.32 1 3 C2.65 3 4.3 3 6 3 C5.01 4.32 4.02 5.64 3 7 C1.68 6.67 0.36 6.34 -1 6 C-1.042721 4.33388095 -1.04063832 2.66617115 -1 1 C-0.67 0.67 -0.34 0.34 0 0 Z " transform="matrix(1, 0, 0, 1, 211, 182)" style="fill: rgb(255, 255, 255);"/>
  <path d="M0 0 C2.64 0 5.28 0 8 0 C7.67 2.97 7.34 5.94 7 9 C6.67 9 6.34 9 6 9 C6 7.02 6 5.04 6 3 C5.195625 2.87625 4.39125 2.7525 3.5625 2.625 C2.716875 2.41875 1.87125 2.2125 1 2 C0.67 1.34 0.34 0.68 0 0 Z " transform="matrix(1, 0, 0, 1, 199, 145)" style="fill: rgb(255, 255, 255);"/>
  <path d="M0 0 C0.66 0.33 1.32 0.66 2 1 C2 2.98 2 4.96 2 7 C-1.16115776 5.63016497 -1.9927092 5.0109362 -4 2 C-2.125 0.9375 -2.125 0.9375 0 0 Z " transform="matrix(1, 0, 0, 1, 114.99999999999999, 93)" style="fill: rgb(255, 255, 255);"/>
  <path d="M0 0 C0.99 0 1.98 0 3 0 C3 1.98 3 3.96 3 6 C2.34 6 1.68 6 1 6 C1 6.66 1 7.32 1 8 C0.34 8 -0.32 8 -1 8 C-1.125 2.25 -1.125 2.25 0 0 Z " transform="matrix(1, 0, 0, 1, 159, 79)" style="fill: rgb(255, 255, 255);"/>
  <path d="M0 0 C2.475 0.99 2.475 0.99 5 2 C3.86695008 5.39914975 2.87481525 6.05254451 0 8 C0 5.36 0 2.72 0 0 Z " transform="matrix(1, 0, 0, 1, 156, 47.99999999999999)" style="fill: rgb(255, 255, 255);"/>
  <path d="M0 0 C1.32 0.33 2.64 0.66 4 1 C4.33 3.31 4.66 5.62 5 8 C4.01 7.67 3.02 7.34 2 7 C2 5.68 2 4.36 2 3 C1.34 3 0.68 3 0 3 C0 2.01 0 1.02 0 0 Z " transform="matrix(1, 0, 0, 1, 21, 158)" style="fill: rgb(255, 255, 255);"/>
  <path d="M0 0 C0.66 0.33 1.32 0.66 2 1 C2 3.97 2 6.94 2 10 C1.01 10 0.02 10 -1 10 C-0.67 6.7 -0.34 3.4 0 0 Z " transform="matrix(1, 0, 0, 1, 226, 158)" style="fill: rgb(255, 255, 255);"/>
  <path d="M0 0 C2.0625 1.6875 2.0625 1.6875 4 4 C3.75 6.75 3.75 6.75 3 9 C1.35 7.35 -0.3 5.7 -2 4 C-1.34 3.34 -0.68 2.68 0 2 C0 1.34 0 0.68 0 0 Z " transform="matrix(1, 0, 0, 1, 232, 149)" style="fill: rgb(255, 255, 255);"/>
  <path d="M0 0 C2.97 0 5.94 0 9 0 C8.67 0.66 8.34 1.32 8 2 C5.9375 2.625 5.9375 2.625 4 3 C3.67 4.98 3.34 6.96 3 9 C2.67 9 2.34 9 2 9 C2 6.36 2 3.72 2 1 C1.34 0.67 0.68 0.34 0 0 Z " transform="matrix(1, 0, 0, 1, 111.99999999999999, 145)" style="fill: rgb(255, 255, 255);"/>
  <path d="M0 0 C0.66 1.65 1.32 3.3 2 5 C1.34 5 0.68 5 0 5 C-0.66 5.66 -1.32 6.32 -2 7 C-2.99 5.02 -3.98 3.04 -5 1 C-2 0 -2 0 0 0 Z " transform="matrix(1, 0, 0, 1, 96.99999999999999, 109)" style="fill: rgb(255, 255, 255);"/>
  <path d="M0 0 C0.66 0 1.32 0 2 0 C2.625 2.375 2.625 2.375 3 5 C2.34 5.66 1.68 6.32 1 7 C-0.32 6.34 -1.64 5.68 -3 5 C-1.625 2.5 -1.625 2.5 0 0 Z " transform="matrix(1, 0, 0, 1, 190, 103)" style="fill: rgb(255, 255, 255);"/>
  <path d="M0 0 C0.99 0.33 1.98 0.66 3 1 C3 2.32 3 3.64 3 5 C3.66 4.67 4.32 4.34 5 4 C5.33 5.32 5.66 6.64 6 8 C4.68 8 3.36 8 2 8 C0 2.25 0 2.25 0 0 Z " transform="matrix(1, 0, 0, 1, 185, 44.99999999999999)" style="fill: rgb(255, 255, 255);"/>
  <path d="M0 0 C0.33 0.66 0.66 1.32 1 2 C1.66 2.33 2.32 2.66 3 3 C2.67 4.32 2.34 5.64 2 7 C2.99 7 3.98 7 5 7 C4.34 8.32 3.68 9.64 3 11 C0.82905523 8.82905523 0.5137 7.84247144 -0.1875 4.9375 C-0.36667969 4.22464844 -0.54585937 3.51179688 -0.73046875 2.77734375 C-0.81941406 2.19082031 -0.90835938 1.60429688 -1 1 C-0.67 0.67 -0.34 0.34 0 0 Z " transform="matrix(1, 0, 0, 1, 209, 62.99999999999999)" style="fill: rgb(255, 255, 255);"/>
  <path d="M0 0 C2.64752004 2.57784846 4.94432065 4.91648098 7 8 C5 7 3 6 1 5 C0.67 5.99 0.34 6.98 0 8 C-0.98120464 4.94736336 -0.98120464 3.05263664 0 0 Z " transform="matrix(1, 0, 0, 1, 235, 151)" style="fill: rgb(255, 255, 255);"/>
  <path d="M0 0 C2.1385485 2.1385485 2.42655063 3.13275314 3 6 C-0.20395416 6 -2.09399739 5.25664978 -5 4 C-3.35 2.68 -1.7 1.36 0 0 Z " transform="matrix(1, 0, 0, 1, 122.99999999999999, 150)" style="fill: rgb(255, 255, 255);"/>
  <path d="M0 0 C0.66 0.66 1.32 1.32 2 2 C1.8125 4.0625 1.8125 4.0625 1 6 C0.01 6.33 -0.98 6.66 -2 7 C-2.66 5.68 -3.32 4.36 -4 3 C-3.34 3 -2.68 3 -2 3 C-1.67 2.34 -1.34 1.68 -1 1 C-0.67 0.67 -0.34 0.34 0 0 Z " transform="matrix(1, 0, 0, 1, 231, 147)" style="fill: rgb(255, 255, 255);"/>
  <path d="M0 0 C0.66 0.33 1.32 0.66 2 1 C2 1.99 2 2.98 2 4 C2.66 4.33 3.32 4.66 4 5 C2.625 6.5 2.625 6.5 1 8 C0.34 8 -0.32 8 -1 8 C-0.67 5.36 -0.34 2.72 0 0 Z " transform="matrix(1, 0, 0, 1, 86.99999999999999, 54.99999999999999)" style="fill: rgb(255, 255, 255);"/>
  <path d="M0 0 C0.99 0.33 1.98 0.66 3 1 C3.33 2.65 3.66 4.3 4 6 C3.01 6.495 3.01 6.495 2 7 C2 6.34 2 5.68 2 5 C1.34 5 0.68 5 0 5 C-0.33 4.01 -0.66 3.02 -1 2 C-0.67 1.34 -0.34 0.68 0 0 Z " transform="matrix(1, 0, 0, 1, 90.99999999999999, 186)" style="fill: rgb(255, 255, 255);"/>
  <path d="M0 0 C0 0.99 0 1.98 0 3 C-2.64 3 -5.28 3 -8 3 C-8 2.34 -8 1.68 -8 1 C-5.23735711 0.40267181 -2.83967231 0 0 0 Z " transform="matrix(1, 0, 0, 1, 279, 166)" style="fill: rgb(255, 255, 255);"/>
  <path d="M0 0 C0 0.66 0 1.32 0 2 C-0.66 2 -1.32 2 -2 2 C-2.33 2.66 -2.66 3.32 -3 4 C-5.475 3.01 -5.475 3.01 -8 2 C-5.14066998 -0.85933002 -3.8625627 -1.2875209 0 0 Z " transform="matrix(1, 0, 0, 1, 23, 146)" style="fill: rgb(255, 255, 255);"/>
  <path d="M0 0 C2.64 0 5.28 0 8 0 C7.67 1.98 7.34 3.96 7 6 C6.34 4.68 5.68 3.36 5 2 C3.68 2 2.36 2 1 2 C0.67 1.34 0.34 0.68 0 0 Z " transform="matrix(1, 0, 0, 1, 211, 145)" style="fill: rgb(255, 255, 255);"/>
  <path d="M0 0 C0 0.66 0 1.32 0 2 C-0.66 2 -1.32 2 -2 2 C-2 2.66 -2 3.32 -2 4 C-1.34 4.33 -0.68 4.66 0 5 C-2.9375 4.625 -2.9375 4.625 -6 4 C-6.33 3.34 -6.66 2.68 -7 2 C-2.25 0 -2.25 0 0 0 Z " transform="matrix(1, 0, 0, 1, 125.99999999999999, 117)" style="fill: rgb(255, 255, 255);"/>
  <path d="M0 0 C0 4 0 4 -1 6 C-2.65 5.01 -4.3 4.02 -6 3 C-2.25 0 -2.25 0 0 0 Z " transform="matrix(1, 0, 0, 1, 133, 103)" style="fill: rgb(255, 255, 255);"/>
  <path d="M0 0 C0.66 0.33 1.32 0.66 2 1 C2 2.32 2 3.64 2 5 C0.68 5.33 -0.64 5.66 -2 6 C-2.33 5.01 -2.66 4.02 -3 3 C-2.01 2.01 -1.02 1.02 0 0 Z " transform="matrix(1, 0, 0, 1, 192, 78)" style="fill: rgb(255, 255, 255);"/>
  <path d="M0 0 C4 0 4 0 5.75 1.5 C6.1625 1.995 6.575 2.49 7 3 C6.67 3.66 6.34 4.32 6 5 C4.68 5 3.36 5 2 5 C1.34 3.35 0.68 1.7 0 0 Z " transform="matrix(1, 0, 0, 1, 73.99999999999999, 78)" style="fill: rgb(255, 255, 255);"/>
  <path d="M0 0 C1.65 1.65 3.3 3.3 5 5 C4.34 5 3.68 5 3 5 C3 6.98 3 8.96 3 11 C0.43383368 7.15075052 0.44902324 4.5650696 0 0 Z " transform="matrix(1, 0, 0, 1, 85.99999999999999, 74)" style="fill: rgb(255, 255, 255);"/>
  <path d="M0 0 C0.33 0 0.66 0 1 0 C1.33 2.31 1.66 4.62 2 7 C1.01 7.66 0.02 8.32 -1 9 C-1.80967438 6.08517222 -2.21845993 4.53886783 -1.0625 1.6875 C-0.711875 1.130625 -0.36125 0.57375 0 0 Z " transform="matrix(1, 0, 0, 1, 103.99999999999999, 6)" style="fill: rgb(255, 255, 255);"/>
  <path d="M0 0 C0.66 0 1.32 0 2 0 C1.34 1.98 0.68 3.96 0 6 C-0.99 5.67 -1.98 5.34 -3 5 C-3.6875 2.9375 -3.6875 2.9375 -4 1 C-3.01 1.33 -2.02 1.66 -1 2 C-0.67 1.34 -0.34 0.68 0 0 Z " transform="matrix(1, 0, 0, 1, 192, 163)" style="fill: rgb(255, 255, 255);"/>
  <path d="M0 0 C0.66 0 1.32 0 2 0 C0.73058503 3.91402949 -0.51167694 5.79072873 -4 8 C-4 6.68 -4 5.36 -4 4 C-3.01 4 -2.02 4 -1 4 C-0.67 2.68 -0.34 1.36 0 0 Z " transform="matrix(1, 0, 0, 1, 186, 98)" style="fill: rgb(255, 255, 255);"/>
  <path d="M0 0 C0.66 0.33 1.32 0.66 2 1 C2 1.99 2 2.98 2 4 C0.02 4 -1.96 4 -4 4 C-3.67 3.01 -3.34 2.02 -3 1 C-2.01 0.67 -1.02 0.34 0 0 Z " transform="matrix(1, 0, 0, 1, 143, 92)" style="fill: rgb(255, 255, 255);"/>
  <path d="M0 0 C0.66 0 1.32 0 2 0 C1.34 2.97 0.68 5.94 0 9 C-0.33 9 -0.66 9 -1 9 C-1 7.35 -1 5.7 -1 4 C-1.66 3.67 -2.32 3.34 -3 3 C-2.34 3 -1.68 3 -1 3 C-0.67 2.01 -0.34 1.02 0 0 Z " transform="matrix(1, 0, 0, 1, 196, 74)" style="fill: rgb(255, 255, 255);"/>
  <path d="M0 0 C0.66 0.33 1.32 0.66 2 1 C1.34 2.65 0.68 4.3 0 6 C-0.66 6 -1.32 6 -2 6 C-2 4.35 -2 2.7 -2 1 C-1.34 0.67 -0.68 0.34 0 0 Z " transform="matrix(1, 0, 0, 1, 189, 108)" style="fill: rgb(255, 255, 255);"/>
  <path d="M0 0 C0.99 0 1.98 0 3 0 C2.67 1.65 2.34 3.3 2 5 C1.01 5 0.02 5 -1 5 C-0.67 3.35 -0.34 1.7 0 0 Z " transform="matrix(1, 0, 0, 1, 196, 94)" style="fill: rgb(255, 255, 255);"/>
  <path d="M0 0 C2.97 0.495 2.97 0.495 6 1 C6 1.99 6 2.98 6 4 C4.35 4.66 2.7 5.32 1 6 C1.33 5.34 1.66 4.68 2 4 C2.66 4 3.32 4 4 4 C3.04134491 1.66924071 3.04134491 1.66924071 0 0 Z " transform="matrix(1, 0, 0, 1, 149, 29.000000000000007)" style="fill: rgb(255, 255, 255);"/>
  <path style="fill: rgb(255, 255, 255);" d="M 165 180 L 169.026 180 L 176 195 L 171 195 C 171 195 170 192.171 170 192.188 C 170 192.205 163 190.982 163 191 C 163 191.018 163 196 163 196 L 159.241 194.951 Z M 166.343 184.985 L 165 189 L 170 190 L 170 188 L 168.267 185 Z"/>
  <path d="M 167.354 145.983 C 171.689 149.641 173.106 151.547 173.791 157.421 C 173.758 161.893 171.911 164.123 168.959 167.323 C 165.252 170.435 160.678 169.998 156.088 169.956 C 152.271 169.558 150.15 168.252 147.354 165.671 C 144.802 161.45 144.669 157.484 145.354 152.671 C 149.787 143.963 158.509 142.113 167.354 145.983 Z M 152.354 151.233 C 150.354 154.671 150.354 154.671 150.229 158.296 C 151.591 162.382 152.515 163.71 156.354 165.671 C 159.951 165.888 163.134 165.318 166.354 163.608 C 168.033 160.354 168.07 157.177 167.354 153.671 C 164.781 149.929 163.315 148.86 158.854 147.983 C 155.354 148.671 155.354 148.671 152.354 151.233 Z" style="fill: rgb(255, 255, 255);"/>
  <path d="M 118.246 179.805 C 119.205 179.815 120.164 179.826 121.152 179.836 C 122.591 179.821 122.591 179.821 124.059 179.805 C 126.652 180.336 126.652 180.336 128.469 182.114 C 130.432 185.8 130.113 188.187 129.652 192.336 C 128.215 194.336 128.215 194.336 125.652 195.336 C 121.303 195.967 117.902 196.098 114.09 193.774 C 112.105 190.408 112.172 188.182 112.652 184.336 C 114.23 181.42 114.95 180.48 118.246 179.805 Z M 115.84 186.774 C 115.652 189.336 115.652 189.336 117.652 192.336 C 120.419 192.53 121.037 192.574 122.784 192.466 C 123.287 192.435 123.884 192.392 124.652 192.336 C 124.864 192.124 125.045 191.943 125.201 191.77 C 125.337 191.651 125.48 191.508 125.652 191.336 C 125.624 191.327 125.596 191.317 125.568 191.308 C 126.129 190.46 126.244 189.332 126.652 185.336 C 124.652 183.336 124.652 183.336 122.215 182.586 C 119.418 182.313 117.87 182.845 116.776 184.645 C 116.735 184.542 116.693 184.439 116.652 184.336 C 116.55 184.715 116.449 185.089 116.348 185.461 C 116.169 185.854 116.001 186.29 115.84 186.774 Z" style="fill: rgb(255, 255, 255);"/>
</svg>