<?xml version="1.0" encoding="utf-8"?>
<svg version="1.1" width="284" height="200" xmlns="http://www.w3.org/2000/svg">
  <path d="M0 0 C24.75 0 49.5 0 75 0 C79.29 7.59 83.58 15.18 88 23 C91.74360812 29.39278403 91.74360812 29.39278403 95.5078125 35.7734375 C98.85870984 41.43772718 102.13985114 47.14256831 105.42236328 52.84667969 C105.8604834 53.60625977 106.29860352 54.36583984 106.75 55.1484375 C107.13671875 55.82052246 107.5234375 56.49260742 107.921875 57.18505859 C108.89474689 58.8228144 109.94333998 60.41500997 111 62 C110.66563986 65.89539574 109.24610448 68.67654178 107.26171875 72 C106.69477295 72.95914307 106.12782715 73.91828613 105.54370117 74.90649414 C104.93115479 75.92735107 104.3186084 76.94820801 103.6875 78 C102.40535808 80.16483658 101.12412457 82.33021141 99.84375 84.49609375 C98.87501953 86.12973877 98.87501953 86.12973877 97.88671875 87.79638672 C94.64271475 93.30464506 91.49386579 98.86669807 88.34838867 104.43164062 C87.46679201 105.98389485 86.56686842 107.5259016 85.64781189 109.05627441 C84.40175548 111.28228587 83.36212622 113.41369216 82.34481812 115.73901367 C80.39942798 119.89087244 78.38447809 123.83718257 75 127 C69.20153091 129.06701733 63.79515302 128.76615362 57.71484375 128.46484375 C56.04628588 128.43682477 54.37760358 128.4154926 52.70887756 128.40052795 C48.34066979 128.34356017 43.98008563 128.19656816 39.61486816 128.02996826 C35.15119609 127.87580642 30.68627644 127.80786779 26.22070312 127.73242188 C17.47699003 127.5721035 8.73944599 127.31654777 0 127 C-0.39863754 126.26779739 -0.79727509 125.53559479 -1.20799255 124.78120422 C-1.73804398 123.80837997 -2.2680954 122.83555573 -2.81420898 121.83325195 C-3.33659653 120.87417435 -3.85898407 119.91509674 -4.39720154 118.92695618 C-12.41612181 104.28317607 -20.79094443 89.84333734 -29.3203125 75.4921875 C-29.78856445 74.69651367 -30.25681641 73.90083984 -30.73925781 73.08105469 C-31.73807055 71.43235605 -32.8203377 69.83425695 -33.9296875 68.2578125 C-35.4201233 65.1137545 -34.79306867 63.36157307 -34 60 C-32.63989258 57.12939453 -32.63989258 57.12939453 -30.89453125 54.1328125 C-30.24709961 53.01100586 -29.59966797 51.88919922 -28.93261719 50.73339844 C-28.22606625 49.53050802 -27.51935695 48.32771062 -26.8125 47.125 C-26.09064273 45.88101432 -25.36962402 44.63654169 -24.64941406 43.39160156 C-22.44485965 39.58739089 -20.22343781 35.79319463 -18 32 C-17.3121924 30.82462902 -16.62452564 29.6491756 -15.93701172 28.47363281 C-14.96078857 26.80445801 -14.96078857 26.80445801 -13.96484375 25.1015625 C-13.33795654 24.02890137 -12.71106934 22.95624023 -12.06518555 21.85107422 C-10.88661365 19.8375947 -9.70467642 17.82607989 -8.51879883 15.81689453 C-7.98150146 14.90278809 -7.4442041 13.98868164 -6.890625 13.046875 C-6.42688477 12.26151367 -5.96314453 11.47615234 -5.48535156 10.66699219 C-3.53994 7.1739488 -1.78807037 3.57614074 0 0 Z " fill="#FAFAFA" transform="translate(104,5)"/>
  <path d="M0 0 C24.75 0 49.5 0 75 0 C79.29 7.59 83.58 15.18 88 23 C91.74360812 29.39278403 91.74360812 29.39278403 95.5078125 35.7734375 C98.85870984 41.43772718 102.13985114 47.14256831 105.42236328 52.84667969 C105.8604834 53.60625977 106.29860352 54.36583984 106.75 55.1484375 C107.13671875 55.82052246 107.5234375 56.49260742 107.921875 57.18505859 C108.89474689 58.8228144 109.94333998 60.41500997 111 62 C110.66563986 65.89539574 109.24610448 68.67654178 107.26171875 72 C106.69477295 72.95914307 106.12782715 73.91828613 105.54370117 74.90649414 C104.93115479 75.92735107 104.3186084 76.94820801 103.6875 78 C102.40535808 80.16483658 101.12412457 82.33021141 99.84375 84.49609375 C98.87501953 86.12973877 98.87501953 86.12973877 97.88671875 87.79638672 C94.64271475 93.30464506 91.49386579 98.86669807 88.34838867 104.43164062 C87.46679201 105.98389485 86.56686842 107.5259016 85.64781189 109.05627441 C84.40175548 111.28228587 83.36212622 113.41369216 82.34481812 115.73901367 C80.39942798 119.89087244 78.38447809 123.83718257 75 127 C69.20153091 129.06701733 63.79515302 128.76615362 57.71484375 128.46484375 C56.04628588 128.43682477 54.37760358 128.4154926 52.70887756 128.40052795 C48.34066979 128.34356017 43.98008563 128.19656816 39.61486816 128.02996826 C35.15119609 127.87580642 30.68627644 127.80786779 26.22070312 127.73242188 C17.47699003 127.5721035 8.73944599 127.31654777 0 127 C-0.39863754 126.26779739 -0.79727509 125.53559479 -1.20799255 124.78120422 C-1.73804398 123.80837997 -2.2680954 122.83555573 -2.81420898 121.83325195 C-3.33659653 120.87417435 -3.85898407 119.91509674 -4.39720154 118.92695618 C-12.41612181 104.28317607 -20.79094443 89.84333734 -29.3203125 75.4921875 C-29.78856445 74.69651367 -30.25681641 73.90083984 -30.73925781 73.08105469 C-31.73807055 71.43235605 -32.8203377 69.83425695 -33.9296875 68.2578125 C-35.4201233 65.1137545 -34.79306867 63.36157307 -34 60 C-32.63989258 57.12939453 -32.63989258 57.12939453 -30.89453125 54.1328125 C-30.24709961 53.01100586 -29.59966797 51.88919922 -28.93261719 50.73339844 C-28.22606625 49.53050802 -27.51935695 48.32771062 -26.8125 47.125 C-26.09064273 45.88101432 -25.36962402 44.63654169 -24.64941406 43.39160156 C-22.44485965 39.58739089 -20.22343781 35.79319463 -18 32 C-17.3121924 30.82462902 -16.62452564 29.6491756 -15.93701172 28.47363281 C-14.96078857 26.80445801 -14.96078857 26.80445801 -13.96484375 25.1015625 C-13.33795654 24.02890137 -12.71106934 22.95624023 -12.06518555 21.85107422 C-10.88661365 19.8375947 -9.70467642 17.82607989 -8.51879883 15.81689453 C-7.98150146 14.90278809 -7.4442041 13.98868164 -6.890625 13.046875 C-6.42688477 12.26151367 -5.96314453 11.47615234 -5.48535156 10.66699219 C-3.53994 7.1739488 -1.78807037 3.57614074 0 0 Z M3 4 C0.8436686 7.7724028 -1.31251792 11.54488835 -3.46858215 15.31744385 C-4.19887069 16.5952161 -4.92919576 17.87296748 -5.65956116 19.1506958 C-14.71190085 34.98651332 -14.71190085 34.98651332 -23.71630859 50.84960938 C-25 53 -25 53 -26.47509766 55.10351562 C-28.79425594 58.43187075 -29.97144945 60.28623614 -30.13671875 64.41796875 C-28.63640571 69.14575934 -26.38597116 73.09119355 -23.8125 77.3125 C-23.34263672 78.10333984 -22.87277344 78.89417969 -22.38867188 79.70898438 C-20.45583209 82.95499499 -18.49512542 86.18384377 -16.53564453 89.41381836 C-12.64702091 95.85222212 -8.92956607 102.37772188 -5.25 108.9375 C-4.11044524 110.96804891 -2.96986695 112.99802385 -1.828125 115.02734375 C-1.3321582 115.91156006 -0.83619141 116.79577637 -0.32519531 117.70678711 C0.71735118 119.51088423 1.84418931 121.26628397 3 123 C5.93784738 123.51692345 5.93784738 123.51692345 9.44995117 123.51513672 C10.11199554 123.53324402 10.77403992 123.55135132 11.45614624 123.57000732 C13.65179299 123.62412521 15.84681188 123.65422868 18.04296875 123.6796875 C18.79364435 123.69066593 19.54431995 123.70164436 20.3177433 123.71295547 C24.29393672 123.76969405 28.26981254 123.80750653 32.24633789 123.83056641 C36.34586742 123.85813444 40.44117119 123.95085341 44.5392561 124.05888176 C47.69731937 124.12999504 50.85438328 124.15176389 54.01317787 124.16046524 C55.52322564 124.17319734 57.03323947 124.20438112 58.54250145 124.25472641 C63.19657862 124.39989783 67.49471688 124.35274007 72 123 C75.35894411 119.73811004 77.12026138 116.24288929 79 112 C79.94438512 110.34644509 80.90380056 108.70125669 81.88671875 107.0703125 C82.82305959 105.42343384 83.75658803 103.77495345 84.6875 102.125 C85.72129205 100.30465222 86.75514823 98.48434086 87.7890625 96.6640625 C88.3140332 95.73754883 88.83900391 94.81103516 89.37988281 93.85644531 C92.09736641 89.06522197 94.83015508 84.28275835 97.5625 79.5 C98.06289795 78.62230957 98.5632959 77.74461914 99.07885742 76.84033203 C99.54912354 76.01645996 100.01938965 75.19258789 100.50390625 74.34375 C100.93719238 73.57804687 101.37047852 72.81234375 101.81689453 72.0234375 C102.77761847 70.38033391 103.8277842 68.7897693 104.90234375 67.21875 C106.33769107 64.31740737 105.84246214 63.08597856 105 60 C103.95063154 57.7832321 103.95063154 57.7832321 102.5859375 55.61328125 C102.07933594 54.76975098 101.57273438 53.9262207 101.05078125 53.05712891 C100.49777344 52.15140137 99.94476563 51.24567383 99.375 50.3125 C98.19387807 48.34851819 97.0142552 46.38363427 95.8359375 44.41796875 C95.21299805 43.38075684 94.59005859 42.34354492 93.94824219 41.27490234 C89.92277628 34.50828584 86.02764015 27.66536158 82.11474609 20.83325195 C81.52000488 19.79773193 80.92526367 18.76221191 80.3125 17.6953125 C79.79300781 16.78797363 79.27351563 15.88063477 78.73828125 14.94580078 C78.16464844 13.97368652 77.59101563 13.00157227 77 12 C76.74555618 11.30473206 76.49111237 10.60946411 76.22895813 9.89312744 C75.09307533 7.29547536 74.18769528 5.82713455 72 4 C66.81846665 2.84657805 61.68786449 3.06912118 56.41796875 3.21875 C54.87814781 3.23368008 53.33828874 3.2450635 51.79841614 3.25305176 C47.75483374 3.28352784 43.71356829 3.36204431 39.67089844 3.45068359 C35.54198554 3.53267734 31.41269633 3.56909164 27.28320312 3.609375 C19.1877414 3.69504947 11.09415928 3.83149407 3 4 Z " fill="#626262" transform="translate(104,5)"/>
  <path d="M0 0 C3.7430002 1.45784775 5.02695709 3.20636863 6.9453125 6.68359375 C7.46480469 7.61107422 7.98429687 8.53855469 8.51953125 9.49414062 C9.04933594 10.46544922 9.57914062 11.43675781 10.125 12.4375 C11.18943874 14.35323447 12.25451561 16.26861454 13.3203125 18.18359375 C13.78711426 19.03493896 14.25391602 19.88628418 14.73486328 20.76342773 C15.74764474 22.55387369 16.85895824 24.28843736 18 26 C17.66563986 29.89539574 16.24610448 32.67654178 14.26171875 36 C13.69477295 36.95914307 13.12782715 37.91828613 12.54370117 38.90649414 C11.93115479 39.92735107 11.3186084 40.94820801 10.6875 42 C9.40535808 44.16483658 8.12412457 46.33021141 6.84375 48.49609375 C6.19792969 49.58519043 5.55210937 50.67428711 4.88671875 51.79638672 C1.64271475 57.30464506 -1.50613421 62.86669807 -4.65161133 68.43164062 C-5.53292439 69.9833955 -6.4317031 71.52537796 -7.34877014 73.05627441 C-8.59531709 75.27855264 -9.65247272 77.42234159 -10.6859436 79.73901367 C-15.62061566 90.11469408 -15.62061566 90.11469408 -21.54881287 92.32041931 C-25.84046263 92.92402061 -30.09723386 92.69099049 -34.41015625 92.46484375 C-35.98902753 92.43682123 -37.56803042 92.41549071 -39.14707947 92.40052795 C-43.27875996 92.34358406 -47.40236794 92.19662633 -51.53088379 92.02996826 C-55.75320165 91.87574647 -59.97684199 91.80785591 -64.20117188 91.73242188 C-72.47112984 91.57214795 -80.73455776 91.31663318 -89 91 C-89 90.01 -89 89.02 -89 88 C-66.23 88 -43.46 88 -20 88 C-19.67 86.35 -19.34 84.7 -19 83 C-17.85180664 80.59082031 -17.85180664 80.59082031 -16.41015625 78.078125 C-15.87801514 77.14347412 -15.34587402 76.20882324 -14.79760742 75.24584961 C-13.93872925 73.76290405 -13.93872925 73.76290405 -13.0625 72.25 C-12.47637939 71.22592041 -11.89025879 70.20184082 -11.28637695 69.14672852 C-7.79125186 63.05487148 -4.25202502 56.98896889 -0.6875 50.9375 C-0.29014648 50.26138672 0.10720703 49.58527344 0.51660156 48.88867188 C2.46282626 45.58315354 4.42927695 42.29256398 6.4296875 39.01953125 C7.18254712 37.76317388 7.93516324 36.50667055 8.6875 35.25 C9.68330078 33.61804688 9.68330078 33.61804688 10.69921875 31.953125 C12.20814741 28.52744913 12.00572868 27.51539114 11 24 C9.90236603 21.8403955 9.90236603 21.8403955 8.49609375 19.78515625 C8.00302734 19.01623047 7.50996094 18.24730469 7.00195312 17.45507812 C5.95959946 15.86096672 4.91272131 14.26980456 3.86132812 12.68164062 C1.07212105 8.31322325 -0.75152899 5.38163866 0 0 Z " fill="#616161" transform="translate(197,41)"/>
  <path d="M0 0 C3.56064719 3.46694595 4.21704305 5.86456129 4.75 10.75 C4.20549575 15.92279033 2.10609708 18.73877538 -1.6875 22.1875 C-6.31002437 23.95782848 -10.74398149 23.9637796 -15.625 23.3125 C-19.79760474 21.26279943 -21.89965061 19.57965877 -23.625 15.3125 C-24.26510706 11.22929077 -24.55823987 7.10360268 -22.609375 3.36328125 C-17.17194142 -3.4007551 -7.47497726 -3.47973079 0 0 Z " fill="#5C5C5C" transform="translate(167.625,146.6875)"/>
  <path d="M0 0 C2.97 0 5.94 0 9 0 C11 4.66666667 13 9.33333333 15 14 C15.98219627 12.23084525 16.96065359 10.45961431 17.9375 8.6875 C18.75541016 7.20830078 18.75541016 7.20830078 19.58984375 5.69921875 C21.08354232 3.01437784 21.08354232 3.01437784 22 0 C24.97 0 27.94 0 31 0 C31 8.25 31 16.5 31 25 C28.36 25 25.72 25 23 25 C23 20.38 23 15.76 23 11 C20.69 15.29 18.38 19.58 16 24 C13 23 13 23 11.39453125 20.27734375 C10.87246094 19.17519531 10.35039062 18.07304687 9.8125 16.9375 C9.28269531 15.83277344 8.75289062 14.72804687 8.20703125 13.58984375 C7.80871094 12.73519531 7.41039062 11.88054687 7 11 C6.97305149 12.95825873 6.95362782 14.91662226 6.9375 16.875 C6.92589844 17.96554688 6.91429687 19.05609375 6.90234375 20.1796875 C6.80255697 22.95177546 6.80255697 22.95177546 8 25 C5.36 25 2.72 25 0 25 C0 16.75 0 8.5 0 0 Z " fill="#5F5F5F" transform="translate(176,145)"/>
  <path d="M0 0 C3.9290625 -0.0309375 3.9290625 -0.0309375 7.9375 -0.0625 C8.7637085 -0.071604 9.58991699 -0.08070801 10.44116211 -0.09008789 C12.29433759 -0.09723945 14.14749308 -0.0502852 16 0 C16.33 0.33 16.66 0.66 17 1 C20.07558863 1.07247337 23.13915403 0.99615439 26.21484375 0.9375 C29 1 29 1 31 2 C31 2.99 31 3.98 31 5 C28.03 4.67 25.06 4.34 22 4 C21.67 4.66 21.34 5.32 21 6 C21.62648437 6.04898438 22.25296875 6.09796875 22.8984375 6.1484375 C23.71570313 6.22320312 24.53296875 6.29796875 25.375 6.375 C26.59316406 6.47941406 26.59316406 6.47941406 27.8359375 6.5859375 C30 7 30 7 32 9 C31.67028521 12.29714793 31.3773161 13.6226839 29 16 C26.6875 16.23046875 26.6875 16.23046875 24 16.1875 C22.6696875 16.17783203 22.6696875 16.17783203 21.3125 16.16796875 C19 16 19 16 17 15 C16.67 15.66 16.34 16.32 16 17 C11.05 16.67 6.1 16.34 1 16 C0.67 10.72 0.34 5.44 0 0 Z " fill="#F0F0F0" transform="translate(191,179)"/>
  <path d="M0 0 C2.97 0 5.94 0 9 0 C10.6875 2.0625 10.6875 2.0625 12 5 C12.96556109 6.23602638 13.96876097 7.44321512 15 8.625 C15.495 9.19476563 15.99 9.76453125 16.5 10.3515625 C17.95143261 11.94662647 19.47505972 13.47505972 21 15 C21 10.05 21 5.1 21 0 C23.31 0 25.62 0 28 0 C28 8.25 28 16.5 28 25 C25.36 25 22.72 25 20 25 C19.2265625 23.4840625 19.2265625 23.4840625 18.4375 21.9375 C15.76317213 17.23106636 11.9112161 12.45560805 7 10 C7.33 14.95 7.66 19.9 8 25 C5.36 25 2.72 25 0 25 C0 16.75 0 8.5 0 0 Z " fill="#585858" transform="translate(223,145)"/>
  <path d="M0 0 C2.97 0 5.94 0 9 0 C8.67 0.99 8.34 1.98 8 3 C8.56203125 3.22429687 9.1240625 3.44859375 9.703125 3.6796875 C14.3331685 6.34117509 17.53498602 11.02542514 21 15 C21 10.05 21 5.1 21 0 C23.31 0 25.62 0 28 0 C28 8.25 28 16.5 28 25 C25.36 25 22.72 25 20 25 C19.938125 24.443125 19.87625 23.88625 19.8125 23.3125 C17.84307268 17.70720685 11.44159211 13.74487178 7 10 C7.33 14.95 7.66 19.9 8 25 C5.36 25 2.72 25 0 25 C0 16.75 0 8.5 0 0 Z " fill="#6A6A6A" transform="translate(112,145)"/>
  <path d="M0 0 C2.97 0 5.94 0 9 0 C9.33 1.32 9.66 2.64 10 4 C11.81042507 6.02225327 13.60349758 7.88637972 15.5625 9.75 C16.08263672 10.25660156 16.60277344 10.76320312 17.13867188 11.28515625 C18.41910084 12.53034405 19.70867554 13.76611502 21 15 C21 10.05 21 5.1 21 0 C23.31 0 25.62 0 28 0 C28 8.25 28 16.5 28 25 C25.36 25 22.72 25 20 25 C18.5 23 18.5 23 17 20 C15.01421096 17.87797179 12.9390745 15.87650706 10.83984375 13.8671875 C9 12 9 12 7 9 C7 14.28 7 19.56 7 25 C4.69 25 2.38 25 0 25 C0 16.75 0 8.5 0 0 Z " fill="#656565" transform="translate(43,145)"/>
  <path d="M0 0 C4.05732886 4.63001403 6.88448283 9.84298631 9.875 15.1875 C12.84833797 20.46878701 15.82289454 25.74170421 18.95703125 30.9296875 C22.34539232 36.54096845 25.58627761 42.23183189 28.8125 47.9375 C29.39708984 48.96423828 29.98167969 49.99097656 30.58398438 51.04882812 C31.14021484 52.03173828 31.69644531 53.01464844 32.26953125 54.02734375 C33.02133667 55.35366821 33.02133667 55.35366821 33.78833008 56.70678711 C35 59 35 59 36 62 C70.65 61.505 70.65 61.505 106 61 C106 61.66 106 62.32 106 63 C83.23 63 60.46 63 37 63 C37 63.99 37 64.98 37 66 C35.68 66 34.36 66 33 66 C32.63720947 65.33137939 32.27441895 64.66275879 31.90063477 63.97387695 C28.29767643 57.34889613 24.64616683 50.75386256 20.9375 44.1875 C20.38602295 43.21063232 19.8345459 42.23376465 19.26635742 41.22729492 C14.6567319 33.09415635 9.9282368 25.03477841 5.13842773 17.0065918 C4.62481689 16.14461182 4.11120605 15.28263184 3.58203125 14.39453125 C3.13061768 13.64018799 2.6792041 12.88584473 2.21411133 12.10864258 C-0.47553807 7.43731705 -1.23827133 5.44839387 0 0 Z " fill="#626262" transform="translate(71,66)"/>
  <path d="M0 0 C0 1.98 0 3.96 0 6 C-5.61 5.67 -11.22 5.34 -17 5 C-17 6.98 -17 8.96 -17 11 C-11.06 10.505 -11.06 10.505 -5 10 C-5 11.98 -5 13.96 -5 16 C-8.96 15.67 -12.92 15.34 -17 15 C-17 16.98 -17 18.96 -17 21 C-11.06 21 -5.12 21 1 21 C1 22.98 1 24.96 1 27 C-6.92 26.67 -14.84 26.34 -23 26 C-23.33 17.75 -23.66 9.5 -24 1 C-20.225625 0.835 -16.45125 0.67 -12.5625 0.5 C-11.37084229 0.44779297 -10.17918457 0.39558594 -8.95141602 0.34179688 C-7.55427368 0.28088867 -7.55427368 0.28088867 -6.12890625 0.21875 C-5.17056885 0.17685547 -4.21223145 0.13496094 -3.22485352 0.09179688 C-1 0 -1 0 0 0 Z " fill="#6B6B6B" transform="translate(99,144)"/>
  <path d="M0 0 C0 1.98 0 3.96 0 6 C-5.61 5.67 -11.22 5.34 -17 5 C-17 6.98 -17 8.96 -17 11 C-11.06 10.505 -11.06 10.505 -5 10 C-5 11.98 -5 13.96 -5 16 C-8.96 15.67 -12.92 15.34 -17 15 C-17 16.98 -17 18.96 -17 21 C-11.06 21 -5.12 21 1 21 C1 22.98 1 24.96 1 27 C-7.25 26.67 -15.5 26.34 -24 26 C-24 17.75 -24 9.5 -24 1 C-20.225625 0.835 -16.45125 0.67 -12.5625 0.5 C-11.37084229 0.44779297 -10.17918457 0.39558594 -8.95141602 0.34179688 C-7.55427368 0.28088867 -7.55427368 0.28088867 -6.12890625 0.21875 C-5.17056885 0.17685547 -4.21223145 0.13496094 -3.22485352 0.09179688 C-1 0 -1 0 0 0 Z " fill="#707070" transform="translate(279,144)"/>
  <path d="M0 0 C1.11375 0.495 1.11375 0.495 2.25 1 C1.92 2.65 1.59 4.3 1.25 6 C-1.75 6 -1.75 6 -4.75 4 C-7.26584891 3.75849227 -7.26584891 3.75849227 -9.9375 3.875 C-11.28908203 3.90207031 -11.28908203 3.90207031 -12.66796875 3.9296875 C-13.69857422 3.96449219 -13.69857422 3.96449219 -14.75 4 C-14.75 5.32 -14.75 6.64 -14.75 8 C-13.595 7.938125 -12.44 7.87625 -11.25 7.8125 C-6.52179373 7.79564365 -3.05991237 9.10968756 1.25 11 C2.25 12 2.25 12 2.5 15.875 C2.4520808 19.70169024 2.4520808 19.70169024 0.9375 21.9375 C-3.80820516 24.92553659 -9.35588552 24.33040872 -14.75 24 C-18.4375 23 -18.4375 23 -20.75 22 C-20.42 20.35 -20.09 18.7 -19.75 17 C-16.75 17 -16.75 17 -15.0625 18 C-11.59181892 19.50083506 -8.51260704 19.12542023 -4.75 19 C-4.09 17.68 -3.43 16.36 -2.75 15 C-3.48605469 14.96261719 -4.22210937 14.92523438 -4.98046875 14.88671875 C-15.57719547 14.17280453 -15.57719547 14.17280453 -19.75 10 C-20.21740995 4.20411664 -20.21740995 4.20411664 -19.75 2 C-14.80504215 -3.20214242 -6.34258972 -1.69135726 0 0 Z " fill="#5D5D5D" transform="translate(24.75,146)"/>
  <path d="M0 0 C3.125 1 3.125 1 5 2 C5.33 1.34 5.66 0.68 6 0 C7.32 0 8.64 0 10 0 C10 4.95 10 9.9 10 15 C8.35 15 6.7 15 5 15 C5 14.34 5 13.68 5 13 C4.38125 13.33 3.7625 13.66 3.125 14 C-1.18087205 15.37787906 -5.51864554 15.70638299 -10 15 C-11.95269182 13.43697089 -12.88214179 12.23571643 -14 10 C-14.37252607 6.57276017 -14.36781772 4.63532152 -12.625 1.625 C-8.569253 -0.88570052 -4.64707815 -0.52551772 0 0 Z " fill="#F6F6F6" transform="translate(146,180)"/>
  <path d="M0 0 C-13.72828022 5.6115598 -28.73121933 5.79750849 -42.98046875 1.8515625 C-45 1 -45 1 -46 -1 C-44.64870353 -1.48720213 -43.29375684 -1.96428184 -41.9375 -2.4375 C-40.80634766 -2.83775391 -40.80634766 -2.83775391 -39.65234375 -3.24609375 C-27.60185013 -6.67134451 -10.77491276 -7.18327517 0 0 Z " fill="#616161" transform="translate(165,120)"/>
  <path d="M0 0 C9.24572437 -0.3415908 17.36997109 1.66434141 26.171875 4.1953125 C26.171875 4.8553125 26.171875 5.5153125 26.171875 6.1953125 C12.36372435 10.42846817 -5.21579632 11.93513388 -18.828125 6.1953125 C-19.158125 5.5353125 -19.488125 4.8753125 -19.828125 4.1953125 C-13.19505989 1.75397604 -7.03504983 0.48584598 0 0 Z " fill="#A1A1A2" transform="translate(138.828125,12.8046875)"/>
  <path d="M0 0 C-0.48227563 14.22713101 -8.74984745 26.63977978 -18.375 36.6875 C-21 39 -21 39 -23 39 C-21.98408579 33.53135543 -20.92908943 28.23609987 -19 23 C-18.34 23 -17.68 23 -17 23 C-16.64035156 21.45892578 -16.64035156 21.45892578 -16.2734375 19.88671875 C-15.13356502 15.90718152 -13.17541846 13.08737287 -10.625 9.8125 C-9.46871094 8.30623047 -9.46871094 8.30623047 -8.2890625 6.76953125 C-2.69393512 0 -2.69393512 0 0 0 Z " fill="#9F9FA1" transform="translate(197,75)"/>
  <path d="M0 0 C-1.07245873 14.74630754 -10.2964763 29.14665436 -21 39 C-21.66 39 -22.32 39 -23 39 C-22.43618135 24.90453373 -14.12231361 12.24993303 -4.625 2.3125 C-2 0 -2 0 0 0 Z " fill="#5C5C5C" transform="translate(109,24)"/>
  <path d="M0 0 C1.17219543 0.78345715 2.33763668 1.57702836 3.5 2.375 C4.47453125 3.03628906 4.47453125 3.03628906 5.46875 3.7109375 C5.9740625 4.13632812 6.479375 4.56171875 7 5 C7 5.66 7 6.32 7 7 C7.66 7 8.32 7 9 7 C10.56393574 9.09531159 11.98359647 11.16843363 13.375 13.375 C13.77984619 14.01405273 14.18469238 14.65310547 14.60180664 15.31152344 C19.68159384 23.50413189 22.46175692 31.48718094 24 41 C11.50026422 31.10437584 2.6516674 17.58710999 0.19140625 1.66015625 C0.09666016 0.83837891 0.09666016 0.83837891 0 0 Z " fill="#5E5E5E" transform="translate(174,23)"/>
  <path d="M0 0 C10.47096885 4.46761338 16.96570191 17.78570775 21.25390625 27.75 C22.49016565 31.47819588 22.75170514 35.08935589 23 39 C12.30870124 33.14656009 6.38349633 20.99009223 2 10 C1.03188985 6.67162131 0.33167283 3.44939747 0 0 Z " fill="#A0A0A2" transform="translate(86,75)"/>
  <path d="M0 0 C1.9375 1.0625 1.9375 1.0625 3 3 C3.75757576 9.81818182 3.75757576 9.81818182 1.4375 13.4375 C-1.83565762 15.53567796 -4.11417724 16 -8 16 C-10.9375 14.625 -10.9375 14.625 -13 12 C-13.58325132 8.91710015 -13.67824408 6.06905448 -13 3 C-9.36143532 -1.64340086 -5.42150801 -1.16175172 0 0 Z " fill="#F9F9F9" transform="translate(163,150)"/>
  <path d="M0 0 C6.87521001 0.08270929 6.87521001 0.08270929 10.28515625 2.03125 C12.29056847 5.67745405 11.93536571 8.40310813 11.66015625 12.53125 C11.00015625 12.53125 10.34015625 12.53125 9.66015625 12.53125 C9.66015625 13.19125 9.66015625 13.85125 9.66015625 14.53125 C6.19777538 16.26244043 2.4459797 16.00195629 -1.33984375 15.53125 C-3.90234375 13.96875 -3.90234375 13.96875 -5.33984375 11.53125 C-5.79330308 7.90357534 -5.91980641 5.57220861 -4.12109375 2.34375 C-2.33984375 0.53125 -2.33984375 0.53125 0 0 Z " fill="#A6A6A6" transform="translate(118.33984375,179.46875)"/>
  <path d="M0 0 C23.43 0 46.86 0 71 0 C71 0.99 71 1.98 71 3 C47.57 3 24.14 3 0 3 C0 2.01 0 1.02 0 0 Z " fill="#585858" transform="translate(108,129)"/>
  <path d="M0 0 C8.45992324 3.75996588 11.96701781 9.96594886 15.3125 18.25 C15.98880162 20.9552065 16.16325424 23.22467785 16 26 C10.842963 25.06338278 8.10427526 22.07436128 5 18 C1.80700171 12.02909319 -0.33532505 6.83859869 0 0 Z " fill="#5B5B5B" transform="translate(166,37)"/>
  <path d="M0 0 C0.66588293 7.82412446 -2.05310914 13.86671963 -6.9375 19.9375 C-9.35113819 22.59065954 -11.46496737 24.06425607 -15 25 C-15.60937426 17.8398524 -13.58367837 12.41229683 -9.24609375 6.68359375 C-3.51900716 0 -3.51900716 0 0 0 Z " fill="#5B5B5B" transform="translate(117,38)"/>
  <path d="M0 0 C-2.08813525 2.48969972 -3.46544814 3.8472709 -6.625 4.75 C-14.61034292 5.34150688 -20.58867283 5.29392319 -28 2 C-28 1.01 -28 0.02 -28 -1 C-17.75835937 -5.55184028 -10.051096 -4.79030958 0 0 Z " fill="#A1A1A3" transform="translate(156,31)"/>
  <path d="M0 0 C0.66588293 7.82412446 -2.05310914 13.86671963 -6.9375 19.9375 C-9.35113819 22.59065954 -11.46496737 24.06425607 -15 25 C-14.80929456 16.69564503 -13.03937205 10.21310848 -7.18359375 4.10546875 C-2.57816159 0 -2.57816159 0 0 0 Z " fill="#A1A1A2" transform="translate(181,75)"/>
  <path d="M0 0 C1.06250977 0.00193359 1.06250977 0.00193359 2.14648438 0.00390625 C7.48701642 0.10216811 11.44244263 0.93997131 16.1875 3.3125 C16.1875 3.9725 16.1875 4.6325 16.1875 5.3125 C7.85906725 8.8457745 -0.92056603 10.02454625 -9.5625 6.8125 C-10.635 6.3175 -11.7075 5.8225 -12.8125 5.3125 C-12.8125 4.3225 -12.8125 3.3325 -12.8125 2.3125 C-8.55987503 0.23986142 -4.65121702 -0.03480799 0 0 Z " fill="#5C5C5C" transform="translate(140.8125,101.6875)"/>
  <path d="M0 0 C6.13179305 1.48649528 9.92544093 6.64430972 13.11328125 11.80078125 C15.28613635 16.28036405 15.25508319 20.15341943 15 25 C9.02523612 22.43365847 4.42696864 17.2259852 1.81640625 11.32421875 C0.58776489 7.35611866 0 4.18369523 0 0 Z " fill="#9F9FA1" transform="translate(102,75)"/>
  <path d="M0 0 C2.31 0 4.62 0 7 0 C7 8.25 7 16.5 7 25 C4.36 25 1.72 25 -1 25 C-1.061875 24.443125 -1.12375 23.88625 -1.1875 23.3125 C-2.32778978 20.06705986 -4.56296168 18.37611236 -7 16 C-7.33 15.01 -7.66 14.02 -8 13 C-6.576875 13.495 -6.576875 13.495 -5.125 14 C-2.22937548 15.10159191 -2.22937548 15.10159191 0 15 C0 10.05 0 5.1 0 0 Z " fill="#5D5D5D" transform="translate(133,145)"/>
  <path d="M0 0 C0.66 0.33 1.32 0.66 2 1 C4.37783105 0.91161539 6.75345146 0.75653579 9.125 0.5625 C10.40632813 0.46066406 11.68765625 0.35882813 13.0078125 0.25390625 C13.99523437 0.17011719 14.98265625 0.08632812 16 0 C16 1.98 16 3.96 16 6 C12.04 5.67 8.08 5.34 4 5 C4 7.31 4 9.62 4 12 C9.61 12 15.22 12 21 12 C21 12.99 21 13.98 21 15 C17.52085059 15.02887814 14.04173169 15.04675687 10.5625 15.0625 C9.07266602 15.07506836 9.07266602 15.07506836 7.55273438 15.08789062 C6.60849609 15.09111328 5.66425781 15.09433594 4.69140625 15.09765625 C3.81685791 15.10289307 2.94230957 15.10812988 2.04125977 15.11352539 C0 15 0 15 -1 14 C-1.0989294 11.83519203 -1.129711 9.66706215 -1.125 7.5 C-1.12757813 6.3140625 -1.13015625 5.128125 -1.1328125 3.90625 C-1 1 -1 1 0 0 Z " fill="#585858" transform="translate(258,154)"/>
  <path d="M0 0 C2.31 0 4.62 0 7 0 C7 8.25 7 16.5 7 25 C4.36 25 1.72 25 -1 25 C-2.72264494 21.70450534 -4.29445932 18.66881155 -5 15 C-4.01 15 -3.02 15 -2 15 C-1.67 14.34 -1.34 13.68 -1 13 C-0.67 13.66 -0.34 14.32 0 15 C0 10.05 0 5.1 0 0 Z " fill="#5D5D5D" transform="translate(244,145)"/>
  <path d="M0 0 C2.64 0 5.28 0 8 0 C8 8.25 8 16.5 8 25 C5.36 25 2.72 25 0 25 C0 16.75 0 8.5 0 0 Z " fill="#727272" transform="translate(31,145)"/>
  <path d="M0 0 C2.64 0 5.28 0 8 0 C8 8.25 8 16.5 8 25 C5.69 25 3.38 25 1 25 C0.67 16.75 0.34 8.5 0 0 Z " fill="#666666" transform="translate(211,145)"/>
  <path d="M0 0 C2.27138348 2.93301771 4.26869942 5.95068793 6.1875 9.125 C6.71730469 9.99382812 7.24710938 10.86265625 7.79296875 11.7578125 C9 14 9 14 9 16 C43.65 15.505 43.65 15.505 79 15 C79 15.66 79 16.32 79 17 C56.23 17 33.46 17 10 17 C10 17.99 10 18.98 10 20 C8.68 20 7.36 20 6 20 C5.03810003 18.27281484 4.08063492 16.54315942 3.125 14.8125 C2.59132813 13.84957031 2.05765625 12.88664062 1.5078125 11.89453125 C0.1576322 9.30260482 -0.97098329 6.73238902 -2 4 C-1.34 4 -0.68 4 0 4 C0 2.68 0 1.36 0 0 Z " fill="#727272" transform="translate(98,112)"/>
  <path d="M0 0 C2.51083114 1.25541557 2.87125446 2.50063488 4 5 C3.175 5.309375 2.35 5.61875 1.5 5.9375 C-1.15137386 7.69791387 -1.15137386 7.69791387 -1.47265625 10.0625 C-1.62668898 14.13432166 -1.55943224 16.28322744 1 19.5625 C1.66 20.036875 2.32 20.51125 3 21 C2.34 21.66 1.68 22.32 1 23 C1.33 23.66 1.66 24.32 2 25 C-1.7552497 24.14653416 -3.69674341 23.31921746 -6.375 20.5 C-8.52493952 15.86936104 -8.96057703 12.0226782 -8 7 C-6.09375579 3.3839566 -3.9408468 1.3136156 0 0 Z " fill="#636363" transform="translate(152,145)"/>
  <path d="M0 0 C0.99 0.66 1.98 1.32 3 2 C2.67 2.66 2.34 3.32 2 4 C-2.455 3.01 -2.455 3.01 -7 2 C-7 2.99 -7 3.98 -7 5 C-2.545 5.99 -2.545 5.99 2 7 C2.6875 9.3125 2.6875 9.3125 3 12 C1.8046875 13.65234375 1.8046875 13.65234375 0 15 C-2.19140625 15.328125 -2.19140625 15.328125 -4.5625 15.25 C-5.74005859 15.22679687 -5.74005859 15.22679687 -6.94140625 15.203125 C-9 15 -9 15 -11 14 C-11 12.68 -11 11.36 -11 10 C-6.05 10.99 -6.05 10.99 -1 12 C-1 11.01 -1 10.02 -1 9 C-2.6396875 9.061875 -2.6396875 9.061875 -4.3125 9.125 C-8 9 -8 9 -11 7 C-11.1875 3.875 -11.1875 3.875 -11 1 C-7.22301161 -1.56835211 -4.3286606 -0.94443504 0 0 Z " fill="#A1A1A3" transform="translate(108,180)"/>
  <path d="M0 0 C1.33417969 0.00386719 1.33417969 0.00386719 2.6953125 0.0078125 C3.57960938 0.00523437 4.46390625 0.00265625 5.375 0 C7.8203125 0.1328125 7.8203125 0.1328125 10.8203125 1.1328125 C10.4903125 2.1228125 10.1603125 3.1128125 9.8203125 4.1328125 C6.5203125 3.4728125 3.2203125 2.8128125 -0.1796875 2.1328125 C-0.1796875 3.1228125 -0.1796875 4.1128125 -0.1796875 5.1328125 C1.0990625 5.2771875 2.3778125 5.4215625 3.6953125 5.5703125 C6.07724144 5.83923996 7.66483941 6.05507596 9.8203125 7.1328125 C9.9453125 12.8828125 9.9453125 12.8828125 8.8203125 15.1328125 C7.02872761 15.15977615 5.23702777 15.17919167 3.4453125 15.1953125 C2.44757813 15.20691406 1.44984375 15.21851563 0.421875 15.23046875 C-2.1796875 15.1328125 -2.1796875 15.1328125 -4.1796875 14.1328125 C-3.8496875 13.1428125 -3.5196875 12.1528125 -3.1796875 11.1328125 C0.1203125 11.4628125 3.4203125 11.7928125 6.8203125 12.1328125 C6.8203125 11.1428125 6.8203125 10.1528125 6.8203125 9.1328125 C5.5621875 9.1946875 4.3040625 9.2565625 3.0078125 9.3203125 C0.33327849 9.31082834 -0.89421748 9.29717403 -3.2421875 7.9453125 C-4.5742397 5.37001157 -4.03321151 3.83563854 -3.1796875 1.1328125 C-2.1796875 0.1328125 -2.1796875 0.1328125 0 0 Z " fill="#ADADAE" transform="translate(84.1796875,179.8671875)"/>
  <path d="M0 0 C0.89847656 0.00257813 1.79695312 0.00515625 2.72265625 0.0078125 C3.61855469 0.00523437 4.51445312 0.00265625 5.4375 0 C7.78515625 0.1328125 7.78515625 0.1328125 9.78515625 1.1328125 C9.78515625 2.1228125 9.78515625 3.1128125 9.78515625 4.1328125 C6.81515625 3.8028125 3.84515625 3.4728125 0.78515625 3.1328125 C0.45515625 3.7928125 0.12515625 4.4528125 -0.21484375 5.1328125 C0.41164062 5.18179688 1.038125 5.23078125 1.68359375 5.28125 C2.50085938 5.35601562 3.318125 5.43078125 4.16015625 5.5078125 C5.37832031 5.61222656 5.37832031 5.61222656 6.62109375 5.71875 C8.78515625 6.1328125 8.78515625 6.1328125 10.78515625 8.1328125 C10.45544146 11.42996043 10.16247235 12.7554964 7.78515625 15.1328125 C5.47265625 15.36328125 5.47265625 15.36328125 2.78515625 15.3203125 C1.45484375 15.31064453 1.45484375 15.31064453 0.09765625 15.30078125 C-2.21484375 15.1328125 -2.21484375 15.1328125 -4.21484375 14.1328125 C-3.88484375 12.8128125 -3.55484375 11.4928125 -3.21484375 10.1328125 C-2.55484375 10.1328125 -1.89484375 10.1328125 -1.21484375 10.1328125 C-1.21484375 10.7928125 -1.21484375 11.4528125 -1.21484375 12.1328125 C1.42515625 12.1328125 4.06515625 12.1328125 6.78515625 12.1328125 C6.78515625 11.4728125 6.78515625 10.8128125 6.78515625 10.1328125 C4.86703125 9.9471875 4.86703125 9.9471875 2.91015625 9.7578125 C-0.96484375 9.3828125 -0.96484375 9.3828125 -3.21484375 7.1328125 C-3.40234375 4.0703125 -3.40234375 4.0703125 -3.21484375 1.1328125 C-2.21484375 0.1328125 -2.21484375 0.1328125 0 0 Z " fill="#A3A3A4" transform="translate(212.21484375,179.8671875)"/>
  <path d="M0 0 C1.65 0 3.3 0 5 0 C7.31 4.95 9.62 9.9 12 15 C10.35 15 8.7 15 7 15 C6.67 14.01 6.34 13.02 6 12 C3.69 11.67 1.38 11.34 -1 11 C-1 12.32 -1 13.64 -1 15 C-2.65 15 -4.3 15 -6 15 C-4 10 -2 5 0 0 Z " fill="#A4A4A4" transform="translate(67,180)"/>
  <path d="M0 0 C2.29755111 1.12443709 3.98346624 2.38677299 6 4 C1.24137931 8.91724138 1.24137931 8.91724138 -3.75 9.25 C-7.78140986 9.22057365 -10.52116449 8.08730131 -14 6 C-14 5.01 -14 4.02 -14 3 C-9.30570838 0.18342503 -5.38377528 -1.01479891 0 0 Z " fill="#A0A0A1" transform="translate(146,41)"/>
  <path d="M0 0 C1.32 0 2.64 0 4 0 C5.17176518 2.12232979 6.33754785 4.24757791 7.5 6.375 C7.83386719 6.97828125 8.16773438 7.5815625 8.51171875 8.203125 C11 12.7734375 11 12.7734375 11 15 C9.35 15 7.7 15 6 15 C5.67 14.01 5.34 13.02 5 12 C3.02 12 1.04 12 -1 12 C-1.33 12.99 -1.66 13.98 -2 15 C-3.32 15 -4.64 15 -6 15 C-5.39644592 11.14974121 -4.23227397 8.13898841 -2.4375 4.6875 C-1.98246094 3.80449219 -1.52742187 2.92148438 -1.05859375 2.01171875 C-0.53458984 1.01591797 -0.53458984 1.01591797 0 0 Z " fill="#A1A1A3" transform="translate(165,180)"/>
  <path d="M0 0 C3.88602985 0.57570813 6.11172864 2.41575721 9 5 C11.20914 8.31371 11.22481553 9.3446021 11.125 13.1875 C11.10695312 14.08855469 11.08890625 14.98960938 11.0703125 15.91796875 C11.03550781 16.94857422 11.03550781 16.94857422 11 18 C7.88871768 17.42115678 5.67327576 16.72720741 3.48828125 14.3671875 C0.11080046 9.43161386 -0.52814219 5.91519254 0 0 Z " fill="#5D5D5D" transform="translate(156,48)"/>
  <path d="M0 0 C3.99415824 1.36942568 6.88332834 3.14305098 10 6 C10.96070434 8.88211302 11.10581883 10.69850044 11.0625 13.6875 C11.05347656 14.49574219 11.04445313 15.30398437 11.03515625 16.13671875 C11.02355469 16.75160156 11.01195313 17.36648437 11 18 C6.03452753 16.96071506 3.62319735 15.20633561 0.90234375 11.0859375 C-0.6689092 7.45369043 -0.39518481 3.8728111 0 0 Z " fill="#A0A0A2" transform="translate(116,71)"/>
  <path d="M0 0 C0.37964752 4.74559401 0.48228172 8.06988525 -1.75 12.375 C-3.74178325 14.69874713 -5.36154827 16.46799577 -8 18 C-8.99 18 -9.98 18 -11 18 C-11.42064893 11.90059045 -11.08964656 8.86336347 -7 4 C-2.57894737 0 -2.57894737 0 0 0 Z " fill="#5F5F5F" transform="translate(127,48)"/>
  <path d="M0 0 C0.99 0.33 1.98 0.66 3 1 C2.67 2.32 2.34 3.64 2 5 C1.278125 4.649375 0.55625 4.29875 -0.1875 3.9375 C-3.32982572 2.89005809 -4.87318269 3.0445836 -8 4 C-9.28322547 5.0595877 -9.28322547 5.0595877 -9.125 7.5 C-9.28322547 9.9404123 -9.28322547 9.9404123 -8 11 C-5.32461085 11.04315144 -2.67305179 11.04680441 0 11 C0.99 11 1.98 11 3 11 C3 11.99 3 12.98 3 14 C0.09458095 14.96847302 -1.96637454 15.19582812 -5 15.25 C-6.299375 15.28867188 -6.299375 15.28867188 -7.625 15.328125 C-10.46725063 14.93544564 -11.26651988 14.23185565 -13 12 C-14.42041821 9.15916359 -14.31452272 7.14522722 -14 4 C-10.87950956 -1.38993803 -5.53958039 -0.56413089 0 0 Z " fill="#A6A6A6" transform="translate(146,180)"/>
  <path d="M0 0 C3.1875 1.5 3.1875 1.5 5 3 C4 6 4 6 2 7.1875 C-3.28417685 8.61863123 -8.08562536 8.93765288 -13.0625 6.5 C-13.701875 6.005 -14.34125 5.51 -15 5 C-12.73483035 -1.79550895 -6.01157149 -0.60554516 0 0 Z " fill="#5E5E5E" transform="translate(147,88)"/>
  <path d="M0 0 C4.62 0 9.24 0 14 0 C14 0.66 14 1.32 14 2 C10.37 2 6.74 2 3 2 C3 3.32 3 4.64 3 6 C5.64 6 8.28 6 11 6 C10.67 6.99 10.34 7.98 10 9 C7.69 8.67 5.38 8.34 3 8 C3 9.32 3 10.64 3 12 C6.96 12 10.92 12 15 12 C15 13.32 15 14.64 15 16 C10.05 15.67 5.1 15.34 0 15 C0 10.05 0 5.1 0 0 Z " fill="#9C9C9C" transform="translate(192,180)"/>
  <path d="M0 0 C0.55665717 5.1954669 0.37418454 8.10729143 -2.6875 12.4375 C-4.79291179 14.99299982 -5.69091767 15.8924931 -8.875 17 C-9.57625 17 -10.2775 17 -11 17 C-11.1768246 12.49097273 -11.29105551 8.9572777 -9 5 C-6.24255161 2.13193763 -4.15771608 0 0 0 Z " fill="#A1A1A1" transform="translate(167,72)"/>
  <path d="M0 0 C2.31 0 4.62 0 7 0 C6.67 0.66 6.34 1.32 6 2 C5.84777027 3.66565749 5.75082785 5.33656496 5.68359375 7.0078125 C5.64169922 7.99394531 5.59980469 8.98007813 5.55664062 9.99609375 C5.51732422 11.02863281 5.47800781 12.06117188 5.4375 13.125 C5.39431641 14.16527344 5.35113281 15.20554688 5.30664062 16.27734375 C5.2003712 18.85142528 5.09833417 21.42560508 5 24 C3.35 24 1.7 24 0 24 C-0.5625 22.0625 -0.5625 22.0625 -1 20 C-0.67 19.67 -0.34 19.34 0 19 C0.08651611 17.58429877 0.10704904 16.164405 0.09765625 14.74609375 C0.09443359 13.89208984 0.09121094 13.03808594 0.08789062 12.15820312 C0.07951172 11.26037109 0.07113281 10.36253906 0.0625 9.4375 C0.05573242 8.08495117 0.05573242 8.08495117 0.04882812 6.70507812 C0.03700225 4.46998686 0.0205222 2.23502563 0 0 Z " fill="#575757" transform="translate(64,145)"/>
  <path d="M0 0 C0 1.98 0 3.96 0 6 C-5.94 5.67 -11.88 5.34 -18 5 C-18.33 5.66 -18.66 6.32 -19 7 C-19.99 6.67 -20.98 6.34 -22 6 C-22 4.35 -22 2.7 -22 1 C-18.52085157 0.83295112 -15.04167833 0.66642482 -11.5625 0.5 C-10.56927734 0.45230469 -9.57605469 0.40460938 -8.55273438 0.35546875 C-7.60849609 0.31035156 -6.66425781 0.26523438 -5.69140625 0.21875 C-4.81685791 0.17685547 -3.94230957 0.13496094 -3.04125977 0.09179688 C-1 0 -1 0 0 0 Z " fill="#585858" transform="translate(99,144)"/>
  <path d="M0 0 C4.44209357 -0.10834375 8.61414671 0.29826347 13 1 C13.33 2.32 13.66 3.64 14 5 C16.97 5.66 19.94 6.32 23 7 C23 7.99 23 8.98 23 10 C16.375 10.25 16.375 10.25 13 8 C12.67 9.32 12.34 10.64 12 12 C11.01 11.67 10.02 11.34 9 11 C9.33 9.02 9.66 7.04 10 5 C6.7 4.34 3.4 3.68 0 3 C0 2.01 0 1.02 0 0 Z " fill="#F4F4F5" transform="translate(84,182)"/>
  <path d="M0 0 C2.5 2.5 2.5 2.5 5 5 C5.763125 5.721875 6.52625 6.44375 7.3125 7.1875 C9 9 9 9 9 11 C8.01 11.495 8.01 11.495 7 12 C7 12.99 7 13.98 7 15 C6.44570312 14.43410156 5.89140625 13.86820313 5.3203125 13.28515625 C4.59585938 12.55167969 3.87140625 11.81820312 3.125 11.0625 C2.40570313 10.33160156 1.68640625 9.60070312 0.9453125 8.84765625 C-0.87027192 6.94332001 -0.87027192 6.94332001 -3 6 C-2.67 10.95 -2.34 15.9 -2 21 C-4.64 21 -7.28 21 -10 21 C-10 20.67 -10 20.34 -10 20 C-8.02 20 -6.04 20 -4 20 C-4 15.05 -4 10.1 -4 5 C-2.68 5 -1.36 5 0 5 C-0.2784375 4.0409375 -0.2784375 4.0409375 -0.5625 3.0625 C-0.706875 2.381875 -0.85125 1.70125 -1 1 C-0.67 0.67 -0.34 0.34 0 0 Z " fill="#737373" transform="translate(233,149)"/>
  <path d="M0 0 C2.560881 3.24640915 4.62476717 6.66940716 6.6875 10.25 C7.31011719 11.32765625 7.93273437 12.4053125 8.57421875 13.515625 C9.04472656 14.33546875 9.51523438 15.1553125 10 16 C8.02 16.99 8.02 16.99 6 18 C4.99421411 16.71283353 3.99553202 15.42011342 3 14.125 C2.443125 13.40570313 1.88625 12.68640625 1.3125 11.9453125 C0 10 0 10 0 8 C-0.66 8 -1.32 8 -2 8 C-3.38232443 6.37373596 -4.71937515 4.7074998 -6 3 C-5.38125 2.87625 -4.7625 2.7525 -4.125 2.625 C-1.80879168 2.12802644 -1.80879168 2.12802644 0 0 Z " fill="#F3F3F3" transform="translate(183,22)"/>
  <path d="M0 0 C2.4375 0.75 2.4375 0.75 4.4375 2.75 C3.86931818 8.31818182 3.86931818 8.31818182 2.4375 9.75 C-0.5 9.9375 -0.5 9.9375 -3.5625 9.75 C-5.5625 7.75 -5.5625 7.75 -5.875 4.75 C-5.771875 3.76 -5.66875 2.77 -5.5625 1.75 C-2.5625 -0.25 -2.5625 -0.25 0 0 Z " fill="#F9F9F9" transform="translate(122.5625,182.25)"/>
  <path d="M0 0 C1 2 1 2 1 5 C1.99 5 2.98 5 4 5 C4 5.66 4 6.32 4 7 C5.2375 6.95875 6.475 6.9175 7.75 6.875 C11.01637962 6.86341709 13.2146947 7.1431298 16 9 C12.25 10.125 12.25 10.125 10 9 C9.67 10.32 9.34 11.64 9 13 C2.74798928 12.41018767 2.74798928 12.41018767 0.0625 10.9375 C-1.72273637 7.68206898 -1.23646908 4.66527068 -1 1 C-0.67 0.67 -0.34 0.34 0 0 Z " fill="#646464" transform="translate(6,147)"/>
  <path d="M0 0 C2.51083114 1.25541557 2.87125446 2.50063488 4 5 C3.175 5.28875 2.35 5.5775 1.5 5.875 C-1.24814366 7.71108806 -1.24814366 7.71108806 -1.2265625 10.35546875 C-1.15935015 12.14693644 -1.04535485 13.93731204 -0.8828125 15.72265625 C-0.92148438 16.47417969 -0.96015625 17.22570312 -1 18 C-1.99 18.66 -2.98 19.32 -4 20 C-4 17.36 -4 14.72 -4 12 C-4.66 12 -5.32 12 -6 12 C-6.66 10.35 -7.32 8.7 -8 7 C-3.375 1.125 -3.375 1.125 0 0 Z " fill="#6A6A6A" transform="translate(152,145)"/>
  <path d="M0 0 C2.58045434 1.40407074 3.95069219 2.79699411 6 5 C6 5.99 6 6.98 6 8 C0.72 7.01 -4.56 6.02 -10 5 C-10 3.68 -10 2.36 -10 1 C-6.76858114 -0.61570943 -3.49288998 -0.58861665 0 0 Z " fill="#EFEFEF" transform="translate(20,149)"/>
  <path d="M0 0 C4.95 0.33 9.9 0.66 15 1 C15 1.66 15 2.32 15 3 C13.02 3 11.04 3 9 3 C9 7.29 9 11.58 9 16 C8.01 16 7.02 16 6 16 C6 11.71 6 7.42 6 3 C4.02 3.33 2.04 3.66 0 4 C0 2.68 0 1.36 0 0 Z " fill="#9D9D9D" transform="translate(175,179)"/>
  <path d="M0 0 C0.99 0.33 1.98 0.66 3 1 C3 6.61 3 12.22 3 18 C1.35 18 -0.3 18 -2 18 C-1.85980308 15.18711295 -1.71312045 12.37483115 -1.5625 9.5625 C-1.52318359 8.76005859 -1.48386719 7.95761719 -1.44335938 7.13085938 C-1.11328125 1.11328125 -1.11328125 1.11328125 0 0 Z " fill="#585858" transform="translate(34,151)"/>
  <path d="M0 0 C2.97 0 5.94 0 9 0 C9.33 1.32 9.66 2.64 10 4 C9.34 4 8.68 4 8 4 C8 4.66 8 5.32 8 6 C7.360625 6.309375 6.72125 6.61875 6.0625 6.9375 C4.06389179 7.8345163 4.06389179 7.8345163 3 9 C2.76472227 11.34987262 2.58613583 13.70556039 2.4375 16.0625 C2.35371094 17.35285156 2.26992187 18.64320313 2.18359375 19.97265625 C2.12300781 20.97167969 2.06242188 21.97070312 2 23 C1.67 23 1.34 23 1 23 C0.67 15.41 0.34 7.82 0 0 Z " fill="#777777" transform="translate(223,145)"/>
  <path d="M0 0 C0.33 0.66 0.66 1.32 1 2 C1.99 2 2.98 2 4 2 C4.33 3.65 4.66 5.3 5 7 C4.195625 7.268125 3.39125 7.53625 2.5625 7.8125 C1.716875 8.204375 0.87125 8.59625 0 9 C-0.33 9.99 -0.66 10.98 -1 12 C-2.32 12 -3.64 12 -5 12 C-4.42365861 7.24518354 -2.44931479 4.02951788 0 0 Z " fill="#A5A5A6" transform="translate(164,183)"/>
  <path d="M0 0 C0.66 0.33 1.32 0.66 2 1 C1.34 3.31 0.68 5.62 0 8 C-3.96 6.68 -7.92 5.36 -12 4 C-12 3.01 -12 2.02 -12 1 C-5.25 1.875 -5.25 1.875 -3 3 C-2.67 2.34 -2.34 1.68 -2 1 C-1.34 0.67 -0.68 0.34 0 0 Z " fill="#EFEFF0" transform="translate(113,181)"/>
  <path d="M0 0 C0.99 0.33 1.98 0.66 3 1 C3.33 1.99 3.66 2.98 4 4 C1.39786925 8.39231845 -2.00076875 11.67667408 -7 13 C-7 10.69 -7 8.38 -7 6 C-6.67 6.99 -6.34 7.98 -6 9 C-4.68 8.67 -3.36 8.34 -2 8 C-1.855625 6.865625 -1.71125 5.73125 -1.5625 4.5625 C-1 1 -1 1 0 0 Z " fill="#606060" transform="translate(109,50)"/>
  <path d="M0 0 C1.37140038 0.01987537 2.7426453 0.05555764 4.11328125 0.10546875 C4.81517578 0.11900391 5.51707031 0.13253906 6.24023438 0.14648438 C7.96907954 0.18176693 9.6975289 0.23557292 11.42578125 0.29296875 C11.09578125 1.61296875 10.76578125 2.93296875 10.42578125 4.29296875 C4.81578125 3.96296875 -0.79421875 3.63296875 -6.57421875 3.29296875 C-3.57421875 0.29296875 -3.57421875 0.29296875 0 0 Z " fill="#565656" transform="translate(87.57421875,165.70703125)"/>
  <path d="M0 0 C4.95 0.33 9.9 0.66 15 1 C15 2.32 15 3.64 15 5 C10.05 4.67 5.1 4.34 0 4 C0 2.68 0 1.36 0 0 Z " fill="#A7A7A7" transform="translate(192,191)"/>
  <path d="M0 0 C3.04049801 3.64859761 4.96518762 7.7444533 7 12 C5.02 12.99 5.02 12.99 3 14 C2.16151196 12.54462432 1.32936066 11.08559627 0.5 9.625 C0.0359375 8.81289062 -0.428125 8.00078125 -0.90625 7.1640625 C-2 5 -2 5 -2 3 C-1.34 3 -0.68 3 0 3 C0 2.01 0 1.02 0 0 Z " fill="#F4F4F4" transform="translate(90,90)"/>
  <path d="M0 0 C0.78375 0.185625 1.5675 0.37125 2.375 0.5625 C4.97089775 1.25962266 4.97089775 1.25962266 7 0 C7 0.99 7 1.98 7 3 C7.66 3 8.32 3 9 3 C9.33 2.01 9.66 1.02 10 0 C10.33 2.97 10.66 5.94 11 9 C6.90434578 7.97608645 6.02921856 7.39798858 3.25 4.5 C2.63640625 3.8709375 2.0228125 3.241875 1.390625 2.59375 C0 1 0 1 0 0 Z " fill="#666666" transform="translate(171,54)"/>
  <path d="M0 0 C1.32 0 2.64 0 4 0 C4 4.95 4 9.9 4 15 C2.68 14.67 1.36 14.34 0 14 C0 9.38 0 4.76 0 0 Z " fill="#9D9D9D" transform="translate(152,180)"/>
  <path d="M0 0 C2.19398174 2.19398174 2.6546935 2.97856817 3 6 C2.17387474 9.15429646 1.68240771 10.57851288 -1.125 12.3125 C-2.053125 12.6528125 -2.053125 12.6528125 -3 13 C-2.52060632 8.28596212 -2.03165952 4.33420699 0 0 Z " fill="#6A6A6A" transform="translate(89,50)"/>
  <path d="M0 0 C5.46875 3.7109375 5.46875 3.7109375 7 5 C7 5.66 7 6.32 7 7 C7.66 7 8.32 7 9 7 C8.67 7.66 8.34 8.32 8 9 C4.9375 9.625 4.9375 9.625 2 10 C1.34 6.7 0.68 3.4 0 0 Z " fill="#656565" transform="translate(174,23)"/>
  <path d="M0 0 C4.24822374 0.47202486 6.19989709 2.96655518 9 6 C5.71303767 6.79953138 4.28976808 7.09658936 1 6 C0.67 6.66 0.34 7.32 0 8 C0 5.36 0 2.72 0 0 Z " fill="#6E6E6E" transform="translate(156,48)"/>
  <path d="M0 0 C-0.99 0.33 -1.98 0.66 -3 1 C-3.33 2.65 -3.66 4.3 -4 6 C-5.31471568 5.71848913 -6.62675767 5.42446661 -7.9375 5.125 C-8.66839844 4.96257813 -9.39929688 4.80015625 -10.15234375 4.6328125 C-12 4 -12 4 -13 2 C-11.5882217 1.46605821 -10.17029756 0.94834896 -8.75 0.4375 C-7.96109375 0.14746094 -7.1721875 -0.14257812 -6.359375 -0.44140625 C-3.80896548 -1.04522837 -2.44677771 -0.8473932 0 0 Z " fill="#A8A8A8" transform="translate(132,15)"/>
  <path d="M0 0 C1.10844919 3.32534757 0.84454356 5.62182575 0 9 C0.99 9.66 1.98 10.32 3 11 C1.37660195 12.70884005 -0.29319053 14.37446717 -2 16 C-2.66 16 -3.32 16 -4 16 C-2.98408579 10.53135543 -1.92908943 5.23609987 0 0 Z " fill="#AAAAAC" transform="translate(178,98)"/>
  <path d="M0 0 C0.99 1.32 1.98 2.64 3 4 C1.68 6.64 0.36 9.28 -1 12 C-2.32 11.01 -3.64 10.02 -5 9 C-3.35 6.03 -1.7 3.06 0 0 Z " fill="#636363" transform="translate(103,8)"/>
  <path d="M0 0 C3.23475448 1.61737724 4.70572021 2.47629223 7 5 C6.34 5 5.68 5 5 5 C5 5.99 5 6.98 5 8 C3.68 8.33 2.36 8.66 1 9 C0.67 6.03 0.34 3.06 0 0 Z " fill="#6B6B6B" transform="translate(166,37)"/>
  <path d="M0 0 C-0.47939368 4.71403788 -0.96834048 8.66579301 -3 13 C-5 10 -5 10 -5 6 C-5.99 6 -6.98 6 -8 6 C-7.0479279 4.99403703 -6.08812654 3.99538437 -5.125 3 C-4.59132813 2.443125 -4.05765625 1.88625 -3.5078125 1.3125 C-2 0 -2 0 0 0 Z " fill="#666666" transform="translate(109,24)"/>
  <path d="M0 0 C1.32 0.99 2.64 1.98 4 3 C3.01 5.31 2.02 7.62 1 10 C0.34 9.34 -0.32 8.68 -1 8 C-1.99 8.99 -2.98 9.98 -4 11 C-3.48964169 6.6109185 -2.47785723 3.66291938 0 0 Z " fill="#6A6A6A" transform="translate(73,60)"/>
  <path d="M0 0 C0.19294408 4.82360189 -0.24252386 8.49646738 -2 13 C-3.125 9.25 -3.125 9.25 -2 7 C-2.66 7 -3.32 7 -4 7 C-4 6.01 -4 5.02 -4 4 C-4.66 3.67 -5.32 3.34 -6 3 C-2.25 0 -2.25 0 0 0 Z " fill="#646464" transform="translate(117,38)"/>
  <path d="M0 0 C2.15377564 2.62198774 3.40072174 4.64404172 4 8 C1.36 7.67 -1.28 7.34 -4 7 C-3.67 5.35 -3.34 3.7 -3 2 C-2.01 2.33 -1.02 2.66 0 3 C0 2.01 0 1.02 0 0 Z " fill="#C1C1C1" transform="translate(72,182)"/>
  <path d="M0 0 C7.75 -0.125 7.75 -0.125 10 1 C10 1.99 10 2.98 10 4 C7.03 3.67 4.06 3.34 1 3 C0.67 3.99 0.34 4.98 0 6 C-0.66 6 -1.32 6 -2 6 C-2 4.68 -2 3.36 -2 2 C-1.34 2 -0.68 2 0 2 C0 1.34 0 0.68 0 0 Z " fill="#9E9EA0" transform="translate(212,180)"/>
  <path d="M0 0 C0 1.98 0 3.96 0 6 C-0.99 6 -1.98 6 -3 6 C-3 4.68 -3 3.36 -3 2 C-4.65 2 -6.3 2 -8 2 C-8 1.34 -8 0.68 -8 0 C-5.13822943 -1.43088528 -3.06624227 -0.59991697 0 0 Z " fill="#9E9EA0" transform="translate(94,187)"/>
  <path d="M0 0 C0.33 1.32 0.66 2.64 1 4 C1.66 4 2.32 4 3 4 C3.33 3.01 3.66 2.02 4 1 C4 3.31 4 5.62 4 8 C3.01 8.495 3.01 8.495 2 9 C1.01 8.67 0.02 8.34 -1 8 C-1.04241723 5.66705225 -1.04092937 3.33297433 -1 1 C-0.67 0.67 -0.34 0.34 0 0 Z " fill="#565656" transform="translate(145,153)"/>
  <path d="M0 0 C6.26079448 -0.43177893 9.09075703 0.07260562 14 4 C13.01 5.485 13.01 5.485 12 7 C10.68 6.34 9.36 5.68 8 5 C8 4.34 8 3.68 8 3 C5.36 2.34 2.72 1.68 0 1 C0 0.67 0 0.34 0 0 Z " fill="#ABABAC" transform="translate(138,41)"/>
  <path d="M0 0 C6.75 0.875 6.75 0.875 9 2 C8.67 2.99 8.34 3.98 8 5 C3.545 4.01 3.545 4.01 -1 3 C-0.67 2.01 -0.34 1.02 0 0 Z " fill="#EDEDEE" transform="translate(213,182)"/>
  <path d="M0 0 C0.99 0.33 1.98 0.66 3 1 C2.67 1.99 2.34 2.98 2 4 C1.31292969 3.9278125 0.62585938 3.855625 -0.08203125 3.78125 C-0.98308594 3.6884375 -1.88414063 3.595625 -2.8125 3.5 C-3.70582031 3.4071875 -4.59914063 3.314375 -5.51953125 3.21875 C-8.08305099 2.95607599 -8.08305099 2.95607599 -11 3 C-8.29910382 -1.05134427 -4.38745098 -0.4599747 0 0 Z " fill="#A1A1A3" transform="translate(92,180)"/>
  <path d="M0 0 C2.475 0.99 2.475 0.99 5 2 C5 2.99 5 3.98 5 5 C4.01 5.495 4.01 5.495 3 6 C1.86649466 8.01669827 1.86649466 8.01669827 1 10 C0 9 0 9 -0.09765625 6.93359375 C-0.08605469 6.10988281 -0.07445313 5.28617187 -0.0625 4.4375 C-0.05347656 3.61121094 -0.04445313 2.78492187 -0.03515625 1.93359375 C-0.02355469 1.29550781 -0.01195313 0.65742187 0 0 Z " fill="#A7A7A7" transform="translate(116,71)"/>
  <path d="M0 0 C1.89213369 2.38573379 3.02391783 4.07175348 4 7 C3.34 7 2.68 7 2 7 C1.67 8.32 1.34 9.64 1 11 C-0.32 8.36 -1.64 5.72 -3 3 C-2.01 2.01 -1.02 1.02 0 0 Z " fill="#676767" transform="translate(206,53)"/>
  <path d="M0 0 C0.66 0 1.32 0 2 0 C2 0.66 2 1.32 2 2 C4.31 2 6.62 2 9 2 C9 2.66 9 3.32 9 4 C6.26094655 5.36952673 4.02912668 5.12621361 1 5 C0.34 4.67 -0.32 4.34 -1 4 C-0.67 2.68 -0.34 1.36 0 0 Z " fill="#AEAEAE" transform="translate(209,190)"/>
  <path d="M0 0 C1.9375 0.375 1.9375 0.375 4 1 C5.35439668 3.70879335 5.06501451 6.00933268 5 9 C4.01 9.495 4.01 9.495 3 10 C0 3.375 0 3.375 0 0 Z " fill="#9F9F9F" transform="translate(125,181)"/>
  <path d="M0 0 C2.97 0.495 2.97 0.495 6 1 C5.67 2.65 5.34 4.3 5 6 C2 6 2 6 0 5 C0 3.35 0 1.7 0 0 Z " fill="#666666" transform="translate(21,146)"/>
  <path d="M0 0 C2.97 0.33 5.94 0.66 9 1 C9 1.99 9 2.98 9 4 C1.25 4.125 1.25 4.125 -1 3 C-0.67 2.01 -0.34 1.02 0 0 Z " fill="#F1F1F3" transform="translate(82,188)"/>
  <path d="M0 0 C5.41538462 -0.36923077 5.41538462 -0.36923077 8.375 1.5 C8.91125 1.995 9.4475 2.49 10 3 C9.34 3.66 8.68 4.32 8 5 C6.0546875 4.7578125 6.0546875 4.7578125 3.875 4.125 C3.15054688 3.92132813 2.42609375 3.71765625 1.6796875 3.5078125 C1.12539062 3.34023437 0.57109375 3.17265625 0 3 C0 2.01 0 1.02 0 0 Z " fill="#ECECEE" transform="translate(84,182)"/>
  <path d="M0 0 C1.32 1.32 2.64 2.64 4 4 C2.68 5.65 1.36 7.3 0 9 C-1.74627478 6.38058783 -2.38722388 4.96175123 -3 2 C-2.01 2 -1.02 2 0 2 C0 1.34 0 0.68 0 0 Z " fill="#666666" transform="translate(242,158)"/>
  <path d="M0 0 C1.134375 0.020625 2.26875 0.04125 3.4375 0.0625 C3.4375 1.39583333 3.4375 2.72916667 3.4375 4.0625 C1.4575 4.0625 -0.5225 4.0625 -2.5625 4.0625 C-2.5625 3.4025 -2.5625 2.7425 -2.5625 2.0625 C-3.2225 1.7325 -3.8825 1.4025 -4.5625 1.0625 C-3.5625 0.0625 -3.5625 0.0625 0 0 Z " fill="#565656" transform="translate(157.5625,144.9375)"/>
  <path d="M0 0 C0.66 0 1.32 0 2 0 C2 0.66 2 1.32 2 2 C1.34 2 0.68 2 0 2 C0 3.32 0 4.64 0 6 C1.65 5.67 3.3 5.34 5 5 C5 6.32 5 7.64 5 9 C0.125 8.125 0.125 8.125 -1 7 C-1.125 4 -1.125 4 -1 1 C-0.67 0.67 -0.34 0.34 0 0 Z " fill="#ADADAF" transform="translate(210,180)"/>
  <path d="M0 0 C-0.33 2.97 -0.66 5.94 -1 9 C-2.66666667 7.33333333 -4.33333333 5.66666667 -6 4 C-2.25 0 -2.25 0 0 0 Z " fill="#A9A9A9" transform="translate(197,75)"/>
  <path d="M0 0 C0.33 0.66 0.66 1.32 1 2 C1.99 2 2.98 2 4 2 C4.33 3.32 4.66 4.64 5 6 C3.02 6 1.04 6 -1 6 C-1.042721 4.33388095 -1.04063832 2.66617115 -1 1 C-0.67 0.67 -0.34 0.34 0 0 Z " fill="#CCCCCE" transform="translate(164,183)"/>
  <path d="M0 0 C1.485 0.99 1.485 0.99 3 2 C2.67 4.64 2.34 7.28 2 10 C1.01 10 0.02 10 -1 10 C-0.67 6.7 -0.34 3.4 0 0 Z " fill="#585858" transform="translate(210,65)"/>
  <path d="M0 0 C1.98 0 3.96 0 6 0 C6 1.65 6 3.3 6 5 C4.125 4.75 4.125 4.75 2 4 C0.75 1.9375 0.75 1.9375 0 0 Z " fill="#757575" transform="translate(176,58)"/>
  <path d="M0 0 C2.31 0 4.62 0 7 0 C6.34 1.32 5.68 2.64 5 4 C3.02 4 1.04 4 -1 4 C-0.67 2.68 -0.34 1.36 0 0 Z " fill="#565656" transform="translate(16,156)"/>
  <path d="M0 0 C0.66 1.32 1.32 2.64 2 4 C1.34 4 0.68 4 0 4 C-0.33 4.99 -0.66 5.98 -1 7 C-0.34 7.33 0.32 7.66 1 8 C0.34 8.66 -0.32 9.32 -1 10 C-1.99 9.67 -2.98 9.34 -4 9 C-2.94124926 5.59687262 -1.99097846 2.98646769 0 0 Z " fill="#69696B" transform="translate(190,103)"/>
  <path d="M0 0 C0.33 0.99 0.66 1.98 1 3 C2.65 2.67 4.3 2.34 6 2 C5.67 2.99 5.34 3.98 5 5 C2.4375 6.1875 2.4375 6.1875 0 7 C0 4.69 0 2.38 0 0 Z " fill="#6C6C6C" transform="translate(102,56)"/>
  <path d="M0 0 C2 3 2 3 2 7 C0.35 7 -1.3 7 -3 7 C-1.125 2.25 -1.125 2.25 0 0 Z " fill="#AAAAAA" transform="translate(64,188)"/>
  <path d="M0 0 C1.32 0.66 2.64 1.32 4 2 C4 2.66 4 3.32 4 4 C3.34 4 2.68 4 2 4 C2 4.66 2 5.32 2 6 C-0.64 5.67 -3.28 5.34 -6 5 C-6 4.67 -6 4.34 -6 4 C-4.35 3.67 -2.7 3.34 -1 3 C-0.67 2.01 -0.34 1.02 0 0 Z " fill="#AFAFAF" transform="translate(126,188)"/>
  <path d="M0 0 C4.455 0.99 4.455 0.99 9 2 C9 2.33 9 2.66 9 3 C7.35 3 5.7 3 4 3 C4 3.66 4 4.32 4 5 C2.68 4.67 1.36 4.34 0 4 C0 2.68 0 1.36 0 0 Z " fill="#B0B0B1" transform="translate(97,190)"/>
  <path d="M0 0 C0.99 0.99 1.98 1.98 3 3 C0.25 4.1875 0.25 4.1875 -3 5 C-5.375 3.625 -5.375 3.625 -7 2 C-4.69 1.34 -2.38 0.68 0 0 Z " fill="#B6B6B6" transform="translate(147,190)"/>
  <path d="M0 0 C-0.66 0.66 -1.32 1.32 -2 2 C-1.67 2.66 -1.34 3.32 -1 4 C-3.9375 3.625 -3.9375 3.625 -7 3 C-7.33 2.34 -7.66 1.68 -8 1 C-3.375 -1.125 -3.375 -1.125 0 0 Z " fill="#6D6D6D" transform="translate(127,118)"/>
  <path d="M0 0 C1.32 0 2.64 0 4 0 C4 1.65 4 3.3 4 5 C2.68 5 1.36 5 0 5 C0 3.35 0 1.7 0 0 Z " fill="#9B9B9B" transform="translate(68,180)"/>
  <path d="M0 0 C0.99 0.66 1.98 1.32 3 2 C2.67 2.99 2.34 3.98 2 5 C-0.0625 5.6875 -0.0625 5.6875 -2 6 C-1.125 1.125 -1.125 1.125 0 0 Z " fill="#575757" transform="translate(192,159)"/>
  <path d="M0 0 C1.32 1.32 2.64 2.64 4 4 C2.68 5.32 1.36 6.64 0 8 C0 5.33333333 0 2.66666667 0 0 Z " fill="#666666" transform="translate(123,150)"/>
  <path d="M0 0 C1.32 1.32 2.64 2.64 4 4 C3.01 4.33 2.02 4.66 1 5 C1 5.66 1 6.32 1 7 C0.01 6.67 -0.98 6.34 -2 6 C-1.34 5.67 -0.68 5.34 0 5 C-0.2784375 4.0409375 -0.2784375 4.0409375 -0.5625 3.0625 C-0.7790625 2.0415625 -0.7790625 2.0415625 -1 1 C-0.67 0.67 -0.34 0.34 0 0 Z " fill="#676767" transform="translate(233,149)"/>
  <path d="M0 0 C1.65 0.33 3.3 0.66 5 1 C4.34 2.65 3.68 4.3 3 6 C1.68 5.34 0.36 4.68 -1 4 C-0.67 2.68 -0.34 1.36 0 0 Z " fill="#696969" transform="translate(161,145)"/>
  <path d="M0 0 C0.66 1.32 1.32 2.64 2 4 C0.68 4.33 -0.64 4.66 -2 5 C-2.66 3.68 -3.32 2.36 -4 1 C-2.68 0.67 -1.36 0.34 0 0 Z " fill="#676767" transform="translate(189,24)"/>
  <path d="M0 0 C0.66 0.33 1.32 0.66 2 1 C1.01 2.485 1.01 2.485 0 4 C-0.66 4 -1.32 4 -2 4 C-2 4.66 -2 5.32 -2 6 C-2.66 6 -3.32 6 -4 6 C-3.67 4.35 -3.34 2.7 -3 1 C-2.01 0.67 -1.02 0.34 0 0 Z " fill="#9F9F9F" transform="translate(117,181)"/>
  <path d="M0 0 C2.31 0.33 4.62 0.66 7 1 C6.67 1.99 6.34 2.98 6 4 C3.69 3.34 1.38 2.68 -1 2 C-0.67 1.34 -0.34 0.68 0 0 Z " fill="#A0A0A2" transform="translate(104,180)"/>
  <path d="M0 0 C-4.5 4 -4.5 4 -9 4 C-9 3.34 -9 2.68 -9 2 C-5.86501708 0.14223235 -3.62528568 -0.20140476 0 0 Z " fill="#B3B3B5" transform="translate(106,179)"/>
  <path d="M0 0 C2.31 0 4.62 0 7 0 C5.625 1.5 5.625 1.5 4 3 C3.34 3 2.68 3 2 3 C1.67 3.66 1.34 4.32 1 5 C0.67 3.35 0.34 1.7 0 0 Z " fill="#5D5D5D" transform="translate(64,145)"/>
  <path d="M0 0 C0.99 1.32 1.98 2.64 3 4 C2.01 4.495 2.01 4.495 1 5 C1.33 5.99 1.66 6.98 2 8 C1.01 8.495 1.01 8.495 0 9 C-0.66 7.35 -1.32 5.7 -2 4 C-1.34 4 -0.68 4 0 4 C0 2.68 0 1.36 0 0 Z " fill="#696969" transform="translate(98,112)"/>
  <path d="M0 0 C0.33 0 0.66 0 1 0 C1.125 5.75 1.125 5.75 0 8 C-0.99 8 -1.98 8 -3 8 C-2.37240135 5.07120629 -1.41377341 2.63904371 0 0 Z " fill="#5B5B5D" transform="translate(192,102)"/>
  <path d="M0 0 C0.33 0.66 0.66 1.32 1 2 C1.99 2.33 2.98 2.66 4 3 C3.01 4.485 3.01 4.485 2 6 C1.34 6 0.68 6 0 6 C-0.66 4.35 -1.32 2.7 -2 1 C-1.34 0.67 -0.68 0.34 0 0 Z " fill="#666666" transform="translate(164,163)"/>
  <path d="M0 0 C1.98 0.495 1.98 0.495 4 1 C4 1.33 4 1.66 4 2 C4.66 2.33 5.32 2.66 6 3 C5.34 3.66 4.68 4.32 4 5 C2.35 4.01 0.7 3.02 -1 2 C-0.67 1.34 -0.34 0.68 0 0 Z " fill="#6B6B6B" transform="translate(128,104)"/>
  <path d="M0 0 C0 2.31 0 4.62 0 7 C-0.33 5.68 -0.66 4.36 -1 3 C-2.65 3.33 -4.3 3.66 -6 4 C-2.25 0 -2.25 0 0 0 Z " fill="#A7A7A8" transform="translate(181,75)"/>
</svg>