<?xml version="1.0" encoding="utf-8"?>
<svg xmlns="http://www.w3.org/2000/svg" version="1.1" width="216.24527" height="36.786758" id="svg3296" viewBox="0.15 -1.186 216.985 39.424" xmlns:bx="https://boxy-svg.com">
  <defs id="defs3298">
    <bx:export>
      <bx:file format="png" path="softbank.png"/>
    </bx:export>
  </defs>
  <path d="m 3,3 0,10.288432 41.782027,0 L 44.782027,3 3,3 z m 0,20.498326 0,10.288433 41.782027,0 0,-10.288433 -41.782027,0 z" id="path3081" style="fill-opacity: 1; fill-rule: nonzero; stroke: none; fill: rgb(251, 252, 255);"/>
  <path d="M 67.557944,3 C 64.300206,3 62.066594,3.7948009 60.568095,4.9634413 58.80571,6.304864 58.05489,8.117513 58.05489,9.9113127 c 0,1.5456213 0.505783,2.9216003 1.256603,4.0054203 1.209479,1.712121 4.677701,3.575034 7.225463,4.869335 2.418959,1.20948 4.709116,2.186488 6.047398,3.769805 0.876481,1.039837 1.33514,2.10167 1.33514,3.769808 0,1.87862 -0.829358,3.314287 -2.120515,4.319569 -1.297442,1.005284 -3.106951,1.570755 -5.026409,1.570755 -4.423242,0 -6.751098,-1.306865 -8.089378,-6.440088 l -1.492217,0.392689 c 0.546623,1.834639 1.033556,3.615871 1.413678,6.204475 2.41582,0.876479 5.353126,1.413678 7.775227,1.413678 3.716402,0 6.496634,-1.086964 8.246454,-2.67028 1.586459,-1.419961 2.356127,-3.326858 2.356127,-5.497635 0,-2.045121 -0.929885,-3.945732 -1.806364,-4.947873 -1.796942,-2.045122 -4.203334,-3.04412 -7.461077,-4.71226 -2.629439,-1.335139 -4.259881,-2.2556 -5.340558,-3.298581 -0.791659,-0.75082 -1.413678,-2.12994 -1.413678,-3.2985808 0,-1.2943004 0.490073,-2.3844027 1.492215,-3.2200434 1.168641,-0.9958574 2.861912,-1.5707531 4.947872,-1.5707531 4.929023,0 5.799218,1.5142061 6.675696,5.8117863 L 75.568784,9.9898505 C 75.191806,8.1080885 74.795848,5.8901854 74.547796,4.1780648 72.414714,3.3487072 70.231367,3 67.557944,3 z m 59.688616,0.5497635 0,1.2566025 c 3.12579,0 3.37711,0.2136216 3.37711,3.2200435 l 0,20.8124735 c 0,2.962443 -0.25132,3.141508 -3.37711,3.141508 l 0,1.178064 13.58701,0 c 4.34156,0 6.77623,-1.008423 8.40352,-2.591742 1.66815,-1.586459 2.35614,-3.647286 2.35614,-5.733246 0,-2.296442 -1.1655,-3.939452 -2.67028,-5.104948 -1.7938,-1.382262 -4.19392,-2.114232 -6.91131,-2.199056 l 0,-0.0784 c 2.62943,-0.376981 4.40438,-1.23147 5.6547,-2.356129 1.54563,-1.379122 2.04197,-3.207478 2.04197,-4.790797 0,-2.1299408 -1.08381,-3.7823728 -2.67028,-4.8693338 -2.25559,-1.507932 -4.72167,-1.8849126 -8.56058,-1.8849126 l -11.23089,0 z m -17.35683,0.7068387 c -1.84092,0 -3.24517,0.6911314 -4.24102,1.6492905 -1.37913,1.4199609 -2.04198,3.345704 -2.04198,5.8903233 l 0,2.591743 -3.06297,0 0,1.335139 3.06297,0 0,13.587014 c 0,2.550901 -0.21991,2.827354 -3.14151,2.827354 l 0,1.020989 9.34597,0 0,-1.020989 c -3.13207,0 -3.29857,-0.24177 -3.29857,-2.748815 l 0,-13.665553 5.26202,0 0,-1.335139 -5.26202,0 0,-2.434667 c 0,-2.9655818 0.4995,-4.4986368 1.33514,-5.4976355 0.58118,-0.6283013 1.20633,-0.9424517 2.04197,-0.9424517 1.2943,0 1.81894,0.8859046 2.2776,1.8063658 0.4618,0.9204614 0.88905,1.8063658 1.8849,1.8063658 0.7571,0 1.17807,-0.4178202 1.17807,-1.2566023 0,-0.7508199 -0.59689,-1.7969415 -1.80637,-2.5917424 -0.84192,-0.5434805 -1.82521,-1.0209895 -3.5342,-1.0209895 z m 89.06169,0 c -1.54248,0.9581594 -2.98127,1.4325267 -5.0264,1.7278283 l 0,0.8639143 c 2.2556,0 2.51321,0.3298579 2.51321,2.7488175 l 0,19.7914887 c 0,2.418957 -0.0911,2.748815 -2.51321,2.748815 l 0,1.020989 7.77524,0 0,-1.020989 c -2.29644,0 -2.35613,-0.329858 -2.35613,-2.748815 l 0,-4.39811 2.27758,-2.356128 6.83277,10.524042 4.79079,0 0,-1.020989 c -1.25031,0.04096 -2.22104,-0.10683 -3.1415,-1.570753 l -6.36155,-9.66013 4.39811,-4.241032 c 0.95817,-0.920461 1.62102,-1.215888 2.82736,-1.256603 l 0,-1.020989 -6.20448,0 0,1.020989 c 2.00743,0 1.75297,0.684849 0.62831,1.72783 l -5.96888,5.811785 -0.0783,0 0,-18.4563477 -0.3927,-0.2354872 z m -64.00816,0.9424519 4.00541,0 c 2.92474,0 4.79394,0.6094523 5.96886,1.5707528 0.91417,0.75082 1.57075,2.4283841 1.57075,3.8483451 0,2.00114 -0.67857,3.474506 -1.8849,4.476646 -1.50793,1.25346 -3.87662,1.806366 -6.75424,1.806366 l -4.16249,0 0,-10.2884324 c 0,-1.1278005 0.17591,-1.4136775 1.25661,-1.4136775 z m -16.41438,3.9268823 c -0.54034,4.3792586 -2.3153,5.4033906 -4.94787,5.6547106 l 0,0.942451 3.1415,0 0,13.665553 c 0,3.257739 1.95716,4.24103 4.08396,4.24103 1.70898,0 3.00013,-0.534054 4.08395,-1.492215 l -0.62829,-0.942451 c -0.83879,0.628299 -1.62417,1.02099 -2.59175,1.02099 -1.45766,0 -2.04198,-1.027273 -2.04198,-2.98443 l 0,-13.508477 4.39811,0 0,-1.335139 -4.39811,0 0,-5.2620226 -1.09952,0 z M 89.155798,13.916733 c -2.67342,0 -4.655711,0.76967 -6.283013,2.277593 -1.668136,1.624156 -2.513203,4.244174 -2.513203,7.539613 0,3.801224 0.964441,6.311284 2.59174,7.853765 1.671283,1.4608 3.703838,2.041977 6.204476,2.041977 2.629442,0 4.614872,-0.622018 6.283012,-2.120516 1.589603,-1.545619 2.591741,-4.014844 2.591741,-7.775226 0,-3.295439 -0.9613,-5.830635 -2.591741,-7.461077 -1.627299,-1.545621 -3.490214,-2.356129 -6.283012,-2.356129 z m 72.804402,0 c -2.20848,0 -3.6253,0.549764 -4.71227,1.178065 -1.33827,0.791659 -2.19903,1.903752 -2.19903,2.905892 0,0.631444 0.38325,1.256603 1.17806,1.256603 0.87647,0 1.28486,-0.436669 1.49219,-1.020991 0.38014,-0.920459 0.71314,-1.627299 1.25661,-2.041976 0.75082,-0.590603 1.5739,-0.942454 2.82737,-0.942454 1.37911,0 2.3624,0.420962 2.98441,1.256604 0.54664,0.70998 0.70685,1.947733 0.70685,2.905894 l 0,1.806363 -2.43467,0.549765 c -2.67342,0.581177 -4.78137,1.473366 -6.20447,2.434666 -1.83464,1.206337 -2.59174,2.714263 -2.59174,4.633719 0,1.586463 0.64714,2.739396 1.64928,3.534198 1.08697,0.876479 2.51006,1.2566 3.84836,1.2566 2.7551,0 4.39496,-0.93931 5.81178,-2.27759 l 0.15707,0 c 0.38014,1.372838 1.29431,2.120516 2.74883,2.120516 1.0901,0 1.80323,-0.216889 2.51321,-0.549763 l -0.2355,-1.02099 c -0.33299,0.207346 -0.68798,0.314151 -1.09953,0.314151 -0.83249,0 -1.25659,-0.79166 -1.25659,-2.670279 l 0,-9.817207 c 0,-1.83464 -0.33301,-2.949874 -1.41369,-4.162496 -1.04612,-1.165498 -2.51948,-1.64929 -5.02641,-1.64929 z m 15.39337,0 c -1.37912,1.00214 -2.80221,1.435668 -4.63372,1.727828 l 0,0.942451 c 2.20837,-0.04096 2.43466,0.251322 2.43466,2.670281 l 0,10.131358 c 0,2.507045 -0.18547,2.748815 -2.43466,2.748815 l 0,1.020989 7.304,0 0,-1.020989 c -1.96345,0 -2.04197,-0.24177 -2.04197,-2.748815 l 0,-10.052821 c 1.67127,-2.299581 3.58759,-3.926882 5.34056,-3.926882 1.12465,0 1.88804,0.323575 2.43467,0.863914 0.79165,0.838781 0.94244,2.142507 0.94244,3.769807 l 0,9.345982 c 0,2.507045 -0.11306,2.748815 -2.1205,2.748815 l 0,1.020989 7.06838,0 0,-1.020989 c -1.87849,0 -2.04199,-0.332999 -2.04199,-2.670278 l 0,-9.581596 c 0,-2.208477 -0.5309,-3.713258 -1.4922,-4.63372 -0.91733,-0.87648 -2.21162,-1.335139 -4.00542,-1.335139 -2.29644,0 -4.45467,1.328857 -6.12594,3.455657 l -0.0785,0 -0.15709,-3.220043 -0.39268,-0.235488 z m -88.276308,1.335139 c 1.756101,0 3.201191,0.556048 4.162492,1.727829 1.124662,1.4608 1.72783,3.537336 1.72783,6.754238 0,3.380258 -0.763384,5.494491 -1.806366,6.832774 -0.958161,1.083821 -2.252459,1.806368 -4.00542,1.806368 -1.75296,0 -3.128941,-0.722547 -4.083958,-1.806368 -1.042981,-1.338283 -1.727827,-3.452516 -1.727827,-6.832774 0,-3.216902 0.606308,-5.293438 1.727827,-6.754238 0.999,-1.171781 2.33728,-1.727829 4.005422,-1.727829 z m 44.609388,3.220043 5.18347,0 c 3.41797,0 5.76467,0.596888 7.22547,1.727828 1.49535,1.127802 2.27759,2.717405 2.27759,4.555185 0,2.173922 -0.64715,3.750957 -1.64928,4.790798 -1.41996,1.463941 -3.31744,2.041978 -6.28301,2.041978 l -5.1835,0 c -1.2943,0 -1.57074,-0.292161 -1.57074,-2.041978 l 0,-11.073811 z m 31.80774,4.005421 0,7.382538 c -1.04612,1.039838 -2.42839,2.199053 -4.47665,2.199053 -1.25032,0 -2.19904,-0.430384 -2.82734,-1.020986 -0.62831,-0.622019 -0.86392,-1.501642 -0.86392,-2.591743 0,-1.916318 1.12465,-3.053545 2.74881,-3.926885 1.54249,-0.958158 3.62216,-1.542479 5.4191,-2.041977 z" id="path3087" style="fill-opacity: 1; fill-rule: nonzero; stroke: none; fill: rgb(255, 255, 255);"/>
</svg>