<svg width="1274" height="295" viewBox="0 0 1274 295" fill="none" xmlns="http://www.w3.org/2000/svg">
<path d="M64.2195 235.94C62.6058 237.765 61.834 239.589 60.992 241.483C60.0097 243.659 58.3257 244.641 55.9402 244.641C53.4844 244.641 51.5198 243.799 50.3972 241.554C49.6955 240.08 48.9939 238.537 48.9939 236.853C48.5729 223.662 48.8536 210.541 52.7126 197.771C54.3965 191.877 56.4313 186.124 59.5185 180.862C62.7461 175.248 64.2195 169.214 65.2018 162.97C68.2189 143.674 73.1304 124.87 82.9534 107.68C89.6892 95.9627 98.8105 87.0519 112.984 85.2978C126.525 83.4735 137.822 88.3148 145.961 99.2605C152.276 107.821 159.713 114.346 170.518 116.731C173.044 117.223 175.36 118.556 177.605 119.748C179.85 120.941 181.675 122.836 180.692 125.712C179.78 128.449 177.465 129.221 174.798 129.221C166.87 129.221 159.011 129.431 151.083 129.221C143.154 129.01 135.366 129.712 127.929 132.729C116.562 137.219 108.353 145.148 102.459 155.532C91.7239 174.547 89.2682 195.105 91.303 216.294C92.3554 227.31 95.0217 238.116 100.284 248.079C102.599 252.429 105.406 256.499 109.826 259.025C115.931 262.673 122.596 261.901 127.859 257.2C134.314 251.377 137.892 243.869 140.067 235.8C143.646 222.82 145.54 209.559 144.768 196.087C144.207 186.545 142.804 177.002 141.541 167.39C140.979 163.461 141.611 160.023 144.979 157.637C148.417 155.252 151.855 155.673 155.433 157.777C164.695 163.25 171.22 171.249 175.851 180.651C180.622 190.193 183.92 200.297 185.323 210.962C186.586 220.434 186.376 229.977 185.534 239.379C185.253 242.115 183.92 244.15 180.833 244.711C177.605 245.272 175.29 244.22 173.956 241.273C173.886 241.133 173.886 241.062 173.816 240.992C172.764 239.589 173.115 236.502 170.869 236.782C168.834 237.063 169.466 239.94 168.905 241.694C165.046 253.341 160.064 264.357 152.697 274.32C149.539 278.6 149.96 280.495 154.17 283.793C154.731 284.284 155.433 284.775 155.994 285.266C157.819 286.95 158.661 288.915 157.608 291.3C156.696 293.475 154.731 294.528 152.486 294.317C142.804 293.545 133.121 293.335 123.508 292.703C114.036 292.072 104.634 293.195 95.2322 293.335C91.2328 293.405 87.1633 294.036 83.0937 294.247C80.9186 294.387 79.0944 293.616 78.2524 291.37C77.3403 289.125 77.6911 286.95 79.3049 285.196C79.9363 284.494 80.9186 284.003 81.6905 283.301C85.6898 280.144 85.9705 277.829 82.8832 273.829C75.2353 263.936 69.8327 252.99 66.6051 240.922C65.9737 239.308 65.4825 237.624 64.2195 235.94Z" fill="white"/>
<path d="M0 133.702C0.350821 107.32 8.13906 83.1134 24.2067 61.8536C33.6789 49.224 45.1858 38.6994 59.0783 30.9112C61.8147 29.3676 62.6567 28.0344 60.9026 25.0875C58.2364 20.3865 56.0613 15.3347 53.8862 10.4232C52.6232 7.61662 53.5353 4.88022 55.7104 2.84545C58.0259 0.670358 60.9026 0.319537 63.8495 1.44217C65.9544 2.21397 67.077 3.75759 68.0593 5.65202C70.2344 10.0724 72.4797 14.3524 74.5846 18.7727C75.7774 21.2987 77.1807 22.0003 80.1276 20.8777C99.4228 13.5104 119.49 11.4055 139.837 14.1419C159.203 16.8081 177.095 23.4738 193.162 34.6299C197.442 37.5066 201.371 40.7342 205.301 44.1021C208.879 47.1191 208.388 51.9604 204.529 54.2057C202.705 55.2582 200.95 55.1178 199.126 54.1355C196.46 52.7323 194.355 50.4168 191.548 49.1539C178.217 43.1198 165.658 44.523 154.221 53.5742C147.345 58.9769 145.38 66.6949 145.731 74.9743C145.801 77.7809 146.082 80.377 143.486 82.1311C140.82 83.815 138.224 83.2537 135.557 81.7101C121.104 73.8517 106.93 75.1848 93.3185 83.6045C87.0739 87.3934 81.5309 92.1646 77.3912 98.2689C74.5846 102.479 72.2692 106.829 72.4095 112.091C72.4797 114.477 71.5676 116.371 69.182 117.424C66.8666 118.546 64.7616 118.125 62.8672 116.652C60.8324 115.108 58.938 113.284 56.7629 111.951C45.3261 104.864 35.1523 106.899 23.8559 115.74C15.6466 122.265 12.4191 131.386 12.2086 141.56C12.1384 144.437 11.1561 146.542 8.41971 147.665C5.8938 148.647 3.78887 147.805 1.9646 145.981C1.19279 145.139 0.701643 144.156 0.631478 143.034C0.420986 139.876 0.210493 136.719 0 133.702Z" fill="white"/>
<path d="M224.941 255.262C225.854 270.488 214.908 284.03 202.98 288.169C197.016 290.204 190.912 289.783 185.018 288.59C176.528 286.766 168.95 282.907 162.074 277.785C159.619 275.961 158.847 274.347 160.952 271.751C164.39 267.401 166.775 262.559 168.67 257.507C169.512 255.122 170.634 255.052 172.178 257.016C174.002 259.402 175.897 261.788 177.721 264.103C181.861 269.365 187.263 271.049 193.648 269.295C199.542 267.681 202.84 263.471 203.752 257.648C204.313 253.859 203.12 250.281 201.156 246.843C197.156 239.616 200.665 232.319 208.593 230.985C212.593 230.284 216.031 231.617 218.416 234.844C222.837 240.949 225.503 247.755 224.941 255.262Z" fill="white"/>
<path d="M332.748 239.197C331.078 239.197 329.658 238.613 328.489 237.444C327.32 236.276 326.736 234.857 326.736 233.188V94.7365H280.394C278.724 94.7365 277.304 94.1523 276.135 92.9839C274.966 91.8156 274.382 90.3968 274.382 88.7277V70.2008C274.382 68.3647 274.966 66.8626 276.135 65.6942C277.304 64.5258 278.724 63.9416 280.394 63.9416H408.147C409.984 63.9416 411.487 64.5258 412.656 65.6942C413.825 66.8626 414.409 68.3647 414.409 70.2008V88.7277C414.409 90.3968 413.825 91.8156 412.656 92.9839C411.487 94.1523 409.984 94.7365 408.147 94.7365H362.056V233.188C362.056 234.857 361.471 236.276 360.302 237.444C359.133 238.613 357.63 239.197 355.793 239.197H332.748Z" fill="white"/>
<path d="M469.266 241.701C459.079 241.701 450.228 239.447 442.714 234.941C435.366 230.267 429.688 223.758 425.68 215.412C421.672 206.9 419.668 196.885 419.668 185.369V115.016C419.668 113.347 420.252 111.928 421.421 110.76C422.59 109.591 424.01 109.007 425.68 109.007H447.723C449.56 109.007 450.98 109.591 451.982 110.76C453.151 111.928 453.735 113.347 453.735 115.016V183.866C453.735 204.563 462.837 214.912 481.039 214.912C489.723 214.912 496.57 212.158 501.58 206.65C506.757 201.142 509.346 193.547 509.346 183.866V115.016C509.346 113.347 509.93 111.928 511.099 110.76C512.268 109.591 513.688 109.007 515.357 109.007H537.401C539.071 109.007 540.491 109.591 541.66 110.76C542.829 111.928 543.413 113.347 543.413 115.016V233.188C543.413 234.857 542.829 236.276 541.66 237.444C540.491 238.613 539.071 239.197 537.401 239.197H517.111C515.274 239.197 513.771 238.613 512.602 237.444C511.6 236.276 511.099 234.857 511.099 233.188V222.923C506.59 228.765 500.996 233.355 494.316 236.693C487.636 240.032 479.286 241.701 469.266 241.701Z" fill="white"/>
<path d="M570.991 239.197C569.488 239.197 568.152 238.696 566.983 237.695C565.981 236.526 565.48 235.191 565.48 233.689C565.48 233.188 565.564 232.604 565.731 231.936C566.065 231.269 566.566 230.434 567.234 229.433L609.818 172.35L570.24 118.772C569.739 117.937 569.321 117.186 568.987 116.518C568.82 115.851 568.737 115.183 568.737 114.515C568.737 113.013 569.238 111.761 570.24 110.76C571.409 109.591 572.745 109.007 574.248 109.007H596.041C598.045 109.007 599.548 109.508 600.55 110.509C601.552 111.511 602.303 112.429 602.804 113.263L631.11 150.818L659.416 113.263C660.084 112.429 660.836 111.511 661.671 110.509C662.673 109.508 664.176 109.007 666.18 109.007H686.971C688.474 109.007 689.726 109.591 690.728 110.76C691.897 111.761 692.482 112.93 692.482 114.265C692.482 115.099 692.315 115.851 691.981 116.518C691.814 117.186 691.48 117.937 690.979 118.772L650.899 172.85L693.734 229.433C694.402 230.434 694.82 231.269 694.987 231.936C695.321 232.604 695.488 233.188 695.488 233.689C695.488 235.191 694.903 236.526 693.734 237.695C692.732 238.696 691.48 239.197 689.977 239.197H667.182C665.345 239.197 663.925 238.78 662.923 237.945C661.921 236.944 661.086 236.026 660.418 235.191L630.359 195.383L599.798 235.191C599.13 236.026 598.295 236.944 597.293 237.945C596.458 238.78 595.039 239.197 593.035 239.197H570.991Z" fill="white"/>
<path d="M808.575 241.701C793.044 241.701 779.852 239.03 768.997 233.689C758.309 228.181 750.126 220.42 744.448 210.405C738.77 200.224 735.597 188.039 734.929 173.852C734.762 167.008 734.679 159.664 734.679 151.82C734.679 143.975 734.762 136.464 734.929 129.287C735.597 115.266 738.77 103.165 744.448 92.9839C750.293 82.8024 758.559 75.0411 769.247 69.7C780.102 64.192 793.211 61.438 808.575 61.438C819.931 61.438 830.118 62.9402 839.136 65.9446C848.154 68.9489 855.835 73.1217 862.181 78.4628C868.527 83.637 873.454 89.7292 876.961 96.7394C880.468 103.75 882.305 111.344 882.472 119.523C882.639 121.025 882.138 122.277 880.969 123.278C879.967 124.28 878.714 124.78 877.211 124.78H853.414C851.577 124.78 850.074 124.363 848.905 123.528C847.736 122.527 846.901 120.941 846.4 118.772C843.728 107.755 839.136 100.245 832.623 96.2387C826.11 92.2329 818.01 90.2299 808.325 90.2299C797.136 90.2299 788.201 93.4012 781.522 99.7438C774.842 105.919 771.251 116.184 770.75 130.539C770.249 144.225 770.249 158.246 770.75 172.6C771.251 186.954 774.842 197.303 781.522 203.645C788.201 209.821 797.136 212.909 808.325 212.909C818.01 212.909 826.11 210.906 832.623 206.9C839.136 202.727 843.728 195.216 846.4 184.367C846.901 182.03 847.736 180.445 848.905 179.61C850.074 178.776 851.577 178.358 853.414 178.358H877.211C878.714 178.358 879.967 178.859 880.969 179.861C882.138 180.862 882.639 182.114 882.472 183.616C882.305 191.795 880.468 199.389 876.961 206.399C873.454 213.409 868.527 219.585 862.181 224.926C855.835 230.1 848.154 234.19 839.136 237.194C830.118 240.198 819.931 241.701 808.575 241.701Z" fill="white"/>
<path d="M946.998 241.701C938.314 241.701 930.465 240.032 923.451 236.693C916.437 233.188 910.843 228.598 906.668 222.923C902.66 217.081 900.656 210.572 900.656 203.395C900.656 191.711 905.332 182.448 914.684 175.604C924.203 168.594 936.727 163.921 952.258 161.584L986.576 156.577V151.319C986.576 144.309 984.823 138.884 981.316 135.045C977.809 131.206 971.797 129.287 963.28 129.287C957.268 129.287 952.342 130.539 948.501 133.042C944.827 135.379 942.071 138.55 940.234 142.556C938.898 144.726 936.978 145.811 934.473 145.811H914.684C912.847 145.811 911.427 145.31 910.425 144.309C909.59 143.307 909.173 141.972 909.173 140.303C909.34 137.632 910.425 134.378 912.429 130.539C914.433 126.7 917.606 123.028 921.948 119.523C926.29 115.851 931.885 112.763 938.731 110.259C945.578 107.755 953.845 106.504 963.531 106.504C974.051 106.504 982.902 107.839 990.083 110.509C997.431 113.013 1003.28 116.435 1007.62 120.774C1011.96 125.114 1015.13 130.205 1017.14 136.047C1019.14 141.889 1020.14 148.064 1020.14 154.574V233.188C1020.14 234.857 1019.56 236.276 1018.39 237.444C1017.22 238.613 1015.8 239.197 1014.13 239.197H993.841C992.004 239.197 990.501 238.613 989.332 237.444C988.33 236.276 987.829 234.857 987.829 233.188V223.424C985.658 226.595 982.735 229.6 979.061 232.437C975.387 235.108 970.878 237.361 965.535 239.197C960.358 240.866 954.179 241.701 946.998 241.701ZM955.515 217.916C961.36 217.916 966.62 216.664 971.296 214.16C976.139 211.657 979.896 207.818 982.568 202.644C985.407 197.303 986.827 190.626 986.827 182.615V177.357L961.777 181.363C951.924 182.865 944.576 185.285 939.733 188.623C934.89 191.961 932.469 196.051 932.469 200.891C932.469 204.563 933.555 207.734 935.725 210.405C938.063 212.909 940.986 214.828 944.493 216.163C948 217.332 951.674 217.916 955.515 217.916Z" fill="white"/>
<path d="M1058.29 239.197C1056.62 239.197 1055.2 238.613 1054.03 237.444C1052.86 236.276 1052.28 234.857 1052.28 233.188V115.266C1052.28 113.43 1052.86 111.928 1054.03 110.76C1055.2 109.591 1056.62 109.007 1058.29 109.007H1078.58C1080.25 109.007 1081.67 109.591 1082.84 110.76C1084.18 111.928 1084.84 113.43 1084.84 115.266V125.531C1088.68 120.19 1093.61 116.101 1099.62 113.263C1105.8 110.426 1112.9 109.007 1120.91 109.007H1131.19C1133.02 109.007 1134.44 109.591 1135.44 110.76C1136.61 111.928 1137.2 113.347 1137.2 115.016V133.042C1137.2 134.711 1136.61 136.13 1135.44 137.299C1134.44 138.467 1133.02 139.051 1131.19 139.051H1111.65C1103.63 139.051 1097.37 141.304 1092.86 145.811C1088.52 150.317 1086.35 156.493 1086.35 164.338V233.188C1086.35 234.857 1085.76 236.276 1084.59 237.444C1083.42 238.613 1081.92 239.197 1080.08 239.197H1058.29Z" fill="white"/>
<path d="M1211.13 241.701C1192.6 241.701 1177.9 236.359 1167.05 225.677C1156.19 214.995 1150.35 199.806 1149.51 180.111C1149.34 178.442 1149.26 176.355 1149.26 173.852C1149.26 171.181 1149.34 169.095 1149.51 167.593C1150.18 155.074 1153.02 144.225 1158.03 135.045C1163.2 125.865 1170.3 118.855 1179.32 114.015C1188.34 109.007 1198.94 106.504 1211.13 106.504C1224.66 106.504 1236.02 109.341 1245.2 115.016C1254.38 120.524 1261.32 128.285 1265.99 138.3C1270.67 148.148 1273.01 159.581 1273.01 172.6V177.858C1273.01 179.527 1272.42 180.945 1271.25 182.114C1270.08 183.282 1268.58 183.866 1266.74 183.866H1183.58C1183.58 183.866 1183.58 184.117 1183.58 184.617C1183.58 185.118 1183.58 185.535 1183.58 185.869C1183.74 191.711 1184.83 197.136 1186.83 202.143C1189.01 206.983 1192.09 210.906 1196.1 213.91C1200.28 216.914 1205.2 218.417 1210.88 218.417C1215.56 218.417 1219.48 217.749 1222.66 216.414C1225.83 214.912 1228.42 213.242 1230.42 211.406C1232.42 209.57 1233.84 208.068 1234.68 206.9C1236.18 204.897 1237.35 203.729 1238.19 203.395C1239.19 202.894 1240.61 202.644 1242.44 202.644H1263.99C1265.66 202.644 1266.99 203.144 1268 204.146C1269.16 205.147 1269.67 206.399 1269.5 207.901C1269.33 210.572 1267.91 213.827 1265.24 217.666C1262.73 221.505 1259.06 225.26 1254.22 228.932C1249.37 232.604 1243.28 235.692 1235.93 238.196C1228.75 240.532 1220.48 241.701 1211.13 241.701ZM1183.58 162.836H1238.94V162.085C1238.94 155.575 1237.85 149.9 1235.68 145.06C1233.51 140.219 1230.34 136.381 1226.16 133.543C1221.99 130.706 1216.98 129.287 1211.13 129.287C1205.29 129.287 1200.28 130.706 1196.1 133.543C1191.93 136.381 1188.75 140.219 1186.58 145.06C1184.58 149.9 1183.58 155.575 1183.58 162.085V162.836Z" fill="white"/>
</svg>
