<?xml version="1.0" encoding="UTF-8" standalone="no"?>
<svg
   xmlns:dc="http://purl.org/dc/elements/1.1/"
   xmlns:cc="http://creativecommons.org/ns#"
   xmlns:rdf="http://www.w3.org/1999/02/22-rdf-syntax-ns#"
   xmlns:svg="http://www.w3.org/2000/svg"
   xmlns="http://www.w3.org/2000/svg"
   xmlns:sodipodi="http://sodipodi.sourceforge.net/DTD/sodipodi-0.dtd"
   xmlns:inkscape="http://www.inkscape.org/namespaces/inkscape"
   version="1.1"
   id="svg2"
   xml:space="preserve"
   width="682.66669"
   height="853.33331"
   viewBox="0 0 682.66669 853.33331"
   sodipodi:docname="TuxCare (2).ai"><metadata
     id="metadata8"><rdf:RDF><cc:Work
         rdf:about=""><dc:format>image/svg+xml</dc:format><dc:type
           rdf:resource="http://purl.org/dc/dcmitype/StillImage" /></cc:Work></rdf:RDF></metadata><defs
     id="defs6"><clipPath
       clipPathUnits="userSpaceOnUse"
       id="clipPath18"><path
         d="M 0,640 H 512 V 0 H 0 Z"
         id="path16" /></clipPath></defs><sodipodi:namedview
     pagecolor="#ffffff"
     bordercolor="#666666"
     borderopacity="1"
     objecttolerance="10"
     gridtolerance="10"
     guidetolerance="10"
     inkscape:pageopacity="0"
     inkscape:pageshadow="2"
     inkscape:window-width="640"
     inkscape:window-height="480"
     id="namedview4" /><g
     id="g10"
     inkscape:groupmode="layer"
     inkscape:label="TuxCare (2)"
     transform="matrix(1.3333333,0,0,-1.3333333,0,853.33333)"><g
       id="g12"><g
         id="g14"
         clip-path="url(#clipPath18)"><g
           id="g20"
           transform="translate(178.938,234.5926)"><path
             d="m 0,0 c -2.356,-2.78 -3.62,-5.718 -4.91,-8.625 -1.492,-3.367 -4.104,-4.938 -7.701,-4.935 -3.69,0.003 -6.7,1.274 -8.394,4.805 -1.116,2.326 -2.062,4.677 -2.136,7.333 -0.568,20.406 -0.19,40.693 5.598,60.542 2.647,9.079 5.699,17.971 10.326,26.202 4.873,8.671 7.125,17.975 8.618,27.724 4.581,29.911 12.069,58.99 27.044,85.618 10.172,18.086 24.144,31.885 45.599,34.748 20.625,2.752 37.822,-4.716 50.1,-21.582 9.607,-13.197 20.883,-23.361 37.27,-27.045 3.76,-0.845 7.376,-2.776 10.762,-4.723 3.373,-1.938 6.21,-4.778 4.718,-9.223 -1.394,-4.155 -4.923,-5.424 -8.998,-5.433 -11.987,-0.026 -23.981,-0.267 -35.961,0.025 -12.093,0.296 -23.868,-0.789 -35.195,-5.351 C 79.459,153.12 66.976,140.868 58.083,124.813 41.798,95.416 38.008,63.486 41.067,30.748 c 1.586,-16.982 5.57,-33.812 13.719,-49.183 3.547,-6.69 7.783,-12.965 14.468,-16.997 9.289,-5.602 19.402,-4.535 27.445,2.801 9.843,8.98 15.245,20.638 18.612,33.121 5.417,20.083 8.292,40.647 7.06,61.456 -0.879,14.831 -2.975,29.605 -4.92,44.353 -0.81,6.142 0.123,11.376 5.219,15.069 5.168,3.744 10.524,3.027 15.856,-0.203 14.101,-8.543 23.97,-20.862 31.026,-35.431 7.192,-14.845 12.282,-30.447 14.417,-46.897 1.904,-14.661 1.606,-29.352 0.285,-44.027 -0.381,-4.248 -2.496,-7.436 -7.095,-8.314 -4.859,-0.928 -8.373,0.763 -10.486,5.274 -0.072,0.155 -0.146,0.313 -0.247,0.449 -1.626,2.204 -1.085,6.995 -4.536,6.503 -3.057,-0.436 -2.146,-4.915 -3.009,-7.561 -5.867,-17.996 -13.382,-35.142 -24.597,-50.545 -4.792,-6.581 -4.189,-9.563 2.161,-14.679 0.932,-0.75 1.888,-1.479 2.764,-2.292 2.755,-2.561 3.958,-5.687 2.503,-9.269 -1.377,-3.385 -4.356,-5.017 -7.84,-4.725 -14.663,1.231 -29.38,1.45 -44.038,2.453 -14.434,0.988 -28.697,-0.766 -43.04,-1.048 -6.141,-0.12 -12.262,-1.063 -18.404,-1.383 -3.264,-0.17 -6.083,0.996 -7.447,4.351 -1.427,3.508 -0.92,6.76 1.588,9.557 1.011,1.128 2.409,1.904 3.61,2.868 6.09,4.887 6.483,8.497 1.766,14.73 C 16.303,-43.489 8.156,-26.479 3.243,-7.896 2.557,-5.3 1.855,-2.659 0,0"
             style="fill:#ffffff;fill-opacity:1;fill-rule:nonzero;stroke:none"
             id="path22" /></g><g
           id="g24"
           transform="translate(82.9233,391.4314)"><path
             d="m 0,0 c 0.548,40.947 12.412,78.254 36.821,111.23 14.399,19.453 31.87,35.79 52.989,47.87 4.242,2.427 5.37,4.435 2.837,9.05 -4.028,7.338 -7.392,15.057 -10.749,22.74 -1.923,4.404 -0.545,8.58 2.764,11.764 3.504,3.371 7.863,3.945 12.427,2.192 3.07,-1.179 4.906,-3.629 6.295,-6.466 3.315,-6.769 6.696,-13.507 9.883,-20.336 1.834,-3.928 3.943,-5.048 8.43,-3.307 29.334,11.383 59.818,14.702 90.84,10.409 29.394,-4.067 56.56,-14.536 81.031,-31.7 6.471,-4.539 12.546,-9.503 18.481,-14.659 5.363,-4.66 4.656,-12.225 -1.19,-15.594 -2.805,-1.616 -5.396,-1.44 -8.24,0.103 -4.085,2.216 -7.207,5.77 -11.487,7.721 -20.329,9.264 -39.359,7.178 -56.736,-6.839 -10.467,-8.443 -13.375,-20.324 -12.942,-33.13 0.144,-4.297 0.528,-8.449 -3.443,-11.061 -3.98,-2.617 -8.031,-1.681 -12.094,0.571 -21.959,12.17 -43.478,10.071 -64.212,-2.889 -9.462,-5.914 -17.87,-13.246 -24.175,-22.7 -4.34,-6.507 -7.824,-13.257 -7.626,-21.378 0.091,-3.722 -1.312,-6.61 -4.868,-8.316 -3.517,-1.688 -6.66,-1.074 -9.605,1.193 -3.113,2.397 -5.98,5.168 -9.283,7.256 C 68.738,44.734 53.239,41.561 36.196,27.835 23.676,17.75 18.754,3.639 18.523,-12.176 c -0.065,-4.397 -1.595,-7.717 -5.791,-9.352 -3.803,-1.481 -7.022,-0.246 -9.763,2.6 -1.249,1.296 -1.922,2.824 -2.042,4.592 C 0.604,-9.559 0.307,-4.779 0,0"
             style="fill:#ffffff;fill-opacity:1;fill-rule:nonzero;stroke:none"
             id="path26" /></g><g
           id="g28"
           transform="translate(426.124,207.5642)"><path
             d="m 0,0 c 1.391,-23.628 -15.24,-44.547 -33.415,-50.868 -9.074,-3.156 -18.286,-2.537 -27.333,-0.574 -12.88,2.794 -24.368,8.788 -34.897,16.735 -3.67,2.77 -4.862,5.283 -1.736,9.3 5.189,6.667 8.856,14.216 11.72,22.146 1.319,3.653 3.008,3.799 5.283,0.766 2.771,-3.696 5.581,-7.363 8.409,-11.017 6.26,-8.087 14.548,-10.695 24.194,-8.049 8.965,2.46 14.036,8.966 15.449,17.989 0.929,5.923 -1.026,11.388 -3.899,16.664 -6.074,11.153 -0.812,22.535 11.283,24.641 6.088,1.06 11.282,-1.017 14.867,-5.991 C -3.197,22.197 0.831,11.646 0,0"
             style="fill:#ffffff;fill-opacity:1;fill-rule:nonzero;stroke:none"
             id="path30" /></g><g
           id="g32"
           transform="translate(87.8564,116.7439)"><path
             d="M 0,0 H -21.598 V 10.932 H 33.543 V 0 H 11.931 V -70.424 H 0 Z"
             style="fill:#ffffff;fill-opacity:1;fill-rule:nonzero;stroke:none"
             id="path34" /></g><g
           id="g36"
           transform="translate(120.1094,104.24)"><path
             d="m 0,0 h 11.261 v -34.529 c 0,-3.911 1.062,-6.966 3.189,-9.163 2.09,-2.199 4.758,-3.296 8.002,-3.296 3.243,0 5.893,1.097 7.946,3.296 2.091,2.197 3.137,5.252 3.137,9.163 V 0 H 44.796 V -57.92 H 33.534 v 6.193 h -0.216 c -3.709,-4.575 -8.549,-6.863 -14.525,-6.863 -4.645,0.075 -8.84,1.819 -12.583,5.236 -4.068,3.34 -6.139,8.279 -6.21,14.814 z"
             style="fill:#ffffff;fill-opacity:1;fill-rule:nonzero;stroke:none"
             id="path38" /></g><g
           id="g40"
           transform="translate(176.1045,104.24)"><path
             d="M 0,0 H 13.502 L 24.629,-18.726 35.81,0 H 49.313 L 30.341,-28.347 50.068,-57.92 H 36.619 L 24.629,-38.637 12.692,-57.92 H -0.811 l 19.174,29.574 z"
             style="fill:#ffffff;fill-opacity:1;fill-rule:nonzero;stroke:none"
             id="path42" /></g><g
           id="g44"
           transform="translate(290.4941,69.0486)"><path
             d="m 0,0 c -1.73,-7.54 -5.029,-13.334 -9.895,-17.382 -5.01,-4.011 -10.94,-6.016 -17.789,-6.016 -6.195,0.149 -11.362,1.711 -15.504,4.687 -4.215,2.864 -7.276,6.174 -9.184,9.932 -0.577,1.227 -1.1,2.399 -1.566,3.515 -0.433,1.153 -0.794,2.604 -1.082,4.353 -0.541,3.272 -0.81,9.559 -0.81,18.86 0,9.448 0.27,15.772 0.811,18.972 0.577,3.198 1.458,5.784 2.648,7.756 1.909,3.757 4.972,7.104 9.188,10.044 4.143,2.975 9.314,4.501 15.511,4.575 7.603,-0.074 13.8,-2.396 18.592,-6.964 C -4.288,47.726 -1.262,42.024 0,35.228 h -12.666 c -0.976,3.28 -2.744,6.076 -5.306,8.387 -2.671,2.198 -5.918,3.335 -9.743,3.41 -2.815,-0.075 -5.233,-0.652 -7.253,-1.733 -2.058,-1.118 -3.718,-2.516 -4.981,-4.193 -1.551,-1.752 -2.579,-4.008 -3.085,-6.767 -0.577,-2.907 -0.866,-8.369 -0.866,-16.383 0,-8.015 0.289,-13.439 0.867,-16.271 0.505,-2.834 1.533,-5.126 3.086,-6.879 1.264,-1.677 2.925,-3.038 4.983,-4.082 2.021,-1.23 4.44,-1.845 7.256,-1.845 6.715,0 11.733,3.709 15.056,11.128 z"
             style="fill:#ffffff;fill-opacity:1;fill-rule:nonzero;stroke:none"
             id="path46" /></g><g
           id="g48"
           transform="translate(329.3555,70.8768)"><path
             d="m 0,0 h -13.534 c -6.571,-0.149 -9.82,-2.476 -9.745,-6.98 0,-1.973 0.847,-3.648 2.544,-5.026 1.625,-1.526 4.313,-2.289 8.066,-2.289 4.728,-0.075 8.066,0.502 10.016,1.731 1.767,1.228 2.653,4.02 2.653,8.376 z m 0,-19.426 h -0.217 c -1.044,-1.97 -2.665,-3.421 -4.861,-4.35 -2.161,-0.966 -5.151,-1.451 -8.967,-1.451 -6.267,0.076 -11.093,1.786 -14.477,5.133 -3.567,3.273 -5.348,7.457 -5.348,12.553 0,4.872 1.548,8.908 4.644,12.107 3.098,3.273 7.635,4.946 13.614,5.021 H 0 v 6.112 c 0.074,5.12 -3.764,7.606 -11.512,7.458 -2.81,0 -5.026,-0.3 -6.646,-0.897 -1.695,-0.711 -3.028,-1.907 -4,-3.589 l -8.863,6.982 c 4.283,5.773 10.602,8.583 18.954,8.435 7.055,0.074 12.689,-1.303 16.902,-4.129 4.211,-2.901 6.353,-7.887 6.426,-14.954 V -24.557 H 0 Z"
             style="fill:#ffffff;fill-opacity:1;fill-rule:nonzero;stroke:none"
             id="path50" /></g><g
           id="g52"
           transform="translate(357.0322,104.24)"><path
             d="m 0,0 h 11.261 v -6.139 h 0.235 c 3.712,4.577 8.578,6.864 14.599,6.864 4.506,-0.075 8.434,-1.557 11.786,-4.448 l -8.224,-10.062 c -2.382,1.938 -4.852,2.909 -7.413,2.909 -2.886,0 -5.356,-0.969 -7.412,-2.905 -2.309,-1.901 -3.5,-4.973 -3.571,-9.219 V -57.92 H 0 Z"
             style="fill:#ffffff;fill-opacity:1;fill-rule:nonzero;stroke:none"
             id="path54" /></g><g
           id="g56"
           transform="translate(431.6348,80.4637)"><path
             d="m 0,0 c -0.145,4.523 -1.317,7.943 -3.521,10.261 -2.166,2.206 -4.947,3.309 -8.341,3.309 -3.395,0 -6.175,-1.103 -8.342,-3.309 C -22.335,7.943 -23.509,4.523 -23.725,0 Z m -23.725,-9.587 c 0,-4.654 1.297,-8.19 3.894,-10.609 2.415,-2.457 5.588,-3.686 9.518,-3.686 4.58,0 8.67,1.88 12.277,5.64 l 8.166,-7.201 c -5.728,-6.322 -12.464,-9.445 -20.207,-9.37 -2.954,0 -5.837,0.446 -8.646,1.338 -1.405,0.484 -2.773,1.135 -4.105,1.954 -1.406,0.706 -2.721,1.581 -3.944,2.623 -2.378,2.157 -4.305,5.169 -5.782,9.039 -1.622,3.719 -2.431,8.555 -2.431,14.507 0,5.729 0.701,10.491 2.106,14.286 1.404,3.868 3.205,6.919 5.402,9.15 2.234,2.269 4.737,3.906 7.511,4.911 2.737,1.004 5.438,1.506 8.104,1.506 C -5.451,24.427 -0.031,22.25 4.399,17.971 8.902,13.618 11.189,7.627 11.262,0 v -9.587 z"
             style="fill:#ffffff;fill-opacity:1;fill-rule:nonzero;stroke:none"
             id="path58" /></g></g></g></g></svg>
