<svg width="992" height="295" viewBox="0 0 992 295" fill="none" xmlns="http://www.w3.org/2000/svg">
<path d="M65.0296 235.94C63.4158 237.765 62.644 239.589 61.802 241.483C60.8197 243.659 59.1358 244.641 56.7502 244.641C54.2945 244.641 52.3299 243.799 51.2072 241.554C50.5056 240.08 49.804 238.537 49.804 236.853C49.383 223.662 49.6636 210.541 53.5227 197.771C55.2066 191.877 57.2414 186.124 60.3286 180.862C63.5562 175.248 65.0296 169.214 66.0119 162.97C69.029 143.674 73.9405 124.87 83.7635 107.68C90.4992 95.9627 99.6206 87.0519 113.794 85.2978C127.335 83.4735 138.632 88.3148 146.771 99.2605C153.086 107.821 160.523 114.346 171.328 116.731C173.854 117.223 176.17 118.556 178.415 119.748C180.66 120.941 182.485 122.836 181.502 125.712C180.59 128.449 178.275 129.221 175.609 129.221C167.68 129.221 159.822 129.431 151.893 129.221C143.964 129.01 136.176 129.712 128.739 132.729C117.372 137.219 109.163 145.148 103.269 155.532C92.534 174.547 90.0783 195.105 92.113 216.294C93.1655 227.31 95.8317 238.116 101.094 248.079C103.409 252.429 106.216 256.499 110.636 259.025C116.741 262.673 123.406 261.901 128.669 257.2C135.124 251.377 138.702 243.869 140.877 235.8C144.456 222.82 146.35 209.559 145.578 196.087C145.017 186.545 143.614 177.002 142.351 167.39C141.789 163.461 142.421 160.023 145.789 157.637C149.227 155.252 152.665 155.673 156.243 157.777C165.505 163.25 172.03 171.249 176.661 180.651C181.432 190.193 184.73 200.297 186.133 210.962C187.396 220.434 187.186 229.977 186.344 239.379C186.063 242.115 184.73 244.15 181.643 244.711C178.415 245.272 176.1 244.22 174.767 241.273C174.696 241.133 174.696 241.062 174.626 240.992C173.574 239.589 173.925 236.502 171.679 236.782C169.645 237.063 170.276 239.94 169.715 241.694C165.856 253.341 160.874 264.357 153.507 274.32C150.349 278.6 150.77 280.495 154.98 283.793C155.542 284.284 156.243 284.775 156.804 285.266C158.629 286.95 159.471 288.915 158.418 291.3C157.506 293.475 155.542 294.528 153.296 294.317C143.614 293.545 133.931 293.335 124.318 292.703C114.846 292.072 105.444 293.195 96.0422 293.335C92.0429 293.405 87.9733 294.036 83.9038 294.247C81.7287 294.387 79.9044 293.616 79.0625 291.37C78.1503 289.125 78.5011 286.95 80.1149 285.196C80.7464 284.494 81.7287 284.003 82.5005 283.301C86.4999 280.144 86.7805 277.829 83.6933 273.829C76.0454 263.936 70.6427 252.99 67.4152 240.922C66.7837 239.308 66.2926 237.624 65.0296 235.94Z" fill="white"/>
<path d="M0.810303 133.702C1.16112 107.32 8.94936 83.1134 25.017 61.8536C34.4892 49.224 45.9961 38.6994 59.8886 30.9112C62.625 29.3676 63.467 28.0344 61.7129 25.0875C59.0467 20.3865 56.8716 15.3347 54.6965 10.4232C53.4335 7.61662 54.3456 4.88022 56.5207 2.84545C58.8362 0.670358 61.7129 0.319537 64.6598 1.44217C66.7647 2.21397 67.8874 3.75759 68.8697 5.65202C71.0447 10.0724 73.29 14.3524 75.3949 18.7727C76.5877 21.2987 77.991 22.0003 80.9379 20.8777C100.233 13.5104 120.3 11.4055 140.648 14.1419C160.013 16.8081 177.905 23.4738 193.973 34.6299C198.253 37.5066 202.182 40.7342 206.111 44.1021C209.689 47.1191 209.198 51.9604 205.339 54.2057C203.515 55.2582 201.761 55.1178 199.937 54.1355C197.27 52.7323 195.165 50.4168 192.359 49.1539C179.028 43.1198 166.468 44.523 155.031 53.5742C148.155 58.9769 146.191 66.6949 146.542 74.9743C146.612 77.7809 146.892 80.377 144.296 82.1311C141.63 83.815 139.034 83.2537 136.368 81.7101C121.914 73.8517 107.741 75.1848 94.1288 83.6045C87.8842 87.3934 82.3412 92.1646 78.2015 98.2689C75.3949 102.479 73.0795 106.829 73.2198 112.091C73.29 114.477 72.3779 116.371 69.9923 117.424C67.6769 118.546 65.5719 118.125 63.6775 116.652C61.6427 115.108 59.7483 113.284 57.5732 111.951C46.1364 104.864 35.9626 106.899 24.6662 115.74C16.4569 122.265 13.2294 131.386 13.0189 141.56C12.9487 144.437 11.9664 146.542 9.23002 147.665C6.7041 148.647 4.59917 147.805 2.7749 145.981C2.0031 145.139 1.51195 144.156 1.44178 143.034C1.23129 139.876 1.0208 136.719 0.810303 133.702Z" fill="white"/>
<path d="M225.752 255.263C226.664 270.488 215.718 284.03 203.79 288.17C197.826 290.205 191.722 289.784 185.828 288.591C177.338 286.766 169.76 282.907 162.884 277.785C160.429 275.961 159.657 274.347 161.762 271.751C165.2 267.401 167.585 262.56 169.48 257.508C170.322 255.122 171.444 255.052 172.988 257.017C174.812 259.402 176.707 261.788 178.531 264.103C182.671 269.366 188.073 271.05 194.458 269.296C200.352 267.682 203.65 263.472 204.562 257.648C205.123 253.859 203.93 250.281 201.966 246.843C197.966 239.616 201.475 232.319 209.403 230.986C213.403 230.284 216.841 231.617 219.226 234.845C223.647 240.949 226.313 247.755 225.752 255.263Z" fill="white"/>
<path d="M303.55 180.433C302.328 180.433 301.289 180.005 300.434 179.15C299.578 178.294 299.151 177.255 299.151 176.033V74.6535H265.235C264.013 74.6535 262.974 74.2257 262.118 73.3702C261.263 72.5146 260.835 71.4758 260.835 70.2536V56.6874C260.835 55.343 261.263 54.2431 262.118 53.3876C262.974 52.532 264.013 52.1043 265.235 52.1043H358.732C360.076 52.1043 361.176 52.532 362.032 53.3876C362.887 54.2431 363.315 55.343 363.315 56.6874V70.2536C363.315 71.4758 362.887 72.5146 362.032 73.3702C361.176 74.2257 360.076 74.6535 358.732 74.6535H325V176.033C325 177.255 324.572 178.294 323.716 179.15C322.861 180.005 321.761 180.433 320.416 180.433H303.55Z" fill="white"/>
<path d="M403.462 182.266C396.007 182.266 389.529 180.616 384.029 177.316C378.652 173.894 374.496 169.128 371.563 163.017C368.63 156.784 367.163 149.451 367.163 141.018V89.5029C367.163 88.2808 367.591 87.2419 368.447 86.3864C369.302 85.5309 370.341 85.1031 371.563 85.1031H387.696C389.04 85.1031 390.079 85.5309 390.812 86.3864C391.668 87.2419 392.096 88.2808 392.096 89.5029V139.918C392.096 155.073 398.757 162.65 412.078 162.65C418.434 162.65 423.445 160.634 427.111 156.601C430.9 152.567 432.794 147.006 432.794 139.918V89.5029C432.794 88.2808 433.222 87.2419 434.078 86.3864C434.933 85.5309 435.972 85.1031 437.194 85.1031H453.327C454.549 85.1031 455.588 85.5309 456.443 86.3864C457.299 87.2419 457.727 88.2808 457.727 89.5029V176.033C457.727 177.255 457.299 178.294 456.443 179.15C455.588 180.005 454.549 180.433 453.327 180.433H438.477C437.133 180.433 436.033 180.005 435.178 179.15C434.444 178.294 434.078 177.255 434.078 176.033V168.517C430.778 172.794 426.683 176.155 421.795 178.6C416.906 181.044 410.795 182.266 403.462 182.266Z" fill="white"/>
<path d="M477.91 180.433C476.81 180.433 475.832 180.066 474.977 179.333C474.243 178.478 473.877 177.5 473.877 176.4C473.877 176.033 473.938 175.605 474.06 175.117C474.304 174.628 474.671 174.017 475.16 173.283L506.326 131.485L477.36 92.2528C476.993 91.6417 476.688 91.0918 476.443 90.6029C476.321 90.114 476.26 89.6252 476.26 89.1363C476.26 88.0363 476.627 87.1197 477.36 86.3864C478.215 85.5309 479.193 85.1031 480.293 85.1031H496.243C497.709 85.1031 498.809 85.4697 499.542 86.2031C500.276 86.9364 500.826 87.6086 501.192 88.2197L521.908 115.719L542.624 88.2197C543.113 87.6086 543.663 86.9364 544.274 86.2031C545.008 85.4697 546.107 85.1031 547.574 85.1031H562.79C563.89 85.1031 564.807 85.5309 565.54 86.3864C566.396 87.1197 566.823 87.9752 566.823 88.953C566.823 89.564 566.701 90.114 566.457 90.6029C566.335 91.0918 566.09 91.6417 565.723 92.2528L536.391 131.851L567.74 173.283C568.229 174.017 568.534 174.628 568.657 175.117C568.901 175.605 569.023 176.033 569.023 176.4C569.023 177.5 568.596 178.478 567.74 179.333C567.007 180.066 566.09 180.433 564.99 180.433H548.307C546.963 180.433 545.924 180.127 545.191 179.516C544.458 178.783 543.846 178.111 543.358 177.5L521.358 148.351L498.993 177.5C498.504 178.111 497.893 178.783 497.159 179.516C496.548 180.127 495.509 180.433 494.043 180.433H477.91Z" fill="white"/>
<path d="M651.787 182.266C640.421 182.266 630.765 180.311 622.821 176.4C614.999 172.367 609.011 166.684 604.855 159.35C600.7 151.895 598.378 142.973 597.889 132.585C597.767 127.574 597.705 122.196 597.705 116.452C597.705 110.708 597.767 105.208 597.889 99.9526C598.378 89.6863 600.7 80.8255 604.855 73.3702C609.133 65.9149 615.183 60.2318 623.004 56.3208C630.949 52.2876 640.543 50.271 651.787 50.271C660.098 50.271 667.553 51.371 674.153 53.5709C680.752 55.7708 686.374 58.8263 691.019 62.7372C695.663 66.526 699.268 70.9869 701.835 76.1201C704.402 81.2532 705.746 86.8141 705.868 92.8028C705.99 93.9028 705.624 94.8194 704.768 95.5527C704.035 96.286 703.118 96.6527 702.018 96.6527H684.602C683.258 96.6527 682.158 96.3471 681.302 95.7361C680.447 95.0027 679.836 93.8417 679.469 92.2528C677.514 84.1865 674.153 78.6866 669.386 75.7534C664.62 72.8202 658.692 71.3536 651.603 71.3536C643.415 71.3536 636.876 73.6757 631.987 78.32C627.099 82.8421 624.471 90.3585 624.104 100.869C623.738 110.891 623.738 121.157 624.104 131.668C624.471 142.179 627.099 149.756 631.987 154.401C636.876 158.923 643.415 161.184 651.603 161.184C658.692 161.184 664.62 159.717 669.386 156.784C674.153 153.728 677.514 148.229 679.469 140.284C679.836 138.573 680.447 137.412 681.302 136.801C682.158 136.19 683.258 135.885 684.602 135.885H702.018C703.118 135.885 704.035 136.251 704.768 136.985C705.624 137.718 705.99 138.635 705.868 139.734C705.746 145.723 704.402 151.284 701.835 156.417C699.268 161.55 695.663 166.072 691.019 169.983C686.374 173.772 680.752 176.767 674.153 178.966C667.553 181.166 660.098 182.266 651.787 182.266Z" fill="white"/>
<path d="M753.092 182.266C746.737 182.266 740.992 181.044 735.859 178.6C730.726 176.033 726.632 172.672 723.576 168.517C720.643 164.239 719.177 159.473 719.177 154.217C719.177 145.662 722.599 138.879 729.443 133.868C736.409 128.735 745.576 125.313 756.942 123.602L782.058 119.935V116.085C782.058 110.952 780.774 106.98 778.208 104.169C775.641 101.358 771.241 99.9526 765.008 99.9526C760.608 99.9526 757.003 100.869 754.192 102.702C751.503 104.414 749.487 106.736 748.142 109.669C747.164 111.258 745.759 112.052 743.926 112.052H729.443C728.098 112.052 727.06 111.685 726.326 110.952C725.715 110.219 725.41 109.241 725.41 108.019C725.532 106.063 726.326 103.68 727.793 100.869C729.26 98.0582 731.582 95.3694 734.759 92.8028C737.937 90.114 742.031 87.853 747.042 86.0197C752.053 84.1865 758.103 83.2698 765.192 83.2698C772.891 83.2698 779.369 84.2476 784.624 86.2031C790.002 88.0363 794.279 90.5418 797.457 93.7195C800.635 96.8971 802.957 100.625 804.424 104.902C805.89 109.18 806.623 113.702 806.623 118.469V176.033C806.623 177.255 806.196 178.294 805.34 179.15C804.485 180.005 803.446 180.433 802.224 180.433H787.374C786.03 180.433 784.93 180.005 784.074 179.15C783.341 178.294 782.974 177.255 782.974 176.033V168.883C781.385 171.206 779.247 173.406 776.558 175.483C773.869 177.439 770.569 179.089 766.658 180.433C762.869 181.655 758.347 182.266 753.092 182.266ZM759.325 164.85C763.603 164.85 767.453 163.934 770.875 162.1C774.419 160.267 777.169 157.456 779.124 153.667C781.202 149.756 782.241 144.868 782.241 139.001V135.151L763.908 138.085C756.697 139.185 751.32 140.957 747.776 143.401C744.231 145.845 742.459 148.84 742.459 152.384C742.459 155.073 743.254 157.395 744.842 159.35C746.553 161.184 748.692 162.589 751.259 163.567C753.825 164.423 756.514 164.85 759.325 164.85Z" fill="white"/>
<path d="M834.542 180.433C833.32 180.433 832.281 180.005 831.426 179.15C830.57 178.294 830.142 177.255 830.142 176.033V89.6863C830.142 88.3419 830.57 87.2419 831.426 86.3864C832.281 85.5309 833.32 85.1031 834.542 85.1031H849.392C850.614 85.1031 851.653 85.5309 852.508 86.3864C853.486 87.2419 853.975 88.3419 853.975 89.6863V97.2027C856.786 93.2917 860.391 90.2974 864.791 88.2197C869.313 86.1419 874.507 85.1031 880.374 85.1031H887.89C889.235 85.1031 890.273 85.5309 891.007 86.3864C891.862 87.2419 892.29 88.2808 892.29 89.5029V102.702C892.29 103.925 891.862 104.963 891.007 105.819C890.273 106.675 889.235 107.102 887.89 107.102H873.591C867.724 107.102 863.141 108.752 859.841 112.052C856.664 115.352 855.075 119.874 855.075 125.618V176.033C855.075 177.255 854.647 178.294 853.792 179.15C852.936 180.005 851.836 180.433 850.492 180.433H834.542Z" fill="white"/>
<path d="M946.4 182.266C932.834 182.266 922.079 178.355 914.135 170.533C906.19 162.711 901.913 151.59 901.302 137.168C901.18 135.946 901.118 134.418 901.118 132.585C901.118 130.629 901.18 129.102 901.302 128.002C901.791 118.835 903.868 110.891 907.535 104.169C911.324 97.4471 916.518 92.3139 923.118 88.7696C929.717 85.1031 937.478 83.2698 946.4 83.2698C956.3 83.2698 964.611 85.3475 971.333 89.5029C978.055 93.5361 983.127 99.2193 986.549 106.552C989.971 113.763 991.682 122.135 991.682 131.668V135.518C991.682 136.74 991.254 137.779 990.399 138.635C989.543 139.49 988.443 139.918 987.099 139.918H926.234C926.234 139.918 926.234 140.101 926.234 140.468C926.234 140.834 926.234 141.14 926.234 141.384C926.356 145.662 927.151 149.634 928.617 153.301C930.206 156.845 932.467 159.717 935.401 161.917C938.456 164.117 942.061 165.217 946.217 165.217C949.639 165.217 952.511 164.728 954.833 163.75C957.155 162.65 959.05 161.428 960.516 160.084C961.983 158.739 963.022 157.639 963.633 156.784C964.733 155.317 965.588 154.462 966.199 154.217C966.933 153.851 967.972 153.667 969.316 153.667H985.082C986.304 153.667 987.282 154.034 988.015 154.767C988.871 155.501 989.237 156.417 989.115 157.517C988.993 159.473 987.954 161.856 985.999 164.667C984.166 167.478 981.477 170.228 977.932 172.917C974.388 175.605 969.927 177.866 964.549 179.7C959.294 181.411 953.244 182.266 946.4 182.266ZM926.234 124.518H966.749V123.968C966.749 119.202 965.955 115.046 964.366 111.502C962.777 107.958 960.455 105.147 957.4 103.069C954.344 100.991 950.678 99.9526 946.4 99.9526C942.123 99.9526 938.456 100.991 935.401 103.069C932.345 105.147 930.023 107.958 928.434 111.502C926.967 115.046 926.234 119.202 926.234 123.968V124.518Z" fill="white"/>
<path d="M309.466 245.833L319.777 209.862H324.772L321.882 223.847L310.786 261.412H305.827L309.466 245.833ZM298.798 209.862L307.004 245.125L309.466 261.412H304.542L291.948 209.862H298.798ZM338.116 245.09L346.144 209.862H353.03L340.471 261.412H335.548L338.116 245.09ZM325.522 209.862L335.548 245.833L339.187 261.412H334.227L323.524 223.847L320.598 209.862H325.522Z" fill="white"/>
<path d="M372.353 262.12C369.665 262.12 367.227 261.671 365.039 260.774C362.874 259.854 361.007 258.567 359.437 256.915C357.891 255.263 356.702 253.304 355.869 251.038C355.037 248.772 354.62 246.294 354.62 243.603V242.116C354.62 239 355.084 236.227 356.012 233.796C356.939 231.341 358.2 229.264 359.794 227.564C361.387 225.865 363.195 224.579 365.217 223.705C367.239 222.832 369.332 222.395 371.497 222.395C374.256 222.395 376.634 222.867 378.632 223.812C380.654 224.756 382.307 226.077 383.592 227.777C384.876 229.453 385.828 231.435 386.446 233.725C387.065 235.991 387.374 238.469 387.374 241.16V244.099H358.545V238.752H380.773V238.257C380.678 236.557 380.321 234.905 379.703 233.3C379.108 231.695 378.157 230.373 376.848 229.335C375.54 228.296 373.756 227.777 371.497 227.777C369.998 227.777 368.618 228.096 367.358 228.733C366.097 229.347 365.015 230.267 364.111 231.494C363.207 232.722 362.505 234.221 362.006 235.991C361.506 237.761 361.257 239.803 361.257 242.116V243.603C361.257 245.42 361.506 247.132 362.006 248.737C362.529 250.318 363.278 251.711 364.254 252.914C365.253 254.118 366.454 255.062 367.857 255.747C369.284 256.431 370.902 256.774 372.71 256.774C375.041 256.774 377.015 256.301 378.632 255.357C380.25 254.413 381.665 253.15 382.878 251.569L386.874 254.72C386.042 255.971 384.983 257.163 383.699 258.296C382.414 259.429 380.833 260.349 378.954 261.058C377.098 261.766 374.898 262.12 372.353 262.12Z" fill="white"/>
<path d="M427.589 209.862V261.412H420.81V209.862H427.589ZM444.287 209.862V215.456H404.147V209.862H444.287Z" fill="white"/>
<path d="M467.498 254.862V235.141C467.498 233.631 467.189 232.321 466.57 231.211C465.976 230.078 465.072 229.205 463.859 228.591C462.646 227.978 461.147 227.671 459.363 227.671C457.698 227.671 456.235 227.954 454.975 228.52C453.738 229.087 452.763 229.83 452.049 230.751C451.359 231.671 451.014 232.663 451.014 233.725H444.414C444.414 232.356 444.77 230.999 445.484 229.653C446.198 228.308 447.22 227.092 448.552 226.007C449.908 224.897 451.526 224.024 453.405 223.387C455.308 222.726 457.425 222.395 459.756 222.395C462.562 222.395 465.036 222.867 467.177 223.812C469.341 224.756 471.03 226.184 472.243 228.096C473.48 229.984 474.099 232.356 474.099 235.212V253.056C474.099 254.331 474.206 255.688 474.42 257.128C474.658 258.567 475.003 259.807 475.455 260.845V261.412H468.568C468.235 260.656 467.974 259.653 467.783 258.402C467.593 257.128 467.498 255.947 467.498 254.862ZM468.64 238.186L468.711 242.789H462.039C460.16 242.789 458.483 242.942 457.008 243.249C455.534 243.532 454.297 243.969 453.298 244.559C452.299 245.149 451.538 245.892 451.014 246.789C450.491 247.663 450.229 248.689 450.229 249.87C450.229 251.073 450.503 252.171 451.05 253.162C451.597 254.154 452.418 254.944 453.512 255.534C454.63 256.101 455.997 256.384 457.615 256.384C459.637 256.384 461.421 255.959 462.967 255.11C464.513 254.26 465.738 253.221 466.642 251.994C467.569 250.767 468.069 249.575 468.14 248.418L470.959 251.569C470.792 252.56 470.34 253.658 469.603 254.862C468.866 256.065 467.879 257.222 466.642 258.331C465.429 259.417 463.978 260.326 462.289 261.058C460.624 261.766 458.745 262.12 456.652 262.12C454.035 262.12 451.74 261.612 449.765 260.597C447.815 259.582 446.293 258.225 445.199 256.526C444.128 254.803 443.593 252.879 443.593 250.755C443.593 248.701 443.997 246.896 444.806 245.338C445.615 243.756 446.78 242.446 448.303 241.408C449.825 240.346 451.656 239.543 453.797 239C455.938 238.457 458.328 238.186 460.969 238.186H468.64Z" fill="white"/>
<path d="M488.926 207.03V261.412H482.289V207.03H488.926ZM512.51 223.103L495.669 240.983L486.25 250.684L485.714 243.709L492.458 235.708L504.446 223.103H512.51ZM506.48 261.412L492.708 243.143L496.133 237.301L514.258 261.412H506.48Z" fill="white"/>
<path d="M532.439 262.12C529.751 262.12 527.313 261.671 525.124 260.774C522.96 259.854 521.093 258.567 519.523 256.915C517.977 255.263 516.787 253.304 515.955 251.038C515.122 248.772 514.706 246.294 514.706 243.603V242.116C514.706 239 515.17 236.227 516.097 233.796C517.025 231.341 518.286 229.264 519.88 227.564C521.473 225.865 523.281 224.579 525.303 223.705C527.325 222.832 529.418 222.395 531.582 222.395C534.341 222.395 536.72 222.867 538.718 223.812C540.74 224.756 542.393 226.077 543.678 227.777C544.962 229.453 545.913 231.435 546.532 233.725C547.15 235.991 547.46 238.469 547.46 241.16V244.099H518.631V238.752H540.859V238.257C540.764 236.557 540.407 234.905 539.788 233.3C539.194 231.695 538.242 230.373 536.934 229.335C535.626 228.296 533.842 227.777 531.582 227.777C530.084 227.777 528.704 228.096 527.443 228.733C526.183 229.347 525.101 230.267 524.197 231.494C523.293 232.722 522.591 234.221 522.092 235.991C521.592 237.761 521.342 239.803 521.342 242.116V243.603C521.342 245.42 521.592 247.132 522.092 248.737C522.615 250.318 523.364 251.711 524.339 252.914C525.338 254.118 526.54 255.062 527.943 255.747C529.37 256.431 530.988 256.774 532.795 256.774C535.126 256.774 537.101 256.301 538.718 255.357C540.336 254.413 541.751 253.15 542.964 251.569L546.96 254.72C546.128 255.971 545.069 257.163 543.785 258.296C542.5 259.429 540.918 260.349 539.039 261.058C537.184 261.766 534.984 262.12 532.439 262.12Z" fill="white"/>
<path d="M601.268 245.019H608.119C607.762 248.276 606.822 251.191 605.3 253.764C603.778 256.337 601.625 258.379 598.842 259.889C596.059 261.376 592.586 262.12 588.424 262.12C585.379 262.12 582.608 261.553 580.11 260.42C577.637 259.287 575.508 257.682 573.724 255.605C571.94 253.504 570.56 250.991 569.585 248.064C568.634 245.114 568.158 241.833 568.158 238.221V233.088C568.158 229.476 568.634 226.207 569.585 223.28C570.56 220.33 571.952 217.805 573.759 215.704C575.591 213.603 577.791 211.986 580.36 210.853C582.929 209.72 585.819 209.154 589.03 209.154C592.955 209.154 596.273 209.886 598.985 211.349C601.696 212.812 603.801 214.842 605.3 217.439C606.822 220.011 607.762 222.997 608.119 226.396H601.268C600.935 223.989 600.317 221.923 599.413 220.2C598.509 218.454 597.225 217.108 595.56 216.164C593.894 215.22 591.718 214.748 589.03 214.748C586.723 214.748 584.689 215.185 582.929 216.058C581.193 216.931 579.73 218.17 578.54 219.775C577.375 221.38 576.495 223.304 575.9 225.546C575.306 227.789 575.008 230.279 575.008 233.017V238.221C575.008 240.747 575.27 243.119 575.793 245.338C576.34 247.556 577.161 249.504 578.255 251.18C579.349 252.855 580.741 254.177 582.43 255.145C584.118 256.089 586.116 256.561 588.424 256.561C591.349 256.561 593.68 256.101 595.417 255.18C597.153 254.26 598.461 252.938 599.342 251.215C600.245 249.492 600.888 247.427 601.268 245.019Z" fill="white"/>
<path d="M637.074 254.862V235.141C637.074 233.631 636.765 232.321 636.147 231.211C635.552 230.078 634.648 229.205 633.435 228.591C632.222 227.978 630.724 227.671 628.94 227.671C627.275 227.671 625.812 227.954 624.551 228.52C623.314 229.087 622.339 229.83 621.625 230.751C620.936 231.671 620.591 232.663 620.591 233.725H613.99C613.99 232.356 614.347 230.999 615.06 229.653C615.774 228.308 616.797 227.092 618.129 226.007C619.485 224.897 621.102 224.024 622.981 223.387C624.884 222.726 627.001 222.395 629.332 222.395C632.139 222.395 634.613 222.867 636.753 223.812C638.918 224.756 640.607 226.184 641.82 228.096C643.057 229.984 643.675 232.356 643.675 235.212V253.056C643.675 254.331 643.782 255.688 643.996 257.128C644.234 258.567 644.579 259.807 645.031 260.845V261.412H638.145C637.812 260.656 637.55 259.653 637.36 258.402C637.17 257.128 637.074 255.947 637.074 254.862ZM638.216 238.186L638.288 242.789H631.616C629.736 242.789 628.06 242.942 626.585 243.249C625.11 243.532 623.873 243.969 622.874 244.559C621.875 245.149 621.114 245.892 620.591 246.789C620.067 247.663 619.806 248.689 619.806 249.87C619.806 251.073 620.079 252.171 620.626 253.162C621.173 254.154 621.994 254.944 623.088 255.534C624.206 256.101 625.574 256.384 627.191 256.384C629.213 256.384 630.997 255.959 632.543 255.11C634.089 254.26 635.314 253.221 636.218 251.994C637.146 250.767 637.645 249.575 637.717 248.418L640.535 251.569C640.369 252.56 639.917 253.658 639.18 254.862C638.442 256.065 637.455 257.222 636.218 258.331C635.005 259.417 633.554 260.326 631.865 261.058C630.2 261.766 628.321 262.12 626.228 262.12C623.611 262.12 621.316 261.612 619.342 260.597C617.391 259.582 615.869 258.225 614.775 256.526C613.705 254.803 613.169 252.879 613.169 250.755C613.169 248.701 613.574 246.896 614.382 245.338C615.191 243.756 616.357 242.446 617.879 241.408C619.401 240.346 621.233 239.543 623.374 239C625.514 238.457 627.905 238.186 630.545 238.186H638.216Z" fill="white"/>
<path d="M658.466 229.122V261.412H651.866V223.103H658.288L658.466 229.122ZM670.526 222.891L670.49 228.981C669.943 228.863 669.42 228.792 668.92 228.768C668.445 228.721 667.898 228.697 667.279 228.697C665.757 228.697 664.413 228.933 663.247 229.406C662.082 229.878 661.095 230.539 660.286 231.388C659.477 232.238 658.835 233.253 658.359 234.433C657.907 235.59 657.61 236.864 657.467 238.257L655.612 239.319C655.612 237.006 655.838 234.834 656.29 232.804C656.766 230.775 657.491 228.981 658.466 227.423C659.442 225.841 660.678 224.614 662.177 223.741C663.699 222.844 665.507 222.395 667.6 222.395C668.076 222.395 668.623 222.454 669.241 222.572C669.86 222.667 670.288 222.773 670.526 222.891Z" fill="white"/>
<path d="M689.741 262.12C687.053 262.12 684.615 261.671 682.427 260.774C680.263 259.854 678.395 258.567 676.825 256.915C675.279 255.263 674.09 253.304 673.258 251.038C672.425 248.772 672.009 246.294 672.009 243.603V242.116C672.009 239 672.473 236.227 673.4 233.796C674.328 231.341 675.589 229.264 677.182 227.564C678.776 225.865 680.584 224.579 682.605 223.705C684.627 222.832 686.72 222.395 688.885 222.395C691.644 222.395 694.023 222.867 696.021 223.812C698.043 224.756 699.696 226.077 700.98 227.777C702.265 229.453 703.216 231.435 703.835 233.725C704.453 235.991 704.762 238.469 704.762 241.16V244.099H675.933V238.752H698.162V238.257C698.066 236.557 697.71 234.905 697.091 233.3C696.497 231.695 695.545 230.373 694.237 229.335C692.929 228.296 691.145 227.777 688.885 227.777C687.387 227.777 686.007 228.096 684.746 228.733C683.486 229.347 682.403 230.267 681.499 231.494C680.596 232.722 679.894 234.221 679.394 235.991C678.895 237.761 678.645 239.803 678.645 242.116V243.603C678.645 245.42 678.895 247.132 679.394 248.737C679.918 250.318 680.667 251.711 681.642 252.914C682.641 254.118 683.842 255.062 685.246 255.747C686.673 256.431 688.29 256.774 690.098 256.774C692.429 256.774 694.403 256.301 696.021 255.357C697.638 254.413 699.054 253.15 700.267 251.569L704.263 254.72C703.43 255.971 702.372 257.163 701.087 258.296C699.803 259.429 698.221 260.349 696.342 261.058C694.487 261.766 692.286 262.12 689.741 262.12Z" fill="white"/>
<path d="M724.462 242.682V241.868C724.462 239.106 724.866 236.546 725.675 234.185C726.483 231.801 727.649 229.736 729.171 227.989C730.694 226.219 732.537 224.85 734.701 223.882C736.866 222.891 739.292 222.395 741.98 222.395C744.692 222.395 747.13 222.891 749.294 223.882C751.483 224.85 753.338 226.219 754.86 227.989C756.406 229.736 757.584 231.801 758.393 234.185C759.201 236.546 759.606 239.106 759.606 241.868V242.682C759.606 245.444 759.201 248.005 758.393 250.365C757.584 252.726 756.406 254.791 754.86 256.561C753.338 258.308 751.495 259.677 749.33 260.668C747.189 261.636 744.763 262.12 742.051 262.12C739.34 262.12 736.902 261.636 734.737 260.668C732.573 259.677 730.717 258.308 729.171 256.561C727.649 254.791 726.483 252.726 725.675 250.365C724.866 248.005 724.462 245.444 724.462 242.682ZM731.062 241.868V242.682C731.062 244.594 731.288 246.4 731.74 248.099C732.192 249.775 732.87 251.262 733.774 252.56C734.702 253.859 735.855 254.885 737.235 255.641C738.614 256.372 740.22 256.738 742.051 256.738C743.859 256.738 745.441 256.372 746.797 255.641C748.176 254.885 749.318 253.859 750.222 252.56C751.126 251.262 751.804 249.775 752.256 248.099C752.731 246.4 752.969 244.594 752.969 242.682V241.868C752.969 239.98 752.731 238.198 752.256 236.522C751.804 234.822 751.114 233.324 750.186 232.026C749.282 230.704 748.141 229.665 746.761 228.91C745.405 228.155 743.812 227.777 741.98 227.777C740.172 227.777 738.579 228.155 737.199 228.91C735.843 229.665 734.702 230.704 733.774 232.026C732.87 233.324 732.192 234.822 731.74 236.522C731.288 238.198 731.062 239.98 731.062 241.868Z" fill="white"/>
<path d="M775.539 261.412H768.938V219.067C768.938 216.306 769.437 213.981 770.436 212.093C771.459 210.181 772.922 208.741 774.825 207.773C776.728 206.782 778.988 206.286 781.604 206.286C782.365 206.286 783.126 206.333 783.887 206.428C784.672 206.522 785.434 206.664 786.171 206.853L785.814 212.199C785.315 212.081 784.744 211.998 784.102 211.951C783.483 211.904 782.865 211.88 782.246 211.88C780.843 211.88 779.63 212.163 778.607 212.73C777.608 213.273 776.847 214.075 776.323 215.137C775.8 216.2 775.539 217.509 775.539 219.067V261.412ZM783.745 223.103V228.131H762.837V223.103H783.745Z" fill="white"/>
<path d="M837.339 255.853V261.412H811.365V255.853H837.339ZM812.721 209.862V261.412H805.835V209.862H812.721Z" fill="white"/>
<path d="M849.205 223.103V261.412H842.568V223.103H849.205ZM842.069 212.942C842.069 211.88 842.39 210.983 843.032 210.251C843.698 209.52 844.674 209.154 845.958 209.154C847.219 209.154 848.182 209.52 848.848 210.251C849.538 210.983 849.883 211.88 849.883 212.942C849.883 213.957 849.538 214.831 848.848 215.562C848.182 216.27 847.219 216.624 845.958 216.624C844.674 216.624 843.698 216.27 843.032 215.562C842.39 214.831 842.069 213.957 842.069 212.942Z" fill="white"/>
<path d="M864.21 231.282V261.412H857.609V223.103H863.853L864.21 231.282ZM862.64 240.806L859.893 240.7C859.917 238.08 860.309 235.66 861.07 233.442C861.831 231.199 862.902 229.252 864.281 227.6C865.661 225.948 867.302 224.673 869.205 223.776C871.132 222.856 873.261 222.395 875.592 222.395C877.495 222.395 879.207 222.655 880.73 223.174C882.252 223.67 883.548 224.472 884.619 225.582C885.713 226.691 886.545 228.131 887.116 229.901C887.687 231.648 887.972 233.784 887.972 236.31V261.412H881.336V236.239C881.336 234.232 881.039 232.627 880.444 231.424C879.849 230.196 878.981 229.311 877.84 228.768C876.698 228.202 875.294 227.919 873.629 227.919C871.988 227.919 870.49 228.261 869.134 228.945C867.802 229.63 866.648 230.574 865.673 231.778C864.721 232.981 863.972 234.362 863.425 235.92C862.902 237.454 862.64 239.083 862.64 240.806Z" fill="white"/>
<path d="M919.426 252.56V223.103H926.062V261.412H919.747L919.426 252.56ZM920.675 244.488L923.422 244.417C923.422 246.966 923.148 249.327 922.601 251.498C922.078 253.646 921.222 255.511 920.032 257.092C918.843 258.674 917.285 259.913 915.358 260.81C913.432 261.683 911.089 262.12 908.33 262.12C906.451 262.12 904.726 261.848 903.156 261.305C901.61 260.763 900.278 259.925 899.16 258.792C898.042 257.659 897.174 256.183 896.555 254.366C895.961 252.549 895.664 250.365 895.664 247.816V223.103H902.264V247.887C902.264 249.61 902.454 251.038 902.835 252.171C903.239 253.28 903.775 254.165 904.441 254.826C905.13 255.464 905.892 255.912 906.724 256.172C907.58 256.431 908.46 256.561 909.364 256.561C912.171 256.561 914.395 256.03 916.036 254.968C917.678 253.882 918.855 252.431 919.569 250.613C920.306 248.772 920.675 246.73 920.675 244.488Z" fill="white"/>
<path d="M938.392 223.103L946.848 237.053L955.411 223.103H963.153L950.522 242.01L963.545 261.412H955.91L946.99 247.037L938.07 261.412H930.399L943.387 242.01L930.792 223.103H938.392Z" fill="white"/>
</svg>
