<?xml version="1.0" encoding="UTF-8"?>
<svg id="Calque_1" data-name="Calque 1" xmlns="http://www.w3.org/2000/svg" viewBox="0 0 432 163.15">
  <defs>
    <style>
      .cls-1 {
        fill: #fff;
      }
    </style>
  </defs>
  <path class="cls-1" d="M133.27,22.09c-3.63,4.81-6.59,11.33-7.7,14.87-3.81,8.35-5.08,22.42.52,46.06,2.26,9.55,8.6,26.92,9.89,32.89,1.2,5.55,4.71,23.29-2.55,25.1-1.11.28-3.46-.51-5.47-1.42,1.47.73,3.2,1.56,4.71,2.16-.12,0-.24.01-.37.01-1.63-.65-3.24-1.46-4.84-2.39.16.08.33.15.49.23-.26-.13-.51-.25-.75-.38-2.95-1.75-5.83-3.94-8.64-6.38-6.37-5.76-12.3-12.81-17.64-19.08-1.43-1.68-2.89-3.35-4.19-4.85-7.18-8.23-13.54-17.22-19.71-25.88-4.88-6.85-9.21-12.68-13.37-17.48-8.99-11.07-17.5-18.09-26.68-15.25-10,3.09-16.25,13.55-12.31,25.71,3.35,10.34,11.23,21.88,21.57,32.94,2.39,2.87,6.07,6.79,11.08,11.34,16.28,14.78,41.88,35.16,71.88,37.49,33.04,2.57,31.32-33.71,30.2-56.64-.56-11.5-1.75-35.41,5.96-50.48,6.51-12.72,10.98-17.64,11.62-23.67h0c.62-5.9-1.66-18.83-15.59-18.96-5.32-.05-16.41,1.82-26.24,11.46"/>
  <g>
    <path class="cls-1" d="M366.16,132.3c0-.85-.4-2.01-1.19-3.43-.67-1.21-1.32-2.25-1.94-3.1-.44.38-.91.79-1.41,1.23-.75.65-1.65,1.26-2.67,1.8-1.01.54-2.17,1-3.46,1.38-1.31.37-2.82.56-4.5.56-4.44,0-7.75-1.29-9.84-3.83-2.04-2.49-3.22-5.63-3.48-9.35l-.05-.74h28.93c.02-.2.04-.43.05-.67l.03-.43c.02-.42.05-.85.08-1.28.03-.61.05-1.15.05-1.63v-1.37c0-2.67-.35-5.24-1.05-7.64-.69-2.38-1.81-4.52-3.34-6.36-1.52-1.83-3.53-3.32-5.97-4.42-2.45-1.1-5.48-1.65-9.02-1.65-2.72,0-5.41.45-8,1.34-2.57.88-4.91,2.28-6.95,4.16-2.03,1.88-3.69,4.29-4.93,7.16-1.23,2.88-1.85,6.37-1.85,10.35,0,4.9.71,9.01,2.1,12.21,1.38,3.18,3.21,5.75,5.44,7.63,2.23,1.89,4.8,3.22,7.66,3.97,2.89.77,5.88,1.15,8.88,1.15,3.31,0,6.23-.37,8.66-1.1,2.42-.72,4.31-1.59,5.6-2.58,1.47-1.06,2.18-2.16,2.18-3.37h0ZM337.57,110.17c0-3.48.85-6.25,2.51-8.23,1.7-2.01,4.05-3.04,6.99-3.04,3.37,0,5.76,1.1,7.1,3.26,1.27,2.07,1.91,4.76,1.91,8v.69h-18.51v-.69h0Z"/>
    <path class="cls-1" d="M287.29,127.01v-18.41c0-2.93-.32-5.51-.95-7.69-.62-2.12-1.66-3.91-3.1-5.33-1.45-1.42-3.36-2.48-5.68-3.16-2.37-.7-5.32-1.05-8.75-1.05-2.51,0-4.9.21-7.13.63-2.23.41-4.23.96-5.95,1.63-1.68.65-3.01,1.4-3.95,2.23-.85.74-1.28,1.44-1.28,2.07,0,.39.13,1.17.78,2.72.45,1.09,1.03,2.11,1.74,3.05,1.93-1.06,3.93-2.03,5.97-2.88,2.26-.94,4.86-1.42,7.75-1.42,3.19,0,5.46.56,6.94,1.71,1.51,1.18,2.27,3.14,2.27,5.83v2.45h-2.79c-.7,0-1.43.03-2.25.1-2.33.13-4.91.42-7.68.87-2.73.45-5.3,1.26-7.63,2.43-2.31,1.16-4.26,2.75-5.78,4.75-1.5,1.95-2.26,4.55-2.26,7.71,0,2.57.44,4.76,1.3,6.5.86,1.76,1.98,3.17,3.33,4.21,1.35,1.05,2.89,1.82,4.56,2.28,1.69.47,3.41.71,5.1.71,3.28,0,6.09-.51,8.34-1.51,2.26-1.01,4.09-2.24,5.46-3.66l.92-.97.25,1.31c.3,1.54.96,2.68,2.04,3.49,1.08.82,2.74,1.23,4.92,1.23,1.08,0,2.1-.09,3.05-.28.74-.14,1.55-.37,2.41-.67-1.29-2.52-1.94-6.18-1.94-10.9h0ZM276.14,125.64c0,.68-.3,1.4-.89,2.14-.53.68-1.27,1.31-2.18,1.87-.9.55-1.95,1-3.1,1.35-1.18.34-2.43.52-3.72.52-2.69,0-4.64-.73-5.82-2.16-1.14-1.39-1.72-3.1-1.72-5.09,0-1.78.44-3.27,1.31-4.43.86-1.14,1.96-2.04,3.28-2.7,1.29-.65,2.79-1.13,4.45-1.43,1.6-.29,3.26-.51,4.91-.64.45-.06.94-.1,1.42-.1h2.07v10.68h0Z"/>
    <path class="cls-1" d="M385.24,76.68c0-1.51-.24-2.73-.71-3.65-.47-.91-1.07-1.6-1.82-2.09-.78-.5-1.63-.84-2.59-1.02-2.01-.38-4.08-.33-5.87-.14-.44.05-.74.08-.95.12v61.32c0,1.54.21,2.8.63,3.74.41.93.97,1.68,1.66,2.24.69.55,1.5.93,2.41,1.14.96.22,1.98.33,3.03.33s2.08-.03,2.98-.1c.57-.04.96-.09,1.22-.14v-61.74Z"/>
    <path class="cls-1" d="M322.66,134.84c.57-.69.87-1.38.87-2.05,0-.8-.24-1.69-.71-2.63-.42-.84-1.02-1.84-1.76-2.98-.12.1-.25.22-.4.35-.52.44-1.14.85-1.85,1.22-.71.37-1.5.72-2.33,1.02-.88.32-1.83.48-2.83.48-2.86,0-6.27-1.31-6.27-7.54v-21.64h13.71v-8.61h-13.71v-7.55c0-1.51-.24-2.74-.71-3.65-.47-.9-1.09-1.63-1.84-2.14-.77-.53-1.63-.89-2.57-1.06-1.53-.29-3.1-.33-4.53-.24-.52.03-.99.08-1.42.14l-.88.12v44.83c0,1.41.07,2.83.2,4.24.12,1.37.4,2.7.84,3.95.86,2.39,2.36,4.35,4.45,5.83,2.09,1.48,5.15,2.23,9.1,2.23,2.02,0,3.91-.21,5.62-.62,1.7-.41,3.16-.95,4.33-1.6,1.16-.64,2.06-1.34,2.7-2.09h0Z"/>
    <path class="cls-1" d="M220.56,92.73c-1.13-.25-2.33-.38-3.57-.38-2.54,0-4.28.68-5.32,2.08-1.12,1.49-2.07,3.62-2.82,6.33l-8.12,27.88-7.7-27.59c-.36-1.26-.77-2.52-1.21-3.72-.4-1.05-.91-1.95-1.54-2.67-.62-.7-1.4-1.27-2.31-1.68-.92-.41-2.13-.62-3.58-.62-2.25,0-4.33.33-6.18.99l15.77,44.83h13.22l13.44-38.68,2.14-6.15c-.63-.22-1.37-.42-2.21-.61h0Z"/>
    <path class="cls-1" d="M234.55,69.93c-1.85,0-3.36.59-4.61,1.81-1.24,1.22-1.85,2.74-1.85,4.65s.6,3.41,1.84,4.59c1.25,1.19,2.76,1.77,4.62,1.77s3.29-.58,4.57-1.77c1.27-1.18,1.89-2.68,1.89-4.58s-.62-3.43-1.89-4.64c-1.28-1.22-2.78-1.82-4.57-1.82h0Z"/>
    <path class="cls-1" d="M240.91,99.4c0-1.51-.24-2.74-.71-3.65-.46-.9-1.07-1.6-1.82-2.09-.77-.5-1.64-.85-2.58-1.02-2.05-.38-4.15-.33-5.87-.14-.44.05-.74.09-.95.12v38.61c0,3.01.7,5.01,2.09,5.94,1.47.99,3.44,1.5,5.83,1.5,1.01,0,1.99-.03,2.89-.1.54-.04.89-.08,1.12-.12v-39.04h0Z"/>
  </g>
</svg>
