<?xml version="1.0" encoding="utf-8"?>
<svg width="690" height="268" viewBox="37.344 74.163 607.656 120.653" fill="none" xmlns="http://www.w3.org/2000/svg">
  <path d="M201.448 120.421H200.801L199.457 109.221H188.756V184.786H202.792V136.799C206.127 127.589 212.997 122.512 222.653 121.417V108.972C212.598 108.573 205.281 113.701 201.448 120.421Z" fill="white"/>
  <path d="M136.438 80.0496L99.8033 163.829L99.1562 165.82H98.5589L97.9118 163.829L61.0279 80.0496H45L92.3369 184.786H105.378L152.466 80.0496H136.438Z" fill="white"/>
  <path d="M342.261 153.922C342.261 174.282 331.459 187.972 310.703 187.972C289.946 187.972 279.045 174.282 279.145 153.922V108.971H293.58V152.578C293.58 168.458 301.295 174.681 310.703 174.681C320.11 174.681 327.577 168.458 327.826 152.578V108.971H342.261V153.922Z" fill="white"/>
  <path d="M165.857 108.971H151.173V184.786H165.857V108.971Z" fill="white"/>
  <path d="M232.561 157.059C232.561 174.93 241.122 185.533 259.041 185.533H263.023V173.088C250.231 172.839 246.747 166.866 246.747 152.33V121.168H265.263V108.972H246.747V80H232.561V157.059Z" fill="white"/>
  <path d="M496.266 108.922H448.431V120.869H475.061L446.589 184.737H498.506V172.79H467.445L496.266 108.922Z" fill="white"/>
  <path d="M556.149 108.922H508.314V120.869H534.944L506.472 184.737H558.538V172.79H527.478L556.149 108.922Z" fill="white"/>
  <path d="M397.861 105.935C374.765 105.935 357.244 123.806 357.244 146.954C357.244 170.052 374.765 187.972 397.861 187.972C420.957 187.972 438.479 170.101 438.479 146.954C438.479 123.856 420.957 105.935 397.861 105.935ZM397.861 174.681C383.078 174.681 372.276 162.137 372.276 146.954C372.276 131.821 383.078 119.226 397.861 119.226C412.645 119.226 423.446 131.771 423.446 146.954C423.446 162.137 412.645 174.681 397.861 174.681Z" fill="white"/>
  <path d="M604.383 105.935C581.287 105.935 563.766 123.806 563.766 146.954C563.766 170.051 581.287 187.972 604.383 187.972C627.479 187.972 645 170.101 645 146.954C645 123.856 627.479 105.935 604.383 105.935ZM604.383 174.681C589.599 174.681 578.798 162.136 578.798 146.954C578.798 131.821 589.599 119.226 604.383 119.226C619.166 119.226 629.968 131.771 629.968 146.954C629.968 162.136 619.166 174.681 604.383 174.681Z" fill="white"/>
</svg>