<?xml version="1.0" encoding="utf-8"?>
<svg id="Ebene_2" viewBox="0 0 283.63 43.59" xmlns="http://www.w3.org/2000/svg">
  <defs>
    <style>.cls-1{fill:url(#Unbenannter_Verlauf_38);}.cls-2{fill:url(#Unbenannter_Verlauf_41);}</style>
  </defs>
  <g id="Logo">
    <g>
      <g>
        <path class="cls-1" d="M25.19,0c-6.45,0-10.18,5.11-10.18,11.65s1.32,11.02,1.6,12.11c.66,2.51,2.63,3.29,4.4,2.79,.78-.22,1.51-.83,1.9-1.49,.5-.86,.63-1.62,.23-3.43-.29-1.34-1.27-5.74-1.27-9.98,0-2.68,1.1-4.78,3.31-4.78s3.34,2.09,3.34,4.79c0,15.2-6.38,21.96-12.7,21.96s-8.97-4.83-8.97-8.97V14.21c0-1.89-1.54-3.43-3.43-3.43s-3.43,1.54-3.43,3.43v10.44c0,9.33,6.51,15.84,15.84,15.84s19.57-8.87,19.57-28.82c0-6.51-3.75-11.66-10.21-11.66Z" style="fill: rgb(255, 255, 255);"/>
        <path class="cls-2" d="M46.95,0c-1.89,0-3.43,1.54-3.43,3.43V24.7c0,3.01-1.09,5.75-2.91,7.32-1.63,1.41-3.15,1.66-5.77,1.64-1.76-.01-3.21,1.09-3.49,2.88-.15,.99,.16,1.93,.67,2.56,1.19,1.46,2.99,1.41,4.29,1.41,4.42,0,7.02-1.76,8.79-3.3,3.35-2.9,5.28-7.47,5.28-12.52V3.43c0-1.89-1.54-3.43-3.43-3.43Z" style="fill: rgb(255, 255, 255);"/>
      </g>
      <g>
        <polygon points="198.12 24.24 192.63 24.24 197.89 11.39 190.77 11.39 184.48 25.96 184.43 26.09 184.41 30.43 198.12 30.43 198.12 34.37 205.02 34.37 205.02 19.31 198.12 19.31 198.12 24.24" style="fill: rgb(255, 255, 255);"/>
        <polygon points="86.9 23.71 83.31 11.38 76.88 11.38 73.29 23.71 69.98 11.38 62.63 11.38 69.98 34.37 76.42 34.37 80.1 22.1 83.77 34.37 90.21 34.37 97.57 11.38 90.21 11.38 86.9 23.71" style="fill: rgb(255, 255, 255);"/>
        <path d="M109.98,10.74c-6.76,0-12.18,5.29-12.18,12.14s5.42,12.14,12.18,12.14,12.18-5.29,12.18-12.14-5.42-12.14-12.18-12.14Zm0,17.56c-2.99,0-5.29-2.16-5.29-5.43s2.3-5.42,5.29-5.42,5.29,2.16,5.29,5.42-2.3,5.43-5.29,5.43Z" style="fill: rgb(255, 255, 255);"/>
        <path d="M132.28,15.48v-4.09h-6.9v22.99h6.9v-10.39c0-4.55,4.05-5.7,6.9-5.24v-7.82c-2.9,0-5.98,1.47-6.9,4.55Z" style="fill: rgb(255, 255, 255);"/>
        <rect x="142.85" y=".81" width="6.9" height="33.56" style="fill: rgb(255, 255, 255);"/>
        <path d="M170.99,13.55c-1.52-1.75-3.77-2.8-6.85-2.8-6.02,0-10.99,5.29-10.99,12.14s4.97,12.14,10.99,12.14c3.08,0,5.33-1.06,6.85-2.8v2.16h6.9V2.19h-6.9V13.55Zm-5.47,14.94c-3.17,0-5.47-2.16-5.47-5.61s2.3-5.61,5.47-5.61,5.47,2.16,5.47,5.61-2.3,5.61-5.47,5.61Z" style="fill: rgb(255, 255, 255);"/>
        <path d="M222.25,25.45l-5.1-14.07h-7.59l9.15,21.93c-1.01,2.8-2.53,3.82-5.75,3.82v6.44c6.44,.32,10.53-2.58,13.1-9.88l7.86-22.3h-7.36l-4.32,14.07Z" style="fill: rgb(255, 255, 255);"/>
        <path d="M246.39,10.74c-6.76,0-12.18,5.29-12.18,12.14s5.43,12.14,12.18,12.14,12.18-5.29,12.18-12.14-5.42-12.14-12.18-12.14Zm0,17.56c-2.99,0-5.29-2.16-5.29-5.43s2.3-5.42,5.29-5.42,5.29,2.16,5.29,5.42-2.3,5.43-5.29,5.43Z" style="fill: rgb(255, 255, 255);"/>
        <path d="M276.74,11.38v12.55c0,3.26-1.75,4.74-4.28,4.74-2.21,0-4-1.33-4-4.18V11.38h-6.9v14.11c0,6.21,3.95,9.52,8.6,9.52,3.04,0,5.33-1.1,6.58-2.8v2.16h6.9V11.38h-6.9Z" style="fill: rgb(255, 255, 255);"/>
      </g>
    </g>
  </g>
</svg>