<?xml version="1.0" encoding="UTF-8"?><svg id="Layer_1" xmlns="http://www.w3.org/2000/svg" viewBox="0 0 430 95"><defs><style>.cls-1{fill:#fff;}</style></defs><polygon class="cls-1" points="25.67 24.72 37.54 24.72 37.55 42.93 37.67 42.93 46.99 24.72 60.68 24.72 62.18 42.93 62.3 42.93 70.01 24.72 81.03 24.72 67.93 53.88 52.46 53.88 51.02 36.15 50.9 36.15 41.88 53.88 26.3 53.88 25.67 24.72"/><path class="cls-1" d="M99.98,30.58c-4.04,0-7.57,2.74-8.84,8.72-1.27,5.98,1.09,8.72,5.13,8.72s7.57-2.75,8.84-8.72c1.27-5.98-1.09-8.72-5.13-8.72m11.66,19.02c-3.79,3.03-9.27,5.05-16.78,5.05-14.25,0-18.09-6.62-16.24-15.35,1.2-5.65,4.33-9.73,8.19-12.11,3.21-1.98,7.07-3.23,14.58-3.23,14.25,0,18.1,6.62,16.24,15.34-.95,4.48-3.07,7.99-5.98,10.3"/><path class="cls-1" d="M134.58,37.64h4.68c2.63,0,4.82-.81,5.4-3.55,.55-2.58-1.12-3.47-4.11-3.47h-4.48l-1.49,7.03Zm-9.53-12.92h20.76c7.96,0,12.55,1.57,11.17,8.04-.82,3.84-4,6.26-7.77,6.9l-.09,.4c2.81,.08,4.94,1.09,4.79,4.04l-.5,9.77h-12.28l.37-6.5c.2-3.59-.22-4.08-4.42-4.08h-3.71l-2.25,10.58h-12.28l6.2-29.16Z"/><polygon class="cls-1" points="164.54 24.72 176.82 24.72 172.13 46.77 185.57 46.77 184.06 53.88 158.34 53.88 164.54 24.72"/><path class="cls-1" d="M201.58,47.25h3.39c5.57,0,9.46-2.5,10.61-7.96,1.16-5.45-1.66-7.95-7.23-7.95h-3.39l-3.38,15.91Zm-7.49-22.53h15.63c8.6,0,14.01,.77,17.15,4.81,1.65,2.14,2.35,5.65,1.42,10.01-.91,4.28-3.21,8.44-6.18,10.46-4.02,2.75-7.49,3.88-16.49,3.88h-17.73l6.2-29.16Z"/><path class="cls-1" d="M254.02,28.05h-.1l-13.15,12.84h10.52l2.73-12.84Zm-21.97,11.48l20.72-19.72h16.38l-4.48,21.08h5.72l-1.44,6.79h-5.72l-1.32,6.2h-13.37l1.32-6.2h-19.53l1.73-8.14Z"/><polygon class="cls-1" points="282.02 45.15 272.07 24.72 287.38 24.72 290.88 36.76 299.85 24.72 312.94 24.72 294.3 45.15 292.44 53.88 280.17 53.88 282.02 45.15"/><path class="cls-1" d="M329.5,30.58c-4.04,0-7.57,2.74-8.84,8.72-1.27,5.98,1.09,8.72,5.13,8.72s7.57-2.75,8.84-8.72c1.27-5.98-1.09-8.72-5.13-8.72m11.66,19.02c-3.79,3.03-9.27,5.05-16.78,5.05-14.25,0-18.1-6.62-16.24-15.35,1.2-5.65,4.33-9.73,8.19-12.11,3.21-1.98,7.07-3.23,14.58-3.23,14.25,0,18.1,6.62,16.24,15.34-.95,4.48-3.07,7.99-5.98,10.3"/><path class="cls-1" d="M354.81,24.72h11.87l-3.4,15.99c-1.18,5.57,.38,7.31,4.1,7.31s6.02-1.74,7.21-7.31l3.4-15.99h11.63l-3.62,17.04c-.98,4.6-2.28,6.54-4.6,8.52-3.6,3.07-8.96,4.36-15.55,4.36s-11.4-1.29-13.69-4.36c-1.48-1.98-1.95-3.92-.98-8.52l3.62-17.04Z"/><polygon class="cls-1" points="105.03 61.51 108.43 61.51 105.95 73.18 102.55 73.18 105.03 61.51"/><polygon class="cls-1" points="110.93 61.51 115.39 61.51 118.92 69.91 118.95 69.91 120.73 61.51 123.74 61.51 121.26 73.18 116.77 73.18 113.27 64.78 113.24 64.78 111.45 73.18 108.45 73.18 110.93 61.51"/><polygon class="cls-1" points="129.33 63.91 124.84 63.91 125.35 61.51 137.72 61.51 137.22 63.91 132.73 63.91 130.76 73.18 127.36 73.18 129.33 63.91"/><polygon class="cls-1" points="139.58 61.51 149.6 61.51 149.09 63.91 142.47 63.91 142.01 66.07 148.27 66.07 147.76 68.46 141.5 68.46 141 70.79 147.77 70.79 147.26 73.18 137.1 73.18 139.58 61.51"/><path class="cls-1" d="M154.92,66.49h2.7c1.55,0,2.15-.49,2.34-1.37,.24-1.13-.6-1.34-2.24-1.34h-2.23l-.58,2.71Zm-2.33-4.98h7.12c2.81,0,4.19,1.02,3.76,3.05-.32,1.49-1.75,2.52-3.56,2.83v.03c.96,.07,1.84,.29,2.07,1.02,.34,1.07-.12,3.52,.11,4.73h-3.6c-.13-1.13,.27-2.81,.12-3.62-.1-.53-.55-.81-1.91-.81h-2.26l-.94,4.42h-3.39l2.48-11.66Z"/><polygon class="cls-1" points="166.54 61.51 171 61.51 174.53 69.91 174.56 69.91 176.34 61.51 179.35 61.51 176.87 73.18 172.38 73.18 168.88 64.78 168.85 64.78 167.06 73.18 164.06 73.18 166.54 61.51"/><polygon class="cls-1" points="182.18 61.51 192.19 61.51 191.68 63.91 185.06 63.91 184.6 66.07 190.87 66.07 190.36 68.46 184.09 68.46 183.6 70.79 190.36 70.79 189.86 73.18 179.7 73.18 182.18 61.51"/><polygon class="cls-1" points="197.95 63.91 193.46 63.91 193.97 61.51 206.34 61.51 205.83 63.91 201.34 63.91 199.37 73.18 195.98 73.18 197.95 63.91"/><path class="cls-1" d="M215,69.4c-.28,1.49,.32,1.82,1.9,1.82,2,0,2.46-.71,2.57-1.23,.17-.78-.59-1.03-1.87-1.29l-1.6-.32c-1.84-.37-3.71-1.08-3.24-3.31,.61-2.86,3.47-3.86,6.13-3.86,4.26,0,5.2,1.31,4.82,3.63h-3.3c.16-1.19-.77-1.37-1.79-1.37-1.49,0-2.24,.5-2.38,1.15-.17,.79,.85,1,2.04,1.26l1.5,.32c2.04,.44,3.64,1.13,3.15,3.44-.69,3.25-4.1,3.84-6.71,3.84-4.7,0-5.06-2.02-4.62-4.09h3.39Z"/><polygon class="cls-1" points="227.01 61.51 237.03 61.51 236.52 63.91 229.9 63.91 229.44 66.07 235.7 66.07 235.2 68.46 228.93 68.46 228.43 70.79 235.2 70.79 234.69 73.18 224.53 73.18 227.01 61.51"/><path class="cls-1" d="M242.35,66.49h2.7c1.55,0,2.15-.49,2.34-1.37,.24-1.13-.6-1.34-2.23-1.34h-2.23l-.58,2.71Zm-2.33-4.98h7.12c2.81,0,4.19,1.02,3.76,3.05-.32,1.49-1.75,2.52-3.56,2.83v.03c.96,.07,1.84,.29,2.07,1.02,.34,1.07-.12,3.52,.11,4.73h-3.6c-.13-1.13,.27-2.81,.12-3.62-.1-.53-.55-.81-1.91-.81h-2.26l-.94,4.42h-3.39l2.48-11.66Z"/><polygon class="cls-1" points="259.34 73.18 255.27 73.18 252.82 61.51 256.51 61.51 257.88 71.01 263.44 61.51 266.73 61.51 259.34 73.18"/><polygon class="cls-1" points="268.09 61.51 271.48 61.51 269 73.18 265.61 73.18 268.09 61.51"/><path class="cls-1" d="M281.94,65.34c.1-1.29-.86-1.75-2.15-1.75-2.21,0-3.61,1.55-4.06,3.68-.44,2.07,.08,3.81,2.37,3.81,1.29,0,2.57-.45,2.98-1.87h3.59c-.88,3.44-3.89,4.26-7.41,4.26s-5.95-1.78-5.03-6.12c.93-4.38,4.02-6.15,8.19-6.15,2.97,0,5.62,1.05,5.02,4.14h-3.49Z"/><polygon class="cls-1" points="288.42 61.51 298.44 61.51 297.93 63.91 291.31 63.91 290.85 66.07 297.12 66.07 296.61 68.46 290.34 68.46 289.84 70.79 296.61 70.79 296.1 73.18 285.94 73.18 288.42 61.51"/><path class="cls-1" d="M302.42,69.4c-.28,1.49,.32,1.82,1.9,1.82,2,0,2.46-.71,2.57-1.23,.17-.78-.59-1.03-1.87-1.29l-1.6-.32c-1.84-.37-3.71-1.08-3.24-3.31,.61-2.86,3.47-3.86,6.13-3.86,4.26,0,5.2,1.31,4.82,3.63h-3.3c.16-1.19-.77-1.37-1.79-1.37-1.49,0-2.24,.5-2.38,1.15-.17,.79,.85,1,2.04,1.26l1.5,.32c2.04,.44,3.64,1.13,3.15,3.44-.69,3.25-4.1,3.84-6.71,3.84-4.7,0-5.06-2.02-4.62-4.09h3.39Z"/><path class="cls-1" d="M325.31,66.76h6.19l-1.31,6.17c-1.95,.29-3.91,.55-5.83,.55-4.2,0-7.08-1.58-6.16-5.91,.94-4.44,4.23-6.36,8.52-6.36,2.92,0,5.82,.9,5.27,4.01h-3.49c.22-1.28-.81-1.74-2.25-1.74-2.71,0-4.06,1.7-4.51,3.8-.55,2.57,.58,3.96,3.29,3.96,.81,0,1.76-.14,2.47-.29l.43-2h-3.09l.46-2.16Z"/><polygon class="cls-1" points="335.51 61.51 340.74 61.51 342.34 70.17 347.81 61.51 352.87 61.51 350.39 73.18 347.19 73.18 349.21 63.68 349.18 63.68 343.3 73.18 339.81 73.18 337.95 63.68 337.92 63.68 335.9 73.18 333.03 73.18 335.51 61.51"/><path class="cls-1" d="M358.09,66.28h2.12c1.45,0,2.39-.4,2.59-1.31,.2-.97-.45-1.29-1.76-1.29h-2.39l-.55,2.6Zm-1.01,4.73h3.04c1.07,0,1.95-.29,2.17-1.33,.21-.97-.6-1.34-1.44-1.34h-3.2l-.57,2.66Zm-1.28-9.5h6.86c3.1,0,4.05,1.39,3.73,2.87-.28,1.32-1.47,2.36-3.05,2.73v.03c1.77,.16,2.69,1.28,2.38,2.76-.34,1.58-1.82,3.26-5.52,3.26h-6.88l2.48-11.66Z"/><polygon class="cls-1" points="369.91 61.51 373.3 61.51 372.32 66.15 378.05 66.15 379.04 61.51 382.43 61.51 379.95 73.18 376.56 73.18 377.54 68.54 371.81 68.54 370.82 73.18 367.43 73.18 369.91 61.51"/><path class="cls-1" d="M398.87,22.22h1.15c.63,0,.95-.19,.95-.7s-.37-.68-1.07-.68h-1.03v1.37Zm-1.49-2.57h2.41c1.76,0,2.76,.45,2.76,1.97,0,1.19-.74,1.65-1.39,1.71l1.29,2.55h-1.6l-1.24-2.47h-.74v2.47h-1.49v-6.23Zm2.42,7.45c2.31,0,4.07-1.86,4.07-4.17s-1.76-4.17-4.07-4.17-4.07,1.86-4.07,4.17,1.76,4.17,4.07,4.17m0-10.31c3.39,0,6.14,2.75,6.14,6.14s-2.75,6.14-6.14,6.14-6.14-2.75-6.14-6.14,2.75-6.14,6.14-6.14"/></svg>