<?xml version="1.0" encoding="utf-8"?>
<svg id="_レイヤー_1" data-name="レイヤー_1" width="600px" height="178.902px" version="1.1" viewBox="0 0 225.4 67.2" xmlns="http://www.w3.org/2000/svg">
  <g>
    <g>
      <polygon points="78.7 30.6 83.3 12.2 94.7 12.2 93.9 15.2 85.9 15.2 84.7 20 91.9 20 91.2 23 84 23 82.1 30.6 78.7 30.6" fill="#fff"/>
      <path d="M97.3,30.8c-2.6,0-4.1-.7-4.9-2.3h0c0-.1,2.8-1.8,2.8-1.8v.2c.4.7,1,1.1,2.7,1.1s2.3-.5,2.5-1.3c0-.3,0-.6,0-.7-.2-.4-1-.5-2.1-.7-1.7-.2-2.8-.8-3.4-1.6-.5-.7-.6-1.6-.3-2.7.6-2.5,2.9-4,6-4s3.9.7,4.5,2.3h0c0,.1-2.7,1.8-2.7,1.8v-.2c-.5-.7-.9-1.1-2.5-1.1s-1.9.2-2.2,1.2c0,.3,0,.6,0,.7.2.3.8.5,1.9.7,1.9.2,3,.7,3.6,1.6.5.7.6,1.6.3,2.8-.6,2.6-2.9,4.1-6.2,4.1Z" fill="#fff"/>
      <path d="M109.5,30.8c-1.6,0-2.7-.4-3.4-1.3-.6-.7-.7-1.8-.4-3,.8-3.3,3.7-4,6-4h2.7l.2-1c.2-.7.2-1.2,0-1.4-.2-.3-.8-.4-1.9-.4s-2.1.2-2.9,1.1h-.1c0,.1-1.9-1.5-1.9-1.5h.1c1.4-1.7,3-2.4,5.6-2.4s3.2.4,3.9,1.2c.6.8.7,1.9.3,3.5l-2.2,8.9h-3.1l.2-.8c-.8.7-1.7,1-3.1,1ZM111.4,25c-1.5,0-2.3.5-2.6,1.6-.1.4,0,.8.1,1,.2.3.8.5,1.5.5,1.6,0,2.7-.4,3.2-2.7v-.4c.1,0-2.3,0-2.3,0Z" fill="#fff"/>
      <path d="M123.5,30.8c-2.6,0-4.1-.7-4.9-2.3h0c0-.1,2.8-1.8,2.8-1.8v.2c.4.7,1,1.1,2.7,1.1s2.3-.5,2.5-1.3c0-.3,0-.6,0-.7-.2-.4-1-.5-2.1-.7-1.7-.2-2.8-.8-3.4-1.6-.5-.7-.6-1.6-.3-2.7.6-2.5,2.9-4,6-4s3.9.7,4.5,2.3h0c0,.1-2.7,1.8-2.7,1.8v-.2c-.5-.7-.9-1.1-2.5-1.1s-1.9.2-2.2,1.2c0,.3,0,.6,0,.7.2.3.8.5,1.9.7,1.9.2,3,.7,3.6,1.6.5.7.6,1.6.3,2.8-.6,2.6-2.9,4.1-6.2,4.1Z" fill="#fff"/>
    </g>
    <g>
      <polygon points="77.8 55 81.6 39.6 76.4 39.6 77.2 36.7 90.9 36.7 90.2 39.6 85 39.6 81.2 55 77.8 55" fill="#fff"/>
      <path d="M93.3,55.2c-1.7,0-3.1-.5-3.9-1.5-.8-1.1-1-2.7-.6-4.6l.4-1.8c1-3.8,3.4-6,6.9-6s2.8.5,3.5,1.3c.8,1,1,2.7.4,4.9l-.4,1.6h-7.8c-.3,1.2-.2,2.2.2,2.7.3.4.9.6,1.6.6,1.5,0,2.2-.4,2.9-1.2h.1c0-.1,2,1.6,2,1.6h-.1c-1.3,1.7-3,2.4-5.4,2.4ZM97.3,46.7c.2-.9,0-1.6-.3-2-.3-.3-.7-.5-1.4-.5-1.4,0-2.4.8-3,2.5h4.6Z" fill="#fff"/>
      <path d="M106.7,55.2c-1.7,0-3.1-.5-3.9-1.5-.8-1.1-1-2.7-.6-4.6l.4-1.8c.9-3.8,3.7-6,7.5-6s3.6.8,4.2,2.2h0c0,.1-2.8,1.8-2.8,1.8v-.2c-.4-.7-1.1-1.1-2.1-1.1-1.9,0-3.2,1.2-3.7,3.4l-.4,1.5c-.3,1.3-.3,2.2.2,2.7.3.4.9.7,1.8.7s2-.4,2.7-1.2h.1c0-.1,2,1.5,2,1.5h-.1c-1.2,1.7-3,2.4-5.3,2.4Z" fill="#fff"/>
      <path d="M121.5,55l2-8.1c.3-1,.2-1.8-.1-2.2-.3-.3-.7-.5-1.5-.5-1.6,0-2.8,1.1-3.2,2.8l-2,8h-3.2l4.6-18.3h3.2l-1.4,5.7c.8-.7,1.9-1,3.2-1s2.6.4,3.3,1.2c.7.9.8,2.3.4,4.1l-2.1,8.3h-3.1Z" fill="#fff"/>
      <path d="M135.7,55l2-8.1c.3-1,.2-1.8-.1-2.2-.3-.3-.7-.5-1.5-.5-1.6,0-2.8,1.1-3.2,2.8l-2,8h-3.1l3.3-13.4h3.1l-.2.8c.9-.7,2-1.1,3.3-1.1s2.6.4,3.3,1.2c.7.9.8,2.3.4,4.1l-2.1,8.3h-3.1Z" fill="#fff"/>
      <path d="M147.3,55.2c-1.7,0-3-.5-3.7-1.5-.8-1.1-1-2.7-.5-4.7l.4-1.6c1-3.8,3.6-6,7.2-6s3,.5,3.7,1.4c.8,1.1,1,2.6.5,4.7l-.4,1.6c-1,3.9-3.6,6.1-7.2,6.1ZM150.1,44.1c-2.2,0-3.1,1.9-3.5,3.4l-.4,1.5c-.3,1.3-.3,2.3.2,2.8.3.4.8.6,1.6.6,2.3,0,3.2-2.2,3.5-3.5l.4-1.5c.3-1.3.3-2.2-.2-2.7-.3-.4-.8-.6-1.5-.6Z" fill="#fff"/>
      <path d="M161.1,55c-1.9,0-3.1-.4-3.7-1.1-.5-.7-.6-1.7-.2-3.2l3.5-14h3.2l-3.4,13.5c-.2.7-.3,1.3,0,1.7.2.3.6.4,1.2.4h.2l-.7,2.8h-.1Z" fill="#fff"/>
      <path d="M169.3,55.2c-1.7,0-3-.5-3.7-1.5-.8-1.1-1-2.7-.5-4.7l.4-1.6c1-3.8,3.6-6,7.2-6s3,.5,3.7,1.4c.8,1.1,1,2.6.5,4.7l-.4,1.6c-1,3.9-3.6,6.1-7.2,6.1ZM172,44.1c-2.2,0-3.1,1.9-3.5,3.4l-.4,1.5c-.3,1.3-.3,2.3.2,2.8.3.4.8.6,1.6.6,2.3,0,3.2-2.2,3.5-3.5l.4-1.5c.3-1.3.3-2.2-.2-2.7-.3-.4-.8-.6-1.5-.6Z" fill="#fff"/>
      <path d="M181.9,60.1c-2.5,0-3.8-.7-4.5-2.4h0c0-.1,2.6-1.7,2.6-1.7v.2c.4.8,1.1,1.2,2.4,1.2,2,0,3.1-.9,3.6-2.9h0c-.9.4-1.9.7-3.1.7s-2.7-.5-3.4-1.4c-.8-1.1-1-2.7-.5-4.7l.4-1.8c.9-3.7,3.5-6,6.8-6s2.2.3,2.8.9l.2-.7h3.1l-3.2,13c-.9,3.7-3.3,5.5-7.2,5.5ZM186.1,44.1c-2.2,0-3.1,1.9-3.5,3.4l-.4,1.5c-.3,1.3-.3,2.2.2,2.8.3.4.8.6,1.5.6,1.7,0,2.9-1.2,3.5-3.5l.4-1.5c.3-1.3.3-2.2-.2-2.7-.3-.4-.8-.6-1.5-.6Z" fill="#fff"/>
      <path d="M192.7,55l3.3-13.4h3.2l-3.3,13.4h-3.2ZM196.3,40.1l.8-3.2h3.4l-.8,3.2h-3.4Z" fill="#fff"/>
      <path d="M204.9,55.2c-1.7,0-3.1-.5-3.9-1.5-.8-1.1-1-2.7-.6-4.6l.4-1.8c1-3.8,3.4-6,6.9-6s2.8.5,3.5,1.3c.8,1,1,2.7.4,4.9l-.4,1.6h-7.8c-.3,1.2-.2,2.2.2,2.7.3.4.9.6,1.6.6,1.5,0,2.2-.4,2.9-1.2h.1c0-.1,2,1.6,2,1.6h-.1c-1.3,1.7-3,2.4-5.4,2.4ZM208.8,46.7c.2-.9,0-1.6-.3-2-.3-.3-.7-.5-1.4-.5-1.4,0-2.4.8-3,2.5h4.6Z" fill="#fff"/>
      <path d="M217.6,55.2c-2.6,0-4.1-.7-4.9-2.3h0c0-.1,2.8-1.8,2.8-1.8v.2c.4.7,1,1.1,2.7,1.1s2.3-.5,2.5-1.3c0-.3,0-.6,0-.7-.2-.4-1-.5-2.1-.7-1.7-.2-2.8-.8-3.4-1.6-.5-.7-.6-1.6-.3-2.7.6-2.5,2.9-4,6-4s3.9.7,4.5,2.3h0c0,.1-2.7,1.8-2.7,1.8v-.2c-.5-.7-.9-1.1-2.5-1.1s-1.9.2-2.2,1.2c0,.3,0,.6,0,.7.2.3.8.5,1.9.7,1.9.2,3,.7,3.6,1.6.5.7.6,1.6.3,2.8-.6,2.6-2.9,4.1-6.2,4.1Z" fill="#fff"/>
    </g>
  </g>
  <g>
    <polygon points="47.5 12.2 36.9 55 14.1 55 11 67.2 47.9 67.2 61.6 12.2 47.5 12.2" fill="#fff"/>
    <polygon points="47.5 12.2 50.6 0 13.7 0 0 55 14.1 55 24.7 12.2 47.5 12.2" fill="#fff"/>
  </g>
</svg>