<svg id="Ebene_1" data-name="Ebene 1" xmlns="http://www.w3.org/2000/svg" viewBox="0 0 120 18"><path d="M60.88,1.38H53L48.73,5.27l.93-3.89H44l-.52,2.16a4.24,4.24,0,0,0-1-1.17,6.48,6.48,0,0,0-4.31-1.23,9.31,9.31,0,0,0-6.05,2A9.77,9.77,0,0,0,29,8.1l-.92-6.72H22.41l-6.7,10.88-.15-.53a4.41,4.41,0,0,0-.46-1,5.29,5.29,0,0,0-.44-.69L15,9.88a6.13,6.13,0,0,0,1.89-1.53A5.55,5.55,0,0,0,18,6.08a4,4,0,0,0-.15-2.69A3,3,0,0,0,16,1.76a10.13,10.13,0,0,0-3.18-.38H5.15L1.5,16.61H7.23L8.57,11a.69.69,0,0,1,.34.14,1.92,1.92,0,0,1,.32.75l1.41,4.72h8.43l1.21-2.28h3.8l.13,2.28h5.93L30,15.27a4.24,4.24,0,0,0,1.12.86,8.46,8.46,0,0,0,3.85.73,9.19,9.19,0,0,0,3.45-.59,7.92,7.92,0,0,0,2.36-1.49l-.44,1.83H46l.89-3.69,1.75-1.47,1.41,5.16h6.8L53.48,7.52ZM12.22,6.09a1,1,0,0,1-.28.48.83.83,0,0,1-.45.24,5.87,5.87,0,0,1-1,.18H9.53l.34-1.43H11.2a2.07,2.07,0,0,1,1,.14h0C12.29,5.78,12.24,6,12.22,6.09ZM22.68,9.94l1-1.85.13,1.85Zm19.09.54L38.5,9.41l-.26.56A5.22,5.22,0,0,1,37,11.74a2.26,2.26,0,0,1-1.56.52c-.78,0-1-.29-1.16-.51s-.31-.81.13-2.65a5.63,5.63,0,0,1,1.09-2.43,2.59,2.59,0,0,1,2-.94,1.54,1.54,0,0,1,.75.17,1.07,1.07,0,0,1,.42.47,2,2,0,0,1,.13.66l0,.8L42.6,7ZM83,5.87a1,1,0,0,1,.08.79,1.8,1.8,0,0,1-.42.78,1.92,1.92,0,0,1-.75.49A6.47,6.47,0,0,1,80,8.09h-.88l.65-2.68h.88a9.39,9.39,0,0,1,1.65.08A.88.88,0,0,1,83,5.87ZM117.53,1.4H61.74s-7.49,6.21-7.49,6.2,3.33,9,3.33,9h56.3a1.67,1.67,0,0,0,1.53-1.23l3-12.74A.94.94,0,0,0,117.53,1.4ZM60,12.73H57.53l.59-2.49h2.49ZM58.69,7.86l.6-2.48h2.48l-.59,2.48Zm5.15,4.87H61.36L62,10.24h2.49ZM65,7.86H62.52l.6-2.48H65.6Zm27.57,7.41H83.11l1.37-5.68a5,5,0,0,1-.6.43,4.77,4.77,0,0,1-1.48.59,14.44,14.44,0,0,1-2.59.18H78.52l-1.08,4.47h-3.1l.29-1.19A5.29,5.29,0,0,1,73,15a8,8,0,0,1-2.8.45,4.53,4.53,0,0,1-3.46-1.14A4,4,0,0,1,66,11l0-.27,3.06-.29,0,.4a2,2,0,0,0,.35,1.47,1.79,1.79,0,0,0,1.35.44,2.93,2.93,0,0,0,1.67-.43,1.61,1.61,0,0,0,.72-.95.56.56,0,0,0,0-.45,1.15,1.15,0,0,0-.57-.38c-.24-.09-.83-.26-1.76-.5a5.17,5.17,0,0,1-2.58-1.28,2.85,2.85,0,0,1-.6-2.69,4.26,4.26,0,0,1,1-1.84A5,5,0,0,1,70.49,3a7.09,7.09,0,0,1,2.56-.43,4.37,4.37,0,0,1,3.37,1.09,2.5,2.5,0,0,1,.53.83l.41-1.72h4.11a13.21,13.21,0,0,1,2.9.19,2.48,2.48,0,0,1,1.46,1l.3-1.24h9.5L95,5.41h-6.4l-.47,1.94h6L93.42,10h-6l-.61,2.54h6.37Zm10.25,0H93.36l3-12.55h9.5l-.65,2.69H98.83l-.47,2h6L103.67,10h-6l-.61,2.54h6.38Zm12.91-6.08a9.87,9.87,0,0,1-1,2.61A7.62,7.62,0,0,1,112.87,14a6.07,6.07,0,0,1-2,1,8.13,8.13,0,0,1-2.28.27h-4.94l3-12.55h4.64a7.84,7.84,0,0,1,2.31.25,3.16,3.16,0,0,1,1.7,1.22A4.31,4.31,0,0,1,116,6.27,8.83,8.83,0,0,1,115.74,9.19ZM73.94,6.92l2.43-.11-.5,2.09A2.65,2.65,0,0,0,75,8.09a9.23,9.23,0,0,0-2.47-.9c-1.4-.35-1.75-.6-1.84-.7a.38.38,0,0,1-.1-.4.83.83,0,0,1,.4-.53,3,3,0,0,1,1.56-.37,1.69,1.69,0,0,1,1.18.31,1.27,1.27,0,0,1,.25,1Zm38.93,0a6.46,6.46,0,0,1-.25,2,8.73,8.73,0,0,1-.73,2.09,3.15,3.15,0,0,1-.81,1,2.49,2.49,0,0,1-1,.44,6.54,6.54,0,0,1-1.39.1h-1.35l1.72-7.17h.8a9.11,9.11,0,0,1,1.86.11,1.33,1.33,0,0,1,.79.44A1.68,1.68,0,0,1,112.87,6.92Z" style="fill:#fff"/></svg>