<?xml version="1.0" encoding="UTF-8"?>
<svg id="Layer_1" data-name="Layer 1" xmlns="http://www.w3.org/2000/svg" viewBox="0 0 112.67 36.42">
  <defs>
    <style>
      .cls-1 {
        fill: none;
      }

      .cls-2 {
        fill: #fff;
      }
    </style>
  </defs>
  <g>
    <path class="cls-2" d="m36.12,16.98h1.88c.83,0,1.29-.42,1.29-1.17v-.88h-1.24v.83c0,.08-.02.16-.2.16h-1.59c-.17,0-.19-.08-.19-.16v-3.21c0-.08.02-.16.19-.16h1.59c.18,0,.2.08.2.16v.83h1.24v-.88c0-.76-.46-1.17-1.29-1.17h-1.88c-.83,0-1.29.42-1.29,1.17v3.32c0,.76.46,1.17,1.29,1.17Z"/>
    <path class="cls-2" d="m41.79,16.98h1.99c.83,0,1.29-.42,1.29-1.17v-3.32c0-.76-.46-1.17-1.29-1.17h-1.99c-.83,0-1.29.42-1.29,1.17v3.32c0,.76.46,1.17,1.29,1.17Zm-.05-1.23v-3.21c0-.08.02-.16.19-.16h1.69c.18,0,.2.08.2.16v3.21c0,.08-.02.16-.2.16h-1.69c-.17,0-.19-.08-.19-.16Z"/>
    <polygon class="cls-2" points="50.17 15.92 47.52 15.92 47.52 11.31 46.28 11.31 46.28 16.98 50.17 16.98 50.17 15.92"/>
    <path class="cls-2" d="m55.68,15.81v-3.32c0-.76-.46-1.17-1.29-1.17h-1.99c-.83,0-1.29.42-1.29,1.17v3.32c0,.76.46,1.17,1.29,1.17h1.99c.83,0,1.29-.42,1.29-1.17Zm-1.24-3.27v3.21c0,.08-.02.16-.2.16h-1.69c-.17,0-.19-.08-.19-.16v-3.21c0-.08.02-.16.19-.16h1.69c.18,0,.2.08.2.16Z"/>
    <path class="cls-2" d="m60.46,14.84c.55-.13.85-.53.85-1.13v-1.22c0-.76-.46-1.17-1.29-1.17h-3.13v5.67h1.24v-2.1h1l1.08,2.1h1.36l-1.12-2.14Zm-2.33-2.46h1.74c.17,0,.19.08.19.16v1.15c0,.08-.02.16-.19.16h-1.74v-1.47Z"/>
    <path class="cls-2" d="m64.12,15.64h1.96l.45,1.34h1.36l-2.09-5.67h-1.37l-2.08,5.67h1.31l.45-1.34Zm.36-1.07l.62-1.85.62,1.85h-1.25Z"/>
    <path class="cls-2" d="m72.06,11.31h-3.2v5.67h3.2c.83,0,1.29-.42,1.29-1.17v-3.32c0-.76-.46-1.17-1.29-1.17Zm-1.95,1.07h1.81c.17,0,.19.08.19.16v3.21c0,.08-.02.16-.19.16h-1.81v-3.53Z"/>
    <path class="cls-2" d="m75.83,16.98h1.99c.83,0,1.29-.42,1.29-1.17v-3.32c0-.76-.46-1.17-1.29-1.17h-1.99c-.83,0-1.29.42-1.29,1.17v3.32c0,.76.46,1.17,1.29,1.17Zm-.05-1.23v-3.21c0-.08.02-.16.19-.16h1.69c.18,0,.2.08.2.16v3.21c0,.08-.02.16-.2.16h-1.69c-.17,0-.19-.08-.19-.16Z"/>
    <path class="cls-2" d="m85.38,13.73l-1.56-.31c-.28-.06-.3-.11-.3-.26v-.63c0-.08.02-.17.2-.17h1.45c.16,0,.19.07.19.17v.66h1.23v-.69c0-.76-.46-1.17-1.29-1.17h-1.73c-.83,0-1.29.42-1.29,1.17v.8c0,.82.63,1.07,1.3,1.2l1.56.32c.27.06.3.1.3.25v.71c0,.1-.03.17-.19.17h-1.57c-.16,0-.19-.07-.19-.17v-.72h-1.23v.75c0,.76.46,1.17,1.29,1.17h1.84c.83,0,1.29-.42,1.29-1.17v-.88c0-.83-.63-1.07-1.3-1.2Z"/>
    <polygon class="cls-2" points="92.09 11.31 87.54 11.31 87.54 12.37 89.19 12.37 89.19 16.98 90.44 16.98 90.44 12.37 92.09 12.37 92.09 11.31"/>
    <path class="cls-2" d="m94,11.31l-2.08,5.67h1.31l.45-1.34h1.96l.45,1.34h1.36l-2.09-5.67h-1.37Zm1.28,3.26h-1.25l.62-1.85.62,1.85Z"/>
    <polygon class="cls-2" points="97.27 12.37 98.92 12.37 98.92 16.98 100.16 16.98 100.16 12.37 101.81 12.37 101.81 11.31 97.27 11.31 97.27 12.37"/>
    <polygon class="cls-2" points="106.79 12.38 106.79 11.31 102.69 11.31 102.69 16.98 106.79 16.98 106.79 15.92 103.93 15.92 103.93 14.62 106.29 14.62 106.29 13.56 103.93 13.56 103.93 12.38 106.79 12.38"/>
    <path class="cls-2" d="m38.12,24.18c0,.08-.02.16-.19.16h-1.66c-.18,0-.2-.08-.2-.16v-4.44h-1.24v4.49c0,.76.46,1.17,1.29,1.17h1.95c.83,0,1.29-.42,1.29-1.17v-4.49h-1.24v4.44Z"/>
    <polygon class="cls-2" points="44.18 23.37 41.82 19.74 40.58 19.74 40.58 25.41 41.76 25.41 41.76 21.67 44.19 25.41 45.36 25.41 45.36 19.74 44.18 19.74 44.18 23.37"/>
    <rect class="cls-2" x="46.57" y="19.74" width="1.24" height="5.67"/>
    <polygon class="cls-2" points="51.45 23.9 50.15 19.74 48.79 19.74 50.76 25.41 52.1 25.41 54.07 19.74 52.75 19.74 51.45 23.9"/>
    <polygon class="cls-2" points="55.04 25.41 59.14 25.41 59.14 24.34 56.28 24.34 56.28 23.04 58.64 23.04 58.64 21.99 56.28 21.99 56.28 20.81 59.14 20.81 59.14 19.74 55.04 19.74 55.04 25.41"/>
    <path class="cls-2" d="m64.72,22.14v-1.22c0-.76-.46-1.17-1.29-1.17h-3.13v5.67h1.24v-2.1h1l1.08,2.1h1.36l-1.12-2.14c.55-.13.85-.53.85-1.13Zm-3.18-1.34h1.74c.17,0,.19.08.19.16v1.15c0,.08-.02.16-.19.16h-1.74v-1.47Z"/>
    <path class="cls-2" d="m68.98,22.16l-1.56-.31c-.28-.06-.3-.11-.3-.26v-.63c0-.08.02-.17.2-.17h1.45c.16,0,.19.07.19.17v.66h1.23v-.69c0-.76-.46-1.17-1.29-1.17h-1.73c-.83,0-1.29.42-1.29,1.17v.8c0,.82.63,1.07,1.3,1.2l1.56.32c.27.06.3.1.3.25v.71c0,.1-.03.17-.19.17h-1.57c-.16,0-.19-.07-.19-.17v-.72h-1.23v.75c0,.76.46,1.17,1.29,1.17h1.84c.83,0,1.29-.42,1.29-1.17v-.88c0-.83-.63-1.07-1.3-1.2Z"/>
    <rect class="cls-2" x="71.45" y="19.74" width="1.24" height="5.67"/>
    <polygon class="cls-2" points="73.55 20.8 75.21 20.8 75.21 25.41 76.45 25.41 76.45 20.8 78.1 20.8 78.1 19.74 73.55 19.74 73.55 20.8"/>
    <polygon class="cls-2" points="81.22 22.2 79.9 19.74 78.53 19.74 80.59 23.42 80.59 25.41 81.83 25.41 81.83 23.42 83.89 19.74 82.54 19.74 81.22 22.2"/>
  </g>
  <rect class="cls-1" x="106.82" y="11.64" width="5.85" height="5.85"/>
  <rect class="cls-1" width="112.61" height="36.42"/>
  <g>
    <path class="cls-2" d="m19.66,25.18c-.44.04-.93.15-1.32.14-.39,0-.88-.1-1.32-.14-.07,0-.12.04-.12.04-.26.55,1.23.86,1.44.85.21,0,1.71-.29,1.45-.85,0,0-.05-.05-.12-.04Z"/>
    <path class="cls-2" d="m26.91,17.36c-.06-.51-.51-.66-.9-.78-1.13-.36-1.61.09-1.94.12.36-.41.27-1.09-.2-1.17-.88-.14-.64.81-.43,1.26.14.28.31.74.75.71.53-.04.45-.48,1.22-.54,0,0,.96.07.94.38-.04.45-.53.62-.86.73-.48.16-1.03-.08-1.42.37-.12.15-.22.33-.18.5.04.17.06.1.59.14-.3.37-.47.93-.48,1.41-.02,1.32-.35,2.34-.22,2.79.64-.77.63-1.93.73-2.85.06-.48.23-1.01.47-1.36.27-.41.78-.43,1.12-.68.32-.24.83-.64.78-1.01Z"/>
    <path class="cls-2" d="m16.29,21.14c.36-.55.73-1.74.52-2.25-.35-.14-.77-.41-1.02-.79-.25-.37-.4-.78-.84-.9-.3-.11-.63-.04-.87.09-.39.23-.49.77-.55,1.19-.03.88.14,2.18.52,3,.23.61.75,1.62,1.4,2.57-.18-1.51.65-2.5.85-2.91Zm-1.15-1.94c-.17-.31-.62-.25-.83-.37-.34-.22-.32-.69,0-.98.41-.38,1.47.83,1.24,1.77-.1.03-.16-.03-.4-.43Z"/>
    <path class="cls-2" d="m22.56,17.29c-.24-.13-.58-.19-.87-.09-.44.12-.58.53-.85.9-.25.38-.67.65-1.02.79-.22.51.16,1.7.51,2.25.2.41,1.03,1.4.85,2.91.65-.95,1.18-1.96,1.39-2.57.38-.82.56-2.12.52-3-.05-.43-.16-.97-.55-1.19Zm-.24,1.54c-.2.12-.65.06-.83.37-.24.4-.3.46-.4.43-.23-.94.83-2.14,1.24-1.77.32.29.33.76,0,.98Z"/>
    <path class="cls-2" d="m18.34,20.35h0s0,0,0,0h0s0,0,0,0c-.42,0-.64.36-1.03.77-.67.73-2.05,2.55-1.05,3.42.44.38,1.03.65,1.83.4.2-.14.09-.55-.02-.73-.38-.49-.96-.3-1.13-.54-.16-.24-.05-.42.04-.54.14-.17.37-.13.56-.08.34.08.57.22.79.43v.02s0,0,0,0c0,0,0,0,0,0v-.02c.21-.21.45-.35.78-.43.18-.05.42-.1.55.08.1.12.2.3.04.54-.17.24-.74.05-1.12.54-.1.18-.23.59-.03.73.81.24,1.39-.02,1.83-.4,1.01-.86-.37-2.69-1.05-3.42-.38-.4-.61-.76-1.02-.77Z"/>
    <path class="cls-2" d="m12.89,15.53c-.46.08-.55.76-.2,1.17-.32-.04-.8-.48-1.94-.12-.39.12-.84.28-.9.78-.04.38.46.78.78,1.01.33.25.86.27,1.13.68.23.35.41.88.47,1.36.1.93.09,2.08.73,2.85.12-.45-.21-1.47-.22-2.79-.01-.49-.19-1.05-.48-1.41.53-.04.54.03.58-.14.05-.17-.05-.35-.17-.5-.38-.44-.93-.21-1.42-.37-.32-.11-.82-.28-.85-.73-.02-.31.94-.38.94-.38.77.06.68.5,1.21.54.44.04.62-.43.76-.71.21-.44.45-1.4-.44-1.26Z"/>
    <g>
      <polygon class="cls-2" points="27.69 11.33 27.69 11.33 27.69 11.33 27.69 11.33"/>
      <polygon class="cls-2" points="15.27 27.59 15.27 27.59 15.27 27.59 15.27 27.59"/>
      <path class="cls-2" d="m7.6,14.18s.07-.01.11-.02c0-.02.02-.04.02-.06-.04.03-.09.05-.13.08Z"/>
      <path class="cls-2" d="m18.33,5.78c-6.83,0-12.39,5.56-12.39,12.39s5.56,12.39,12.39,12.39,12.39-5.56,12.39-12.39-5.56-12.39-12.39-12.39Zm6.52,20.87c-.3-.13-.48-.43-.54-.76-.07-.49.2-1.06.44-1.45.33-.55,1.08-1.51,1.94-2.14,1.22-.91,2.08-1.16,1.76-1.37-.22-.15-1.38.49-1.61.61-1.3.67-3.1,2.62-3.31,4.06-.14.94.74,1.66,1.55,1.7-1.89,1.4-4.22,2.23-6.75,2.23s-4.86-.83-6.75-2.23c.81-.04,1.69-.76,1.55-1.7-.21-1.44-2.02-3.38-3.31-4.06-.23-.12-1.39-.76-1.61-.61-.32.21.54.46,1.76,1.37.86.64,1.6,1.6,1.93,2.14.25.38.52.96.45,1.45-.05.33-.25.63-.54.76-.33.15-.67.12-1.01.01-1.04-.93-1.92-2.04-2.56-3.29.77,1.08,1.8,2.3,2.38,2.32.94.05-.92-2.46-2.19-3.5-.31-.25-.66-.55-.73-1.02-.05-.34.12-.57.46-.58.51-.02,1.84.67,1.86.65-2.31-4.14,1.22-6.23-.24-7.14-.48-.3-1.47-.04-2.07.07-.04,0-.08.01-.11.02.05-.03.09-.05.13-.08,5.32-3.08,6.26.08,7.89,1.54.26.24,1.41,0,1.63-.27.29-.35.87-1.6.21-2.43-.88-1.12-4.36-4.26-7.73-2.18,2.08-2.42,5.17-3.95,8.6-3.95s6.52,1.53,8.6,3.95c-3.38-2.09-6.84,1.06-7.74,2.18-.65.83-.08,2.08.21,2.43.23.27,1.38.51,1.64.27,1.62-1.46,2.57-4.62,7.89-1.54.04.03.09.05.13.08-.04,0-.07-.01-.11-.02-.61-.11-1.6-.37-2.07-.07-1.46.91,2.06,3-.24,7.14.02.03,1.35-.66,1.86-.65.33.02.51.24.46.58-.07.47-.43.77-.73,1.02-1.28,1.05-3.13,3.56-2.2,3.5.58-.03,1.62-1.25,2.39-2.33-.65,1.25-1.52,2.36-2.56,3.29-.33.11-.68.14-1.01-.01Zm2.84-15.32h0s0,0,0,0h0Z"/>
    </g>
  </g>
</svg>