<?xml version="1.0" encoding="UTF-8"?>
<svg id="white" xmlns="http://www.w3.org/2000/svg" viewBox="0 0 960.77 240.46">
  <defs>
    <style>
      .cls-1 {
        fill: #fff;
        stroke-width: 0px;
      }
    </style>
  </defs>
  <path class="cls-1" d="M673.12,8.63l-6.09,25.13h20.42l-5.08,21.16h-20.51l-2.97,11.47c-.65,2.91-1.21,5.02-1.54,6.69-.58,3.43-2.23,7.53,3.59,10.44,2.89,1.44,11.18,1.2,17.52.43l-11.02,21.6-9.38.37h-8.65c-9.07,0-15.49-2.11-19.25-5.77-2.91-2.8-4.36-7.24-4.36-13.31,0-3.41.63-8.07,1.88-13.98l4.59-17.93h-11.78l4.98-21.16h12.07l3.8-16.35,31.78-8.78Z"/>
  <path class="cls-1" d="M572.41,31.9c8.07,0,13.49.57,18.53,1.73,5.04,1.15,9.08,2.98,12.14,5.49,5.01,4.16,8.65,10.37,8.65,19.19,0,7.37-1.76,14.61-5.02,21.58-5.3,11.31-13.25,17.59-22.73,22.1-7.42,3.51-21.48,6.03-31.12,5.68-9.65-.36-13.82-.89-17.99-1.88-4.17-.99-8.58-2.99-11.68-5.3-5.46-3.96-9.05-9.57-9.05-18.35,0-7.92,1.09-14.07,4.39-21.84,3.06-7.12,8.66-13.81,13.97-17.82,4.81-3.66,10.35-6.28,16.62-7.86,6.27-1.58,13.46-2.67,23.29-2.73ZM567.43,51.88c-6.82,0-12.88,3.22-16.48,8.33-3.01,4.26-5.17,9.81-5.17,15.32,0,7.92,4.26,11.88,12.78,11.88,6.72,0,12.75-3.31,16.41-8.43,3.01-4.26,5.26-10.06,5.26-15.52,0-7.87-4.33-11.48-12.8-11.58Z"/>
  <g>
    <path class="cls-1" d="M265.93,33.8l-17.45,71.73h-29.77l17.45-71.73h29.77Z"/>
    <path class="cls-1" d="M260.9.05c4.06.2,6.88,1.48,8.92,3.87,2.03,2.4,2.27,5.55,2.14,8.49-.72,5.17-2.56,8.26-6.73,11.44-4.68,3.2-8.42,4.42-14.77,3.83-4.04-.37-7.41-2.13-9.09-4.18-1.68-2.05-2.48-5.14-2.11-8.4.37-3.26,2.07-7.2,6.19-10.6,4.12-3.4,10.78-4.68,15.45-4.46Z"/>
  </g>
  <path class="cls-1" d="M307.25,33.75l-1.37,6.24c6.2-3.94,10.49-5.7,14.91-6.84,4.84-1.24,8.63-1.53,14.7-1.33,7.32.23,12.33,1.81,17.06,4.94,4.16,3.11,6.75,6.9,7.18,12.78.13,4.08-1.34,10.23-1.34,10.23l-11.01,45.76h-29.31l8.73-36.01c.85-4.11,1.38-6.21,1.56-8.04.59-5.79-3.93-7.31-10.1-7.31-5.26,0-11.63,1.76-14.74,5.04-2.6,2.75-4.07,6.86-6.02,14.62l-7.62,31.7h-29.39l17.35-71.77h29.39Z"/>
  <polygon class="cls-1" points="28.47 36.27 216.34 36.17 212.35 55.57 28.47 36.27"/>
  <polygon class="cls-1" points="0 38.94 210.4 62.01 206.66 79.02 0 38.94"/>
  <path class="cls-1" d="M593.79,121.7l-8.48,39.94c3.53-3.03,6.68-5.14,9.45-6.33,2.77-1.18,5.87-1.78,9.33-1.78,4.95,0,8.85,1.26,11.72,3.77,2.87,2.51,4.3,5.95,4.3,10.32,0,1.91-.38,4.6-1.12,8.05l-7.49,35.42h-9.41l7.48-35.17c.46-2.08.68-3.82.68-5.24,0-2.83-.88-5.04-2.65-6.64-1.77-1.6-4.21-2.4-7.33-2.4-2.41,0-4.84.5-7.3,1.5-2.45,1-4.51,2.33-6.17,3.99-2.24,2.24-3.78,5.26-4.61,9.04l-7.42,34.92h-9.35l19.02-89.39h9.35Z"/>
  <path class="cls-1" d="M661.28,153.66c6.73,0,11.97,1.84,15.71,5.52,3.74,3.68,5.61,8.85,5.61,15.49,0,4.45-.76,8.92-2.28,13.41-1.52,4.49-3.61,8.44-6.27,11.85-6.49,8.27-14.86,12.41-25.13,12.41-6.73,0-11.99-1.84-15.75-5.52-3.76-3.68-5.64-8.82-5.64-15.43,0-4.49.76-8.98,2.28-13.47,1.52-4.49,3.61-8.44,6.27-11.85,6.36-8.11,14.76-12.24,25.19-12.41ZM659.53,161.77c-7.44,0-13.28,3.99-17.52,11.97-2.75,5.11-4.12,10.43-4.12,15.96,0,4.74,1.18,8.4,3.55,10.97,2.2,2.37,5.24,3.55,9.1,3.55,7.4,0,13.25-3.99,17.52-11.97,2.75-5.11,4.12-10.41,4.12-15.9,0-4.66-1.09-8.24-3.28-10.76-2.18-2.51-5.31-3.79-9.39-3.83Z"/>
  <path class="cls-1" d="M732.44,163.51l-9.29,5.24c-.13-2.58-.87-4.46-2.25-5.65-1.37-1.18-3.47-1.78-6.3-1.78-3.16,0-5.83.89-8.01,2.68-2.18,1.79-3.27,3.99-3.27,6.61,0,1.71.73,3.04,2.18,4.02,1.45.98,4.3,2.03,8.54,3.15,4.95,1.29,8.36,2.86,10.23,4.71,1.87,1.85,2.8,4.58,2.8,8.2,0,5.11-2.2,9.81-6.61,14.09-5.16,5.03-11.74,7.55-19.77,7.55-5.28,0-9.3-1.18-12.07-3.55-2.76-2.37-4.63-6.24-5.58-11.6l9.73-3.8c.42,7.48,3.93,11.23,10.54,11.23,4.36,0,7.9-1.43,10.6-4.3,2.12-2.24,3.18-4.76,3.18-7.54,0-1.71-.71-3.03-2.15-3.99-1.43-.95-4.31-2.08-8.64-3.37-3.53-1-6.05-1.92-7.55-2.78-1.5-.85-2.72-2.05-3.68-3.59-1.16-1.83-1.75-3.91-1.75-6.24,0-2.16.57-4.44,1.72-6.83,1.14-2.39,2.67-4.5,4.58-6.33,4.2-3.99,9.64-5.99,16.34-5.99,4.53,0,8.07.77,10.63,2.31,2.56,1.54,4.5,4.05,5.83,7.54Z"/>
  <path class="cls-1" d="M760.95,136.7l-3.87,18.21h15.71l-1.69,8.11h-15.77l-5.74,27c-.79,3.66-1.18,6.3-1.18,7.92,0,4.24,2.74,6.36,8.23,6.36,1.79,0,4.05-.46,6.8-1.37l-2.49,7.86c-3.66,1.04-6.67,1.56-9.04,1.56-4.28,0-7.54-.96-9.76-2.87-2.22-1.91-3.34-4.7-3.34-8.36,0-2.91.5-6.69,1.5-11.35l5.67-26.75h-9.1l1.75-8.11h9.1l3.06-14.34,10.16-3.87Z"/>
  <path class="cls-1" d="M790.41,154.91l-11.97,56.19h-9.35l11.97-56.19h9.35ZM791.28,126.29c1.5,0,2.72.48,3.68,1.43.96.96,1.44,2.18,1.44,3.68,0,2-.8,3.79-2.4,5.39-1.6,1.6-3.42,2.4-5.46,2.4-1.46,0-2.66-.48-3.62-1.43-.96-.96-1.44-2.18-1.44-3.68,0-2.03.79-3.84,2.37-5.42,1.58-1.58,3.39-2.37,5.42-2.37Z"/>
  <path class="cls-1" d="M814.74,154.91l-1.43,6.74c3.53-3.03,6.68-5.14,9.45-6.33,2.76-1.18,5.87-1.78,9.32-1.78,4.95,0,8.85,1.26,11.72,3.77,2.87,2.51,4.3,5.95,4.3,10.32,0,1.91-.38,4.6-1.12,8.05l-7.48,35.42h-9.42l7.48-35.17c.46-2.08.68-3.82.68-5.24,0-2.83-.88-5.04-2.65-6.64-1.77-1.6-4.21-2.4-7.33-2.4-2.41,0-4.84.5-7.29,1.5-2.46,1-4.51,2.33-6.18,3.99-2.24,2.24-3.78,5.26-4.61,9.04l-7.42,34.92h-9.36l11.98-56.19h9.35Z"/>
  <path class="cls-1" d="M914.22,154.91l-11.91,56.19c-1.62,7.56-4.45,13.68-8.48,18.33-3.03,3.49-6.69,6.21-10.98,8.17-4.16,1.91-8.29,2.87-12.41,2.87-5.57,0-10.37-1.58-14.4-4.74-1.66-1.29-2.96-2.72-3.9-4.3-.94-1.58-1.84-3.87-2.71-6.86l9.16-5.99c1,9.23,5.47,13.84,13.41,13.84,5.99,0,11.1-2.75,15.34-8.23,2.57-3.28,4.55-8.21,5.92-14.78l1.12-5.18c-6.24,5.45-12.66,8.17-19.27,8.17-4.78,0-9.02-1.52-12.72-4.55-4.57-3.82-6.86-9.35-6.86-16.59,0-4.45.76-8.91,2.28-13.37,1.52-4.47,3.6-8.41,6.26-11.82,2.99-3.87,6.65-6.93,10.98-9.17,4.32-2.2,8.65-3.3,12.97-3.3,3.28,0,6.16.66,8.64,1.97,2.47,1.31,4.73,3.38,6.77,6.2l1.43-6.86h9.35ZM887.53,161.7c-7.44,0-13.28,3.99-17.52,11.97-2.75,5.11-4.12,10.46-4.12,16.03,0,4.78,1.16,8.46,3.49,11.04,2.2,2.37,5.26,3.55,9.16,3.55,7.4,0,13.24-4.01,17.52-12.04,2.74-5.07,4.12-10.39,4.12-15.96,0-4.65-1.08-8.23-3.24-10.72-2.16-2.5-5.3-3.78-9.42-3.87Z"/>
  <path class="cls-1" d="M377.03,33.77h29.39l-1.13,5.12c5.81-3.34,8-4.51,11.69-5.5,6.06-1.61,10.61-1.82,15.05-1.66,5.76.21,8.95,1.13,12.83,2.86,2.86,1.68,5.18,3.19,7.88,7.05,7.15-4.7,12.02-6.89,16.8-8.26,5.04-1.39,9.8-1.68,15.27-1.68,7.62,0,13.68,1.75,17.61,4.85,3.93,3.11,7.23,7.57,7.23,13.59.17,3.06-1.19,8.65-1.19,8.65l-11.25,46.7h-29.39l8.97-37.85s.99-4.4,1.27-6.39c.66-4.27-2.52-6.85-8.4-7.05-5.56-.1-10.37,1-13.7,5.03-2.24,2.54-2.98,5.01-4.99,11.82l-8.17,34.48h-29.34s8.5-35.23,9.06-38.02c.28-1.41.95-4.11,1.23-6.24.71-4.49-2.84-7.01-8.06-7.22-4.91-.05-9.07,1.77-11.98,4.32-4.15,3.65-5.34,9.53-7.14,15.83l-7.55,31.32h-29.3l17.29-71.77Z"/>
  <path class="cls-1" d="M879.19,33.8l-1.36,6.24c6.2-3.94,10.49-5.7,14.91-6.84,4.84-1.24,8.63-1.53,14.7-1.33,7.32.23,12.33,1.81,17.07,4.94,4.16,3.11,6.75,6.9,7.18,12.78.13,4.08-1.34,10.23-1.34,10.23l-11.01,45.76h-29.31l8.74-36c.85-4.11,1.38-6.21,1.56-8.05.58-5.78-3.94-7.31-10.1-7.31-5.26,0-11.63,1.76-14.74,5.04-2.61,2.74-4.07,6.86-6.02,14.63l-7.62,31.7h-29.4l17.36-71.77h29.39Z"/>
  <g>
    <path class="cls-1" d="M731.93,33.78l-17.45,71.73h-29.77l17.44-71.73h29.78Z"/>
    <path class="cls-1" d="M726.9.03c4.05.2,6.88,1.48,8.92,3.87,2.03,2.39,2.27,5.55,2.14,8.49-.72,5.17-2.56,8.26-6.73,11.44-4.68,3.2-8.42,4.42-14.77,3.83-4.05-.37-7.41-2.13-9.09-4.19-1.68-2.06-2.48-5.14-2.11-8.4.37-3.26,2.07-7.2,6.19-10.6,4.12-3.4,10.78-4.68,15.45-4.45Z"/>
  </g>
  <path class="cls-1" d="M791.56,31.74c8.07,0,13.49.58,18.53,1.73,5.03,1.15,9.08,2.98,12.14,5.49,5.01,4.16,8.65,10.37,8.65,19.19,0,7.37-1.75,14.61-5.02,21.58-5.3,11.32-13.25,17.59-22.73,22.1-7.42,3.51-21.47,6.03-31.12,5.68-9.65-.36-13.82-.89-17.99-1.88-4.17-.99-8.58-2.99-11.69-5.3-5.46-3.96-9.05-9.57-9.05-18.34,0-7.92,1.08-14.07,4.39-21.84,3.06-7.12,8.67-13.81,13.97-17.82,4.81-3.66,10.35-6.28,16.62-7.86,6.26-1.58,13.46-2.67,23.29-2.73ZM786.58,51.72c-6.82,0-12.88,3.21-16.49,8.33-3.01,4.26-5.17,9.81-5.17,15.32,0,7.92,4.26,11.88,12.78,11.88,6.72,0,12.75-3.31,16.41-8.42,3.01-4.26,5.26-10.06,5.26-15.52,0-7.87-4.33-11.48-12.8-11.58Z"/>
  <path class="cls-1" d="M948.16,83.02c2.3,0,4.47.63,6.52,1.9,2.05,1.26,3.61,2.96,4.71,5.1.93,1.84,1.39,3.79,1.39,5.85,0,2.4-.62,4.64-1.87,6.69-1.25,2.05-2.94,3.62-5.07,4.73-1.84.94-3.79,1.41-5.83,1.41-2.39,0-4.62-.62-6.68-1.88-2.05-1.26-3.63-2.97-4.74-5.13-.94-1.84-1.41-3.79-1.41-5.83,0-2.43.63-4.68,1.89-6.75,1.24-2.03,2.96-3.61,5.14-4.73,1.8-.92,3.79-1.37,5.95-1.37ZM948.13,85.22c-2.95,0-5.44,1.02-7.47,3.07-.98,1-1.75,2.16-2.29,3.48-.53,1.32-.79,2.68-.79,4.1,0,2.92,1.02,5.43,3.08,7.51,2.03,2.07,4.47,3.1,7.32,3.1s5.32-1.04,7.35-3.12c2.03-2.07,3.05-4.57,3.05-7.51,0-1.99-.51-3.85-1.54-5.57-.98-1.67-2.36-2.97-4.13-3.9-1.38-.72-2.91-1.11-4.58-1.16ZM943.21,103.05v-14.4h4.46c1.54,0,2.64.15,3.3.45.63.3,1.14.76,1.5,1.37.37.61.55,1.31.55,2.09,0,.89-.21,1.65-.65,2.28-.44.63-1.13,1.2-2.09,1.7l3.79,6.5h-3.34l-3.36-5.99h-1.21v5.99h-2.96ZM946.18,94.79h1.01c.86.06,1.52-.1,2.01-.47.48-.38.72-.92.72-1.63,0-.86-.37-1.4-1.1-1.6-.22-.06-.81-.09-1.79-.09h-.85v3.79Z"/>
</svg>