<?xml version="1.0" encoding="utf-8"?>
<!-- Generator: Adobe Illustrator 23.0.3, SVG Export Plug-In . SVG Version: 6.00 Build 0)  -->
<svg version="1.1" id="Layer_1" xmlns="http://www.w3.org/2000/svg" xmlns:xlink="http://www.w3.org/1999/xlink" x="0px" y="0px"
	 viewBox="0 0 1000 260.22" style="enable-background:new 0 0 1000 260.22;" xml:space="preserve">
<style type="text/css">
	.st0{fill:#1DCAD3;}
	.st1{fill:#36B0C9;}
	.st2{fill:#231F20;}
	.st3{fill:#FFFFFF;}
	.st4{fill:#9164CC;}
	.st5{clip-path:url(#SVGID_2_);fill:url(#SVGID_3_);}
	.st6{fill:#201747;}
	.st7{fill-rule:evenodd;clip-rule:evenodd;fill:#10CFC9;}
	.st8{clip-path:url(#SVGID_5_);fill:#231F20;}
	.st9{fill-rule:evenodd;clip-rule:evenodd;fill:#231F20;}
	.st10{clip-path:url(#SVGID_7_);fill:#FFFFFF;}
	.st11{fill-rule:evenodd;clip-rule:evenodd;fill:#FFFFFF;}
	.st12{fill:#8CCEAF;}
	.st13{fill:#008476;}
	.st14{fill:#25BCBD;}
	.st15{fill:#004D70;}
	.st16{fill:#20BBBB;}
	.st17{fill:#024D70;}
	.st18{fill-rule:evenodd;clip-rule:evenodd;fill:#F58B1F;}
	.st19{fill-rule:evenodd;clip-rule:evenodd;fill:#18335B;}
	.st20{clip-path:url(#SVGID_9_);}
	.st21{clip-path:url(#SVGID_11_);}
	.st22{fill:#18335B;}
	.st23{fill:#F58B1F;}
	.st24{clip-path:url(#SVGID_15_);}
	.st25{clip-path:url(#SVGID_17_);}
	.st26{clip-path:url(#SVGID_21_);}
	.st27{clip-path:url(#SVGID_23_);}
	.st28{clip-path:url(#SVGID_27_);}
	.st29{clip-path:url(#SVGID_29_);}
	.st30{clip-path:url(#SVGID_33_);}
	.st31{clip-path:url(#SVGID_35_);}
	.st32{clip-path:url(#SVGID_39_);}
	.st33{clip-path:url(#SVGID_41_);}
	.st34{fill:#416BA9;}
	.st35{fill:#73C3D5;}
	.st36{opacity:0.8;}
	.st37{fill:#3A3A3A;}
	.st38{fill:url(#SVGID_44_);}
	.st39{fill:none;stroke:#000000;stroke-width:6.3384;}
	.st40{fill:none;stroke:#000000;stroke-width:3.1692;}
	.st41{fill:#48494B;}
	.st42{fill:#C1986C;}
	.st43{fill:url(#SVGID_63_);}
	.st44{fill:url(#SVGID_64_);}
	.st45{fill:url(#SVGID_65_);}
	.st46{fill:url(#SVGID_66_);}
	.st47{fill:url(#SVGID_67_);}
	.st48{fill:#4D4E4E;}
	.st49{fill:#27B373;}
	.st50{fill:#5DC4CD;}
	.st51{fill:#1E8756;}
	.st52{fill:#3D1152;}
	.st53{fill:#922C48;}
	.st54{fill-rule:evenodd;clip-rule:evenodd;fill:#922C48;}
	.st55{fill:#404041;}
	.st56{fill:#EC1C24;}
	.st57{fill:#373A36;}
	.st58{fill:#808184;}
	.st59{fill:#262261;}
	.st60{fill:#6FCBDC;}
	.st61{fill:#2F3436;}
	.st62{fill:#5F97D0;}
	.st63{fill:#132428;}
	.st64{fill:#85C041;}
	.st65{fill:#677784;}
	.st66{fill:url(#SVGID_68_);}
	.st67{opacity:0.2;clip-path:url(#SVGID_70_);}
	.st68{fill:#FFFEFA;}
	.st69{opacity:0.1;}
	.st70{fill:url(#SVGID_71_);}
	.st71{opacity:0.3;}
	.st72{opacity:0.08;}
	.st73{opacity:0.1;fill:url(#Wordmark_1_);}
	.st74{fill:url(#SVGID_104_);}
	.st75{opacity:0.6;fill:url(#SVGID_107_);}
	.st76{opacity:0.4;}
	.st77{fill:url(#SVGID_110_);}
	.st78{opacity:0.6;fill:url(#SVGID_113_);}
	.st79{fill:url(#SVGID_116_);}
	.st80{opacity:0.6;fill:url(#SVGID_119_);}
	.st81{fill:url(#SVGID_122_);}
	.st82{opacity:0.6;fill:url(#SVGID_125_);}
	.st83{fill:url(#SVGID_128_);}
	.st84{opacity:0.6;fill:url(#SVGID_131_);}
	.st85{fill:#221F1F;}
	.st86{fill:none;}
	.st87{fill:#00416B;}
	.st88{opacity:0.8;fill:url(#XMLID_323_);}
	.st89{fill:#4197CB;}
	.st90{fill:#003E52;}
	.st91{fill:#3F96B4;}
	.st92{fill:#B9DBE5;}
	.st93{opacity:0.3;fill:#231F20;}
	.st94{opacity:0.3;fill:#FFFFFF;}
	.st95{fill:#050013;}
	.st96{fill:#E87200;}
	.st97{fill:#FCB813;}
	.st98{fill:#3D3935;}
	.st99{fill:#FFB600;}
	.st100{fill:#FCB814;}
	.st101{fill:#F48120;}
	.st102{fill:#EF4E25;}
	.st103{fill:#ED3024;}
	.st104{fill:#E0592A;}
	.st105{fill:#00ADBB;}
	.st106{fill:#00829B;}
	.st107{fill:#93D500;}
	.st108{fill:#4D5A31;}
	.st109{fill:#6BA43A;}
	.st110{fill:#424143;}
	.st111{fill-rule:evenodd;clip-rule:evenodd;fill:#C7E6B4;}
	.st112{fill-rule:evenodd;clip-rule:evenodd;fill:#5A9891;}
	.st113{fill-rule:evenodd;clip-rule:evenodd;fill:#127870;}
	.st114{fill-rule:evenodd;clip-rule:evenodd;fill:#5CCFD5;}
	.st115{fill-rule:evenodd;clip-rule:evenodd;fill:#ACD5CD;}
	.st116{fill-rule:evenodd;clip-rule:evenodd;fill:#B5ECC9;}
	.st117{fill-rule:evenodd;clip-rule:evenodd;fill:#A1D683;}
	.st118{fill-rule:evenodd;clip-rule:evenodd;fill:#DEF0D3;}
	.st119{fill-rule:evenodd;clip-rule:evenodd;fill:#91B9B4;}
	.st120{fill-rule:evenodd;clip-rule:evenodd;fill:#006860;}
	.st121{fill-rule:evenodd;clip-rule:evenodd;fill:#00ADBB;}
	.st122{fill-rule:evenodd;clip-rule:evenodd;fill:#B4E7E9;}
	.st123{fill-rule:evenodd;clip-rule:evenodd;fill:#007565;}
	.st124{fill-rule:evenodd;clip-rule:evenodd;fill:#00CE7C;}
	.st125{fill-rule:evenodd;clip-rule:evenodd;fill:#5FD896;}
	.st126{fill:#007DA5;}
	.st127{fill:#313032;}
	.st128{fill:#24272A;}
	.st129{fill:#00AFAA;}
	.st130{fill:#66C9BA;}
	.st131{fill:#0069A7;}
	.st132{fill:#002F87;}
	.st133{fill:#8BC53F;}
	.st134{fill:#1A1A1A;}
	.st135{fill:#0095D6;}
	.st136{fill:#003F5F;}
	.st137{fill:#2D317C;}
	.st138{fill:#41BFBF;}
	.st139{fill:#293C97;}
	.st140{fill:#52C2BD;}
	.st141{fill:url(#SVGID_134_);}
	.st142{fill:url(#SVGID_135_);}
	.st143{fill:url(#SVGID_136_);}
	.st144{fill:#0DBEEA;}
	.st145{fill:#097EC2;}
	.st146{fill:#133C63;}
	.st147{fill:#3B91CF;}
	.st148{fill:#C8DEE8;}
	.st149{fill:#629BBA;}
	.st150{fill:#F8BE19;}
	.st151{fill:url(#SVGID_137_);}
	.st152{fill:url(#SVGID_138_);}
	.st153{fill:url(#SVGID_139_);}
	.st154{fill:#00233B;}
	.st155{fill:url(#SVGID_140_);}
	.st156{fill:url(#SVGID_141_);}
	.st157{fill:url(#SVGID_142_);}
	.st158{fill:url(#SVGID_143_);}
	.st159{fill:url(#SVGID_144_);}
	.st160{fill:url(#SVGID_145_);}
	.st161{fill:url(#SVGID_146_);}
	.st162{fill:url(#SVGID_147_);}
	.st163{fill:url(#SVGID_148_);}
	.st164{fill:url(#SVGID_149_);}
	.st165{fill:url(#SVGID_150_);}
	.st166{fill:url(#SVGID_151_);}
	.st167{fill:url(#SVGID_152_);}
	.st168{fill:url(#SVGID_153_);}
	.st169{fill:url(#SVGID_154_);}
	.st170{fill:url(#SVGID_155_);}
	.st171{fill:url(#SVGID_156_);}
	.st172{fill:url(#SVGID_157_);}
	.st173{fill:url(#SVGID_158_);}
	.st174{fill:url(#SVGID_159_);}
	.st175{fill:url(#SVGID_160_);}
	.st176{fill:url(#SVGID_161_);}
	.st177{fill:url(#SVGID_162_);}
	.st178{fill:url(#SVGID_163_);}
	.st179{fill:url(#SVGID_164_);}
	.st180{fill:url(#SVGID_165_);}
	.st181{fill:url(#SVGID_166_);}
	.st182{fill:url(#SVGID_167_);}
	.st183{fill:url(#SVGID_168_);}
	.st184{fill:url(#SVGID_169_);}
	.st185{fill:url(#SVGID_170_);}
	.st186{fill:url(#SVGID_171_);}
	.st187{fill:url(#SVGID_172_);}
	.st188{fill:url(#SVGID_173_);}
	.st189{fill:url(#SVGID_174_);}
	.st190{fill:url(#SVGID_175_);}
	.st191{fill:url(#SVGID_176_);}
	.st192{fill:url(#SVGID_177_);}
	.st193{fill:url(#SVGID_178_);}
	.st194{fill:#C31230;}
	.st195{fill:#807F82;}
	.st196{fill-rule:evenodd;clip-rule:evenodd;fill:#C31230;}
	.st197{fill-rule:evenodd;clip-rule:evenodd;fill:#807F82;}
	.st198{fill:#2D2D2D;}
	.st199{display:none;fill:#2D2D2D;}
	.st200{fill:#D11F3C;}
	.st201{fill:#E42C4C;stroke:#E42C4C;stroke-width:1.0503;stroke-miterlimit:10;}
	.st202{display:none;fill:#231F20;}
	.st203{display:none;fill:#FFFFFF;}
	.st204{fill:#FF7F30;}
	.st205{opacity:0.3;fill:#FF7F30;}
	.st206{opacity:0.6;fill:#FF7F30;}
	.st207{opacity:0.7;fill:#FF7F30;}
	.st208{fill:#221C35;}
	.st209{fill:#1B98D5;}
	.st210{fill:#173963;}
	.st211{fill:#009ADE;}
	.st212{fill:#003764;}
	.st213{fill:#2A7DE1;}
	.st214{opacity:0.4;clip-path:url(#XMLID_324_);fill:#221F1F;}
	.st215{fill:#002A3A;}
	.st216{fill:#0033A1;}
	.st217{fill:url(#SVGID_179_);}
	.st218{fill:url(#SVGID_180_);}
	.st219{fill:url(#SVGID_181_);}
	.st220{fill:url(#SVGID_182_);}
	.st221{fill:#007EC4;}
	.st222{fill-rule:evenodd;clip-rule:evenodd;fill:url(#SVGID_183_);}
	.st223{fill-rule:evenodd;clip-rule:evenodd;fill:#E6E7E8;}
	.st224{fill:#009345;}
	.st225{fill:#FFFFFF;}
	.st226{fill:#FFFFFF;}
	.st227{fill:#939598;}
	.st228{fill-rule:evenodd;clip-rule:evenodd;fill:#2CB8EB;}
	.st229{fill:#2CB8EB;}
	.st230{fill:#81B83A;}
	.st231{fill-rule:evenodd;clip-rule:evenodd;fill:#81B83A;}
	.st232{enable-background:new    ;}
	.st233{fill:#FF6F3E;}
	.st234{fill:#12143D;}
	.st235{fill:url(#SVGID_184_);}
	.st236{fill:url(#SVGID_185_);}
	.st237{fill:url(#SVGID_186_);}
	.st238{fill:url(#SVGID_187_);}
	.st239{fill:url(#SVGID_188_);}
	.st240{fill:url(#SVGID_189_);}
	.st241{fill:url(#SVGID_190_);}
	.st242{fill:url(#SVGID_191_);}
	.st243{fill:url(#SVGID_192_);}
	.st244{fill:#7C51A0;}
	.st245{fill:#9F66A9;}
	.st246{fill:#9F80B9;}
	.st247{fill:url(#SVGID_193_);}
	.st248{fill:url(#SVGID_194_);}
	.st249{fill:url(#SVGID_195_);}
	.st250{fill:url(#SVGID_196_);}
	.st251{fill:#2D3136;}
	.st252{fill:#76777A;}
	.st253{fill:#A7A8A9;}
	.st254{fill:#0082CA;}
	.st255{fill:#FFB259;}
	.st256{fill:#385CAD;}
	.st257{fill:#7BA0C4;}
	.st258{fill:#EBA900;}
	.st259{fill:#929497;}
	.st260{opacity:0.7;fill:#FFFFFF;}
	.st261{fill:#016BAF;}
	.st262{fill:#343432;}
	.st263{fill:#6D6E70;}
	.st264{fill:#F4B01B;}
	.st265{fill:#293271;}
	.st266{fill:#A1D33C;}
	.st267{fill:#212322;}
	.st268{fill:#0047BA;}
	.st269{fill:#969CDE;}
	.st270{fill:#047BC1;}
	.st271{fill:url(#SVGID_197_);}
	.st272{fill:url(#SVGID_198_);}
	.st273{fill:url(#SVGID_199_);}
	.st274{fill:url(#SVGID_200_);}
	.st275{fill:url(#SVGID_201_);}
	.st276{fill:url(#SVGID_202_);}
	.st277{fill:url(#SVGID_203_);}
	.st278{fill:#13517C;}
	.st279{fill:#0077A6;}
	.st280{fill:none;stroke:#231F20;stroke-width:5.9036;stroke-miterlimit:10;}
	.st281{fill:#00A94F;}
	.st282{fill:none;stroke:#231F20;stroke-width:3.2172;stroke-miterlimit:10;}
	.st283{fill:#59595C;}
	.st284{opacity:0.349;fill:#F9AE19;}
	.st285{opacity:0.349;fill:#E99F22;}
	.st286{opacity:0.349;fill:#E47D25;}
	.st287{fill:#F9AE19;}
	.st288{fill:#E99F22;}
	.st289{fill:#F09B20;}
	.st290{fill:#E47D25;}
	.st291{fill:#E89223;}
	.st292{opacity:0.651;fill:#F9AE19;}
	.st293{fill:#E68825;}
	.st294{opacity:0.651;fill:#E99F22;}
	.st295{fill:#EB8D23;}
	.st296{opacity:0.7725;fill:#EF9B21;}
	.st297{opacity:0.651;fill:#E47D25;}
	.st298{opacity:0.7725;fill:#EA9622;}
	.st299{fill:url(#SVGID_204_);}
	.st300{fill:#55575B;}
	.st301{fill:#EE424E;}
	.st302{fill:#34424B;}
</style>
<g>
	<g>
		<path class="st225" d="M276.99,134.63v-0.37c0-29.44,21.8-54.59,51.61-54.59c29.62,0,51.42,24.59,51.42,54.22v0.37
			c0,29.44-21.98,54.59-51.79,54.59C298.6,188.85,276.99,164.25,276.99,134.63z M364.74,134.63v-0.37c0-22.36-15.84-40.8-36.7-40.8
			c-21.43,0-36.14,18.44-36.14,40.43v0.37c0,22.36,15.65,40.62,36.52,40.62C350.02,174.87,364.74,156.8,364.74,134.63z"/>
		<path class="st225" d="M396.97,88.8c0-4.47,3.17-7.83,7.27-7.83c4.29,0,7.45,3.35,7.45,7.83v14.16
			c8.01-12.48,19.75-23.29,37.82-23.29c23.66,0,47.14,19.75,47.14,54.22v0.37c0,34.09-23.29,54.4-47.14,54.4
			c-18.26,0-30.18-10.43-37.82-22.17v45.46c0,4.47-2.98,7.83-7.27,7.83c-4.29,0-7.45-3.35-7.45-7.83L396.97,88.8z M481.55,134.44
			v-0.37c0-24.59-16.02-40.43-34.84-40.43c-18.26,0-35.77,16.4-35.77,40.24v0.37c0,24.22,17.33,40.43,35.77,40.43
			C465.9,174.69,481.55,159.78,481.55,134.44z"/>
		<path class="st225" d="M557.57,188.85c-27.2,0-49.37-21.98-49.37-54.4v-0.37c0-30.18,20.12-54.4,47.32-54.4
			c29.25,0,45.83,25.34,45.83,52.91c0,4.29-3.17,7.27-6.89,7.27h-71.54c2.05,22.54,17.14,35.4,34.84,35.4
			c12.3,0,21.24-5.03,28.51-12.11c1.12-0.93,2.42-1.86,4.29-1.86c3.54,0,6.52,2.98,6.52,6.71c0,1.86-0.75,3.73-2.24,5.03
			C585.33,182.51,574.34,188.85,557.57,188.85z M586.63,128.48c-1.49-19-11.92-35.59-31.49-35.59c-17.14,0-30.18,15.09-32.05,35.59
			H586.63z"/>
		<path class="st225" d="M617.93,88.8c0-4.29,3.17-7.83,7.27-7.83c4.29,0,7.45,3.35,7.45,7.83v11.36
			c6.52-11.36,16.77-20.49,33.91-20.49c23.85,0,37.82,16.95,37.82,41.73v57.94c0,4.47-3.17,7.83-7.27,7.83
			c-4.29,0-7.45-3.35-7.45-7.83v-54.22c0-19.38-9.87-31.49-27.39-31.49c-16.95,0-29.62,13.04-29.62,32.79v52.91
			c0,4.47-2.98,7.83-7.27,7.83c-4.29,0-7.45-3.35-7.45-7.83L617.93,88.8L617.93,88.8z"/>
	</g>
	<g>
		<path class="st226" d="M740.9,139.1v49.19h-21.61V78.74h21.61v41.55h40.43V78.74h21.61v109.55h-21.61V139.1H740.9z"/>
		<path class="st226" d="M838.52,188.29h-21.61V78.74h47.32c20.12,0,32.23,13.6,32.23,35.03c0,9.87-5.22,34.84-32.98,34.84h-24.97
			V188.29z M858.65,129.79c16.21,0,16.21-12.11,16.21-17.14c0-10.62-5.59-15.09-19-15.09h-17.33v32.23L858.65,129.79L858.65,129.79z
			"/>
		<path class="st226" d="M971.92,114.69c-1.68-6.52-5.03-18.82-22.92-18.82c-10.43,0-25.71,7.27-25.71,38.19
			c0,19.75,7.27,37.26,25.71,37.26c11.92,0,20.31-7.08,22.92-20.49h21.61c-4.29,23.85-19,40.43-45.09,40.43
			c-27.57,0-47.32-19.75-47.32-57.57c0-38.19,20.87-57.76,47.7-57.76c30.93,0,43.6,22.54,44.71,38.75H971.92z"/>
	</g>
	<g>
		<path class="st226" d="M230.14,117.06c-7.55,0-13.77,6.21-13.77,13.77c0,50.69-41.18,91.87-91.87,91.87s-91.87-41.18-91.87-91.87
			s41.18-91.87,91.87-91.87c7.55,0,13.77-6.21,13.77-13.77s-6.21-13.77-13.77-13.77C58.71,11.43,5.1,64.92,5.1,130.71
			s53.49,119.4,119.4,119.4c65.79,0,119.4-53.49,119.4-119.4C243.9,123.28,237.69,117.06,230.14,117.06z"/>
		<path class="st225" d="M174.09,145.21c5.6,0,10.23-4.63,10.23-10.23s-4.63-10.23-10.23-10.23h-0.49v-14.01h0.49
			c5.6,0,10.23-4.63,10.23-10.23s-4.63-10.23-10.23-10.23H77.47c-5.6,0-10.23,4.63-10.23,10.23s4.63,10.23,10.23,10.23h0.49v13.89
			h-0.49c-5.6,0-10.23,4.63-10.23,10.23s4.63,10.23,10.23,10.23h0.49v13.89h-0.49c-5.6,0-10.23,4.63-10.23,10.23
			c0,5.6,4.63,10.23,10.23,10.23h96.62c5.6,0,10.23-4.63,10.23-10.23s-4.63-10.23-10.23-10.23h-0.49v-13.77H174.09z M170.31,124.74
			H142.9v-14.01h27.41V124.74z M112.19,124.74v-14.01h27.41v13.89h-27.41V124.74z M139.61,145.21v13.89h-27.41v-13.89H139.61z
			 M81.37,110.73h27.41v13.89H81.37V110.73z M81.37,145.21h27.41v13.89H81.37V145.21z M170.31,159.1H142.9v-13.89h27.41V159.1z"/>
	</g>
	<rect x="4.37" y="9.67" class="st86" width="991.26" height="240.87"/>
</g>
</svg>
