<?xml version="1.0" encoding="utf-8"?>
<svg xmlns="http://www.w3.org/2000/svg" viewBox="0 0 1536 768" width="1536" height="768">
  <defs>
    <radialGradient id="bgGrad" cx="50%" cy="60%" r="70%">
      <stop offset="0" stop-color="#0d2240"/>
      <stop offset="1" stop-color="#060e1f"/>
    </radialGradient>
    <radialGradient id="glowGrad" cx="50%" cy="50%" r="50%">
      <stop offset="0" stop-color="#00b4d8" stop-opacity="0.25"/>
      <stop offset="1" stop-color="#00b4d8" stop-opacity="0"/>
    </radialGradient>
    <linearGradient id="envGrad" x1="0%" y1="0%" x2="0%" y2="100%">
      <stop offset="0" stop-color="#1a3a5c"/>
      <stop offset="1" stop-color="#0f2540"/>
    </linearGradient>
    <linearGradient id="flapGrad" x1="0%" y1="0%" x2="0%" y2="100%">
      <stop offset="0" stop-color="#1e4570"/>
      <stop offset="1" stop-color="#163558"/>
    </linearGradient>
    <filter id="eshadow" x="-20%" y="-20%" width="140%" height="140%">
      <feDropShadow dx="0" dy="12" stdDeviation="30" flood-color="#00b4d8" flood-opacity="0.2"/>
    </filter>
    <clipPath id="ec">
      <rect x="368" y="375" width="800" height="310" rx="10"/>
    </clipPath>
  </defs>
  <rect width="1536" height="768" fill="url(#bgGrad)"/>
  <g opacity="0.45">
    <circle cx="80" cy="55" r="1.2" fill="white"/>
    <circle cx="210" cy="110" r="1.8" fill="white" opacity="0.6"/>
    <circle cx="60" cy="200" r="1.2" fill="white"/>
    <circle cx="1350" cy="45" r="1.8" fill="white" opacity="0.7"/>
    <circle cx="1430" cy="130" r="1.2" fill="white"/>
    <circle cx="1480" cy="250" r="1.5" fill="white" opacity="0.5"/>
    <circle cx="1300" cy="310" r="1.2" fill="white" opacity="0.4"/>
    <circle cx="180" cy="320" r="1.2" fill="white" opacity="0.5"/>
    <circle cx="40" cy="440" r="1.8" fill="white" opacity="0.3"/>
    <circle cx="1500" cy="550" r="1.2" fill="white" opacity="0.6"/>
    <circle cx="1100" cy="700" r="1.5" fill="white" opacity="0.4"/>
    <circle cx="260" cy="690" r="1.2" fill="white" opacity="0.3"/>
    <circle cx="500" cy="45" r="1.2" fill="white" opacity="0.5"/>
    <circle cx="760" cy="90" r="1.8" fill="white" opacity="0.6"/>
    <circle cx="1000" cy="55" r="1.2" fill="white" opacity="0.5"/>
    <circle cx="1200" cy="160" r="1" fill="white" opacity="0.4"/>
    <circle cx="350" cy="160" r="1" fill="white" opacity="0.4"/>
    <circle cx="900" cy="700" r="1.2" fill="white" opacity="0.3"/>
    <circle cx="650" cy="730" r="1" fill="white" opacity="0.3"/>
  </g>
  <ellipse cx="768" cy="530" rx="500" ry="280" fill="url(#glowGrad)"/>
  <g stroke="#1a3a5c" stroke-width="0.5" opacity="0.25">
    <line x1="0" y1="150" x2="1536" y2="150"/>
    <line x1="0" y1="300" x2="1536" y2="300"/>
    <line x1="0" y1="450" x2="1536" y2="450"/>
    <line x1="0" y1="600" x2="1536" y2="600"/>
    <line x1="0" y1="750" x2="1536" y2="750"/>
  </g>
  <g filter="url(#eshadow)">
    <rect x="368" y="375" width="800" height="310" rx="10" fill="url(#envGrad)" stroke="#1e4a72" stroke-width="2"/>
    <g clip-path="url(#ec)" opacity="0.15">
      <line x1="420" y1="480" x2="1148" y2="480" stroke="#00b4d8" stroke-width="1.2"/>
      <line x1="420" y1="510" x2="1148" y2="510" stroke="#00b4d8" stroke-width="1.2"/>
      <line x1="420" y1="540" x2="980" y2="540" stroke="#00b4d8" stroke-width="1.2"/>
    </g>
    <path d="M368 685 L768 520 L1168 685" fill="#0d2a45" opacity="0.5"/>
    <path d="M368 375 L768 305 L1168 375" fill="url(#flapGrad)" stroke="#1e4a72" stroke-width="2"/>
    <line x1="368" y1="375" x2="1168" y2="375" stroke="#00b4d8" stroke-width="1" opacity="0.4"/>
    <line x1="368" y1="685" x2="768" y2="520" stroke="#1e4a72" stroke-width="1.2" opacity="0.5"/>
    <line x1="1168" y1="685" x2="768" y2="520" stroke="#1e4a72" stroke-width="1.2" opacity="0.5"/>
    <circle cx="1090" cy="425" r="34" fill="none" stroke="#00b4d8" stroke-width="1.2" opacity="0.4"/>
    <circle cx="1090" cy="425" r="24" fill="#0d2240" stroke="#00b4d8" stroke-width="1" opacity="0.5"/>
    <text x="1090" y="432" text-anchor="middle" font-family="monospace" font-size="14" fill="#00b4d8" opacity="0.75" font-weight="bold" style="white-space: pre;">AL</text>
  </g>
  <text x="768" y="88" text-anchor="middle" font-family="'Segoe UI', Arial, sans-serif" font-size="16" fill="#00b4d8" letter-spacing="6" opacity="0.85" font-weight="500" style="white-space: pre;">STAY IN THE LOOP</text>
  <text x="768" y="148" text-anchor="middle" font-family="'Segoe UI', Arial, sans-serif" font-size="52" fill="white" font-weight="700" letter-spacing="0.5" style="white-space: pre;">The AlmaLinux Newsletter</text>
  <text x="768" y="200" text-anchor="middle" font-family="'Segoe UI', Arial, sans-serif" font-size="22" fill="#8ab4cc" letter-spacing="0.3" style="white-space: pre;">Updates, releases &amp; community news — delivered free.</text>
  <line x1="568" y1="222" x2="968" y2="222" stroke="#00b4d8" stroke-width="1" opacity="0.3"/>
</svg>