<?xml version="1.0" encoding="UTF-8" standalone="no"?>
<svg
   width="512"
   height="512"
   version="1.1"
   id="svg1"
   sodipodi:docname="9to5linux.svg"
   xmlns:inkscape="http://www.inkscape.org/namespaces/inkscape"
   xmlns:sodipodi="http://sodipodi.sourceforge.net/DTD/sodipodi-0.dtd"
   xmlns="http://www.w3.org/2000/svg"
   xmlns:svg="http://www.w3.org/2000/svg">
  <sodipodi:namedview
     id="namedview1"
     pagecolor="#ffffff"
     bordercolor="#000000"
     borderopacity="0.25"
     inkscape:showpageshadow="2"
     inkscape:pageopacity="0.0"
     inkscape:pagecheckerboard="0"
     inkscape:deskcolor="#d1d1d1">
    <inkscape:page
       x="0"
       y="0"
       width="512"
       height="512"
       id="page2"
       margin="0"
       bleed="0" />
  </sodipodi:namedview>
  <defs
     id="defs1">
    <filter
       id="a"
       width="1"
       height="1"
       x="0"
       y="0">
      <feDropShadow
         dx="4"
         dy="4"
         flood-color="#000"
         flood-opacity=".5"
         stdDeviation="4" />
    </filter>
  </defs>
  <ellipse
     cx="258.70801"
     cy="257.28201"
     fill="#ff4f4f"
     stroke="#ffffff"
     stroke-width="4.404"
     rx="69.077003"
     ry="71.760002"
     id="ellipse1"
     style="fill:#ff4f4f;fill-opacity:0" />
  <path
     fill="#ffffff"
     d="m 103.997,246.499 q 0.105,0.597 0.21,0.913 0.106,0.281 0.352,0.632 0.281,0.352 0.738,0.492 0.492,0.14 1.23,0.14 0.948,0 1.686,-0.35 0.737,-0.352 1.23,-0.808 0.491,-0.492 0.842,-1.37 0.387,-0.914 0.562,-1.546 0.211,-0.633 0.352,-1.792 0.175,-1.16 0.21,-1.686 0.036,-0.527 0.106,-1.651 -3.76,2.248 -8.783,2.248 -2.88,0 -5.585,-0.562 -2.705,-0.562 -5.235,-1.827 -2.494,-1.264 -4.39,-3.091 -1.863,-1.827 -2.987,-4.567 -1.124,-2.775 -1.124,-6.113 0,-4.075 1.37,-7.412 1.405,-3.337 3.724,-5.55 2.318,-2.214 5.41,-3.724 3.092,-1.51 6.358,-2.178 3.266,-0.668 6.675,-0.668 5.691,0 10.328,1.968 4.637,1.968 7.694,5.515 3.091,3.513 4.742,8.431 1.686,4.883 1.686,10.715 0,13.208 -5.41,20.726 -1.862,2.775 -4.707,4.708 -2.81,1.897 -6.078,2.81 -3.231,0.913 -6.042,1.265 -2.775,0.351 -5.726,0.351 -7.94,0 -12.787,-4.216 -2.565,-1.932 -3.83,-5.129 -1.229,-3.196 -1.229,-6.744 l 1.265,-1.546 h 15.878 q 0.598,0 0.914,0.492 0.351,0.491 0.351,1.124 m -3.794,-21.078 q 0.281,3.267 1.686,5.023 1.44,1.722 4.356,1.722 5.621,0 5.621,-7.026 0,-1.581 -0.246,-2.81 -0.21,-1.23 -0.808,-2.354 -0.562,-1.16 -1.721,-1.792 -1.159,-0.632 -2.846,-0.632 -1.65,0 -2.88,0.702 -1.23,0.668 -1.897,1.862 -0.668,1.16 -0.984,2.495 -0.281,1.3 -0.281,2.81 m 32.46,-0.843 V 211.93 h 40.891 q 0.562,0.105 0.703,0.457 0.14,0.316 0.14,0.948 v 11.242 q -0.07,0.843 -0.983,0.843 h -9.977 v 32.32 q 0,0.034 -0.035,0.175 -0.035,0.141 -0.036,0.176 0,0.035 -0.035,0.14 -0.035,0.105 -0.07,0.14 -0.035,0.035 -0.07,0.141 -0.035,0.07 -0.106,0.106 -0.035,0 -0.14,0.07 -0.07,0.035 -0.176,0.07 -0.07,0.035 -0.21,0.07 -0.106,0 -0.246,0.036 h -2.249 q -4.496,0 -4.496,-0.281 -0.281,0 -0.844,0.035 -0.563,0.035 -0.843,0.035 h -2.81 q -0.808,0 -2.319,0.035 -1.475,0.035 -2.318,0.035 h -1.967 l -1.406,-0.984 v -7.588 q 0.035,-2.037 0.281,-8.712 0.281,-6.675 0.281,-10.539 v -0.913 q 0,-0.281 0.036,-0.878 0.035,-0.598 0.035,-0.879 0,-0.316 -0.035,-1.264 -0.036,-0.984 -0.036,-1.265 h -8.782 q -0.773,0 -1.475,-0.246 -0.703,-0.281 -0.703,-0.878 z m 42.156,10.117 -0.07,-0.773 q 0.667,-5.726 1.264,-7.974 1.37,-5.27 4.918,-8.818 l 0.843,-0.843 q 1.687,-1.967 5.13,-3.372 h 1.334 q 3.443,-1.44 11.312,-2.67 1.967,0 4.11,0.316 2.178,0.281 4.813,0.984 2.635,0.667 5.059,2.178 2.459,1.475 4.075,3.548 v 0.983 q 5.761,7.202 5.761,16.16 0,10.082 -4.637,16.44 l -1.405,1.757 q -1.616,2.003 -4.04,3.443 -2.389,1.44 -5.094,2.213 -2.705,0.738 -5.2,1.054 -2.458,0.316 -4.917,0.316 -3.619,0 -6.921,-0.843 -3.267,-0.878 -6.148,-2.705 -2.845,-1.827 -5.023,-4.496 -2.178,-2.669 -3.548,-6.43 -1.335,-3.793 -1.616,-8.36 z m 19.321,0.281 q 0,12.366 4.707,12.366 1.3,0 2.249,-0.492 0.983,-0.492 1.58,-1.51 0.598,-1.02 0.984,-2.073 0.387,-1.054 0.527,-2.635 0.176,-1.58 0.211,-2.775 0.07,-1.195 0.07,-2.88 v -1.265 q 0,-1.827 -0.21,-3.513 -0.211,-1.687 -0.738,-3.373 -0.492,-1.721 -1.546,-2.74 -1.054,-1.054 -2.564,-1.054 -5.27,0 -5.27,10.399 z m 33.444,11.101 q 0,-0.773 1.054,-1.019 1.089,-0.245 3.161,-0.245 h 5.761 q 1.546,0 4.567,0.105 3.021,0.105 4.708,0.105 0.597,0.07 0.878,0.668 0.316,0.597 0.422,1.264 0.105,0.668 0.562,1.23 0.456,0.562 1.37,0.562 3.513,0 3.513,-5.902 0,-1.264 -0.106,-2.178 -0.105,-0.948 -0.421,-1.967 -0.316,-1.019 -1.054,-1.546 -0.703,-0.562 -1.792,-0.562 -1.264,0 -1.862,0.633 -0.562,0.632 -0.597,1.405 -0.035,0.773 -0.386,1.405 -0.351,0.632 -1.23,0.632 h -15.597 q -1.054,-1.51 -1.054,-4.286 v -26.206 q 0,-0.879 0.035,-1.3 0.035,-0.457 0.21,-1.054 0.211,-0.597 0.598,-1.019 h 38.642 q 0.738,0 1.37,0.316 0.668,0.316 0.809,0.879 v 7.517 q 0,3.83 -0.211,4.602 -0.176,0.738 -1.265,0.738 -7.588,0 -22.202,0.14 -0.105,1.054 -0.246,3.197 -0.14,2.143 -0.246,3.197 1.757,-1.264 4.497,-1.967 2.74,-0.703 5.41,-0.703 7.799,0 12.506,4.778 4.707,4.742 4.707,12.225 0,4.426 -1.405,7.975 -1.37,3.548 -3.653,5.831 -2.283,2.283 -5.41,3.83 -3.092,1.51 -6.359,2.142 -3.267,0.668 -6.78,0.668 -2.353,0 -4.426,-0.176 -2.038,-0.176 -4.286,-0.632 -2.248,-0.457 -4.11,-1.23 -1.862,-0.738 -3.654,-1.967 -1.756,-1.265 -3.056,-2.88 -1.265,-1.652 -2.178,-4.006 -0.913,-2.354 -1.194,-5.199 m 52.765,-32.881 q 0,-5.726 1.194,-6.394 0.351,0.07 0.984,0.07 h 1.124 q 1.089,0 3.583,-0.07 2.494,-0.07 3.794,-0.07 4.988,0 8.045,0.421 3.091,0.387 3.478,1.476 l -0.422,36.254 h 0.773 q 2.81,-0.14 3.934,-0.106 1.125,0 4.11,0.14 3.022,0.106 5.797,0.106 2.283,0 3.372,0.281 1.125,0.246 1.125,1.054 v 13.49 q -0.457,1.265 -15.668,1.265 h -24.31 q -0.843,-1.23 -0.843,-3.935 v -9.977 q 0,-4.39 0.07,-12.998 0.07,-8.606 0.07,-12.998 0,-0.808 -0.105,-3.583 -0.105,-2.775 -0.105,-4.426 m 43.35,45.598 v -46.16 q 0.035,-0.281 0.562,-0.492 0.527,-0.246 0.632,-0.351 h 18.9 v 45.739 q -0.176,0.737 -0.351,1.018 -0.14,0.246 -0.492,0.246 z m 73.35,-47.003 q 0.422,0.14 0.633,1.23 0.246,1.053 0.281,2.669 0.035,1.616 0,3.091 -0.035,1.476 -0.105,3.022 -0.035,1.545 -0.035,1.932 -0.07,1.405 -0.07,3.934 v 3.724 q 0,2.46 0.07,6.745 0.07,4.285 0.07,6.323 v 12.788 q -0.14,1.194 -1.967,1.194 h -19.673 q -0.632,-0.14 -1.616,-2.951 -0.667,-1.862 -2.248,-6.113 -1.546,-4.25 -2.67,-7.447 -1.124,-3.232 -2.038,-6.253 v -0.211 0.21 q -0.105,2.32 -0.21,6.921 -0.106,4.567 -0.211,6.85 v 7.167 q 0,1.054 -0.246,1.476 -0.246,0.386 -1.3,0.632 h -14.473 l -1.546,-1.546 q 0.175,-5.831 0.28,-18.267 0.105,-12.436 0.282,-18.408 v -7.588 q 0.351,-1.265 0.843,-1.265 v 0.14 q 2.389,0 7.483,-0.14 5.129,-0.14 7.693,-0.14 h 5.902 q 0.035,0 0.105,0.035 0.633,0.246 0.703,0.562 l 0.035,0.246 q 1.265,3.407 2.564,7.06 1.3,3.654 3.092,8.853 1.792,5.164 2.494,7.132 v -5.2 q 0.703,-12.365 0.703,-17.564 0,-0.562 0.773,-0.703 0.772,-0.14 2.388,-0.14 z m 7.589,8.22 q -0.14,-0.703 -0.14,-4.005 0,-3.794 0.702,-4.496 h 19.11 v 29.509 q 0,4.566 2.67,4.566 1.124,0 1.862,-0.983 0.738,-1.019 0.738,-2.389 v -5.2 q 0.21,-15.386 0.21,-15.527 0,-6.112 -0.14,-8.852 0,-0.984 0.984,-1.406 h 19.532 v 5.48 q -0.457,13.315 -0.562,17.144 v 2.178 q 0,0.422 -0.035,1.124 -0.035,0.702 -0.035,0.984 0,1.194 0.07,1.686 v 2.74 q 0,4.883 -0.984,7.026 v 0.14 q -1.124,2.635 -3.232,4.568 -2.107,1.897 -4.812,2.986 -2.705,1.054 -5.55,1.545 -2.846,0.457 -6.008,0.457 -0.984,0 -1.476,-0.21 h -0.843 q 0,0.35 -1.054,0.35 v 0.07 q -0.772,0.036 -4.496,-0.35 h -1.616 q -2.213,-0.246 -4.286,-0.984 -2.037,-0.738 -3.97,-2.073 -1.932,-1.37 -3.407,-3.232 -1.44,-1.862 -2.354,-4.531 -0.913,-2.67 -1.019,-5.832 0.035,-1.827 0,-5.059 0,-3.232 0.035,-5.866 0.036,-2.67 0.176,-5.164 v -0.984 q 0,-0.176 0.035,-0.562 0.035,-0.386 0.035,-0.562 0,-0.527 -0.07,-1.581 -0.07,-1.054 -0.07,-1.58 v -1.195 z m 46.476,37.308 14.614,-22.624 -12.962,-20.516 0.456,-1.194 q -0.035,-0.035 -0.351,-0.21 -0.281,-0.176 -0.281,-0.282 0,-0.457 0.703,-0.843 h 1.897 q 4.145,0 6.323,-0.07 h 2.108 q 2.072,0 4.075,0.21 h 1.405 q 0.316,0 0.984,0.036 0.668,0.036 0.983,0.035 0.176,0 0.492,-0.035 0.316,-0.035 0.492,-0.035 0.421,0.105 0.667,0.456 0.246,0.316 0.457,0.914 0.21,0.597 0.281,0.737 0.176,0.387 0.843,1.897 0.668,1.476 0.984,2.319 v -0.07 q 0.246,0.456 0.632,1.335 l 0.562,1.124 1.195,2.459 q 0.105,0.175 0.14,0.316 0.035,0.14 0.14,0.316 0.352,-0.843 3.162,-6.885 l 1.195,-2.39 q 1.194,-2.388 1.686,-2.388 h 17.003 q 0.456,0.176 0.913,0.246 0.457,0.035 0.597,0.105 0.14,0.035 0.211,0.316 0.106,0.282 0.106,0.949 l -1.546,2.319 q -2.46,3.548 -6.71,10.257 -4.216,6.675 -5.586,8.783 l 14.333,22.413 q 0,0.773 -0.562,1.054 -0.527,0.28 -1.545,0.28 h -18.62 q -0.772,-1.58 -2.74,-5.796 -1.931,-4.215 -3.02,-6.358 -0.282,0.562 -1.37,2.95 -1.054,2.39 -1.792,3.9 -0.738,1.475 -1.827,3.162 -1.054,1.65 -1.897,2.143 -1.265,0 -3.689,-0.035 -2.388,-0.036 -3.618,-0.036 h -1.265 q -0.808,0 -2.74,-0.07 -1.897,-0.07 -2.88,-0.07 h -3.373 q -1.265,-0.422 -1.265,-1.124"
     filter="url(#a)"
     transform="matrix(1.18038,0,0,1.3044,-91.438,-52.365)"
     id="path1" />
</svg>
