<?xml version="1.0" encoding="utf-8"?>
<svg width="100%" height="100%" viewBox="0 0 900 500" version="1.1" xmlns="http://www.w3.org/2000/svg" style="fill-rule:evenodd;clip-rule:evenodd;stroke-linejoin:round;stroke-miterlimit:2;">
  <g transform="matrix(1.413414, 0, 0, 1.413414, -191.179947, -302.794464)" style="">
    <g transform="matrix(1.5053,0,0,1.5053,-31.3307,-28.5353)">
      <g transform="matrix(50,0,0,50,141.104,370.354)">
        <path d="M0.142,-0C0.129,-0 0.119,-0.004 0.11,-0.013C0.101,-0.022 0.097,-0.032 0.097,-0.045L0.097,-0.652C0.097,-0.665 0.101,-0.676 0.11,-0.685C0.119,-0.694 0.129,-0.698 0.142,-0.698L0.343,-0.698C0.419,-0.698 0.484,-0.681 0.537,-0.648C0.59,-0.614 0.629,-0.57 0.656,-0.517C0.683,-0.464 0.696,-0.408 0.696,-0.349C0.696,-0.29 0.683,-0.234 0.656,-0.181C0.629,-0.128 0.59,-0.084 0.537,-0.051C0.484,-0.017 0.419,-0 0.343,-0L0.142,-0ZM0.332,-0.085C0.387,-0.085 0.435,-0.096 0.476,-0.119C0.517,-0.141 0.549,-0.172 0.572,-0.212C0.595,-0.251 0.606,-0.297 0.606,-0.349C0.606,-0.401 0.595,-0.447 0.572,-0.487C0.549,-0.526 0.517,-0.557 0.476,-0.58C0.435,-0.602 0.387,-0.613 0.332,-0.613L0.188,-0.613L0.188,-0.085L0.332,-0.085Z" style="fill:white;fill-rule:nonzero;stroke:white;stroke-width:0.02px;"/>
      </g>
      <g transform="matrix(50,0,0,50,177.704,370.354)">
        <path d="M0.307,0.01C0.226,0.01 0.162,-0.013 0.117,-0.06C0.071,-0.106 0.048,-0.171 0.048,-0.255C0.048,-0.302 0.057,-0.346 0.074,-0.386C0.091,-0.426 0.118,-0.458 0.154,-0.483C0.19,-0.508 0.234,-0.52 0.287,-0.52C0.336,-0.52 0.379,-0.509 0.415,-0.486C0.451,-0.462 0.478,-0.432 0.497,-0.394C0.516,-0.355 0.525,-0.313 0.525,-0.268C0.525,-0.255 0.521,-0.245 0.513,-0.236C0.504,-0.227 0.493,-0.223 0.479,-0.223L0.14,-0.223C0.145,-0.176 0.163,-0.14 0.192,-0.114C0.221,-0.088 0.262,-0.075 0.315,-0.075C0.343,-0.075 0.368,-0.078 0.389,-0.083C0.409,-0.088 0.43,-0.096 0.45,-0.106C0.455,-0.109 0.461,-0.11 0.468,-0.11C0.479,-0.11 0.488,-0.106 0.496,-0.099C0.504,-0.092 0.508,-0.082 0.508,-0.071C0.508,-0.056 0.499,-0.044 0.482,-0.034C0.456,-0.019 0.43,-0.008 0.405,-0.001C0.38,0.006 0.347,0.01 0.307,0.01ZM0.435,-0.297C0.433,-0.33 0.425,-0.357 0.41,-0.379C0.395,-0.401 0.376,-0.417 0.354,-0.428C0.332,-0.438 0.31,-0.443 0.287,-0.443C0.264,-0.443 0.242,-0.438 0.22,-0.428C0.198,-0.417 0.18,-0.401 0.165,-0.379C0.15,-0.357 0.142,-0.33 0.14,-0.297L0.435,-0.297Z" style="fill:white;fill-rule:nonzero;stroke:white;stroke-width:0.02px;"/>
      </g>
      <g transform="matrix(50,0,0,50,205.754,370.354)">
        <path d="M0.26,0.005C0.248,0.005 0.237,0.002 0.227,-0.006C0.217,-0.012 0.21,-0.021 0.205,-0.032L0.031,-0.448C0.028,-0.456 0.026,-0.463 0.026,-0.469C0.026,-0.482 0.03,-0.493 0.039,-0.502C0.048,-0.511 0.058,-0.515 0.071,-0.515C0.08,-0.515 0.088,-0.513 0.096,-0.508C0.103,-0.503 0.109,-0.496 0.112,-0.489L0.265,-0.101L0.418,-0.489C0.421,-0.496 0.427,-0.503 0.435,-0.508C0.442,-0.513 0.45,-0.515 0.459,-0.515C0.472,-0.515 0.482,-0.511 0.491,-0.502C0.5,-0.493 0.504,-0.482 0.504,-0.469C0.504,-0.463 0.502,-0.456 0.499,-0.448L0.325,-0.032C0.32,-0.021 0.313,-0.012 0.303,-0.006C0.293,0.002 0.282,0.005 0.27,0.005L0.26,0.005Z" style="fill:white;fill-rule:nonzero;stroke:white;stroke-width:0.02px;"/>
      </g>
      <g transform="matrix(50,0,0,50,231.804,370.354)">
        <path d="M0.142,0.005C0.129,0.005 0.119,0.001 0.11,-0.008C0.101,-0.017 0.097,-0.027 0.097,-0.04L0.097,-0.657C0.097,-0.67 0.101,-0.681 0.11,-0.69C0.119,-0.699 0.129,-0.703 0.142,-0.703C0.155,-0.703 0.166,-0.699 0.175,-0.69C0.184,-0.681 0.188,-0.67 0.188,-0.657L0.188,-0.04C0.188,-0.027 0.184,-0.017 0.175,-0.008C0.166,0.001 0.155,0.005 0.142,0.005Z" style="fill:white;fill-rule:nonzero;stroke:white;stroke-width:0.02px;"/>
      </g>
      <g transform="matrix(50,0,0,50,246.054,370.354)">
        <path d="M0.304,0.005C0.291,0.005 0.281,0.001 0.272,-0.008C0.263,-0.017 0.259,-0.027 0.259,-0.04L0.259,-0.613L0.055,-0.613C0.043,-0.613 0.033,-0.617 0.025,-0.625C0.017,-0.633 0.013,-0.643 0.013,-0.655C0.013,-0.667 0.017,-0.677 0.025,-0.686C0.033,-0.694 0.043,-0.698 0.055,-0.698L0.553,-0.698C0.565,-0.698 0.575,-0.694 0.584,-0.686C0.592,-0.677 0.596,-0.667 0.596,-0.655C0.596,-0.643 0.592,-0.633 0.584,-0.625C0.575,-0.617 0.565,-0.613 0.553,-0.613L0.35,-0.613L0.35,-0.04C0.35,-0.027 0.346,-0.017 0.337,-0.008C0.328,0.001 0.317,0.005 0.304,0.005Z" style="fill:white;fill-rule:nonzero;stroke:white;stroke-width:0.02px;"/>
      </g>
      <g transform="matrix(50,0,0,50,276.504,370.354)">
        <path d="M0.168,0.01C0.119,0.01 0.075,-0.001 0.035,-0.024C0.02,-0.033 0.013,-0.045 0.013,-0.061C0.013,-0.072 0.017,-0.081 0.024,-0.09C0.031,-0.098 0.04,-0.102 0.051,-0.102C0.058,-0.102 0.064,-0.101 0.069,-0.098C0.1,-0.083 0.131,-0.076 0.162,-0.076C0.198,-0.076 0.227,-0.086 0.25,-0.107C0.272,-0.128 0.283,-0.167 0.283,-0.224L0.283,-0.657C0.283,-0.67 0.287,-0.681 0.296,-0.69C0.305,-0.699 0.315,-0.703 0.328,-0.703C0.341,-0.703 0.352,-0.699 0.361,-0.69C0.37,-0.681 0.374,-0.67 0.374,-0.657L0.374,-0.23C0.374,-0.143 0.355,-0.081 0.316,-0.045C0.277,-0.008 0.227,0.01 0.168,0.01Z" style="fill:white;fill-rule:nonzero;stroke:white;stroke-width:0.02px;"/>
      </g>
      <g transform="matrix(50,0,0,50,299.804,370.354)">
        <path d="M0.304,0.01C0.253,0.01 0.208,-0.001 0.169,-0.023C0.13,-0.045 0.1,-0.076 0.08,-0.117C0.058,-0.157 0.048,-0.203 0.048,-0.255C0.048,-0.307 0.058,-0.353 0.08,-0.394C0.1,-0.434 0.13,-0.465 0.169,-0.487C0.208,-0.509 0.253,-0.52 0.304,-0.52C0.355,-0.52 0.399,-0.509 0.438,-0.487C0.477,-0.465 0.507,-0.434 0.528,-0.394C0.549,-0.353 0.56,-0.307 0.56,-0.255C0.56,-0.203 0.549,-0.157 0.528,-0.117C0.507,-0.076 0.477,-0.045 0.438,-0.023C0.399,-0.001 0.355,0.01 0.304,0.01ZM0.304,-0.073C0.331,-0.073 0.358,-0.079 0.383,-0.092C0.407,-0.105 0.428,-0.125 0.445,-0.152C0.461,-0.179 0.469,-0.214 0.469,-0.256C0.469,-0.297 0.461,-0.332 0.445,-0.359C0.428,-0.386 0.407,-0.406 0.383,-0.419C0.358,-0.431 0.331,-0.437 0.304,-0.437C0.276,-0.437 0.25,-0.431 0.225,-0.419C0.2,-0.406 0.179,-0.386 0.163,-0.359C0.147,-0.332 0.139,-0.297 0.139,-0.256C0.139,-0.214 0.147,-0.179 0.163,-0.152C0.179,-0.125 0.2,-0.105 0.225,-0.092C0.25,-0.079 0.276,-0.073 0.304,-0.073Z" style="fill:white;fill-rule:nonzero;stroke:white;stroke-width:0.02px;"/>
      </g>
      <g transform="matrix(50,0,0,50,330.204,370.354)">
        <path d="M0.341,0.01C0.276,0.01 0.219,-0.015 0.17,-0.066L0.17,-0.04C0.17,-0.027 0.166,-0.017 0.157,-0.008C0.148,0.001 0.137,0.005 0.124,0.005C0.111,0.005 0.101,0.001 0.092,-0.008C0.083,-0.017 0.079,-0.027 0.079,-0.04L0.079,-0.689C0.079,-0.702 0.083,-0.713 0.092,-0.722C0.101,-0.731 0.111,-0.735 0.124,-0.735C0.137,-0.735 0.148,-0.731 0.157,-0.722C0.166,-0.713 0.17,-0.702 0.17,-0.689L0.17,-0.444C0.219,-0.495 0.276,-0.52 0.341,-0.52C0.382,-0.52 0.422,-0.509 0.459,-0.489C0.496,-0.468 0.526,-0.437 0.549,-0.397C0.572,-0.356 0.583,-0.309 0.583,-0.255C0.583,-0.201 0.572,-0.154 0.549,-0.114C0.526,-0.073 0.496,-0.043 0.459,-0.022C0.422,-0.001 0.382,0.01 0.341,0.01ZM0.328,-0.075C0.377,-0.075 0.417,-0.091 0.447,-0.122C0.477,-0.153 0.492,-0.198 0.492,-0.255C0.492,-0.312 0.477,-0.357 0.447,-0.388C0.417,-0.419 0.377,-0.435 0.328,-0.435C0.297,-0.435 0.269,-0.428 0.242,-0.415C0.215,-0.401 0.191,-0.383 0.17,-0.36L0.17,-0.15C0.191,-0.127 0.215,-0.109 0.242,-0.096C0.269,-0.082 0.297,-0.075 0.328,-0.075Z" style="fill:white;fill-rule:nonzero;stroke:white;stroke-width:0.02px;"/>
      </g>
      <g transform="matrix(50,0,0,50,361.754,370.354)">
        <path d="M0.244,0.01C0.177,0.01 0.117,-0.005 0.062,-0.035C0.051,-0.043 0.045,-0.054 0.045,-0.068C0.045,-0.079 0.049,-0.088 0.056,-0.096C0.063,-0.104 0.073,-0.108 0.084,-0.108C0.09,-0.108 0.096,-0.107 0.102,-0.104C0.123,-0.095 0.145,-0.087 0.166,-0.082C0.187,-0.077 0.211,-0.074 0.238,-0.074C0.312,-0.074 0.349,-0.098 0.349,-0.145C0.349,-0.16 0.341,-0.172 0.324,-0.18C0.307,-0.188 0.279,-0.197 0.24,-0.207C0.201,-0.216 0.168,-0.226 0.143,-0.236C0.117,-0.246 0.095,-0.261 0.077,-0.282C0.058,-0.302 0.049,-0.329 0.049,-0.362C0.049,-0.409 0.066,-0.447 0.1,-0.476C0.133,-0.505 0.181,-0.52 0.244,-0.52C0.295,-0.52 0.344,-0.512 0.389,-0.495C0.398,-0.492 0.406,-0.487 0.411,-0.48C0.416,-0.473 0.418,-0.465 0.418,-0.457C0.418,-0.446 0.414,-0.437 0.407,-0.429C0.399,-0.421 0.389,-0.417 0.378,-0.417C0.375,-0.417 0.37,-0.418 0.365,-0.419C0.326,-0.431 0.288,-0.437 0.251,-0.437C0.215,-0.437 0.187,-0.431 0.167,-0.418C0.146,-0.405 0.136,-0.388 0.136,-0.367C0.136,-0.347 0.145,-0.332 0.164,-0.323C0.183,-0.314 0.212,-0.305 0.251,-0.296C0.29,-0.286 0.322,-0.276 0.347,-0.267C0.372,-0.257 0.393,-0.242 0.411,-0.221C0.428,-0.2 0.437,-0.173 0.437,-0.138C0.437,-0.095 0.42,-0.06 0.387,-0.032C0.353,-0.004 0.305,0.01 0.244,0.01Z" style="fill:white;fill-rule:nonzero;stroke:white;stroke-width:0.02px;"/>
      </g>
      <g transform="matrix(50,0,0,50,385.754,370.354)">
        <path d="M0.125,0.003C0.11,0.003 0.097,-0.003 0.086,-0.014C0.075,-0.024 0.069,-0.038 0.069,-0.053L0.069,-0.059C0.069,-0.074 0.075,-0.088 0.086,-0.099C0.097,-0.11 0.11,-0.115 0.125,-0.115L0.135,-0.115C0.15,-0.115 0.164,-0.11 0.175,-0.099C0.186,-0.088 0.191,-0.074 0.191,-0.059L0.191,-0.053C0.191,-0.038 0.186,-0.024 0.175,-0.014C0.164,-0.003 0.15,0.003 0.135,0.003L0.125,0.003Z" style="fill:white;fill-rule:nonzero;stroke:white;stroke-width:0.02px;"/>
      </g>
      <g transform="matrix(50,0,0,50,398.254,370.354)">
        <path d="M0.315,0.01C0.267,0.01 0.223,-0.001 0.182,-0.022C0.141,-0.043 0.109,-0.074 0.085,-0.114C0.06,-0.154 0.048,-0.201 0.048,-0.255C0.048,-0.309 0.06,-0.356 0.085,-0.396C0.109,-0.436 0.141,-0.467 0.182,-0.488C0.223,-0.509 0.267,-0.52 0.315,-0.52C0.35,-0.52 0.381,-0.516 0.407,-0.507C0.432,-0.498 0.456,-0.486 0.478,-0.472C0.491,-0.463 0.498,-0.452 0.498,-0.437C0.498,-0.427 0.494,-0.418 0.487,-0.41C0.479,-0.401 0.47,-0.397 0.46,-0.397C0.453,-0.397 0.445,-0.399 0.438,-0.403C0.416,-0.414 0.397,-0.423 0.382,-0.428C0.366,-0.432 0.346,-0.435 0.323,-0.435C0.266,-0.435 0.221,-0.419 0.188,-0.386C0.155,-0.353 0.139,-0.309 0.139,-0.255C0.139,-0.201 0.155,-0.158 0.188,-0.125C0.221,-0.091 0.266,-0.075 0.323,-0.075C0.346,-0.075 0.366,-0.078 0.382,-0.083C0.397,-0.088 0.416,-0.096 0.438,-0.107C0.445,-0.111 0.453,-0.113 0.46,-0.113C0.47,-0.113 0.479,-0.109 0.487,-0.101C0.494,-0.092 0.498,-0.083 0.498,-0.073C0.498,-0.058 0.491,-0.047 0.478,-0.038C0.456,-0.024 0.432,-0.013 0.407,-0.004C0.381,0.006 0.35,0.01 0.315,0.01Z" style="fill:white;fill-rule:nonzero;stroke:white;stroke-width:0.02px;"/>
      </g>
      <g transform="matrix(50,0,0,50,424.704,370.354)">
        <path d="M0.304,0.01C0.253,0.01 0.208,-0.001 0.169,-0.023C0.13,-0.045 0.1,-0.076 0.08,-0.117C0.058,-0.157 0.048,-0.203 0.048,-0.255C0.048,-0.307 0.058,-0.353 0.08,-0.394C0.1,-0.434 0.13,-0.465 0.169,-0.487C0.208,-0.509 0.253,-0.52 0.304,-0.52C0.355,-0.52 0.399,-0.509 0.438,-0.487C0.477,-0.465 0.507,-0.434 0.528,-0.394C0.549,-0.353 0.56,-0.307 0.56,-0.255C0.56,-0.203 0.549,-0.157 0.528,-0.117C0.507,-0.076 0.477,-0.045 0.438,-0.023C0.399,-0.001 0.355,0.01 0.304,0.01ZM0.304,-0.073C0.331,-0.073 0.358,-0.079 0.383,-0.092C0.407,-0.105 0.428,-0.125 0.445,-0.152C0.461,-0.179 0.469,-0.214 0.469,-0.256C0.469,-0.297 0.461,-0.332 0.445,-0.359C0.428,-0.386 0.407,-0.406 0.383,-0.419C0.358,-0.431 0.331,-0.437 0.304,-0.437C0.276,-0.437 0.25,-0.431 0.225,-0.419C0.2,-0.406 0.179,-0.386 0.163,-0.359C0.147,-0.332 0.139,-0.297 0.139,-0.256C0.139,-0.214 0.147,-0.179 0.163,-0.152C0.179,-0.125 0.2,-0.105 0.225,-0.092C0.25,-0.079 0.276,-0.073 0.304,-0.073Z" style="fill:white;fill-rule:nonzero;stroke:white;stroke-width:0.02px;"/>
      </g>
      <g transform="matrix(50,0,0,50,455.104,370.354)">
        <path d="M0.124,0.005C0.111,0.005 0.101,0.001 0.092,-0.008C0.083,-0.017 0.079,-0.027 0.079,-0.04L0.079,-0.469C0.079,-0.482 0.083,-0.493 0.092,-0.502C0.101,-0.511 0.111,-0.515 0.124,-0.515C0.137,-0.515 0.148,-0.511 0.157,-0.502C0.166,-0.493 0.17,-0.482 0.17,-0.469L0.17,-0.428C0.189,-0.455 0.211,-0.477 0.238,-0.494C0.264,-0.511 0.298,-0.52 0.34,-0.52C0.377,-0.52 0.409,-0.51 0.436,-0.49C0.463,-0.47 0.482,-0.446 0.493,-0.417C0.534,-0.486 0.596,-0.52 0.677,-0.52C0.714,-0.52 0.745,-0.511 0.771,-0.492C0.796,-0.473 0.814,-0.449 0.826,-0.42C0.838,-0.391 0.844,-0.36 0.844,-0.328L0.844,-0.04C0.844,-0.027 0.84,-0.017 0.831,-0.008C0.822,0.001 0.811,0.005 0.798,0.005C0.785,0.005 0.775,0.001 0.766,-0.008C0.757,-0.017 0.753,-0.027 0.753,-0.04L0.753,-0.31C0.753,-0.353 0.745,-0.385 0.73,-0.406C0.715,-0.426 0.688,-0.436 0.651,-0.436C0.617,-0.436 0.589,-0.427 0.567,-0.41C0.544,-0.392 0.524,-0.369 0.507,-0.34L0.507,-0.04C0.507,-0.027 0.503,-0.017 0.494,-0.008C0.485,0.001 0.474,0.005 0.461,0.005C0.448,0.005 0.438,0.001 0.429,-0.008C0.42,-0.017 0.416,-0.027 0.416,-0.04L0.416,-0.31C0.416,-0.353 0.408,-0.385 0.393,-0.406C0.378,-0.426 0.351,-0.436 0.314,-0.436C0.28,-0.436 0.252,-0.427 0.23,-0.41C0.207,-0.392 0.187,-0.369 0.17,-0.34L0.17,-0.04C0.17,-0.027 0.166,-0.017 0.157,-0.008C0.148,0.001 0.137,0.005 0.124,0.005Z" style="fill:white;fill-rule:nonzero;stroke:white;stroke-width:0.02px;"/>
      </g>
    </g>
    <g transform="matrix(1,0,0,1,-11.6353,0.0350986)">
      <g id="path0" transform="matrix(1.90072,0,0,1.90072,70.9934,-26.941)">
        <path d="M267.703,147.009C260.014,149.031 261.445,159.986 269.401,160.01C273.631,160.022 276.204,157.571 276.204,153.529C276.204,149.052 272.05,145.866 267.703,147.009M288.443,148.107C286.746,149.142 286.052,151.237 286.771,153.158C286.928,153.577 292.43,159.301 298.999,165.88L310.941,177.841L298.996,189.799C292.427,196.376 286.925,202.099 286.769,202.518C285.638,205.561 288.449,208.695 291.554,207.855C293.129,207.428 320.103,180.343 320.514,178.775C321.138,176.397 321.412,176.733 307.072,162.336C290.962,146.164 291.258,146.39 288.443,148.107M266.983,195.104C263.785,196.008 261.563,200.17 262.635,203.249C265.218,210.671 275.978,209.202 276.022,201.422C276.049,196.764 271.748,193.758 266.983,195.104M341.081,199.984C330.87,200.132 330.66,200.146 329.831,200.738C327.588,202.338 327.634,205.911 329.917,207.459C331.124,208.277 369.125,208.401 370.952,207.593C374.069,206.214 374.066,202.033 370.946,200.312C370.024,199.803 360.674,199.701 341.081,199.984" style="fill:rgb(250,250,251);"/>
      </g>
      <g transform="matrix(2.53661,0,0,1.54939,-196.846,-150.504)">
        <path d="M138.851,332.165C138.078,332.165 137.427,331.732 136.898,330.866C136.369,330 136.105,328.934 136.105,327.668L136.105,267.007C136.105,265.742 136.369,264.659 136.898,263.76C137.427,262.86 138.078,262.41 138.851,262.41L151.121,262.41C155.76,262.41 159.697,264.093 162.932,267.457C166.168,270.822 168.599,275.169 170.227,280.499C171.855,285.829 172.669,291.425 172.669,297.288C172.669,303.151 171.855,308.747 170.227,314.077C168.599,319.407 166.168,323.754 162.932,327.119C159.697,330.483 155.76,332.165 151.121,332.165L138.851,332.165ZM150.449,323.671C153.786,323.671 156.716,322.555 159.239,320.323C161.763,318.091 163.716,314.993 165.099,311.029C166.483,307.065 167.175,302.485 167.175,297.288C167.175,292.091 166.483,287.511 165.099,283.547C163.716,279.583 161.763,276.485 159.239,274.253C156.716,272.021 153.786,270.905 150.449,270.905L141.659,270.905L141.659,323.671L150.449,323.671Z" style="fill:white;fill-rule:nonzero;stroke:white;stroke-width:2.97px;"/>
        <path d="M193.606,333.165C188.641,333.165 184.765,330.85 181.978,326.219C179.19,321.589 177.796,315.076 177.796,306.682C177.796,301.952 178.325,297.588 179.383,293.59C180.441,289.593 182.069,286.362 184.267,283.897C186.464,281.432 189.17,280.199 192.385,280.199C195.397,280.199 198.001,281.348 200.198,283.647C202.396,285.945 204.064,289.01 205.204,292.841C206.343,296.672 206.913,300.852 206.913,305.383C206.913,306.649 206.659,307.715 206.15,308.581C205.641,309.447 204.96,309.88 204.105,309.88L183.412,309.88C183.738,314.544 184.796,318.174 186.586,320.773C188.377,323.371 190.879,324.67 194.094,324.67C195.803,324.67 197.299,324.404 198.581,323.871C199.863,323.338 201.114,322.572 202.335,321.572C202.66,321.306 203.027,321.173 203.434,321.173C204.085,321.173 204.655,321.539 205.143,322.272C205.631,323.005 205.875,323.937 205.875,325.07C205.875,326.536 205.346,327.768 204.288,328.768C202.701,330.233 201.134,331.333 199.588,332.066C198.042,332.798 196.048,333.165 193.606,333.165ZM201.419,302.485C201.297,299.22 200.778,296.488 199.863,294.29C198.947,292.091 197.818,290.476 196.475,289.443C195.132,288.41 193.769,287.894 192.385,287.894C191.002,287.894 189.638,288.41 188.295,289.443C186.952,290.476 185.833,292.091 184.938,294.29C184.043,296.488 183.534,299.22 183.412,302.485L201.419,302.485Z" style="fill:white;fill-rule:nonzero;stroke:white;stroke-width:2.97px;"/>
        <path d="M224.981,332.665C224.249,332.665 223.577,332.315 222.967,331.616C222.357,330.916 221.909,330.034 221.624,328.968L211.003,287.394C210.799,286.595 210.698,285.895 210.698,285.296C210.698,284.03 210.962,282.947 211.491,282.048C212.02,281.148 212.671,280.699 213.445,280.699C213.974,280.699 214.472,280.948 214.94,281.448C215.408,281.948 215.744,282.564 215.947,283.297L225.287,322.072L234.626,283.297C234.829,282.564 235.165,281.948 235.633,281.448C236.101,280.948 236.6,280.699 237.129,280.699C237.902,280.699 238.553,281.148 239.082,282.048C239.611,282.947 239.876,284.03 239.876,285.296C239.876,285.895 239.774,286.595 239.57,287.394L228.949,328.968C228.664,330.034 228.217,330.916 227.606,331.616C226.996,332.315 226.324,332.665 225.592,332.665L224.981,332.665Z" style="fill:white;fill-rule:nonzero;stroke:white;stroke-width:2.97px;"/>
        <path d="M249.581,332.665C248.808,332.665 248.157,332.232 247.628,331.366C247.099,330.5 246.834,329.434 246.834,328.168L246.834,266.508C246.834,265.242 247.099,264.159 247.628,263.26C248.157,262.36 248.808,261.911 249.581,261.911C250.354,261.911 251.016,262.36 251.565,263.26C252.114,264.159 252.389,265.242 252.389,266.508L252.389,328.168C252.389,329.434 252.114,330.5 251.565,331.366C251.016,332.232 250.354,332.665 249.581,332.665Z" style="fill:white;fill-rule:nonzero;stroke:white;stroke-width:2.97px;"/>
        <path d="M276.867,332.665C276.094,332.665 275.443,332.232 274.914,331.366C274.385,330.5 274.12,329.434 274.12,328.168L274.12,270.905L261.668,270.905C260.935,270.905 260.325,270.505 259.836,269.706C259.348,268.906 259.104,267.907 259.104,266.708C259.104,265.508 259.348,264.492 259.836,263.66C260.325,262.827 260.935,262.41 261.668,262.41L292.066,262.41C292.799,262.41 293.419,262.827 293.928,263.66C294.437,264.492 294.691,265.508 294.691,266.708C294.691,267.907 294.437,268.906 293.928,269.706C293.419,270.505 292.799,270.905 292.066,270.905L279.675,270.905L279.675,328.168C279.675,329.434 279.4,330.5 278.851,331.366C278.301,332.232 277.64,332.665 276.867,332.665Z" style="fill:white;fill-rule:nonzero;stroke:white;stroke-width:2.97px;"/>
      </g>
    </g>
  </g>
</svg>